<svg xmlns="http://www.w3.org/2000/svg" width="85" height="84.916" viewBox="0 0 85 84.916">
  <g id="Grupo_129622" data-name="Grupo 129622" transform="translate(-1371.022 -206.682)">
    <path id="Trazado_187983" data-name="Trazado 187983" d="M1433.776,291.6h-57.109a6.423,6.423,0,0,1-5.645-5.634v-8.119c.434-.406.981-.305,1.5-.324.908-.033.99-.094.993-1.011.013-3.754,0-7.508.005-11.262,0-7.95.1-15.9-.043-23.848a7.374,7.374,0,0,1,7.678-7.629c8.767.026,17.535.008,26.3.007,1.589,0,1.59,0,1.59-1.571q0-11.883,0-23.766c0-1.759,0-1.759,1.773-1.759H1446.5c1.507,0,1.544.03,1.546,1.584q.008,6.376,0,12.753c0,.3.022.609,0,.91-.053.679.241.929.921.921,1.908-.023,3.817-.014,5.725,0a1.748,1.748,0,0,1,1.331.321v35.624a1.988,1.988,0,0,1-1.5.31q-7.841.011-15.681,0c-.193,0-.387,0-.581,0-1.145.014-1.177.033-1.178,1.153q-.009,8.073,0,16.147c0,1.074.037,1.1,1.129,1.125,1.508.04,1.68.2,1.687,1.673.009,1.822.059,3.646-.013,5.465a7.15,7.15,0,0,1-3.872,6.411A10.266,10.266,0,0,1,1433.776,291.6Z" fill="#1e1713"/>
    <path id="Trazado_187984" data-name="Trazado 187984" d="M1676.454,319.386c5.174,0,10.347.016,15.521-.018.741,0,.917.2.915.925q-.036,14.124,0,28.248c0,.7-.145.933-.9.931q-15.562-.041-31.125,0c-.736,0-.916-.19-.914-.917q.039-14.124,0-28.248c0-.807.268-.938.987-.934C1666.106,319.4,1671.28,319.386,1676.454,319.386Z" transform="translate(-239.607 -93.452)" fill="#fc502d"/>
    <path id="Trazado_187985" data-name="Trazado 187985" d="M1458.415,445.676c-7.441,0-14.882-.009-22.323.014-.706,0-.973-.108-.97-.914q.05-14.163.005-28.326c0-.674.14-.867.846-.866q17.013.037,34.025,0c.644,0,.828.154.824.813-.03,4.914,0,9.829-.037,14.743-.006.759.215.9.92.888,3.1-.04,6.2,0,9.294-.031.6-.006.795.114.789.76q-.05,6.087,0,12.175c.006.659-.216.755-.8.754Q1469.7,445.661,1458.415,445.676Z" transform="translate(-53.158 -173.244)" fill="#aab2d3"/>
    <path id="Trazado_187986" data-name="Trazado 187986" d="M1418.624,648.123q-13.524,0-27.048.008a4.133,4.133,0,0,1-4.117-2.494,3.588,3.588,0,0,1-.3-1.53c-.007-1.159.021-2.319-.018-3.478-.018-.553.178-.7.711-.7,1.936.026,3.872.01,5.808.01,4.453,0,8.906.026,13.358-.024.815-.009,1.1.258,1.25,1,.272,1.322.659,2.62.955,3.937a.612.612,0,0,0,.722.568q8.712-.02,17.424,0c.5,0,.651-.2.753-.64.325-1.4.717-2.776,1.034-4.173.11-.483.276-.685.81-.684q9.749.027,19.5,0c.612,0,.738.222.72.769-.036,1.075,0,2.153-.014,3.229a4.011,4.011,0,0,1-4.246,4.19c-5.2.015-10.4,0-15.6,0Z" transform="translate(-13.364 -359.287)" fill="#0d2380"/>
    <path id="Trazado_187987" data-name="Trazado 187987" d="M1628.47,223.184c5.2,0,10.4.012,15.6-.015.651,0,.826.171.821.822q-.046,6,0,12.008c.006.678-.148.867-.85.865-8.546-.027-17.093-.008-25.639-.034-.733,0-.965.151-.958.929.04,4.913.008,9.827.035,14.741,0,.621-.155.8-.781.779-1.353-.049-2.71-.034-4.065,0-.486.011-.666-.094-.665-.63q.026-14.41,0-28.819c0-.7.36-.646.822-.645Q1620.628,223.189,1628.47,223.184Z" transform="translate(-199.816 -13.673)" fill="#fff2bf"/>
    <path id="Trazado_187988" data-name="Trazado 187988" d="M1431.8,424.549q-13.943,0-27.886.015c-.665,0-.885-.128-.884-.846q.037-17.892.019-35.784a4.088,4.088,0,0,1,4.4-4.4c9.24-.009,18.48,0,27.72-.017.612,0,.8.144.79.774-.024,1.95,0,1.95-1.917,1.95h-24.9c-2.342,0-3.337.986-3.337,3.314q0,14.5,0,28.992c0,2.28,1.008,3.291,3.277,3.291h45.481c2.324,0,3.31-.995,3.311-3.338,0-4.086.014-8.173-.014-12.259,0-.637.146-.849.818-.838,1.962.033,1.962,0,1.962,1.99,0,5.412-.019,10.824.021,16.235.006.8-.252.935-.974.933Q1445.744,424.531,1431.8,424.549Z" transform="translate(-26.545 -146.651)" fill="#0d2380"/>
    <path id="Trazado_187989" data-name="Trazado 187989" d="M1534.161,642.317c-2.157,0-4.315-.014-6.472.01-.493.006-.764-.11-.849-.632-.111-.677-.61-1.554-.346-1.958.3-.451,1.273-.138,1.951-.14,4.26-.015,8.52.008,12.779-.023.666,0,.777.144.61.769-.526,1.967-.5,1.973-2.527,1.973Z" transform="translate(-128.871 -358.934)" fill="#fff2bf"/>
    <path id="Trazado_187990" data-name="Trazado 187990" d="M1705.274,369.749c-.234-.015-.293-.194-.386-.32-2.209-3-4.409-6.006-6.625-9-.271-.366-.172-.539.155-.786q2.711-2.045,5.387-4.136c.34-.266.517-.276.768.1.442.666.966,1.277,1.4,1.946.3.455.5.415.873.067,2.742-2.525,5.518-5.014,8.255-7.545.487-.451.743-.5,1.2.052,1.39,1.679,2.834,3.315,4.287,4.941.324.363.275.542-.06.846q-7.493,6.781-14.966,13.585C1705.467,369.593,1705.36,369.676,1705.274,369.749Z" transform="translate(-271.253 -118.628)" fill="#1e1713"/>
    <path id="Trazado_187991" data-name="Trazado 187991" d="M1792.415,446.125c-1.187,0-2.375-.013-3.562.007-.422.007-.566-.134-.593-.564-.14-2.211-.152-2.21,2.006-2.21.884,0,1.771-.049,2.65.015.723.053.894-.222.853-.888-.054-.879,0-1.763-.019-2.645-.009-.417.134-.568.568-.594,2.2-.135,2.2-.147,2.2,2,0,1.323-.054,2.649.02,3.968.045.8-.25.967-.973.928C1794.516,446.084,1793.464,446.126,1792.415,446.125Z" transform="translate(-345.974 -192.825)" fill="#1e1713"/>
    <path id="Trazado_187992" data-name="Trazado 187992" d="M1823.449,408.889c0,1.32,0,1.32-1.362,1.32-1.4,0-1.411,0-1.4-1.377.014-1.6-.22-1.364,1.42-1.379C1823.449,407.441,1823.449,407.451,1823.449,408.889Z" transform="translate(-372.907 -166.497)" fill="#1e1915"/>
    <path id="Trazado_187993" data-name="Trazado 187993" d="M1459.544,431.442c2.489,0,4.979.028,7.468-.018.689-.013.817.217.807.841-.035,2.208.016,4.417-.031,6.625-.015.683.213.823.84.8,1.354-.045,2.711,0,4.065-.024.473-.01.608.139.606.608q-.025,6.211,0,12.423c0,.517-.161.648-.659.646q-7.593-.024-15.185,0c-.536,0-.637-.177-.631-.662.023-2.181-.042-4.364.036-6.542.032-.887-.262-1.051-1.06-1.01-1.269.065-2.545-.008-3.816.03-.524.015-.648-.159-.646-.657q.027-6.211,0-12.423c0-.5.141-.657.653-.652C1454.51,431.455,1457.027,431.442,1459.544,431.442Z" transform="translate(-66.608 -186.379)" fill="#1e1713"/>
    <path id="Trazado_187994" data-name="Trazado 187994" d="M1604.034,527.658c2.459,0,4.919.017,7.377-.012.579-.007.82.087.811.751-.025,2.024.007,2.025-2,2.025-4.559,0-9.118-.015-13.677.017-.672,0-.821-.193-.811-.829.033-1.951.006-1.951,2-1.951Z" transform="translate(-186.357 -266.177)" fill="#1e1814"/>
    <path id="Trazado_187995" data-name="Trazado 187995" d="M1603.93,562.471c-2.487,0-4.973-.02-7.459.015-.6.008-.729-.178-.725-.744.014-2.031-.008-2.031,2-2.031,4.531,0,9.063.014,13.594-.015.66,0,.908.121.892.84-.042,1.935-.008,1.936-1.917,1.936Z" transform="translate(-186.365 -292.756)" fill="#1e1814"/>
    <path id="Trazado_187996" data-name="Trazado 187996" d="M1641.6,271.2c4.311,0,8.621.01,12.932-.012.56,0,.755.12.753.718-.007,2.048.018,2.048-2,2.048-8.179,0-16.359-.01-24.538.017-.721,0-.943-.163-.922-.908.054-1.862.014-1.863,1.919-1.863Z" transform="translate(-212.968 -53.495)" fill="#1e1713"/>
    <path id="Trazado_187997" data-name="Trazado 187997" d="M1670.9,241.87c-3.347,0-6.694-.016-10.041.014-.652.006-.918-.114-.9-.845.045-1.917.008-1.918,1.95-1.918,6.39,0,12.78.012,19.17-.017.7,0,.871.187.856.869-.043,1.9-.01,1.9-1.905,1.9Z" transform="translate(-239.615 -26.888)" fill="#1e1713"/>
    <path id="Trazado_187998" data-name="Trazado 187998" d="M1629.342,239.2c1.373,0,1.373,0,1.373,1.38s0,1.372-1.4,1.372c-1.374,0-1.374,0-1.374-1.4C1627.941,239.2,1627.941,239.2,1629.342,239.2Z" transform="translate(-213.065 -26.968)" fill="#211914"/>
    <path id="Trazado_187999" data-name="Trazado 187999" d="M1724.078,384.6c-.232-.021-.294-.192-.387-.318-1.081-1.466-2.15-2.942-3.244-4.4-.236-.315-.214-.472.092-.729,1.494-1.252,1.472-1.253,2.628.28.389.516.651,1.412,1.234,1.419.474.005.966-.732,1.435-1.157,2.518-2.283,5.041-4.56,7.537-6.866.428-.4.648-.38,1.027.061,1.13,1.317,1.152,1.3-.151,2.485q-4.844,4.406-9.691,8.809C1724.4,384.331,1724.226,384.471,1724.078,384.6Z" transform="translate(-289.648 -137.551)" fill="#fbd670"/>
    <path id="Trazado_188000" data-name="Trazado 188000" d="M1472.751,455.862c-1.6,0-3.2-.018-4.806.01-.5.009-.665-.114-.658-.639.029-2.315.024-4.631,0-6.947,0-.458.112-.617.594-.615q4.889.029,9.778,0c.46,0,.616.115.611.6q-.035,3.514,0,7.029c.006.51-.2.578-.634.572C1476.011,455.85,1474.381,455.862,1472.751,455.862Z" transform="translate(-79.833 -199.855)" fill="#fff2bf"/>
    <path id="Trazado_188001" data-name="Trazado 188001" d="M1504.84,503.8c-1.576,0-3.152-.018-4.728.01-.513.009-.737-.1-.72-.672q.062-2.068,0-4.139c-.016-.563.181-.688.708-.681,2.24.026,4.48-.008,6.719.024.615.009.867-.107.855-.8-.033-2.029,0-2.013,2.037-1.987.493.006.674.123.668.645-.025,2.318-.031,4.637,0,6.954.009.594-.238.665-.732.658C1508.048,503.787,1506.444,503.8,1504.84,503.8Z" transform="translate(-106.458 -239.558)" fill="#fec2b5"/>
  </g>
</svg>
