<svg xmlns="http://www.w3.org/2000/svg" width="159" height="159" viewBox="0 0 159 159">
  <g id="Grupo_134832" data-name="Grupo 134832" transform="translate(-8555.014 12405)">
    <g id="Elipse_4815" data-name="Elipse 4815" transform="translate(8555.014 -12405)" fill="none" stroke="#0d2380" stroke-width="5">
      <circle cx="79.5" cy="79.5" r="79.5" stroke="none"/>
      <circle cx="79.5" cy="79.5" r="77" fill="none"/>
    </g>
    <circle id="Elipse_4816" data-name="Elipse 4816" cx="67.5" cy="67.5" r="67.5" transform="translate(8567.014 -12393)" fill="#0d2380"/>
    <path id="Trazado_188461" data-name="Trazado 188461" d="M4808.972,561.19c0-1.208-.02-2.417,0-3.625-.023,1.208,0,2.416,0,3.625,0,1.181-.016,2.363,0,3.544C4808.956,563.553,4808.972,562.371,4808.972,561.19Z" transform="translate(3839.202 -12880.465)" fill="#dadeec"/>
    <path id="Trazado_188462" data-name="Trazado 188462" d="M4547.57,324.343a9.447,9.447,0,0,0-7.5-3.78c-3.546-.056-7.093-.034-10.64,0a1.542,1.542,0,0,1-1.62-1.016c-.935-2.05-1.92-4.078-2.895-6.11a7.364,7.364,0,0,0-7.111-4.5q-9.309-.012-18.62,0a7.331,7.331,0,0,0-7.068,4.435c-.993,2.053-1.988,4.1-2.934,6.18a1.542,1.542,0,0,1-1.624,1.009c-3.493-.032-6.986-.015-10.479-.013a9.665,9.665,0,0,0-9.941,8.106,1.328,1.328,0,0,1-.134.281v46.131a11.843,11.843,0,0,0,1.96,4.529,9.339,9.339,0,0,0,7.558,3.84q31.772.044,63.542.006a9.65,9.65,0,0,0,9.35-7.857,4.764,4.764,0,0,1,.167-.518V328.936A11.9,11.9,0,0,0,4547.57,324.343Zm-1.369,51.384a3.536,3.536,0,0,1-3.868,3.855q-16.988,0-33.977,0h-33.8c-2.663,0-4.021-1.37-4.021-4.053q0-23.121,0-46.241c0-2.629,1.368-4.009,3.974-4.01q5.78,0,11.56,0a8.037,8.037,0,0,0,7.787-4.933c1.053-2.211,2.126-4.412,3.146-6.637a1.631,1.631,0,0,1,1.7-1.055q9.9.037,19.79,0a1.623,1.623,0,0,1,1.693,1.065c1.017,2.227,2.089,4.429,3.146,6.637a8.05,8.05,0,0,0,7.8,4.923q5.6,0,11.209,0a3.533,3.533,0,0,1,3.865,3.856Q4546.206,352.431,4546.2,375.727Z" transform="translate(4126.014 -12671.931)" fill="#dadeec"/>
    <path id="Trazado_188463" data-name="Trazado 188463" d="M4779.021,518.276a11.006,11.006,0,0,0,11.815-8.562,45.981,45.981,0,0,0,.483-6.082l-.268-.01a41.108,41.108,0,0,0-.033-5.147,11.041,11.041,0,0,0-11.7-9.5,10.727,10.727,0,0,0-3.908.991,11.176,11.176,0,0,0-6.474,9.894q-.045,3.749,0,7.5a10.921,10.921,0,0,0,2.282,6.587A11.386,11.386,0,0,0,4779.021,518.276Zm1-22.862a4.666,4.666,0,0,1,4.7,4.628q.048,3.584,0,7.168a4.671,4.671,0,0,1-9.342-.02c-.019-1.181,0-2.363,0-3.544,0-1.208-.02-2.417,0-3.625A4.677,4.677,0,0,1,4780.023,495.414Z" transform="translate(3872.795 -12822.922)" fill="#dadeec"/>
    <path id="Trazado_188464" data-name="Trazado 188464" d="M4612.393,518.619c3.546,0,7.093.024,10.639-.007a8.884,8.884,0,0,0,8.694-8.045,8.5,8.5,0,0,0-.5-3.994,8.679,8.679,0,0,0-6.062-5.485,30.021,30.021,0,0,0-5.437-.363,2.55,2.55,0,0,1-2.707-2.485,2.512,2.512,0,0,1,2.738-2.522c2.633-.006,5.266,0,7.9,0h.844v-6.4c-3.364,0-6.687,0-10.009,0a3.238,3.238,0,0,0-.476.083,8.936,8.936,0,0,0-7.447,8.825,8.84,8.84,0,0,0,7.482,8.771,39.688,39.688,0,0,0,4.581.163,2.528,2.528,0,0,1,2.468,3.54,2.578,2.578,0,0,1-2.458,1.462q-5,0-9.994,0h-.862v6.452Z" transform="translate(4005.602 -12823.226)" fill="#dadeec"/>
    <path id="Trazado_188465" data-name="Trazado 188465" d="M4539.418,518.375h6.324V489.093h-6.324Z" transform="translate(4065.275 -12823.036)" fill="#dadeec"/>
  </g>
</svg>
