<svg xmlns="http://www.w3.org/2000/svg" width="159" height="159" viewBox="0 0 159 159">
  <g id="Grupo_134833" data-name="Grupo 134833" transform="translate(-9869 10409)">
    <g id="Grupo_132661" data-name="Grupo 132661" transform="translate(9492 -11700)">
      <g id="Elipse_4815" data-name="Elipse 4815" transform="translate(377 1291)" fill="none" stroke="#0d2380" stroke-width="5">
        <circle cx="79.5" cy="79.5" r="79.5" stroke="none"/>
        <circle cx="79.5" cy="79.5" r="77" fill="none"/>
      </g>
      <circle id="Elipse_4816" data-name="Elipse 4816" cx="67.5" cy="67.5" r="67.5" transform="translate(389 1303)" fill="#0d2380"/>
    </g>
    <g id="Grupo_132722" data-name="Grupo 132722" transform="translate(4802.249 -10748.054)">
      <path id="Trazado_188466" data-name="Trazado 188466" d="M5196.665,445.882a2.97,2.97,0,0,1-2.569,1.417c-4.957.406-9.906.9-14.857,1.363-.388.036-.772.1-1.252.169-.207,2.1-.417,4.192-.617,6.289-.329,3.469-.662,6.938-.968,10.41a1.995,1.995,0,0,1-3.533,1.246q-5.821-5.851-11.658-11.686c-2.092-2.1-4.169-4.21-6.3-6.271a1.664,1.664,0,0,0-1.242-.4,40.5,40.5,0,0,1-13.779-.03,1.51,1.51,0,0,0-1.524.507q-8.673,8.73-17.378,17.429c-.207.208-.411.419-.624.619a1.85,1.85,0,0,1-2.069.432,1.89,1.89,0,0,1-1.269-1.694q-.668-7.15-1.348-14.3c-.076-.809-.156-1.617-.248-2.558-1.24-.128-2.484-.268-3.731-.385q-6.5-.609-13.011-1.206a1.963,1.963,0,0,1-1.826-1.384,2,2,0,0,1,.651-2.2q6.907-6.905,13.806-13.818a6.13,6.13,0,0,1,.9-.64c-.594-1.172-1.129-2.073-1.514-3.035-.291-.726-.751-.808-1.429-.806a5.99,5.99,0,0,1-6.161-4.778,8.135,8.135,0,0,1-.137-1.746q-.014-9.776,0-19.552c0-4.021,2.484-6.542,6.488-6.553a1.172,1.172,0,0,0,1.235-.784c5.5-11.148,14.223-18.43,26.229-21.616a39.806,39.806,0,0,1,45.628,21.29,1.617,1.617,0,0,0,1.716,1.121,6.021,6.021,0,0,1,6.169,6.178c.008.587.019,1.174-.007,1.759a1.951,1.951,0,0,1-1.9,1.967,1.984,1.984,0,0,1-1.981-1.9c-.046-.583-.007-1.173-.02-1.759a2.187,2.187,0,0,0-2.388-2.356c-.195,0-.39,0-.585,0h-73.668c-2.372,0-3.018.641-3.018,3q0,9.532,0,19.064c0,2.059.706,2.769,2.747,2.769q37.077,0,74.155,0c2.042,0,2.741-.713,2.767-2.757a4.787,4.787,0,0,1,.184-1.534,1.756,1.756,0,0,1,1.912-1.2,1.712,1.712,0,0,1,1.729,1.458c.54,3.778-.994,6.934-4.832,7.836a3.791,3.791,0,0,1-1.354.095c-.864-.119-1.277.258-1.584,1.028-.348.872-.838,1.687-1.307,2.607.221.233.455.49.7.736q6.828,6.845,13.653,13.695a13.747,13.747,0,0,1,1.018,1.293Zm-17.992-20.458h-63.9c4.6,9.756,16.2,19.387,31.276,19.655A35.948,35.948,0,0,0,5178.673,425.424Zm-64.109-32.8h64.285c-7.244-12.524-17.758-19.548-32.144-19.543S5121.805,380.1,5114.564,392.627Zm64.5,39.793a40.4,40.4,0,0,1-20.072,14.662l13.866,13.9c.044-.253.12-.558.148-.867q.609-6.465,1.2-12.932c.129-1.4.643-1.994,2.045-2.135,4.461-.449,8.924-.863,13.387-1.295a6.048,6.048,0,0,0,.6-.121Zm-75.786,11.274c.111.014.292.041.473.059,4.5.432,8.993.852,13.487,1.3a1.914,1.914,0,0,1,1.951,1.915c.276,2.884.532,5.771.8,8.655.169,1.8.353,3.608.515,5.268l13.824-13.853a40.091,40.091,0,0,1-19.907-14.506Z" fill="#dadeec"/>
      <path id="Trazado_188467" data-name="Trazado 188467" d="M5314.937,487.183a9.211,9.211,0,1,1-9.052,9.318A9.214,9.214,0,0,1,5314.937,487.183Zm.112,3.912a5.292,5.292,0,0,0-5.262,5.3,5.3,5.3,0,1,0,5.262-5.3Z" transform="translate(-154.61 -87.331)" fill="#dadeec"/>
      <path id="Trazado_188468" data-name="Trazado 188468" d="M5252.8,486.7a9.856,9.856,0,0,1,4.926,1.813,1.958,1.958,0,0,1,.667,2.868,1.929,1.929,0,0,1-2.839.367,4.54,4.54,0,0,0-3.475-.931,2.311,2.311,0,0,0-1.165.608c-.49.514-.279,1.149.439,1.453,1.313.557,2.653,1.055,3.964,1.618,1.944.835,3.464,2.1,3.831,4.318a5.556,5.556,0,0,1-4.628,6.233,8.385,8.385,0,0,1-7.858-2.4,1.919,1.919,0,0,1-.176-2.861,1.947,1.947,0,0,1,2.861.06,4.718,4.718,0,0,0,4.365,1.353,1.76,1.76,0,0,0,1.565-1.408c.138-.888-.567-1.269-1.216-1.558-1.363-.607-2.749-1.162-4.139-1.706a4.571,4.571,0,0,1-3.157-4.469,4.951,4.951,0,0,1,3.308-4.726A21.239,21.239,0,0,1,5252.8,486.7Z" transform="translate(-110.286 -86.975)" fill="#dadeec"/>
      <path id="Trazado_188469" data-name="Trazado 188469" d="M5219.1,496.475c0,2.248.006,4.5,0,6.745-.006,1.51-.757,2.416-1.958,2.4-1.168-.018-1.935-.917-1.939-2.346q-.017-6.892,0-13.783c0-1.433.78-2.292,1.981-2.279s1.907.863,1.914,2.325C5219.112,491.848,5219.1,494.162,5219.1,496.475Z" transform="translate(-87.566 -87.352)" fill="#dadeec"/>
      <path id="Trazado_188470" data-name="Trazado 188470" d="M5445.082,516.99a1.944,1.944,0,0,1-1.879,1.97,1.991,1.991,0,0,1-2-1.966,1.939,1.939,0,0,1,1.949-1.9A1.893,1.893,0,0,1,5445.082,516.99Z" transform="translate(-254.65 -107.969)" fill="#dadeec"/>
      <path id="Trazado_188471" data-name="Trazado 188471" d="M5223.682,611.923a31.28,31.28,0,0,1-20.506-8.317c-1.358-1.214-1.167-2.971.367-3.53a2.219,2.219,0,0,1,2.367.729,26.767,26.767,0,0,0,11.552,6.242,27.772,27.772,0,0,0,25.943-6.142c.173-.148.336-.308.517-.447a1.944,1.944,0,0,1,2.726.12,1.881,1.881,0,0,1-.162,2.786,48.5,48.5,0,0,1-4.962,3.772C5236.391,610.363,5230.746,611.9,5223.682,611.923Z" transform="translate(-78.006 -170.705)" fill="#dadeec"/>
      <path id="Trazado_188472" data-name="Trazado 188472" d="M5225.066,399a31.666,31.666,0,0,1,21.105,8.31c1.072.961,1.246,2.094.485,2.988-.777.913-1.993.88-3.09-.084a28.092,28.092,0,0,0-37.785-.009c-1.163,1.022-2.476,1-3.214-.051a1.986,1.986,0,0,1,.511-2.769,31.653,31.653,0,0,1,11.706-6.812A33.436,33.436,0,0,1,5225.066,399Z" transform="translate(-77.96 -22.142)" fill="#dadeec"/>
    </g>
  </g>
</svg>
