<svg xmlns="http://www.w3.org/2000/svg" width="159" height="159" viewBox="0 0 159 159">
  <g id="Grupo_134830" data-name="Grupo 134830" transform="translate(-8405 12550)">
    <g id="Elipse_4815" data-name="Elipse 4815" transform="translate(8405 -12550)" fill="none" stroke="#0d2380" stroke-width="5">
      <circle cx="79.5" cy="79.5" r="79.5" stroke="none"/>
      <circle cx="79.5" cy="79.5" r="77" fill="none"/>
    </g>
    <circle id="Elipse_4816" data-name="Elipse 4816" cx="67.5" cy="67.5" r="67.5" transform="translate(8417 -12538)" fill="#0d2380"/>
    <g id="Grupo_132714" data-name="Grupo 132714" transform="translate(8437 -12518)">
      <path id="Trazado_188450" data-name="Trazado 188450" d="M3515.529,449.027h-5.9c-.267-.054-.532-.121-.8-.161-2.245-.335-4.522-.526-6.733-1.017a47.2,47.2,0,0,1,17.459-92.7c15.421,2.32,26.887,10.624,34.555,24.188.58,1.026.454,1.824-.307,2.249-.794.444-1.481.072-2.144-.953-1.5-2.319-3.054-4.6-4.6-6.89a4.8,4.8,0,0,0-.483-.57l-11.556,4.425a33.113,33.113,0,0,1,10.561,22.773h11.355a1.806,1.806,0,0,0,.055-.326c-.009-.307-.03-.614-.049-.921a44.518,44.518,0,0,0-2.42-12.062c-.36-1.029-.042-1.8.772-2.051.843-.262,1.551.128,1.844,1.182.681,2.451,1.375,4.9,1.906,7.391.382,1.789.51,3.632.751,5.451v5.719c-.052.238-.12.473-.154.713-.321,2.185-.523,4.395-.971,6.553-3.8,18.326-19.441,33.292-37.868,36.281C3519.052,448.583,3517.288,448.786,3515.529,449.027Zm-25.435-23.01a30.271,30.271,0,0,1-2.259-2.407c-1.377-1.8-2.69-3.657-3.963-5.534a1.346,1.346,0,0,1,.44-2.062,1.4,1.4,0,0,1,1.935.683c.083.129.159.263.237.395a30.237,30.237,0,1,0,23.41-45.344c-12.711,1.266-21.357,8.262-25.859,20.177a28.841,28.841,0,0,0-.389,18.743,1.4,1.4,0,0,1-.85,1.939c-.775.251-1.486-.182-1.773-1.147a26.088,26.088,0,0,1-.729-2.851c-.314-1.773-.548-3.56-.812-5.321h-11.338a44.337,44.337,0,0,0,10.446,27.139Zm-11.506-52.845a44.294,44.294,0,0,0-10.444,27.192h11.441a33.134,33.134,0,0,1,10.553-22.764Zm67.979,57.253a44.323,44.323,0,0,0,10.44-27.168h-11.435A33.112,33.112,0,0,1,3535.024,426ZM3532.7,375.112a55.452,55.452,0,0,0,11.793-4.261,44.575,44.575,0,0,0-22.182-12.442C3527.512,363.062,3530.412,368.869,3532.7,375.112Zm-30.12-16.565a43.881,43.881,0,0,0-21.9,12.318,55.408,55.408,0,0,0,11.766,4.249C3494.739,368.873,3497.631,363.091,3502.583,358.546Zm20,86.5a43.789,43.789,0,0,0,21.887-12.311,54.461,54.461,0,0,0-11.549-4.19c-1.47,3.034-2.792,6-4.321,8.854A29.282,29.282,0,0,1,3522.578,445.043Zm-30.125-16.559a55.016,55.016,0,0,0-11.768,4.256,44.886,44.886,0,0,0,22.14,12.438C3497.64,440.52,3494.736,434.725,3492.453,428.483Zm18.69,6.307a33.77,33.77,0,0,1-14.85-4.273,3.567,3.567,0,0,0,.173.568c1.493,2.669,2.833,5.442,4.53,7.975a16.448,16.448,0,0,0,7.991,6.54c.668.246,1.379.375,2.156.58Zm0-77.259c-2.163.107-4.789,1.413-7.252,3.7-3.5,3.25-5.742,7.32-7.693,11.9a33.676,33.676,0,0,1,14.945-4.341Zm17.718,15.547c-.086-.3-.112-.435-.167-.564a37.666,37.666,0,0,0-4.6-8.146,17.728,17.728,0,0,0-7.916-6.369c-.668-.246-1.379-.376-2.129-.575v11.382A33.426,33.426,0,0,1,3528.857,373.078ZM3514.025,434.8v11.236a1.446,1.446,0,0,0,.323.044c.212-.028.423-.069.631-.117a13.04,13.04,0,0,0,5.556-2.94c3.866-3.319,6.331-7.6,8.251-12.233.015-.036-.043-.1-.082-.187A33.274,33.274,0,0,1,3514.025,434.8Z" transform="translate(-3465.311 -354.603)" fill="#dadeec"/>
    </g>
    <g id="Grupo_132715" data-name="Grupo 132715" transform="translate(8485.592 -12489.197)">
      <path id="Trazado_188451" data-name="Trazado 188451" d="M3670.4,487.167a7.834,7.834,0,1,1,7.791-7.8A7.849,7.849,0,0,1,3670.4,487.167Zm5.024-7.822a5.072,5.072,0,0,0-5.01-5.076,5.066,5.066,0,1,0,.005,10.131A5.016,5.016,0,0,0,3675.42,479.346Z" transform="translate(-3662.52 -471.5)" fill="#dadeec"/>
    </g>
    <g id="Grupo_132716" data-name="Grupo 132716" transform="translate(8472.249 -12489.197)">
      <path id="Trazado_188452" data-name="Trazado 188452" d="M3613.4,487.156a6.977,6.977,0,0,1-4.477-2.148,1.393,1.393,0,0,1-.186-2.04,1.371,1.371,0,0,1,2.106.077,4.418,4.418,0,0,0,3.687,1.314,3.435,3.435,0,0,0,1.642-.7,1.293,1.293,0,0,0-.055-2.191,8.863,8.863,0,0,0-1.784-.925c-.9-.394-1.812-.751-2.726-1.109a3.635,3.635,0,0,1-2.472-3.153,3.888,3.888,0,0,1,1.82-3.874c2.528-1.685,5.825-.781,7.689.847a1.219,1.219,0,0,1,.116,1.819,1.359,1.359,0,0,1-1.82.3,13.665,13.665,0,0,0-2.524-1.024,2.48,2.48,0,0,0-1.671.26,1.843,1.843,0,0,0-.8,1.27c-.025.324.455.838.828,1.015,1.216.578,2.509.992,3.732,1.557a4.442,4.442,0,0,1,2.977,3.968C3619.573,485.105,3617.181,487.212,3613.4,487.156Z" transform="translate(-3608.369 -471.502)" fill="#dadeec"/>
    </g>
    <g id="Grupo_132718" data-name="Grupo 132718" transform="translate(8462.262 -12469.379)">
      <path id="Trazado_188454" data-name="Trazado 188454" d="M3574.268,551.967a2.409,2.409,0,0,1,2.08,1.042,3.142,3.142,0,0,1,.452,2.512,4.283,4.283,0,0,1-1.378,2.343,14.234,14.234,0,0,1-2.255,1.583,17.781,17.781,0,0,0-2.16,1.486,3.257,3.257,0,0,0-1.124,1.672h4.75a.627.627,0,0,1,.562.291.849.849,0,0,1,.131.695v.016a1.2,1.2,0,0,1-.394.687.965.965,0,0,1-.679.291h-5.706a.65.65,0,0,1-.562-.291.819.819,0,0,1-.131-.687l.146-.759a5.281,5.281,0,0,1,1.438-2.69,12.157,12.157,0,0,1,2.32-1.769q1.852-1.163,2.181-1.414a2.579,2.579,0,0,0,1.073-1.454,1.375,1.375,0,0,0-.2-1.115,1.078,1.078,0,0,0-.927-.469h-2.933a.663.663,0,0,1-.569-.283.85.85,0,0,1-.131-.695v-.016a1.247,1.247,0,0,1,.4-.695,1,1,0,0,1,.679-.283Z" transform="translate(-3567.833 -551.959)" fill="#dadeec"/>
      <path id="Trazado_188455" data-name="Trazado 188455" d="M3611.392,563.64a1.192,1.192,0,0,1-.379.654,1.008,1.008,0,0,1-.686.291h-.015a.628.628,0,0,1-.562-.291.859.859,0,0,1-.124-.719l4.472-9.637h-3.757a.656.656,0,0,1-.562-.283.846.846,0,0,1-.131-.695v-.016a1.246,1.246,0,0,1,.4-.695.989.989,0,0,1,.671-.283h4.947a.682.682,0,0,1,.576.283.925.925,0,0,1,.109.727Z" transform="translate(-3599.309 -551.959)" fill="#dadeec"/>
      <path id="Trazado_188456" data-name="Trazado 188456" d="M3642.952,553.21a3.832,3.832,0,0,1,.562,3.062l-.759,3.942a5.463,5.463,0,0,1-1.736,3.07A4.413,4.413,0,0,1,3638,564.56a2.912,2.912,0,0,1-2.517-1.276,3.829,3.829,0,0,1-.569-3.07l.759-3.942a5.444,5.444,0,0,1,1.744-3.062,4.379,4.379,0,0,1,3.006-1.276A2.939,2.939,0,0,1,3642.952,553.21Zm-4.561,1.438a3.012,3.012,0,0,0-.941,1.672l-.737,3.845a2.094,2.094,0,0,0,.3,1.672,1.58,1.58,0,0,0,1.372.695,2.415,2.415,0,0,0,1.649-.695,2.99,2.99,0,0,0,.948-1.672l.737-3.845a2.079,2.079,0,0,0-.307-1.672,1.6,1.6,0,0,0-1.379-.695A2.393,2.393,0,0,0,3638.391,554.648Z" transform="translate(-3618.313 -551.934)" fill="#dadeec"/>
      <path id="Trazado_188457" data-name="Trazado 188457" d="M3680.706,553.21a3.832,3.832,0,0,1,.562,3.062l-.759,3.942a5.466,5.466,0,0,1-1.736,3.07,4.413,4.413,0,0,1-3.021,1.276,2.912,2.912,0,0,1-2.517-1.276,3.827,3.827,0,0,1-.569-3.07l.759-3.942a5.447,5.447,0,0,1,1.744-3.062,4.381,4.381,0,0,1,3.006-1.276A2.939,2.939,0,0,1,3680.706,553.21Zm-4.56,1.438a3.01,3.01,0,0,0-.941,1.672l-.737,3.845a2.094,2.094,0,0,0,.3,1.672,1.581,1.581,0,0,0,1.372.695,2.415,2.415,0,0,0,1.649-.695,2.99,2.99,0,0,0,.948-1.672l.737-3.845a2.079,2.079,0,0,0-.307-1.672,1.6,1.6,0,0,0-1.379-.695A2.391,2.391,0,0,0,3676.146,554.648Z" transform="translate(-3646.765 -551.934)" fill="#dadeec"/>
      <path id="Trazado_188458" data-name="Trazado 188458" d="M3718.46,553.21a3.828,3.828,0,0,1,.562,3.062l-.758,3.942a5.467,5.467,0,0,1-1.737,3.07,4.413,4.413,0,0,1-3.021,1.276,2.912,2.912,0,0,1-2.517-1.276,3.827,3.827,0,0,1-.569-3.07l.758-3.942a5.449,5.449,0,0,1,1.744-3.062,4.381,4.381,0,0,1,3.006-1.276A2.938,2.938,0,0,1,3718.46,553.21Zm-4.56,1.438a3.006,3.006,0,0,0-.941,1.672l-.737,3.845a2.1,2.1,0,0,0,.3,1.672,1.581,1.581,0,0,0,1.372.695,2.415,2.415,0,0,0,1.649-.695,2.991,2.991,0,0,0,.949-1.672l.737-3.845a2.079,2.079,0,0,0-.307-1.672,1.6,1.6,0,0,0-1.379-.695A2.39,2.39,0,0,0,3713.9,554.648Z" transform="translate(-3675.217 -551.934)" fill="#dadeec"/>
    </g>
  </g>
</svg>
