<svg xmlns="http://www.w3.org/2000/svg" width="159" height="340" viewBox="0 0 159 340">
  <g id="Grupo_134853" data-name="Grupo 134853" transform="translate(-7734 10134)">
    <text id="_2" data-name="2" transform="translate(7817 -9835)" fill="#aab2d3" font-size="150" font-family="Roboto-Black, Roboto" font-weight="800"><tspan x="-43.433" y="0">2</tspan></text>
    <g id="Grupo_132660" data-name="Grupo 132660" transform="translate(7357 -11425)">
      <g id="Elipse_4815" data-name="Elipse 4815" transform="translate(377 1291)" fill="none" stroke="#0d2380" stroke-width="5">
        <circle cx="79.5" cy="79.5" r="79.5" stroke="none"/>
        <circle cx="79.5" cy="79.5" r="77" fill="none"/>
      </g>
      <circle id="Elipse_4816" data-name="Elipse 4816" cx="67.5" cy="67.5" r="67.5" transform="translate(389 1303)" fill="#0d2380"/>
    </g>
    <g id="Grupo_132720" data-name="Grupo 132720" transform="translate(3792.113 -10434.7)">
      <path id="Trazado_188459" data-name="Trazado 188459" d="M4046.913,419.133h-51.42c-1.865-.678-2.437-2.07-2.411-3.964.063-4.535.021-9.072.021-13.608v-.9c-.631,0-1.134.01-1.637,0a4.339,4.339,0,0,1-4.549-4.517q-.059-11.113,0-22.227a4.346,4.346,0,0,1,4.623-4.518c.5-.006.994,0,1.563,0v-.971q0-11.567,0-23.134c0-2.4,1.183-3.577,3.573-3.577q17.807,0,35.614-.015a2.541,2.541,0,0,1,2.086.966q7.025,8.067,14.1,16.092a3.158,3.158,0,0,1,.837,2.257c-.026,2.52-.009,5.04-.009,7.56v.821c.606,0,1.084,0,1.562,0a4.347,4.347,0,0,1,4.625,4.517q.059,11.113,0,22.227a4.347,4.347,0,0,1-4.624,4.519c-.5.008-.993,0-1.562,0v.975c0,4.511-.042,9.022.021,13.532C4049.35,417.061,4048.779,418.456,4046.913,419.133Zm-.693-49.774v-7.548h-.863q-5.973,0-11.946,0c-1.576,0-2.079-.507-2.08-2.086q0-7.031,0-14.061v-.854h-35.144v24.549Zm-.007,45.867V400.7H3996.2v14.524Zm-20.5-30.881c.016,7.937,4.628,12.557,11.465,12.235a10.208,10.208,0,0,0,9.482-6.881,14.65,14.65,0,0,0,.539-7.965,10.739,10.739,0,0,0-17.163-6.353A11.325,11.325,0,0,0,4025.709,384.345Zm-18.027,10.9c4.115,1.527,8.181,2.072,12.182,0a6.382,6.382,0,0,0,2.7-8.637,7.826,7.826,0,0,0-4.05-3.355c-1.374-.621-2.771-1.193-4.126-1.854a1.945,1.945,0,0,1,.344-3.7,5.669,5.669,0,0,1,2.073-.263c1.478.177,2.936.514,4.475.8.274-.987.558-2.132.918-3.252.178-.553.017-.816-.5-.912a38.96,38.96,0,0,0-4.959-.845,9.6,9.6,0,0,0-6.267,1.791,6.1,6.1,0,0,0-1.183,8.591,10.271,10.271,0,0,0,4.289,2.853c1.045.43,2.1.85,3.1,1.374a2.263,2.263,0,0,1-.747,4.326,13.587,13.587,0,0,1-3.591-.059,29.513,29.513,0,0,1-3.621-1.023Zm-8.647-21.632V396.2h5.032V373.617Z" fill="#dadeec"/>
      <path id="Trazado_188460" data-name="Trazado 188460" d="M4237.234,550.557a9.067,9.067,0,0,1,1.792-5.942,4.679,4.679,0,0,1,7.816.683,10.206,10.206,0,0,1-.032,10.444,4.784,4.784,0,0,1-8.262.008A9.635,9.635,0,0,1,4237.234,550.557Z" transform="translate(-206.104 -165.578)" fill="#dadeec"/>
    </g>
  </g>
</svg>
