<svg xmlns="http://www.w3.org/2000/svg" width="64.286" height="66" viewBox="0 0 64.286 66">
  <g id="Grupo_132713" data-name="Grupo 132713" transform="translate(-2983.213 -366.082)">
    <path id="Trazado_188432" data-name="Trazado 188432" d="M2990.24,366.082h36.833a2.991,2.991,0,0,1,1.146.8q6.049,6.059,12.114,12.1a3,3,0,0,1,.99,2.392c-.06,1.65,0,3.3-.025,4.956a1.885,1.885,0,0,0,.621,1.478c1.563,1.532,3.089,3.1,4.655,4.631a2.9,2.9,0,0,1,.926,2.231q-.029,11.587-.012,23.174a6.283,6.283,0,0,1-.017.643,1.34,1.34,0,0,1-1.422,1.353c-1.287.033-2.575,0-3.863.012-.841,0-.877.038-.878.866q-.005,4.7,0,9.4a5.969,5.969,0,0,1-.028.836,1.133,1.133,0,0,1-1.291,1.127q-4.474,0-8.948,0h-39.912c-1.408,0-1.722-.31-1.725-1.75-.007-3.111,0-6.223,0-9.334,0-1.145,0-1.145-1.176-1.146-1.137,0-2.275.012-3.412,0-1.093-.016-1.586-.493-1.588-1.575q-.015-12.006-.011-24.011a2.3,2.3,0,0,1,.8-1.687c1.579-1.577,3.145-3.167,4.742-4.726a2.045,2.045,0,0,0,.658-1.591c-.017-6.03-.01-12.059-.01-18.089,0-.279,0-.558.011-.837A1.232,1.232,0,0,1,2990.24,366.082Z" transform="translate(0 0)"/>
    <path id="Trazado_188433" data-name="Trazado 188433" d="M3027.035,567.461q-14.581,0-29.163.013c-.566,0-.739-.115-.737-.718q.036-10.654,0-21.308c0-.529.116-.667.658-.666q29.227.024,58.454,0c.521,0,.673.1.672.652q-.032,10.686,0,21.372c0,.529-.116.667-.658.666Q3041.648,567.447,3027.035,567.461Z" transform="translate(-11.676 -149.866)" fill="#fff2bf"/>
    <path id="Trazado_188434" data-name="Trazado 188434" d="M3059.175,396.3h-19.055c-1.261,0-1.552.291-1.552,1.549,0,1.716-.015,3.433.011,5.15.007.427-.114.543-.531.522a19.252,19.252,0,0,0-2.059,0c-.431.024-.524-.118-.522-.53.018-3.047.01-6.094.01-9.141,0-4.828.008-9.656-.012-14.484,0-.478.107-.594.591-.594q16.415.023,32.831,0c.462,0,.607.081.6.582-.025,3.776-.014,7.553-.013,11.33,0,1.178.312,1.492,1.479,1.493,3.777,0,7.553.01,11.33-.011.472,0,.6.1.6.588-.025,3.412-.021,6.823,0,10.235,0,.409-.086.557-.52.532a19.31,19.31,0,0,0-2.059,0c-.413.02-.539-.09-.532-.52.026-1.759.012-3.519.01-5.279,0-1.087-.335-1.421-1.421-1.422Q3068.767,396.3,3059.175,396.3Z" transform="translate(-43.821 -10.647)" fill="#fefefe"/>
    <path id="Trazado_188435" data-name="Trazado 188435" d="M3059.1,708.337q-11.491,0-22.983.012c-.52,0-.673-.1-.668-.649.031-3.047.022-6.094.006-9.141,0-.4.074-.562.516-.536a19.316,19.316,0,0,0,2.059,0c.406-.019.543.08.536.517-.028,1.759-.013,3.519-.011,5.279,0,1.089.334,1.425,1.417,1.425h38.368c1.089,0,1.423-.334,1.424-1.418,0-1.76.015-3.519-.01-5.279-.006-.423.11-.544.529-.524.728.035,1.459.025,2.188,0,.314-.01.393.091.391.4-.01,3.176-.017,6.352.005,9.528,0,.478-.267.384-.529.384q-4.442,0-8.885,0Z" transform="translate(-43.806 -278.379)" fill="#fefefe"/>
    <path id="Trazado_188436" data-name="Trazado 188436" d="M3085.865,505.255c-5.945,0-11.889-.008-17.833.014-.536,0-.678-.123-.66-.66.043-1.307.04-2.618,0-3.926-.015-.49.124-.591.6-.59q12.747.023,25.495.011c3.477,0,6.953.011,10.43-.013.482,0,.607.113.594.595q-.056,1.994,0,3.991c.015.49-.124.591-.6.59Q3094.878,505.24,3085.865,505.255Z" transform="translate(-70.578 -112.386)" fill="#ccc198"/>
    <path id="Trazado_188437" data-name="Trazado 188437" d="M3085.865,703.192c-5.945,0-11.889-.008-17.833.014-.536,0-.678-.123-.66-.66.043-1.308.04-2.618,0-3.926-.015-.49.124-.591.6-.59q12.748.024,25.5.012c3.477,0,6.953.011,10.429-.013.482,0,.607.112.594.595q-.056,1.994,0,3.991c.014.49-.124.591-.6.59Q3094.878,703.177,3085.865,703.192Z" transform="translate(-70.578 -278.384)" fill="#ccc198"/>
    <path id="Trazado_188438" data-name="Trazado 188438" d="M3258.956,388.419l9.725,9.725c-.1.153-.29.059-.442.06-2.9.007-5.794-.007-8.692.016-.471,0-.608-.1-.6-.592C3258.968,394.585,3258.956,391.542,3258.956,388.419Z" transform="translate(-231.239 -18.733)" fill="#aeb5ba"/>
    <path id="Trazado_188439" data-name="Trazado 188439" d="M3010.374,517.466c0,.568-.017,1.252.007,1.934.012.343-.11.443-.441.432-.68-.021-1.363-.006-1.951-.006Z" transform="translate(-20.778 -126.957)" fill="#7d8387"/>
    <path id="Trazado_188440" data-name="Trazado 188440" d="M3342.018,516.872l2.461,2.456c-.684,0-1.4-.006-2.119,0-.238,0-.349-.071-.345-.327C3342.025,518.283,3342.018,517.562,3342.018,516.872Z" transform="translate(-300.907 -126.459)" fill="#7d8387"/>
    <path id="Trazado_188441" data-name="Trazado 188441" d="M3129.923,584.769a4.65,4.65,0,0,1-3.549-1.031,4.192,4.192,0,0,1-1.391-2.675c-.038-.283-.008-.46.341-.418a2.889,2.889,0,0,0,.515,0c.659-.039,1.2-.1,1.411.842a1.727,1.727,0,0,0,1.793,1.212c.707.023,1.417.024,2.125,0a2.053,2.053,0,0,0,.025-4.1c-.686-.029-1.374,0-2.06-.012a4.117,4.117,0,1,1-.028-8.234c.708-.019,1.417-.026,2.124.006a4.131,4.131,0,0,1,4,3.664c.033.307.016.506-.37.45a1.963,1.963,0,0,0-.45,0c-.695.061-1.234.053-1.455-.871a1.712,1.712,0,0,0-1.749-1.181c-.729-.028-1.46-.029-2.188,0a2.051,2.051,0,0,0-.026,4.1c.685.033,1.374,0,2.06.014a4.12,4.12,0,1,1,.028,8.238C3130.756,584.776,3130.434,584.769,3129.923,584.769Z" transform="translate(-118.876 -171.296)"/>
    <path id="Trazado_188442" data-name="Trazado 188442" d="M3211.538,577.847a12.567,12.567,0,0,1-.185,3.147,5.141,5.141,0,0,1-5.278,3.835,5.062,5.062,0,0,1-4.788-4.706,27.82,27.82,0,0,1,0-4.952,5.108,5.108,0,0,1,5.222-4.738,5.191,5.191,0,0,1,5.028,5.17C3211.554,576.288,3211.538,576.975,3211.538,577.847Z" transform="translate(-182.793 -171.375)"/>
    <path id="Trazado_188443" data-name="Trazado 188443" d="M3099.352,577.5c0-2.208.009-4.416-.008-6.624,0-.39.059-.552.51-.55,1.558.007,1.559-.014,1.559,1.552,0,4.073-.01,8.146.011,12.219,0,.505-.075.7-.643.681-1.427-.044-1.429-.012-1.429-1.427Z" transform="translate(-97.393 -171.286)"/>
    <path id="Trazado_188444" data-name="Trazado 188444" d="M3063.382,397.938c2.726,0,5.451.014,8.177-.013.491-.005.6.127.588.6-.028,1.475-.006,1.475-1.5,1.475-5.129,0-10.258-.01-15.387.014-.544,0-.669-.136-.654-.664.039-1.41.012-1.411,1.437-1.411Z" transform="translate(-59.872 -26.704)"/>
    <path id="Trazado_188445" data-name="Trazado 188445" d="M3059.252,425.535c-1.374,0-2.747-.01-4.12.007-.354,0-.521-.027-.521-.467,0-1.6-.023-1.6,1.568-1.6,2.382,0,4.764.017,7.146-.014.5-.006.593.137.584.6-.026,1.472-.006,1.472-1.5,1.472Z" transform="translate(-59.877 -48.12)"/>
    <path id="Trazado_188446" data-name="Trazado 188446" d="M3056.758,450.152c0,1,0,1-1,1-1.061,0-1.061,0-1.061-1.064,0-1,0-1,1-1C3056.758,449.088,3056.758,449.088,3056.758,450.152Z" transform="translate(-59.95 -69.613)"/>
    <path id="Trazado_188447" data-name="Trazado 188447" d="M3081.213,451.149c-.975,0-.975,0-.975-.956,0-1.1,0-1.1,1.085-1.1.976,0,.976,0,.976.956C3082.3,451.149,3082.3,451.149,3081.213,451.149Z" transform="translate(-81.37 -69.613)"/>
    <path id="Trazado_188448" data-name="Trazado 188448" d="M3107.839,450.177c0,.971,0,.971-.961.971-1.1,0-1.1,0-1.1-1.089,0-.971,0-.971.96-.971C3107.839,449.088,3107.839,449.088,3107.839,450.177Z" transform="translate(-102.789 -69.613)"/>
    <path id="Trazado_188449" data-name="Trazado 188449" d="M3214.3,588.311c0-.665-.015-1.331,0-2a3.085,3.085,0,1,1,6.17-.02c.027,1.373.03,2.748,0,4.12a3.083,3.083,0,0,1-6.166.02C3214.283,589.728,3214.3,589.02,3214.3,588.311Z" transform="translate(-193.796 -182.085)" fill="#fff2bf"/>
  </g>
</svg>
