<svg xmlns="http://www.w3.org/2000/svg" width="54.174" height="72.208" viewBox="0 0 54.174 72.208">
  <g id="Grupo_134837" data-name="Grupo 134837" transform="translate(-9931 8813)">
    <g id="Grupo_132731" data-name="Grupo 132731" transform="translate(5179.291 -9466.709)">
      <path id="Trazado_188551" data-name="Trazado 188551" d="M4794.308,653.709c.875.813,1.775,1.6,2.623,2.443q4.2,4.175,8.359,8.391a1.651,1.651,0,0,1,.469.961q.127,2.179.125,4.365,0,19.562-.011,39.123c0,1.357-.51,1.863-1.882,1.866-2.347,0-4.693,0-7.1,0-.016.274-.04.5-.04.723,0,1.668,0,3.337,0,5a1.583,1.583,0,0,1-1.81,1.814c-2.42.01-4.842.024-7.262-.013a1.044,1.044,0,0,0-1.086.652c-.566,1.081-1.186,2.133-1.792,3.193a1.554,1.554,0,0,1-2.458.666c-.324-.194-.623-.447-1.009-.117-.438.373-1.182.384-1.113,1.3.1,1.282-.528,1.825-1.832,1.828-1.81,0-3.62.007-5.429,0a1.534,1.534,0,0,1-1.734-1.734c0-.433.044-.837-.49-1.03s-.94-.8-1.678-.233a1.4,1.4,0,0,1-2.266-.468c-.718-1.128-1.392-2.286-2.031-3.461a1.014,1.014,0,0,0-1.049-.595c-3.361.023-6.722.014-10.083.011-1.519,0-2.014-.5-2.014-2.035q0-26.575,0-53.151c0-1.482.507-2,1.98-2q3.1,0,6.2,0h.842v-4.057c0-.493.031-.989-.006-1.479a1.789,1.789,0,0,1,1.135-1.973Zm-39.554,10.573v51.037a3.335,3.335,0,0,0,.386.05c2.326.01,4.653.033,6.979.015.795-.005,1.592-.094,2.383-.179a.727.727,0,0,0,.721-.806c-.057-.553.368-1.2-.362-1.646-1.4-.863-1.526-1.3-.738-2.748.829-1.526,1.725-3.015,2.606-4.512a1.543,1.543,0,0,1,2.471-.615,1.453,1.453,0,0,0,2.082-1.157c.018-1.364.524-1.88,1.873-1.885,1.716-.007,3.431,0,5.148,0,1.487,0,1.974.491,1.99,1.987a1.551,1.551,0,0,0,1.934,1.145c1.413-.741,1.873-.658,2.708.7.958,1.56,1.855,3.157,2.743,4.758a1.49,1.49,0,0,1-.691,2.2,1.5,1.5,0,0,0-.651,1.936c.2.385.845.547,1.3.783a1.02,1.02,0,0,0,.419.014q2.5.009,5.005.016c.247,0,.493-.027.734-.04V674.757h-.812q-3.879,0-7.756,0c-1.418,0-1.92-.5-1.921-1.9q0-3.912,0-7.825v-.752Zm48.123,43.556V707.2q0-20.128-.02-40.256a1.626,1.626,0,0,0-.451-1.021c-2.888-2.927-5.808-5.824-8.7-8.744a1.5,1.5,0,0,0-1.171-.487q-14,.02-27.993.011c-.249,0-.5.023-.754.035v4.476h.883c6.511,0,13.021.011,19.532-.015a2.6,2.6,0,0,1,2.007.8c3.1,3.117,6.181,6.251,9.353,9.292a3.958,3.958,0,0,1,1.3,3.144c-.033,10.857-.016,21.714-.013,32.571v.827Zm-28.614,15.042h3.045a1.8,1.8,0,0,1,.943-1.894,27.051,27.051,0,0,0,2.431-1.4,1.608,1.608,0,0,1,1.66-.157c.162.074.332.131.522.206l1.485-2.561a1.881,1.881,0,0,1-1.106-2.422,3.63,3.63,0,0,0,.012-1.471c-.239-1.108-.1-2.018,1.066-2.511l-1.527-2.618a1.862,1.862,0,0,1-2.633-.253,4.348,4.348,0,0,0-1.33-.776,2.04,2.04,0,0,1-1.605-2.122h-2.958a1.973,1.973,0,0,1-1.554,2.156,4.99,4.99,0,0,0-1.4.8,2.011,2.011,0,0,1-2.6.255l-1.5,2.571a1.9,1.9,0,0,1,1.121,2.4,4.537,4.537,0,0,0-.022,1.4c.161,1.093.162,2.088-1.1,2.6l1.518,2.6a1.946,1.946,0,0,1,2.7.309,4.4,4.4,0,0,0,1.345.751A1.883,1.883,0,0,1,4774.263,722.88Zm12.083-56.265v5.1h5.1Z" transform="translate(0 0)" fill="#0d2380"/>
      <path id="Trazado_188552" data-name="Trazado 188552" d="M4796.328,696.782c2.327,0,4.654,0,6.981,0a3.088,3.088,0,0,1,.9.1,1.373,1.373,0,0,1,1.024,1.362,1.4,1.4,0,0,1-1,1.449,3.936,3.936,0,0,1-1.044.109q-6.946.011-13.894,0c-1.364,0-2.107-.55-2.088-1.542.018-.971.734-1.49,2.066-1.49Q4792.8,696.781,4796.328,696.782Z" transform="translate(-14.432 -17.512)" fill="#0d2380"/>
      <path id="Trazado_188553" data-name="Trazado 188553" d="M4796.328,719.6c2.327,0,4.654,0,6.981,0a3.084,3.084,0,0,1,.9.1,1.373,1.373,0,0,1,1.024,1.362,1.4,1.4,0,0,1-1,1.449,3.938,3.938,0,0,1-1.044.11q-6.946.01-13.894,0c-1.364,0-2.107-.55-2.088-1.542.018-.971.734-1.49,2.066-1.49Q4792.8,719.595,4796.328,719.6Z" transform="translate(-14.432 -26.788)" fill="#0d2380"/>
      <path id="Trazado_188554" data-name="Trazado 188554" d="M4766.323,694.618l4.156-4.139c.3-.3.584-.613.9-.889a1.476,1.476,0,0,1,2.042.023,1.423,1.423,0,0,1,.113,2.034c-1.979,2.035-3.972,4.059-6.025,6.017-.872.831-1.581.752-2.474-.1-.95-.907-1.862-1.856-2.757-2.818a1.5,1.5,0,1,1,2.16-2.078C4765.081,693.28,4765.674,693.943,4766.323,694.618Z" transform="translate(-4.124 -14.426)" fill="#0d2380"/>
      <path id="Trazado_188555" data-name="Trazado 188555" d="M4766.38,717.567c.458-.525.79-.949,1.166-1.332,1.233-1.256,2.473-2.506,3.73-3.737a1.5,1.5,0,1,1,2.176,2.063c-1.867,1.915-3.735,3.832-5.663,5.684-1.151,1.106-1.821,1.051-2.954-.057-.855-.837-1.687-1.7-2.5-2.573a1.512,1.512,0,0,1-.042-2.151,1.531,1.531,0,0,1,2.2.053c.327.3.64.621.943.948C4765.722,716.774,4765.984,717.1,4766.38,717.567Z" transform="translate(-4.127 -23.697)" fill="#0d2380"/>
      <path id="Trazado_188556" data-name="Trazado 188556" d="M4793.217,753.024a3.012,3.012,0,1,1-6.023-.006,3.012,3.012,0,0,1,6.023.006Z" transform="translate(-14.427 -39.159)" fill="#0d2380"/>
    </g>
  </g>
</svg>
