<svg xmlns="http://www.w3.org/2000/svg" width="71.074" height="71.059" viewBox="0 0 71.074 71.059">
  <g id="Grupo_134838" data-name="Grupo 134838" transform="translate(-9921.791 8596)">
    <g id="Grupo_132732" data-name="Grupo 132732" transform="translate(4999.494 -9257)">
      <path id="Trazado_188557" data-name="Trazado 188557" d="M5022.049,706.846a1.734,1.734,0,0,1-1.645.781c-3.26-.02-6.521-.006-9.78-.01-1.206,0-1.6-.385-1.614-1.555a22.48,22.48,0,0,0-2.771-10.479,2.526,2.526,0,0,1-.367-1.091c-.007-.676.573-1.088,1.427-1.094,1.55-.01,3.1,0,4.648,0h.772a4.96,4.96,0,0,1,2.255-2.914,4.735,4.735,0,0,1,6.8,2.488c.086.233.182.462.273.693v1.8c-.051.125-.111.246-.149.375a4.733,4.733,0,0,1-9.009.391c-.06-.148-.124-.3-.188-.448h-3.587c.51,1.542,1.107,3.045,1.5,4.6.393,1.578.577,3.208.86,4.858h.747c2.705,0,5.41.016,8.116-.01a1.8,1.8,0,0,1,1.714.783Zm-7.092-12.259a2.371,2.371,0,0,0,2.371,2.375,2.4,2.4,0,0,0,2.353-2.409,2.35,2.35,0,0,0-2.352-2.319A2.322,2.322,0,0,0,5014.957,694.587Z" transform="translate(-28.677 -9.9)" fill="#0d2380"/>
      <path id="Trazado_188558" data-name="Trazado 188558" d="M5005.168,661a12.527,12.527,0,0,1,1.66.664,4.673,4.673,0,0,1,2.223,5.164,4.751,4.751,0,0,1-4.027,3.607,4.66,4.66,0,0,1-4.913-2.846.884.884,0,0,0-.993-.671c-2.312.034-4.626.015-6.938.015h-.769V669.4c0,1.319.036,2.639-.017,3.955a1.016,1.016,0,0,0,.7,1.086,23.832,23.832,0,0,1,6.217,4.484c.676.669.752,1.342.223,1.879s-1.221.458-1.88-.2a22.208,22.208,0,0,0-6.644-4.579,1.462,1.462,0,0,1-.969-1.5c.019-2.5,0-5,.011-7.494a2.3,2.3,0,0,1,2.485-2.461c2.567-.016,5.134,0,7.7-.006.316,0,.6.052.762-.39a4.575,4.575,0,0,1,3.475-3.064.611.611,0,0,0,.17-.108Zm-.717,7.092a2.375,2.375,0,0,0,2.352-2.4,2.4,2.4,0,0,0-2.363-2.329,2.349,2.349,0,0,0-2.364,2.375A2.325,2.325,0,0,0,5004.451,668.092Z" transform="translate(-22.9)" fill="#0d2380"/>
      <path id="Trazado_188559" data-name="Trazado 188559" d="M4938.646,661a11.066,11.066,0,0,1,2.186,1.12,5.788,5.788,0,0,1,1.375,1.866.863.863,0,0,0,.916.586c2.475-.021,4.951-.014,7.426-.008a2.373,2.373,0,0,1,2.7,2.675c.006,1.915,0,3.83,0,5.78,1.085-.281,2.1-.564,3.132-.806a1.176,1.176,0,0,1,1.569.827c.155.708-.221,1.219-1.021,1.462-1.39.423-2.782.839-4.154,1.314-1.143.395-1.879-.062-1.888-1.285-.015-2.2,0-4.4,0-6.593v-.954c-.234-.019-.433-.049-.63-.05-2.405,0-4.812.009-7.216-.013a.714.714,0,0,0-.8.54,4.707,4.707,0,0,1-5.245,2.936,4.736,4.736,0,0,1-.256-9.264c.132-.034.259-.09.388-.135Zm1.565,4.738a2.349,2.349,0,0,0-2.368-2.371,2.4,2.4,0,0,0-2.357,2.4,2.372,2.372,0,0,0,2.353,2.325A2.326,2.326,0,0,0,4940.212,665.738Z" transform="translate(-3.707)" fill="#0d2380"/>
      <path id="Trazado_188560" data-name="Trazado 188560" d="M5022.05,729.588c-.069.191-.146.38-.206.574a4.7,4.7,0,0,1-4.244,3.335,4.638,4.638,0,0,1-4.65-2.941.741.741,0,0,0-.841-.574c-1.571.03-3.144.017-4.716.01-1.376-.006-1.894-.851-1.231-2.045a23.738,23.738,0,0,0,2.414-6.463,1.175,1.175,0,0,1,2.3-.007,1.247,1.247,0,0,1-.037.61c-.5,1.605-1.013,3.207-1.526,4.808-.069.215-.162.422-.267.689h3.659c.06-.145.131-.311.2-.48a4.725,4.725,0,0,1,8.976.435c.051.175.112.348.168.522Zm-4.715,1.565a2.352,2.352,0,0,0,2.347-2.394,2.4,2.4,0,0,0-2.357-2.334,2.371,2.371,0,0,0-2.367,2.379A2.324,2.324,0,0,0,5017.335,731.154Z" transform="translate(-28.679 -20.429)" fill="#0d2380"/>
      <path id="Trazado_188561" data-name="Trazado 188561" d="M4976.2,661a1.791,1.791,0,0,1,.783,1.711c-.025,2.724-.011,5.449-.011,8.174v.765c1.23.16,2.394.292,3.551.468a1.186,1.186,0,0,1,1.083,1.626,1.136,1.136,0,0,1-1.277.729c-1.537-.15-3.075-.29-4.61-.451a1.19,1.19,0,0,1-1.116-1.337c-.021-1.062-.007-2.124-.007-3.187,0-2.286.017-4.572-.009-6.858a1.728,1.728,0,0,1,.781-1.641Z" transform="translate(-17.942)" fill="#0d2380"/>
      <path id="Trazado_188562" data-name="Trazado 188562" d="M4965.934,684.447a20.129,20.129,0,1,1-20.168,20.076A20.122,20.122,0,0,1,4965.934,684.447Zm-.032,37.893a17.765,17.765,0,1,0-17.773-17.788A17.777,17.777,0,0,0,4965.9,722.34Z" transform="translate(-8.053 -8.046)" fill="#0d2380"/>
      <path id="Trazado_188563" data-name="Trazado 188563" d="M4942.445,752.056h8.434v-4.181c0-.763-.035-1.528.014-2.289a.871.871,0,0,0-.6-.94,24.429,24.429,0,0,1-7.459-5.785c-.581-.66-.624-1.358-.114-1.842.552-.525,1.243-.45,1.867.26a22.737,22.737,0,0,0,7.738,5.738,1.427,1.427,0,0,1,.928,1.461c-.016,2.5,0,5-.009,7.494a2.307,2.307,0,0,1-2.462,2.486q-3.851.03-7.7,0a.755.755,0,0,0-.851.573,4.661,4.661,0,0,1-5.245,2.909,4.731,4.731,0,1,1,5.273-6.357C4942.317,751.73,4942.375,751.88,4942.445,752.056Zm-2.231,1.259a2.324,2.324,0,0,0-2.348-2.38,2.374,2.374,0,0,0-2.38,2.367,2.4,2.4,0,0,0,2.333,2.358A2.351,2.351,0,0,0,4940.214,753.315Z" transform="translate(-3.709 -25.968)" fill="#0d2380"/>
      <path id="Trazado_188564" data-name="Trazado 188564" d="M4991.406,752.758c2.766,0,5.423.011,8.079-.024.188,0,.451-.315.547-.539a4.729,4.729,0,1,1,4.635,6.48,4.624,4.624,0,0,1-4.527-2.822,1.016,1.016,0,0,0-1.168-.734c-2.427.028-4.855.017-7.283.009a2.361,2.361,0,0,1-2.647-2.652c0-2.382.021-4.764-.014-7.145a1.632,1.632,0,0,1,1.079-1.722,22.7,22.7,0,0,0,6.536-4.494,1.811,1.811,0,0,1,1.2-.5,1.383,1.383,0,0,1,.9.713,1.138,1.138,0,0,1-.361,1.37,25.057,25.057,0,0,1-5.279,4.021,2.549,2.549,0,0,1-.547.3c-1.042.284-1.217.984-1.172,1.978C4991.467,748.883,4991.406,750.777,4991.406,752.758Zm10.666,1.226a2.35,2.35,0,0,0,2.4,2.34,2.4,2.4,0,0,0,2.327-2.363,2.373,2.373,0,0,0-2.386-2.362A2.324,2.324,0,0,0,5002.072,753.984Z" transform="translate(-22.897 -26.632)" fill="#0d2380"/>
      <path id="Trazado_188565" data-name="Trazado 188565" d="M4931.66,691.571c1.568,0,3.138.02,4.707-.022.223-.006.5-.273.646-.491a23.92,23.92,0,0,1,5.723-6.167,1.615,1.615,0,0,1,1.187-.326,1.29,1.29,0,0,1,.816.872,1.636,1.636,0,0,1-.521,1.231,24.466,24.466,0,0,0-4.483,4.606c-.447.617-.861,1.258-1.261,1.906a1.45,1.45,0,0,1-1.366.765c-1.595-.024-3.189.007-4.784-.016a.787.787,0,0,0-.9.583,4.655,4.655,0,0,1-5.249,2.891,4.723,4.723,0,1,1,5.185-6.574C4931.456,691.06,4931.546,691.3,4931.66,691.571Zm-2.251,1.194a2.322,2.322,0,0,0-2.372-2.354,2.351,2.351,0,0,0-2.353,2.318,2.4,2.4,0,0,0,2.351,2.409A2.374,2.374,0,0,0,4929.409,692.765Z" transform="translate(-0.008 -8.077)" fill="#0d2380"/>
      <path id="Trazado_188566" data-name="Trazado 188566" d="M4935.212,727.622c-.541-1.7-1.062-3.318-1.572-4.942a5.679,5.679,0,0,1-.152-.676,1.18,1.18,0,1,1,2.3-.514c.368,1.238.684,2.495,1.128,3.7a25.434,25.434,0,0,0,1.3,2.753c.6,1.176.122,2.029-1.191,2.037-1.595.01-3.19.015-4.786-.006a.7.7,0,0,0-.809.52,4.689,4.689,0,0,1-5.5,2.9,4.736,4.736,0,1,1,5.485-6.349c.171.435.354.605.833.585C4933.24,727.592,4934.234,727.622,4935.212,727.622Zm-5.809,1.186a2.373,2.373,0,0,0-2.36-2.387,2.4,2.4,0,0,0-2.365,2.395,2.363,2.363,0,0,0,4.726-.008Z" transform="translate(0 -20.423)" fill="#0d2380"/>
      <path id="Trazado_188567" data-name="Trazado 188567" d="M4974.487,751.491c0,2.991,0,5.926,0,8.86a4.58,4.58,0,0,1-.05.828,1.1,1.1,0,0,1-1.113.951,1.123,1.123,0,0,1-1.167-.97,4.477,4.477,0,0,1-.043-.759q-.006-4.058,0-8.116v-.792c-1.255-.164-2.463-.3-3.665-.488a1.184,1.184,0,1,1,.356-2.334c.115.011.229.034.345.044,1.54.127,3.079.337,4.62.355a32.231,32.231,0,0,0,3.583-.332c.161-.016.319-.056.479-.066a1.177,1.177,0,1,1,.3,2.334C4976.949,751.192,4975.759,751.324,4974.487,751.491Z" transform="translate(-15.458 -30.079)" fill="#0d2380"/>
      <path id="Trazado_188568" data-name="Trazado 188568" d="M4932.806,709.411c.46-2.2.883-4.248,1.323-6.3a1.255,1.255,0,0,1,1.095-1.1c.889-.115,1.433.7,1.212,1.693q-.541,2.428-.982,4.877a12.779,12.779,0,0,0-.095,1.8c-.035.936-.437,1.393-1.35,1.4q-5.167.025-10.333,0a1.2,1.2,0,0,1-1.351-1.173c-.007-.721.514-1.188,1.4-1.192,2.82-.012,5.642,0,8.461-.005Z" transform="translate(-0.01 -14.07)" fill="#0d2380"/>
      <path id="Trazado_188569" data-name="Trazado 188569" d="M4977.394,701.656c.447.11.838.174,1.2.3a3.4,3.4,0,0,1,2.309,3.153c.025,3.675.035,7.351,0,11.026a3.366,3.366,0,0,1-3.271,3.318q-6.171.07-12.345,0a3.368,3.368,0,0,1-3.271-3.319q-.056-5.513,0-11.026a3.436,3.436,0,0,1,2.839-3.3c.2-.039.406-.08.675-.133,0-.768-.025-1.528,0-2.286a5.73,5.73,0,0,1,3.672-5.472,5.628,5.628,0,0,1,6.2,1.052,5.838,5.838,0,0,1,1.983,4.558C4977.4,700.24,4977.394,700.952,4977.394,701.656Zm-5.933,15.461c1.9,0,3.793.006,5.689,0,.989,0,1.4-.407,1.4-1.383q.01-5.1,0-10.2c0-1.013-.412-1.433-1.439-1.434q-5.654-.015-11.311,0c-1.028,0-1.435.42-1.437,1.436q-.007,5.065,0,10.131c0,1.066.392,1.448,1.473,1.452C4967.714,717.121,4969.587,717.117,4971.461,717.117Zm3.5-15.43a27.956,27.956,0,0,0-.019-2.851,3.44,3.44,0,0,0-2.875-2.972,3.53,3.53,0,0,0-3.819,2.014c-.557,1.23-.312,2.518-.313,3.808Z" transform="translate(-13.62 -11.124)" fill="#0d2380"/>
      <path id="Trazado_188570" data-name="Trazado 188570" d="M4974.575,713.259a3.593,3.593,0,0,0-3.452,2.608,3.531,3.531,0,0,0,1.631,4,1.118,1.118,0,0,1,.693.839,1.012,1.012,0,0,0,1.112.843,1.025,1.025,0,0,0,1.1-.861,1.055,1.055,0,0,1,.644-.8,3.525,3.525,0,0,0,1.686-3.973A3.587,3.587,0,0,0,4974.575,713.259Z" transform="translate(-16.71 -17.932)" fill="#0d2380"/>
      <path id="Trazado_188571" data-name="Trazado 188571" d="M4974.575,713.259a3.587,3.587,0,0,1,3.414,2.656,3.525,3.525,0,0,1-1.686,3.973,1.055,1.055,0,0,0-.644.8,1.025,1.025,0,0,1-1.1.861,1.012,1.012,0,0,1-1.112-.843,1.118,1.118,0,0,0-.693-.839,3.531,3.531,0,0,1-1.631-4A3.593,3.593,0,0,1,4974.575,713.259Z" transform="translate(-16.71 -17.932)" fill="#0d2380"/>
    </g>
  </g>
</svg>
