<svg xmlns="http://www.w3.org/2000/svg" width="63.024" height="63.17" viewBox="0 0 63.024 63.17">
  <g id="Grupo_134842" data-name="Grupo 134842" transform="translate(-9926 7742)">
    <g id="Grupo_132735" data-name="Grupo 132735" transform="translate(6008.392 -8611.863)">
      <path id="Trazado_188585" data-name="Trazado 188585" d="M4013.215,874.194l-7.5,2.85,1.671,2.206c.213-.183.46-.41.723-.617a1,1,0,0,1,1.421.1.931.931,0,0,1-.068,1.367,20.174,20.174,0,0,1-2.172,1.756c-.832.56-1.64.083-1.72-.937a2.84,2.84,0,0,0-2.029-2.632v32.77c0,1.254.334,1.594,1.57,1.594h27.376c1.2,0,1.546-.351,1.548-1.553,0-.509-.016-1.019.008-1.528a1.008,1.008,0,0,1,2.016.006,21.643,21.643,0,0,1-.01,2.227,3.152,3.152,0,0,1-2.97,2.878c-.19.01-.381.006-.572.006h-27.44c-2.3,0-3.558-1.267-3.559-3.587q0-16.869,0-33.738c0-.943.092-1.079.955-1.405q7.8-2.949,15.6-5.889a3.058,3.058,0,0,1,1.043-.194q6.765-.019,13.529-.008a3.175,3.175,0,0,1,3.427,3.4q0,15.946,0,31.892a3.263,3.263,0,0,1-.014.508,1.012,1.012,0,0,1-2,0,4.694,4.694,0,0,1-.016-.7q0-15.723,0-31.446c0-1.294-.323-1.619-1.607-1.62-4.213,0-8.427-.01-12.64.017a1.821,1.821,0,0,0-1.062.4c-2.007,1.661-3.984,3.36-5.973,5.044-.613.519-1.164.515-1.61,0-.4-.462-.294-1.02.311-1.536s1.232-1.029,1.849-1.542Z" transform="translate(-69.661 0)" fill="#0d2380"/>
      <path id="Trazado_188586" data-name="Trazado 188586" d="M4056.072,1028.45H4033.29c-.19,0-.381.007-.572,0a.974.974,0,0,1-1.037-1.033.964.964,0,0,1,1.008-1c.19-.012.381,0,.571,0h22.812v-.778q0-11.076,0-22.152a3.778,3.778,0,0,1,.022-.7,1.014,1.014,0,0,1,1.983-.023,2.962,2.962,0,0,1,.026.634q0,13.941,0,27.881a2.98,2.98,0,0,1-3.259,3.286q-10.163,0-20.325,0h-.8a10.279,10.279,0,0,0,2.491,5.907,1.1,1.1,0,0,0,.743.2q7.781.016,15.562.008a4.86,4.86,0,0,1,.635.012.935.935,0,0,1,.887.981.953.953,0,0,1-.9,1.033,5.056,5.056,0,0,1-.571.01h-33.6c-.148,0-.3,0-.444,0a.976.976,0,0,1-1.064-1.007.964.964,0,0,1,1.045-1.022c.635-.018,1.274.035,1.9-.023a1.393,1.393,0,0,0,.85-.384,9.751,9.751,0,0,0,2.3-5.711h-.687c-2.752,0-5.5.014-8.257-.017a1.509,1.509,0,0,1-1-.39.993.993,0,0,1,.681-1.618,5.838,5.838,0,0,1,.7-.011h39.635c1.253,0,1.461-.212,1.462-1.485C4056.072,1030.2,4056.072,1029.353,4056.072,1028.45ZM4033.7,1040.66a14.233,14.233,0,0,1-2.024-6.063h-6.193a12.2,12.2,0,0,1-2,6.063Z" transform="translate(-79.501 -109.689)" fill="#0d2380"/>
      <path id="Trazado_188587" data-name="Trazado 188587" d="M3931.64,978.562c0,1.08-.01,2.055,0,3.031.01.708.347,1.029,1.072,1.041.635.011,1.271-.008,1.905.006a1.017,1.017,0,1,1-.013,2.029c-.7.014-1.4.017-2.1,0a2.925,2.925,0,0,1-2.9-2.936c-.021-1.8-.006-3.607-.006-5.411q0-15.533,0-31.066c0-2.216,1.151-3.365,3.368-3.366,1.884,0,3.769-.008,5.653,0a1.016,1.016,0,0,1,1.032,1.486,1.029,1.029,0,0,1-1.056.549q-2.922-.005-5.844,0c-.794,0-1.119.326-1.119,1.122q0,15.565,0,31.13c0,.083.012.167.025.344h22.84a4.851,4.851,0,0,1,.635.012.935.935,0,0,1,.888.981.952.952,0,0,1-.9,1.034,5.725,5.725,0,0,1-.635.01H3931.64Z" transform="translate(-9.958 -59.801)" fill="#0d2380"/>
      <path id="Trazado_188588" data-name="Trazado 188588" d="M4071.5,919.918c-1.931,0-3.96-.007-5.99.015-.152,0-.315.2-.45.329q-.695.671-1.369,1.362c-.118.12-.292.271-.291.407.011,1.355-.037,2.72.109,4.063a5.918,5.918,0,0,0,2.417,4.106c.719.555,1.492,1.042,2.26,1.529a.63.63,0,0,0,.552.02c.846-.522,1.7-1.045,2.494-1.637a6.02,6.02,0,0,0,2.147-3.222c.225-.746.752-1.118,1.321-.951s.8.768.59,1.536a8.238,8.238,0,0,1-3.377,4.7c-.889.612-1.794,1.2-2.688,1.807a1.161,1.161,0,0,1-1.417-.008c-.93-.627-1.887-1.217-2.792-1.879a8.555,8.555,0,0,1-3.659-7.059c-.029-1.315-.011-2.631,0-3.946,0-.778.268-1.082,1.03-1.167a1.014,1.014,0,0,0,1.005-1.017c.078-.735.386-1.018,1.111-1.02q3.969-.013,7.938,0c.72,0,1.027.289,1.106,1.026a1.012,1.012,0,0,0,1.01,1.011c.735.08,1.009.387,1.024,1.109q.019.922,0,1.846c-.013.667-.331,1.048-.9,1.107a1.008,1.008,0,0,1-1.191-.957,1.905,1.905,0,0,0-1.088-1.952C4072.039,920.848,4071.834,920.361,4071.5,919.918Z" transform="translate(-119.342 -39.866)" fill="#0d2380"/>
      <path id="Trazado_188589" data-name="Trazado 188589" d="M4038.665,1027.966q-5.967,0-11.934,0c-.487,0-.937-.046-1.18-.553a1.008,1.008,0,0,1,.783-1.475,3.987,3.987,0,0,1,.507-.011h23.614a2.952,2.952,0,0,1,.632.028,1.018,1.018,0,0,1,.015,1.973,3.058,3.058,0,0,1-.695.034Q4044.537,1027.968,4038.665,1027.966Z" transform="translate(-89.531 -129.579)" fill="#0d2380"/>
      <path id="Trazado_188590" data-name="Trazado 188590" d="M4038.7,1049.933h11.807a2.955,2.955,0,0,1,.632.028.921.921,0,0,1,.775.95.932.932,0,0,1-.761,1.024,2.712,2.712,0,0,1-.631.033h-23.614a4.364,4.364,0,0,1-.507-.01.954.954,0,0,1-.9-1.034.936.936,0,0,1,.886-.982,4.191,4.191,0,0,1,.571-.012Z" transform="translate(-89.58 -149.509)" fill="#0d2380"/>
      <path id="Trazado_188591" data-name="Trazado 188591" d="M4038.78,1073.945h11.68a3.6,3.6,0,0,1,.633.02.921.921,0,0,1,.824.971.933.933,0,0,1-.834,1.027,3.142,3.142,0,0,1-.57.019q-11.807,0-23.614,0a2.727,2.727,0,0,1-.631-.032.931.931,0,0,1-.763-1.023.92.92,0,0,1,.772-.952,2.908,2.908,0,0,1,.632-.029Q4032.845,1073.943,4038.78,1073.945Z" transform="translate(-89.586 -169.446)" fill="#0d2380"/>
      <path id="Trazado_188592" data-name="Trazado 188592" d="M4038.664,1100q-5.967,0-11.934,0c-.487,0-.937-.047-1.179-.555a1.008,1.008,0,0,1,.786-1.474,4.032,4.032,0,0,1,.507-.011h23.614a2.932,2.932,0,0,1,.632.028,1.018,1.018,0,0,1,.012,1.973,3.058,3.058,0,0,1-.695.033Q4044.536,1100,4038.664,1100Z" transform="translate(-89.532 -189.387)" fill="#0d2380"/>
      <path id="Trazado_188593" data-name="Trazado 188593" d="M3926.7,1232.05c-2.644,0-5.288.005-7.932,0-.82,0-1.286-.523-1.125-1.239.142-.633.6-.8,1.194-.8,2.834.008,5.669,0,8.5,0,2.475,0,4.95-.005,7.425,0,.819,0,1.287.524,1.126,1.238-.143.632-.6.8-1.194.8C3932.028,1232.046,3929.363,1232.051,3926.7,1232.05Z" transform="translate(0 -299.029)" fill="#0d2380"/>
      <path id="Trazado_188594" data-name="Trazado 188594" d="M4221.325,941.885c.973,0,1.946-.01,2.919,0a2.939,2.939,0,0,1,3,3.021c.014,1.441.007,2.883,0,4.325,0,.8-.336,1.184-1,1.194-.687.01-1.03-.387-1.033-1.22,0-1.378,0-2.756,0-4.134,0-.83-.322-1.146-1.156-1.148q-2.888-.008-5.775,0a1.065,1.065,0,0,1-1.164-.779.977.977,0,0,1,1.029-1.256C4219.209,941.872,4220.267,941.886,4221.325,941.885Z" transform="translate(-248.648 -59.796)" fill="#0d2380"/>
      <path id="Trazado_188595" data-name="Trazado 188595" d="M3955.609,967.932c0,1,0,1.927,0,2.854-.005.81-.375,1.233-1.043,1.217-.642-.016-.982-.424-.986-1.21q-.009-1.842,0-3.685c0-.869.329-1.205,1.175-1.211q1.87-.013,3.74,0c.77,0,1.178.367,1.177,1.017s-.409,1.009-1.18,1.016C3957.562,967.938,3956.634,967.932,3955.609,967.932Z" transform="translate(-29.861 -79.732)" fill="#0d2380"/>
      <path id="Trazado_188596" data-name="Trazado 188596" d="M4159.3,895.859c-.437,0-.775.023-1.11,0a.949.949,0,0,1-.924-1.007.933.933,0,0,1,.922-1c.737-.033,1.479-.034,2.216,0a.9.9,0,0,1,.912.945c.026.718.03,1.439,0,2.157a1.007,1.007,0,0,1-2.012-.008C4159.277,896.6,4159.3,896.269,4159.3,895.859Z" transform="translate(-198.984 -19.889)" fill="#0d2380"/>
      <path id="Trazado_188597" data-name="Trazado 188597" d="M4231.171,1112.036c0-.407-.019-.742,0-1.074a.955.955,0,0,1,1.034-.962.936.936,0,0,1,.978.952c.03.718.03,1.439,0,2.157a.915.915,0,0,1-.974.953c-.7.023-1.394.025-2.09,0a.948.948,0,0,1-.986-1.01.959.959,0,0,1,.987-1.011C4230.44,1112.02,4230.756,1112.036,4231.171,1112.036Z" transform="translate(-258.662 -199.384)" fill="#0d2380"/>
      <path id="Trazado_188598" data-name="Trazado 188598" d="M3955.566,1016.024c0,.359.024.72-.006,1.077a.949.949,0,0,1-1.005.924.935.935,0,0,1-1-.925c-.033-.738-.033-1.48,0-2.218a.933.933,0,0,1,1-.923.946.946,0,0,1,1,.924C3955.59,1015.261,3955.566,1015.643,3955.566,1016.024Z" transform="translate(-29.825 -119.642)" fill="#0d2380"/>
      <path id="Trazado_188599" data-name="Trazado 188599" d="M4267.149,1230.021c.337,0,.676-.019,1.012,0a.958.958,0,0,1,.972,1.024.936.936,0,0,1-.936.992c-.737.031-1.477.034-2.213,0a.934.934,0,0,1-.908-1.017.946.946,0,0,1,.936-.994C4266.389,1230,4266.77,1230.021,4267.149,1230.021Z" transform="translate(-288.501 -299.031)" fill="#0d2380"/>
      <path id="Trazado_188600" data-name="Trazado 188600" d="M3981.807,1183.988c-.317,0-.636.022-.951-.005a.964.964,0,0,1-.927-1.012.948.948,0,0,1,.936-1,18.5,18.5,0,0,1,1.9,0,.949.949,0,0,1,.928,1.008.964.964,0,0,1-.936,1C3982.443,1184.009,3982.125,1183.988,3981.807,1183.988Z" transform="translate(-51.744 -259.121)" fill="#0d2380"/>
      <path id="Trazado_188601" data-name="Trazado 188601" d="M4098.39,1148.049a1.014,1.014,0,1,1,1.005-1.02A1.022,1.022,0,0,1,4098.39,1148.049Z" transform="translate(-149.258 -229.294)" fill="#0d2380"/>
    </g>
  </g>
</svg>
