<svg xmlns="http://www.w3.org/2000/svg" width="190" height="126.07" viewBox="0 0 190 126.07">
  <g id="Grupo_132695" data-name="Grupo 132695" transform="translate(-289.276 -208.594)">
    <path id="Rectángulo_82664" data-name="Rectángulo 82664" d="M4.625,0h8.906a4.625,4.625,0,0,1,4.625,4.625v0A4.625,4.625,0,0,1,13.531,9.25H4.625A4.625,4.625,0,0,1,0,4.625v0A4.625,4.625,0,0,1,4.625,0Z" transform="translate(367.764 235.426)" fill="#5184ce"/>
    <path id="Trazado_188345" data-name="Trazado 188345" d="M1137.469,1780.813l-14.03,6.467v1.432H1173.4v-1.432l-14.156-6.467Z" transform="translate(-771.551 -1454.209)" fill="#466eb6"/>
    <rect id="Rectángulo_82665" data-name="Rectángulo 82665" width="21.787" height="27.729" transform="translate(365.917 298.885)" fill="#466eb6"/>
    <path id="Trazado_188346" data-name="Trazado 188346" d="M707.253,690.6V628.071a5.379,5.379,0,0,0-5.38-5.379H580.635a5.379,5.379,0,0,0-5.379,5.379V690.6Z" transform="translate(-264.515 -383.016)" fill="#0d2380"/>
    <rect id="Rectángulo_82666" data-name="Rectángulo 82666" width="49.965" height="1.432" transform="translate(351.887 333.07)" fill="#184655" opacity="0.3" style="mix-blend-mode: multiply;isolation: isolate"/>
    <rect id="Rectángulo_82667" data-name="Rectángulo 82667" width="21.779" height="3.254" transform="translate(365.917 323.349)" fill="#184655" opacity="0.3" style="mix-blend-mode: multiply;isolation: isolate"/>
    <path id="Trazado_188347" data-name="Trazado 188347" d="M575.256,1527.43v10.02c0,2.084,1.378,3.774,3.077,3.774H704.176c1.7,0,3.077-1.69,3.077-3.774v-10.02Z" transform="translate(-264.515 -1219.846)" fill="#0d2380"/>
    <path id="Trazado_188348" data-name="Trazado 188348" d="M1443.446,583.7a1.226,1.226,0,1,1-1.225-1.225A1.226,1.226,0,0,1,1443.446,583.7Z" transform="translate(-1065.272 -345.822)" fill="#184655"/>
    <path id="Trazado_188349" data-name="Trazado 188349" d="M742.239,721.347V661.7a2.883,2.883,0,0,0-2.933-2.831H619.354a2.883,2.883,0,0,0-2.933,2.831v59.647Z" transform="translate(-302.59 -416.478)" fill="#cce6ff"/>
    <rect id="Rectángulo_82668" data-name="Rectángulo 82668" width="75.622" height="52.768" transform="translate(319.356 247.206)" fill="#e9ffff"/>
    <rect id="Rectángulo_82669" data-name="Rectángulo 82669" width="75.622" height="6.178" transform="translate(319.356 247.206)" fill="#5184ce"/>
    <rect id="Rectángulo_82670" data-name="Rectángulo 82670" width="5.162" height="39.954" transform="translate(421.891 260.408)" fill="#9bc1f9" opacity="0.6"/>
    <rect id="Rectángulo_82671" data-name="Rectángulo 82671" width="5.162" height="27.767" transform="translate(414.682 272.595)" fill="#9bc1f9" opacity="0.6"/>
    <rect id="Rectángulo_82672" data-name="Rectángulo 82672" width="5.162" height="31.298" transform="translate(429.204 269.064)" fill="#9bc1f9" opacity="0.6"/>
    <rect id="Rectángulo_82673" data-name="Rectángulo 82673" width="5.162" height="32.529" transform="translate(407.473 267.834)" fill="#9bc1f9" opacity="0.6"/>
    <rect id="Rectángulo_82674" data-name="Rectángulo 82674" width="5.162" height="22.884" transform="translate(400.265 277.478)" fill="#9bc1f9" opacity="0.6"/>
    <g id="Grupo_132695-2" data-name="Grupo 132695" transform="translate(400.265 269.616)">
      <rect id="Rectángulo_82675" data-name="Rectángulo 82675" width="5.162" height="30.746" transform="translate(21.626 0)" fill="#9bc1f9" opacity="0.3" style="mix-blend-mode: multiply;isolation: isolate"/>
      <rect id="Rectángulo_82676" data-name="Rectángulo 82676" width="5.162" height="21.368" transform="translate(14.418 9.378)" fill="#9bc1f9" opacity="0.3" style="mix-blend-mode: multiply;isolation: isolate"/>
      <rect id="Rectángulo_82677" data-name="Rectángulo 82677" width="5.162" height="24.085" transform="translate(28.939 6.661)" fill="#9bc1f9" opacity="0.3" style="mix-blend-mode: multiply;isolation: isolate"/>
      <rect id="Rectángulo_82678" data-name="Rectángulo 82678" width="5.162" height="25.032" transform="translate(7.209 5.714)" fill="#9bc1f9" opacity="0.3" style="mix-blend-mode: multiply;isolation: isolate"/>
      <rect id="Rectángulo_82679" data-name="Rectángulo 82679" width="5.162" height="17.61" transform="translate(0 13.136)" fill="#9bc1f9" opacity="0.3" style="mix-blend-mode: multiply;isolation: isolate"/>
    </g>
    <rect id="Rectángulo_82680" data-name="Rectángulo 82680" width="69.8" height="8.959" transform="translate(321.966 255.928)" fill="#9bc1f9" opacity="0.6"/>
    <rect id="Rectángulo_82681" data-name="Rectángulo 82681" width="44.926" height="2.296" transform="translate(346.84 267.432)" fill="#9bc1f9" opacity="0.6"/>
    <rect id="Rectángulo_82682" data-name="Rectángulo 82682" width="22.101" height="26.499" transform="translate(321.966 267.432)" fill="#5184ce"/>
    <rect id="Rectángulo_82683" data-name="Rectángulo 82683" width="44.926" height="2.296" transform="translate(346.84 272.272)" fill="#9bc1f9" opacity="0.6"/>
    <rect id="Rectángulo_82684" data-name="Rectángulo 82684" width="44.926" height="2.296" transform="translate(346.84 286.794)" fill="#9bc1f9" opacity="0.6"/>
    <rect id="Rectángulo_82685" data-name="Rectángulo 82685" width="44.926" height="2.296" transform="translate(346.84 291.634)" fill="#9bc1f9" opacity="0.6"/>
    <path id="Trazado_188350" data-name="Trazado 188350" d="M290.415,1118.149l41.96-.076a1.141,1.141,0,0,1,1.143,1.139l.1,55.291a1.141,1.141,0,0,1-1.139,1.143l-41.96.076a1.141,1.141,0,0,1-1.143-1.139l-.1-55.291A1.141,1.141,0,0,1,290.415,1118.149Z" transform="translate(0 -841.215)" fill="#f7cc7f"/>
    <rect id="Rectángulo_82686" data-name="Rectángulo 82686" width="39.637" height="54.042" transform="translate(291.58 278.538) rotate(-0.103)" fill="#fff"/>
    <path id="Trazado_188351" data-name="Trazado 188351" d="M482.5,1102.786a.44.44,0,0,0-.441-.439l-16.643.03a.44.44,0,0,0-.439.441l0,1.73,17.523-.031Z" transform="translate(-162.512 -826.669)" fill="#13375b"/>
    <path id="Trazado_188352" data-name="Trazado 188352" d="M549.356,1074.527a2.625,2.625,0,1,0,2.63,2.62A2.625,2.625,0,0,0,549.356,1074.527Zm.008,4.308a1.683,1.683,0,1,1,1.68-1.687A1.684,1.684,0,0,1,549.364,1078.835Z" transform="translate(-238.135 -800.937)" fill="#13375b"/>
    <g id="Grupo_132696" data-name="Grupo 132696" transform="translate(302.467 275.708)">
      <path id="Trazado_188353" data-name="Trazado 188353" d="M482.268,1102.8a.44.44,0,0,1,.27.405l0,1.73-17.523.032a2.17,2.17,0,0,0,2.174,2.166l13.183-.024a2.17,2.17,0,0,0,2.166-2.174l0-1.73A.44.44,0,0,0,482.268,1102.8Z" transform="translate(-465.018 -1102.799)" fill="#355389"/>
      <path id="Trazado_188354" data-name="Trazado 188354" d="M466.336,1102.746h0a.44.44,0,0,0-.365.195A.44.44,0,0,1,466.336,1102.746Z" transform="translate(-465.899 -1102.746)" fill="#9bc1f9"/>
      <path id="Trazado_188355" data-name="Trazado 188355" d="M465.236,1105.9a.435.435,0,0,1,.033-.079A.435.435,0,0,0,465.236,1105.9Z" transform="translate(-465.22 -1105.593)" fill="#9bc1f9"/>
    </g>
    <g id="Grupo_132697" data-name="Grupo 132697" transform="translate(321.026 288.775)">
      <path id="Trazado_188356" data-name="Trazado 188356" d="M717.926,1282.467l-5.635.01-.01-5.635,5.635-.01Zm-5.4-.221,5.174-.009-.009-5.174-5.174.009Z" transform="translate(-712.281 -1276.832)" fill="#184655"/>
    </g>
    <g id="Grupo_132698" data-name="Grupo 132698" transform="translate(321.043 298.15)">
      <path id="Trazado_188357" data-name="Trazado 188357" d="M718.151,1407.375l-5.635.01-.01-5.635,5.635-.01Zm-5.4-.22,5.174-.009-.009-5.174-5.174.01Z" transform="translate(-712.506 -1401.74)" fill="#184655"/>
    </g>
    <g id="Grupo_132699" data-name="Grupo 132699" transform="translate(321.06 307.526)">
      <path id="Trazado_188358" data-name="Trazado 188358" d="M718.376,1532.285l-5.635.01-.01-5.635,5.635-.01Zm-5.4-.221,5.174-.009-.009-5.174-5.174.009Z" transform="translate(-712.731 -1526.65)" fill="#184655"/>
    </g>
    <g id="Grupo_132700" data-name="Grupo 132700" transform="translate(321.077 316.901)">
      <path id="Trazado_188359" data-name="Trazado 188359" d="M718.6,1657.193l-5.635.01-.01-5.635,5.635-.01Zm-5.4-.22,5.174-.009-.009-5.174-5.174.009Z" transform="translate(-712.956 -1651.559)" fill="#184655"/>
    </g>
    <rect id="Rectángulo_82687" data-name="Rectángulo 82687" width="24.114" height="0.811" transform="translate(294.552 288.948) rotate(-0.103)" fill="#9bc1f9"/>
    <rect id="Rectángulo_82688" data-name="Rectángulo 82688" width="24.114" height="0.811" transform="matrix(1, -0.002, 0.002, 1, 294.556, 291.244)" fill="#9bc1f9"/>
    <rect id="Rectángulo_82689" data-name="Rectángulo 82689" width="24.114" height="0.811" transform="matrix(1, -0.002, 0.002, 1, 294.56, 293.541)" fill="#9bc1f9"/>
    <rect id="Rectángulo_82690" data-name="Rectángulo 82690" width="24.114" height="0.811" transform="matrix(1, -0.002, 0.002, 1, 294.569, 298.643)" fill="#9bc1f9"/>
    <rect id="Rectángulo_82691" data-name="Rectángulo 82691" width="24.114" height="0.811" transform="translate(294.573 300.94) rotate(-0.103)" fill="#9bc1f9"/>
    <rect id="Rectángulo_82692" data-name="Rectángulo 82692" width="24.114" height="0.811" transform="matrix(1, -0.002, 0.002, 1, 294.577, 303.237)" fill="#9bc1f9"/>
    <rect id="Rectángulo_82693" data-name="Rectángulo 82693" width="24.114" height="0.811" transform="matrix(1, -0.002, 0.002, 1, 294.586, 307.83)" fill="#9bc1f9"/>
    <rect id="Rectángulo_82694" data-name="Rectángulo 82694" width="24.114" height="0.811" transform="matrix(1, -0.002, 0.002, 1, 294.59, 310.127)" fill="#9bc1f9"/>
    <rect id="Rectángulo_82695" data-name="Rectángulo 82695" width="24.114" height="0.811" transform="translate(294.594 312.423) rotate(-0.103)" fill="#9bc1f9"/>
    <rect id="Rectángulo_82696" data-name="Rectángulo 82696" width="24.114" height="0.811" transform="translate(294.602 317.016) rotate(-0.103)" fill="#9bc1f9"/>
    <rect id="Rectángulo_82697" data-name="Rectángulo 82697" width="24.114" height="0.811" transform="translate(294.606 319.313) rotate(-0.103)" fill="#9bc1f9"/>
    <rect id="Rectángulo_82698" data-name="Rectángulo 82698" width="24.114" height="0.811" transform="translate(294.61 321.61) rotate(-0.103)" fill="#9bc1f9"/>
    <rect id="Rectángulo_82699" data-name="Rectángulo 82699" width="27.82" height="0.811" transform="translate(294.621 327.547) rotate(-0.103)" fill="#9bc1f9"/>
    <rect id="Rectángulo_82700" data-name="Rectángulo 82700" width="33.306" height="0.811" transform="translate(294.625 329.513) rotate(-0.103)" fill="#9bc1f9"/>
    <g id="Grupo_132701" data-name="Grupo 132701" transform="translate(322.076 287.886)">
      <path id="Trazado_188360" data-name="Trazado 188360" d="M728.017,1270.594l-1.75-3,.626-.365,1.016,1.742,1.658-3.978.669.279Z" transform="translate(-726.267 -1264.992)" fill="#f47458"/>
    </g>
    <g id="Grupo_132702" data-name="Grupo 132702" transform="translate(322.093 297.384)">
      <path id="Trazado_188361" data-name="Trazado 188361" d="M728.245,1397.14l-1.75-3,.626-.365,1.016,1.742,1.658-3.978.669.279Z" transform="translate(-726.495 -1391.538)" fill="#f47458"/>
    </g>
    <g id="Grupo_132703" data-name="Grupo 132703" transform="translate(322.127 315.955)">
      <path id="Trazado_188362" data-name="Trazado 188362" d="M728.69,1644.551l-1.75-3,.626-.365,1.016,1.742,1.658-3.978.669.279Z" transform="translate(-726.94 -1638.949)" fill="#f47458"/>
    </g>
    <path id="Trazado_188363" data-name="Trazado 188363" d="M728.265,1539.04l-.5-.509-1.44,1.427-1.445-1.422-.5.511,1.438,1.415-1.433,1.42.5.509,1.44-1.427,1.445,1.422.5-.511-1.439-1.415Z" transform="translate(-402.439 -1230.114)" fill="#f47458"/>
    <path id="Trazado_188364" data-name="Trazado 188364" d="M324.865,1618.92a10.364,10.364,0,0,0-4.016.81l0,1.321a9.185,9.185,0,0,1,8.993,15.982l1.978,0q.213-.192.417-.4a10.384,10.384,0,0,0-7.374-17.714Z" transform="translate(-29.203 -1304.469)" fill="#9bc1f9" opacity="0.3" style="mix-blend-mode: multiply;isolation: isolate"/>
    <path id="Trazado_188365" data-name="Trazado 188365" d="M324.941,1656.427a7.524,7.524,0,0,0-4.016,1.164v.719a6.97,6.97,0,1,1,.02,11.385v.719a7.568,7.568,0,1,0,3.993-13.988Z" transform="translate(-29.274 -1339.16)" fill="#9bc1f9" opacity="0.3" style="mix-blend-mode: multiply;isolation: isolate"/>
    <g id="Grupo_132706" data-name="Grupo 132706" transform="translate(329.055 208.594)">
      <g id="Grupo_132705" data-name="Grupo 132705" transform="translate(0 0)">
        <path id="Trazado_188366" data-name="Trazado 188366" d="M962.992,340.724c.151.006.566.145,1.172,1.291a42.957,42.957,0,0,1,1.906,5.885l-3.378,1.258-.434-.923-.715-7.1S962.95,340.722,962.992,340.724Z" transform="translate(-950.862 -330.806)" fill="#a34b3d"/>
        <path id="Trazado_188367" data-name="Trazado 188367" d="M847.507,332.233a20.645,20.645,0,0,1,4.466.638s.815,7.005-.734,12.328c-.347,1.192.287,4.939.287,4.939l-10.011-.132s1.186-9.061.739-10.524a40.814,40.814,0,0,1-.457-6.564s.069-.011,2.249-.388A22.681,22.681,0,0,1,847.507,332.233Z" transform="translate(-839.844 -322.953)" fill="#b75742"/>
        <path id="Trazado_188368" data-name="Trazado 188368" d="M870.74,744.007a13.479,13.479,0,0,0,.629,3.264c.407.708-.021,1.911-.043,2.076s-.857.4-2.186.259-1.307-.448-1.2-.944.814-1.133.857-1.6a12.324,12.324,0,0,0-.407-2.171Z" transform="translate(-864.244 -703.82)" fill="#f7a491"/>
        <path id="Trazado_188369" data-name="Trazado 188369" d="M848.292,540.742s6.911-.384,8.454.551-1.1,5.521-1.1,5.521-4.809-.221-14.227.322c-2.23.129-2.422-5.815-2.005-6.307S848.292,540.742,848.292,540.742Z" transform="translate(-837.739 -515.667)" fill="#e0973f"/>
        <path id="Trazado_188370" data-name="Trazado 188370" d="M867.97,791.922c-1.368-.146-1.2-.818-1.089-1.328a4.518,4.518,0,0,1,.7-1.052,2.279,2.279,0,0,0,.915.445,3.423,3.423,0,0,0,2-.4,6.6,6.6,0,0,1,.183,1.765A3.975,3.975,0,0,1,867.97,791.922Z" transform="translate(-863.24 -745.937)" fill="#dd513a"/>
        <path id="Trazado_188371" data-name="Trazado 188371" d="M827.806,546.532c.276,2.089,1.643,12.49,1.643,12.49l-3.172.393s-3.9-13.575-3.7-15.651,1.66-2.251,1.66-2.251S827.075,541,827.806,546.532Z" transform="translate(-822.32 -516.513)" fill="#f7cc7f"/>
        <path id="Trazado_188372" data-name="Trazado 188372" d="M824.58,351.6c.936-.351,1.394,8.082,1.52,11.554a40.8,40.8,0,0,0,5.266-.053c.338-.026,1.119-.311,1.455-.355a3.376,3.376,0,0,1,.827-.039,15.62,15.62,0,0,1,1.938.872c.183.192.679.677.6.886s-.953-.584-.953-.584l-.425-.238c.529.517,1.538,1.2,1.392,1.445s-1.052-.449-1.7-.92c.556.5,1.247,1.4,1.088,1.542-.143.126-.929-.915-1.77-1.215-.311-.111-.622.2-.866.234a1.76,1.76,0,0,1-.635.035l-.91-.258c-.31.028-.318.211-.631.278-.363.077-.959.159-1.422.272a24.605,24.605,0,0,1-4.368.953C822.511,366.006,822.368,352.429,824.58,351.6Z" transform="translate(-822.736 -340.855)" fill="#f7a491"/>
        <path id="Trazado_188373" data-name="Trazado 188373" d="M819.316,349.805c-.175-3.556-.15-7.938,1.844-8.686.786-.295,2.173,1.479,1.924,8.758A14.976,14.976,0,0,1,819.316,349.805Z" transform="translate(-819.249 -331.144)" fill="#a34b3d"/>
        <path id="Trazado_188374" data-name="Trazado 188374" d="M995.036,776.043a1.728,1.728,0,0,0-.1,1.487c.36.678,2.252,1.676,2.449,2.044a.891.891,0,0,1,.12.628l-5.616-1.377.43-1.693.525-1.17Z" transform="translate(-978.933 -733.377)" fill="#f7a491"/>
        <path id="Trazado_188375" data-name="Trazado 188375" d="M992.528,792.309s-1.579.273-2.2-.226-.584-.591-.815-.505c-.149.055-.374.729-.517,1.2a.462.462,0,0,0,.332.581l5.847,1.445c.444.085.738-.192.439-.548a5.288,5.288,0,0,0-.6-.561A20.317,20.317,0,0,0,992.528,792.309Z" transform="translate(-976.232 -747.794)" fill="#dd513a"/>
        <path id="Trazado_188376" data-name="Trazado 188376" d="M999.9,544.132a2.4,2.4,0,0,1,3.25-1.427c1.7.7,2.163,2.431,1.625,4.2s-4.079,12.171-4.2,13.6l-2.828.019s.514-8.236.64-10.227A19.273,19.273,0,0,1,999.9,544.132Z" transform="translate(-984.344 -517.418)" fill="#f7cc7f"/>
        <path id="Trazado_188377" data-name="Trazado 188377" d="M860.785,436.861h-9.452a.616.616,0,0,0-.57.384l-2.91,7.122h-5.211a.264.264,0,0,0-.264.264h0a.264.264,0,0,0,.264.265h14.83a1.035,1.035,0,0,0,.945-.613l2.93-6.55A.618.618,0,0,0,860.785,436.861Z" transform="translate(-840.642 -419.728)" fill="#184655"/>
        <path id="Trazado_188378" data-name="Trazado 188378" d="M1007.191,483.618a.52.52,0,1,1-.39-.681A.556.556,0,0,1,1007.191,483.618Z" transform="translate(-992.137 -462.337)" fill="#fff"/>
        <g id="Grupo_132704" data-name="Grupo 132704" transform="translate(4.648)">
          <path id="Trazado_188379" data-name="Trazado 188379" d="M886.439,209.318a7.256,7.256,0,0,1-.836-.335,4.2,4.2,0,0,0-.953-.359,2.3,2.3,0,0,0-1.934.516c-.623.676-1.731.122-1.508,3.664.253,4.009,2.482,3.569,2.536,3.5s1.988-2.565,1.988-2.565.676,1.479.676,1.425S889.861,210.471,886.439,209.318Z" transform="translate(-881.178 -208.594)" fill="#0e2e35"/>
          <path id="Trazado_188380" data-name="Trazado 188380" d="M900.508,287.476l.192,1.433s.431,2.064-.123,2.462-2.359-2.521-2.359-2.521l.191-3.63Z" transform="translate(-896.939 -279.469)" fill="#f7a491"/>
          <path id="Trazado_188381" data-name="Trazado 188381" d="M899.936,286.4a4.11,4.11,0,0,0,2.324,2.294l-.163-1.215L900,285.22Z" transform="translate(-898.528 -279.469)" fill="#f47458"/>
          <path id="Trazado_188382" data-name="Trazado 188382" d="M897.356,232.291a1.91,1.91,0,0,1,2.2,1.932,14.526,14.526,0,0,1-.161,1.837c-.256,1.654-1.384,3.11-2.13,2.98a3.585,3.585,0,0,1-2.293-3.91A3.163,3.163,0,0,1,897.356,232.291Z" transform="translate(-893.902 -230.49)" fill="#f7a491"/>
          <path id="Trazado_188383" data-name="Trazado 188383" d="M888.971,264.812a.556.556,0,1,1-.423-.752A.615.615,0,0,1,888.971,264.812Z" transform="translate(-887.382 -259.891)" fill="#f7a491"/>
          <path id="Trazado_188384" data-name="Trazado 188384" d="M893.2,227.9s.9.224,1.237-.356a2.724,2.724,0,0,1,3.053-1.313c1.522.519-1.339-1.262-1.461-1.262l-1.582-.01s-1.126.926-1.167,1.028-.365,1.211-.365,1.211Z" transform="translate(-892.039 -223.727)" fill="#0e2e35"/>
        </g>
        <path id="Trazado_188385" data-name="Trazado 188385" d="M918.626,296.392l1.641.314a.73.73,0,0,1-.882.5C918.5,297.064,918.626,296.392,918.626,296.392Z" transform="translate(-911.161 -289.802)" fill="#fff"/>
      </g>
    </g>
    <g id="Grupo_132707" data-name="Grupo 132707" transform="translate(352.04 273)">
      <path id="Trazado_188386" data-name="Trazado 188386" d="M1152.246,1801.972a8.811,8.811,0,0,1-.817,2.772,5.351,5.351,0,0,0-.7.924,2.732,2.732,0,0,0,.094,2.113c.123.269-.009.268.271.355a1.712,1.712,0,0,0,2.058-.972,4.958,4.958,0,0,0,.4-1.785,6.494,6.494,0,0,1,.677-2.87Z" transform="translate(-1148.672 -1746.781)" fill="#f7a491"/>
      <path id="Trazado_188387" data-name="Trazado 188387" d="M1289.326,1814.741a19.9,19.9,0,0,1,.035,3.131c-.081.411-.53,1.258-.324,1.645a1.036,1.036,0,0,0,.441.484l5.337.087c.291,0,.1-.184-.136-.357a10.732,10.732,0,0,0-1.919-1.068c-.08-.039-.371-.225-.476-.289a3.7,3.7,0,0,1-.763-.678,6.926,6.926,0,0,1-.417-2.51Z" transform="translate(-1276.71 -1758.591)" fill="#f7a491"/>
      <path id="Trazado_188388" data-name="Trazado 188388" d="M1286.3,1388.99a23.217,23.217,0,0,1,.23,6.352c-.441,2.515-2.559,25.829-2.559,25.829l-2.354.134s-.493-9.739-.405-11.093a21.1,21.1,0,0,1,.787-3.621l-.234-7.863,2.97-10.33Z" transform="translate(-1269.511 -1364.249)" fill="#e25a44"/>
      <path id="Trazado_188389" data-name="Trazado 188389" d="M1175.765,1374.809a17.579,17.579,0,0,0-2.294,5.127c-.441,2.322.324,9.457-.525,12.5-.459,1.647-2.2,4.19-2.466,6.319s-1.3,7.7-1.3,7.7l2.353.469L1177,1393l4.289-12.584,1.1-6.481Z" transform="translate(-1165.895 -1350.875)" fill="#f47458"/>
      <path id="Trazado_188390" data-name="Trazado 188390" d="M1151.079,1852.2a2.624,2.624,0,0,1-2.579-1.084,2.859,2.859,0,0,0-.245,2.12c.211.463.828.45,1.314.468a1.269,1.269,0,0,0,1.166-.718A4.315,4.315,0,0,0,1151.079,1852.2Z" transform="translate(-1146.438 -1792.238)" fill="#f7cc7f"/>
      <path id="Trazado_188391" data-name="Trazado 188391" d="M1292.138,1861.642a4.805,4.805,0,0,1-3.039-.12,2.48,2.48,0,0,0-.244,1.277c.13.38.314.466.477.47,1.289.034,4.723.081,5.706.094a.161.161,0,0,0,.125-.265A25.757,25.757,0,0,0,1292.138,1861.642Z" transform="translate(-1276.564 -1801.861)" fill="#f7cc7f"/>
      <path id="Trazado_188392" data-name="Trazado 188392" d="M1314.658,1265.588c.1-.209-.938-.494-.972-.719s1.357-.1,1.426-.286c.128-.346-1.514-.232-1.465-.4s1.737-.363,1.588-.666-1.728.39-1.753.192,1.527-.513,1.544-.939c.009-.228-2.584.874-2.856.721s.429-1.156.219-1.338-1.12,1.917-1.285,1.979-3.723,1.137-4.933,1.316c-.1-.41-1.012-2.665-1.1-3.051-.711.4-1.616-.082-2.343.276.366,1.291,1.188,5.543,1.516,5.734,1,.583,6.262-2.2,7.132-2.689s1.315-.257,1.882-.383S1314.56,1265.8,1314.658,1265.588Z" transform="translate(-1289.424 -1247.475)" fill="#f38b80"/>
      <path id="Trazado_188393" data-name="Trazado 188393" d="M1141.34,1072.258a5.054,5.054,0,0,0-.174-3.736,3.393,3.393,0,0,0-2.671-1.819c-3.2-.38-2.517,2.609-6.991,3.255a10.043,10.043,0,0,0-3.842,1.086c-2.1,1.248-2.887,3.251-1.5,6.514,3.4,7.989,11.547,1.047,12.79-.366A14.5,14.5,0,0,0,1141.34,1072.258Z" transform="translate(-1125.469 -1066.67)" fill="#0e2e35"/>
      <path id="Trazado_188394" data-name="Trazado 188394" d="M1235.255,1191.718a4.646,4.646,0,0,0-2.583,1.235c-.967,1.052,1.563,9.505,1.739,10.844s-1.681,5.043-1.681,5.043,6.312,1.255,7.953.171c0,0,.144-10.346-.032-11.3a28.268,28.268,0,0,0-1.992-5.227C1238.306,1192.1,1235.255,1191.718,1235.255,1191.718Z" transform="translate(-1224.422 -1182.332)" fill="#f7cc7f"/>
      <path id="Trazado_188395" data-name="Trazado 188395" d="M1269.586,1147.628s-.013.072-.036.194a18.477,18.477,0,0,1-.812,3.066c-.343.646,1.173,2.708,2.631,2.456.434-.075-.367-1.894-.328-2.086.074-.369.174-.872.276-1.388l.171-.864.283-1.433Z" transform="translate(-1257.939 -1141.501)" fill="#f7a491"/>
      <path id="Trazado_188396" data-name="Trazado 188396" d="M1279.343,1147.822c.023-.122.035-.194.035-.194l2.186-.054s-.127.645-.283,1.433l-.17.859a2.051,2.051,0,0,1-1.044-.522,2.754,2.754,0,0,1-.79-1.173C1279.3,1148.032,1279.326,1147.913,1279.343,1147.822Z" transform="translate(-1267.732 -1141.501)" fill="#f47458" opacity="0.5"/>
      <path id="Trazado_188397" data-name="Trazado 188397" d="M1270.333,1079.081a2.579,2.579,0,0,0-1.537.957c-.646.833-1.341,3.411.263,4.812s3.189-.185,3.424-1.867S1272.669,1079.021,1270.333,1079.081Z" transform="translate(-1257.372 -1078.148)" fill="#f7a491"/>
      <path id="Trazado_188398" data-name="Trazado 188398" d="M1322.42,1114.877c-.1.406-.367.679-.593.612s-.328-.451-.227-.857.367-.679.593-.612S1322.521,1114.472,1322.42,1114.877Z" transform="translate(-1306.842 -1110.457)" fill="#f7a491"/>
      <path id="Trazado_188399" data-name="Trazado 188399" d="M1259.667,1078.664s-2.095,2.4-3.079,2.518-1.114,1.416-1.114,1.416.352-3,1.327-3.58A5.764,5.764,0,0,1,1259.667,1078.664Z" transform="translate(-1245.716 -1077.724)" fill="#0e2e35"/>
      <path id="Trazado_188400" data-name="Trazado 188400" d="M1261.911,1112c.08.435-.081.834-.36.892s-.57-.25-.65-.685.081-.834.36-.891S1261.831,1111.563,1261.911,1112Z" transform="translate(-1250.717 -1107.956)" fill="#f7a491"/>
      <path id="Trazado_188401" data-name="Trazado 188401" d="M1252.672,1283.072l6.768.99a.372.372,0,0,1,.315.422l-1.321,9.03a.372.372,0,0,1-.422.314l-6.768-.99a.372.372,0,0,1-.314-.422l1.321-9.03A.372.372,0,0,1,1252.672,1283.072Z" transform="translate(-1241.509 -1266.826)" fill="#184655"/>
      <path id="Trazado_188402" data-name="Trazado 188402" d="M1304.3,1282.819a.076.076,0,0,0-.064-.086l-2.823-.413a.075.075,0,0,0-.086.064l-.043.293,2.973.435Z" transform="translate(-1288.09 -1266.133)" fill="#13375b"/>
      <path id="Trazado_188403" data-name="Trazado 188403" d="M1316.152,1280.269a.45.45,0,1,0,.38.51A.45.45,0,0,0,1316.152,1280.269Zm-.107.731a.289.289,0,1,1,.327-.244A.289.289,0,0,1,1316.045,1281Z" transform="translate(-1301.363 -1264.232)" fill="#13375b"/>
      <path id="Trazado_188404" data-name="Trazado 188404" d="M1304.218,1287.155a.076.076,0,0,1,.036.075l-.043.294-2.973-.435a.372.372,0,0,0,.314.422l2.236.327a.372.372,0,0,0,.422-.314l.043-.294A.076.076,0,0,0,1304.218,1287.155Z" transform="translate(-1288.041 -1270.545)" fill="#355389"/>
      <path id="Trazado_188405" data-name="Trazado 188405" d="M1294.649,1142.089l-1.523-.008a.666.666,0,0,0,.7.6C1294.644,1142.711,1294.649,1142.089,1294.649,1142.089Z" transform="translate(-1280.542 -1136.421)" fill="#fff"/>
      <path id="Trazado_188406" data-name="Trazado 188406" d="M1210.8,1313.885l2.453.251s-.04,2.081,0,2.32c0,0,4.194,1.163,5.946,1.478,0,0,.8-.452,1.121-.6a7.829,7.829,0,0,1,1.383-.326c.192-.025.126.185-.039.259a1.6,1.6,0,0,0-.712.52,1.331,1.331,0,0,0,.529-.044c.183-.082.435-.255.439-.344s.046-.305.106-.294c.015,0,.036.074.056.148s.04.143.057.214c.031.128.066.314.08.4a5.8,5.8,0,0,1-.1.906c-.03.342-.128.494-.308.581a4.464,4.464,0,0,1-1.054.213,7.088,7.088,0,0,1-1.935-.192c-.334-.038-5.675-.567-5.675-.567s-2.123-.306-2.264-.671S1210.8,1313.885,1210.8,1313.885Z" transform="translate(-1204.386 -1295.329)" fill="#f7a491"/>
      <path id="Trazado_188407" data-name="Trazado 188407" d="M1211.092,1203.664a3.735,3.735,0,0,0-1.455,1.952c-.646,1.507-.837,9.024-.837,9.024l2.565-.428,1.3-3.505a6.429,6.429,0,0,0-.665-6.393C1211.644,1203.82,1211.312,1203.522,1211.092,1203.664Z" transform="translate(-1202.546 -1193.349)" fill="#f7cc7f"/>
    </g>
    <rect id="Rectángulo_82701" data-name="Rectángulo 82701" width="10.889" height="10.888" transform="translate(401.036 247.201)" fill="#9bc1f9" opacity="0.6"/>
    <rect id="Rectángulo_82702" data-name="Rectángulo 82702" width="21.242" height="1.479" transform="translate(413.851 247.201)" fill="#9bc1f9" opacity="0.6"/>
    <rect id="Rectángulo_82703" data-name="Rectángulo 82703" width="14.335" height="1.479" transform="translate(413.851 250.337)" fill="#9bc1f9" opacity="0.6"/>
    <rect id="Rectángulo_82704" data-name="Rectángulo 82704" width="19.08" height="1.479" transform="translate(413.851 253.473)" fill="#9bc1f9" opacity="0.6"/>
    <g id="Grupo_132712" data-name="Grupo 132712" transform="translate(418.683 250.287)">
      <path id="Trazado_188408" data-name="Trazado 188408" d="M2157.049,1203.842c-.445-.362-3.887,1.148-3.843,1.674s-2.4,5.623-2.4,5.623l-4.226-3.37h0c-.037-.122-.437-1.433-.457-1.667s-.735-.676-1.066-.613.283.479.324.556c.11.208-.315.286-.315.286s-1.207-.387-1.232-.781-.851.689-.754.84,2.067,1.736,2.351,2.081c0,0,5.466,6.249,5.855,6.412.342.143,1.559-2.01,2.71-3.44S2158.44,1204.972,2157.049,1203.842Z" transform="translate(-2113.131 -1170.781)" fill="#f7a491"/>
      <path id="Trazado_188409" data-name="Trazado 188409" d="M2470.8,1791.4s.751.733.768,1,.067,3.151-.24,3.42-1.207.46-.918.762a8.967,8.967,0,0,0,3.018.118c.326-.018.735-2.617.864-3,.188-.555.643-1.8.473-2.191a3.249,3.249,0,0,0-1.04-.937,5.111,5.111,0,0,1-1.152-1.226Z" transform="translate(-2415.853 -1712.395)" fill="#f48c7f"/>
      <path id="Trazado_188410" data-name="Trazado 188410" d="M2337.8,1838.921s.672,1.9.673,1.9c.05.3.247,1.044.247,1.318,0,1.027-4.634-.872-3.595-1.328a1.1,1.1,0,0,0,.42-.72,2.4,2.4,0,0,0-.39-1.214Z" transform="translate(-2290.631 -1758.205)" fill="#f7a491"/>
      <g id="Grupo_132708" data-name="Grupo 132708" transform="translate(38.65 45.355)">
        <path id="Trazado_188411" data-name="Trazado 188411" d="M2260.412,1368.321s-.338,3.4-.338,3.455c0,5.506-1.092,16.263-.884,17.3.507,2.525,5.958,15.407,5.958,15.407l2.946-.352-3.162-15.567.736-6.065,2-12.271Z" transform="translate(-2259.164 -1368.321)" fill="#ccc198"/>
        <path id="Trazado_188412" data-name="Trazado 188412" d="M2296.17,1377.318l.559,3.227,1.512,13.279L2304,1406.8s-.811,1.888-2.006,2.154l-9.167-13.325-5.695-17.05.2-3.788Z" transform="translate(-2285.035 -1374.307)" fill="#fff2bf"/>
      </g>
      <path id="Trazado_188413" data-name="Trazado 188413" d="M2260.139,1150.528l4.085.417s.188-3.349.188-4.947c0-1.938-.165-4.434-.4-4.381a3.561,3.561,0,0,0-2.068,1.237C2260.121,1145.359,2260.139,1150.528,2260.139,1150.528Z" transform="translate(-2221.416 -1113.278)" fill="#b75742"/>
      <path id="Trazado_188414" data-name="Trazado 188414" d="M2266.471,1144.068c-.086.591-1.656,16.655-1.656,16.655,7.438,3.592,11.542.64,11.542.64s-.243-11.281.049-12.816c.193-1.016.433-7.766-.225-7.955a16.492,16.492,0,0,0-2.869-.61,27.444,27.444,0,0,0-5.029.063A7.975,7.975,0,0,0,2266.471,1144.068Z" transform="translate(-2225.741 -1111.69)" fill="#f47458"/>
      <path id="Trazado_188415" data-name="Trazado 188415" d="M2469.971,1805.449s-1.731,4.874-2.409,5.109c-.18.063-1.043.221-1.206.6a1.659,1.659,0,0,0,0,.5h3.608s.456-2.147.637-3.091a14.031,14.031,0,0,0,.849-2.515C2471.344,1805.845,2469.971,1805.449,2469.971,1805.449Z" transform="translate(-2412.134 -1727.284)" fill="#f47458"/>
      <path id="Trazado_188416" data-name="Trazado 188416" d="M2294.736,1866.2l-.531-1.676a4.608,4.608,0,0,1-1.671.393,16.831,16.831,0,0,1-1.645-.393c-2.224.732-4.046,1.087-3.715,1.676h7.562Z" transform="translate(-2246.385 -1781.925)" fill="#f47458"/>
      <g id="Grupo_132709" data-name="Grupo 132709" transform="translate(37.652 39.913)">
        <path id="Trazado_188417" data-name="Trazado 188417" d="M2246.367,1300.007a.963.963,0,0,1-.112-.083c.132-1.574.109-3.1-.386-3.614.012-.025.12-.254.233-.492.573.443.845,1.619.738,3.528a3.248,3.248,0,0,1-.076.4C2246.6,1299.923,2246.447,1300.041,2246.367,1300.007Z" transform="translate(-2245.869 -1295.817)" fill="#f7a491"/>
      </g>
      <path id="Trazado_188418" data-name="Trazado 188418" d="M2330.037,1097.323l.479,3.16s-1.75,3.762-2.8,3.436c-.877-.274-.338-3.6-.338-3.6a9.131,9.131,0,0,0,.335-2.683C2327.574,1096.739,2330.037,1097.323,2330.037,1097.323Z" transform="translate(-2283.461 -1072.135)" fill="#f7a491"/>
      <path id="Trazado_188419" data-name="Trazado 188419" d="M2333.11,1097.634c-.144-.895,2.319-.311,2.319-.311l.04.262a1.453,1.453,0,0,1-.268.44,3.242,3.242,0,0,1-2.153.975A4.884,4.884,0,0,0,2333.11,1097.634Z" transform="translate(-2288.853 -1072.135)" fill="#f47458"/>
      <g id="Grupo_132710" data-name="Grupo 132710" transform="translate(42.775 18.1)">
        <path id="Trazado_188420" data-name="Trazado 188420" d="M2318.326,1027.905c.07-.025.558,3.6-.369,4.6s-2.732,1.324-3.38.538c-.717-.869-.68-4.764.76-5.79S2318.326,1027.905,2318.326,1027.905Z" transform="translate(-2314.121 -1025.289)" fill="#f7a491"/>
        <path id="Trazado_188421" data-name="Trazado 188421" d="M2322.227,1005.232a4,4,0,0,1,2.1,1.2c.506.06,1.193.339,1.9,1.514a2.939,2.939,0,0,1-.788,3.831,2.289,2.289,0,0,0-1,1.693l-.161-.469a2.622,2.622,0,0,1-.127-1.105,2.16,2.16,0,0,1,.164-.665c.244-.525-.525-.873-.741-1.309-.166-.336-.174-1.1-.436-1.66l-.313-.424a1.985,1.985,0,0,0-1.426-.4C2320.7,1007.591,2320.8,1004.94,2322.227,1005.232Z" transform="translate(-2320.462 -1005.21)" fill="#0e2e35"/>
        <path id="Trazado_188422" data-name="Trazado 188422" d="M2356.251,1066.778c-.008.442.193.8.449.809s.468-.351.476-.793-.194-.8-.449-.808S2356.259,1066.336,2356.251,1066.778Z" transform="translate(-2353.089 -1061.424)" fill="#f7a491"/>
      </g>
      <path id="Trazado_188423" data-name="Trazado 188423" d="M2318.99,1089.269l-1.4-.072a.611.611,0,0,0,.618.582C2318.96,1089.839,2318.99,1089.269,2318.99,1089.269Z" transform="translate(-2274.558 -1064.793)" fill="#fff"/>
      <g id="Grupo_132711" data-name="Grupo 132711" transform="translate(0 0)">
        <path id="Trazado_188424" data-name="Trazado 188424" d="M2171.42,1187.471q.492-.5.919-1.036l6.1,5.954c.375.366.246,1.106-.288,1.652s-1.27.693-1.645.327l-6.1-5.954Q2170.926,1187.975,2171.42,1187.471Z" transform="translate(-2138.417 -1154.732)" fill="#0e2e35"/>
        <ellipse id="Elipse_4817" data-name="Elipse 4817" cx="15.378" cy="15.473" rx="15.378" ry="15.473" transform="matrix(0.699, -0.715, 0.715, 0.699, 0, 21.999)" fill="#c5ddf9" opacity="0.6"/>
        <path id="Trazado_188425" data-name="Trazado 188425" d="M1856.391,925.854a15.364,15.364,0,0,1-9.791,4.792l-16.68-16.954c0-.032.006-.064.009-.1a15.468,15.468,0,0,1,4.851-9.708Z" transform="translate(-1823.49 -893.393)" fill="#fff" style="mix-blend-mode: soft-light;isolation: isolate"/>
        <path id="Trazado_188426" data-name="Trazado 188426" d="M1941.538,848.938l15.425,15.679c-.007.474-.035.952-.087,1.433a15.5,15.5,0,0,1-1.937,6.024L1934.107,850.9A15.235,15.235,0,0,1,1941.538,848.938Z" transform="translate(-1919.856 -842.567)" fill="#fff" style="mix-blend-mode: soft-light;isolation: isolate"/>
        <path id="Trazado_188427" data-name="Trazado 188427" d="M1807.807,852.227a17.385,17.385,0,1,0-.368-24.66A17.439,17.439,0,0,0,1807.807,852.227Zm1.4-1.436a15.378,15.378,0,1,1,21.814-.191A15.425,15.425,0,0,1,1809.209,850.791Z" transform="translate(-1798.139 -817.976)" fill="#184655"/>
        <path id="Trazado_188428" data-name="Trazado 188428" d="M1821.586,864.512a16.33,16.33,0,1,0-.346-23.163A16.38,16.38,0,0,0,1821.586,864.512Zm.665-.681a15.378,15.378,0,1,1,21.814-.191A15.426,15.426,0,0,1,1822.251,863.831Z" transform="translate(-1811.181 -831.017)" fill="#50bfa5" opacity="0.5" style="mix-blend-mode: multiply;isolation: isolate"/>
        <path id="Trazado_188429" data-name="Trazado 188429" d="M2260.4,1274.376l.948-.983a2.47,2.47,0,0,0-.064-3.493l-17.6-17.066a2.47,2.47,0,0,0-3.493.064l-.948.983a2.47,2.47,0,0,0,.064,3.493l17.6,17.066A2.47,2.47,0,0,0,2260.4,1274.376Z" transform="translate(-2201.451 -1215.509)" fill="#184655"/>
      </g>
      <path id="Trazado_188430" data-name="Trazado 188430" d="M2424.235,1207.172a.443.443,0,0,0,0-.1c-.11-1.113-1.034-10.455-1.189-10.852-.14-.359-4.283-6.284-4.283-6.284l-2.036,2.774,3.984,5.314c.09.338,1.527,6.644,1.527,6.644s.294,1.149.427,1.838c-.06.166-.119.322-.172.451a4.175,4.175,0,0,1-.429.69,4.712,4.712,0,0,0-.509.9c-.042.162-.118.5-.161.7s-.1.44-.112.551a1.062,1.062,0,0,1-.129.3.178.178,0,0,0,.21.256c.145-.048.257-.235.327-.352.2-.33.3-.931.349-.9s.221,1.053.248,1.168a12.536,12.536,0,0,0,.35,1.517c.116.217.27.18.311.045.035-.117-.129-1.776-.129-1.776s-.02-.211.073-.145.244,1.572.308,1.792.211.337.336.16a6.675,6.675,0,0,0-.109-1.813s-.029-.2.057-.182.193,1.3.26,1.413a.169.169,0,0,0,.316-.034,7.915,7.915,0,0,0-.15-1.642s.012-.113.065-.076.223,1.125.333,1.226a.118.118,0,0,0,.171,0c.2-.139-.108-1.173-.105-1.687a12.613,12.613,0,0,1-.165-1.7C2424.215,1207.326,2424.228,1207.232,2424.235,1207.172Z" transform="translate(-2366.252 -1157.969)" fill="#f8a492"/>
      <path id="Trazado_188431" data-name="Trazado 188431" d="M2399.73,1156.046l-3.539,2.376a38.349,38.349,0,0,0-3.065-4.024c-1.341-1.324.489-5.379,1.353-5.149C2396.412,1149.761,2399.73,1156.046,2399.73,1156.046Z" transform="translate(-2343.981 -1120.328)" fill="#f47458"/>
    </g>
  </g>
</svg>
