<svg xmlns="http://www.w3.org/2000/svg" width="52.188" height="52.207" viewBox="0 0 52.188 52.207">
  <g id="Grupo_134831" data-name="Grupo 134831" transform="translate(-13110.812 7807)">
    <path id="Trazado_190412" data-name="Trazado 190412" d="M-470.163,334c.188.067.378.13.564.2a3.387,3.387,0,0,1,2.311,2.954,7.537,7.537,0,0,1,.03.865q0,7.72-.008,15.441a1.009,1.009,0,0,0,.462.92,15.323,15.323,0,0,1,6.451,13.757,15.085,15.085,0,0,1-2.353,7.223c.121.129.242.265.37.394,1.509,1.517,3.044,3.011,4.524,4.555a3.434,3.434,0,0,1-1.432,5.715,3.367,3.367,0,0,1-3.561-.884c-1.486-1.469-2.956-2.953-4.428-4.436a4.018,4.018,0,0,1-.337-.445,16.359,16.359,0,0,1-4.712,2,15.564,15.564,0,0,1-17.43-7.807.721.721,0,0,0-.746-.443q-7.362.018-14.725.006a3.54,3.54,0,0,1-3.568-2.2c-.093-.234-.166-.475-.248-.713V336.957a13.546,13.546,0,0,1,.867-1.735A3.533,3.533,0,0,1-506.044,334Zm-19.694,33.064a13.918,13.918,0,0,0,13.895,13.918,13.951,13.951,0,0,0,13.929-13.9,13.934,13.934,0,0,0-13.941-13.929A13.88,13.88,0,0,0-489.858,367.064Zm-6.939,5.169h6.061c-.134-.472-.278-.889-.364-1.318-.065-.324-.233-.4-.531-.387-.594.017-1.189.005-1.783,0a1.542,1.542,0,0,1-1.484-.894,1.638,1.638,0,0,1,.16-1.779c.3-.413.627-.8.911-1.227.547-.814,1.161-1.485,2.292-1.216l.3-1.84c-.733,0-1.411-.009-2.087,0a1.584,1.584,0,0,1-1.58-.905,1.653,1.653,0,0,1,.192-1.821c.437-.585.869-1.174,1.319-1.749a1.622,1.622,0,0,1,2.689-.006c.24.3.467.613.741.974a15.568,15.568,0,0,1,9.036-7.839,15.5,15.5,0,0,1,11.884.78V342.732H-496.8Zm-10.462-31.3H-469c0-1.041,0-2.055,0-3.068,0-1.5-.626-2.12-2.144-2.12h-33.982c-.17,0-.341-.008-.509.006a1.713,1.713,0,0,0-1.613,1.619C-507.286,338.535-507.259,339.706-507.259,340.93Zm.02,1.795c-.01.149-.024.25-.024.351q0,13.683,0,27.366a1.7,1.7,0,0,0,1.767,1.824c2.224.026,4.449.008,6.674.006a1.248,1.248,0,0,0,.209-.038V342.725Zm46.133,36.933-2.375,2.363c.569.567,1.167,1.164,1.767,1.76a3.622,3.622,0,0,0,.336.311,1.763,1.763,0,0,0,2.288-.115,1.637,1.637,0,0,0,.2-2.221C-459.575,380.99-460.381,380.334-461.106,379.657Zm-3.714.961,2.408-2.39-1.188-1.238-2.423,2.373ZM-493.243,361.8h2.429l-1.229-1.6Zm-.008,6.961h1.71c0-.588.058-1.161-.542-1.549Z" transform="translate(13619.812 -8141)" fill="#999172"/>
    <path id="Trazado_190413" data-name="Trazado 190413" d="M-307.593,526.882a5.129,5.129,0,0,1-.583.823q-4.286,3.959-8.594,7.894-2.648,2.428-5.3,4.854a1,1,0,0,1-1,.347.873.873,0,0,1-.265-1.54c1.344-1.249,2.7-2.484,4.052-3.724q4.845-4.443,9.691-8.885c.175-.161.335-.385.543-.451a1.313,1.313,0,0,1,.856-.025C-307.959,526.281-307.821,526.6-307.593,526.882Z" transform="translate(13459.729 -8306.953)" fill="#999172"/>
    <path id="Trazado_190414" data-name="Trazado 190414" d="M-326.855,501.046a4.287,4.287,0,0,1-.523.718q-4.476,4.128-8.972,8.236c-1.64,1.5-3.275,3.013-4.929,4.5a1.389,1.389,0,0,1-.8.368.837.837,0,0,1-.7-1.254,1.431,1.431,0,0,1,.292-.348q7-6.424,14.013-12.842a.871.871,0,0,1,1.431.1A3.51,3.51,0,0,1-326.855,501.046Z" transform="translate(13476.315 -8284.482)" fill="#999172"/>
    <path id="Trazado_190415" data-name="Trazado 190415" d="M-341.682,498.842c-.251-.211-.577-.365-.69-.615a1.442,1.442,0,0,1,.052-.855c.036-.141.219-.25.344-.364q4.95-4.542,9.9-9.081l.112-.1c.532-.477,1.061-.512,1.423-.095s.262.911-.242,1.373q-4.237,3.889-8.476,7.775c-.563.516-1.119,1.04-1.7,1.539A4.921,4.921,0,0,1-341.682,498.842Z" transform="translate(13475.915 -8273.545)" fill="#999172"/>
    <path id="Trazado_190416" data-name="Trazado 190416" d="M-341.524,436.24q3.259,0,6.519,0a3.58,3.58,0,0,1,.609.032.792.792,0,0,1,.7.815.785.785,0,0,1-.611.834,2.3,2.3,0,0,1-.6.058q-6.6,0-13.19,0c-.1,0-.2,0-.305,0a.9.9,0,0,1-.934-.876.868.868,0,0,1,.944-.856c1.562-.015,3.124-.007,4.685-.008Z" transform="translate(13481.896 -8229.316)" fill="#999172"/>
    <path id="Trazado_190417" data-name="Trazado 190417" d="M-403.79,467.133c-.475,0-.95.015-1.424,0a1.649,1.649,0,0,1-1.347-2.578,24.552,24.552,0,0,1,1.524-2.033,1.579,1.579,0,0,1,2.451-.015c.545.647,1.043,1.336,1.53,2.028a1.578,1.578,0,0,1,.088,1.732,1.569,1.569,0,0,1-1.449.867C-402.875,467.143-403.333,467.133-403.79,467.133Zm1.227-1.762-1.236-1.623-1.22,1.623Z" transform="translate(13531.572 -8251.508)" fill="#999172"/>
    <path id="Trazado_190418" data-name="Trazado 190418" d="M-403.8,416.07c-.458,0-.915.008-1.373,0a1.57,1.57,0,0,1-1.478-.9,1.631,1.631,0,0,1,.161-1.775c.461-.628.918-1.26,1.406-1.868a1.609,1.609,0,0,1,2.588.012c.486.609.95,1.236,1.406,1.868a1.627,1.627,0,0,1,.146,1.776,1.574,1.574,0,0,1-1.484.894C-402.885,416.079-403.342,416.07-403.8,416.07Zm.008-3.381-1.193,1.588h2.41Z" transform="translate(13531.563 -8207.404)" fill="#999172"/>
    <path id="Trazado_190419" data-name="Trazado 190419" d="M-347.164,410.679c.424,0,.85-.017,1.273.005a.863.863,0,0,1,.891.857.846.846,0,0,1-.882.864c-.865.027-1.732.027-2.6,0a.852.852,0,0,1-.868-.878.876.876,0,0,1,.909-.842C-348.013,410.663-347.588,410.678-347.164,410.679Z" transform="translate(13481.898 -8207.232)" fill="#999172"/>
    <path id="Trazado_190420" data-name="Trazado 190420" d="M-348.039,463.567a4.455,4.455,0,0,1-.557-.029.876.876,0,0,1-.748-.89.853.853,0,0,1,.82-.815,7.4,7.4,0,0,1,.914,0,.86.86,0,0,1,.873.816.886.886,0,0,1-.844.908,4.326,4.326,0,0,1-.457,0Z" transform="translate(13481.896 -8251.411)" fill="#999172"/>
    <path id="Trazado_190421" data-name="Trazado 190421" d="M-481.735,360.446a.842.842,0,0,1-.865.863.867.867,0,0,1-.863-.876.9.9,0,0,1,.85-.851A.874.874,0,0,1-481.735,360.446Z" transform="translate(13597.752 -8163.099)" fill="#999172"/>
    <path id="Trazado_190422" data-name="Trazado 190422" d="M-430.621,360.481a.838.838,0,0,1-.888.836.861.861,0,0,1-.832-.853.884.884,0,0,1,.873-.873A.861.861,0,0,1-430.621,360.481Z" transform="translate(13553.592 -8163.107)" fill="#999172"/>
    <path id="Trazado_190423" data-name="Trazado 190423" d="M-457.06,361.31a.87.87,0,0,1-.862-.878.9.9,0,0,1,.852-.849.866.866,0,0,1,.873.865A.837.837,0,0,1-457.06,361.31Z" transform="translate(13575.689 -8163.1)" fill="#999172"/>
    <path id="Trazado_190424" data-name="Trazado 190424" d="M-478.311,413.259c0,.272.006.543,0,.815a1.719,1.719,0,0,1-1.752,1.789c-.559.021-1.121.02-1.68,0a1.743,1.743,0,0,1-1.779-1.824q-.013-.789,0-1.579a1.736,1.736,0,0,1,1.788-1.811c.543-.016,1.087-.015,1.629,0a1.713,1.713,0,0,1,1.794,1.8C-478.306,412.716-478.311,412.988-478.311,413.259Zm-1.765-.843h-1.684v1.67h1.684Z" transform="translate(13597.81 -8207.202)" fill="#999172"/>
    <path id="Trazado_190425" data-name="Trazado 190425" d="M-478.365,464.4c0,.306.01.612,0,.917A1.7,1.7,0,0,1-480,467.01a17.828,17.828,0,0,1-1.934,0,1.713,1.713,0,0,1-1.627-1.657c-.03-.627-.03-1.257,0-1.884a1.694,1.694,0,0,1,1.672-1.654c.593-.023,1.188-.02,1.782,0a1.7,1.7,0,0,1,1.75,1.779c.006.271,0,.543,0,.815Zm-1.751-.819h-1.691v1.659h1.691Z" transform="translate(13597.86 -8251.395)" fill="#999172"/>
    <path id="Trazado_190426" data-name="Trazado 190426" d="M-478.372,515.492c0,.34.019.68,0,1.018a1.673,1.673,0,0,1-1.589,1.569c-.661.029-1.325.029-1.986,0a1.705,1.705,0,0,1-1.618-1.659c-.028-.627-.03-1.257,0-1.884a1.717,1.717,0,0,1,1.732-1.654q.865-.019,1.731,0a1.7,1.7,0,0,1,1.736,1.693c.012.305,0,.611,0,.917Zm-3.442.832h1.68v-1.67h-1.68Z" transform="translate(13597.86 -8295.517)" fill="#999172"/>
    <path id="Trazado_190427" data-name="Trazado 190427" d="M-478.359,566.5c0,.322.016.646,0,.967a1.657,1.657,0,0,1-1.56,1.591,19.445,19.445,0,0,1-1.985.007,1.69,1.69,0,0,1-1.651-1.674c-.024-.61-.024-1.223,0-1.833a1.72,1.72,0,0,1,1.651-1.687,18.516,18.516,0,0,1,1.883,0,1.707,1.707,0,0,1,1.668,1.714c.011.305,0,.611,0,.917Zm-1.762.814v-1.673H-481.8v1.673Z" transform="translate(13597.851 -8339.546)" fill="#999172"/>
  </g>
</svg>
