<svg xmlns="http://www.w3.org/2000/svg" width="108.854" height="103.469" viewBox="0 0 108.854 103.469">
  <g id="Grupo_134850" data-name="Grupo 134850" transform="translate(-14901 9434)">
    <g id="Grupo_133518" data-name="Grupo 133518" transform="translate(13685.402 -9447.21)">
      <path id="Trazado_190369" data-name="Trazado 190369" d="M1258.152,138.033c2.341,0,4.411.037,6.478-.009a9.631,9.631,0,0,1,7.4,3.076c2.936,3,5.926,5.944,8.9,8.909.258.258.535.5.906.84.9-1.986,1.8-3.846,2.588-5.752a2.388,2.388,0,0,1,2.521-1.638c11.682.029,23.364.016,35.046.019,2.208,0,2.938,1.12,2.03,3.139q-7.915,17.612-15.829,35.224a2.368,2.368,0,0,1-2.444,1.579q-32.664-.031-65.328-.029a14.073,14.073,0,0,1-11.9-6.153c-1.876-2.592-3.658-5.25-5.661-8.136v14.232h-3.659v-1.25c0-5.634-.018-11.267.017-16.9a4.17,4.17,0,0,0-.774-2.507,15.582,15.582,0,0,1,8.577-24.035,18.968,18.968,0,0,1,4.359-.583c2.529-.092,5.064-.025,7.782-.025v-1.105c0-3.365.026-6.731-.025-10.095a3.723,3.723,0,0,0-.542-1.766c-1.1-1.836-2.5-3.488-2.916-5.7a8.7,8.7,0,0,1,8.089-10.325c6.878-.141,13.761-.042,20.641-.043a1.7,1.7,0,0,1,1.923,1.545c.388,4.4-.366,8.519-3.9,11.542a3.9,3.9,0,0,0-1.526,3.542,53.367,53.367,0,0,1-.076,6.458A10.291,10.291,0,0,1,1258.152,138.033Zm61.647,9.131c-.392-.027-.609-.054-.826-.054-10.208,0-20.415.01-30.623-.025-.793,0-1.018.391-1.278.969q-6.86,15.293-13.738,30.577c-.149.332-.274.674-.446,1.1h32.261Zm-91.078,24.019,2.5,3.618a10.915,10.915,0,0,0,9.512,4.979c4.686-.007,9.373,0,14.059,0,1.851,0,3.843.4,5.512-.163s3.07-2.016,4.483-3.2c1.707-1.434,3.47-2.5,5.829-2.109a1.156,1.156,0,0,0,.911-.556c.684-1.383,1.282-2.809,1.9-4.194-2.1-2.6-3.552-3-6.538-1.809-2.173.865-4.336,1.757-6.521,2.593a5.1,5.1,0,0,1-1.75.354c-5.1.027-10.2,0-15.306.031a2.572,2.572,0,0,1-2.353-1.259c-1.2-1.784-2.458-3.528-3.74-5.358Zm13.362-6.474c.795-2.768,1.537-5.333,2.255-7.9a.89.89,0,0,0-.127-.632c-.479-.759-.994-1.5-1.525-2.283-.656.516-1.259.969-1.838,1.45-.72.6-1.443,1.136-2.448.657s-1.071-1.344-1.066-2.3c.017-3.589.007-7.179.007-10.768v-1.263c-2.222,0-4.3-.03-6.367.005a11.951,11.951,0,0,0-10.239,17.777c1.7,2.969,3.851,5.682,5.8,8.509.031.045.134.038.284.077l8.3-6.927-6.522-9.33,2.973-2.068Zm33.6-.16c1.509-3.357,2.939-6.507,4.318-9.68a1.1,1.1,0,0,0-.305-.916c-3.561-3.6-7.1-7.213-10.758-10.714a5.426,5.426,0,0,0-2.966-1.459c-2.232-.22-4.5-.068-6.855-.068V143c0,3.7.047,7.4-.046,11.1a2.887,2.887,0,0,1-1,1.834c-.642.554-1.428.221-2.066-.284l-2.236-1.772c-.516.772-1.025,1.434-1.414,2.161a1.7,1.7,0,0,0-.109,1.147c.837,3.054,1.731,6.093,2.572,9.147.16.581.446.7,1.02.761a11.946,11.946,0,0,0,6.01-1.219,1.273,1.273,0,0,0,.922-1.413c-.046-3.286-.013-6.572-.023-9.858a1.843,1.843,0,0,1,1.25-1.943,1.814,1.814,0,0,1,2.1.7c.148.171.291.347.439.519Zm-30.618-43.343c-.752,1.506-1.464,2.915-2.155,4.333a1.551,1.551,0,0,0-.119.655c0,1.7-.065,3.4.024,5.093a7.265,7.265,0,0,0,6.525,6.72c3.437.343,6.952-1.864,7.612-5.239a55.806,55.806,0,0,0,.472-7.736C1251.383,125.61,1249.56,125.038,1245.065,121.205Zm17.631-8.552c-6.377,0-12.677-.081-18.972.046a4.607,4.607,0,0,0-4.268,3.389c-.723,2.032-.137,3.816,1.327,5.543.727-1.452,1.377-2.8,2.071-4.121a1.838,1.838,0,0,1,3.219-.53c.849.806,1.643,1.669,2.5,2.466a8.42,8.42,0,0,0,14.123-6.792Zm-11.452,54.364c-.83-2.917-1.626-5.739-2.451-8.552-.055-.189-.358-.452-.512-.431a.862.862,0,0,0-.618.45c-.831,2.81-1.623,5.632-2.448,8.532Zm-5.97-19.864-4.237-4.3v7.68Zm10.179-4.4-4.337,4.343,4.337,3.464Zm-9.9,8.842c.556.848,1.042,1.648,1.588,2.4a1.621,1.621,0,0,0,2.169,0c.546-.757,1.032-1.556,1.591-2.409-.781-.629-1.484-1.245-2.245-1.778a.934.934,0,0,0-.858,0C1247.041,150.343,1246.338,150.96,1245.557,151.591Zm-1.474-11.685,4.107,4.1,2.806-2.366A11.225,11.225,0,0,1,1244.084,139.906Zm25.752,23.409-3.371-3.926v4.468Zm-3.4,16.31c2.448.343,2.594.255,3.133-2Z" transform="translate(0 -66.743)" fill="#0d2380"/>
      <path id="Trazado_190370" data-name="Trazado 190370" d="M1400.733,42.251q-8.786,0-17.573,0c-3.706,0-5.953-2.23-5.957-5.9q-.009-8.617,0-17.235c0-3.628,2.248-5.894,5.85-5.9q17.743-.008,35.486,0A5.445,5.445,0,0,1,1424.381,19q.017,8.731,0,17.461a5.448,5.448,0,0,1-5.849,5.784Q1409.633,42.261,1400.733,42.251Zm.071-25.409q-8.733,0-17.466,0c-1.941,0-2.505.559-2.506,2.482q0,8.394,0,16.787c0,1.938.563,2.508,2.483,2.508q17.466,0,34.931,0c1.937,0,2.507-.566,2.509-2.485q0-8.394,0-16.787c0-1.938-.563-2.5-2.485-2.506Q1409.537,16.839,1400.8,16.842Z" transform="translate(-112.64)" fill="#0d2380"/>
      <path id="Trazado_190371" data-name="Trazado 190371" d="M1437.618,121.039q9.3,0,18.593,0c3.693,0,5.919,2.234,5.924,5.937q.01,7.71,0,15.421c-.006,3.612-2.261,5.862-5.885,5.863q-18.593.009-37.187,0c-3.688,0-5.919-2.243-5.923-5.938q-.008-7.71,0-15.421c.005-3.606,2.265-5.858,5.884-5.861Q1428.321,121.032,1437.618,121.039Zm.01,23.594q9.243,0,18.486,0c1.783,0,2.39-.6,2.391-2.373q.008-7.6,0-15.2c0-1.784-.6-2.389-2.373-2.389q-18.486,0-36.973,0c-1.788,0-2.387.6-2.389,2.371q-.007,7.543,0,15.086c0,1.937.563,2.5,2.485,2.505Q1428.441,144.637,1437.628,144.634Z" transform="translate(-137.689 -75.159)" fill="#0d2380"/>
      <path id="Trazado_190372" data-name="Trazado 190372" d="M1288.31,36.29c0,2.8,0,5.6,0,8.393,0,2.07-1.011,2.786-3,2.123q-13.044-4.354-26.088-8.708c-.981-.326-1.758-.783-1.743-1.922s.829-1.561,1.8-1.882q13-4.313,25.982-8.668c2.073-.692,3.047,0,3.05,2.158Q1288.316,32.037,1288.31,36.29Zm-22.869-.223v.277l19.184,6.39V38.007h-8.936V34.326h8.952V29.672Z" transform="translate(-29.192 -8.474)" fill="#0d2380"/>
      <path id="Trazado_190373" data-name="Trazado 190373" d="M1472.558,270.828a5.439,5.439,0,1,1-5.49,5.443A5.455,5.455,0,0,1,1472.558,270.828Zm-.1,7.244a1.808,1.808,0,1,0-1.754-1.831A1.828,1.828,0,0,0,1472.455,278.071Z" transform="translate(-175.28 -179.565)" fill="#0d2380"/>
      <path id="Trazado_190374" data-name="Trazado 190374" d="M1412.067,42.627a5.438,5.438,0,1,1-5.382-5.435A5.461,5.461,0,0,1,1412.067,42.627Zm-3.633.041a1.808,1.808,0,1,0-1.818,1.77A1.828,1.828,0,0,0,1408.433,42.668Z" transform="translate(-129.363 -16.716)" fill="#0d2380"/>
      <path id="Trazado_190375" data-name="Trazado 190375" d="M1449.267,70.811v-3.5h10.745v3.5Z" transform="translate(-162.873 -37.711)" fill="#0d2380"/>
      <path id="Trazado_190376" data-name="Trazado 190376" d="M1473.215,46.854V43.36h10.745v3.494Z" transform="translate(-179.565 -21.016)" fill="#0d2380"/>
      <path id="Trazado_190377" data-name="Trazado 190377" d="M1452.842,46.913h-3.482v-3.5h3.482Z" transform="translate(-162.937 -21.051)" fill="#0d2380"/>
      <path id="Trazado_190378" data-name="Trazado 190378" d="M1520.406,155.895a5.438,5.438,0,1,1,5.464-5.47A5.461,5.461,0,0,1,1520.406,155.895Zm1.83-5.348a1.809,1.809,0,1,0-1.87,1.719A1.831,1.831,0,0,0,1522.236,150.547Z" transform="translate(-208.686 -91.874)" fill="#0d2380"/>
      <path id="Trazado_190379" data-name="Trazado 190379" d="M1465.56,175.2v3.5h-16.189v-3.5Z" transform="translate(-162.945 -112.911)" fill="#0d2380"/>
      <path id="Trazado_190380" data-name="Trazado 190380" d="M1437.275,154.681v-3.492h8.931v3.492Z" transform="translate(-154.514 -96.175)" fill="#0d2380"/>
      <path id="Trazado_190381" data-name="Trazado 190381" d="M1486.378,151.277v3.479h-7.157v-3.479Z" transform="translate(-183.751 -96.236)" fill="#0d2380"/>
    </g>
  </g>
</svg>
