<svg id="Grupo_134732" data-name="Grupo 134732" xmlns="http://www.w3.org/2000/svg" width="67.791" height="200.655" viewBox="0 0 67.791 200.655">
  <g id="Grupo_134815" data-name="Grupo 134815">
    <path id="Trazado_192114" data-name="Trazado 192114" d="M953.89,195.243s-.839.873-1.709,1.9a23.237,23.237,0,0,1-4.349,3.1c-1.027.638-5.734,4.207-6.718,7.717s2.379,3.979,5.821,3.368,6.657-3.785,7.593-4.931a32.153,32.153,0,0,1,8.417-5.934c4.222-2.188,1.67-5.124,1.67-5.124Z" transform="translate(-928.102 -27.3)" fill="#afafaf"/>
    <path id="Trazado_192115" data-name="Trazado 192115" d="M980.7,204.3a13.107,13.107,0,0,1,.893,3.613c.2,2.032.483,6.438.589,7.727a10.9,10.9,0,0,1-2.122,7.461c-2.268,3.02-3.44,4.212-6.45,3.024s-2.946-6.248-2.413-8.849a72.323,72.323,0,0,0,.973-9.037,1.8,1.8,0,0,1,.173-1Z" transform="translate(-923.554 -25.926)" fill="#afafaf"/>
    <path id="Trazado_192116" data-name="Trazado 192116" d="M943.151,144.676s.637,23.205,6.044,35.521a89.654,89.654,0,0,1,4.385,23.751,4.612,4.612,0,0,0,.373,4.031c1.267,1.806,9.208,3.455,10.519-2.474s.806-17.035-.634-21.665.514-17.391.514-17.391,2.17,1.382,5.015,10.553a119.861,119.861,0,0,0,5.915,15.2c.979,2.534,1.88,18.069,1.259,25.656,0,0,6.429.912,8.292-2.161s2.481-18.973,2.009-24.04-2.59-21.307-2.3-26.332,1.338-9.1.189-14.123-35.074-16.168-35.074-16.168Z" transform="translate(-927.767 -36.436)" fill="#636363"/>
    <path id="Trazado_192117" data-name="Trazado 192117" d="M984.535,164.412c.293-5.024,1.338-9.1.189-14.123-.432-1.887-5.5-4.64-11.649-7.34-10.382-.948-23.551-2.049-24.457-1.911a33.879,33.879,0,0,0-4.745,1.654l-.726,1.076s.039,1.411.179,3.715c2.419.723,7.081-.024,7.081-.024a25.088,25.088,0,0,0,9.732,9.913c5.033,2.5,19.756,1.641,20.6,2.59s1.009,13.653.921,15.269,1.382,11.783,2.757,20.776c1.348,8.847-.7,19.6-.771,19.944a3.657,3.657,0,0,0,1.182-1.164c1.859-3.074,2.481-18.973,2.009-24.04S984.248,169.437,984.535,164.412Z" transform="translate(-927.768 -35.527)" fill="#a8a8a8"/>
    <path id="Trazado_192118" data-name="Trazado 192118" d="M955.448,77.917s-7.527,1.716-10.058,2.31a1.3,1.3,0,0,0-.921.795,30.751,30.751,0,0,0-1.183,16,79.62,79.62,0,0,1,1.16,17.263L940.964,132.4s-4.377,17.257-4,17.729,10.078,7.854,13.109,6.815,2.036-2.755,2.036-2.755,2.454,12.507,13.325,12.387,19.751-.085,21.6-4.479-.506-22.868-2.419-30.176-6.473-21.892-6.473-21.892l15.923-17.622L980.457,82s-3.251-6.041-4.586-6.809-2.035-.115-2.035-.115Z" transform="translate(-928.709 -45.574)" fill="#636363"/>
    <g id="Grupo_134814" data-name="Grupo 134814" transform="translate(8.572 104.833)">
      <path id="Trazado_192119" data-name="Trazado 192119" d="M950.22,143c.01.628-.356,1.562-2.31,2.232-2.11.723-7.282-2.419-10.673-4.785,1.693,1.406,10.02,7.486,12.8,6.537a4.971,4.971,0,0,0,1.365-.682A22.135,22.135,0,0,1,950.22,143Z" transform="translate(-937.236 -140.448)" fill="#aab2d3"/>
      <path id="Trazado_192120" data-name="Trazado 192120" d="M984.309,150.183c-1.948,4.637-11.318,4.6-22.791,4.722a12.264,12.264,0,0,1-7.131-2.056,11.589,11.589,0,0,0,8.408,3.274c10.871-.115,19.752-.085,21.6-4.479.6-1.443.758-4.407.622-7.991A19.207,19.207,0,0,1,984.309,150.183Z" transform="translate(-934.633 -139.962)" fill="#aab2d3"/>
    </g>
    <path id="Trazado_192121" data-name="Trazado 192121" d="M972.793,75.047s2.779,3.364-1.221,7.9a108.141,108.141,0,0,0-10.306,15.077c-2.255,3.908-4.337,5.989-5.519,9.351,0,0-.163-3.99-.324-10.15a133.2,133.2,0,0,1,.033-13.376C955.994,80.719,969.722,73.523,972.793,75.047Z" transform="translate(-925.927 -45.571)" fill="#f0f6ff"/>
    <path id="Trazado_192122" data-name="Trazado 192122" d="M963.122,88.731s-1.425.885-1.915.806a9.439,9.439,0,0,1-2.066-1.6s-3.946-.071-4.377-1.763a36.921,36.921,0,0,0-1.113-4.273c-.4-.879-2.1-5.1-2.116-6.807s.052-4.768-.691-6.388-1.734-17.813,13.9-17.357,10.78,16.7,10.78,16.7,1.142.485.45,2.576-.845,2.3-1.2,3.34a4.632,4.632,0,0,1-1.52,2.544L973,78.432a7.737,7.737,0,0,1-1.2,5.8C969.858,87.1,963.122,88.731,963.122,88.731Z" transform="translate(-926.652 -49.137)" fill="#fcd1c5"/>
    <path id="Trazado_192123" data-name="Trazado 192123" d="M946.051,79.679s-1.667.249-7.078,13.859c-3.02,7.595-7.679,15.46-8.666,21.1s-.438,11.678.678,12.1c1.073.409,20.514,7.682,26.6,9.979a.576.576,0,0,0,.74-.342.7.7,0,0,0,.026-.1l1.677-9.388-12.063-4.661a17.27,17.27,0,0,0-4.457-3.862s2.419-4.457,2.264-5.673.215-13.806-1.2-18.93S946.051,79.679,946.051,79.679Z" transform="translate(-929.794 -44.836)" fill="#636363"/>
    <path id="Trazado_192124" data-name="Trazado 192124" d="M951.32,111.232a24.146,24.146,0,0,0-2.073-1.276c-.413-.16-2.633-.921-3.058-1.107a8.36,8.36,0,0,0-2.256.032.705.705,0,0,0-.553.367c-.513.951-1.943,3.724-1.782,4.781,0,0,4.015,2.534,4.464,3.669l.642.137S949.4,112.066,951.32,111.232Z" transform="translate(-928.004 -40.419)" fill="#fcd1c5"/>
    <path id="Trazado_192125" data-name="Trazado 192125" d="M981.782,125.215c-.461-1.76-1.076-3.941-1.743-6.238L955.609,129.45a25.767,25.767,0,0,0,20.131,8.416,16.862,16.862,0,0,0,7.938-2.508A97.4,97.4,0,0,0,981.782,125.215Z" transform="translate(-925.877 -38.873)" fill="#d3d3d3"/>
    <path id="Trazado_192126" data-name="Trazado 192126" d="M993,90.084s-6.444.888-11.649,9.138a124.679,124.679,0,0,0-9,17.8l-.178,1.075a4.344,4.344,0,0,1-5,3.572,4.3,4.3,0,0,1-1.058-.318c-5.5-2.453-13.637-6.165-15.155-7.278a14,14,0,0,0-6.2,9.048c-1.06,5.068-.79,5.086-.79,5.086s21.694,10.125,30.073,10.026,19-27.642,20.179-33.342S996.688,91.694,993,90.084Z" transform="translate(-927.646 -43.257)" fill="#0d2380"/>
    <path id="Trazado_192127" data-name="Trazado 192127" d="M993,90.084s-6.444.888-11.649,9.138a124.679,124.679,0,0,0-9,17.8l-.178,1.075a4.344,4.344,0,0,1-5,3.572,4.3,4.3,0,0,1-1.058-.318c-5.5-2.453-13.637-6.165-15.155-7.278a14,14,0,0,0-6.2,9.048c-1.06,5.068-.79,5.086-.79,5.086s21.694,10.125,30.073,10.026,19-27.642,20.179-33.342S996.688,91.694,993,90.084Z" transform="translate(-927.646 -43.257)" fill="#636363"/>
    <path id="Trazado_192128" data-name="Trazado 192128" d="M965.9,119.106s2.737,2.559,3.928,1.159.84-1.556.84-1.556,2.461-.023,2.764-1.565,1.511-.728,1.581-2.447-1.992-1.366-1.992-1.366Z" transform="translate(-924.315 -39.735)" fill="#0d2380"/>
    <path id="Trazado_192129" data-name="Trazado 192129" d="M963.029,118.326s.753-.7,1.728-1.521,2.541-4.219,2.8-4.518,3.541-2.81,5.117-2.854.407,1.728.044,1.972-1.9,1.015-1.9,1.015-1.586,1.331-1.766,1.527,4.408-.317,5.136.131a1.242,1.242,0,0,1,.231,1.741,1.2,1.2,0,0,1-.187.2,1.817,1.817,0,0,1-.906.309,1.6,1.6,0,0,1-.86,2.02c-1.382.64-1.693.284-1.693.284s-.115,2.385-2.391,1.913Z" transform="translate(-924.75 -40.322)" fill="#fcd1c5"/>
    <path id="Trazado_192130" data-name="Trazado 192130" d="M950.545,60.716s-2.043,6.5,3.331,4.651S964.111,60.423,965.8,61.6c1.284.9,1.225,3.648,1.123,4.908a1.865,1.865,0,0,0,.323,1.212l1.593,2.315a1.778,1.778,0,0,1,.309.883l.115,1.612a.806.806,0,0,0,.759.75l.366.021a.807.807,0,0,0,.843-.667l.415-2.366s1.267-3.182,3.938-1.931c0,0,1.787-2.4,1.193-7.538S973.88,50.32,963.8,49.47,950.545,60.716,950.545,60.716Z" transform="translate(-926.703 -49.427)" fill="#aa8383"/>
    <path id="Trazado_192131" data-name="Trazado 192131" d="M964.519,89.037l-1.508-1.17a8.094,8.094,0,0,0-1.938,2.388c-.545,1.228,0,5.134,0,5.134l-.461.79-.567-1.037-.477-4.618s.513-3.414.562-3.5,2.908.3,2.908.3A5.891,5.891,0,0,1,964.519,89.037Z" transform="translate(-925.276 -43.724)" fill="#c4ccd6"/>
    <path id="Trazado_192132" data-name="Trazado 192132" d="M957.88,84.778a5.105,5.105,0,0,0-2.337.711s1.69.083,1.958.115S957.88,84.778,957.88,84.778Z" transform="translate(-925.886 -44.063)" fill="#c4ccd6"/>
    <path id="Trazado_192133" data-name="Trazado 192133" d="M960.752,85.136l2.7,2.534a6.145,6.145,0,0,0-3.037,3.215s-2.943.549-3.21-.516.007-3.751-.346-4.942S960.752,85.136,960.752,85.136Z" transform="translate(-925.689 -44.058)" fill="#afafaf"/>
    <path id="Trazado_192134" data-name="Trazado 192134" d="M957.54,89.585a15.074,15.074,0,0,1-1.053,3.127c-.549.914-1.111,1.938-1.111,1.938l.067,12.977s4.773-9.837,5.808-11.83c0,0-.16-4.738-.61-5.634S957.54,89.585,957.54,89.585Z" transform="translate(-925.912 -43.341)" fill="#afafaf"/>
    <path id="Trazado_192135" data-name="Trazado 192135" d="M969.957,72.929C966.821,81.975,958,84.659,958,84.659s1.577,1.532,2.066,1.6,1.916-.806,1.916-.806,6.734-1.635,8.68-4.492a7.738,7.738,0,0,0,1.2-5.8l.26-1.926A2.132,2.132,0,0,1,969.957,72.929Z" transform="translate(-925.513 -45.861)" fill="#e2b1a6"/>
    <path id="Trazado_192136" data-name="Trazado 192136" d="M977.377,82.123s-1.238,4.27-1.4,4.431a19.363,19.363,0,0,1-3.11-.182l1.433,2.715s-14.847,15.923-17.924,24.488a181.437,181.437,0,0,1,19.392-23.82l-1.749-2.649,3.035.593Z" transform="translate(-925.76 -44.465)" fill="#a8a8a8"/>
    <path id="Trazado_192137" data-name="Trazado 192137" d="M953.934,78.85l-.788.9.921.865L951.322,83.1s-.84,17.418,2.513,28.956c0,0-4.552-10.585-3.518-29.429l2.97-2.016-.972-.956Z" transform="translate(-926.703 -44.962)" fill="#a8a8a8"/>
    <path id="Trazado_192138" data-name="Trazado 192138" d="M962.117,162.837a1.122,1.122,0,0,1,.1.082l-3.846-4.094c1.776,2.5-.271,13.969-.483,16.592s2.055,8.047,2.9,14.4-.888,15.4-.894,15.422a4.888,4.888,0,0,0,2.338-3.34c1.313-5.934.806-17.035-.633-21.665S962.117,162.837,962.117,162.837Z" transform="translate(-925.532 -32.827)" fill="#e8e8e8"/>
    <path id="Trazado_192139" data-name="Trazado 192139" d="M974.048,136.672c8.378-.1,19-27.642,20.18-33.342.195-.949.393-1.952.576-2.966-.03.083-2.2,6.032-4.3,11.3-2.108,5.308-13.3,21.405-19.026,22.459-5.161.946-23.726-7.717-27.316-9.429-.326,1.934-.185,1.958-.185,1.958S965.671,136.771,974.048,136.672Z" transform="translate(-927.646 -41.698)" fill="#d3d3d3"/>
    <path id="Trazado_192140" data-name="Trazado 192140" d="M968.135,71.749a.807.807,0,0,0,.843-.667l.415-2.366s1.267-3.182,3.938-1.931c0,0,1.686-2.282,1.231-7.141-2.972,4.462-9.568,6.521-9.568,6.521l1.593,2.315a1.775,1.775,0,0,1,.308.883l.115,1.612a.806.806,0,0,0,.759.75Z" transform="translate(-924.452 -47.876)" fill="#936d6d"/>
  </g>
</svg>
