<svg xmlns="http://www.w3.org/2000/svg" width="615.607" height="419.604" viewBox="0 0 615.607 419.604">
  <g id="Grupo_134867" data-name="Grupo 134867" transform="translate(12461.94 13348)">
    <path id="Trazado_191891" data-name="Trazado 191891" d="M1232.372,53.554a4.468,4.468,0,0,0-4.536,0,1.629,1.629,0,0,0-.7,2.292l-70.244,46.233v58.358L1139.776,171.7l0,63.477-58.619,38.58-9.133-6.011,45.2-29.751V203.2l-.18-.119-51.393-33.824v-11.8l29.065-19.129a4.51,4.51,0,0,0,4.141-.213,1.655,1.655,0,0,0,0-2.985,4.468,4.468,0,0,0-4.536,0,1.614,1.614,0,0,0-.323,2.725l-29.065,19.129v12.745l.18.119,51.393,33.826v33.851L1082.351,260V245.5l15.657-10.3a4.51,4.51,0,0,0,4.141-.213,1.656,1.656,0,0,0,0-2.985,4.463,4.463,0,0,0-4.537,0,1.614,1.614,0,0,0-.323,2.725l-15.657,10.306v15.441l-10.331,6.8-12.215-8.039V233.986l23.04-15.165V201.369l-.179-.119-48.5-31.922a1.615,1.615,0,0,0-.323-2.725,4.465,4.465,0,0,0-4.537,0,1.655,1.655,0,0,0,0,2.985,4.509,4.509,0,0,0,4.141.213l48.682,32.039v16.508l-22.321,14.69v-17.4l-.18-.119-29.675-19.53a1.616,1.616,0,0,0-.322-2.726,4.471,4.471,0,0,0-4.538,0,1.656,1.656,0,0,0,0,2.986,4.516,4.516,0,0,0,4.141.213l29.855,19.648V258.76l-8.58-5.647-14.135,9.3-12.8-8.426V233.514l-.179-.119-33.85-22.278v-19.3a4.027,4.027,0,0,0,1.909-.6,1.655,1.655,0,0,0,0-2.985,4.465,4.465,0,0,0-4.537,0,1.655,1.655,0,0,0,0,2.985,4.024,4.024,0,0,0,1.91.6v19.777l.18.119,33.849,22.277v19.531l-55.088-36.257V178.828l29.877-19.664h27.418l.084-.055,47.047-30.963a4.509,4.509,0,0,0,4.141-.213,1.656,1.656,0,0,0,0-2.986,4.47,4.47,0,0,0-4.537,0,1.616,1.616,0,0,0-.324,2.726l-46.6,30.673H998.165l86.43-56.883a4.509,4.509,0,0,0,4.141-.213,1.656,1.656,0,0,0,0-2.986,4.476,4.476,0,0,0-4.537,0,1.615,1.615,0,0,0-.323,2.726l-117.55,77.367v39.378l.179.119,68.432,45.038-13.774,9.065L904.329,195.061V149.178l-.18-.119-39.732-26.15a1.615,1.615,0,0,0-.323-2.725,4.465,4.465,0,0,0-4.537,0,1.655,1.655,0,0,0,0,2.985,4.51,4.51,0,0,0,4.141.213l39.912,26.268v45.883l.18.119,116.654,76.776-13.113,8.63-115.54-76.044h-68.9l-43.065-28.343V133.116a3.742,3.742,0,0,0,1.246-.5,1.655,1.655,0,0,0,0-2.985,4.47,4.47,0,0,0-4.537,0,1.655,1.655,0,0,0,0,2.985,4.28,4.28,0,0,0,2.573.6v43.929l.18.119,43.41,28.571h68.9l97.536,64.192H969.515l-33.288-21.91H910.585l-.083.055-35.562,23.4a4.513,4.513,0,0,0-4.141.213,1.656,1.656,0,0,0,0,2.986,4.471,4.471,0,0,0,4.537,0,1.615,1.615,0,0,0,.322-2.726l35.12-23.114h25.256l33.289,21.91h21.054l16.237,10.686-35,23.035-9.953-6.55V280.823L936.38,264.184a1.615,1.615,0,0,0-.322-2.726,4.47,4.47,0,0,0-4.537,0,1.656,1.656,0,0,0,0,2.986,4.515,4.515,0,0,0,4.142.213L960.943,281.3v16.246L933.982,279.8H921.215l-.083.055L905.911,289.87a4.511,4.511,0,0,0-4.142.213,1.655,1.655,0,0,0,0,2.985,4.47,4.47,0,0,0,4.537,0,1.615,1.615,0,0,0,.322-2.726l14.779-9.726h12.382L970.9,305.039l-6.741,4.436,21.512,14.158L975.6,330.263H960.361l-10.9-7.174a1.614,1.614,0,0,0-.363-2.693,4.471,4.471,0,0,0-4.537,0,1.655,1.655,0,0,0,0,2.985,4.5,4.5,0,0,0,4.191.187l11.417,7.514h14.183l-25.689,16.906-60.442-39.78H844.73l-.084.055L820.161,324.38a4.512,4.512,0,0,0-4.142.213,1.656,1.656,0,0,0,0,2.986,4.476,4.476,0,0,0,4.537,0,1.615,1.615,0,0,0,.322-2.726l24.045-15.825h43.1l46.617,30.681H914.692l-19.5-12.836a1.615,1.615,0,0,0-.322-2.726,4.47,4.47,0,0,0-4.537,0,1.656,1.656,0,0,0,0,2.987,4.509,4.509,0,0,0,4.141.213L914.5,340.527h21.391l12.055,7.934-30.686,20.2H819.189L743,318.514a1.614,1.614,0,0,0-.322-2.725,4.468,4.468,0,0,0-4.537,0,1.655,1.655,0,0,0,0,2.985,4.511,4.511,0,0,0,4.142.213L819,369.477h97.018l-12.174,8.011H831.246l-.083.054-35.8,23.562a4.512,4.512,0,0,0-4.142.213,1.655,1.655,0,0,0,0,2.985,4.471,4.471,0,0,0,4.537,0,1.615,1.615,0,0,0,.322-2.726l35.359-23.27h72.6l.083-.055,82.268-54.146,9.134,6.012-86.495,56.925H845.771l-.083.055-76.405,50.286H663.432l-20.461-13.466v.946L663.24,438.2H769.476l.083-.054,47.948-31.558v18.678l-31.6,20.8a4.515,4.515,0,0,0-4.142.212,1.656,1.656,0,0,0,0,2.986,4.47,4.47,0,0,0,4.537,0,1.616,1.616,0,0,0,.323-2.726l31.6-20.8V406.227h-.165l27.9-18.366H909.22l.083-.054,86.935-57.217,10.374,6.829L837.926,448.438V468.5h.718V448.911l168.686-111.02,12.819,8.437L933.135,403.6v10.238l-15.427,10.154v23.547l-29.918,19.689a4.513,4.513,0,0,0-4.141.213,2.04,2.04,0,0,0-.867,1.06h6.256a1.839,1.839,0,0,0-.529-.8l29.918-19.69V424.462l14.709-9.682v37.709l8.681,5.714-15.643,10.3h1.436l14.926-9.823L957.46,468.5H958.9l-25.043-16.481V404.07l87.015-57.269,11.669,7.68-61.579,40.527a4.509,4.509,0,0,0-4.141.213,1.655,1.655,0,0,0,0,2.985,4.468,4.468,0,0,0,4.536,0,1.615,1.615,0,0,0,.323-2.726l61.578-40.528,11.266,7.415-73.659,48.478h-20.02a2.028,2.028,0,0,0-.878-1.083,4.469,4.469,0,0,0-4.536,0,1.656,1.656,0,0,0,0,2.986,4.468,4.468,0,0,0,4.536,0,2.038,2.038,0,0,0,.879-1.085h20.211l.084-.054,74.1-48.771,4.549,2.993,3.5-2.3,17.649,11.615v16.166l-14.58,9.6v-.044h-22.88l-.083.054-25.106,16.524a4.511,4.511,0,0,0-4.142.213,1.655,1.655,0,0,0,0,2.985,4.47,4.47,0,0,0,4.538,0,1.615,1.615,0,0,0,.322-2.726l24.664-16.233h21.51l-42.865,28.212a4.5,4.5,0,0,0-4.231.165,1.655,1.655,0,0,0,0,2.985,4.47,4.47,0,0,0,4.537,0,1.614,1.614,0,0,0,.395-2.667l53.466-35.188v7.779L1034.67,423.9v14.781l-25.9,17.046a4.514,4.514,0,0,0-4.142.212,1.656,1.656,0,0,0,0,2.986,4.468,4.468,0,0,0,4.536,0,1.615,1.615,0,0,0,.323-2.726l25.9-17.045V424.375l31.809-20.936v-8.723l4.456-2.932v-17.11l-17.65-11.615,11.6-7.633,36.315,23.9V406.5l-24.66,16.229a4.5,4.5,0,0,0-4.231.165,1.656,1.656,0,0,0,0,2.986,4.472,4.472,0,0,0,4.537,0,1.615,1.615,0,0,0,.4-2.667l23.957-15.766v21.949l-18.927,12.456V468.5h.719V442.32l18.208-11.984V468.5h.718l0-89.646-36.316-23.9,13.023-8.571,47.464,31.239,0,74.4,22.816,15.017V468.5h.718V466.56l-22.816-15.016,0-74.4-47.464-31.239,9.653-6.353,64.056,42.16v63.477l35.414,23.307h1.437l-36.132-23.779V381.241l-64.057-42.158,15.644-10.3,106.576,70.143v31.587l36.525,24.039v-.945l-35.807-23.567V398.457L1153.424,359h47.409l48.344,31.818v-.946l-48.152-31.691H1152.18l-45.386-29.87,18.182-11.965,39.012,25.677h62.641l22.547,14.839v-.946l-4.942-3.252h4.942v-.819h-6.186l-16.168-10.641h-62.641l-10.917-7.186H1179.9l.083-.055,13.359-8.791h55.656l.184.121v-.94h-54.595l15.038-9.9a4.511,4.511,0,0,0,4.142-.213,1.655,1.655,0,0,0,0-2.985,4.47,4.47,0,0,0-4.537,0,1.615,1.615,0,0,0-.322,2.726L1179.7,333.2H1152.02l-26.327-17.327,9.729-6.4-6.259-4.12h18.2l23.788,15.654a1.615,1.615,0,0,0,.322,2.726,4.469,4.469,0,0,0,4.537,0,1.655,1.655,0,0,0,0-2.985,4.512,4.512,0,0,0-4.142-.213l-24.313-16h-19.634l-13.313-8.762,8.188-5.388h14.523l12.768-8.4h9.528l21.517,14.162a1.618,1.618,0,0,0,.266,2.772,4.476,4.476,0,0,0,4.538,0,1.656,1.656,0,0,0,0-2.986,4.524,4.524,0,0,0-4.073-.25L1159.8,281.162h-9.913l-12.768,8.4h-13.086l26.174-17.227h14.133l29.459,19.388h55.375v-.819h-55.183l-29.459-19.388h-14.517l-.084.055L1113.888,295.3l-9.459-6.225,40.733-26.808h28.73l23.7,15.6h51.583v-.819h-51.391l-22.457-14.781h73.848v-.819H1144.97l-.083.055-41.176,27.1-10.745-7.073,56.8-37.383h99.411v-.819h-72.443l72.443-47.679V194.7L1175.3,243.327h-25.01l53.855-35.445V200.07l25.769-16.959a4.509,4.509,0,0,0,4.141-.213,1.655,1.655,0,0,0,0-2.985,4.471,4.471,0,0,0-4.538,0,1.615,1.615,0,0,0-.323,2.726l-14.032,9.235V170.464l34.013-22.385v-.947l-34.732,22.86v22.353l-11.019,7.253v7.812l-54.3,35.735.181.356-57.063,37.556-10.374-6.828,58.619-38.581,0-63.477,108.683-71.529V99.7l-91.57,60.267V102.552l70.085-46.126c.049.038.088.079.143.115a4.468,4.468,0,0,0,4.536,0A1.656,1.656,0,0,0,1232.372,53.554Zm-98.386,255.918-84.2,55.416-84.2-55.414,84.2-55.416Z" transform="translate(-13095.51 -13396.895)" fill="#afafaf" opacity="0.8"/>
    <path id="Trazado_191892" data-name="Trazado 191892" d="M1324.077,145.715l-17.062,9.852v31.74l-151.565,87.5-11.517-6.649,78.183-45.139v-8.07l13.861-8V188.39l26.879-15.52a4.563,4.563,0,0,0,3.722-.167,1.243,1.243,0,0,0,0-2.354,4.509,4.509,0,0,0-4.077,0c-1.015.586-1.106,1.5-.29,2.148l-26.88,15.52v18.56l-13.215,7.63V184.487l-.161-.093-7.639-4.41,45.831-26.461V123.765l32.559-18.8a4.56,4.56,0,0,0,3.723-.167,1.243,1.243,0,0,0,0-2.354,4.509,4.509,0,0,0-4.077,0c-1.015.586-1.106,1.5-.29,2.148l-32.559,18.8v29.758l-45.831,26.46-74.511-43.02V103.3a3.991,3.991,0,0,0,1.716-.469,1.243,1.243,0,0,0,0-2.354,4.509,4.509,0,0,0-4.077,0,1.243,1.243,0,0,0,0,2.354,3.99,3.99,0,0,0,1.715.469v33.66l.161.093,44.819,25.876H1150.83l-26.41-15.249c.815-.651.724-1.562-.29-2.148a4.509,4.509,0,0,0-4.077,0,1.243,1.243,0,0,0,0,2.354,4.559,4.559,0,0,0,3.722.167l26.882,15.521h33.938v-.009l36.875,21.29V222.65l-78.183,45.139-10.483-6.052,55.327-31.945a4.557,4.557,0,0,0,3.721-.167,1.243,1.243,0,0,0,0-2.354,4.505,4.505,0,0,0-4.077,0c-1.015.585-1.106,1.5-.29,2.148l-55.328,31.944-10.122-5.844,66.184-38.21H1206.2a1.654,1.654,0,0,0,.789.855,4.508,4.508,0,0,0,4.077,0,1.243,1.243,0,0,0,0-2.354,4.509,4.509,0,0,0-4.077,0,1.663,1.663,0,0,0-.789.855h-18.161l-.075.044-66.581,38.439-4.086-2.359-.161.092-2.983,1.723-15.857-9.155V232.708l13.1-7.565v.035h20.557l22.632-13.067a4.557,4.557,0,0,0,3.721-.168,1.242,1.242,0,0,0,0-2.353,4.507,4.507,0,0,0-4.076,0c-1.016.586-1.107,1.5-.291,2.148l-22.159,12.795h-19.324l38.512-22.236a4.544,4.544,0,0,0,3.8-.13,1.242,1.242,0,0,0,0-2.353,4.5,4.5,0,0,0-4.077,0c-.99.571-1.108,1.455-.356,2.1L1102.3,229.65V223.52l28.581-16.5V195.368l23.271-13.434a4.561,4.561,0,0,0,3.721-.168,1.242,1.242,0,0,0,0-2.353,4.5,4.5,0,0,0-4.077,0c-1.015.585-1.106,1.5-.29,2.148L1130.24,195v11.65l-28.582,16.5v6.877l-4,2.312v13.486l15.856,9.155-10.419,6.016-32.63-18.839V220.737l22.156-12.791a4.541,4.541,0,0,0,3.8-.13,1.242,1.242,0,0,0,0-2.353,4.506,4.506,0,0,0-4.076,0c-.991.571-1.108,1.455-.356,2.1l-21.525,12.427v-17.3l17.007-9.817V160.33a4.006,4.006,0,0,0,1.716-.47,1.243,1.243,0,0,0,0-2.354,4.508,4.508,0,0,0-4.077,0,1.243,1.243,0,0,0,0,2.354,4.007,4.007,0,0,0,1.716.47V192.5l-16.361,9.444V144.562h-.645l0,97.964,32.628,18.839-11.7,6.755L1048.1,243.5V184.859l-20.5-11.836V150.967l-18.1-10.451c.815-.651.724-1.563-.29-2.149a4.508,4.508,0,0,0-4.077,0,1.243,1.243,0,0,0,0,2.354,4.557,4.557,0,0,0,3.721.167l18.1,10.451V173.4l20.5,11.835v58.64l42.644,24.622-8.671,5.007-57.555-33.23V190.239l-.161-.093-50.945-29.413c.817-.651.726-1.563-.29-2.149a4.506,4.506,0,0,0-4.076,0,1.242,1.242,0,0,0,0,2.354,4.561,4.561,0,0,0,3.721.168l51.106,29.505v50.032l.161.093,57.392,33.137-14.054,8.114L970.968,226.7V201.806l-.161-.093L890.64,155.427c.815-.651.725-1.563-.29-2.148a4.5,4.5,0,0,0-4.077,0,1.242,1.242,0,0,0,0,2.353,4.557,4.557,0,0,0,3.721.168l80.329,46.377v24.9l.161.093,53.7,31H981.588L932.278,229.7c.817-.651.726-1.563-.29-2.149a4.506,4.506,0,0,0-4.076,0,1.242,1.242,0,0,0,0,2.354,4.557,4.557,0,0,0,3.721.167l49.783,28.743H1025.3l40.78,23.544-16.335,9.432-35.052-20.238H958.41l-64.015-36.959H858.882L844.4,226.235c.815-.651.724-1.562-.29-2.148a4.508,4.508,0,0,0-4.077,0,1.243,1.243,0,0,0,0,2.354,4.561,4.561,0,0,0,3.721.167l14.952,8.632h35.513l48.371,27.927H900.812l-20.121-11.617c.815-.651.724-1.563-.29-2.149a4.509,4.509,0,0,0-4.077,0,1.243,1.243,0,0,0,0,2.354,4.562,4.562,0,0,0,3.721.168l20.594,11.889h43.072l14.526,8.386h56.282l9.808,5.663H1000.4l-.074.043-12,6.93H938.317l-14.107-8.144H895.923a1.652,1.652,0,0,0-.789-.853,4.506,4.506,0,0,0-4.076,0,1.242,1.242,0,0,0,0,2.353,4.5,4.5,0,0,0,4.076,0,1.652,1.652,0,0,0,.789-.853h28.114l14.106,8.144h49.062l-13.512,7.8a4.559,4.559,0,0,0-3.722.167,1.243,1.243,0,0,0,0,2.354,4.509,4.509,0,0,0,4.077,0c1.015-.586,1.106-1.5.291-2.148l26.234-15.148h24.872l23.653,13.657-8.741,5.046.485.28,5.139,2.967h-16.349l-21.372-12.34c.815-.651.724-1.563-.291-2.148a4.5,4.5,0,0,0-4.076,0,1.242,1.242,0,0,0,0,2.353,4.559,4.559,0,0,0,3.72.168L1029.46,301.1h17.64l11.962,6.906-7.356,4.248h-13.048l-.075.043-11.4,6.58h-8.561l-19.333-11.161c.867-.653.8-1.588-.238-2.185a4.5,4.5,0,0,0-4.077,0,1.242,1.242,0,0,0,0,2.353,4.571,4.571,0,0,0,3.658.2l19.818,11.441h8.906l.075-.043,11.4-6.58h11.756l-23.516,13.577h-12.7L987.906,311.2H908.087l-49.51-28.584c.857-.652.782-1.582-.249-2.178a4.506,4.506,0,0,0-4.076,0,1.242,1.242,0,0,0,0,2.354,4.561,4.561,0,0,0,3.669.191l49.991,28.863h79.819l26.469,15.28h13.045l.074-.043,32.391-18.7,8.5,4.905-36.6,21.131H1005.8l-21.3-12.3H929.842a1.652,1.652,0,0,0-.789-.853,4.506,4.506,0,0,0-4.076,0,1.242,1.242,0,0,0,0,2.353,4.5,4.5,0,0,0,4.076,0,1.653,1.653,0,0,0,.789-.853h54.483l20.177,11.65H927.484l-.074.043-73.4,42.377a4.561,4.561,0,0,0-3.721.167,1.242,1.242,0,0,0,0,2.354,4.506,4.506,0,0,0,4.076,0c1.015-.586,1.107-1.5.291-2.148l73-42.147h104.123l.075-.043,37-21.36,9.654,5.573L1027.471,348.7H937.607l-.074.043-78.692,45.433H767.153l-53.471-30.872c.815-.651.724-1.562-.291-2.148a4.506,4.506,0,0,0-4.076,0,1.242,1.242,0,0,0,0,2.354,4.556,4.556,0,0,0,3.721.167l53.944,31.145h92.034l.076-.044,78.69-45.433h65.458L907.122,404.84v14.608L868.78,441.584a4.554,4.554,0,0,0-3.72.168,1.242,1.242,0,0,0,0,2.353,4.5,4.5,0,0,0,4.076,0c1.016-.586,1.106-1.5.29-2.148l38.34-22.135V405.213l96.765-55.866H1027l-48.386,27.937v6.157L955.46,396.808a4.557,4.557,0,0,0-3.721.167,1.242,1.242,0,0,0,0,2.354,4.506,4.506,0,0,0,4.076,0c1.016-.586,1.107-1.5.291-2.149l12.606-7.278v16.873l-72.83,42.049a4.561,4.561,0,0,0-3.721.167,1.242,1.242,0,0,0,0,2.354,4.507,4.507,0,0,0,4.076,0c1.016-.586,1.107-1.5.29-2.148l72.832-42.049V389.529l9.9-5.716v-6.157l48.784-28.166-.161-.28,51.271-29.6,9.32,5.381L1035.8,355.4V405.43l-96.871,55.927h1.292l80.2-46.3V460.3l-1.828,1.055h1.292l1.18-.682v-46l15.376-8.876V355.771l52.669-30.409,8.206,4.738-40.614,23.448v27.428l.161.093,46.177,26.66v9.3l-26.116,15.076a4.563,4.563,0,0,0-3.72.168,1.243,1.243,0,0,0,0,2.354,4.509,4.509,0,0,0,4.077,0c1.015-.586,1.106-1.5.29-2.149l26.115-15.076V407.355l-.161-.093L1057.356,380.6V353.921l30.687-17.716V347.63l-14.069,8.122a4.554,4.554,0,0,0-3.72.168,1.242,1.242,0,0,0,0,2.353,4.5,4.5,0,0,0,4.076,0c1.015-.586,1.106-1.5.291-2.148L1088.689,348V335.832l9.282-5.359,10.975,6.336v19.9l-20.7,11.952v13.758l.162.093,43.579,25.16c-.815.651-.724,1.563.29,2.149a4.505,4.505,0,0,0,4.077,0,1.242,1.242,0,0,0,0-2.353,4.557,4.557,0,0,0-3.721-.168l-43.741-25.253V369.033l20.055-11.578V371.17l26.823,15.487c-.814.651-.723,1.562.292,2.148a4.508,4.508,0,0,0,4.077,0,1.242,1.242,0,0,0,0-2.353,4.552,4.552,0,0,0-3.721-.168L1109.591,370.8V337.182l7.707,4.45.162-.092L1130,334.3l11.5,6.641v16.14l30.574,17.652v15.214a3.99,3.99,0,0,0-1.716.47,1.242,1.242,0,0,0,0,2.353,4.5,4.5,0,0,0,4.077,0,1.242,1.242,0,0,0,0-2.353,3.991,3.991,0,0,0-1.716-.47V374.36l-30.576-17.652V341.314l49.5,28.577v30.292l-26.845,15.5h-24.635l-.074.043-42.272,24.407a4.557,4.557,0,0,0-3.721.167,1.243,1.243,0,0,0,0,2.354,4.508,4.508,0,0,0,4.077,0c1.015-.586,1.106-1.5.29-2.148l41.874-24.177h23.342l-77.656,44.835a4.557,4.557,0,0,0-3.721.168c-.015.009-.024.02-.039.028h4.715l105.311-60.8V369.518l-.161-.093-61.485-35.5,12.373-7.144L1248,387.39v36.165l35.86,20.7c-.815.651-.724,1.562.29,2.148a4.508,4.508,0,0,0,4.077,0,1.243,1.243,0,0,0,0-2.354,4.561,4.561,0,0,0-3.721-.168l-35.861-20.7V387.016l-.162-.093-104.812-60.514,11.78-6.8,103.813,59.937h61.91l2.906,1.677v-.745l-2.732-1.578h-61.91L1171.8,328.3h17.626l29.91,17.268h23.038l.075-.043L1274.4,327.08a4.557,4.557,0,0,0,3.721-.168,1.243,1.243,0,0,0,0-2.354,4.509,4.509,0,0,0-4.077,0c-1.015.586-1.106,1.5-.29,2.149L1242.2,344.924H1219.51l-29.91-17.268h-18.917l-14.588-8.423,31.446-18.155,8.942,5.162v13.551l22.716,13.115c-.815.651-.724,1.562.29,2.148a4.509,4.509,0,0,0,4.077,0,1.243,1.243,0,0,0,0-2.354,4.562,4.562,0,0,0-3.721-.167l-22.716-13.115V306.614l24.224,13.986h11.471l.075-.043,13.677-7.9a4.562,4.562,0,0,0,3.72-.168,1.243,1.243,0,0,0,0-2.354,4.508,4.508,0,0,0-4.077,0c-1.015.586-1.106,1.5-.29,2.149l-13.278,7.666h-11.125l-33.34-19.249,6.056-3.5-.484-.281-18.845-10.879,9.05-5.225h13.686l9.793,5.655c-.78.648-.675,1.544.327,2.123a4.5,4.5,0,0,0,4.076,0,1.242,1.242,0,0,0,0-2.353,4.546,4.546,0,0,0-3.764-.147l-10.259-5.922h-12.742l23.08-13.326,54.306,31.354h39.076l.075-.043,22-12.7a4.251,4.251,0,0,0,.455.127v-2.97a3.5,3.5,0,0,0-.811.321c-1.015.586-1.106,1.5-.29,2.148l-21.6,12.473h-38.73l-41.882-24.181h17.926L1256.21,283.5c-.815.651-.724,1.563.29,2.148a4.5,4.5,0,0,0,4.077,0,1.242,1.242,0,0,0,0-2.353,4.557,4.557,0,0,0-3.721-.168l-18-10.39h-19.217l-10.833-6.255,27.57-15.917h87.7v-.646H1237.5l10.936-6.314h65.227l.075-.043,10.341-5.971v-.746l-10.589,6.113h-65.226l-.075.043-73.919,42.677-8.205-4.737,77.713-44.867h56.835l.075-.043,23.392-13.506v-.745l-23.639,13.648H1243.6l-.075.043-78.112,45.1-9.32-5.381,151.563-87.506v-31.74l16.417-9.479ZM1192.953,297.209,1117.3,340.887l-75.65-43.676,75.652-43.678Z" transform="translate(-13170.41 -13389.754)" fill="#fff2bf" opacity="0.1"/>
    <g id="Grupo_134800" data-name="Grupo 134800" transform="translate(-12219.764 -13173.615)" opacity="0.67">
      <path id="Trazado_192093" data-name="Trazado 192093" d="M1064.43,369.063,918.739,284.948l145.686-84.112,145.69,84.115L1071.259,365.12Z" transform="translate(-918.739 -200.836)" fill="#e8e8e8" opacity="0.477" style="isolation: isolate"/>
    </g>
    <g id="Grupo_134801" data-name="Grupo 134801" transform="translate(-12220.078 -13173.93)">
      <path id="Trazado_192094" data-name="Trazado 192094" d="M1064.47,369.416a.3.3,0,0,1-.156-.042L918.624,285.261a.313.313,0,0,1-.115-.428.309.309,0,0,1,.115-.116L1064.309,200.6a.317.317,0,0,1,.313,0l145.69,84.115a.314.314,0,0,1,0,.544l-145.685,84.112A.3.3,0,0,1,1064.47,369.416ZM919.408,284.989l145.062,83.749,145.058-83.751-145.062-83.748Z" transform="translate(-918.466 -200.563)" fill="#d3d3d3"/>
    </g>
    <path id="Trazado_191914" data-name="Trazado 191914" d="M986.729,281.252a.309.309,0,0,1-.153-.042L961.84,266.8a.3.3,0,0,1,0-.525l56.911-32.487a.3.3,0,0,1,.3,0l9.228,5.376a.3.3,0,0,1,.108.415.3.3,0,0,1-.415.109L1018.9,234.4l-56.3,32.139,24.282,14.148a.3.3,0,0,1-.153.566Z" transform="translate(-13131.985 -13369.458)" fill="#e8e8e8"/>
    <path id="Trazado_191915" data-name="Trazado 191915" d="M1066.154,324.446a.3.3,0,0,1-.153-.041l-22.612-13.177a.3.3,0,1,1,.306-.524l22.46,13.087,53.381-30.745-11.778-6.862a.3.3,0,1,1,.305-.524l12.232,7.125a.306.306,0,0,1,0,.526l-53.988,31.095A.313.313,0,0,1,1066.154,324.446Z" transform="translate(-13119.611 -13361.587)" fill="#e8e8e8"/>
    <path id="Trazado_191916" data-name="Trazado 191916" d="M951.423,335.746a.282.282,0,0,1-.141-.526l25.976-14.986,10.506-9.329,28.193-16.283a.282.282,0,1,1,.283.488L988.1,311.359l-10.507,9.33-26.025,15.019A.281.281,0,0,1,951.423,335.746Z" transform="translate(-13133.586 -13360.227)" fill="#e8e8e8"/>
    <path id="Trazado_191917" data-name="Trazado 191917" d="M947.406,332.935a.282.282,0,0,1-.142-.526L950,330.825a.282.282,0,0,1,.283.488l-2.735,1.584A.288.288,0,0,1,947.406,332.935Z" transform="translate(-13134.196 -13354.732)" fill="#42e8e0"/>
    <path id="Trazado_191918" data-name="Trazado 191918" d="M943.137,335.391a.282.282,0,0,1-.142-.526l2.735-1.584a.282.282,0,1,1,.283.488l-2.735,1.584A.288.288,0,0,1,943.137,335.391Z" transform="translate(-13134.844 -13354.36)" fill="#42e8e0"/>
    <g id="Grupo_134768" data-name="Grupo 134768" transform="translate(-12267.605 -13055.981)">
      <g id="Grupo_134760" data-name="Grupo 134760" transform="translate(0 33.647)" opacity="0.3">
        <path id="Trazado_192241" data-name="Trazado 192241" d="M951.974,357.645V351.13l-1.8-1c-.509,3.075-4.128,5.1-7.153,5.523l-20.6,12.048-8.993,3.248-28.7-14.813.663-.384c-2.453-1.145-3.774-3.766-5.1-6.158l-1.933,1.153-1.148.322v6.682h0c0,1.277.842,2.553,2.526,3.525l28.756,16.6a13.513,13.513,0,0,0,12.212,0l28.756-16.6c1.656-.957,2.5-2.208,2.525-3.463,0-.056,0-.113,0-.168Z" transform="translate(-877.201 -329.545)" fill="#e8e8e8"/>
        <path id="Trazado_192242" data-name="Trazado 192242" d="M938.094,355.568l-20.6,12.048-7.827,2.826v8.81a12.485,12.485,0,0,0,6.107-1.458l28.756-16.6c1.656-.957,2.5-2.208,2.525-3.463,0-.056,0-.113,0-.168h0v-6.515l-1.647-.916h-.172C944.668,353.159,941.091,355.15,938.094,355.568Z" transform="translate(-872.275 -329.463)" fill="#e8e8e8" opacity="0.3"/>
        <g id="Grupo_134758" data-name="Grupo 134758" transform="translate(0.001)">
          <path id="Trazado_192243" data-name="Trazado 192243" d="M908.482,373.9l-28.756-16.6c-3.367-1.944-3.367-5.107,0-7.051l28.754-16.6a13.514,13.514,0,0,1,12.212,0l28.757,16.6c3.366,1.944,3.366,5.107,0,7.05l-28.756,16.6A13.514,13.514,0,0,1,908.482,373.9Z" transform="translate(-877.202 -332.186)" fill="#e8e8e8"/>
        </g>
        <g id="Grupo_134759" data-name="Grupo 134759" transform="translate(0.001)" opacity="0.3">
          <path id="Trazado_192244" data-name="Trazado 192244" d="M908.482,373.9l-28.756-16.6c-3.367-1.944-3.367-5.107,0-7.051l28.754-16.6a13.514,13.514,0,0,1,12.212,0l28.757,16.6c3.366,1.944,3.366,5.107,0,7.05l-28.756,16.6A13.514,13.514,0,0,1,908.482,373.9Z" transform="translate(-877.202 -332.186)" fill="#e8e8e8"/>
        </g>
      </g>
      <g id="Grupo_134767" data-name="Grupo 134767">
        <g id="Grupo_134766" data-name="Grupo 134766">
          <path id="Trazado_192245" data-name="Trazado 192245" d="M914.471,364.461a11.085,11.085,0,0,1-5.42-1.295l-28.756-16.6a3.474,3.474,0,0,1,0-6.549l28.755-16.6a12,12,0,0,1,10.84,0l28.756,16.6a3.473,3.473,0,0,1,0,6.549l-28.756,16.6A11.083,11.083,0,0,1,914.471,364.461Zm0-41.845a10.571,10.571,0,0,0-5.168,1.235l-28.756,16.6a2.983,2.983,0,0,0,0,5.676l28.756,16.6a11.429,11.429,0,0,0,10.334,0l28.756-16.6a2.984,2.984,0,0,0,0-5.676l-28.756-16.6A10.571,10.571,0,0,0,914.469,322.616Z" transform="translate(-877.083 -300.066)" fill="#e8e8e8"/>
          <g id="Grupo_134765" data-name="Grupo 134765">
            <path id="Trazado_192246" data-name="Trazado 192246" d="M951.974,336.469v-9.846l-1.8-1c-.509,3.074-4.128,5.1-7.153,5.521l-20.6,12.05-8.993,3.247-28.7-14.813.663-.382c-2.453-1.146-3.774-3.767-5.1-6.158l-1.933,1.152-1.148.322v10.014h0c0,1.276.842,2.552,2.526,3.524l28.756,16.6a13.514,13.514,0,0,0,12.212,0l28.756-16.6c1.656-.956,2.5-2.208,2.525-3.463,0-.056,0-.112,0-.168Z" transform="translate(-877.201 -299.616)" fill="#e8e8e8" opacity="0.4"/>
            <g id="Grupo_134764" data-name="Grupo 134764">
              <g id="Grupo_134763" data-name="Grupo 134763">
                <path id="Trazado_192247" data-name="Trazado 192247" d="M951.974,328.431v-6.515l-1.8-1c-.509,3.075-4.128,5.1-7.153,5.521l-20.6,12.05-8.993,3.247-28.7-14.811.663-.384c-2.453-1.146-3.774-3.767-5.1-6.158l-1.933,1.152-1.148.324v6.681h0c0,1.276.842,2.553,2.526,3.526l28.756,16.6a13.521,13.521,0,0,0,12.212,0l28.756-16.6c1.656-.956,2.5-2.207,2.525-3.463,0-.055,0-.112,0-.168Z" transform="translate(-877.201 -300.331)" fill="#e8e8e8"/>
                <path id="Trazado_192248" data-name="Trazado 192248" d="M938.094,326.353l-20.6,12.05-7.827,2.826v8.809a12.485,12.485,0,0,0,6.107-1.457l28.756-16.6c1.656-.956,2.5-2.207,2.525-3.463,0-.055,0-.112,0-.168l0,0v-6.515l-1.647-.916h-.172C944.668,323.944,941.091,325.936,938.094,326.353Z" transform="translate(-872.275 -300.249)" fill="#e8e8e8" opacity="0.3"/>
                <g id="Grupo_134761" data-name="Grupo 134761" transform="translate(0.001)">
                  <path id="Trazado_192249" data-name="Trazado 192249" d="M908.482,344.683l-28.756-16.6c-3.367-1.944-3.367-5.107,0-7.051l28.754-16.6a13.52,13.52,0,0,1,12.213,0l28.756,16.6c3.366,1.944,3.366,5.107,0,7.051l-28.756,16.6A13.513,13.513,0,0,1,908.482,344.683Z" transform="translate(-877.202 -302.972)" fill="#e8e8e8"/>
                </g>
                <g id="Grupo_134762" data-name="Grupo 134762" transform="translate(0.003 21.99)">
                  <path id="Trazado_192250" data-name="Trazado 192250" d="M949.449,325.185l-28.756,16.6a13.513,13.513,0,0,1-12.212,0l-28.755-16.6a4.539,4.539,0,0,1-2.495-3.12c-.2,1.409.632,2.856,2.495,3.931l28.755,16.6a13.514,13.514,0,0,0,12.212,0L949.449,326c1.861-1.076,2.692-2.523,2.495-3.931A4.539,4.539,0,0,1,949.449,325.185Z" transform="translate(-877.203 -322.065)" fill="#e8e8e8"/>
                </g>
              </g>
            </g>
          </g>
        </g>
      </g>
    </g>
    <g id="Grupo_134789" data-name="Grupo 134789" transform="translate(-12001.798 -13055.809)">
      <g id="Grupo_134781" data-name="Grupo 134781" transform="translate(0 33.647)" opacity="0.3">
        <path id="Trazado_192261" data-name="Trazado 192261" d="M1182.761,357.795v-6.514l-1.8-1c-.509,3.075-4.128,5.1-7.153,5.523l-20.6,12.048-8.993,3.248-28.7-14.813.663-.382c-2.453-1.146-3.774-3.767-5.1-6.158l-1.933,1.152-1.148.322V357.9h0c0,1.276.842,2.553,2.526,3.524l28.755,16.6a13.513,13.513,0,0,0,12.212,0l28.756-16.6c1.656-.956,2.5-2.208,2.525-3.463,0-.056,0-.112,0-.168Z" transform="translate(-1107.988 -329.695)" fill="#e8e8e8"/>
        <path id="Trazado_192262" data-name="Trazado 192262" d="M1168.881,355.718l-20.6,12.048-7.827,2.826v8.81a12.484,12.484,0,0,0,6.107-1.458l28.755-16.6c1.656-.956,2.5-2.208,2.525-3.463,0-.056,0-.112,0-.168h0V351.2l-1.647-.917h-.172C1175.455,353.309,1171.878,355.3,1168.881,355.718Z" transform="translate(-1103.062 -329.613)" fill="#e8e8e8" opacity="0.3"/>
        <g id="Grupo_134779" data-name="Grupo 134779" transform="translate(0.001)">
          <path id="Trazado_192263" data-name="Trazado 192263" d="M1139.269,374.049l-28.755-16.6c-3.367-1.944-3.367-5.107,0-7.051l28.754-16.6a13.514,13.514,0,0,1,12.212,0l28.757,16.6c3.367,1.944,3.367,5.107,0,7.051l-28.756,16.6A13.514,13.514,0,0,1,1139.269,374.049Z" transform="translate(-1107.989 -332.336)" fill="#e8e8e8"/>
        </g>
        <g id="Grupo_134780" data-name="Grupo 134780" transform="translate(0.001)" opacity="0.3">
          <path id="Trazado_192264" data-name="Trazado 192264" d="M1139.269,374.049l-28.755-16.6c-3.367-1.944-3.367-5.107,0-7.051l28.754-16.6a13.514,13.514,0,0,1,12.212,0l28.757,16.6c3.367,1.944,3.367,5.107,0,7.051l-28.756,16.6A13.514,13.514,0,0,1,1139.269,374.049Z" transform="translate(-1107.989 -332.336)" fill="#e8e8e8"/>
        </g>
      </g>
      <g id="Grupo_134788" data-name="Grupo 134788">
        <g id="Grupo_134787" data-name="Grupo 134787">
          <path id="Trazado_192265" data-name="Trazado 192265" d="M1145.258,364.613a11.084,11.084,0,0,1-5.42-1.295l-28.756-16.6a3.474,3.474,0,0,1,0-6.55l28.756-16.6a12,12,0,0,1,10.84,0l28.755,16.6a3.474,3.474,0,0,1,0,6.55l-28.755,16.6A11.083,11.083,0,0,1,1145.258,364.613Zm0-41.845a10.57,10.57,0,0,0-5.168,1.234l-28.756,16.6a2.984,2.984,0,0,0,0,5.677l28.756,16.6a11.429,11.429,0,0,0,10.335,0l28.756-16.6a2.984,2.984,0,0,0,0-5.677L1150.424,324A10.571,10.571,0,0,0,1145.256,322.767Z" transform="translate(-1107.87 -300.216)" fill="#e8e8e8"/>
          <g id="Grupo_134786" data-name="Grupo 134786">
            <path id="Trazado_192266" data-name="Trazado 192266" d="M1182.761,336.619v-9.846l-1.8-1c-.509,3.074-4.128,5.1-7.153,5.521l-20.6,12.05-8.993,3.247-28.7-14.813.663-.382c-2.453-1.146-3.774-3.767-5.1-6.158l-1.933,1.152-1.148.324v10.013h0c0,1.276.842,2.553,2.526,3.524l28.755,16.6a13.514,13.514,0,0,0,12.212,0l28.756-16.6c1.656-.956,2.5-2.208,2.525-3.463,0-.056,0-.112,0-.168Z" transform="translate(-1107.988 -299.767)" fill="#e8e8e8" opacity="0.4"/>
            <g id="Grupo_134785" data-name="Grupo 134785">
              <g id="Grupo_134784" data-name="Grupo 134784">
                <path id="Trazado_192267" data-name="Trazado 192267" d="M1182.761,328.581v-6.515l-1.8-1c-.509,3.075-4.128,5.1-7.153,5.521l-20.6,12.05-8.993,3.247-28.7-14.811.663-.384c-2.453-1.146-3.774-3.767-5.1-6.158l-1.933,1.153-1.148.323v6.681h0c0,1.277.842,2.553,2.526,3.525l28.755,16.6a13.517,13.517,0,0,0,12.212,0l28.756-16.6c1.656-.956,2.5-2.207,2.525-3.462,0-.056,0-.113,0-.168Z" transform="translate(-1107.988 -300.481)" fill="#e8e8e8"/>
                <path id="Trazado_192268" data-name="Trazado 192268" d="M1168.881,326.5l-20.6,12.05-7.827,2.826v8.81a12.485,12.485,0,0,0,6.107-1.458l28.755-16.6c1.656-.956,2.5-2.207,2.525-3.462,0-.056,0-.113,0-.168h0v-6.515l-1.647-.916h-.172C1175.455,324.094,1171.878,326.086,1168.881,326.5Z" transform="translate(-1103.062 -300.399)" fill="#e8e8e8" opacity="0.3"/>
                <g id="Grupo_134782" data-name="Grupo 134782" transform="translate(0.001)">
                  <path id="Trazado_192269" data-name="Trazado 192269" d="M1139.269,344.835l-28.755-16.6c-3.367-1.944-3.367-5.107,0-7.051l28.754-16.6a13.516,13.516,0,0,1,12.213,0l28.756,16.6c3.367,1.943,3.367,5.106,0,7.05l-28.756,16.6A13.521,13.521,0,0,1,1139.269,344.835Z" transform="translate(-1107.989 -303.122)" fill="#e8e8e8"/>
                </g>
                <g id="Grupo_134783" data-name="Grupo 134783" transform="translate(0.002 21.99)">
                  <path id="Trazado_192270" data-name="Trazado 192270" d="M1180.236,325.335l-28.755,16.6a13.521,13.521,0,0,1-12.212,0l-28.755-16.6a4.54,4.54,0,0,1-2.495-3.12c-.2,1.409.632,2.856,2.495,3.932l28.755,16.6a13.514,13.514,0,0,0,12.212,0l28.755-16.6c1.861-1.075,2.692-2.522,2.495-3.931A4.539,4.539,0,0,1,1180.236,325.335Z" transform="translate(-1107.99 -322.215)" fill="#e8e8e8"/>
                </g>
              </g>
            </g>
          </g>
        </g>
      </g>
    </g>
    <g id="Grupo_134732" data-name="Grupo 134732" transform="translate(-12207.032 -13348)">
      <g id="Grupo_134815" data-name="Grupo 134815">
        <path id="Trazado_192114" data-name="Trazado 192114" d="M953.89,195.243s-.839.873-1.709,1.9a23.237,23.237,0,0,1-4.349,3.1c-1.027.638-5.734,4.207-6.718,7.717s2.379,3.979,5.821,3.368,6.657-3.785,7.593-4.931a32.153,32.153,0,0,1,8.417-5.934c4.222-2.188,1.67-5.124,1.67-5.124Z" transform="translate(-928.102 -27.3)" fill="#afafaf"/>
        <path id="Trazado_192115" data-name="Trazado 192115" d="M980.7,204.3a13.107,13.107,0,0,1,.893,3.613c.2,2.032.483,6.438.589,7.727a10.9,10.9,0,0,1-2.122,7.461c-2.268,3.02-3.44,4.212-6.45,3.024s-2.946-6.248-2.413-8.849a72.323,72.323,0,0,0,.973-9.037,1.8,1.8,0,0,1,.173-1Z" transform="translate(-923.554 -25.926)" fill="#afafaf"/>
        <path id="Trazado_192116" data-name="Trazado 192116" d="M943.151,144.676s.637,23.205,6.044,35.521a89.654,89.654,0,0,1,4.385,23.751,4.612,4.612,0,0,0,.373,4.031c1.267,1.806,9.208,3.455,10.519-2.474s.806-17.035-.634-21.665.514-17.391.514-17.391,2.17,1.382,5.015,10.553a119.861,119.861,0,0,0,5.915,15.2c.979,2.534,1.88,18.069,1.259,25.656,0,0,6.429.912,8.292-2.161s2.481-18.973,2.009-24.04-2.59-21.307-2.3-26.332,1.338-9.1.189-14.123-35.074-16.168-35.074-16.168Z" transform="translate(-927.767 -36.436)" fill="#636363"/>
        <path id="Trazado_192117" data-name="Trazado 192117" d="M984.535,164.412c.293-5.024,1.338-9.1.189-14.123-.432-1.887-5.5-4.64-11.649-7.34-10.382-.948-23.551-2.049-24.457-1.911a33.879,33.879,0,0,0-4.745,1.654l-.726,1.076s.039,1.411.179,3.715c2.419.723,7.081-.024,7.081-.024a25.088,25.088,0,0,0,9.732,9.913c5.033,2.5,19.756,1.641,20.6,2.59s1.009,13.653.921,15.269,1.382,11.783,2.757,20.776c1.348,8.847-.7,19.6-.771,19.944a3.657,3.657,0,0,0,1.182-1.164c1.859-3.074,2.481-18.973,2.009-24.04S984.248,169.437,984.535,164.412Z" transform="translate(-927.768 -35.527)" fill="#a8a8a8"/>
        <path id="Trazado_192118" data-name="Trazado 192118" d="M955.448,77.917s-7.527,1.716-10.058,2.31a1.3,1.3,0,0,0-.921.795,30.751,30.751,0,0,0-1.183,16,79.62,79.62,0,0,1,1.16,17.263L940.964,132.4s-4.377,17.257-4,17.729,10.078,7.854,13.109,6.815,2.036-2.755,2.036-2.755,2.454,12.507,13.325,12.387,19.751-.085,21.6-4.479-.506-22.868-2.419-30.176-6.473-21.892-6.473-21.892l15.923-17.622L980.457,82s-3.251-6.041-4.586-6.809-2.035-.115-2.035-.115Z" transform="translate(-928.709 -45.574)" fill="#636363"/>
        <g id="Grupo_134814" data-name="Grupo 134814" transform="translate(8.572 104.833)">
          <path id="Trazado_192119" data-name="Trazado 192119" d="M950.22,143c.01.628-.356,1.562-2.31,2.232-2.11.723-7.282-2.419-10.673-4.785,1.693,1.406,10.02,7.486,12.8,6.537a4.971,4.971,0,0,0,1.365-.682A22.135,22.135,0,0,1,950.22,143Z" transform="translate(-937.236 -140.448)" fill="#aab2d3"/>
          <path id="Trazado_192120" data-name="Trazado 192120" d="M984.309,150.183c-1.948,4.637-11.318,4.6-22.791,4.722a12.264,12.264,0,0,1-7.131-2.056,11.589,11.589,0,0,0,8.408,3.274c10.871-.115,19.752-.085,21.6-4.479.6-1.443.758-4.407.622-7.991A19.207,19.207,0,0,1,984.309,150.183Z" transform="translate(-934.633 -139.962)" fill="#aab2d3"/>
        </g>
        <path id="Trazado_192121" data-name="Trazado 192121" d="M972.793,75.047s2.779,3.364-1.221,7.9a108.141,108.141,0,0,0-10.306,15.077c-2.255,3.908-4.337,5.989-5.519,9.351,0,0-.163-3.99-.324-10.15a133.2,133.2,0,0,1,.033-13.376C955.994,80.719,969.722,73.523,972.793,75.047Z" transform="translate(-925.927 -45.571)" fill="#f0f6ff"/>
        <path id="Trazado_192122" data-name="Trazado 192122" d="M963.122,88.731s-1.425.885-1.915.806a9.439,9.439,0,0,1-2.066-1.6s-3.946-.071-4.377-1.763a36.921,36.921,0,0,0-1.113-4.273c-.4-.879-2.1-5.1-2.116-6.807s.052-4.768-.691-6.388-1.734-17.813,13.9-17.357,10.78,16.7,10.78,16.7,1.142.485.45,2.576-.845,2.3-1.2,3.34a4.632,4.632,0,0,1-1.52,2.544L973,78.432a7.737,7.737,0,0,1-1.2,5.8C969.858,87.1,963.122,88.731,963.122,88.731Z" transform="translate(-926.652 -49.137)" fill="#fcd1c5"/>
        <path id="Trazado_192123" data-name="Trazado 192123" d="M946.051,79.679s-1.667.249-7.078,13.859c-3.02,7.595-7.679,15.46-8.666,21.1s-.438,11.678.678,12.1c1.073.409,20.514,7.682,26.6,9.979a.576.576,0,0,0,.74-.342.7.7,0,0,0,.026-.1l1.677-9.388-12.063-4.661a17.27,17.27,0,0,0-4.457-3.862s2.419-4.457,2.264-5.673.215-13.806-1.2-18.93S946.051,79.679,946.051,79.679Z" transform="translate(-929.794 -44.836)" fill="#636363"/>
        <path id="Trazado_192124" data-name="Trazado 192124" d="M951.32,111.232a24.146,24.146,0,0,0-2.073-1.276c-.413-.16-2.633-.921-3.058-1.107a8.36,8.36,0,0,0-2.256.032.705.705,0,0,0-.553.367c-.513.951-1.943,3.724-1.782,4.781,0,0,4.015,2.534,4.464,3.669l.642.137S949.4,112.066,951.32,111.232Z" transform="translate(-928.004 -40.419)" fill="#fcd1c5"/>
        <path id="Trazado_192125" data-name="Trazado 192125" d="M981.782,125.215c-.461-1.76-1.076-3.941-1.743-6.238L955.609,129.45a25.767,25.767,0,0,0,20.131,8.416,16.862,16.862,0,0,0,7.938-2.508A97.4,97.4,0,0,0,981.782,125.215Z" transform="translate(-925.877 -38.873)" fill="#d3d3d3"/>
        <path id="Trazado_192126" data-name="Trazado 192126" d="M993,90.084s-6.444.888-11.649,9.138a124.679,124.679,0,0,0-9,17.8l-.178,1.075a4.344,4.344,0,0,1-5,3.572,4.3,4.3,0,0,1-1.058-.318c-5.5-2.453-13.637-6.165-15.155-7.278a14,14,0,0,0-6.2,9.048c-1.06,5.068-.79,5.086-.79,5.086s21.694,10.125,30.073,10.026,19-27.642,20.179-33.342S996.688,91.694,993,90.084Z" transform="translate(-927.646 -43.257)" fill="#0d2380"/>
        <path id="Trazado_192127" data-name="Trazado 192127" d="M993,90.084s-6.444.888-11.649,9.138a124.679,124.679,0,0,0-9,17.8l-.178,1.075a4.344,4.344,0,0,1-5,3.572,4.3,4.3,0,0,1-1.058-.318c-5.5-2.453-13.637-6.165-15.155-7.278a14,14,0,0,0-6.2,9.048c-1.06,5.068-.79,5.086-.79,5.086s21.694,10.125,30.073,10.026,19-27.642,20.179-33.342S996.688,91.694,993,90.084Z" transform="translate(-927.646 -43.257)" fill="#636363"/>
        <path id="Trazado_192128" data-name="Trazado 192128" d="M965.9,119.106s2.737,2.559,3.928,1.159.84-1.556.84-1.556,2.461-.023,2.764-1.565,1.511-.728,1.581-2.447-1.992-1.366-1.992-1.366Z" transform="translate(-924.315 -39.735)" fill="#0d2380"/>
        <path id="Trazado_192129" data-name="Trazado 192129" d="M963.029,118.326s.753-.7,1.728-1.521,2.541-4.219,2.8-4.518,3.541-2.81,5.117-2.854.407,1.728.044,1.972-1.9,1.015-1.9,1.015-1.586,1.331-1.766,1.527,4.408-.317,5.136.131a1.242,1.242,0,0,1,.231,1.741,1.2,1.2,0,0,1-.187.2,1.817,1.817,0,0,1-.906.309,1.6,1.6,0,0,1-.86,2.02c-1.382.64-1.693.284-1.693.284s-.115,2.385-2.391,1.913Z" transform="translate(-924.75 -40.322)" fill="#fcd1c5"/>
        <path id="Trazado_192130" data-name="Trazado 192130" d="M950.545,60.716s-2.043,6.5,3.331,4.651S964.111,60.423,965.8,61.6c1.284.9,1.225,3.648,1.123,4.908a1.865,1.865,0,0,0,.323,1.212l1.593,2.315a1.778,1.778,0,0,1,.309.883l.115,1.612a.806.806,0,0,0,.759.75l.366.021a.807.807,0,0,0,.843-.667l.415-2.366s1.267-3.182,3.938-1.931c0,0,1.787-2.4,1.193-7.538S973.88,50.32,963.8,49.47,950.545,60.716,950.545,60.716Z" transform="translate(-926.703 -49.427)" fill="#aa8383"/>
        <path id="Trazado_192131" data-name="Trazado 192131" d="M964.519,89.037l-1.508-1.17a8.094,8.094,0,0,0-1.938,2.388c-.545,1.228,0,5.134,0,5.134l-.461.79-.567-1.037-.477-4.618s.513-3.414.562-3.5,2.908.3,2.908.3A5.891,5.891,0,0,1,964.519,89.037Z" transform="translate(-925.276 -43.724)" fill="#c4ccd6"/>
        <path id="Trazado_192132" data-name="Trazado 192132" d="M957.88,84.778a5.105,5.105,0,0,0-2.337.711s1.69.083,1.958.115S957.88,84.778,957.88,84.778Z" transform="translate(-925.886 -44.063)" fill="#c4ccd6"/>
        <path id="Trazado_192133" data-name="Trazado 192133" d="M960.752,85.136l2.7,2.534a6.145,6.145,0,0,0-3.037,3.215s-2.943.549-3.21-.516.007-3.751-.346-4.942S960.752,85.136,960.752,85.136Z" transform="translate(-925.689 -44.058)" fill="#afafaf"/>
        <path id="Trazado_192134" data-name="Trazado 192134" d="M957.54,89.585a15.074,15.074,0,0,1-1.053,3.127c-.549.914-1.111,1.938-1.111,1.938l.067,12.977s4.773-9.837,5.808-11.83c0,0-.16-4.738-.61-5.634S957.54,89.585,957.54,89.585Z" transform="translate(-925.912 -43.341)" fill="#afafaf"/>
        <path id="Trazado_192135" data-name="Trazado 192135" d="M969.957,72.929C966.821,81.975,958,84.659,958,84.659s1.577,1.532,2.066,1.6,1.916-.806,1.916-.806,6.734-1.635,8.68-4.492a7.738,7.738,0,0,0,1.2-5.8l.26-1.926A2.132,2.132,0,0,1,969.957,72.929Z" transform="translate(-925.513 -45.861)" fill="#e2b1a6"/>
        <path id="Trazado_192136" data-name="Trazado 192136" d="M977.377,82.123s-1.238,4.27-1.4,4.431a19.363,19.363,0,0,1-3.11-.182l1.433,2.715s-14.847,15.923-17.924,24.488a181.437,181.437,0,0,1,19.392-23.82l-1.749-2.649,3.035.593Z" transform="translate(-925.76 -44.465)" fill="#a8a8a8"/>
        <path id="Trazado_192137" data-name="Trazado 192137" d="M953.934,78.85l-.788.9.921.865L951.322,83.1s-.84,17.418,2.513,28.956c0,0-4.552-10.585-3.518-29.429l2.97-2.016-.972-.956Z" transform="translate(-926.703 -44.962)" fill="#a8a8a8"/>
        <path id="Trazado_192138" data-name="Trazado 192138" d="M962.117,162.837a1.122,1.122,0,0,1,.1.082l-3.846-4.094c1.776,2.5-.271,13.969-.483,16.592s2.055,8.047,2.9,14.4-.888,15.4-.894,15.422a4.888,4.888,0,0,0,2.338-3.34c1.313-5.934.806-17.035-.633-21.665S962.117,162.837,962.117,162.837Z" transform="translate(-925.532 -32.827)" fill="#e8e8e8"/>
        <path id="Trazado_192139" data-name="Trazado 192139" d="M974.048,136.672c8.378-.1,19-27.642,20.18-33.342.195-.949.393-1.952.576-2.966-.03.083-2.2,6.032-4.3,11.3-2.108,5.308-13.3,21.405-19.026,22.459-5.161.946-23.726-7.717-27.316-9.429-.326,1.934-.185,1.958-.185,1.958S965.671,136.771,974.048,136.672Z" transform="translate(-927.646 -41.698)" fill="#d3d3d3"/>
        <path id="Trazado_192140" data-name="Trazado 192140" d="M968.135,71.749a.807.807,0,0,0,.843-.667l.415-2.366s1.267-3.182,3.938-1.931c0,0,1.686-2.282,1.231-7.141-2.972,4.462-9.568,6.521-9.568,6.521l1.593,2.315a1.775,1.775,0,0,1,.308.883l.115,1.612a.806.806,0,0,0,.759.75Z" transform="translate(-924.452 -47.876)" fill="#936d6d"/>
      </g>
    </g>
  </g>
</svg>
