<svg xmlns="http://www.w3.org/2000/svg" width="80.334" height="63.638" viewBox="0 0 80.334 63.638">
  <g id="Grupo_134822" data-name="Grupo 134822" transform="translate(-2.93)">
    <g id="Grupo_134741" data-name="Grupo 134741">
      <g id="Grupo_134740" data-name="Grupo 134740" transform="translate(2.93)">
        <path id="Trazado_191910" data-name="Trazado 191910" d="M1003.241,251.355a19.258,19.258,0,0,1,4.75,4.006c1.99-6.393,8.061-8.377,15.244-4.229,5.942,3.43,11.121,10.179,13.861,17.328a6.464,6.464,0,0,1,2.991.947,15.519,15.519,0,0,1,7.021,12.161c0,.1-.009.185-.013.279a8.484,8.484,0,0,1,3.615,1.21c4.959,2.863,8.98,9.828,8.98,15.554s-4.021,8.048-8.98,5.185l-47.47-27.407c-5.987-3.456-10.84-11.863-10.84-18.776S997.254,247.9,1003.241,251.355Z" transform="translate(-979.357 -248.956)" fill="#e8e8e8"/>
        <path id="Trazado_191911" data-name="Trazado 191911" d="M1003.241,251.355a17.319,17.319,0,0,1,2.852,2.09l5.308-3.067h0c2.916-2.05,7.137-1.96,11.835.752,5.942,3.43,11.121,10.179,13.861,17.328a6.463,6.463,0,0,1,2.991.947,15.519,15.519,0,0,1,7.021,12.161c0,.1-.009.185-.013.279a8.484,8.484,0,0,1,3.615,1.21c4.959,2.863,8.98,9.828,8.98,15.554,0,2.838-.989,4.837-2.589,5.785l0,0-.04.023-.008.006-13,7.546-2.84-13.66-37.974-21.925c-5.987-3.456-10.84-11.863-10.84-18.776S997.254,247.9,1003.241,251.355Z" transform="translate(-979.357 -248.956)" fill="#e8e8e8"/>
        <path id="Trazado_191912" data-name="Trazado 191912" d="M983.67,258.284l13.172-7.653v0c1.966-1.17,4.7-1.024,7.724.722a17.324,17.324,0,0,1,2.852,2.09l5.308-3.067h0c2.916-2.05,7.137-1.96,11.835.752,5.942,3.43,11.121,10.179,13.861,17.328a6.462,6.462,0,0,1,2.991.947,15.518,15.518,0,0,1,7.021,12.161c0,.1-.009.185-.012.279a8.485,8.485,0,0,1,3.615,1.21c4.959,2.863,8.98,9.828,8.98,15.554,0,2.838-.99,4.837-2.589,5.785l0,0-.04.023-.008.006-13,7.546-2.84-13.66-37.974-21.925c-4.854-2.8-8.959-8.857-10.342-14.732Z" transform="translate(-980.682 -248.956)" fill="#e8e8e8"/>
        <path id="Trazado_191913" data-name="Trazado 191913" d="M991.916,257.929a19.254,19.254,0,0,1,4.75,4c1.99-6.393,8.061-8.377,15.244-4.229,5.942,3.431,11.121,10.179,13.861,17.329a6.447,6.447,0,0,1,2.99.947,15.518,15.518,0,0,1,7.022,12.161c0,.1-.009.184-.013.279a8.471,8.471,0,0,1,3.614,1.209c4.961,2.864,8.981,9.828,8.981,15.555s-4.021,8.047-8.981,5.184l-47.469-27.406c-5.987-3.458-10.84-11.863-10.84-18.776S985.929,254.473,991.916,257.929Z" transform="translate(-981.076 -247.958)" fill="#e8e8e8"/>
      </g>
    </g>
  </g>
</svg>
