<svg xmlns="http://www.w3.org/2000/svg" width="165" height="157" viewBox="0 0 165 157">
  <g id="Grupo_129482" data-name="Grupo 129482" transform="translate(-364.914 -1729)">
    <ellipse id="Elipse_4733" data-name="Elipse 4733" cx="72.5" cy="71" rx="72.5" ry="71" transform="translate(377 1737)" fill="#aab2d3"/>
    <g id="Elipse_4740" data-name="Elipse 4740" transform="translate(371 1729)" fill="none" stroke="#dadeec" stroke-width="2">
      <circle cx="78.5" cy="78.5" r="78.5" stroke="none"/>
      <circle cx="78.5" cy="78.5" r="77.5" fill="none"/>
    </g>
    <g id="Grupo_129481" data-name="Grupo 129481" transform="translate(151.453 1685.157)">
      <g id="Grupo_129452" data-name="Grupo 129452" transform="translate(-58 -26)">
        <g id="Grupo_129451" data-name="Grupo 129451">
          <g id="Grupo_129447" data-name="Grupo 129447">
            <path id="Trazado_187874" data-name="Trazado 187874" d="M350.5,79.843H334.519a3.148,3.148,0,0,0-2.725,1.573L323.8,95.259a3.146,3.146,0,0,0,0,3.146l7.992,13.843a3.147,3.147,0,0,0,2.724,1.573H350.5a3.147,3.147,0,0,0,2.724-1.573L361.22,98.4a3.146,3.146,0,0,0,0-3.146l-7.992-13.843A3.147,3.147,0,0,0,350.5,79.843Z" fill="#0d2380"/>
          </g>
          <g id="Grupo_129450" data-name="Grupo 129450">
            <g id="Grupo_129449" data-name="Grupo 129449">
              <g id="Grupo_129448" data-name="Grupo 129448">
                <path id="Trazado_187875" data-name="Trazado 187875" d="M345.831,85.417a6.882,6.882,0,0,0-6.874,6.874,6.783,6.783,0,0,0,.146,1.38l-.768.383a.433.433,0,0,0-.232.316.428.428,0,0,0,.121.372l.555.556-.429.429h-.682a.43.43,0,0,0-.429.43v.681l-.608.608h-.681a.429.429,0,0,0-.43.43v.681l-.607.607h-.682a.429.429,0,0,0-.429.43v.681l-1.593,1.593a.43.43,0,0,0-.126.3v3.436a.43.43,0,0,0,.43.43h3.437a.429.429,0,0,0,.3-.126l6.57-6.57.555.556a.43.43,0,0,0,.688-.112l.384-.768a6.871,6.871,0,1,0,1.38-13.6Zm-4.422,11.9-6.015,6.014a.429.429,0,0,1-.607-.607l6.014-6.014a.43.43,0,1,1,.608.607Zm6.57-5.029a2.148,2.148,0,1,1,2.148-2.148A2.15,2.15,0,0,1,347.979,92.291Z" fill="#dadeec"/>
              </g>
            </g>
          </g>
        </g>
      </g>
      <g id="Grupo_129459" data-name="Grupo 129459" transform="translate(2 -35.522)">
        <path id="Trazado_187876" data-name="Trazado 187876" d="M339.839,161.082c6.413-6.119,10.525-15.478,10.525-25.982,0-18.438-12.642-33.383-28.236-33.383s-28.234,14.945-28.234,33.383c0,10.531,4.134,19.908,10.574,26.025a34.916,34.916,0,0,0-25.863,33.7V206.9l70.04-.1c10.984-11.029,15.405-23.544,15.846-23.363C360.509,173.025,351.034,163.992,339.839,161.082Z" transform="translate(0)" fill="#0d2380"/>
        <g id="Grupo_129453" data-name="Grupo 129453" transform="translate(302.075 104.75)">
          <path id="Trazado_187877" data-name="Trazado 187877" d="M331.55,130.577c0,15.086-9.173,27.315-20.486,27.315s-20.484-12.229-20.484-27.315,9.171-27.313,20.484-27.313S331.55,115.493,331.55,130.577Z" transform="translate(-290.579 -103.264)" fill="#ffd4dd"/>
        </g>
        <g id="Grupo_129454" data-name="Grupo 129454" transform="translate(300.437 127.512)">
          <path id="Trazado_187878" data-name="Trazado 187878" d="M331.977,129.715c-12.872,5.4-17.7-2.7-20.112-2.7s-7.24,8.095-20.11,2.7c-3.218-10.01-1.609-14.838-1.609-14.838s12.317,0,19.169,1.807a10.038,10.038,0,0,0,5.1,0c6.852-1.807,19.169-1.807,19.169-1.807S335.194,118.1,331.977,129.715Z" transform="translate(-289.744 -114.877)" fill="#0d2380"/>
        </g>
        <g id="Grupo_129457" data-name="Grupo 129457" transform="translate(307.612 132.451)">
          <g id="Grupo_129455" data-name="Grupo 129455">
            <path id="Trazado_187879" data-name="Trazado 187879" d="M303.6,120.138c-.372,2.18-2.948,3.557-5.749,3.077s-4.771-2.636-4.4-4.816S303.971,117.96,303.6,120.138Z" transform="translate(-293.404 -117.397)" fill="#ffd4dd"/>
          </g>
          <g id="Grupo_129456" data-name="Grupo 129456" transform="translate(19.693 0.005)">
            <path id="Trazado_187880" data-name="Trazado 187880" d="M313.612,118.407c.37,2.18-1.6,4.332-4.406,4.808s-5.374-.908-5.745-3.089S313.243,116.227,313.612,118.407Z" transform="translate(-303.451 -117.399)" fill="#ffd4dd"/>
          </g>
        </g>
        <g id="Grupo_129458" data-name="Grupo 129458" transform="translate(302.075 101.716)">
          <path id="Trazado_187881" data-name="Trazado 187881" d="M290.579,126s9.1-8.093,19.726-8.093S331.55,126,331.55,126,327,101.716,310.3,101.716C295.13,101.716,290.579,124.376,290.579,126Z" transform="translate(-290.579 -101.716)" fill="#0d2380"/>
        </g>
      </g>
      <g id="Grupo_129461" data-name="Grupo 129461" transform="translate(-19.095 24.912)">
        <g id="Grupo_129460" data-name="Grupo 129460" transform="translate(320.687 115.578)">
          <rect id="Rect치ngulo_82563" data-name="Rect치ngulo 82563" width="21.955" height="21.955" rx="1.7" fill="#ffd4dd"/>
        </g>
        <path id="Trazado_187882" data-name="Trazado 187882" d="M337.531,121.251l-2.157-2.157-4.314,4.314-4.314-4.314-2.157,2.157,4.314,4.314-4.314,4.314,2.157,2.157,4.314-4.314,4.314,4.314,2.157-2.157-4.314-4.314Z" transform="translate(0.994 0.896)" fill="#fd4f23"/>
      </g>
      <g id="Grupo_129478" data-name="Grupo 129478" transform="translate(-16 10)">
        <g id="Grupo_129473" data-name="Grupo 129473" transform="translate(229.46 105.326)">
          <g id="Grupo_129471" data-name="Grupo 129471">
            <g id="Grupo_129464" data-name="Grupo 129464" transform="translate(0 8.281)">
              <g id="Grupo_129462" data-name="Grupo 129462" transform="translate(0.723 0.723)">
                <path id="Trazado_187883" data-name="Trazado 187883" d="M228.162,162.545a4.036,4.036,0,0,1-4.032-4.032V111.554h83.125v46.959a4.036,4.036,0,0,1-4.032,4.032Z" transform="translate(-224.13 -111.554)" fill="#fff"/>
              </g>
              <g id="Grupo_129463" data-name="Grupo 129463">
                <path id="Trazado_187884" data-name="Trazado 187884" d="M306.755,112.5v46.236a3.313,3.313,0,0,1-3.309,3.309H228.385a3.313,3.313,0,0,1-3.309-3.309V112.5h81.679m1.446-1.446H223.63v47.682a4.756,4.756,0,0,0,4.755,4.755h75.061a4.755,4.755,0,0,0,4.755-4.755V111.054Z" transform="translate(-223.63 -111.054)" fill="#3370ff"/>
              </g>
            </g>
            <g id="Grupo_129465" data-name="Grupo 129465">
              <path id="Trazado_187885" data-name="Trazado 187885" d="M308.2,110.081a4.755,4.755,0,0,0-4.755-4.755H228.385a4.756,4.756,0,0,0-4.755,4.755v3.526H308.2Z" transform="translate(-223.63 -105.326)" fill="#ccc198"/>
            </g>
            <g id="Grupo_129466" data-name="Grupo 129466" transform="translate(0 8.281)">
              <path id="Trazado_187886" data-name="Trazado 187886" d="M306.755,112.5v46.236a3.313,3.313,0,0,1-3.309,3.309H228.385a3.313,3.313,0,0,1-3.309-3.309V112.5h81.679m1.446-1.446H223.63v47.682a4.756,4.756,0,0,0,4.755,4.755h75.061a4.755,4.755,0,0,0,4.755-4.755V111.054Z" transform="translate(-223.63 -111.054)" fill="#ccc198"/>
            </g>
            <g id="Grupo_129470" data-name="Grupo 129470" transform="translate(66.76 1.949)">
              <g id="Grupo_129467" data-name="Grupo 129467">
                <path id="Trazado_187887" data-name="Trazado 187887" d="M273.256,108.4a1.723,1.723,0,1,1-1.723-1.723A1.724,1.724,0,0,1,273.256,108.4Z" transform="translate(-269.81 -106.674)" fill="#fff"/>
              </g>
              <g id="Grupo_129468" data-name="Grupo 129468" transform="translate(5.136)">
                <path id="Trazado_187888" data-name="Trazado 187888" d="M276.809,108.4a1.723,1.723,0,1,1-1.723-1.723A1.723,1.723,0,0,1,276.809,108.4Z" transform="translate(-273.363 -106.674)" fill="#fff"/>
              </g>
              <g id="Grupo_129469" data-name="Grupo 129469" transform="translate(10.274)">
                <path id="Trazado_187889" data-name="Trazado 187889" d="M280.363,108.4a1.723,1.723,0,1,1-1.723-1.723A1.724,1.724,0,0,1,280.363,108.4Z" transform="translate(-276.917 -106.674)" fill="#fd4f23"/>
              </g>
            </g>
          </g>
          <g id="Grupo_129472" data-name="Grupo 129472" transform="translate(22.577 14.457)">
            <path id="Trazado_187890" data-name="Trazado 187890" d="M271.327,120.834a18.789,18.789,0,1,0,0,26.571A18.78,18.78,0,0,0,271.327,120.834Zm-.786,23.894a18.779,18.779,0,0,0-2.806-2.079,30.332,30.332,0,0,0,1.133-7.332h5.524a16.247,16.247,0,0,1-3.851,9.411Zm-28.852-9.411h5.525a30.332,30.332,0,0,0,1.133,7.332,18.786,18.786,0,0,0-2.807,2.079A16.247,16.247,0,0,1,241.689,135.316Zm3.851-11.805a18.786,18.786,0,0,0,2.807,2.079,30.332,30.332,0,0,0-1.133,7.332h-5.525A16.25,16.25,0,0,1,245.54,123.511Zm11.3,2.326a16.248,16.248,0,0,1-5.582-1.414c1.016-2.614,2.887-5.749,5.582-6.527Zm0,2.4v4.685h-7.234a28.128,28.128,0,0,1,.908-6.208A18.683,18.683,0,0,0,256.843,128.237Zm0,7.079V140a18.684,18.684,0,0,0-6.326,1.522,28.128,28.128,0,0,1-.908-6.208Zm0,7.085v7.941c-2.695-.778-4.565-3.913-5.582-6.527A16.248,16.248,0,0,1,256.843,142.4Zm2.4,0a16.24,16.24,0,0,1,5.58,1.414c-1.015,2.614-2.887,5.749-5.58,6.527Zm0-2.4v-4.685h7.234a28.3,28.3,0,0,1-.908,6.208A18.684,18.684,0,0,0,259.239,140Zm0-7.079v-4.685a18.683,18.683,0,0,0,6.326-1.522,28.3,28.3,0,0,1,.908,6.208Zm0-7.085V117.9c2.693.776,4.565,3.912,5.58,6.526A16.24,16.24,0,0,1,259.239,125.837Zm5.378-6.745a16.367,16.367,0,0,1,4.244,2.711,16.534,16.534,0,0,1-1.927,1.463A18.022,18.022,0,0,0,264.617,119.092Zm-15.47,4.174a16.521,16.521,0,0,1-1.926-1.463,16.343,16.343,0,0,1,4.244-2.711,18.027,18.027,0,0,0-2.319,4.174Zm0,21.708a18.027,18.027,0,0,0,2.319,4.174,16.343,16.343,0,0,1-4.244-2.711A16.519,16.519,0,0,1,249.147,144.973Zm17.787,0a16.532,16.532,0,0,1,1.927,1.463,16.367,16.367,0,0,1-4.244,2.711,18.021,18.021,0,0,0,2.317-4.174Zm1.934-12.051a30.332,30.332,0,0,0-1.133-7.332,18.863,18.863,0,0,0,2.807-2.079,16.258,16.258,0,0,1,3.85,9.411Z" transform="translate(-239.247 -115.326)" fill="#aab2d3"/>
          </g>
        </g>
        <g id="Grupo_129475" data-name="Grupo 129475" transform="translate(290.058 154.478)">
          <g id="Grupo_129474" data-name="Grupo 129474">
            <rect id="Rect치ngulo_82564" data-name="Rect치ngulo 82564" width="53.489" height="23.13" rx="8" fill="#ffd4dd"/>
          </g>
          <text id="WWW" transform="translate(7.323 13.575)" fill="#fd4f23" font-size="9" font-family="Montserrat-ExtraBold, Montserrat" font-weight="800" letter-spacing="0.22em"><tspan x="0" y="0">WWW</tspan></text>
        </g>
        <g id="Grupo_129477" data-name="Grupo 129477" transform="translate(365.547 105.326)">
          <g id="Grupo_129476" data-name="Grupo 129476">
            <circle id="Elipse_4738" data-name="Elipse 4738" cx="14.457" cy="14.457" r="14.457" fill="#fd4f23"/>
          </g>
          <path id="Trazado_187891" data-name="Trazado 187891" d="M228.51,130.239a1.29,1.29,0,1,0-2.58,0v-.646a1.29,1.29,0,0,0-2.58,0v-.645a1.29,1.29,0,0,0-2.581,0v-4.333a1.29,1.29,0,0,0-2.58,0V132.7l-1.08-1.482a1.286,1.286,0,0,0-2.014,1.6l3.893,5.751a.8.8,0,0,0-.026.168v1.291a.586.586,0,0,0,.5.645h7.966a.586.586,0,0,0,.5-.645v-1.291a.764.764,0,0,0-.088-.345,2.535,2.535,0,0,0,.677-1.7Z" transform="translate(-208.648 -117.543)" fill="#fff"/>
        </g>
      </g>
    </g>
  </g>
</svg>
