<svg xmlns="http://www.w3.org/2000/svg" width="85" height="84.998" viewBox="0 0 85 84.998">
  <g id="Grupo_129623" data-name="Grupo 129623" transform="translate(-682.588 -339.634)">
    <path id="Trazado_188002" data-name="Trazado 188002" d="M731.887,372.248c-1.414-.072-1.414-.072-1.414-1.532q0-7.61,0-15.221a7.027,7.027,0,0,1,6.556-7.317c.621-.064.538-.377.522-.742A7.348,7.348,0,0,1,738.9,342.6a6.717,6.717,0,0,1,5.572-2.938q21.416-.044,42.832,0a7.021,7.021,0,0,1,6.911,6.892,5.271,5.271,0,0,1,0,.707c-.065.6.045.865.79.95a7.031,7.031,0,0,1,6.294,7.289q.011,21.328-.015,42.655c0,.779.155,1.049.983,1.006,1.392-.073,1.863.444,1.867,1.821,0,1.3.019,2.6-.005,3.894a5.615,5.615,0,0,1-5.585,5.583c-11.151.026-22.3.008-33.452.023-.5,0-.692-.122-.627-.629a4.932,4.932,0,0,0-.022-.793c-.474-1.139-.187-1.636.981-1.7.118-.007.235-.007.353-.007q15.019,0,30.037,0a23.4,23.4,0,0,0,2.64.007,2.551,2.551,0,0,0,2.576-2.588c.033-.586,0-1.175.012-1.762.01-.566-.264-.782-.808-.782-1.087,0-2.173.012-3.261,0q-8.668.066-17.334,0a5.159,5.159,0,0,0-3.645,1.283,6.463,6.463,0,0,1-4.484,1.571c-1.887-.01-3.773,0-5.66,0-1.535-.005-1.663-.141-1.637-1.671,0-.177-.021-.353-.012-.529.049-.936.231-1.147,1.166-1.166,1.795-.036,3.592-.063,5.385,0a4.948,4.948,0,0,0,3.711-1.289,5.968,5.968,0,0,1,4.038-1.552c4.768-.014,9.536-.028,14.3,0q1.42-.042,2.84,0c.589-.044,1.179-.014,1.768-.024.508-.009.762-.237.765-.751,0-.236.01-.471.01-.707q0-20.786.01-41.573a4.247,4.247,0,0,0-2.629-4.293c-.949-.2-1.036-.147-1.059.784-.023.914-.006,1.828-.006,2.742q0,18.887,0,37.775c0,.236,0,.472,0,.708-.017,1.49-.19,1.653-1.713,1.613-1.508.044-1.691-.119-1.691-1.632q-.009-18.274,0-36.547c0-.325.048-.647.027-.972-.035-2.92,0-5.841-.016-8.761-.014-2.822-1.64-4.479-4.445-4.48q-20.8-.012-41.6,0a4.072,4.072,0,0,0-4.386,4.448q-.016,10.8,0,21.6c0,.207,0,.413,0,.62-.012,1.532-.157,1.673-1.674,1.643a5.677,5.677,0,0,1-.883-.013.81.81,0,0,1-.8-.793,10.31,10.31,0,0,1-.036-1.148q0-8.271,0-16.541c0-1.325-.273-1.506-1.434-.877a4.019,4.019,0,0,0-2.256,3.733c-.011,3.243,0,6.487,0,9.73,0,2,.019,4.01-.009,6.015C733.556,372.438,733.075,372.73,731.887,372.248Z" transform="translate(-36.551 0)"/>
    <path id="Trazado_188003" data-name="Trazado 188003" d="M725.115,517.879q-.014,5.174-.029,10.348c-.008,3.27-1.953,5.227-5.214,5.228q-16.056,0-32.113,0a4.79,4.79,0,0,1-5.169-5.182q0-8.272,0-16.543a4.692,4.692,0,0,1,3.763-5.05c.469-.134.493-.373.491-.751-.011-1.8.028-3.6-.011-5.4A17.1,17.1,0,0,1,695.35,484.7a2.142,2.142,0,0,1,1.108-.825,19.024,19.024,0,0,1,6.019-1.646,17.763,17.763,0,0,1,8.3,1.422,3.993,3.993,0,0,1,.374.177,20.214,20.214,0,0,1,4.127,2.76,19.711,19.711,0,0,1,3.289,3.914,17.129,17.129,0,0,1,2.52,9.043c-.011.658.029,1.316.014,1.974-.027,1.32,0,2.639-.01,3.959,0,.435.066.824.549.99,2.816.966,3.844,3.057,3.707,5.885.046,1.5.016,3.008.017,4.512A1.5,1.5,0,0,1,725.115,517.879Z" transform="translate(0 -108.825)"/>
    <path id="Trazado_188004" data-name="Trazado 188004" d="M862.293,610.087v-5.668a3.161,3.161,0,0,1,2.776,0c.072,1.414.072,1.414,1.535,1.414,1.887,0,3.774-.006,5.66,0a6.126,6.126,0,0,0,4.421-1.694,4.113,4.113,0,0,1,3.039-1.152c5.984.034,11.968.031,17.952.041a6.756,6.756,0,0,1-.395,5.065,1.285,1.285,0,0,1-.665.543q-5.783.014-11.567.027c-6.3,0-12.6.024-18.9-.024-.9-.007-1.214.231-1.058,1.1a1.4,1.4,0,0,1-.025.35Z" transform="translate(-137.178 -201.033)" fill="#dfdfdd"/>
    <path id="Trazado_188005" data-name="Trazado 188005" d="M743.542,410.285a19.368,19.368,0,0,0-7.072,2.241q-.007-1.816-.014-3.631c1.419-.073,1.419-.073,1.419-1.545,0-5.134-.008-10.269,0-15.4a4.243,4.243,0,0,1,3.255-4.207c.73-.2,1.02-.165,1.013.749-.044,5.813-.022,11.626-.022,17.439,0,1.479,0,1.479,1.412,1.552A3.258,3.258,0,0,1,743.542,410.285Z" transform="translate(-41.12 -36.647)" fill="#aab2d3"/>
    <path id="Trazado_188006" data-name="Trazado 188006" d="M766.383,382.792q0-1.4,0-2.806c1.421-.074,1.421-.074,1.421-1.551q0-11.063,0-22.125c0-2.946,1.728-4.682,4.662-4.682q20.842,0,41.684,0a4.268,4.268,0,0,1,4.646,4.611c0,2.95-.016,5.9-.026,8.848a2.6,2.6,0,0,1-.612.85q-3.864,3.856-7.726,7.714c-.3.3-.57.717-1.113.511a46.113,46.113,0,0,0-3.423-3.555,19.463,19.463,0,0,0-9.8-4.367,19.6,19.6,0,0,0-21.533,13.627c-.22.681-.2,1.133.649,1.24.247.031.634.052.574.5a2.915,2.915,0,0,0-.482,1.571c-.034.4-.034.832-.447,1.084A19.173,19.173,0,0,0,766.383,382.792Z" transform="translate(-63.962 -9.153)" fill="#dadeec"/>
    <path id="Trazado_188007" data-name="Trazado 188007" d="M868.832,417.529c.4-.04.584-.377.828-.619q4.243-4.2,8.473-8.4c.009,1.651.026,3.3.027,4.953q0,16.237,0,32.473c0,1.48,0,1.48,1.421,1.554.537.967.182,2.015.265,3.023a1.4,1.4,0,0,1-.265,1.169c-4.566.01-9.132.042-13.7.018a6.653,6.653,0,0,0-4.9,1.849,3.6,3.6,0,0,1-2.651,1c-2-.021-4.008.043-6.009-.029-.879-.031-1.259.186-1.087,1.091a1.38,1.38,0,0,1-.024.351h-2.776a11.755,11.755,0,0,0-.1-1.664,4.6,4.6,0,0,0-3.538-3.834c-.473-.124-.672-.29-.654-.816.049-1.435.03-2.873.038-4.31.623-.021,1.093.4,1.649.57.432.212.952.274,1.249.72-.072,1.44-.025,1.23,1.238,1.5a19.119,19.119,0,0,0,18.264-5.33,18.751,18.751,0,0,0,5.521-11.674,19.729,19.729,0,0,0-2.91-12.585C869.021,418.232,868.645,417.976,868.832,417.529Z" transform="translate(-123.33 -52.574)" fill="#aab2d3"/>
    <path id="Trazado_188008" data-name="Trazado 188008" d="M1004.865,388.833a4.1,4.1,0,0,1,2.813,3.786c.025.707.009,1.415.009,2.123q0,20.523.018,41.047c0,.725-.152,1-.906.915-.641-.074-1.295-.033-1.943-.043-.417-.479-.286-1.065-.286-1.611q-.012-18.455-.006-36.91c0-2.655-.006-5.311.005-7.966C1004.571,389.711,1004.486,389.217,1004.865,388.833Z" transform="translate(-245.772 -37.556)" fill="#aab2d3"/>
    <path id="Trazado_188009" data-name="Trazado 188009" d="M996.72,387.785l-.01,47.827H993.88v-4.191c1.412-.073,1.412-.073,1.412-1.552V388.747C995.292,387.251,995.292,387.251,996.72,387.785Z" transform="translate(-237.627 -36.508)" fill="#dadeec"/>
    <path id="Trazado_188010" data-name="Trazado 188010" d="M1007.335,608.633a4.855,4.855,0,0,0,1.069-3.59c-.045-.67-.009-1.345-.009-2.018,1.232-.01,2.465,0,3.7-.041.5-.018.58.182.563.612-.03.762.012,1.527-.015,2.289a2.818,2.818,0,0,1-2.752,2.767C1009.037,608.681,1008.185,608.642,1007.335,608.633Z" transform="translate(-247.898 -201.029)" fill="#d5d5d3"/>
    <path id="Trazado_188011" data-name="Trazado 188011" d="M731.018,600.478a1.724,1.724,0,0,1,.377,1.312v16.845a1.73,1.73,0,0,1-.372,1.314,1.6,1.6,0,0,1-1.1-.212,42.672,42.672,0,0,0-11.409-2.563c-.877-.094-1.758-.121-2.633-.224a9.8,9.8,0,0,0-1.286-.185.678.678,0,0,1-.248-.142,6.1,6.1,0,0,1-.111-2.788c.043-.457.481-.637.81-.882a4.017,4.017,0,1,0-5.695-5.182,3.91,3.91,0,0,0,.717,4.419,2.314,2.314,0,0,0,.648.595,1.894,1.894,0,0,1,1.087,2.246,3.825,3.825,0,0,1-.172,1.564.623.623,0,0,1-.24.16c-.422.124-.876.029-1.292.193a53.436,53.436,0,0,0-9.179,1.269,33.636,33.636,0,0,0-4.885,1.543,1.467,1.467,0,0,1-1.1.19,1.715,1.715,0,0,1-.371-1.313q0-8.423,0-16.846a1.707,1.707,0,0,1,.375-1.312c.3-.2.568-.045.837.063a44.756,44.756,0,0,0,14.65,2.9,54.464,54.464,0,0,0,13.768-1.066,31.333,31.333,0,0,0,5.744-1.73C730.278,600.507,730.613,600.239,731.018,600.478Z" transform="translate(-9.142 -199.044)" fill="#fff2bf"/>
    <path id="Trazado_188012" data-name="Trazado 188012" d="M740.781,512.174c0,1.21-.025,2.42.011,3.629.016.541-.084.755-.7.751-2.142-.014-2.114.014-2.15-2.131a53.034,53.034,0,0,0-.154-6.8,11.315,11.315,0,0,0-22.334-.009,59.85,59.85,0,0,0-.145,8.043c-.006.742-.185.924-.917.9-1.938-.054-1.966-.017-1.932-1.981a62.531,62.531,0,0,1,.143-7.072,14.155,14.155,0,0,1,27.839-1.143A28.493,28.493,0,0,1,740.781,512.174Z" transform="translate(-22.778 -118.818)" fill="#dfdfdd"/>
    <path id="Trazado_188013" data-name="Trazado 188013" d="M765.382,519.359c2.67-.74,6.207.61,8.138,3.124a8.218,8.218,0,0,1,1.767,5c.029,2.213,0,4.426.022,6.639.006.495-.125.655-.637.65-3.1-.032-6.2-.03-9.293-.04a3.729,3.729,0,0,1-.07-2.809c1.2-.225,1.273-1.059,1.239-2.077-.065-1.938-.066-3.882,0-5.82.035-1-.065-1.79-1.228-2A3.3,3.3,0,0,1,765.382,519.359Z" transform="translate(-62.962 -137.04)" fill="#aab2d3"/>
    <path id="Trazado_188014" data-name="Trazado 188014" d="M696.131,671.215a36.547,36.547,0,0,1,10.135-2.78,24.879,24.879,0,0,1,5.075-.4c.391-.225.853.062,1.241-.174l.2-.009a3.3,3.3,0,0,1,2.794,0l.2.009c.389.236.851-.051,1.242.174a45.723,45.723,0,0,1,8.175.982,31.917,31.917,0,0,1,7.033,2.2,1.743,1.743,0,0,1-1.694.888q-16.35.005-32.7,0A1.747,1.747,0,0,1,696.131,671.215Z" transform="translate(-10.338 -250.309)" fill="#fffbe9"/>
    <path id="Trazado_188015" data-name="Trazado 188015" d="M732.229,597.927a49.6,49.6,0,0,1-36.077,0,1.871,1.871,0,0,1,1.87-.886q6.45.005,12.9,0,9.675,0,19.349,0A1.937,1.937,0,0,1,732.229,597.927Z" transform="translate(-10.354 -196.492)" fill="#fffbe9"/>
    <path id="Trazado_188016" data-name="Trazado 188016" d="M743.373,520.01q0,1.31,0,2.62c-1.121.285-1.192,1.1-1.16,2.076q.1,2.908,0,5.821c-.032.981.039,1.792,1.16,2.076q0,1.388,0,2.775-3.27.015-6.539.028c-.256,0-.554.065-.54-.362.1-2.852-.3-5.729.22-8.554A8.232,8.232,0,0,1,743.373,520.01Z" transform="translate(-40.953 -137.691)" fill="#dadeec"/>
    <path id="Trazado_188017" data-name="Trazado 188017" d="M802.176,465.685a13.926,13.926,0,0,0,.365-2.247.547.547,0,0,1,.587-.5,1.641,1.641,0,0,0,1.132-1.311,13.228,13.228,0,0,1,.928-2.281,1.642,1.642,0,0,1,1.662-1.061c.939.03,1.879-.017,2.818.021.519.021.862.217.732.816a56.225,56.225,0,0,0-.836,5.836.983.983,0,0,1-.341.782,2.719,2.719,0,0,1-1.3.158,53.984,53.984,0,0,1-5.538-.114Z" transform="translate(-91.288 -90.573)" fill="#aab2d3"/>
    <path id="Trazado_188018" data-name="Trazado 188018" d="M837.621,521.02l-1.213-.513a5.612,5.612,0,0,1-1.557-2.843,18.414,18.414,0,0,0-2.533-8.975,2.694,2.694,0,0,1-.244-2.214c.751-.687,1.655-.342,2.5-.37.565.1.623.536.679.99.174,1.431.473,2.839.753,4.253.205,1.041.491,1.914,1.716,2.061a6.231,6.231,0,0,1,.147,2.574,2.005,2.005,0,0,0,.27,1.322c.353.938,1.2,1.638,1.29,2.7a.46.46,0,0,1-.393.128.878.878,0,0,0-1.168.676A.384.384,0,0,1,837.621,521.02Z" transform="translate(-113.985 -127.028)" fill="#dadeec"/>
    <path id="Trazado_188019" data-name="Trazado 188019" d="M803.06,489.41c.269-.266.61-.154.919-.155,1.989-.009,3.979,0,5.969,0a3.52,3.52,0,0,1,.066,2.868,3.708,3.708,0,0,1-2.9-.028A25.012,25.012,0,0,0,803.06,489.41Z" transform="translate(-91.963 -114.197)" fill="#dadeec"/>
    <path id="Trazado_188020" data-name="Trazado 188020" d="M820.208,501.281l2.83-.009a1.524,1.524,0,0,1,.212,1.541,14.013,14.013,0,0,0,.136,2.234A26.5,26.5,0,0,0,820.208,501.281Z" transform="translate(-105.053 -123.387)" fill="#aab2d3"/>
    <path id="Trazado_188021" data-name="Trazado 188021" d="M844.323,555.153,845.88,558a5.27,5.27,0,0,1-1.563-.717Q844.32,556.216,844.323,555.153Z" transform="translate(-123.457 -164.518)" fill="#dadeec"/>
    <path id="Trazado_188022" data-name="Trazado 188022" d="M807.228,434.288l-.212-1.541v-2.831a43.076,43.076,0,0,1,.9-6.536c.1-.4.044-.574-.437-.558-1.116.036-2.234.029-3.351,0a.732.732,0,0,0-.74.48,12.472,12.472,0,0,0-1.265,3.086c-.176.784-.466,1.106-1.253.841-.023-.019-.043-.047-.069-.055-1.818-.517-1.863-.534-1.165-2.363,2.784-7.291,8-11.836,15.71-13.036,7.562-1.177,13.831,1.494,18.69,7.421.168.205.331.414.5.621a20.4,20.4,0,0,1,3.653,12.139,19.93,19.93,0,0,1-17.5,19.06,21.665,21.665,0,0,1-7.363-.5c-.816-.2-1.2-.478-.74-1.323a1.341,1.341,0,0,0,.083-.338,1.462,1.462,0,0,0,.133-.319c.13-.807.5-1.175,1.326-.751a.921.921,0,0,0,.342.025,4,4,0,0,1,1.574.087c.448.023.661-.131.652-.6q-.021-1.061,0-2.123c.012-.609-.277-.845-.861-.838-.708.009-1.416.013-2.123-.005-.347-.009-.718.039-.992-.261v-2.817c.693-.5,1.484-.25,2.23-.266,1.88-.039,1.726.079,1.731-1.737,0-1.711.009-3.422,0-5.133-.007-1.02-.085-1.092-1.125-1.1-1.416-.009-2.832,0-4.248,0-.586,0-1.15-.011-1.2.8-.015.263-.293.244-.477.314Z" transform="translate(-89.031 -54.862)"/>
    <path id="Trazado_188023" data-name="Trazado 188023" d="M811.465,390.31c-6.757,0-13.513-.009-20.27.015-.684,0-.977-.086-.953-.882.059-1.964.014-1.966,1.977-1.966q19.783,0,39.566-.021c.832,0,1.016.238.993,1.021-.055,1.832-.016,1.833-1.84,1.833Z" transform="translate(-82.178 -36.505)"/>
    <path id="Trazado_188024" data-name="Trazado 188024" d="M839.607,363.6c1.454,0,1.454,0,1.454,1.49,0,1.343,0,1.343-1.335,1.343-1.5,0-1.5,0-1.5-1.534C838.227,363.6,838.227,363.6,839.607,363.6Z" transform="translate(-118.808 -18.294)"/>
    <path id="Trazado_188025" data-name="Trazado 188025" d="M817.117,365.053c0,1.38,0,1.38-1.387,1.38-1.446,0-1.446,0-1.446-1.409,0-1.424,0-1.424,1.431-1.424C817.117,363.6,817.117,363.6,817.117,365.053Z" transform="translate(-100.531 -18.294)"/>
    <path id="Trazado_188026" data-name="Trazado 188026" d="M791.794,363.6c1.379,0,1.379,0,1.379,1.388,0,1.445,0,1.445-1.41,1.445s-1.423,0-1.423-1.432C790.34,363.6,790.34,363.6,791.794,363.6Z" transform="translate(-82.253 -18.294)"/>
    <path id="Trazado_188027" data-name="Trazado 188027" d="M759.968,632.3h-2.794c-.007-.324-.032-.65-.016-.972.061-1.175.054-2.127-1.264-2.9a3.843,3.843,0,0,1-1.259-4.816,4.25,4.25,0,0,1,8.085.669,4.1,4.1,0,0,1-1.949,4.544,1.3,1.3,0,0,0-.795,1.44C760.023,630.941,759.974,631.622,759.968,632.3Z" transform="translate(-54.733 -214.759)"/>
    <path id="Trazado_188028" data-name="Trazado 188028" d="M761.642,668.839c-.375.338-.829.109-1.241.174C760.776,668.68,761.23,668.905,761.642,668.839Z" transform="translate(-59.399 -251.29)" fill="#feae21"/>
    <path id="Trazado_188029" data-name="Trazado 188029" d="M780.36,669.013c-.413-.065-.867.164-1.242-.174C779.531,668.905,779.984,668.68,780.36,669.013Z" transform="translate(-73.687 -251.29)" fill="#feae21"/>
    <path id="Trazado_188030" data-name="Trazado 188030" d="M761.744,541c-1.412-.073-1.412-.073-1.412-1.544,0-2.443.043-4.886-.023-7.327-.024-.876.185-1.252,1.085-1.079a1.349,1.349,0,0,0,.35-.025c1.421.074,1.421.074,1.421,1.544,0,2.442-.045,4.886.023,7.327.025.887-.2,1.245-1.094,1.079A1.386,1.386,0,0,0,761.744,541Z" transform="translate(-59.327 -146.089)"/>
    <path id="Trazado_188031" data-name="Trazado 188031" d="M843.214,502.625c.369-.132.355-.426.286-.722-.132-.574.126-.683.652-.675,1.913.028,3.827.025,5.74,0,.48-.006.659.1.653.624-.027,2.413-.033,4.828,0,7.241.009.592-.217.666-.715.654-1.177-.028-2.355,0-3.532,0-1.391-.019-1.4-.017-1.725-1.321a30.033,30.033,0,0,1-.944-5.239C843.612,502.884,843.54,502.674,843.214,502.625Z" transform="translate(-122.615 -123.353)" fill="#aab2d3"/>
    <path id="Trazado_188032" data-name="Trazado 188032" d="M855.764,549.114c1.2,0,2.407.03,3.609,0,.506-.014.653.142.635.641-.037,1-.023,2,0,2.993.007.39-.037.594-.524.507a8.609,8.609,0,0,1-1.963-.4,25.611,25.611,0,0,1-1.734-3.133C855.7,549.533,855.455,549.323,855.764,549.114Z" transform="translate(-132.078 -159.905)" fill="#aab2d3"/>
    <path id="Trazado_188033" data-name="Trazado 188033" d="M886.077,505.494c0-1.236.016-2.472-.009-3.708-.008-.426.13-.55.55-.546q3,.028,6,0c.461,0,.531.181.5.58a36.234,36.234,0,0,1-1.3,7.368.673.673,0,0,1-.8.569c-1.442-.026-2.885-.032-4.326,0-.511.012-.647-.15-.634-.645C886.1,507.908,886.077,506.7,886.077,505.494Z" transform="translate(-155.325 -123.363)" fill="#aab2d3"/>
    <path id="Trazado_188034" data-name="Trazado 188034" d="M851.409,462.92c0,.971-.025,1.943.011,2.913.018.479-.151.59-.6.585q-2.913-.033-5.826,0c-.479.005-.671-.089-.622-.629a41.823,41.823,0,0,1,.881-5.836c.1-.406.212-.654.73-.641,1.617.04,3.237.033,4.855,0,.479-.009.6.153.583.6C851.388,460.918,851.409,461.919,851.409,462.92Z" transform="translate(-123.49 -91.355)" fill="#aab2d3"/>
    <path id="Trazado_188035" data-name="Trazado 188035" d="M886.075,462.841c0-.942.026-1.884-.01-2.825-.02-.51.079-.724.661-.708,1.588.044,3.178.03,4.767.005.423-.006.616.116.717.539a40.656,40.656,0,0,1,.907,6.01c.038.442-.106.554-.524.55-2-.016-4-.02-6,0-.456,0-.53-.181-.522-.573C886.089,464.842,886.075,463.841,886.075,462.841Z" transform="translate(-155.323 -91.353)" fill="#aab2d3"/>
    <path id="Trazado_188036" data-name="Trazado 188036" d="M922.2,509.757a38.227,38.227,0,0,0,1.337-8.093c.017-.295.122-.411.423-.409,1.594.009,3.187.012,4.781,0,.367,0,.422.123.386.468a16.577,16.577,0,0,1-2.855,7.708.7.7,0,0,1-.659.334C924.522,509.75,923.431,509.757,922.2,509.757Z" transform="translate(-182.909 -123.373)" fill="#aab2d3"/>
    <path id="Trazado_188037" data-name="Trazado 188037" d="M927.888,466.4h-1.324c-1.528,0-1.532,0-1.633-1.488a28.45,28.45,0,0,0-.727-4.876c-.137-.558-.028-.766.6-.733,1.027.053,2.059.032,3.088.005a.79.79,0,0,1,.83.482,17.266,17.266,0,0,1,1.885,6.017c.053.464-.022.625-.51.6C929.36,466.374,928.623,466.4,927.888,466.4Z" transform="translate(-184.399 -91.348)" fill="#aab2d3"/>
    <path id="Trazado_188038" data-name="Trazado 188038" d="M858.048,423.694c0,1.784,0,3.511,0,5.239,0,.252-.086.374-.353.373-1.44,0-2.879-.009-4.318,0-.4,0-.343-.206-.248-.444a25.886,25.886,0,0,1,2.341-4.523.832.832,0,0,1,.663-.361C856.744,423.9,857.35,423.8,858.048,423.694Z" transform="translate(-130.131 -64.168)" fill="#aab2d3"/>
    <path id="Trazado_188039" data-name="Trazado 188039" d="M891.131,429.5c-1.563,0-3.058-.012-4.553.008-.4.005-.493-.146-.489-.514q.023-2.291,0-4.582c0-.369.071-.475.487-.46a2.81,2.81,0,0,1,2.838,1.737A35.668,35.668,0,0,1,891.131,429.5Z" transform="translate(-155.343 -64.364)" fill="#aab2d3"/>
    <path id="Trazado_188040" data-name="Trazado 188040" d="M890.566,549.144a19.79,19.79,0,0,1-1.651,3.167,3.379,3.379,0,0,1-2.636.984c-.256-.076-.184-.265-.185-.416-.008-1.086.011-2.172-.013-3.257-.009-.4.156-.488.518-.484C887.883,549.153,889.168,549.144,890.566,549.144Z" transform="translate(-155.337 -159.926)" fill="#aab2d3"/>
    <path id="Trazado_188041" data-name="Trazado 188041" d="M918.323,435.5c-1.044,0-1.887-.023-2.729.009-.452.017-.511-.282-.625-.586a19.089,19.089,0,0,0-1.387-3.114A16.566,16.566,0,0,1,918.323,435.5Z" transform="translate(-176.33 -70.361)" fill="#aab2d3"/>
    <path id="Trazado_188042" data-name="Trazado 188042" d="M827,436.518a15.607,15.607,0,0,1,3.761-3.14c.141-.085.3-.249.461-.08.146.153.015.328-.052.485s-.147.319-.215.48c-.316.751-.442,1.9-.99,2.159C829.178,436.795,828.086,436.518,827,436.518Z" transform="translate(-110.235 -71.443)" fill="#aab2d3"/>
    <path id="Trazado_188043" data-name="Trazado 188043" d="M917.691,549.2a14.526,14.526,0,0,1-3.013,2.065C915.385,549.092,915.385,549.092,917.691,549.2Z" transform="translate(-177.167 -159.945)" fill="#aab2d3"/>
    <path id="Trazado_188044" data-name="Trazado 188044" d="M767.851,632.977a1.414,1.414,0,1,1-1.44,1.362A1.407,1.407,0,0,1,767.851,632.977Z" transform="translate(-63.986 -223.925)" fill="#fff2bf"/>
  </g>
</svg>
