<svg xmlns="http://www.w3.org/2000/svg" xmlns:xlink="http://www.w3.org/1999/xlink" width="129.617" height="126.069" viewBox="0 0 129.617 126.069">
  <defs>
    <linearGradient id="linear-gradient" y1="0.5" x2="1" y2="0.5" gradientUnits="objectBoundingBox">
      <stop offset="0" stop-color="#f0efec"/>
      <stop offset="1" stop-color="#fffefb"/>
    </linearGradient>
    <linearGradient id="linear-gradient-2" x1="0.519" y1="0.487" x2="0.643" y2="0.685" gradientUnits="objectBoundingBox">
      <stop offset="0" stop-color="#c2c1bf"/>
      <stop offset="1" stop-color="#e3e2df"/>
    </linearGradient>
    <linearGradient id="linear-gradient-3" x1="0.276" y1="0.5" x2="0.233" y2="0.5" gradientUnits="objectBoundingBox">
      <stop offset="0" stop-color="#d2d1ce"/>
      <stop offset="1" stop-color="#b6b5b3"/>
    </linearGradient>
    <linearGradient id="linear-gradient-4" y1="0.5" x2="1" y2="0.5" gradientUnits="objectBoundingBox">
      <stop offset="0" stop-color="#f0efec"/>
      <stop offset="1" stop-color="#f6f5f2"/>
    </linearGradient>
    <linearGradient id="linear-gradient-5" x1="-22.809" y1="0.438" x2="-22.758" y2="0.581" gradientUnits="objectBoundingBox">
      <stop offset="0" stop-color="#2d3133"/>
      <stop offset="0.172" stop-color="#2d3133"/>
      <stop offset="0.456" stop-color="#4e5254"/>
      <stop offset="0.478" stop-color="#4e5254"/>
      <stop offset="0.609" stop-color="#4e5254"/>
      <stop offset="0.653" stop-color="#3c4042"/>
      <stop offset="0.705" stop-color="#2d3133"/>
    </linearGradient>
    <linearGradient id="linear-gradient-6" x1="-13.863" y1="0.5" x2="-12.863" y2="0.5" gradientUnits="objectBoundingBox">
      <stop offset="0" stop-color="#eef1f1"/>
      <stop offset="1" stop-color="#f6f7f3"/>
    </linearGradient>
    <linearGradient id="linear-gradient-7" x1="-436.8" y1="-80.164" x2="-436.8" y2="-79.754" gradientUnits="objectBoundingBox">
      <stop offset="0.253" stop-color="#3b3b3b"/>
      <stop offset="0.426" stop-color="#636363"/>
      <stop offset="0.579" stop-color="#545454"/>
      <stop offset="0.732" stop-color="#3b3b3b"/>
    </linearGradient>
    <linearGradient id="linear-gradient-8" x1="-99.09" y1="0.279" x2="-98.961" y2="0.603" gradientUnits="objectBoundingBox">
      <stop offset="0" stop-color="#f5dfc1"/>
      <stop offset="0.259" stop-color="#f4ddbf"/>
      <stop offset="0.352" stop-color="#f1d9b8"/>
      <stop offset="0.418" stop-color="#ebd1ac"/>
      <stop offset="0.432" stop-color="#eacfa9"/>
      <stop offset="0.523" stop-color="#e6c69e"/>
      <stop offset="0.829" stop-color="#dbad7f"/>
      <stop offset="1" stop-color="#d7a474"/>
    </linearGradient>
    <clipPath id="clip-path">
      <path id="Trazado_189735" data-name="Trazado 189735" d="M314.833,444.586a1.49,1.49,0,0,1,.646.32l2.226,2.01-.319.185-3.459-1.263c-.135-.1-.345-.186-.389-.309l-.467-1,.158-.091Z" transform="translate(-313.071 -444.433)" fill="none"/>
    </clipPath>
    <linearGradient id="linear-gradient-9" x1="0.475" y1="0.393" x2="0.546" y2="0.581" gradientUnits="objectBoundingBox">
      <stop offset="0" stop-color="#f7f6f3"/>
      <stop offset="1" stop-color="#f0efec"/>
    </linearGradient>
    <radialGradient id="radial-gradient" cx="0.468" cy="0.02" r="1.297" gradientTransform="translate(0.196) scale(0.608 1)" gradientUnits="objectBoundingBox">
      <stop offset="0" stop-color="#fdfcf9"/>
      <stop offset="1" stop-color="#d2d1ce"/>
    </radialGradient>
    <clipPath id="clip-path-2">
      <path id="Trazado_189788" data-name="Trazado 189788" d="M376.843,346.948a6.843,6.843,0,0,0,1.857.768.912.912,0,0,0,.441-.077c.151-.076.241-.227.183-.531l-.264-1.319s-1.19-1.046-1.716-.438A1.6,1.6,0,0,0,376.843,346.948Z" transform="translate(-376.772 -345.161)" fill="none"/>
    </clipPath>
  </defs>
  <g id="Grupo_133446" data-name="Grupo 133446" transform="translate(-269.394 -272.335)">
    <g id="_4" data-name="4" transform="translate(269.394 272.336)">
      <g id="Grupo_133379" data-name="Grupo 133379" transform="translate(12.379)">
        <g id="Grupo_133378" data-name="Grupo 133378">
          <g id="Grupo_133377" data-name="Grupo 133377" transform="translate(20.193 46.481)" style="isolation: isolate">
            <path id="Trazado_189692" data-name="Trazado 189692" d="M333.437,368.549l-14.894,8.646,6.23,3.6,14.894-8.646Z" transform="translate(-316.313 -346.903)" fill="url(#linear-gradient)"/>
            <path id="Trazado_189693" data-name="Trazado 189693" d="M342.318,373.738a.309.309,0,0,0-.046-.077.145.145,0,0,0-.038-.033l-14.895,8.646a.162.162,0,0,1,.038.033.335.335,0,0,1,.046.077c.1.233.094.721-.022.788l14.895-8.645C342.413,374.459,342.421,373.971,342.318,373.738Z" transform="translate(-318.882 -348.386)" fill="#d2d1ce"/>
            <path id="Trazado_189694" data-name="Trazado 189694" d="M331.628,362.152a2.059,2.059,0,0,1-.135-1.646l4.049-8.959-14.894,8.645-4.05,8.96a2.06,2.06,0,0,0,.132,1.641,3.539,3.539,0,0,0,.569.9,2.61,2.61,0,0,0,.641.537l14.895-8.646a2.6,2.6,0,0,1-.641-.537A3.545,3.545,0,0,1,331.628,362.152Z" transform="translate(-315.712 -341.94)" fill="url(#linear-gradient-2)"/>
            <path id="Trazado_189695" data-name="Trazado 189695" d="M323.853,375.431l-6.23-3.6a3.1,3.1,0,0,1-1.207-1.433,2.064,2.064,0,0,1-.135-1.646l4.05-8.96.028-.159.025-8.724a.83.83,0,0,0-.388-.672c-.209-.12-.376-.025-.377.231l-.025,8.644L315.559,368a3.3,3.3,0,0,0,.216,2.525,4.757,4.757,0,0,0,1.846,2.2l6.23,3.6C324.059,376.447,324.062,375.552,323.853,375.431Z" transform="translate(-315.394 -341.544)" fill="#b6b5b3"/>
            <path id="Trazado_189696" data-name="Trazado 189696" d="M337,338.4a.882.882,0,0,0-.144-.225.705.705,0,0,0-.178-.149.263.263,0,0,0-.264-.027l-14.894,8.646a.263.263,0,0,1,.264.027.731.731,0,0,1,.178.149.9.9,0,0,1,.143.225.743.743,0,0,1,.067.3l-.025,8.724-.028.159,14.895-8.645.028-.16.025-8.723A.743.743,0,0,0,337,338.4Z" transform="translate(-317.183 -337.979)" fill="#b6b5b3"/>
          </g>
          <g id="_1" data-name="1">
            <path id="Trazado_189697" data-name="Trazado 189697" d="M288.087,370.142l-1.192-.693-.018-46.571,1.192.693Z" transform="translate(-286.877 -287.09)" fill="#b6b5b3"/>
            <path id="Trazado_189698" data-name="Trazado 189698" d="M288.069,308.817l-1.192-.693,61.988-35.789,1.192.693Z" transform="translate(-286.877 -272.336)" fill="#fffefb"/>
            <path id="Trazado_189699" data-name="Trazado 189699" d="M350.548,273.314l.018,46.571-61.988,35.789L288.56,309.1Z" transform="translate(-287.368 -272.621)" fill="#d2d1ce"/>
            <path id="Trazado_189700" data-name="Trazado 189700" d="M288.94,309.538l61.434-35.47-.009,40.343-61.435,35.469Z" transform="translate(-287.477 -272.842)" fill="#101014"/>
          </g>
          <path id="Trazado_189701" data-name="Trazado 189701" d="M336.953,357.043l-2.184,1.261c-.3.173-.544.071-.544-.229a1.128,1.128,0,0,1,.544-.857l2.184-1.261c.3-.173.543-.07.543.23A1.125,1.125,0,0,1,336.953,357.043Z" transform="translate(-300.699 -296.721)" fill="#2280d6"/>
        </g>
      </g>
      <g id="Grupo_133383" data-name="Grupo 133383" transform="translate(13.876 1.337)">
        <g id="Grupo_133382" data-name="Grupo 133382">
          <g id="Grupo_133380" data-name="Grupo 133380">
            <path id="Trazado_189702" data-name="Trazado 189702" d="M350.35,315.311l-61.359,35.426V312.8l61.359-35.426Z" transform="translate(-288.991 -275.144)" fill="#788eff" opacity="0.2"/>
            <path id="Trazado_189703" data-name="Trazado 189703" d="M350.35,315.311l-61.359,35.426V312.8l61.359-35.426Z" transform="translate(-288.991 -275.144)" fill="#fff2bf" opacity="0.2"/>
            <path id="Trazado_189704" data-name="Trazado 189704" d="M290.17,315.407V350.1l44.476-25.679c0-.027,16.046-9.291,16.046-9.291V280.465Z" transform="translate(-289.335 -276.046)" fill="#fff2bf" opacity="0.5"/>
            <path id="Trazado_189705" data-name="Trazado 189705" d="M350.35,276.576,288.991,312V309.65l61.359-35.426Z" transform="translate(-288.991 -274.224)" fill="#fff2bf"/>
          </g>
          <g id="Grupo_133381" data-name="Grupo 133381" transform="translate(56.306 0.782)">
            <path id="Trazado_189706" data-name="Trazado 189706" d="M369.825,279.3l-1.315.759v-1.315l1.315-.759Z" transform="translate(-368.51 -276.105)" fill="#5373f9"/>
            <path id="Trazado_189707" data-name="Trazado 189707" d="M372.127,277.973l-1.315.759v-1.315l1.315-.759Z" transform="translate(-369.182 -275.717)" fill="#5373f9"/>
            <path id="Trazado_189708" data-name="Trazado 189708" d="M371.106,277.64v.9l.9-.518v-.9Zm.744.315-.59.341v-.59l.59-.341Z" transform="translate(-369.268 -275.852)" fill="#f7f8ff"/>
            <path id="Trazado_189709" data-name="Trazado 189709" d="M374.429,276.644l-1.315.759v-1.315l1.315-.759Z" transform="translate(-369.854 -275.329)" fill="#5373f9"/>
            <path id="Trazado_189710" data-name="Trazado 189710" d="M373.418,276.444l.351.148-.351.554.113.048.351-.554.351.148.113-.178-.351-.148.351-.554-.113-.048-.351.554-.351-.148Z" transform="translate(-369.943 -275.484)" fill="#f7f8ff"/>
            <path id="Trazado_189711" data-name="Trazado 189711" d="M369.7,279.673l-.842.486V280l.842-.486Z" transform="translate(-368.61 -276.55)" fill="#f7f8ff"/>
          </g>
        </g>
      </g>
      <g id="Grupo_133386" data-name="Grupo 133386" transform="translate(46.786 52.513)">
        <g id="Grupo_133385" data-name="Grupo 133385">
          <path id="Trazado_189712" data-name="Trazado 189712" d="M324.171,393.931v1.035a.666.666,0,0,0,.393.548l19.458,11.234a2.094,2.094,0,0,0,1.9,0l60.69-35.04a.666.666,0,0,0,.392-.547v-1Z" transform="translate(-324.17 -358.143)" fill="url(#linear-gradient-3)"/>
          <g id="Grupo_133384" data-name="Grupo 133384">
            <path id="Trazado_189713" data-name="Trazado 189713" d="M406.608,372.078l-60.69,35.04a2.094,2.094,0,0,1-1.9,0l-19.458-11.234a.578.578,0,0,1,0-1.095l60.69-35.04a2.091,2.091,0,0,1,1.9,0l19.459,11.234A.578.578,0,0,1,406.608,372.078Z" transform="translate(-324.17 -359.522)" fill="url(#linear-gradient-4)"/>
            <path id="Trazado_189714" data-name="Trazado 189714" d="M376.1,366.532a.178.178,0,0,1,0-.085.182.182,0,0,1,0-.086.275.275,0,0,1,.167-.295l2.492-1.439a.967.967,0,0,1,.877,0l2.1,1.21a.278.278,0,0,1,.167.3.215.215,0,0,1,0,.085.221.221,0,0,1,0,.086.276.276,0,0,1-.167.295l-2.493,1.439a.966.966,0,0,1-.877,0l-2.1-1.21A.277.277,0,0,1,376.1,366.532Zm4.191-2.028,2.1,1.211a.974.974,0,0,0,.877,0l2.493-1.439a.278.278,0,0,0,.167-.3.215.215,0,0,0,0-.085.22.22,0,0,0,0-.086.276.276,0,0,0-.167-.295l-2.1-1.211a.974.974,0,0,0-.877,0l-2.492,1.439a.276.276,0,0,0-.167.3.179.179,0,0,0,0,.085.184.184,0,0,0,0,.086A.274.274,0,0,0,380.294,364.5Zm-8.048,4.646,2.1,1.211a.973.973,0,0,0,.877,0l2.493-1.439a.278.278,0,0,0,.167-.3.213.213,0,0,0,0-.085.219.219,0,0,0,0-.086.276.276,0,0,0-.167-.295l-2.1-1.211a.975.975,0,0,0-.877,0l-2.492,1.439a.277.277,0,0,0-.167.3.179.179,0,0,0,0,.085.184.184,0,0,0,0,.086A.274.274,0,0,0,372.246,369.151ZM339.809,396.3l2.1,1.211a.974.974,0,0,0,.877,0l2.493-1.439a.278.278,0,0,0,.167-.3.215.215,0,0,0,0-.085.221.221,0,0,0,0-.086.276.276,0,0,0-.167-.295l-2.1-1.211a.973.973,0,0,0-.877,0l-2.492,1.439a.277.277,0,0,0-.167.3.179.179,0,0,0,0,.085.184.184,0,0,0,0,.086A.275.275,0,0,0,339.809,396.3Zm8.783-13.514,2.1,1.21a.967.967,0,0,0,.877,0l2.492-1.438a.277.277,0,0,0,.167-.3.218.218,0,0,0,0-.086.213.213,0,0,0,0-.085.277.277,0,0,0-.167-.3l-2.1-1.21a.969.969,0,0,0-.878,0l-2.492,1.439a.276.276,0,0,0-.167.3.213.213,0,0,0,0,.085.213.213,0,0,0,0,.085A.276.276,0,0,0,348.592,382.784Zm8.048-4.646,2.1,1.21a.968.968,0,0,0,.877,0l2.492-1.439a.275.275,0,0,0,.167-.295.221.221,0,0,0,0-.086.215.215,0,0,0,0-.085.277.277,0,0,0-.167-.3l-2.1-1.21a.969.969,0,0,0-.878,0l-2.492,1.439a.275.275,0,0,0-.167.3.213.213,0,0,0,0,.085.213.213,0,0,0,0,.085A.276.276,0,0,0,356.64,378.137Zm8.048-4.646,2.1,1.21a.967.967,0,0,0,.877,0l3.789-2.188a.275.275,0,0,0,.167-.295.184.184,0,0,0,0-.086.179.179,0,0,0,0-.085.276.276,0,0,0-.167-.3l-2.1-1.21a.967.967,0,0,0-.877,0l-3.79,2.188a.274.274,0,0,0-.167.295.219.219,0,0,0,0,.086.213.213,0,0,0,0,.085A.276.276,0,0,0,364.687,373.491Zm-4.024,2.323,2.1,1.211a.974.974,0,0,0,.877,0l2.492-1.439a.277.277,0,0,0,.167-.3.215.215,0,0,0,0-.085.221.221,0,0,0,0-.086.275.275,0,0,0-.167-.295l-2.1-1.211a.977.977,0,0,0-.878,0l-2.492,1.439a.276.276,0,0,0-.167.3.216.216,0,0,0,0,.085.22.22,0,0,0,0,.086A.274.274,0,0,0,360.664,375.814Zm-8.048,4.647,2.1,1.21a.967.967,0,0,0,.877,0l2.492-1.439a.276.276,0,0,0,.167-.3.213.213,0,0,0,0-.085.213.213,0,0,0,0-.085.275.275,0,0,0-.167-.3l-2.1-1.21a.969.969,0,0,0-.878,0l-2.492,1.438a.277.277,0,0,0-.167.3.213.213,0,0,0,0,.085.219.219,0,0,0,0,.086A.277.277,0,0,0,352.616,380.461Zm17.117-5.618,2.1,1.21a.967.967,0,0,0,.877,0l2.493-1.439a.276.276,0,0,0,.167-.295.221.221,0,0,0,0-.086.215.215,0,0,0,0-.085.278.278,0,0,0-.167-.3l-2.1-1.21a.967.967,0,0,0-.877,0l-2.492,1.439a.275.275,0,0,0-.167.3.179.179,0,0,0,0,.085.179.179,0,0,0,0,.085A.276.276,0,0,0,369.733,374.843Zm-32.191,18.585,2.1,1.211a.974.974,0,0,0,.877,0l2.493-1.439a.278.278,0,0,0,.167-.3.215.215,0,0,0,0-.085.221.221,0,0,0,0-.086.276.276,0,0,0-.167-.295l-2.1-1.211a.974.974,0,0,0-.877,0l-2.492,1.439a.277.277,0,0,0-.167.3.178.178,0,0,0,0,.085.182.182,0,0,0,0,.086A.275.275,0,0,0,337.542,393.428Zm28.167-16.261,2.1,1.21a.969.969,0,0,0,.878,0l2.492-1.439a.277.277,0,0,0,.167-.3.213.213,0,0,0,0-.085.213.213,0,0,0,0-.085.277.277,0,0,0-.167-.3l-2.1-1.21a.967.967,0,0,0-.877,0l-2.492,1.438a.277.277,0,0,0-.167.3.179.179,0,0,0,0,.085.184.184,0,0,0,0,.086A.277.277,0,0,0,365.709,377.167Zm-4.024,2.323,2.1,1.21a.969.969,0,0,0,.878,0l2.492-1.438a.278.278,0,0,0,.167-.3.221.221,0,0,0,0-.086.215.215,0,0,0,0-.085.278.278,0,0,0-.167-.3l-2.1-1.21a.967.967,0,0,0-.877,0l-2.492,1.439a.276.276,0,0,0-.167.3.179.179,0,0,0,0,.085.179.179,0,0,0,0,.085A.276.276,0,0,0,361.685,379.49Zm-4.024,2.324,2.1,1.21a.97.97,0,0,0,.878,0l2.492-1.439a.276.276,0,0,0,.167-.3.215.215,0,0,0,0-.085.215.215,0,0,0,0-.085.276.276,0,0,0-.167-.3l-2.1-1.21a.967.967,0,0,0-.877,0l-2.492,1.438a.277.277,0,0,0-.167.3.182.182,0,0,0,0,.086.178.178,0,0,0,0,.085A.277.277,0,0,0,357.661,381.813Zm-16.1,9.293,2.1,1.21a.969.969,0,0,0,.878,0l2.492-1.439a.276.276,0,0,0,.167-.295.218.218,0,0,0,0-.086.213.213,0,0,0,0-.085.277.277,0,0,0-.167-.3l-2.1-1.21a.967.967,0,0,0-.877,0l-2.492,1.439a.274.274,0,0,0-.167.295.184.184,0,0,0,0,.086.179.179,0,0,0,0,.085A.276.276,0,0,0,341.566,391.106Zm4.024-2.324,2.1,1.211a.977.977,0,0,0,.878,0l2.492-1.439a.278.278,0,0,0,.167-.3.213.213,0,0,0,0-.085.218.218,0,0,0,0-.086.276.276,0,0,0-.167-.295c-3.084-1.781-2.042-1.749-5.465.228a.276.276,0,0,0-.167.3.179.179,0,0,0,0,.085.184.184,0,0,0,0,.086A.275.275,0,0,0,345.589,388.782Zm4.024-2.323,2.1,1.21a.967.967,0,0,0,.877,0l2.493-1.439a.277.277,0,0,0,.167-.3.217.217,0,0,0,0-.085.217.217,0,0,0,0-.085.277.277,0,0,0-.167-.3l-2.1-1.21a.967.967,0,0,0-.877,0l-2.492,1.439a.274.274,0,0,0-.167.295.183.183,0,0,0,0,.086.178.178,0,0,0,0,.085A.277.277,0,0,0,349.613,386.46Zm4.024-2.324c2.057,1.188,2.414,1.533,2.972,1.21l2.493-1.438a.278.278,0,0,0,.167-.3.215.215,0,0,0,0-.085.221.221,0,0,0,0-.086.278.278,0,0,0-.167-.3l-2.1-1.21a.967.967,0,0,0-.877,0l-2.492,1.439a.276.276,0,0,0-.167.3.179.179,0,0,0,0,.085.179.179,0,0,0,0,.085A.275.275,0,0,0,353.637,384.136Zm-7.174,15.314a.219.219,0,0,0,0-.086.213.213,0,0,0,0-.085.278.278,0,0,0-.167-.3l-2.1-1.21a.967.967,0,0,0-.877,0l-3.79,2.188a.277.277,0,0,0-.167.3.215.215,0,0,0,0,.085.215.215,0,0,0,0,.085.277.277,0,0,0,.167.3l2.1,1.21a.967.967,0,0,0,.877,0l3.79-2.188A.276.276,0,0,0,346.463,399.45Zm-5.045-1.352a.221.221,0,0,0,0-.086.215.215,0,0,0,0-.085.278.278,0,0,0-.167-.3l-2.1-1.21a.967.967,0,0,0-.877,0l-2.492,1.439a.275.275,0,0,0-.167.295.184.184,0,0,0,0,.086.179.179,0,0,0,0,.085.276.276,0,0,0,.167.3l2.1,1.21a.967.967,0,0,0,.877,0l2.493-1.439A.276.276,0,0,0,341.418,398.1Zm3.151-12.99c3.021,1.743,1.976,1.785,5.465-.229a.276.276,0,0,0,.167-.3.215.215,0,0,0,0-.085.215.215,0,0,0,0-.085.276.276,0,0,0-.167-.3l-2.1-1.21a.969.969,0,0,0-.878,0l-2.492,1.438a.277.277,0,0,0-.167.3.218.218,0,0,0,0,.086.213.213,0,0,0,0,.085A.276.276,0,0,0,344.568,385.107Zm44.325-10.121a.219.219,0,0,0,0-.086.213.213,0,0,0,0-.085.276.276,0,0,0-.167-.3l-2.1-1.21a.97.97,0,0,0-.878,0l-2.492,1.439a.275.275,0,0,0-.167.295.221.221,0,0,0,0,.086.215.215,0,0,0,0,.085.277.277,0,0,0,.167.3l2.1,1.21a.967.967,0,0,0,.877,0l2.492-1.439A.274.274,0,0,0,388.893,374.987ZM339.15,395.228a.221.221,0,0,0,0-.086.215.215,0,0,0,0-.085.278.278,0,0,0-.167-.3l-2.1-1.21a.967.967,0,0,0-.877,0l-3.789,2.188a.276.276,0,0,0-.168.3.213.213,0,0,0,0,.085.213.213,0,0,0,0,.085.277.277,0,0,0,.168.3l2.1,1.21a.967.967,0,0,0,.877,0l3.79-2.188A.276.276,0,0,0,339.15,395.228Zm1.394-7.8,2.1,1.21a.969.969,0,0,0,.878,0l2.492-1.438a.277.277,0,0,0,.167-.3.215.215,0,0,0,0-.085.221.221,0,0,0,0-.086.276.276,0,0,0-.167-.3l-2.1-1.21a.969.969,0,0,0-.878,0l-2.492,1.439a.276.276,0,0,0-.167.3.213.213,0,0,0,0,.085.213.213,0,0,0,0,.085A.275.275,0,0,0,340.544,387.43Zm-4.024,2.324,2.1,1.21a.967.967,0,0,0,.877,0l2.492-1.439a.275.275,0,0,0,.167-.3.213.213,0,0,0,0-.085.213.213,0,0,0,0-.085.276.276,0,0,0-.167-.3l-2.1-1.21a.969.969,0,0,0-.878,0l-2.492,1.439a.275.275,0,0,0-.167.295.221.221,0,0,0,0,.086.215.215,0,0,0,0,.085A.277.277,0,0,0,336.521,389.754Zm-2.415,4.122a.218.218,0,0,0,0-.086.213.213,0,0,0,0-.085.276.276,0,0,0-.167-.3l-2.1-1.21a.969.969,0,0,0-.878,0l-2.492,1.439a.275.275,0,0,0-.167.295.219.219,0,0,0,0,.086.212.212,0,0,0,0,.085.277.277,0,0,0,.167.3l2.1,1.21a.967.967,0,0,0,.877,0l2.492-1.439A.275.275,0,0,0,334.105,393.876Zm-1.609-1.8,2.1,1.211a.973.973,0,0,0,.877,0l2.492-1.439a.277.277,0,0,0,.167-.3.213.213,0,0,0,0-.085.219.219,0,0,0,0-.086.275.275,0,0,0-.167-.295l-2.1-1.211a.976.976,0,0,0-.878,0l-2.492,1.439a.277.277,0,0,0-.167.3.215.215,0,0,0,0,.085.221.221,0,0,0,0,.086A.275.275,0,0,0,332.5,392.076Zm68.122-19.783a.276.276,0,0,0-.167-.3l-2.1-1.21a.967.967,0,0,0-.877,0l-2.493,1.439a.276.276,0,0,0-.167.295.221.221,0,0,0,0,.086.215.215,0,0,0,0,.085.278.278,0,0,0,.167.3l2.1,1.21a.967.967,0,0,0,.877,0l2.492-1.439a.275.275,0,0,0,.167-.295.184.184,0,0,0,0-.086A.179.179,0,0,0,400.619,372.294Zm-14.532-3.887-2.759-1.594a1.211,1.211,0,0,0-1.09,0l-6.315,3.647a.349.349,0,0,0-.211.357.221.221,0,0,0,0,.086.215.215,0,0,0,0,.085.349.349,0,0,0,.211.357l5.5,3.178a1.2,1.2,0,0,0,1.09,0l10.475-6.048a.348.348,0,0,0,.212-.357.267.267,0,0,0,0-.085.274.274,0,0,0,0-.086.349.349,0,0,0-.212-.357l-2.048-1.183a.8.8,0,0,0-.725,0l-3.519,2A.685.685,0,0,1,386.087,368.406Zm-3.577,9.668-2.1-1.21a.967.967,0,0,0-.877,0l-2.492,1.439a.276.276,0,0,0-.167.3.179.179,0,0,0,0,.085.179.179,0,0,0,0,.085.276.276,0,0,0,.167.3l2.1,1.21a.967.967,0,0,0,.877,0l2.493-1.438a.278.278,0,0,0,.167-.3.221.221,0,0,0,0-.086.215.215,0,0,0,0-.085A.278.278,0,0,0,382.51,378.074Zm10.239-5.877-2.1-1.211a.976.976,0,0,0-.878,0l-2.492,1.439a.276.276,0,0,0-.167.3.213.213,0,0,0,0,.085.219.219,0,0,0,0,.086.274.274,0,0,0,.167.295l2.1,1.211a.974.974,0,0,0,.877,0l2.492-1.439a.277.277,0,0,0,.167-.3.215.215,0,0,0,0-.085.221.221,0,0,0,0-.086A.275.275,0,0,0,392.749,372.2ZM374.462,382.72l-2.1-1.21a.968.968,0,0,0-.877,0L369,382.95a.276.276,0,0,0-.167.3.179.179,0,0,0,0,.085.179.179,0,0,0,0,.085.275.275,0,0,0,.167.3l2.1,1.21a.967.967,0,0,0,.877,0l2.493-1.438a.278.278,0,0,0,.167-.3.215.215,0,0,0,0-.085.221.221,0,0,0,0-.086A.278.278,0,0,0,374.462,382.72ZM391.141,370.4a.218.218,0,0,0,0,.086.213.213,0,0,0,0,.085.276.276,0,0,0,.167.3l2.1,1.21a.967.967,0,0,0,.877,0l2.492-1.439a.275.275,0,0,0,.167-.3.217.217,0,0,0,0-.085.217.217,0,0,0,0-.085.276.276,0,0,0-.167-.3l-2.1-1.21a.969.969,0,0,0-.878,0l-2.492,1.439A.275.275,0,0,0,391.141,370.4Zm-32.774,21.616-2.1-1.211a.974.974,0,0,0-.877,0l-2.492,1.439a.277.277,0,0,0-.167.3.179.179,0,0,0,0,.085.184.184,0,0,0,0,.086.275.275,0,0,0,.167.295l2.1,1.211a.974.974,0,0,0,.877,0l2.493-1.439a.278.278,0,0,0,.167-.3.215.215,0,0,0,0-.085.221.221,0,0,0,0-.086A.276.276,0,0,0,358.367,392.014Zm8.048-4.646-2.1-1.211a.966.966,0,0,0-.877,0l-2.492,1.439a.275.275,0,0,0-.167.3.178.178,0,0,0,0,.085.182.182,0,0,0,0,.086.273.273,0,0,0,.167.295l2.1,1.211a.974.974,0,0,0,.877,0l2.493-1.439a.278.278,0,0,0,.167-.3.211.211,0,0,0,0-.085.216.216,0,0,0,0-.086A.276.276,0,0,0,366.415,387.368Zm-4.024,2.323-2.1-1.21a.967.967,0,0,0-.877,0l-2.492,1.439a.274.274,0,0,0-.167.295.184.184,0,0,0,0,.086.179.179,0,0,0,0,.085.277.277,0,0,0,.167.3l2.1,1.21a.968.968,0,0,0,.877,0l2.493-1.439a.276.276,0,0,0,.167-.295.221.221,0,0,0,0-.086.215.215,0,0,0,0-.085A.278.278,0,0,0,362.391,389.69Zm-8.048,4.646-2.1-1.21a.967.967,0,0,0-.877,0l-2.492,1.439a.274.274,0,0,0-.167.295.18.18,0,0,0,0,.086.177.177,0,0,0,0,.085.276.276,0,0,0,.167.3l2.1,1.21a.967.967,0,0,0,.877,0l2.493-1.439a.276.276,0,0,0,.167-.295.223.223,0,0,0,0-.086.217.217,0,0,0,0-.085A.278.278,0,0,0,354.343,394.337Zm-4.024,2.324-2.1-1.211a.974.974,0,0,0-.877,0l-2.492,1.439a.275.275,0,0,0-.167.3.179.179,0,0,0,0,.085.184.184,0,0,0,0,.086.275.275,0,0,0,.167.3l2.1,1.21a.967.967,0,0,0,.877,0l2.493-1.439a.277.277,0,0,0,.167-.3.213.213,0,0,0,0-.085.218.218,0,0,0,0-.086A.276.276,0,0,0,350.319,396.66Zm20.119-11.616-2.1-1.21a.967.967,0,0,0-.877,0l-2.492,1.439a.275.275,0,0,0-.167.295.185.185,0,0,0,0,.086.181.181,0,0,0,0,.085.277.277,0,0,0,.167.3l2.1,1.21a.967.967,0,0,0,.877,0l2.493-1.439a.277.277,0,0,0,.167-.3.213.213,0,0,0,0-.085.213.213,0,0,0,0-.085A.277.277,0,0,0,370.439,385.044Zm8.048-4.646-2.1-1.21a.968.968,0,0,0-.877,0l-2.492,1.438a.277.277,0,0,0-.167.3.182.182,0,0,0,0,.086.178.178,0,0,0,0,.085.277.277,0,0,0,.167.3l2.1,1.21a.967.967,0,0,0,.877,0l2.493-1.439a.277.277,0,0,0,.167-.3.215.215,0,0,0,0-.085.215.215,0,0,0,0-.085A.277.277,0,0,0,378.486,380.4Zm-21.892,16.8-2.1-1.21a.967.967,0,0,0-.877,0l-2.493,1.439a.277.277,0,0,0-.167.3.213.213,0,0,0,0,.085.218.218,0,0,0,0,.086.276.276,0,0,0,.167.295l2.1,1.211a.974.974,0,0,0,.877,0l2.492-1.439a.277.277,0,0,0,.167-.3.18.18,0,0,0,0-.085.186.186,0,0,0,0-.086A.277.277,0,0,0,356.595,397.2Zm4.024-2.323-2.1-1.21a.967.967,0,0,0-.877,0l-2.493,1.438a.278.278,0,0,0-.167.3.218.218,0,0,0,0,.086.213.213,0,0,0,0,.085.278.278,0,0,0,.167.3l2.1,1.21a.966.966,0,0,0,.877,0l2.492-1.439a.276.276,0,0,0,.167-.3.181.181,0,0,0,0-.085.181.181,0,0,0,0-.085A.276.276,0,0,0,360.618,394.874Zm-8.048,4.646-2.1-1.21a.967.967,0,0,0-.877,0l-2.493,1.439a.276.276,0,0,0-.167.295.221.221,0,0,0,0,.086.215.215,0,0,0,0,.085.278.278,0,0,0,.167.3l2.1,1.21a.966.966,0,0,0,.877,0l2.492-1.439a.276.276,0,0,0,.167-.3.179.179,0,0,0,0-.085.179.179,0,0,0,0-.085A.276.276,0,0,0,352.571,399.521Zm-4.024,2.324-2.1-1.211a.974.974,0,0,0-.877,0l-2.493,1.439a.278.278,0,0,0-.167.3.216.216,0,0,0,0,.085.221.221,0,0,0,0,.086.276.276,0,0,0,.167.295l2.1,1.211a.974.974,0,0,0,.877,0l2.492-1.439a.277.277,0,0,0,.167-.3.178.178,0,0,0,0-.085.182.182,0,0,0,0-.086A.274.274,0,0,0,348.547,401.844Zm30.215-25.871-2.1-1.21a.969.969,0,0,0-.878,0L372,376.951a.275.275,0,0,0-.167.3.181.181,0,0,0,0,.085.181.181,0,0,0,0,.085.276.276,0,0,0,.167.3l2.1,1.21a.967.967,0,0,0,.877,0l3.79-2.188a.275.275,0,0,0,.167-.295.183.183,0,0,0,0-.086.179.179,0,0,0,0-.085A.277.277,0,0,0,378.762,375.973Zm7.273,4.227-2.1-1.21a.967.967,0,0,0-.877,0l-3.79,2.187a.277.277,0,0,0-.167.3.221.221,0,0,0,0,.086.215.215,0,0,0,0,.085.277.277,0,0,0,.167.3l2.1,1.21a.97.97,0,0,0,.878,0l3.789-2.188a.276.276,0,0,0,.167-.3.179.179,0,0,0,0-.085.179.179,0,0,0,0-.085A.276.276,0,0,0,386.035,380.2Zm10.393-5.879-2.1-1.211a.973.973,0,0,0-.877,0l-2.493,1.439a.278.278,0,0,0-.167.3.213.213,0,0,0,0,.085.219.219,0,0,0,0,.086.276.276,0,0,0,.167.295l2.1,1.211a.974.974,0,0,0,.877,0l2.492-1.439a.276.276,0,0,0,.167-.3.181.181,0,0,0,0-.085.186.186,0,0,0,0-.086A.274.274,0,0,0,396.428,374.321Zm-4.024,2.323-2.1-1.21a.967.967,0,0,0-.877,0l-2.493,1.439a.276.276,0,0,0-.167.295.219.219,0,0,0,0,.086.213.213,0,0,0,0,.085.277.277,0,0,0,.167.3l2.1,1.21a.967.967,0,0,0,.877,0l2.492-1.439a.275.275,0,0,0,.167-.295.183.183,0,0,0,0-.086.179.179,0,0,0,0-.085A.277.277,0,0,0,392.4,376.644Zm-11.6,6.618-2.1-1.21a.967.967,0,0,0-.877,0L359.2,392.812a.276.276,0,0,0-.167.295.221.221,0,0,0,0,.086.215.215,0,0,0,0,.085.278.278,0,0,0,.167.3l2.1,1.21a.967.967,0,0,0,.877,0l18.636-10.76a.276.276,0,0,0,.167-.295.218.218,0,0,0,0-.086.213.213,0,0,0,0-.085A.278.278,0,0,0,380.8,383.261Zm-15.411.43-2.1-1.21a.967.967,0,0,0-.877,0l-2.492,1.438a.277.277,0,0,0-.167.3.184.184,0,0,0,0,.086.179.179,0,0,0,0,.085.276.276,0,0,0,.167.3l2.1,1.21a.966.966,0,0,0,.877,0l2.493-1.439a.277.277,0,0,0,.167-.3.215.215,0,0,0,0-.085.215.215,0,0,0,0-.085A.277.277,0,0,0,365.394,383.692Zm-4.024,2.323-2.1-1.21a.967.967,0,0,0-.877,0l-2.492,1.439a.276.276,0,0,0-.167.3.176.176,0,0,0,0,.085.176.176,0,0,0,0,.085.275.275,0,0,0,.167.3l2.1,1.21a.966.966,0,0,0,.877,0l2.493-1.438a.278.278,0,0,0,.167-.3.213.213,0,0,0,0-.085.218.218,0,0,0,0-.086A.278.278,0,0,0,361.37,386.014Zm8.048-4.646-2.1-1.21a.968.968,0,0,0-.877,0l-2.492,1.439a.276.276,0,0,0-.167.3.179.179,0,0,0,0,.085.179.179,0,0,0,0,.085.276.276,0,0,0,.167.3l2.1,1.21a.967.967,0,0,0,.877,0l2.493-1.438a.278.278,0,0,0,.167-.3.221.221,0,0,0,0-.086.215.215,0,0,0,0-.085A.278.278,0,0,0,369.417,381.368ZM383.8,366.157a.218.218,0,0,0,0,.086.213.213,0,0,0,0,.085.276.276,0,0,0,.167.3l2.1,1.21a.967.967,0,0,0,.877,0l2.492-1.439a.275.275,0,0,0,.167-.3.213.213,0,0,0,0-.085.212.212,0,0,0,0-.085.276.276,0,0,0-.167-.3l-2.1-1.21a.969.969,0,0,0-.878,0l-2.492,1.439A.274.274,0,0,0,383.8,366.157Zm-10.354,12.888-2.1-1.211a.974.974,0,0,0-.877,0l-2.492,1.439a.276.276,0,0,0-.167.3.18.18,0,0,0,0,.085.184.184,0,0,0,0,.086.277.277,0,0,0,.167.3l2.1,1.21a.967.967,0,0,0,.877,0l2.493-1.439a.277.277,0,0,0,.167-.3.213.213,0,0,0,0-.085.213.213,0,0,0,0-.085A.277.277,0,0,0,373.441,379.046Zm-16.1,9.293-2.1-1.21a.967.967,0,0,0-.877,0l-2.492,1.439a.275.275,0,0,0-.167.295.183.183,0,0,0,0,.086.179.179,0,0,0,0,.085.277.277,0,0,0,.167.3l2.1,1.21a.967.967,0,0,0,.877,0l2.493-1.439a.277.277,0,0,0,.167-.3.213.213,0,0,0,0-.085.213.213,0,0,0,0-.085A.277.277,0,0,0,357.346,388.338Zm-8.048,4.646-2.1-1.21a.967.967,0,0,0-.877,0l-2.492,1.439a.274.274,0,0,0-.167.295.182.182,0,0,0,0,.086.178.178,0,0,0,0,.085.277.277,0,0,0,.167.3l2.1,1.21a.966.966,0,0,0,.877,0l2.493-1.439a.276.276,0,0,0,.167-.295.221.221,0,0,0,0-.086.215.215,0,0,0,0-.085A.278.278,0,0,0,349.3,392.984Zm4.024-2.323-2.1-1.211a.975.975,0,0,0-.877,0l-2.492,1.439a.277.277,0,0,0-.167.3.179.179,0,0,0,0,.085.184.184,0,0,0,0,.086.275.275,0,0,0,.167.295l2.1,1.211a.974.974,0,0,0,.877,0l2.493-1.439a.278.278,0,0,0,.167-.3.213.213,0,0,0,0-.085.218.218,0,0,0,0-.086A.276.276,0,0,0,353.322,390.662Z" transform="translate(-323.634 -359.175)" fill="#d2d1ce"/>
            <path id="Trazado_189715" data-name="Trazado 189715" d="M333.939,393.817l-2.492,1.439a.967.967,0,0,1-.877,0l-2.1-1.21a.267.267,0,0,1,0-.506l2.492-1.439a.969.969,0,0,1,.878,0l2.1,1.21A.267.267,0,0,1,333.939,393.817Zm4.024-2.829-2.1-1.211a.976.976,0,0,0-.878,0l-2.492,1.439a.267.267,0,0,0,0,.506l2.1,1.211a.974.974,0,0,0,.877,0l2.492-1.439A.267.267,0,0,0,337.963,390.989Zm4.024-2.324-2.1-1.21a.969.969,0,0,0-.878,0l-2.492,1.439a.267.267,0,0,0,0,.506l2.1,1.21a.967.967,0,0,0,.877,0l2.492-1.439A.267.267,0,0,0,341.987,388.665Zm4.024-2.324-2.1-1.21a.969.969,0,0,0-.878,0l-2.492,1.439a.267.267,0,0,0,0,.506l2.1,1.21a.967.967,0,0,0,.877,0l2.492-1.438A.268.268,0,0,0,346.011,386.341Zm4.024-2.323-2.1-1.21a.969.969,0,0,0-.878,0l-2.492,1.438a.268.268,0,0,0,0,.507l2.1,1.21a.967.967,0,0,0,.877,0l2.492-1.439A.267.267,0,0,0,350.035,384.019Zm4.024-2.324-2.1-1.21a.969.969,0,0,0-.878,0l-2.492,1.439a.267.267,0,0,0,0,.506l2.1,1.21a.967.967,0,0,0,.877,0l2.492-1.439A.267.267,0,0,0,354.058,381.695Zm4.024-2.323-2.1-1.21a.969.969,0,0,0-.878,0l-2.492,1.438a.268.268,0,0,0,0,.507l2.1,1.21a.967.967,0,0,0,.877,0l2.492-1.439A.267.267,0,0,0,358.082,379.372Zm4.024-2.324-2.1-1.21a.969.969,0,0,0-.878,0l-2.492,1.439a.267.267,0,0,0,0,.506l2.1,1.21a.967.967,0,0,0,.877,0l2.492-1.439A.267.267,0,0,0,362.106,377.049Zm4.024-2.323-2.1-1.211a.976.976,0,0,0-.878,0l-2.492,1.439a.267.267,0,0,0,0,.506l2.1,1.211a.974.974,0,0,0,.877,0l2.492-1.439A.267.267,0,0,0,366.13,374.726Zm5.321-3.073-2.1-1.21a.967.967,0,0,0-.877,0l-3.79,2.188a.267.267,0,0,0,0,.506l2.1,1.21a.966.966,0,0,0,.877,0l3.789-2.188A.267.267,0,0,0,371.451,371.653Zm17.276,2.769-2.1-1.21a.969.969,0,0,0-.878,0l-2.492,1.439a.267.267,0,0,0,0,.506l2.1,1.21a.967.967,0,0,0,.877,0l2.492-1.439A.267.267,0,0,0,388.727,374.422Zm4.024-2.323-2.1-1.211a.976.976,0,0,0-.878,0l-2.492,1.439a.267.267,0,0,0,0,.506l2.1,1.211a.974.974,0,0,0,.877,0l2.492-1.439A.267.267,0,0,0,392.75,372.1Zm4.024-2.324-2.1-1.21a.969.969,0,0,0-.878,0l-2.492,1.439a.267.267,0,0,0,0,.506l2.1,1.21a.967.967,0,0,0,.877,0l2.492-1.439A.267.267,0,0,0,396.774,369.776Zm-4.37,6.77-2.1-1.21a.966.966,0,0,0-.877,0l-2.493,1.439a.267.267,0,0,0,0,.506l2.1,1.21a.967.967,0,0,0,.877,0l2.492-1.439A.267.267,0,0,0,392.4,376.546Zm4.024-2.323-2.1-1.211a.974.974,0,0,0-.877,0l-2.493,1.439a.267.267,0,0,0,0,.506l2.1,1.211a.974.974,0,0,0,.877,0l2.492-1.439A.267.267,0,0,0,396.429,374.223Zm4.024-2.324-2.1-1.21a.967.967,0,0,0-.877,0l-2.493,1.439a.267.267,0,0,0,0,.506l2.1,1.21a.967.967,0,0,0,.877,0l2.492-1.439A.267.267,0,0,0,400.453,371.9Zm-61.468,22.764-2.1-1.21a.967.967,0,0,0-.877,0l-3.789,2.188a.267.267,0,0,0,0,.506l2.1,1.21a.967.967,0,0,0,.877,0l3.79-2.188A.267.267,0,0,0,338.984,394.663Zm4.024-2.323-2.1-1.211a.973.973,0,0,0-.877,0l-2.492,1.439a.267.267,0,0,0,0,.506l2.1,1.211a.974.974,0,0,0,.877,0l2.493-1.439A.267.267,0,0,0,343.008,392.341Zm4.024-2.324-2.1-1.21a.967.967,0,0,0-.877,0l-2.492,1.439a.267.267,0,0,0,0,.506l2.1,1.21a.969.969,0,0,0,.878,0l2.492-1.439A.267.267,0,0,0,347.032,390.017Zm4.024-2.323-2.1-1.211a.974.974,0,0,0-.877,0l-2.492,1.439a.267.267,0,0,0,0,.506l2.1,1.211a.976.976,0,0,0,.878,0l2.492-1.439A.267.267,0,0,0,351.056,387.695Zm4.024-2.324-2.1-1.21a.967.967,0,0,0-.877,0l-2.492,1.439a.267.267,0,0,0,0,.506l2.1,1.21a.969.969,0,0,0,.878,0l2.492-1.439A.267.267,0,0,0,355.08,385.371Zm4.024-2.324-2.1-1.21a.966.966,0,0,0-.877,0l-2.492,1.439a.267.267,0,0,0,0,.506l2.1,1.21a.969.969,0,0,0,.878,0l2.492-1.438A.268.268,0,0,0,359.1,383.047Zm4.024-2.323-2.1-1.21a.966.966,0,0,0-.877,0l-2.492,1.438a.268.268,0,0,0,0,.507l2.1,1.21a.969.969,0,0,0,.878,0l2.492-1.439A.267.267,0,0,0,363.127,380.725Zm4.024-2.324-2.1-1.21a.967.967,0,0,0-.877,0l-2.492,1.439a.267.267,0,0,0,0,.506l2.1,1.21a.969.969,0,0,0,.878,0l2.492-1.439A.267.267,0,0,0,367.151,378.4Zm4.024-2.323-2.1-1.21a.967.967,0,0,0-.877,0l-2.492,1.438a.268.268,0,0,0,0,.507l2.1,1.21a.969.969,0,0,0,.878,0l2.492-1.439A.267.267,0,0,0,371.175,376.078Zm4.024-2.324-2.1-1.21a.967.967,0,0,0-.877,0l-2.492,1.439a.267.267,0,0,0,0,.506l2.1,1.21a.97.97,0,0,0,.878,0l2.492-1.439A.267.267,0,0,0,375.2,373.754Zm-33.947,23.778-2.1-1.21a.967.967,0,0,0-.877,0l-2.492,1.439a.267.267,0,0,0,0,.506l2.1,1.21a.967.967,0,0,0,.877,0l2.493-1.439A.267.267,0,0,0,341.252,397.533Zm4.024-2.323-2.1-1.211a.974.974,0,0,0-.877,0l-2.492,1.439a.267.267,0,0,0,0,.506l2.1,1.211a.974.974,0,0,0,.877,0l2.493-1.439A.267.267,0,0,0,345.275,395.21Zm4.024-2.324-2.1-1.21a.967.967,0,0,0-.877,0l-2.492,1.439a.267.267,0,0,0,0,.506l2.1,1.21a.967.967,0,0,0,.877,0l2.493-1.439A.267.267,0,0,0,349.3,392.886Zm4.024-2.323-2.1-1.211a.973.973,0,0,0-.877,0l-2.492,1.439a.267.267,0,0,0,0,.506l2.1,1.211a.974.974,0,0,0,.877,0l2.493-1.439A.267.267,0,0,0,353.323,390.564Zm-4.775,11.183-2.1-1.211a.974.974,0,0,0-.877,0l-2.493,1.439a.267.267,0,0,0,0,.506l2.1,1.211a.974.974,0,0,0,.877,0l2.492-1.439A.267.267,0,0,0,348.548,401.746Zm4.024-2.324-2.1-1.21a.967.967,0,0,0-.877,0l-2.493,1.439a.267.267,0,0,0,0,.506l2.1,1.21a.967.967,0,0,0,.877,0l2.492-1.439A.267.267,0,0,0,352.572,399.423ZM356.6,397.1l-2.1-1.211a.974.974,0,0,0-.877,0l-2.493,1.439a.267.267,0,0,0,0,.506l2.1,1.21a.967.967,0,0,0,.877,0l2.492-1.438A.267.267,0,0,0,356.6,397.1Zm4.024-2.324-2.1-1.21a.967.967,0,0,0-.877,0l-2.493,1.439a.267.267,0,0,0,0,.506l2.1,1.21a.967.967,0,0,0,.877,0l2.492-1.439A.267.267,0,0,0,360.62,394.776ZM386.036,380.1l-2.1-1.21a.967.967,0,0,0-.877,0l-3.79,2.188a.267.267,0,0,0,0,.506l2.1,1.21a.969.969,0,0,0,.878,0l3.789-2.188A.267.267,0,0,0,386.036,380.1Zm-28.689,8.138-2.1-1.21a.966.966,0,0,0-.877,0l-2.492,1.439a.267.267,0,0,0,0,.506l2.1,1.21a.967.967,0,0,0,.877,0l2.493-1.439A.267.267,0,0,0,357.347,388.24Zm4.024-2.324-2.1-1.21a.967.967,0,0,0-.877,0l-2.492,1.439a.267.267,0,0,0,0,.506l2.1,1.21a.967.967,0,0,0,.877,0l2.493-1.438A.268.268,0,0,0,361.371,385.916Zm4.024-2.323-2.1-1.21a.967.967,0,0,0-.877,0l-2.492,1.438a.268.268,0,0,0,0,.507l2.1,1.21a.967.967,0,0,0,.877,0l2.493-1.439A.267.267,0,0,0,365.395,383.594Zm4.024-2.324-2.1-1.21a.967.967,0,0,0-.877,0l-2.492,1.439a.267.267,0,0,0,0,.506l2.1,1.21a.966.966,0,0,0,.877,0l2.493-1.439A.267.267,0,0,0,369.418,381.27Zm4.024-2.323-2.1-1.21a.967.967,0,0,0-.877,0l-2.492,1.438a.268.268,0,0,0,0,.507l2.1,1.21a.967.967,0,0,0,.877,0l2.493-1.439A.267.267,0,0,0,373.442,378.948Zm5.321-3.073-2.1-1.21a.969.969,0,0,0-.878,0L372,376.853a.267.267,0,0,0,0,.506l2.1,1.21a.967.967,0,0,0,.877,0l3.79-2.188A.267.267,0,0,0,378.763,375.875ZM346.3,398.885l-2.1-1.21a.967.967,0,0,0-.877,0l-3.79,2.188a.267.267,0,0,0,0,.506l2.1,1.21a.967.967,0,0,0,.877,0l3.79-2.188A.267.267,0,0,0,346.3,398.885Zm4.024-2.323-2.1-1.211a.974.974,0,0,0-.877,0l-2.492,1.439a.267.267,0,0,0,0,.506l2.1,1.211a.974.974,0,0,0,.877,0l2.493-1.439A.267.267,0,0,0,350.32,396.562Zm4.024-2.324-2.1-1.21a.967.967,0,0,0-.877,0l-2.492,1.439a.267.267,0,0,0,0,.506l2.1,1.21a.967.967,0,0,0,.877,0l2.493-1.439A.267.267,0,0,0,354.344,394.239Zm4.024-2.323-2.1-1.211a.974.974,0,0,0-.877,0l-2.492,1.439a.267.267,0,0,0,0,.506l2.1,1.211a.974.974,0,0,0,.877,0l2.493-1.439A.267.267,0,0,0,358.368,391.916Zm4.024-2.324-2.1-1.21a.967.967,0,0,0-.877,0l-2.492,1.439a.267.267,0,0,0,0,.506l2.1,1.21a.967.967,0,0,0,.877,0l2.493-1.439A.267.267,0,0,0,362.392,389.592Zm18.414-6.429-2.1-1.21a.967.967,0,0,0-.877,0L359.2,392.714a.267.267,0,0,0,0,.506l2.1,1.21a.967.967,0,0,0,.877,0l18.636-10.76A.267.267,0,0,0,380.805,383.163Zm-14.39,4.106-2.1-1.211a.974.974,0,0,0-.877,0l-2.492,1.439a.267.267,0,0,0,0,.506l2.1,1.211a.974.974,0,0,0,.877,0l2.493-1.439A.267.267,0,0,0,366.416,387.27Zm4.024-2.324-2.1-1.21a.967.967,0,0,0-.877,0l-2.492,1.439a.267.267,0,0,0,0,.506l2.1,1.21a.967.967,0,0,0,.877,0l2.493-1.439A.267.267,0,0,0,370.44,384.946Zm4.024-2.324-2.1-1.21a.967.967,0,0,0-.877,0L369,382.852a.267.267,0,0,0,0,.506l2.1,1.21a.967.967,0,0,0,.877,0l2.493-1.438A.268.268,0,0,0,374.464,382.622Zm4.024-2.323-2.1-1.21a.967.967,0,0,0-.877,0l-2.492,1.438a.268.268,0,0,0,0,.507l2.1,1.21a.967.967,0,0,0,.877,0l2.493-1.439A.267.267,0,0,0,378.487,380.3Zm4.024-2.324-2.1-1.21a.967.967,0,0,0-.877,0l-2.492,1.439a.267.267,0,0,0,0,.506l2.1,1.21a.967.967,0,0,0,.877,0l2.493-1.439A.267.267,0,0,0,382.511,377.976Zm-4.8-9.913-2.1-1.211a.974.974,0,0,0-.877,0l-2.492,1.439a.267.267,0,0,0,0,.506l2.1,1.211a.974.974,0,0,0,.877,0l2.493-1.439A.267.267,0,0,0,377.712,368.063Zm4.024-2.324-2.1-1.21a.967.967,0,0,0-.877,0l-2.492,1.439a.267.267,0,0,0,0,.506l2.1,1.21a.967.967,0,0,0,.877,0l2.493-1.439A.267.267,0,0,0,381.736,365.74Zm4.024-2.323-2.1-1.211a.974.974,0,0,0-.877,0l-2.492,1.439a.267.267,0,0,0,0,.506l2.1,1.211a.974.974,0,0,0,.877,0l2.493-1.439A.267.267,0,0,0,385.76,363.417Zm3.669,2.118-2.1-1.21a.969.969,0,0,0-.878,0l-2.492,1.439a.267.267,0,0,0,0,.506l2.1,1.21a.967.967,0,0,0,.877,0l2.492-1.439A.267.267,0,0,0,389.429,365.535Zm3.564,1.956-2.048-1.183a.8.8,0,0,0-.725,0l-3.519,2a.685.685,0,0,1-.613,0l-2.759-1.594a1.211,1.211,0,0,0-1.09,0l-6.315,3.647a.332.332,0,0,0,0,.629l5.5,3.178a1.2,1.2,0,0,0,1.09,0l10.475-6.048A.332.332,0,0,0,392.993,367.491Z" transform="translate(-323.635 -359.188)" fill="#fffefb"/>
          </g>
        </g>
      </g>
      <g id="Grupo_133393" data-name="Grupo 133393" transform="translate(0 108.561)">
        <g id="Grupo_133387" data-name="Grupo 133387">
          <path id="Trazado_189716" data-name="Trazado 189716" d="M306.8,448.8a.209.209,0,0,0,.112.216.288.288,0,0,0,.249-.025c.229-.122.411-.535.187-.725a.2.2,0,0,0-.232.006A.678.678,0,0,0,306.8,448.8Z" transform="translate(-280.314 -432.244)" fill="#bcbcbc"/>
          <path id="Trazado_189717" data-name="Trazado 189717" d="M269.4,427.288a.346.346,0,0,1,.008-.071,2.119,2.119,0,0,1,.064-.345c.006-.02.013-.038.02-.057a1.867,1.867,0,0,1,.114-.287l.036-.067a1.846,1.846,0,0,1,.142-.22c.016-.022.032-.045.049-.067a1.807,1.807,0,0,1,.19-.2c.019-.016.038-.033.057-.047a1.475,1.475,0,0,1,.208-.144.85.85,0,0,1,.79-.054c.161.085,13.071,7.545,20.4,12.354a42.807,42.807,0,0,1,4.236,3s.067.065.1.09a.308.308,0,0,1,.076.232.855.855,0,0,1-.4.668.32.32,0,0,1-.243.029.19.19,0,0,1-.062-.016l-.049-.012c-.122-.047-.266-.1-.448-.174-.6-.238-1.566-.672-3.472-1.664-1.8-.933-4.43-2.364-8.356-4.593-5.7-3.232-12.98-7.538-13.107-7.619a.636.636,0,0,1-.249-.278.736.736,0,0,1-.05-.1c0-.015-.006-.028-.01-.042a1.056,1.056,0,0,1-.033-.155c0-.031-.006-.055-.008-.084s-.006-.055-.007-.083Z" transform="translate(-269.394 -425.653)" fill="url(#linear-gradient-5)"/>
          <path id="Trazado_189718" data-name="Trazado 189718" d="M306.1,447.553a.259.259,0,0,1,.293-.006l.634.506a.2.2,0,0,0-.232.006.678.678,0,0,0-.316.528.208.208,0,0,0,.108.214l-.751-.308a.262.262,0,0,1-.136-.271A.859.859,0,0,1,306.1,447.553Z" transform="translate(-279.993 -432.032)" fill="#e6e4e2"/>
          <path id="Trazado_189719" data-name="Trazado 189719" d="M307.247,448.435a.158.158,0,0,1,.193,0c.143.136.543.511.623.59a.07.07,0,0,0-.085,0,.237.237,0,0,0-.111.185c0,.042.016.069.042.077-.107-.031-.63-.2-.819-.257-.06-.019-.1-.081-.1-.175A.543.543,0,0,1,307.247,448.435Z" transform="translate(-280.37 -432.294)" fill="#e6e4e2"/>
          <path id="Trazado_189720" data-name="Trazado 189720" d="M308.338,449.278a.07.07,0,0,1,.084,0,.379.379,0,0,1,.127.155.11.11,0,0,1-.052.131c-.062.033-.129.011-.229-.023a.073.073,0,0,1-.041-.077A.237.237,0,0,1,308.338,449.278Z" transform="translate(-280.73 -432.545)" fill="#737271"/>
        </g>
        <path id="Trazado_189721" data-name="Trazado 189721" d="M271.457,427.228l8.331,4.81.689-.4-8.331-4.81Z" transform="translate(-269.996 -425.996)" fill="#2d3133"/>
        <g id="Grupo_133392" data-name="Grupo 133392" transform="translate(1.589 0.892)" style="isolation: isolate">
          <g id="Grupo_133388" data-name="Grupo 133388">
            <path id="Trazado_189722" data-name="Trazado 189722" d="M273.2,427.564l.547-.318-1.562-.334-.547.318Z" transform="translate(-271.639 -426.912)" fill="#e4e6e6"/>
          </g>
          <g id="Grupo_133389" data-name="Grupo 133389" transform="translate(8.267 4.205)">
            <path id="Trazado_189723" data-name="Trazado 189723" d="M283.314,433.328l.547-.318v-.159l-.547.318Z" transform="translate(-283.314 -432.851)" fill="#b3b5b5"/>
          </g>
          <g id="Grupo_133390" data-name="Grupo 133390" transform="translate(1.562 0.334)">
            <path id="Trazado_189724" data-name="Trazado 189724" d="M280.55,431.573l.547-.318-6.706-3.872-.547.318Z" transform="translate(-273.844 -427.383)" fill="url(#linear-gradient-6)"/>
          </g>
          <g id="Grupo_133391" data-name="Grupo 133391" transform="translate(0 0.318)">
            <path id="Trazado_189725" data-name="Trazado 189725" d="M273.2,427.695l-1.562-.334,1.915,1.106.356-.2,6,3.462v-.159Z" transform="translate(-271.639 -427.361)" fill="#cbcdcd"/>
          </g>
        </g>
      </g>
      <g id="Grupo_133397" data-name="Grupo 133397" transform="translate(2.897 105.155)">
        <path id="Trazado_189726" data-name="Trazado 189726" d="M319.034,447.6l.724.655c.023.021-.018.045-.055.032l-1.139-.415Z" transform="translate(-286.645 -428.652)" fill="url(#linear-gradient-7)"/>
        <g id="Grupo_133396" data-name="Grupo 133396">
          <path id="Trazado_189727" data-name="Trazado 189727" d="M301.99,438.552l-28.5-16.512,0,.539,28.5,16.512Z" transform="translate(-273.485 -421.192)" fill="#ee9b1e"/>
          <path id="Trazado_189728" data-name="Trazado 189728" d="M275.938,423.46l0,.535-2.452-1.416,0-.539Z" transform="translate(-273.485 -421.192)" fill="#7a3e2b"/>
          <path id="Trazado_189729" data-name="Trazado 189729" d="M302.32,437.74l-28.5-16.512-.33.575,28.5,16.512Z" transform="translate(-273.485 -420.955)" fill="#ffdd84"/>
          <path id="Trazado_189730" data-name="Trazado 189730" d="M273.485,421.8l.33-.575,2.448,1.417-.328.572Z" transform="translate(-273.485 -420.955)" fill="#9c573f"/>
          <path id="Trazado_189731" data-name="Trazado 189731" d="M302.928,437.355l-28.5-16.512-.472.272,28.5,16.512Z" transform="translate(-273.621 -420.843)" fill="#ffc343"/>
          <path id="Trazado_189732" data-name="Trazado 189732" d="M273.952,421.115l.472-.272,2.439,1.412-.468.27Z" transform="translate(-273.621 -420.843)" fill="#8c4b34"/>
          <path id="Trazado_189733" data-name="Trazado 189733" d="M313.229,444.433l1.444.07a2.318,2.318,0,0,1,.806.4l2.226,2.01c-.263-.15-.412.06-.315.183,0,0-3.463-1.262-3.463-1.262-.135-.1-.345-.186-.389-.309l-.467-1Z" transform="translate(-285.041 -427.729)" fill="url(#linear-gradient-8)"/>
          <g id="Grupo_133395" data-name="Grupo 133395" transform="translate(28.03 16.704)">
            <g id="Grupo_133394" data-name="Grupo 133394" clip-path="url(#clip-path)">
              <path id="Trazado_189734" data-name="Trazado 189734" d="M313.883,445.808l-1.007-.579,1.6-.925.865.489c-.364.12-.6-.013-.723.077s.637.573.142.668a1.993,1.993,0,0,1-.844-.175c-.072-.022-.161-.045-.185,0C313.675,445.461,313.956,445.576,313.883,445.808Z" transform="translate(-313.014 -444.395)" fill="#fff0e5"/>
            </g>
          </g>
          <path id="Trazado_189736" data-name="Trazado 189736" d="M314.67,444.279c-.087.208-.415.086-.542.173-.177.122.659.591.142.667a2.363,2.363,0,0,1-.813-.188c-.075-.02-.189-.031-.217.013-.07.119.248.247.2.47l-2.047-1.219,1.015-1.219Z" transform="translate(-284.552 -427.305)" fill="#ffdd84"/>
        </g>
        <path id="Trazado_189737" data-name="Trazado 189737" d="M312.612,442.978l.611.352,1.646.953c-.09.2-.413.083-.539.169a.054.054,0,0,0-.02.052l-2.221-1.285Z" transform="translate(-284.755 -427.305)" fill="#ffc343"/>
        <path id="Trazado_189738" data-name="Trazado 189738" d="M311.507,444.211l1.944,1.125c-.048-.016-.1-.033-.14-.044-.075-.02-.189-.031-.217.013-.07.119.248.247.2.47l-2.4-1.382Z" transform="translate(-284.405 -427.664)" fill="#ee9b1e"/>
      </g>
      <g id="Grupo_133440" data-name="Grupo 133440" transform="translate(2.679 83.218)">
        <g id="Grupo_133439" data-name="Grupo 133439">
          <g id="Grupo_133401" data-name="Grupo 133401">
            <g id="Grupo_133400" data-name="Grupo 133400">
              <g id="Axonometric_Cube" data-name="Axonometric Cube" transform="translate(9.573 5.125)">
                <path id="Cube_face_-_left" data-name="Cube face - left" d="M288.445,406.9l-1.748-1.009V405l1.748,1.009Z" transform="translate(-286.696 -399.406)" fill="#b6b5b3"/>
                <path id="Cube_face_-_right" data-name="Cube face - right" d="M300.6,397.984l-11.439,6.6V403.7l11.439-6.6Z" transform="translate(-287.417 -397.099)" fill="#937a6a"/>
              </g>
              <g id="Axonometric_Cube-2" data-name="Axonometric Cube">
                <path id="Cube_face_-_left-2" data-name="Cube face - left" d="M315.816,439.865l-42.639-24.618v-.885l42.639,24.618Z" transform="translate(-273.177 -397.014)" fill="#252321"/>
                <path id="Cube_face_-_right-2" data-name="Cube face - right" d="M363.443,425.514l-30.049,17.349v-.885l30.049-17.349Z" transform="translate(-290.756 -400.011)" fill="#312f2c"/>
                <path id="Cube_face_-_top" data-name="Cube face - top" d="M315.816,431.828,273.177,407.21l30.049-17.348,42.639,24.618Z" transform="translate(-273.177 -389.862)" fill="#999172"/>
              </g>
              <path id="Cube_face_-_top-2" data-name="Cube face - top" d="M289.01,403.614l-2.314-1.335,11.439-6.6,2.313,1.335a.121.121,0,0,1,0,.209l-11.079,6.4A.356.356,0,0,1,289.01,403.614Z" transform="translate(-277.123 -391.559)" fill="#f7f6f3"/>
              <g id="Grupo_133399" data-name="Grupo 133399" transform="translate(3.866 2.181)">
                <path id="Cylinder_body" data-name="Cylinder body" d="M287.548,401.094l11.258-6.5a.43.43,0,0,1,.44.041,1.366,1.366,0,0,1,.617,1.069.438.438,0,0,1-.177.4l-11.258,6.5a.437.437,0,0,0,.177-.4,1.365,1.365,0,0,0-.617-1.069A.43.43,0,0,0,287.548,401.094Z" transform="translate(-281.238 -393.412)" fill="url(#linear-gradient-9)"/>
                <path id="Trazado_189739" data-name="Trazado 189739" d="M299.487,394.711l-11.258,6.5a1.3,1.3,0,0,1,.4.45l11.258-6.5A1.3,1.3,0,0,0,299.487,394.711Z" transform="translate(-281.437 -393.459)" fill="#f3f2ef" style="mix-blend-mode: screen;isolation: isolate"/>
                <path id="Trazado_189740" data-name="Trazado 189740" d="M290.283,406.22a.447.447,0,0,0-.4,0,.123.123,0,0,0,0,.233.447.447,0,0,0,.4,0A.123.123,0,0,0,290.283,406.22Z" transform="translate(-281.895 -396.804)" fill="#393532"/>
                <path id="Trazado_189741" data-name="Trazado 189741" d="M305.387,397.5a.447.447,0,0,0-.4,0,.123.123,0,0,0,0,.234.447.447,0,0,0,.4,0A.124.124,0,0,0,305.387,397.5Z" transform="translate(-286.303 -394.259)" fill="#393532"/>
                <path id="Trazado_189742" data-name="Trazado 189742" d="M287.74,403.815c-.244-.141-.452-.1-.553.081l-.491.734.416.33.562.234a.779.779,0,0,0,.066.045c.341.2.617.038.617-.356A1.366,1.366,0,0,0,287.74,403.815Z" transform="translate(-280.99 -396.092)" fill="#b6b5b3"/>
                <g id="Grupo_133398" data-name="Grupo 133398">
                  <path id="Trazado_189743" data-name="Trazado 189743" d="M344.269,415.264,317.3,430.836l-38.662-22.322,26.969-15.571Z" transform="translate(-278.637 -392.942)" fill="#f8f5f4"/>
                </g>
                <path id="Trazado_189744" data-name="Trazado 189744" d="M302.589,397.075l-2.607-1.505v-.616a.211.211,0,0,0-.317-.183l-.3.174a1.356,1.356,0,0,1,.328.816.737.737,0,0,1-.011.122l2.633,1.52L290.2,404.4a.11.11,0,0,1-.111,0l-2.711-1.564v-.485l.427-.246c.168-.1-.038-.467-.212-.367l-.532.308a.211.211,0,0,0-.106.183v.729a.211.211,0,0,0,.106.183l2.816,1.626a.534.534,0,0,0,.534,0l12.18-7.031a.38.38,0,0,0,0-.658Z" transform="translate(-281.065 -393.468)" fill="#e0ded7"/>
              </g>
            </g>
          </g>
          <g id="Grupo_133438" data-name="Grupo 133438" transform="translate(11.578 6.546)">
            <g id="Grupo_133407" data-name="Grupo 133407">
              <g id="Grupo_133402" data-name="Grupo 133402">
                <path id="Trazado_189745" data-name="Trazado 189745" d="M292.424,414.648l-2.9-1.672.045-.026,23.979-13.844,2.9,1.672-.045.026Zm-2.776-1.672,2.776,1.6,23.9-13.8-2.777-1.6Z" transform="translate(-289.528 -399.106)" fill="#3a3737"/>
              </g>
              <g id="Grupo_133403" data-name="Grupo 133403" transform="translate(0.965 0.539)">
                <path id="Trazado_189746" data-name="Trazado 189746" d="M290.921,413.756l-.03-.052,23.964-13.836.03.052Z" transform="translate(-290.891 -399.868)" fill="#3a3737"/>
              </g>
              <g id="Grupo_133404" data-name="Grupo 133404" transform="translate(6.171 10.307)">
                <path id="Trazado_189747" data-name="Trazado 189747" d="M301.079,415.352l-2.837-1.638.03-.052,2.837,1.638Z" transform="translate(-298.243 -413.662)" fill="#3a3737"/>
              </g>
              <g id="Grupo_133405" data-name="Grupo 133405" transform="translate(18.303 3.303)">
                <path id="Trazado_189748" data-name="Trazado 189748" d="M318.213,405.46l-2.837-1.638.03-.052,2.837,1.638Z" transform="translate(-315.376 -403.77)" fill="#3a3737"/>
              </g>
              <g id="Grupo_133406" data-name="Grupo 133406" transform="translate(1.923 1.093)">
                <path id="Trazado_189749" data-name="Trazado 189749" d="M292.274,414.537l-.03-.052,23.964-13.836.03.052Z" transform="translate(-292.244 -400.65)" fill="#3a3737"/>
              </g>
            </g>
            <g id="Grupo_133413" data-name="Grupo 133413" transform="translate(15.508 8.954)">
              <g id="Grupo_133408" data-name="Grupo 133408">
                <path id="Trazado_189750" data-name="Trazado 189750" d="M314.327,427.294l-2.9-1.673.045-.026,23.98-13.844,2.9,1.673-.045.025Zm-2.777-1.673,2.777,1.6,23.9-13.8-2.777-1.6Z" transform="translate(-311.43 -411.751)" fill="#3a3737"/>
              </g>
              <g id="Grupo_133409" data-name="Grupo 133409" transform="translate(0.965 0.54)">
                <path id="Trazado_189751" data-name="Trazado 189751" d="M312.823,426.4l-.03-.052,23.964-13.836.03.052Z" transform="translate(-312.793 -412.513)" fill="#3a3737"/>
              </g>
              <g id="Grupo_133410" data-name="Grupo 133410" transform="translate(6.171 10.308)">
                <path id="Trazado_189752" data-name="Trazado 189752" d="M322.982,428l-2.837-1.638.03-.052,2.837,1.638Z" transform="translate(-320.145 -426.308)" fill="#3a3737"/>
              </g>
              <g id="Grupo_133411" data-name="Grupo 133411" transform="translate(18.303 3.303)">
                <path id="Trazado_189753" data-name="Trazado 189753" d="M340.116,418.106l-2.837-1.638.03-.052,2.837,1.638Z" transform="translate(-337.279 -416.415)" fill="#3a3737"/>
              </g>
              <g id="Grupo_133412" data-name="Grupo 133412" transform="translate(1.923 1.093)">
                <path id="Trazado_189754" data-name="Trazado 189754" d="M314.177,427.183l-.03-.052,23.964-13.836.03.052Z" transform="translate(-314.146 -413.295)" fill="#3a3737"/>
              </g>
            </g>
            <g id="Grupo_133416" data-name="Grupo 133416" transform="translate(18.39 10.601)">
              <g id="Grupo_133414" data-name="Grupo 133414">
                <path id="Trazado_189755" data-name="Trazado 189755" d="M316.435,428.5l-.935-.54.03-.052.9.523,23.9-13.8-.875-.5.03-.052.965.557Z" transform="translate(-315.5 -414.077)" fill="#3a3737"/>
              </g>
              <g id="Grupo_133415" data-name="Grupo 133415" transform="translate(6.126 10.298)">
                <path id="Trazado_189756" data-name="Trazado 189756" d="M325.091,429.215l-.939-.542.03-.052.939.542Z" transform="translate(-324.152 -428.621)" fill="#3a3737"/>
              </g>
            </g>
            <path id="Trazado_189757" data-name="Trazado 189757" d="M302.72,413.191l2.388-1.379.164.1-2.388,1.379Zm.294.586.165.095,1.98-1.144-.165-.095Zm-.021.2-.165-.095-2.373,1.369.165.1Zm-1.354.026,1.059-.612-.164-.095-1.06.612Zm-.186.108-.165-.1-1.318.761.165.1Zm2.569-2.239,1.06-.612-.165-.095-1.06.612Zm1.273-.17.165.1,2.2-1.272-.164-.095Zm2.063-.435-2.176,1.257.164.095,2.177-1.256Zm-6.924,4.188-.165-.1L297,417.248l.164.095ZM299.3,414.6l2.373-1.369-.165-.1-2.373,1.37Zm2.559-1.477,1.98-1.144-.165-.095-1.98,1.143Zm-2.745,1.585-.165-.095L295.7,416.49l.165.1Zm6.158-3.555,1.505-.869-.165-.1-1.505.87Zm-5.484,3.732-3.444,1.988.165.095,3.443-1.988Zm-4.57,1.318,1.007-.581-.165-.095-1.007.581Zm9.575-5.718.165.1,1.318-.762-.164-.095Zm-2.41,1.582,2.388-1.379-.164-.1-2.388,1.379Zm-1.246.719,1.059-.612-.165-.095-1.059.611Zm-1.5.868,1.318-.76-.165-.1-1.318.761Zm-3.221,1.86,3.035-1.752-.165-.095-3.035,1.752Zm16.772-9.883.165.1,1.981-1.144-.165-.1Zm-.021.2-.165-.1-2.373,1.37.165.095Zm.5.274.165.095,1.318-.76-.165-.1Zm1.5-.869.165.1,1.059-.612-.165-.1Zm.722.338.165.1,1.98-1.144-.165-.1Zm-1.72,1.749.164.095,1.318-.76-.165-.1Zm1.534-1.641-2.373,1.37.165.095,2.373-1.369Zm1.03.161-1.059.612.165.1,1.059-.612Zm2.068-2.7-2.388,1.379.164.1,2.388-1.379Zm-5.492,4.117-.165-.095-4.785,2.762.165.1Zm-2.89.913-.164-.095-2.548,1.471.165.095Zm7.1-5.047-2.177,1.257.165.095,2.177-1.257Zm-6.924,4.188-.165-.095-3.387,1.955.164.1Zm6.32-1.573.165.1,2.388-1.379-.165-.095Zm1.137-1.411.165.095,1.059-.612-.164-.1Zm-7.13,5.062-.164-.095-1.717.991.164.095Zm3.057-1.955-3.035,1.753.165.095,3.035-1.752Zm3.727-4.418.165.095,1.2-.692-.165-.095Zm-4.069,3.295-.165-.095-3.035,1.752.165.095Zm5.661-2.7.165.095.654-.377-.164-.1Zm.9.233-.712.411.165.095.712-.411Z" transform="translate(-291.14 -400.046)" fill="#3a3737" opacity="0.6"/>
            <path id="Trazado_189758" data-name="Trazado 189758" d="M326.449,427.953l-.135-.078-1.918,1.107.135.078Zm.822-.012.135.078,1.918-1.107-.135-.078Zm3.2-2.31,1.136-.655-.135-.078-1.136.655Zm-1.129,1.115.135.078.84-.485-.135-.078Zm-2.875,1.042.135.078,1.942-1.122-.135-.078Zm3.716-2.145-1.622.936.135.078,1.621-.936Zm.007,1.233-1.078.622.135.078,1.079-.622Zm.287-.011.983-.567-.135-.078-.982.567Zm-.008-.614,1.259-.727-.135-.078-1.26.727Zm-1.511,1.335-2.485,1.434.135.078,2.485-1.434Zm-3.286,1.9-2.207,1.274.135.078,2.207-1.274Zm-1.16.051-1.578.911.135.078,1.578-.911Zm1.944-.348-.135-.078-.5.286.135.078Zm-2.078-.038-.135-.078-1.84,1.063.135.078Zm2.875-1.042-.135-.078-2.453,1.416.135.078Zm13.085-7.71,1.955-1.129.135.078-1.955,1.129Zm.224.646-.135-.078-1.942,1.121.135.078Zm-1.108.021.867-.5-.135-.078-.867.5Zm-.153.088-.135-.078-1.079.623.135.078Zm2.1-1.833.867-.5-.135-.078-.867.5Zm1.042-.139.135.078,1.611-.93-.135-.078Zm-3.979,3.072-.134-.078-2.773,1.6.135.078Zm-.931-.7,1.942-1.121-.135-.078-1.942,1.121Zm2.095-1.209,1.621-.935-.135-.078-1.621.935Zm-2.247,1.3-.135-.078-2.753,1.59.135.078Zm5.041-2.91,1.232-.712-.135-.078-1.233.711Zm-4.489,3.054-2.917,1.685.135.078,2.917-1.685Z" transform="translate(-299.125 -404.604)" fill="#3a3737" opacity="0.6"/>
            <g id="Grupo_133431" data-name="Grupo 133431" transform="translate(7.787 4.496)">
              <g id="Grupo_133422" data-name="Grupo 133422">
                <g id="Grupo_133417" data-name="Grupo 133417">
                  <path id="Trazado_189759" data-name="Trazado 189759" d="M303.423,421l-2.9-1.673.045-.026,23.98-13.844,2.9,1.672-.045.025Zm-2.777-1.673,2.777,1.6,23.9-13.8-2.776-1.6Z" transform="translate(-300.526 -405.456)" fill="#3a3737"/>
                </g>
                <g id="Grupo_133418" data-name="Grupo 133418" transform="translate(0.965 0.54)">
                  <path id="Trazado_189760" data-name="Trazado 189760" d="M301.919,420.106l-.03-.052,23.964-13.835.03.052Z" transform="translate(-301.889 -406.218)" fill="#3a3737"/>
                </g>
                <g id="Grupo_133419" data-name="Grupo 133419" transform="translate(6.171 10.307)">
                  <path id="Trazado_189761" data-name="Trazado 189761" d="M312.078,421.7l-2.837-1.638.03-.052,2.837,1.638Z" transform="translate(-309.241 -420.012)" fill="#3a3737"/>
                </g>
                <g id="Grupo_133420" data-name="Grupo 133420" transform="translate(18.303 3.303)">
                  <path id="Trazado_189762" data-name="Trazado 189762" d="M328.254,411.257l-1.878-1.085.03-.052,1.878,1.085Z" transform="translate(-326.375 -410.12)" fill="#3a3737"/>
                </g>
                <g id="Grupo_133421" data-name="Grupo 133421" transform="translate(1.923 1.093)">
                  <path id="Trazado_189763" data-name="Trazado 189763" d="M303.273,420.888l-.03-.052L327.206,407l.03.052Z" transform="translate(-303.242 -407)" fill="#3a3737"/>
                </g>
              </g>
              <g id="Grupo_133427" data-name="Grupo 133427" transform="translate(1.956 1.646)">
                <g id="Grupo_133423" data-name="Grupo 133423" transform="translate(1.846 0.531)">
                  <path id="Trazado_189764" data-name="Trazado 189764" d="M305.925,422.419l-.03-.052,23.964-13.836.03.052Z" transform="translate(-305.895 -408.531)" fill="#3a3737"/>
                </g>
                <g id="Grupo_133424" data-name="Grupo 133424" transform="translate(7.052 10.299)">
                  <path id="Trazado_189765" data-name="Trazado 189765" d="M315.126,423.463l-1.878-1.085.03-.052,1.878,1.085Z" transform="translate(-313.248 -422.326)" fill="#3a3737"/>
                </g>
                <g id="Grupo_133425" data-name="Grupo 133425" transform="translate(20.105 3.826)">
                  <path id="Trazado_189766" data-name="Trazado 189766" d="M332.664,413.8l-.983-.568.03-.052.983.568Z" transform="translate(-331.681 -413.184)" fill="#3a3737"/>
                </g>
                <g id="Grupo_133426" data-name="Grupo 133426">
                  <path id="Trazado_189767" data-name="Trazado 189767" d="M306.108,422.762l-2.82-1.628.03-.052,2.79,1.612,23.9-13.8-1.834-1.059.03-.052,1.924,1.11-.045.026Z" transform="translate(-303.288 -407.781)" fill="#3a3737"/>
                </g>
              </g>
              <g id="Grupo_133428" data-name="Grupo 133428" transform="translate(16.878 6.294)">
                <path id="Trazado_189768" data-name="Trazado 189768" d="M325.321,414.951l-.958-.553.03-.052.958.553Z" transform="translate(-324.363 -414.345)" fill="#3a3737"/>
              </g>
              <g id="Grupo_133429" data-name="Grupo 133429" transform="translate(22.907 3.92)">
                <path id="Trazado_189769" data-name="Trazado 189769" d="M333.8,411.576l-.92-.531.03-.052.92.531Z" transform="translate(-332.877 -410.992)" fill="#3a3737"/>
              </g>
              <g id="Grupo_133430" data-name="Grupo 133430" transform="translate(15.344 8.287)">
                <path id="Trazado_189770" data-name="Trazado 189770" d="M323.116,417.742l-.92-.531.03-.052.92.531Z" transform="translate(-322.196 -417.159)" fill="#3a3737"/>
              </g>
            </g>
            <g id="Grupo_133432" data-name="Grupo 133432" transform="translate(40.904 11.438)">
              <path id="Trazado_189771" data-name="Trazado 189771" d="M348.216,415.842l-.921-.531.03-.052.921.531Z" transform="translate(-347.295 -415.259)" fill="#3a3737"/>
            </g>
            <g id="Grupo_133433" data-name="Grupo 133433" transform="translate(14.631 8.43)">
              <path id="Trazado_189772" data-name="Trazado 189772" d="M310.221,424.9l-.03-.052,23.964-13.836.03.052Z" transform="translate(-310.191 -411.011)" fill="#3a3737"/>
            </g>
            <g id="Grupo_133434" data-name="Grupo 133434" transform="translate(20.505 20.629)">
              <path id="Trazado_189773" data-name="Trazado 189773" d="M318.517,433.319l-.03-.052,8.709-5.028.03.052Z" transform="translate(-318.486 -428.239)" fill="#3a3737"/>
            </g>
            <g id="Grupo_133435" data-name="Grupo 133435" transform="translate(28.932 21.122)">
              <path id="Trazado_189774" data-name="Trazado 189774" d="M330.418,438.389l-.03-.052,16.282-9.4.03.052Z" transform="translate(-330.388 -428.936)" fill="#3a3737"/>
            </g>
            <path id="Trazado_189775" data-name="Trazado 189775" d="M333.732,425.772a.081.081,0,0,1,0,.154.294.294,0,0,1-.266,0,.081.081,0,0,1,0-.154A.294.294,0,0,1,333.732,425.772Zm.269.309a.081.081,0,0,0,0,.154.294.294,0,0,0,.266,0,.081.081,0,0,0,0-.154A.294.294,0,0,0,334,426.081Zm.535.309a.081.081,0,0,0,0,.154.294.294,0,0,0,.266,0,.081.081,0,0,0,0-.154A.294.294,0,0,0,334.537,426.39Zm-13.119,6.338a.081.081,0,0,0,0,.154.294.294,0,0,0,.266,0,.081.081,0,0,0,0-.154A.294.294,0,0,0,321.417,432.728Zm.535.309a.081.081,0,0,0,0,.154.294.294,0,0,0,.266,0,.081.081,0,0,0,0-.154A.294.294,0,0,0,321.953,433.037Zm.535.309a.081.081,0,0,0,0,.154.294.294,0,0,0,.266,0,.081.081,0,0,0,0-.154A.294.294,0,0,0,322.488,433.347Z" transform="translate(-298.821 -406.881)" fill="#3a3737"/>
            <g id="Grupo_133436" data-name="Grupo 133436" transform="translate(34.286 11.821)">
              <path id="Trazado_189776" data-name="Trazado 189776" d="M337.979,421.732l-.03-.052,10.183-5.879.03.052Z" transform="translate(-337.949 -415.801)" fill="#3a3737"/>
            </g>
            <g id="Grupo_133437" data-name="Grupo 133437" transform="translate(47.258 16.719)">
              <path id="Trazado_189777" data-name="Trazado 189777" d="M356.3,425.993l-.03-.052,5.583-3.223.03.052Z" transform="translate(-356.269 -422.717)" fill="#3a3737"/>
            </g>
            <path id="Trazado_189778" data-name="Trazado 189778" d="M304.064,418.987l.165.095,1.692-.976-.165-.1Zm3.838-2.216-1.96,1.132.165.1,1.96-1.132Zm-7.081,4.279-.165-.1-1.717.991.165.1Zm3.057-1.955-3.035,1.752.164.1,3.036-1.753Z" transform="translate(-292.275 -404.263)" fill="#3a3737" opacity="0.6"/>
            <path id="Trazado_189779" data-name="Trazado 189779" d="M312.336,425.265l.165.095,2.992-1.727-.164-.1Zm5.139-2.967-1.96,1.132.165.1,1.96-1.132Zm-6.062,3.691-.165-.1-2.736,1.58.165.1Zm.737-.616-.716.413.165.1.716-.414Z" transform="translate(-295.07 -405.876)" fill="#3a3737" opacity="0.6"/>
            <path id="Trazado_189780" data-name="Trazado 189780" d="M360.552,422.024a.178.178,0,0,0-.089.023,4.987,4.987,0,0,0-.823.605c-.381.332-.743.675-1.08,1.025.091-.133.183-.266.273-.4l.251-.372c.128-.191.066-.222.045-.232a.217.217,0,0,0-.147.008c-.03.011-.43.319-.583.452l-.088.077a5.373,5.373,0,0,1,.569-.513c.432-.291.862-.588,1.266-.892.012-.009.01-.022,0-.029a.057.057,0,0,0-.05,0,12.174,12.174,0,0,0-1.268.893c-.229.155-.46.307-.688.458l-.161.108c-.105-.011-.271.156-.273.157-.021.021-.039.041-.057.062l-.331.222c.085-.237.159-.473.23-.707.061-.195.123-.4.191-.594,0-.011-.008-.022-.026-.025a.044.044,0,0,0-.044.014l-.984,1.749c-.266.189-.527.381-.777.576a1.88,1.88,0,0,0-.309.283c-.007.01,0,.021.013.027a.055.055,0,0,0,.047,0c.283-.188.573-.382.855-.579l-.316.562c-.006.011,0,.023.023.027a.046.046,0,0,0,.046-.013l.43-.705.124-.09c.073-.053.146-.108.218-.162l0,.122q-.16.137-.314.278c-.011.01-.006.023.01.028a.052.052,0,0,0,.05,0l.188-.152c-.016.032-.032.063-.049.095a1.375,1.375,0,0,1-.608.642.729.729,0,0,1-.236.078.76.76,0,0,1-.382-.058,1.315,1.315,0,0,1-.288-.181.057.057,0,0,0-.052,0c-.015.007-.019.021-.006.03a1.377,1.377,0,0,0,.3.189.869.869,0,0,0,.441.065.822.822,0,0,0,.268-.088,1.415,1.415,0,0,0,.629-.661c.016-.03.032-.061.047-.091l0,.173c0,.011.013.019.031.021a.044.044,0,0,0,.04-.015l.152-.293a.063.063,0,0,0,.035,0,.659.659,0,0,0,.364-.251.067.067,0,0,0,.006.037.042.042,0,0,0,.042.016c.115-.012.144-.128.164-.212a.494.494,0,0,1,.015-.053c.047-.045.086-.074.123-.1a.045.045,0,0,0,.033.016.048.048,0,0,0,.033-.009.6.6,0,0,0,.217-.291,1.252,1.252,0,0,0,.1-.151l.058-.05c.152-.13.544-.433.561-.438a.141.141,0,0,1,.062-.013c.011.006.023.051-.067.185l-.25.371c-.168.246-.339.5-.51.739-.008.01,0,.022.018.027a.057.057,0,0,0,.041,0,17.185,17.185,0,0,1,1.386-1.35,4.9,4.9,0,0,1,.813-.6c.013-.008.028-.011.028-.013a.056.056,0,0,0,.051,0c.016-.007.02-.021.007-.03A.08.08,0,0,0,360.552,422.024Zm-3.98,2.286c-.229.163-.465.323-.7.48l.089-.071q.318-.247.655-.489Zm.876-.656-.175.133A1.334,1.334,0,0,1,357.448,423.655Zm-.213.232.083-.063.107-.082-.043.079c-.021.034-.043.068-.062.1l-.151.126C357.191,424,357.213,423.941,357.235,423.887Zm-.13.029a.2.2,0,0,1,.074-.079l-.012.032Zm.45-1.216c-.028.09-.057.179-.084.268-.08.258-.161.52-.258.781l-.11.075v-.086c-.034-.022-.049-.021-.06-.016l-.029.016a.388.388,0,0,0-.072.052Zm-.65,1.243a.5.5,0,0,1,.125-.152v.083l-.146.1Zm-.139.228.05-.081.217-.152v.033C356.945,424.037,356.856,424.1,356.766,424.17Zm.348.189,0-.164.115-.1C357.2,424.159,357.114,424.359,357.114,424.359Zm-.007-.375c.013,0,.007.016,0,.031Zm.508-.058a.692.692,0,0,1-.27.224,1.137,1.137,0,0,1,.389-.416A1.088,1.088,0,0,1,357.614,423.926Zm.174-.287c-.035.02-.059.034-.081.049l.033-.028.069-.054Zm-.019-.081-.09.078-.193.152.016-.031.026-.038.028-.039.058-.082q.164-.123.333-.246c0,.022-.01.043-.016.065Zm.258-.23a.18.18,0,0,0,0-.033l.1-.067C358.091,423.261,358.058,423.294,358.027,423.328Z" transform="translate(-308.741 -405.723)" fill="#3a3737"/>
            <path id="Trazado_189781" data-name="Trazado 189781" d="M331.184,435.424c-1.658.957-1.658,2.509,0,3.467a6.635,6.635,0,0,0,6,0c1.658-.957,1.658-2.509,0-3.467A6.639,6.639,0,0,0,331.184,435.424Zm5.885,3.4a6.374,6.374,0,0,1-5.766,0c-1.592-.919-1.592-2.41,0-3.329a6.374,6.374,0,0,1,5.766,0C338.661,436.413,338.661,437.9,337.069,438.822Zm-4.926-.485a4.515,4.515,0,0,0,4.086,0,1.245,1.245,0,0,0,0-2.359,4.517,4.517,0,0,0-4.086,0A1.245,1.245,0,0,0,332.143,438.337Zm.624-2a3.136,3.136,0,0,1,2.838,0,.865.865,0,0,1,0,1.638,3.137,3.137,0,0,1-2.838,0A.865.865,0,0,1,332.767,436.338Zm-.8-.513c-.023,0-.324-.193-.324-.193s.048-.038.048-.038c.022,0,.273.161.273.161a1.377,1.377,0,0,0,.128-.061.164.164,0,0,1,.057.023A1.365,1.365,0,0,1,331.97,435.825Zm.306-.149.053-.023a.086.086,0,0,0,.055-.045c0-.018,0-.035-.028-.053l-.081-.064a.137.137,0,0,0-.08-.031.189.189,0,0,0-.092.016l-.053.023c-.032.013-.051.029-.055.046s0,.035.028.053l.081.064a.147.147,0,0,0,.08.031A.19.19,0,0,0,332.275,435.676Zm-.175-.109a.075.075,0,0,1,.039-.048.1.1,0,0,1,.033-.007.848.848,0,0,1,.106.074.075.075,0,0,1-.04.048.07.07,0,0,1-.033.007A.907.907,0,0,1,332.1,435.567Zm.338.031-.181-.173c.006-.012.059-.031.059-.031a.733.733,0,0,0,.079-.028.092.092,0,0,1,.07.021c0,.011-.049.028-.049.028-.03.009-.034.025-.014.044l.115.111c0,.013-.059.031-.059.031A.019.019,0,0,1,332.438,435.6Zm.225-.087a.2.2,0,0,0,.095-.006l.149-.042c.008-.012-.014-.038-.014-.038a.991.991,0,0,0-.157.034.093.093,0,0,1-.035,0c-.026-.03.143-.077.143-.077s-.035-.062-.035-.062a.113.113,0,0,0-.068-.038.217.217,0,0,0-.1.006l-.053.016a.109.109,0,0,0-.068.04q-.016.024.011.055l.06.071A.112.112,0,0,0,332.663,435.511Zm-.042-.132c.062-.045.073-.047.083-.045.035.04-.057.065-.057.065S332.621,435.379,332.621,435.379Zm.342.056-.108-.192a.247.247,0,0,1,.071-.023c.061-.009.076-.014.093-.017a.179.179,0,0,1,.124.006c.006-.021.029-.035.069-.042a.217.217,0,0,1,.113,0,.1.1,0,0,1,.056.044l.075.134a.232.232,0,0,1-.07.023.68.68,0,0,1-.094-.137c-.028-.02-.04-.02-.055-.017-.05.01-.061.023-.049.045l.07.124a.241.241,0,0,1-.071.023.728.728,0,0,1-.093-.137.067.067,0,0,0-.055-.016c-.055.011-.066.024-.055.045l.07.125a.226.226,0,0,1-.07.023C332.973,435.443,332.966,435.44,332.963,435.435Zm.63-.346c-.016-.007-.027-.045-.027-.045a.3.3,0,0,1,.076-.015c.018.006.028.044.028.044A.284.284,0,0,1,333.593,435.089Zm.069.246a1.1,1.1,0,0,1-.074-.207.274.274,0,0,1,.076-.016,1.135,1.135,0,0,1,.073.207A.251.251,0,0,1,333.663,435.335Zm.149.036a.32.32,0,0,0,.08.006c.015-.01.005-.083.005-.083a.087.087,0,0,0,.035.016.155.155,0,0,0,.045,0,.209.209,0,0,0,.115-.023.053.053,0,0,0,.023-.053l-.011-.079a.066.066,0,0,0-.036-.051.179.179,0,0,0-.089-.014.243.243,0,0,0-.074.009.049.049,0,0,0-.027.018c-.021-.023-.084-.02-.084-.02A1.575,1.575,0,0,0,333.811,435.371Zm.118-.229h.033a.063.063,0,0,1,.034,0,.389.389,0,0,1,.023.093c-.013.024-.024.027-.04.027l-.033,0c-.034,0-.052-.009-.055-.03l-.008-.06C333.879,435.156,333.894,435.144,333.929,435.142Zm.2,0a.05.05,0,0,1,.03-.044.214.214,0,0,1,.088-.013l.125,0c0,.045-.106.044-.106.044-.024,0-.036,0-.037.01s.009.016.03.023l.074.027a.15.15,0,0,1,.054.026.037.037,0,0,1,.014.033c0,.038-.042.057-.12.056l-.142,0c0-.045.127-.043.127-.043.024,0,.037,0,.037-.013s-.009-.016-.029-.023l-.072-.025a.185.185,0,0,1-.055-.025A.036.036,0,0,1,334.132,435.146Zm.333.1.031-.139a.3.3,0,0,1,.081,0c.013.01-.017.147-.017.147.011.024.021.027.037.028.062,0,.081,0,.086-.027l.029-.13a.293.293,0,0,1,.08,0,.974.974,0,0,1-.032.21.3.3,0,0,1-.08,0,.043.043,0,0,0-.047-.01.177.177,0,0,1-.044,0,.2.2,0,0,1-.108-.027A.049.049,0,0,1,334.465,435.244Zm.333.084.094-.195a.287.287,0,0,1,.08,0,.038.038,0,0,0,.045.013.2.2,0,0,1,.05,0c.062.01.087.024.1.045a.14.14,0,0,1,.1-.013.174.174,0,0,1,.1.035.048.048,0,0,1,0,.055l-.066.135a.288.288,0,0,1-.08,0c-.012-.011.053-.144.053-.144,0-.025-.015-.028-.03-.031-.05-.008-.072,0-.083.021l-.06.126a.318.318,0,0,1-.081,0c-.01-.011.054-.144.054-.144-.006-.025-.015-.028-.031-.031-.055-.008-.077,0-.087.02l-.06.126a.291.291,0,0,1-.081,0C334.8,435.338,334.8,435.334,334.8,435.329Zm.713.124a.1.1,0,0,0,.064.039.263.263,0,0,0,.071.014.088.088,0,0,0,.04-.009c0,.025.056.042.056.042a3.168,3.168,0,0,0,.241-.26c-.007-.012-.064-.028-.064-.028-.021,0-.1.092-.1.092-.025-.031-.037-.037-.05-.041a.244.244,0,0,0-.12-.014.121.121,0,0,0-.067.04l-.061.071C335.506,435.419,335.5,435.437,335.511,435.453Zm.1-.033.057-.066c.033-.018.044-.016.058-.012l.03.008c.03.009.038.023.021.042l-.047.054a.062.062,0,0,1-.072.016l-.03-.008C335.6,435.436,335.6,435.428,335.611,435.42Zm.5.172.074-.067c.021-.018.028-.036.021-.054s-.026-.031-.059-.044l-.056-.02a.185.185,0,0,0-.093-.013.126.126,0,0,0-.075.033l-.075.067c-.022.019-.029.037-.023.054s.027.031.061.044l.055.02a.2.2,0,0,0,.093.013A.136.136,0,0,0,336.116,435.592Zm-.193-.05a.649.649,0,0,1,.081-.083c.035-.015.046-.013.059-.008l.032.011c.014.035-.057.1-.057.1-.035.014-.047.012-.061.007l-.031-.012Q335.927,435.549,335.923,435.542Zm.54-.088c0,.013-.293.241-.293.241a.234.234,0,0,1-.074-.02c0-.013.295-.241.295-.241A.246.246,0,0,1,336.464,435.454Zm-.023.127a.142.142,0,0,0-.079.03l-.083.063c-.024.018-.034.036-.029.053s.023.033.054.046l.053.023a.186.186,0,0,0,.091.016.142.142,0,0,0,.081-.03l.083-.064q.035-.027.028-.053c0-.017-.022-.033-.052-.046l-.055-.023A.178.178,0,0,0,336.44,435.581Zm.106.088a.81.81,0,0,1-.091.08.055.055,0,0,1-.028.012.073.073,0,0,1-.033-.007l-.03-.013c-.008-.035.07-.1.07-.1.037-.013.048-.011.061-.006l.03.013C336.538,435.659,336.545,435.664,336.547,435.669Zm.246.1a.131.131,0,0,1,.044,0,.145.145,0,0,1,.038.014c.016.024-.021.045-.021.045a.162.162,0,0,1-.057-.023.072.072,0,0,0-.077,0l-.166.089a.2.2,0,0,1-.065-.028,2.968,2.968,0,0,1,.258-.15.208.208,0,0,1,.066.028C336.811,435.763,336.792,435.773,336.792,435.773Zm-.066.256c0-.012.044-.028.044-.028a.426.426,0,0,1,.093.061.038.038,0,0,0,.039.011.154.154,0,0,0,0-.076.059.059,0,0,1,0-.04.067.067,0,0,1,.038-.027.147.147,0,0,1,.079-.013.142.142,0,0,1,.07.032l.072.06c0,.012-.044.028-.044.028a.334.334,0,0,1-.081-.051.035.035,0,0,0-.036-.011.185.185,0,0,0,0,.078.053.053,0,0,1,0,.04.081.081,0,0,1-.038.027.14.14,0,0,1-.15-.022Zm.61-.007a.154.154,0,0,1,.055.035c0,.011-.062.031-.062.031a.154.154,0,0,1-.053-.035C337.281,436.041,337.336,436.022,337.336,436.022Zm-.424.147.3-.1a.148.148,0,0,1,.054.035c-.006.012-.305.116-.305.116a.149.149,0,0,1-.055-.034C336.9,436.176,336.9,436.172,336.912,436.169Zm.482-.037a.141.141,0,0,1,.051.036c-.007.012-.07.032-.07.032s.023.036.023.036-.052.025-.052.025a.119.119,0,0,1-.047-.034c-.011,0-.158.042-.158.042a.091.091,0,0,1-.057.076.1.1,0,0,1-.042-.028c-.018-.021-.023-.038-.014-.055a.106.106,0,0,1,.065-.04l.15-.045c0-.034.042-.047.042-.047A.182.182,0,0,0,337.394,436.132Zm-.124.3a.132.132,0,0,0-.075.035.046.046,0,0,0,0,.056.083.083,0,0,0,.03.032.09.09,0,0,0,.038.01c-.031.018-.011.052-.011.052.021.006.35-.062.35-.062s-.047-.106-.047-.106a.1.1,0,0,0-.061-.044.207.207,0,0,0-.1,0Zm.213.042.023.038a1.459,1.459,0,0,1-.147.035c-.036.008-.06,0-.071-.017-.006-.04,0-.044.018-.047l.122-.025a.074.074,0,0,1,.035,0A.036.036,0,0,1,337.483,436.475Zm.149.123c.018.007.031.043.031.043-.023.017-.011.022,0,.029a.067.067,0,0,1,.021.026c.013.037,0,.057-.025.071a.075.075,0,0,1,.064.044c.012.034.007.052-.01.065a.157.157,0,0,1-.083.027l-.239.028c-.018-.007-.03-.043-.03-.043a2.393,2.393,0,0,1,.246-.038.058.058,0,0,0,.031-.01c-.007-.05-.029-.057-.067-.053l-.222.026c-.018-.007-.031-.043-.031-.043a2.4,2.4,0,0,1,.247-.038.061.061,0,0,0,.031-.01c-.008-.052-.03-.06-.067-.056l-.222.026c-.018-.006-.031-.043-.031-.043S337.633,436.6,337.633,436.6Zm-.137.36a.168.168,0,0,0-.088.022.052.052,0,0,0-.025.053l.009.1a.2.2,0,0,0,.066.006c.016-.009.006-.1.006-.1.014-.024.025-.026.04-.027s.037.113.037.113a.525.525,0,0,0,.111,0,.169.169,0,0,0,.089-.022.054.054,0,0,0,.026-.054l0-.034a.064.064,0,0,0-.038-.051.181.181,0,0,0-.092-.016Zm.186.073c-.011.042-.023.044-.039.045h-.035c-.008-.005-.014-.063-.014-.063a.14.14,0,0,1,.043-.006.077.077,0,0,1,.035,0A.022.022,0,0,1,337.682,437.032Zm.1.135h.072c.014.011.013.046.013.046a.357.357,0,0,1-.087.008c-.009,0-.01.039-.01.039a.231.231,0,0,1-.068.008c-.015-.009-.013-.043-.013-.043s-.173-.008-.173-.008a.072.072,0,0,0-.035.006.1.1,0,0,1-.079.045c-.012-.058,0-.076.021-.088a.17.17,0,0,1,.09-.018l.171,0a.106.106,0,0,1,.076-.03C337.774,437.164,337.776,437.165,337.782,437.166Zm-.463.114.171.008c.013.009.007.048.007.048a.252.252,0,0,1-.073,0,.121.121,0,0,1-.045-.012l-.071-.033C337.3,437.282,337.309,437.28,337.319,437.28Zm.282.212a.146.146,0,0,1,.083.029.047.047,0,0,1,.013.055l-.023.064a.225.225,0,0,1-.069,0c-.011-.011.008-.065.008-.065-.009-.024-.019-.028-.035-.03l-.126-.015a.087.087,0,0,0-.035,0,.286.286,0,0,0-.036.072.219.219,0,0,1-.069,0c-.012-.01.01-.074.01-.074a.08.08,0,0,1,.05-.047.191.191,0,0,1,.095-.008Zm-.19.142a.21.21,0,0,0-.1,0,.1.1,0,0,0-.057.045l-.019.037a.044.044,0,0,0,0,.055.128.128,0,0,0,.076.033l.132.023a.185.185,0,0,0,.1,0,.09.09,0,0,0,.057-.044l.02-.037a.047.047,0,0,0,0-.056.131.131,0,0,0-.077-.033Zm.128.106c-.038.041-.05.041-.065.038l-.126-.023a.045.045,0,0,1-.028-.011c.039-.061.05-.061.066-.058l.125.023a.057.057,0,0,1,.03.011S337.544,437.731,337.539,437.74Zm-.339.075.322.08c.008.012-.018.046-.018.046-.024.013-.022.028-.037.049a.144.144,0,0,1-.169.047l-.224-.057c-.007-.012.018-.046.018-.046a2.355,2.355,0,0,1,.241.051.079.079,0,0,0,.035,0c.047-.048.035-.062,0-.071l-.207-.052c-.009-.012.017-.045.017-.045A.018.018,0,0,1,337.2,437.815Zm.032.251a.16.16,0,0,1,.059.007c.03.01.048.022.053.036s0,.03-.021.05l-.061.063a.2.2,0,0,1-.063-.011c-.006-.012.045-.064.045-.064-.011-.028-.025-.026-.047-.018l-.076.025a.241.241,0,0,1-.064.015.156.156,0,0,1-.058-.009c-.059-.019-.068-.048-.03-.088l.069-.071a.188.188,0,0,1,.063.01c.006.012-.056.075-.056.075s-.011.02,0,.024a.071.071,0,0,0,.049,0l.072-.025A.244.244,0,0,1,337.232,438.065Zm-.32.1a.145.145,0,0,0-.077.033l-.1.079c0,.012.043.028.043.028a.531.531,0,0,0,.11-.073.056.056,0,0,1,.028-.013.079.079,0,0,1,.033.006c.016.013-.093.1-.093.1s.081.045.081.045a.2.2,0,0,0,.093.015.146.146,0,0,0,.079-.033l.034-.028c.022-.018.031-.036.026-.054s-.023-.032-.056-.045L337,438.18A.2.2,0,0,0,336.912,438.165Zm.171.12c-.065.047-.077.045-.09.04l-.03-.012c0-.006.057-.055.057-.055a.132.132,0,0,1,.04.011C337.073,438.275,337.081,438.28,337.083,438.285Zm-.291.066.1.052c.03.015.045.031.047.048s-.01.035-.035.052l-.073.049a.18.18,0,0,1-.061-.018c0-.013.061-.055.061-.055,0-.035-.1-.084-.1-.084a.077.077,0,0,0-.033-.009.06.06,0,0,0-.03.011l-.062.042a.171.171,0,0,1-.062-.018c0-.013.072-.061.072-.061a.166.166,0,0,1,.083-.028A.179.179,0,0,1,336.792,438.351Zm-.041.188a.461.461,0,0,1,.048.025c-.022.032.028.061.028.061s-.046.039-.046.039a.247.247,0,0,1-.072-.03.225.225,0,0,0-.053.024.175.175,0,0,1-.059-.021c0-.013.042-.036.042-.036a1.009,1.009,0,0,0-.115-.075.059.059,0,0,0-.031-.01.061.061,0,0,0-.031.011.109.109,0,0,1-.079-.01c0-.012.033-.03.033-.03a.181.181,0,0,1,.088-.025.168.168,0,0,1,.086.024l.119.069Zm-.495.029-.127.061c0,.012.029.035.029.035a.824.824,0,0,0,.139-.055.071.071,0,0,1,.033-.008.058.058,0,0,1,.029.011c.009.015-.135.083-.135.083s.057.055.057.055a.155.155,0,0,0,.084.028.192.192,0,0,0,.09-.019l.045-.022c.03-.014.047-.03.05-.047s-.008-.035-.033-.052l-.088-.061a.156.156,0,0,0-.082-.029A.2.2,0,0,0,336.256,438.567Zm.186.1c-.042.053-.053.055-.062.055a.058.058,0,0,1-.029-.011c-.022-.023.057-.06.057-.06A.1.1,0,0,1,336.441,438.671Zm-.171.115a.456.456,0,0,1,.038.029c-.03.029.009.063.009.063s-.057.033-.057.033a.177.177,0,0,1-.062-.036.279.279,0,0,0-.061.018.126.126,0,0,1-.05-.027c0-.013.052-.032.052-.032a.774.774,0,0,0-.09-.085c-.038-.013-.049-.011-.062-.006a.1.1,0,0,1-.076-.017c0-.012.043-.027.043-.027a.2.2,0,0,1,.093-.015.137.137,0,0,1,.077.032l.1.081C336.263,438.786,336.267,438.785,336.27,438.786Zm-.318,0,.118.123c-.006.012-.061.03-.061.03a.95.95,0,0,1-.138-.125c-.035-.016-.045-.014-.059-.009-.054.017-.06.031-.042.05l.11.114c-.006.013-.061.03-.061.03a1.793,1.793,0,0,1-.193-.18c.008-.013.062-.03.062-.03.055-.016.067-.021.081-.025a.228.228,0,0,1,.113-.016A.123.123,0,0,1,335.952,438.786Zm-.373.047.14.185c-.009.013-.067.027-.067.027-.058.013-.07.018-.084.021a.08.08,0,0,1-.066-.026c.008-.011.055-.023.055-.023.032-.008.04-.023.024-.043l-.091-.119c.009-.012.067-.027.067-.027A.019.019,0,0,1,335.579,438.834Zm-.177.112a.093.093,0,0,0-.059-.044.208.208,0,0,0-.1,0,.181.181,0,0,0-.056.017c-.048,0-.108.015-.108.015a1.126,1.126,0,0,0,.1.2,1.37,1.37,0,0,0,.185-.025.143.143,0,0,0,.076-.034.044.044,0,0,0,0-.056Zm-.089.02.04.07c0,.025-.012.03-.027.032l-.067.013a.468.468,0,0,1-.059-.086c-.012-.021,0-.034.03-.04a.146.146,0,0,1,.062-.006A.037.037,0,0,1,335.314,438.965Zm-.329,0a.184.184,0,0,0-.091-.007.234.234,0,0,0-.071.015.037.037,0,0,0-.023.021.157.157,0,0,0-.089-.013,2.193,2.193,0,0,0,.091.29.3.3,0,0,0,.081,0c.012-.011-.023-.106-.023-.106a.1.1,0,0,0,.038.013.191.191,0,0,0,.045,0c.068-.008.094-.018.109-.033a.047.047,0,0,0,.01-.055l-.029-.078A.078.078,0,0,0,334.985,438.967Zm-.043.062.027.073c-.007.025-.018.028-.033.03l-.033,0c-.033,0-.055,0-.062-.026l-.021-.059c-.009-.021,0-.033.038-.038l.033,0a.078.078,0,0,1,.035,0A.032.032,0,0,1,334.942,439.028Zm-.37-.037.064,0a1.036,1.036,0,0,1,.062.208.241.241,0,0,1-.076.015,1.072,1.072,0,0,1-.062-.208C334.564,438.993,334.567,438.992,334.572,438.992Zm.12.241c.017.008.025.045.025.045a.307.307,0,0,1-.078.014c-.017-.007-.026-.045-.026-.045A.282.282,0,0,1,334.693,439.233Zm-.2-.284a.3.3,0,0,0-.08-.007c-.015.009-.009.083-.009.083a.078.078,0,0,0-.033-.017.2.2,0,0,0-.045,0,.217.217,0,0,0-.115.021.054.054,0,0,0-.025.053l.006.079a.058.058,0,0,0,.034.052.175.175,0,0,0,.088.016.265.265,0,0,0,.074-.008.049.049,0,0,0,.028-.018c.021.023.084.021.084.021A1.552,1.552,0,0,0,334.492,438.949Zm-.129.227h-.033a.08.08,0,0,1-.035,0,.385.385,0,0,1-.017-.093c.015-.024.026-.026.042-.027h.033c.034,0,.052.009.054.031l0,.06C334.415,439.163,334.4,439.174,334.364,439.176Zm-.334.076h.065c.014.009.011.047.011.047a.327.327,0,0,1-.081.006c-.013-.008-.011-.047-.011-.047S334.019,439.252,334.029,439.252Zm.095-.238-.013.2a.278.278,0,0,1-.08.008.968.968,0,0,1,0-.212.3.3,0,0,1,.079-.008C334.119,439.005,334.124,439.008,334.124,439.014Zm-.206.192a.2.2,0,0,1-.088.008l-.124-.008c.008-.045.112-.039.112-.039.025,0,.037,0,.038-.008s-.008-.016-.028-.023l-.071-.03a.144.144,0,0,1-.049-.028.038.038,0,0,1-.01-.035c.007-.038.05-.055.127-.05l.142.009c-.009.045-.132.037-.132.037-.024,0-.038,0-.039.011s.007.016.026.023l.069.028a.149.149,0,0,1,.051.028.033.033,0,0,1,.011.034A.055.055,0,0,1,333.918,439.206Zm-.251-.217-.063.2a.306.306,0,0,1-.081,0,1.043,1.043,0,0,1,.05-.21.306.306,0,0,1,.081,0C333.665,438.98,333.669,438.984,333.667,438.989Zm-.154.227.064.007c.012.01,0,.047,0,.047a.313.313,0,0,1-.082,0c-.011-.009,0-.047,0-.047S333.5,439.216,333.513,439.217Zm-.123-.062a.211.211,0,0,1-.1,0l-.108-.016c-.011-.011,0-.04,0-.04a.547.547,0,0,1,.113.008.093.093,0,0,0,.035,0,.427.427,0,0,0,.05-.089c-.006-.025-.016-.029-.03-.031l-.093-.014c-.012-.011,0-.04,0-.04a.682.682,0,0,1,.127.01.151.151,0,0,1,.081.03.045.045,0,0,1,.009.055l-.035.077A.082.082,0,0,1,333.39,439.155Zm-.394-.017.062.011c.009.011-.012.047-.012.047a.3.3,0,0,1-.081-.006c-.009-.011.012-.047.012-.047A.016.016,0,0,1,333,439.138Zm.209-.213-.112.192a.27.27,0,0,1-.08-.006,1.157,1.157,0,0,1,.1-.2.267.267,0,0,1,.079.006C333.2,438.916,333.207,438.919,333.205,438.925Zm-.37.138a.5.5,0,0,1-.077-.009c-.093-.023-.114-.054-.081-.1l.1-.129a.269.269,0,0,1,.079.01c.009.011-.086.139-.086.139.079.047.1.041.118.021l.09-.121a.3.3,0,0,1,.079.01,1.426,1.426,0,0,1-.13.2.294.294,0,0,1-.079-.011C332.834,439.073,332.831,439.069,332.835,439.063Zm-.157-.184a.05.05,0,0,0,.018-.054.094.094,0,0,0-.06-.04.226.226,0,0,0-.065-.014.086.086,0,0,0-.04.007l.025-.03c.034-.015.046-.013.059-.009l.112.037a.115.115,0,0,0,.047-.029.759.759,0,0,0-.131-.053.2.2,0,0,0-.094-.01.125.125,0,0,0-.073.035l-.183.186a1.073,1.073,0,0,0,.157.062.2.2,0,0,0,.095.01.124.124,0,0,0,.072-.036Zm-.166.046a.07.07,0,0,1-.034,0l-.061-.02c0-.006.062-.074.062-.074a.065.065,0,0,1,.073-.013c.04.042-.015.1-.015.1A.046.046,0,0,1,332.512,438.925Zm-.207-.088.081-.065c.023-.018.032-.036.027-.053s-.024-.032-.055-.045l-.135-.056a.121.121,0,0,0-.05.025.661.661,0,0,0,.125.064c-.011.043-.163-.02-.163-.02a.26.26,0,0,0-.078.046c-.023.019-.032.037-.027.054s.023.032.055.045l.048.02a.2.2,0,0,0,.093.016A.15.15,0,0,0,332.3,438.836Zm-.182-.055c.044-.037.127,0,.127,0-.056.037-.067.035-.079.029C332.131,438.793,332.124,438.787,332.122,438.782Zm.03-.188-.32.217a.236.236,0,0,1-.071-.023c0-.012.319-.229.319-.229a.22.22,0,0,1,.072.023C332.159,438.585,332.159,438.589,332.152,438.594Zm-.482.135a.209.209,0,0,1-.068-.025c0-.012.044-.04.044-.04a.233.233,0,0,1,.069.025C331.716,438.7,331.671,438.73,331.671,438.73Zm.283-.249c.01,0,.057.029.057.029a2.6,2.6,0,0,1-.239.159.217.217,0,0,1-.069-.025,2.514,2.514,0,0,1,.24-.159A.027.027,0,0,1,331.954,438.48Zm-.385.152a.2.2,0,0,1-.064-.028c0-.013.052-.04.052-.04s-.04-.032-.04-.032.038-.033.038-.033a.191.191,0,0,1,.062.026,1.183,1.183,0,0,0,.133-.064c-.018-.062.019-.082.019-.082a.135.135,0,0,1,.052.021q.041.024.04.051c0,.018-.016.033-.044.049l-.124.067c.019.032-.019.052-.019.052A.166.166,0,0,0,331.569,438.633Zm.141-.306.091,0c.012.015-.12.078-.12.078a.188.188,0,0,1-.064-.03c0-.012.047-.033.047-.033A.134.134,0,0,1,331.71,438.327Zm-.355.072a.136.136,0,0,1-.07-.032l-.074-.059c0-.013.045-.029.045-.029a.349.349,0,0,1,.081.051.038.038,0,0,0,.037.011.2.2,0,0,0,0-.079.052.052,0,0,1,0-.04.072.072,0,0,1,.039-.027.138.138,0,0,1,.149.021l.083.067c0,.013-.043.029-.043.029a.472.472,0,0,1-.094-.061.036.036,0,0,0-.039-.01.157.157,0,0,0,0,.076.059.059,0,0,1,0,.04.069.069,0,0,1-.037.028A.146.146,0,0,1,331.354,438.4Zm-.089-.168.12-.04a.1.1,0,0,0,.063-.042c.007-.017,0-.035-.019-.055l-.082-.083a.189.189,0,0,0-.063.011c-.006.013.068.089.068.089-.041.037-.134-.057-.134-.057a.5.5,0,0,0-.1.024.1.1,0,0,0-.062.042c-.008.017,0,.035.018.055l.03.03a.131.131,0,0,0,.073.037A.2.2,0,0,0,331.266,438.231Zm-.119-.074a.088.088,0,0,1,.048-.045.41.41,0,0,1,.062.053c0,.006-.034.016-.034.016a.072.072,0,0,1-.034,0A.2.2,0,0,1,331.147,438.157Zm-.22-.2c.021.086.043.1.069.1a.2.2,0,0,0,.095-.006l.126-.032a.121.121,0,0,0,.071-.036.042.042,0,0,0-.006-.054.107.107,0,0,0-.038-.037.1.1,0,0,0-.04-.009c.03-.019,0-.053,0-.053-.021,0-.474.11-.474.11s.018.046.018.046A1.305,1.305,0,0,0,330.927,437.955Zm.072.035c-.028-.036-.017-.05.018-.058l.094-.024c.035-.008.059,0,.073.014-.01.051-.128.081-.128.081a.087.087,0,0,1-.035,0A.038.038,0,0,1,331,437.99Zm-.255-.358c0,.087.015.1.04.11a.22.22,0,0,0,.1,0l.133-.021a.158.158,0,0,0,.08-.029.043.043,0,0,0,.009-.054.083.083,0,0,0-.028-.04.087.087,0,0,0-.038-.012.039.039,0,0,0,.019-.052c-.02-.006-.5.066-.5.066s.006.047.006.047A1.371,1.371,0,0,0,330.745,437.632Zm.095-.014.1-.015c.037-.006.059,0,.067.021,0,.043-.007.047-.023.049l-.125.018a.073.073,0,0,1-.035,0C330.789,437.636,330.8,437.624,330.839,437.618Zm.084-.1a.147.147,0,0,0,.085-.026.049.049,0,0,0,.018-.054l-.01-.038a.071.071,0,0,0-.045-.049.178.178,0,0,0-.093-.011l-.136.011a.159.159,0,0,0-.085.026.047.047,0,0,0-.018.054l.009.038a.071.071,0,0,0,.045.05.2.2,0,0,0,.094.011Zm-.2-.064c0-.046.016-.049.031-.05l.13-.011a.076.076,0,0,1,.035,0c.011.064,0,.067-.016.069l-.13.011a.069.069,0,0,1-.035,0A.025.025,0,0,1,330.727,437.455Zm.149-.143a.172.172,0,0,0,.089-.021.053.053,0,0,0,.028-.053l-.006-.1a.208.208,0,0,0-.064-.008c-.016.01-.01.1-.01.1-.016.024-.027.026-.042.026s-.033-.113-.033-.113a.5.5,0,0,0-.112-.006.166.166,0,0,0-.089.021.053.053,0,0,0-.028.053l0,.034a.06.06,0,0,0,.035.052.185.185,0,0,0,.092.017Zm-.183-.075c.013-.042.025-.044.04-.044h.036c.009,0,.012.063.012.063a.19.19,0,0,1-.043.006.078.078,0,0,1-.034,0A.021.021,0,0,1,330.692,437.237Zm-.15-.127h-.064c-.015-.008-.013-.047-.013-.047a.3.3,0,0,1,.081-.006c.014.009.011.047.011.047S330.552,437.11,330.542,437.109Zm.065-.007,0-.037c.016-.008.366,0,.366,0,.016.009.013.046.013.046-.016.008-.366,0-.366,0S330.607,437.108,330.607,437.1Zm.263-.082-.242-.017c-.013-.01-.006-.047-.006-.047.018-.008.255.009.255.009a.073.073,0,0,0,.035,0c.021-.054,0-.064-.033-.068l-.225-.016c-.014-.01-.006-.046-.006-.046.018-.009.365.016.365.016s.006.046.006.046c-.03.013-.021.018-.016.027,0,.062-.017.078-.04.088A.191.191,0,0,1,330.871,437.02Zm-.1-.236a.114.114,0,0,1-.069-.026.045.045,0,0,1,0-.052l.028-.07a.2.2,0,0,1,.066,0c.012.011-.012.069-.012.069.025.025.038.021.054.01l.061-.036a.166.166,0,0,1,.054-.025.17.17,0,0,1,.061,0c.064.008.089.035.071.079l-.032.081a.218.218,0,0,1-.066,0c-.01-.011.018-.081.018-.081s0-.022-.014-.024a.066.066,0,0,0-.044.013l-.057.037a.183.183,0,0,1-.054.025A.151.151,0,0,1,330.768,436.784Zm.318-.136-.328-.072c-.01-.011.013-.045.013-.045.057-.088.083-.1.119-.106a.037.037,0,0,1-.014-.057.106.106,0,0,1,.067-.052.209.209,0,0,1,.1,0l.228.05c.009.011-.013.046-.013.046a2.415,2.415,0,0,1-.244-.043.08.08,0,0,0-.035,0c-.04.045-.028.058.008.067l.212.045c.009.012-.013.046-.013.046a2.412,2.412,0,0,1-.245-.043.068.068,0,0,0-.035,0c-.042.047-.029.061.006.069l.212.045c.01.011-.013.046-.013.046S331.1,436.65,331.086,436.648Zm.205-.321a.12.12,0,0,0,.072-.038l.031-.033c.019-.02.024-.038.016-.055a.1.1,0,0,0-.064-.041l-.121-.038a.2.2,0,0,0-.094-.008.127.127,0,0,0-.072.037l-.032.034c-.019.02-.024.039-.016.055a.1.1,0,0,0,.064.041l.12.038A.2.2,0,0,0,331.291,436.327Zm-.193-.108c.059-.054.071-.053.085-.049l.115.036c-.034.069-.046.068-.06.064l-.115-.036C331.109,436.229,331.1,436.225,331.1,436.219Zm.36-.062a.139.139,0,0,0,.076-.031l.106-.089c0-.013-.409-.176-.409-.176a.167.167,0,0,0-.058.032.832.832,0,0,0,.142.069.1.1,0,0,0-.042.006.106.106,0,0,0-.035.017c-.039.033-.047.05-.041.067s.026.03.057.044l.113.045A.2.2,0,0,0,331.458,436.157Zm-.169-.121c.05-.052.076-.053.107-.041l.085.034c.03.013.037.027.017.043-.057.029-.067.028-.081.022l-.105-.043C331.3,436.047,331.291,436.042,331.289,436.036Z" transform="translate(-301.325 -409.499)" fill="#788eff" opacity="0.7"/>
          </g>
        </g>
      </g>
    </g>
    <g id="Grupo_133445" data-name="Grupo 133445" transform="translate(341.864 323.902)">
      <g id="Grupo_133444" data-name="Grupo 133444" transform="translate(0)">
        <path id="Trazado_189782" data-name="Trazado 189782" d="M388.027,351.833a10.592,10.592,0,0,0-5.653-5.2c-2.463-.937-5.573-1.9-9.264.239a4.462,4.462,0,0,0-.4.261,2.109,2.109,0,0,0,.132,3.628c2.618,1.837,5.8,3.56,5.8,3.56a11.027,11.027,0,0,0,2.49.991,7.236,7.236,0,0,0,5.593-.579,2.559,2.559,0,0,0,1.5-2.118A2.485,2.485,0,0,0,388.027,351.833Z" transform="translate(-371.74 -345.283)" fill="url(#radial-gradient)"/>
        <path id="Trazado_189783" data-name="Trazado 189783" d="M379.153,347.648l-1.04-.566a1.049,1.049,0,0,0-1.172.182c-.255.22-.14.312.163.46l1.045.49a1.239,1.239,0,0,0,1.088,0C379.516,348.026,379.456,347.8,379.153,347.648Z" transform="translate(-373.218 -345.692)" fill="#d2d1ce" opacity="0.6" style="mix-blend-mode: multiply;isolation: isolate"/>
        <g id="Grupo_133443" data-name="Grupo 133443" transform="translate(3.563)">
          <g id="Grupo_133442" data-name="Grupo 133442" clip-path="url(#clip-path-2)">
            <g id="Grupo_133441" data-name="Grupo 133441" transform="translate(0.097 0.957)" style="isolation: isolate">
              <path id="Trazado_189784" data-name="Trazado 189784" d="M378.749,346.669a1.011,1.011,0,0,0-1.023-.033l1.5,2.39C379.959,348.47,379.6,347.183,378.749,346.669Z" transform="translate(-377.147 -346.513)" fill="#fffefb"/>
              <path id="Trazado_189785" data-name="Trazado 189785" d="M378.966,347.894a2.181,2.181,0,0,0-.869-1.08.875.875,0,0,0-.5-.135.493.493,0,0,0-.212.065.943.943,0,0,0-.436.581c-.255.906.793,2.434,1.86,1.867C379.119,349.012,379.2,348.489,378.966,347.894Z" transform="translate(-376.908 -346.561)" fill="#b6b5b3"/>
              <path id="Trazado_189786" data-name="Trazado 189786" d="M378.282,348.464a1.362,1.362,0,0,0-.543-.675.547.547,0,0,0-.313-.084c-.3.025-.4.408-.232.852a1.362,1.362,0,0,0,.543.675.54.54,0,0,0,.313.084C378.351,349.291,378.455,348.908,378.282,348.464Z" transform="translate(-376.967 -346.861)" fill="#cccece" opacity="0.5" style="mix-blend-mode: multiply;isolation: isolate"/>
              <path id="Trazado_189787" data-name="Trazado 189787" d="M379.266,347.808c-.013-.034-.027-.067-.042-.1a2.386,2.386,0,0,0-.386-.607,1.8,1.8,0,0,0-.441-.372.876.876,0,0,0-.5-.135.512.512,0,0,0-.212.065l-.1.061a.492.492,0,0,1,.212-.065.875.875,0,0,1,.5.135,1.8,1.8,0,0,1,.441.372,2.4,2.4,0,0,1,.386.607c.015.033.028.067.042.1.23.594.152,1.117-.159,1.3l.1-.06C379.419,348.927,379.5,348.4,379.266,347.808Z" transform="translate(-377.104 -346.536)" fill="#f0efec"/>
            </g>
          </g>
        </g>
        <path id="Trazado_189789" data-name="Trazado 189789" d="M386.917,355.055a7.235,7.235,0,0,1-5.593.58,11.092,11.092,0,0,1-2.49-.991s-3.182-1.723-5.8-3.56a2.287,2.287,0,0,1-1.094-2.039,2.141,2.141,0,0,0,.9,2.723c2.618,1.837,5.8,3.56,5.8,3.56a11.026,11.026,0,0,0,2.49.991,7.236,7.236,0,0,0,5.593-.579,2.642,2.642,0,0,0,1.49-1.964A3.17,3.17,0,0,1,386.917,355.055Z" transform="translate(-371.741 -346.295)" fill="#d2d1ce" opacity="0.6" style="mix-blend-mode: multiply;isolation: isolate"/>
        <path id="Trazado_189790" data-name="Trazado 189790" d="M386.822,355.455a7.236,7.236,0,0,1-5.593.579,11.061,11.061,0,0,1-2.49-.991s-3.182-1.723-5.8-3.56a2.243,2.243,0,0,1-1.073-2.189,2.168,2.168,0,0,0,.979,2.546c2.619,1.837,5.8,3.56,5.8,3.56a11.027,11.027,0,0,0,2.49.991,7.236,7.236,0,0,0,5.593-.579A2.734,2.734,0,0,0,388.193,354,3.006,3.006,0,0,1,386.822,355.455Z" transform="translate(-371.741 -346.368)" fill="#d2d1ce" opacity="0.6" style="mix-blend-mode: multiply;isolation: isolate"/>
      </g>
    </g>
  </g>
</svg>
