<?xml version="1.0" encoding="utf-8"?>
<!-- Generator: Adobe Illustrator 26.1.0, SVG Export Plug-In . SVG Version: 6.00 Build 0)  -->
<svg version="1.1" id="Capa_1" xmlns="http://www.w3.org/2000/svg" xmlns:xlink="http://www.w3.org/1999/xlink" x="0px" y="0px"
	 viewBox="0 0 820 596.3" style="enable-background:new 0 0 820 596.3;" xml:space="preserve">
<style type="text/css">
	.st0{fill:#EDEEF4;}
	.st1{fill:#0D2380;}
	.st2{fill:#FC502D;}
	.st3{opacity:0.56;fill:#FFFFFF;enable-background:new    ;}
	.st4{fill:#CCC198;}
	.st5{fill:#FFF2BF;}
	.st6{fill:#FFFFFF;}
	.st7{fill:#02040E;}
	.st8{fill:#04060F;}
	.st9{fill:#FC918A;}
	.st10{fill:#12263F;}
	.st11{fill:#E8666C;}
	.st12{fill:#424555;}
	.st13{fill:#FF3923;}
	.st14{fill:#D3D3D3;}
	.st15{fill:#F2796D;}
	.st16{fill:#621D3A;}
	.st17{fill:#282720;}
	.st18{opacity:0.5;fill:#FC502D;enable-background:new    ;}
	.st19{fill:#3B405E;}
	.st20{enable-background:new    ;}
	.st21{fill:none;stroke:#0D2380;stroke-width:5;}
</style>
<g id="Grupo_134871" transform="translate(-390 -2645)">
	<g id="Background" transform="translate(801 3042)">
		<g id="_12" transform="translate(0 43.357)">
			<g id="Grupo_129633">
				<path id="Rectángulo_82567" class="st0" d="M3.7,0h142.5c2,0,3.7,1.6,3.7,3.7v114.1c0,2-1.6,3.7-3.7,3.7H3.7
					c-2,0-3.7-1.6-3.7-3.7V3.7C0,1.6,1.6,0,3.7,0z"/>
				<g id="Grupo_129625" transform="translate(3.839 3.786)">
					<path id="Trazado_188051" class="st1" d="M156.5,0H7.2C3.2,0,0,3.2,0,7.2c0,0,0,0,0,0v110.2c0,4,3.2,7.2,7.2,7.2c0,0,0,0,0,0
						h149.3c4,0,7.2-3.2,7.2-7.2c0,0,0,0,0,0V7.2C163.7,3.2,160.4,0,156.5,0C156.5,0,156.5,0,156.5,0z M159.5,114.5
						c0,3.8-3,6.8-6.8,6.8H11c-3.8,0-6.8-3-6.8-6.8V10c0-3.8,3-6.8,6.8-6.8h141.7c0.8,0,1.6,0.2,2.4,0.5c1.7,0.6,3,1.9,3.8,3.5
						c0.3,0.6,0.5,1.2,0.5,1.8c0.1,0.3,0.1,0.7,0.1,1L159.5,114.5z"/>
				</g>
				<g id="Grupo_129626" transform="translate(101.52 88.891)">
					<path id="Trazado_188052" class="st2" d="M40,16.2l-8.4,16.3c-10.7-0.5-15.6-3.8-18-6.8c-1.7-2.1-3.3-5.6-7.6-7.7
						c-1.9-0.9-4-1.5-6.1-1.7L8.4,0c3.1,1.2,5.9,3,8.3,5.2c1.6,1.6,3.1,3.3,4.4,5.1C23.5,13.3,28.4,16.3,40,16.2z"/>
					<path id="Trazado_188053" class="st3" d="M20.5,21.5c0.3-0.4,0.6-0.9,0.8-1.3c1.5-3,1.2-6.2-0.7-7.2c-1.7-0.9-4.1,0.3-5.7,2.7
						c-1.6-2.3-3.6-4.3-5.9-6c-1.4-1-2.8-1.8-4.4-2.5L4.3,8.1c1.5,0.7,2.9,1.5,4.2,2.4c2.3,1.7,4.3,3.7,5.9,6.1
						c-1.5,3-1.2,6.2,0.7,7.2c1.4,0.7,3.2,0.1,4.7-1.5c0.3,0.2,0.5,0.3,0.8,0.4c3.6,1.9,8.7,2.6,15,2l0.5-1.1
						C29.3,24.3,24.1,23.6,20.5,21.5z"/>
					<path id="Trazado_188054" class="st3" d="M10.7,4.3c-0.3,0.7-1.2,1.1-2,0.7c-0.7-0.4-1-1.3-0.5-2c0.3-0.7,1.2-1.1,2-0.7
						C10.9,2.7,11.1,3.6,10.7,4.3z"/>
					<path id="Trazado_188055" class="st3" d="M5.2,14.5c-0.3,0.7-1.2,1.1-2,0.7c-0.7-0.4-1-1.3-0.6-2c0.3-0.7,1.2-1.1,2-0.7
						C5.3,12.9,5.6,13.8,5.2,14.5z"/>
					<path id="Trazado_188056" class="st3" d="M36.7,19.5c-0.3,0.7-1.2,1.1-2,0.7c-0.7-0.4-1-1.3-0.6-2c0.3-0.7,1.2-1.1,2-0.7
						C36.9,17.9,37.1,18.8,36.7,19.5z"/>
					<path id="Trazado_188057" class="st3" d="M32.2,30.1c-0.3,0.7-1.2,1.1-2,0.7c-0.7-0.4-1-1.3-0.5-2c0.3-0.7,1.2-1.1,2-0.7
						C32.4,28.5,32.6,29.4,32.2,30.1z"/>
				</g>
				<g id="Grupo_129627" transform="translate(105.462 56.434)">
					<path id="Trazado_188058" class="st2" d="M27.3,11.2l-5.8,11.1c-7.3-0.4-10.6-2.7-12.2-4.8c-1.1-1.5-2.2-3.8-5.1-5.3
						c-1.3-0.7-2.7-1.1-4.1-1.2L5.8,0c2.1,0.8,4,2.1,5.7,3.6c1.1,1.1,2.1,2.3,3,3.5C16,9.1,19.4,11.2,27.3,11.2z"/>
					<path id="Trazado_188059" class="st3" d="M14,14.7c0.2-0.3,0.4-0.6,0.6-0.9c1.1-2,0.9-4.2-0.4-4.9c-1.2-0.6-2.8,0.2-3.9,1.8
						c-1.1-1.6-2.4-3-4-4.1c-0.9-0.7-1.9-1.3-3-1.8L2.9,5.5c1,0.5,2,1,2.9,1.7c1.6,1.1,2.9,2.6,4,4.2c-1.1,2-0.9,4.2,0.4,4.9
						c0.9,0.5,2.2,0.1,3.2-1c0.2,0.1,0.4,0.2,0.5,0.3c2.5,1.3,5.9,1.8,10.3,1.5l0.4-0.7C20,16.7,16.4,16.2,14,14.7z"/>
					<path id="Trazado_188060" class="st3" d="M7.4,3C7.2,3.5,6.6,3.7,6.1,3.4C5.6,3.2,5.4,2.6,5.7,2.1C5.9,1.6,6.5,1.4,7,1.6
						C7.5,1.9,7.7,2.5,7.4,3z"/>
					<path id="Trazado_188061" class="st3" d="M3.5,9.9c-0.2,0.5-0.8,0.7-1.3,0.5C1.7,10.1,1.5,9.5,1.8,9c0.2-0.5,0.8-0.7,1.3-0.5
						C3.6,8.8,3.8,9.4,3.5,9.9z"/>
					<path id="Trazado_188062" class="st3" d="M25,13.5c-0.2,0.5-0.8,0.7-1.3,0.5c-0.5-0.3-0.6-0.9-0.4-1.4c0.2-0.5,0.8-0.7,1.3-0.5
						C25.2,12.4,25.3,13,25,13.5z"/>
					<path id="Trazado_188063" class="st3" d="M21.9,20.7c-0.2,0.5-0.8,0.7-1.3,0.5c-0.5-0.3-0.6-0.9-0.4-1.4
						c0.2-0.5,0.8-0.7,1.3-0.5C22,19.6,22.2,20.2,21.9,20.7z"/>
				</g>
				<g id="Grupo_129628" transform="translate(71.392 93.43)">
					<path id="Trazado_188064" class="st2" d="M10.2,11.2l-5.8,2.3c-2.6-2.5-3.1-4.4-3-5.8C1.6,6.5,1.5,5.2,1.2,4
						C0.9,3.4,0.5,2.8,0,2.3L5.8,0c0.5,1,0.8,2.1,0.9,3.2c0.1,0.8,0.1,1.5,0,2.3C6.6,6.7,7.2,8.6,10.2,11.2z"/>
					<path id="Trazado_188065" class="st3" d="M4,8.2c0.2,0,0.3-0.1,0.5-0.2C5.6,7.6,6.3,6.7,6,6C5.8,5.4,4.9,5.2,4,5.4
						C4.1,4.5,4,3.5,3.8,2.6C3.7,2.1,3.5,1.5,3.3,1L2.9,1.1c0.2,0.5,0.4,1,0.5,1.6c0.2,0.9,0.3,1.9,0.1,2.9C2.5,6,1.9,6.8,2.2,7.5
						c0.3,0.5,0.9,0.8,1.5,0.7c0,0.1,0.1,0.2,0.1,0.3c0.7,1.6,1.9,2.9,3.4,3.9l0.4-0.1C6,11.2,4.8,9.8,4,8.2z"/>
					<path id="Trazado_188066" class="st3" d="M5.4,1.6c-0.3,0.1-0.5,0-0.7-0.3C4.7,1.1,4.8,0.8,5.1,0.7c0.3-0.1,0.5,0,0.7,0.3
						C5.8,1.3,5.7,1.5,5.4,1.6z"/>
					<path id="Trazado_188067" class="st3" d="M1.7,3C1.5,3.1,1.2,3,1.1,2.7C1,2.4,1.1,2.2,1.4,2.1C1.6,2,1.9,2.1,2,2.3
						C2.1,2.6,2,2.9,1.7,3z"/>
					<path id="Trazado_188068" class="st3" d="M8.6,11.3c-0.3,0.1-0.5,0-0.7-0.3c-0.1-0.3,0-0.5,0.3-0.6c0.3-0.1,0.5,0,0.7,0.3
						C9,10.9,8.9,11.2,8.6,11.3z"/>
					<path id="Trazado_188069" class="st3" d="M5.1,13c-0.3,0.1-0.5,0-0.7-0.3c-0.1-0.3,0.1-0.5,0.3-0.6c0.3-0.1,0.5,0,0.7,0.3
						C5.5,12.6,5.3,12.9,5.1,13z"/>
				</g>
				<g id="Grupo_129629" transform="translate(78.457 65.094)">
					<path id="Trazado_188070" class="st2" d="M14.4,15.2l-7.9,3.4c-3.7-3.4-4.5-6-4.4-7.8c0-1.3,0.5-3-0.4-5C1.3,4.9,0.7,4.1,0,3.4
						L7.9,0c0.7,1.4,1.2,2.8,1.4,4.4c0.1,1,0.1,2.1,0.1,3.2C9.4,9.3,10.2,11.8,14.4,15.2z"/>
					<path id="Trazado_188071" class="st3" d="M5.8,11.3c0.2-0.1,0.5-0.1,0.7-0.2C8,10.5,8.8,9.2,8.4,8.3C8.1,7.5,6.9,7.2,5.6,7.6
						c0.1-1.3,0-2.6-0.3-3.9C5,2.9,4.8,2.2,4.4,1.5L4,1.7c0.3,0.7,0.6,1.4,0.8,2.1c0.3,1.3,0.4,2.6,0.3,3.9
						c-1.4,0.6-2.3,1.9-1.9,2.8c0.5,0.7,1.3,1.1,2.1,0.9c0,0.1,0.1,0.3,0.2,0.4c1.1,2.1,2.8,3.9,4.8,5.2l0.5-0.2
						C8.2,15,6.5,13.2,5.8,11.3z"/>
					<path id="Trazado_188072" class="st3" d="M7.4,2.3c-0.3,0.2-0.8,0-0.9-0.3C6.4,1.6,6.6,1.2,6.9,1c0,0,0,0,0,0
						c0.3-0.2,0.8,0,0.9,0.3C8,1.7,7.8,2.1,7.4,2.3C7.4,2.3,7.4,2.3,7.4,2.3z"/>
					<path id="Trazado_188073" class="st3" d="M2.4,4.3c-0.3,0.2-0.8,0-0.9-0.3C1.4,3.6,1.5,3.2,1.9,3c0.3-0.2,0.8,0,0.9,0.3
						C2.9,3.7,2.8,4.1,2.4,4.3z"/>
					<path id="Trazado_188074" class="st3" d="M12.3,15.4c-0.3,0.2-0.8,0-0.9-0.3c-0.1-0.4,0-0.8,0.4-0.9c0.3-0.2,0.8,0,0.9,0.3
						C12.8,14.9,12.6,15.3,12.3,15.4z"/>
					<path id="Trazado_188075" class="st3" d="M7.5,17.9c-0.3,0.2-0.8,0-0.9-0.3c-0.1-0.4,0-0.8,0.4-0.9c0.3-0.2,0.8,0,0.9,0.3
						C8,17.4,7.8,17.8,7.5,17.9z"/>
				</g>
				<g id="Grupo_129630" transform="translate(15.601 13.618)">
					<path id="Trazado_188076" class="st0" d="M25.4,1.3H0.7C0.3,1.3,0,1,0,0.7C0,0.3,0.3,0,0.7,0h24.8c0.4,0,0.7,0.3,0.7,0.7
						C26.1,1,25.8,1.3,25.4,1.3z"/>
					<path id="Trazado_188077" class="st0" d="M25.4,4H0.7C0.3,4,0,3.7,0,3.3c0-0.4,0.3-0.7,0.7-0.7h24.8c0.4,0,0.7,0.3,0.7,0.7
						C26.1,3.7,25.8,4,25.4,4z"/>
					<path id="Trazado_188078" class="st0" d="M25.4,6.4H0.7C0.3,6.4,0,6.1,0,5.8c0-0.4,0.3-0.7,0.7-0.7h24.8c0.4,0,0.7,0.3,0.7,0.7
						C26.1,6.1,25.8,6.4,25.4,6.4z"/>
					<path id="Trazado_188079" class="st0" d="M25.4,9H0.7C0.3,9,0,8.7,0,8.3C0,8,0.3,7.7,0.7,7.7h24.8c0.4,0,0.7,0.3,0.7,0.7
						C26.1,8.7,25.8,9,25.4,9z"/>
				</g>
				<g id="Grupo_129631" transform="translate(90.463 42.332)">
					<path id="Rectángulo_82569" class="st0" d="M0.3,0h17.1c0.2,0,0.3,0.1,0.3,0.3V1c0,0.2-0.1,0.3-0.3,0.3H0.3C0.1,1.3,0,1.2,0,1
						V0.3C0,0.1,0.1,0,0.3,0z"/>
					<path id="Rectángulo_82570" class="st0" d="M0.3,2.6h17.1c0.2,0,0.3,0.1,0.3,0.3v0.7c0,0.2-0.1,0.3-0.3,0.3H0.3
						C0.1,4,0,3.8,0,3.7V2.9C0,2.8,0.1,2.6,0.3,2.6z"/>
					<path id="Rectángulo_82571" class="st0" d="M0.3,5.1h17.1c0.2,0,0.3,0.1,0.3,0.3v0.7c0,0.2-0.1,0.3-0.3,0.3H0.3
						C0.1,6.4,0,6.3,0,6.1V5.4C0,5.2,0.1,5.1,0.3,5.1z"/>
					<path id="Rectángulo_82572" class="st0" d="M0.3,7.7h17.1c0.2,0,0.3,0.1,0.3,0.3v0.7c0,0.2-0.1,0.3-0.3,0.3H0.3
						C0.1,9,0,8.9,0,8.7V8C0,7.8,0.1,7.7,0.3,7.7z"/>
				</g>
				<g id="Grupo_129632" transform="translate(141.51 91.516)">
					<path id="Rectángulo_82573" class="st0" d="M0.2,0h11.7c0.1,0,0.2,0.1,0.2,0.2v0.8c0,0.1-0.1,0.2-0.2,0.2H0.2
						C0.1,1.3,0,1.2,0,1.1V0.2C0,0.1,0.1,0,0.2,0z"/>
					<path id="Rectángulo_82574" class="st0" d="M0.2,2.6h11.7c0.1,0,0.2,0.1,0.2,0.2v0.8C12.1,3.9,12,4,11.9,4H0.2
						C0.1,4,0,3.9,0,3.7V2.9C0,2.7,0.1,2.6,0.2,2.6z"/>
					<path id="Rectángulo_82575" class="st0" d="M0.2,5.1h11.7c0.1,0,0.2,0.1,0.2,0.2v0.8c0,0.1-0.1,0.2-0.2,0.2H0.2
						C0.1,6.4,0,6.3,0,6.2V5.3C0,5.2,0.1,5.1,0.2,5.1z"/>
					<path id="Rectángulo_82576" class="st0" d="M0.2,7.7h11.7c0.1,0,0.2,0.1,0.2,0.2v0.8C12.1,8.9,12,9,11.9,9H0.2
						C0.1,9,0,8.9,0,8.8V7.9C0,7.8,0.1,7.7,0.2,7.7z"/>
				</g>
				<g id="Grupo_129751" transform="translate(110.294 3.786)">
					<path id="Trazado_188045" class="st2" d="M57.2,17.7v3.7c-1.4,1.5-2.8,2.8-4.2,4c-8.2,7.1-14.6,8.7-19.4,8.5
						c-4-0.1-9.4-1.5-15.7,1.1c-2.8,1.2-5.4,3-7.6,5.2L5.1,27.7l-0.6-1.4L0,15.4c4.3-2.3,8.9-3.8,13.7-4.4c3.3-0.3,6.6-0.4,9.9-0.1
						c4.1,0.1,9.8-1.4,16.9-7.8c1.1-0.9,2.2-2,3.3-3.2h6l2.8,6.8l0.7,1.6L57.2,17.7z"/>
					<path id="Trazado_188046" class="st3" d="M35.4,22.2c-0.2-0.8-0.4-1.5-0.7-2.2c-1.9-4.5-5.8-7.2-8.7-6
						c-2.6,1.1-3.5,4.9-2.4,8.9c-4.1-0.4-8.2-0.1-12.2,0.9c-2.4,0.6-4.7,1.4-7,2.5l0.6,1.4c2.2-1,4.4-1.8,6.7-2.4
						c4-1,8.2-1.3,12.4-0.8c1.9,4.5,5.8,7.2,8.7,6c2.1-0.9,3.1-3.6,2.8-6.7c0.4-0.1,0.8-0.3,1.2-0.5c5.5-2.3,11-7.3,16.5-14.9
						l-0.7-1.6C46.9,15,41.2,20.2,35.4,22.2z"/>
					<path id="Trazado_188047" class="st3" d="M7,16.9c0.5,1.1,0,2.4-1,2.9c-1.1,0.4-2.4-0.2-2.8-1.3c-0.5-1.1,0-2.4,1-2.9
						C5.4,15.2,6.6,15.8,7,16.9z"/>
					<path id="Trazado_188048" class="st3" d="M13.1,32.7c0.5,1.1,0,2.4-1,2.9C11,36,9.7,35.4,9.3,34.3c-0.5-1.1,0-2.4,1-2.9
						C11.5,31,12.7,31.6,13.1,32.7z"/>
					<path id="Trazado_188049" class="st3" d="M48.5,2.2c0.5,1.1,0,2.4-1,2.9c-1.1,0.4-2.4-0.2-2.8-1.3c-0.5-1.1,0-2.4,1-2.9
						C46.8,0.5,48.1,1.1,48.5,2.2z"/>
					<path id="Trazado_188050" class="st3" d="M56.1,17.3c0.5,1.1,0,2.4-1,2.9c-1.1,0.4-2.4-0.2-2.8-1.3c-0.5-1.1,0-2.4,1-2.9
						C54.4,15.6,55.7,16.1,56.1,17.3z"/>
				</g>
			</g>
		</g>
		<g id="Grupo_129639" transform="translate(23.81 0)">
			<circle id="Elipse_4743" class="st4" cx="33.9" cy="33.9" r="28.1"/>
			<g id="Grupo_129638" transform="translate(18.492 11.508)">
				<g id="Grupo_129635" transform="translate(1.565)">
					<g id="Grupo_129634">
						<path id="Trazado_188080" class="st5" d="M13.8,0C6.2,0,0,7.3,0,16.2c0,0.6,0,1.1,0.1,1.6c0.6,7.4,5.6,13.4,11.8,14.4v-1.8
							c-0.5-0.7-0.8-1.6-0.8-2.4c-0.6-0.2-1.1-0.5-1.6-0.8C6.2,25,4.2,21.5,4,17.6c-0.1-0.5-0.1-1-0.1-1.5c0-6.8,4.4-12.3,9.9-12.3
							s9.9,5.5,9.9,12.3c0,0.5,0,1-0.1,1.5c-0.5,5-3.3,9-7.1,10.4c0,0.9-0.3,1.7-0.8,2.4v1.8c0.8-0.1,1.6-0.3,2.3-0.6
							c5.1-1.9,8.9-7.3,9.5-13.7c0-0.5,0.1-1.1,0.1-1.6C27.6,7.3,21.4,0,13.8,0z"/>
					</g>
				</g>
				<g id="Grupo_129637" transform="translate(1.565)">
					<g id="Grupo_129636">
						<path id="Trazado_188081" class="st5" d="M13.8,0C6.2,0,0,7.3,0,16.2c0,0.6,0,1.1,0.1,1.6c0.6,7.4,5.6,13.4,11.8,14.4v-1.8
							c-0.5-0.7-0.8-1.6-0.8-2.4c-0.6-0.2-1.1-0.5-1.6-0.8C6.2,25,4.2,21.5,4,17.6c-0.1-0.5-0.1-1-0.1-1.5c0-6.8,4.4-12.3,9.9-12.3
							s9.9,5.5,9.9,12.3c0,0.5,0,1-0.1,1.5c-0.5,5-3.3,9-7.1,10.4c0,0.9-0.3,1.7-0.8,2.4v1.8c0.8-0.1,1.6-0.3,2.3-0.6
							c5.1-1.9,8.9-7.3,9.5-13.7c0-0.5,0.1-1.1,0.1-1.6C27.6,7.3,21.4,0,13.8,0z"/>
					</g>
				</g>
				<path id="Trazado_188082" class="st5" d="M29.1,17.8c-0.3-0.1-0.6-0.2-1-0.2H2.6c-0.3,0-0.7,0.1-1,0.2c-1,0.4-1.6,1.4-1.6,2.4
					v9.1c0,4.1,1.6,8,4.5,10.9c2.9,2.9,6.8,4.5,10.9,4.5c8.5,0,15.4-6.9,15.4-15.4v-9.1C30.7,19.2,30.1,18.2,29.1,17.8z M17.3,36.9
					h-3.8v-6.5c-0.5-0.7-0.8-1.6-0.8-2.4c0-0.1,0-0.1,0-0.2c0-2.1,1.2-3.7,2.7-3.7s2.7,1.7,2.7,3.7c0,0.1,0,0.1,0,0.2
					c0,0.9-0.3,1.7-0.8,2.4V36.9z"/>
			</g>
		</g>
	</g>
	<g id="_9" transform="translate(533 2852.66)">
		<g id="Grupo_129669" transform="translate(0 23.383)">
			<g id="Grupo_129668">
				<path id="Trazado_188083" class="st6" d="M54.9,143.4l-4.6-2.2c-0.3-0.1-0.4-0.4-0.2-0.7c0.1-0.3,0.4-0.4,0.7-0.2l4.6,2.2
					c0.3,0.1,0.4,0.4,0.3,0.7C55.4,143.5,55.1,143.6,54.9,143.4z"/>
				<g id="Grupo_129666">
					<g id="Grupo_129644" transform="translate(29.501 27.068)">
						<g id="Grupo_129640" transform="translate(13.011 63.215)">
							<path id="Trazado_188084" class="st7" d="M1,49.5c-0.7-0.4-1.2-2.1-1-3.8L5.4,0l2.7,1.6L2.7,47.3C2.5,48.9,1.8,49.9,1,49.5z"
								/>
							<path id="Trazado_188085" class="st7" d="M62.9,49.5c0.7-0.4,1.2-2.1,1-3.8L58.6,0l-2.7,1.6l5.3,45.7
								C61.4,48.9,62.2,49.9,62.9,49.5z"/>
						</g>
						<path id="Trazado_188086" class="st8" d="M69.1,60H20.9c-1.8-14.2-3.5-28.4-5.3-42.5C15.6,7.8,23.5,0,33.1,0c0,0,0,0,0,0h23.7
							c9.7,0,17.5,7.8,17.5,17.5C72.6,31.7,70.8,45.9,69.1,60z"/>
						<path id="Trazado_188087" class="st1" d="M69.1,60H20.9c-1.8-14.2-3.5-28.4-5.3-42.5C15.6,7.8,23.5,0,33.1,0c0,0,0,0,0,0h23.7
							c9.7,0,17.5,7.8,17.5,17.5C72.6,31.7,70.8,45.9,69.1,60z"/>
						<g id="Grupo_129643" transform="translate(0 38.059)">
							<g id="Grupo_129641">
								<path id="Trazado_188088" class="st1" d="M19.9,7.5H3.7C1.7,7.5,0,5.8,0,3.8C0,1.7,1.7,0,3.7,0h16.2c2.1,0,3.7,1.7,3.7,3.7
									C23.7,5.8,22,7.5,19.9,7.5z"/>
								
									<rect id="Rectángulo_82577" x="12.5" y="3.7" transform="matrix(0.9584 -0.2854 0.2854 0.9584 -2.9649 4.7626)" class="st1" width="4.7" height="17.6"/>
							</g>
							<g id="Grupo_129642" transform="translate(66.302)">
								<path id="Trazado_188089" class="st1" d="M3.7,7.5h16.2c2.1,0,3.7-1.7,3.7-3.7C23.7,1.7,22,0,19.9,0H3.7C1.7,0,0,1.7,0,3.7
									C0,5.8,1.7,7.5,3.7,7.5z"/>
								
									<rect id="Rectángulo_82578" x="0" y="10.2" transform="matrix(0.2854 -0.9584 0.9584 0.2854 -5.7394 17.413)" class="st1" width="17.6" height="4.7"/>
							</g>
						</g>
						<path id="Trazado_188090" class="st1" d="M72.2,68.4H17.8c-4,0-7.3-3.3-7.3-7.3c0-4,3.3-7.3,7.3-7.3h54.4c4,0,7.3,3.3,7.3,7.3
							C79.5,65.2,76.2,68.4,72.2,68.4z"/>
					</g>
					<path id="Trazado_188091" class="st9" d="M89.8,47.9c-0.6,3-1,5.8-1.3,8.5c0.3,4.5,0.5,9.1,0.8,13.6c0.1,1.6,0.2,3.2,0.3,4.8
						c-2.3,3.6-4.9,7-7.8,10.3c-1.7,0.1-3.3-0.1-4.9-0.4c-1.8,0.6-6.6,0.9-7.2,0.4c-3.2-2.9-5.9-6.4-7.8-10.3c0-0.6,0.1-1.1,0.1-1.7
						c0.3-5.6,0.6-11.1,0.9-16.7c-0.3-2.9-0.7-5.7-1.3-8.5c-1.1-5.1-2.9-10-5.1-14.7c2.9-1.5,5.8-3.1,8.8-4.9c2-1.2,3.9-2.4,5.8-3.6
						c1.6,0.9,7.8,0.9,9.4,0c1.9,1.1,3.8,2.3,5.8,3.6c2.6,1.6,5.1,3.2,7.5,4.9C92,38,90.7,42.9,89.8,47.9z"/>
					<path id="Trazado_188092" class="st9" d="M52.7,58.4C50,60.5,47,60.3,46,58.9c-0.5-0.9-0.6-2.1-0.2-3.1
						c0.7-1.6,1.4-3.2,2.1-4.8c2.2-4.6,4.4-8.5,6.2-11.5c3.3-5.7,5.3-8.1,8.4-8.8c1-0.2,2-0.3,3-0.1L65,45.2
						C60.9,49.6,56.8,54,52.7,58.4z"/>
					<path id="Trazado_188093" class="st9" d="M94.5,60.1c2.3,2.6,5.2,3,6.5,1.9c0.7-0.8,1-1.9,0.8-3c-0.4-1.7-0.7-3.4-1.1-5.1
						c-1.2-5-2.5-9.2-3.7-12.6c-2.1-6.2-3.5-9.1-6.4-10.4c-0.9-0.4-1.9-0.7-2.9-0.7l-2.5,14.3C88.4,49.8,91.4,54.9,94.5,60.1z"/>
					<path id="Trazado_188094" class="st10" d="M65.3,85.7L56,83.6c-0.1-2.9,0.9-5.8,2.7-8.1c2-2.3,4.7-3.2,8-4.3
						c1.6-0.5,3.2-0.9,4.9-1.2L75,85.1L65.3,85.7z"/>
					<path id="Trazado_188095" class="st10" d="M86.7,86.4c2.6-0.3,5.2-0.7,7.8-1c0.3-1.3,1.5-6.4-1.4-10c-1.8-2.2-4.5-3.1-8-4.3
						c-1.6-0.5-3.2-0.9-4.9-1.2l-11.9,7.5c-0.1,2.7-0.3,5.4-0.4,8.2c2.5-0.2,5.2-0.2,8.1-0.2C79.7,85.5,83.2,85.8,86.7,86.4z"/>
					<path id="Trazado_188096" class="st9" d="M80.3,14.1c0.3,4,0.7,8.1,1,12.1H71.1c0-1.2-0.1-2.4-0.1-3.5c0.2-2.8,0.5-5.6,0.7-8.4
						C74.6,14.2,77.4,14.2,80.3,14.1z"/>
					<path id="Trazado_188097" class="st10" d="M90.9,71.8c-4.6,2.9-9.9,4.7-15.4,5c-5.1,0.3-10.1-0.6-14.8-2.6
						c-1.5-13.7-2.9-27.3-4.4-41c0.8-0.7,1.7-1.3,2.6-2c3.7-2.7,7.7-4.9,12-6.4c-0.4,2.9,1.7,5.6,4.7,6c0.1,0,0.3,0,0.4,0
						c2.9-0.1,5.3-2.5,5.3-5.4c3.1,1.3,6,2.9,8.7,4.9c1.3,0.9,2.5,1.9,3.6,2.9C92.7,46,91.8,58.9,90.9,71.8z"/>
					<path id="Trazado_188098" class="st10" d="M89.7,52.4l12.3-2.2c-0.4-3.1-2.2-14.4-11.1-19.4c-1.1-0.6-2.3-1.1-3.5-1.5l2.2,8.3
						C89.6,42.6,89.6,47.5,89.7,52.4z"/>
					<path id="Trazado_188099" class="st9" d="M74.1,71.3c-0.3,1.6-0.7,3.2-1.1,4.8c-5-1.4-12.1-3.4-20.3-6c-2.2-0.8-4.3-2-5.9-3.7
						c-1.2-1.2-2-2.7-2.4-4.4c-0.4-2.3,0.2-4.7,1.5-6.6c0.4,1.2,1.3,2.3,2.4,2.9c1,0.5,2.1,0.7,3.1,0.5L74.1,71.3z"/>
					<path id="Trazado_188100" class="st9" d="M73.6,72.1c0.4,1.6,0.8,3.2,1.2,4.8c5-1.5,12-3.7,20.1-6.6c2.2-0.8,4.2-2.2,5.8-3.9
						c1.2-1.2,2-2.8,2.3-4.5c0.1-1.2-0.2-2.5-0.8-3.6c-1.1-0.1-2.1-0.1-3.2,0c-1,0.1-2.1,0.3-3.1,0.5L73.6,72.1z"/>
					<path id="Trazado_188101" class="st10" d="M59.3,52.4c-4-0.6-8-1.3-12-1.9c0.3-2.9,1.9-14.6,10.8-19.7c1.1-0.6,2.3-1.1,3.5-1.5
						l-2.2,8.3L59.3,52.4z"/>
					<g id="Grupo_129651" transform="translate(45.796 81.941)">
						<g id="Grupo_129650">
							<path id="Trazado_188102" class="st9" d="M16.2,48.9c-1.8,0.1-3.7,0.3-5.5,0.4c-0.3-1.9-0.8-5.1-1.4-8.9
								c-1.7-12.1-2.5-18.3-1.9-25c0.4-4.1,1.2-8.2,2.5-12.1c0.2-1.1,0.5-2.2,0.7-3.2c3.2,0.5,6.3,0.9,9.5,1.4l-1.1,4.7
								c0.1,1.5,0.2,4,0.2,7c-0.1,3.6-0.4,7.3-1,10.8C17.4,28.2,16.6,35.5,16.2,48.9z"/>
							<g id="Grupo_129649" transform="translate(2.069 48.881)">
								<path id="Trazado_188103" class="st9" d="M14.1,0c0.5,1,0.8,2,1.1,3c0.2,0.7,0.3,1.4,0.4,2.1c-0.2,0.7-0.4,1.3-0.7,1.9
									C14,8.5,13.1,8.8,12,9.8c-2.1,1.9-1.5,3.5-3.8,6c-0.6,0.7-1.4,1.4-2.2,1.9c-0.5,0.2-1.1,0.3-1.7,0.3
									c-0.8,0.1-1.5-0.1-2.2-0.4c-0.5-0.3-1-0.7-1.3-1.2c-0.6-1.1-0.7-2.5-0.2-3.7c0.3-0.9,0.9-1.6,1.7-2.1L8.6,0.4
									C10.4,0.3,12.3,0.1,14.1,0z"/>
								<g id="Grupo_129645" transform="translate(3.58 14.607)">
									<path id="Trazado_188104" class="st11" d="M0.9,3.7c-0.2,0-0.3,0-0.5-0.1C0.3,3.5,0.2,3.3,0.1,3.1C0,3,0,2.8,0,2.6
										c0-0.1,1.2-2.4,1.2-2.4C1.3,0,1.5,0,1.6,0c0.2,0.1,0.2,0.3,0.1,0.4L0.6,2.7c0,0.1,0,0.1,0,0.2C0.7,3,0.8,3,0.8,3.1
										c0.1,0.1,0.6,0,1.5-0.5c0.1-0.1,0.3,0,0.4,0.1c0,0,0,0,0,0c0.1,0.1,0,0.3-0.1,0.4c0,0,0,0,0,0C2.1,3.5,1.5,3.7,0.9,3.7z"/>
								</g>
								<g id="Grupo_129646" transform="translate(1.922 12.838)">
									<path id="Trazado_188105" class="st11" d="M0.5,5.3c-0.1,0-0.1,0-0.2,0C0.2,5.1,0.1,4.9,0,4.8C0,4.5,0,4.2,0.2,4l2.1-3.8
										C2.3,0,2.5,0,2.7,0c0,0,0,0,0,0c0.2,0.1,0.2,0.3,0.1,0.4L0.7,4.3C0.6,4.4,0.6,4.5,0.6,4.6c0,0,0,0.1,0.1,0.1
										C0.8,4.8,0.9,5,0.8,5.1c0,0,0,0,0,0C0.7,5.2,0.6,5.3,0.5,5.3z"/>
								</g>
								<g id="Grupo_129647" transform="translate(0.668 12.105)">
									<path id="Trazado_188106" class="st11" d="M0.9,5.5C0.5,5.4,0.2,5.2,0.1,4.8C0,4.5,0,4.1,0.1,3.8l2.2-3.6
										C2.4,0,2.6,0,2.8,0c0,0,0,0,0,0c0.1,0.1,0.2,0.3,0.1,0.4c0,0,0,0,0,0L0.6,4.1c0,0.2,0,0.3,0,0.5C0.7,4.7,0.9,4.8,1,4.9
										C1.2,5,1.3,5.1,1.2,5.3C1.2,5.4,1.1,5.5,0.9,5.5z"/>
								</g>
								<g id="Grupo_129648" transform="translate(0 11.283)">
									<path id="Trazado_188107" class="st11" d="M0.7,5.2c-0.1,0-0.2,0-0.2-0.1C0.2,4.8,0,4.3,0,3.9C0,3.5,0.2,3,0.4,2.7
										c0.5-0.7,1-1.4,1.6-2.3l0.1-0.2C2.3,0,2.5,0,2.6,0.1c0,0,0,0,0,0c0.1,0.1,0.2,0.3,0.1,0.4L2.6,0.7C1.9,1.6,1.4,2.4,0.9,3
										C0.8,3.3,0.6,3.6,0.6,3.9c0,0.3,0.1,0.6,0.3,0.8c0.1,0.1,0.1,0.3,0,0.4C0.9,5.2,0.8,5.2,0.7,5.2z"/>
								</g>
							</g>
							<path id="Trazado_188108" class="st10" d="M8.6,67.7C8.3,68,8,68.3,7.6,68.3c-3,0.5-5.7-0.4-6.9-2.4C0.3,65.2,0,64.4,0,63.6
								c0-0.3,0.1-0.7,0.3-0.9L6.1,55c1.3-4.5,3.8-6.9,5.4-6.6c1.7,0.4,2.3,4,2.3,4.4c0.2-2.5,1.5-4,2.4-3.9s1.6,1.7,1.6,1.9
								c0.1,0.7,0.2,1.5,0.3,2.3c0,0.6,0.1,1.2,0.1,1.8L8.6,67.7z"/>
						</g>
						<path id="Trazado_188109" class="st6" d="M10.8,58.7l-4.6-2.2C6,56.4,5.9,56.1,6,55.8c0.1-0.3,0.4-0.4,0.7-0.2l4.6,2.2
							c0.3,0.1,0.4,0.4,0.3,0.7C11.4,58.7,11.1,58.8,10.8,58.7z"/>
						<path id="Trazado_188110" class="st6" d="M9.8,60l-4.6-2.2C5,57.7,4.9,57.4,5,57.1c0.1-0.3,0.4-0.4,0.7-0.2l4.6,2.2
							c0.3,0.1,0.4,0.4,0.2,0.7C10.4,60,10.1,60.1,9.8,60z"/>
					</g>
					<g id="Grupo_129658" transform="translate(82.942 81.941)">
						<g id="Grupo_129657">
							<path id="Trazado_188111" class="st9" d="M3.8,48.9c1.8,0.1,3.7,0.3,5.5,0.4c0.3-1.9,0.8-5.1,1.4-8.9
								c1.7-12.1,2.5-18.3,1.9-25c-0.4-4.1-1.2-8.2-2.5-12.1L9.5,0C6.3,0.5,3.2,0.9,0,1.4l1.1,4.7C1,7.6,0.9,10,0.9,13
								c0.1,3.6,0.4,7.3,1,10.8C2.6,28.2,3.4,35.5,3.8,48.9z"/>
							<g id="Grupo_129656" transform="translate(2.351 48.881)">
								<path id="Trazado_188112" class="st9" d="M1.5,0C1,1,0.6,2,0.4,3C0.2,3.7,0.1,4.4,0,5C0.2,5.7,0.4,6.4,0.7,7
									c0.9,1.5,1.7,1.8,2.9,2.8c2.1,1.9,1.5,3.5,3.8,6c0.6,0.7,1.4,1.4,2.2,1.9c0.5,0.2,1.1,0.3,1.7,0.3c0.8,0.1,1.5-0.1,2.2-0.4
									c0.5-0.3,1-0.7,1.3-1.2c0.6-1.1,0.7-2.5,0.2-3.7c-0.3-0.9-0.9-1.6-1.7-2.1C11.2,7.2,9.1,3.8,7,0.4C5.1,0.3,3.3,0.1,1.5,0z"
									/>
								<g id="Grupo_129652" transform="translate(9.259 14.607)">
									<path id="Trazado_188113" class="st11" d="M1.8,3.7C1.2,3.7,0.6,3.5,0.1,3.1C0,3,0,2.8,0,2.7c0,0,0,0,0,0
										c0.1-0.1,0.3-0.2,0.4-0.1c0,0,0,0,0,0c0.9,0.5,1.4,0.6,1.5,0.5C2,3,2.1,3,2.1,2.9c0-0.1,0-0.1,0-0.2L1,0.4
										C0.9,0.3,1,0.1,1.1,0C1.3,0,1.5,0,1.6,0.2l1.2,2.3c0,0.2,0,0.4,0,0.6C2.6,3.3,2.5,3.5,2.3,3.6C2.2,3.7,2,3.7,1.8,3.7z"/>
								</g>
								<g id="Grupo_129653" transform="translate(10.82 12.838)">
									<path id="Trazado_188114" class="st11" d="M2.3,5.3C2.2,5.3,2.1,5.2,2,5.1C2,5,2,4.8,2.1,4.7c0,0,0,0,0,0
										c0,0,0.1-0.1,0.1-0.1c0-0.1,0-0.2,0-0.2L0,0.5C0,0.3,0,0.1,0.2,0C0.3,0,0.5,0,0.6,0.2c0,0,0,0,0,0L2.7,4
										c0.1,0.2,0.2,0.5,0.1,0.7C2.8,4.9,2.6,5.1,2.5,5.2C2.4,5.3,2.4,5.3,2.3,5.3z"/>
								</g>
								<g id="Grupo_129654" transform="translate(12.026 12.106)">
									<path id="Trazado_188115" class="st11" d="M2,5.5c-0.1,0-0.3-0.1-0.3-0.2c0-0.2,0-0.3,0.2-0.4C2,4.8,2.2,4.7,2.2,4.6
										c0.1-0.2,0.1-0.4,0-0.5L0,0.5C0,0.3,0,0.1,0.1,0c0,0,0,0,0,0C0.3,0,0.5,0,0.6,0.1l2.2,3.6c0.1,0.3,0.1,0.7,0,1
										C2.7,5.1,2.4,5.4,2,5.5C2,5.5,2,5.5,2,5.5z"/>
								</g>
								<g id="Grupo_129655" transform="translate(12.808 11.283)">
									<path id="Trazado_188116" class="st11" d="M2.1,5.2c-0.1,0-0.1,0-0.2-0.1C1.7,5,1.7,4.8,1.8,4.7c0,0,0,0,0,0
										C2,4.5,2.1,4.2,2.2,3.9c0-0.3-0.1-0.6-0.3-0.8C1.3,2.3,0.8,1.5,0.1,0.5C0,0.3,0,0.2,0.1,0.1C0.3,0,0.5,0,0.6,0.1
										c0,0,0,0,0,0c0.7,1,1.3,1.8,1.8,2.5C2.6,3,2.8,3.5,2.8,3.9c0,0.4-0.2,0.9-0.5,1.2C2.2,5.2,2.1,5.2,2.1,5.2z"/>
								</g>
							</g>
							<path id="Trazado_188117" class="st10" d="M11.4,67.7c0.2,0.3,0.6,0.5,0.9,0.6c3,0.5,5.7-0.4,6.9-2.4
								c0.4-0.7,0.7-1.5,0.7-2.4c0-0.3-0.1-0.7-0.3-0.9c-1.9-2.6-3.8-5.1-5.8-7.7c-1.3-4.5-3.8-6.9-5.4-6.6c-1.7,0.4-2.3,4-2.3,4.4
								c-0.2-2.5-1.5-4-2.4-3.9s-1.6,1.7-1.6,1.9c-0.1,0.7-0.2,1.5-0.3,2.3c0,0.6-0.1,1.2-0.1,1.8L11.4,67.7z"/>
						</g>
						<path id="Trazado_188118" class="st6" d="M9.2,58.7l4.6-2.2c0.3-0.1,0.4-0.4,0.2-0.7c-0.1-0.3-0.4-0.4-0.7-0.2l-4.6,2.2
							c-0.3,0.1-0.4,0.4-0.2,0.7C8.6,58.7,8.9,58.8,9.2,58.7z"/>
						<path id="Trazado_188119" class="st6" d="M10.2,60l4.6-2.2c0.3-0.1,0.4-0.4,0.2-0.7c-0.1-0.3-0.4-0.4-0.7-0.2L9.8,59
							c-0.3,0.1-0.4,0.4-0.2,0.7C9.6,60,10,60.1,10.2,60z"/>
					</g>
					<path id="Trazado_188120" class="st10" d="M62.7,128.6l-7-0.1c-2.7-9.9-3.7-20.1-3.1-30.3c0.4-6.3,1.4-12.5,3-18.5
						c0.4-0.6,2.8-3.5,5.5-3.3c3.3,0.3,6.7,5.1,5.9,11.7C65.6,101.7,64.1,115.1,62.7,128.6z"/>
					<path id="Trazado_188121" class="st10" d="M93.2,128.6h-7c-1.6-10.9-2.8-22.6-3.4-34.9c-0.2-3.8-0.3-7.6-0.4-11.3l9.1-5.6
						c1.7,4,3.1,8.1,4.1,12.3C99.4,105.9,95.9,120.4,93.2,128.6z"/>
					<g id="Grupo_129659" transform="translate(53.369 75.679)">
						<path id="Trazado_188122" class="st0" d="M42.2,1.8L0.9,1.7C0.4,1.7,0,1.3,0,0.9C0,0.4,0.4,0,0.9,0l41.3,0.1
							c0.5,0,0.9,0.4,0.9,0.9C43.1,1.5,42.7,1.8,42.2,1.8z"/>
					</g>
					<path id="Rectángulo_82579" class="st6" d="M54.8,42.4h40.4c1,0,1.8,0.8,1.8,1.8V74c0,1-0.8,1.8-1.8,1.8H54.8
						c-1,0-1.8-0.8-1.8-1.8V44.2C52.9,43.2,53.8,42.4,54.8,42.4z"/>
					<path id="Trazado_188123" class="st7" d="M79.3,23.4c-0.2,1.4-1.3,2.5-2.7,2.9c-1.8,0.3-3.9-1.3-4-3.8c0.4,0.2,0.8,0.4,1.3,0.7
						h3.5L79.3,23.4z"/>
					<g id="Grupo_129661" transform="translate(68.792 3.636)">
						<path id="Trazado_188124" class="st9" d="M7.7,20.9c-2.3,0-4.1-2.3-4.6-2.8c-1-1.3-1.7-2.8-1.8-4.4V4.6C2.1,1.9,4.6,0,7.5,0
							c2.9,0,5.5,1.9,6.3,4.6v9.1C13.1,18.1,10.3,21,7.7,20.9z"/>
						<g id="Grupo_129660" transform="translate(0 9.104)">
							<path id="Trazado_188125" class="st9" d="M2.7,2.3c0,1.2-0.6,2.3-1.4,2.3S0,3.5,0,2.3S0.6,0,1.4,0S2.7,1,2.7,2.3z"/>
							<path id="Trazado_188126" class="st9" d="M15.1,2.3c0,1.2-0.6,2.3-1.4,2.3s-1.4-1-1.4-2.3S13,0,13.8,0S15.1,1,15.1,2.3z"/>
						</g>
					</g>
					<g id="Grupo_129662" transform="translate(70.941 14.528)">
						<rect id="Rectángulo_82580" x="0" y="0" class="st12" width="5.1" height="4.1"/>
						<rect id="Rectángulo_82581" x="6.9" y="0" class="st12" width="5.1" height="4.1"/>
						<rect id="Rectángulo_82582" x="4.6" y="1.3" class="st12" width="3.3" height="0.7"/>
					</g>
					<path id="Trazado_188127" class="st10" d="M74.5,31.6l-8.1-4.9C66,22.7,64.6,4,71.8,1c1.2-0.5,3.6-1,4.5,0.1
						c1.3,1.6-1.8,5.4-3.3,8.8C71,14.2,70.1,20.9,74.5,31.6z"/>
					<path id="Trazado_188128" class="st10" d="M77.6,31.2c2.7-1.2,5.4-2.5,8.2-3.7C88.1,14.3,86,3.5,80.3,1
						c-3-1.3-8.4-1.6-10.1,1.1c-1.1,1.8-0.6,4.7,1,6.4c2.7,3,7.2,0.7,9.6,2.7C82.8,13,83.2,18,77.6,31.2z"/>
					<g id="Grupo_129663" transform="translate(26.303 69.753)">
						<path id="Trazado_188129" class="st7" d="M8.7,68c-2,0-4.9-1.5-8.7-4.5L0.4,63c4.7,3.7,7.9,5.1,9.6,4
							c2.3-1.3,1.4-6.6,0.2-13.8c-1.5-9.1-3.5-21.6-0.8-34.8c1-5.2,3-11.7,8.7-15.6c2.5-1.6,5.4-2.6,8.4-2.9l0.1,0.6
							c-2.9,0.3-5.7,1.2-8.1,2.8C12.9,7.1,11,13.5,10,18.6c-2.6,13.1-0.6,25.5,0.8,34.5c1.3,7.8,2.1,12.9-0.5,14.4
							C9.8,67.8,9.3,68,8.7,68z"/>
					</g>
					<g id="Grupo_129665" transform="translate(0 66.449)">
						<rect id="Rectángulo_82583" x="0.6" y="1.4" class="st0" width="27.2" height="74"/>
						<g id="Grupo_129664">
							<path id="Trazado_188130" class="st7" d="M27.8,74.6H0V0h27.8L27.8,74.6z M0.6,74h26.6V0.6H0.6V74z"/>
						</g>
						<rect id="Rectángulo_82584" x="4.4" y="6.1" class="st7" width="19.1" height="3.5"/>
						<rect id="Rectángulo_82585" x="4.4" y="13.1" class="st7" width="19.1" height="1.8"/>
						<rect id="Rectángulo_82586" x="4.4" y="29.2" class="st7" width="2.6" height="2.6"/>
						<circle id="Elipse_4744" class="st13" cx="6.1" cy="39.4" r="2.1"/>
						<rect id="Rectángulo_82587" x="4.4" y="50.3" class="st13" width="20" height="5.6"/>
					</g>
					<rect id="Rectángulo_82588" x="27.5" y="131.2" class="st7" width="1.3" height="4"/>
					<rect id="Rectángulo_82589" x="49.8" y="68" class="st7" width="3.2" height="3.9"/>
				</g>
				<circle id="Elipse_4745" class="st14" cx="125.6" cy="47.1" r="18"/>
				<g id="Grupo_129667" transform="translate(113.225 35.04)">
					<path id="Trazado_188131" class="st6" d="M0.3,22.4c-0.4-0.4-0.4-1.1,0-1.5l8.3-8c0.4-0.4,1.1-0.4,1.5,0c0.4,0.4,0.4,1.1,0,1.5
						c0,0,0,0,0,0l-8.3,8C1.3,22.8,0.7,22.8,0.3,22.4z"/>
					<path id="Trazado_188132" class="st6" d="M21,2.5c-3.1-3.3-8.3-3.4-11.6-0.2C6.1,5.4,6,10.6,9.2,13.9c3.1,3.3,8.3,3.4,11.6,0.3
						c0,0,0,0,0,0C24,11,24.2,5.8,21,2.5C21,2.5,21,2.5,21,2.5z M10.4,12.7C7.9,10.1,8,6,10.6,3.5c0,0,0,0,0,0
						c2.6-2.5,6.7-2.4,9.2,0.2c0,0,0,0,0,0c2.5,2.6,2.4,6.7-0.2,9.2c0,0,0,0,0,0C17,15.4,12.9,15.3,10.4,12.7
						C10.4,12.7,10.4,12.7,10.4,12.7L10.4,12.7z"/>
				</g>
			</g>
		</g>
		<circle id="Elipse_4746" class="st2" cx="109.7" cy="23.2" r="23.2"/>
		<g id="Grupo_129671" transform="translate(91.719 13.098)">
			<path id="Trazado_188133" class="st5" d="M23.2,8.8c0,0.5,0.1,1,0.2,1.5H0V7.1h23.5C23.3,7.7,23.2,8.2,23.2,8.8z"/>
			<rect id="Rectángulo_82590" x="0" y="9.4" class="st5" width="3.5" height="6.7"/>
			<rect id="Rectángulo_82591" x="6.6" y="9.4" class="st5" width="3.5" height="6.7"/>
			<rect id="Rectángulo_82592" x="3.3" y="9.4" class="st5" width="3.5" height="3.3"/>
			<g id="Grupo_129670" transform="translate(20.763)">
				<path id="Trazado_188134" class="st5" d="M8.8,0C4.6,0,0.9,3,0.1,7.1C0,7.7,0,8.2,0,8.8c0,0.5,0,1,0.1,1.5
					c0.7,4.2,4.4,7.2,8.6,7.2c4.8,0,8.8-3.9,8.8-8.8C17.5,3.9,13.6,0,8.8,0C8.8,0,8.8,0,8.8,0z M8.8,15c-2.9,0-5.4-2-6.1-4.7
					c-0.1-0.5-0.2-1-0.2-1.5c0-0.6,0.1-1.1,0.2-1.6c0.7-2.7,3.2-4.6,6.1-4.6c3.5,0,6.3,2.8,6.3,6.3C15,12.2,12.2,15,8.8,15z"/>
			</g>
		</g>
	</g>
	<g id="_3" transform="translate(533 3041.738)">
		<g id="Grupo_129699" transform="translate(21.189)">
			<path id="Trazado_188170" class="st5" d="M75.8,171.2H65L55.4,108L9.6,147.1L6.8,10.3h9.7l0.8,115.3l45-35.3L75.8,171.2z"/>
			<path id="Trazado_188171" class="st5" d="M23.7,20.6H0L11.8,0L23.7,20.6z"/>
		</g>
		<g id="Grupo_129701" transform="translate(52.419 24.203)">
			<g id="Grupo_129700">
				<path id="Trazado_188172" class="st1" d="M79.7,148.5H7.8c-4.3,0-7.8-3.5-7.8-7.8V7.8C0,3.5,3.5,0,7.8,0h71.9
					c4.3,0,7.8,3.5,7.8,7.8v133C87.4,145,84,148.5,79.7,148.5z M7.8,1.8c-3.3,0-5.9,2.7-5.9,5.9v133c0,3.3,2.7,5.9,5.9,5.9h71.9
					c3.3,0,5.9-2.7,5.9-5.9V7.8c0-3.3-2.7-5.9-5.9-5.9L7.8,1.8z"/>
			</g>
		</g>
		<g id="Grupo_129721" transform="translate(75.208 29.91)">
			<path id="Trazado_188173" class="st15" d="M23.3,18c1,0.4,2,0.5,3.1,0.4v43.3c-0.5,0.2-1,0.3-1.5,0.5c-0.2,0.1-0.4,0.1-0.6,0.2
				l-0.8,0.3c-0.4-0.3-0.8-0.7-1.2-1c-2.2-1.9-4-4.2-5.3-6.8c-0.1-0.2-0.2-0.3-0.2-0.5c0,0-0.1-0.1-0.1-0.2c0-0.4,0-0.8,0.1-1.2
				c0.2-4,0.5-8,0.7-12.1c-0.1-1.1-0.2-2.3-0.4-3.5c-0.2-0.8-0.3-1.7-0.5-2.6c-0.8-3.7-2.1-7.3-3.7-10.7c0.3-0.2,0.6-0.3,0.9-0.5
				c0.4-0.2,0.9-0.4,1.3-0.7c1.4-0.8,2.8-1.5,4.2-2.4c1.3-0.8,2.5-1.5,3.8-2.3c0.1-0.1,0.2-0.1,0.3-0.2L23.3,18z"/>
			<path id="Trazado_188174" class="st15" d="M26.4,64.8v3.5c-1.3,5.1-2.5,10.1-3.8,15.1l-0.7,2.9c-0.2,0.7-0.4,1.5-0.6,2.2
				c-0.1,0.5-0.3,1.1-0.4,1.7c-0.1,0.2-0.1,0.5-0.2,0.7c0,0.1,0,0.2-0.1,0.3c-1.8-0.3-3.6-0.7-5.4-1c-0.5-0.1-1.1-0.2-1.6-0.3
				c0-0.1,0-0.1,0-0.2c0-0.1,0-0.2,0-0.3c-0.1-0.8-0.1-1.7-0.2-2.6c0-0.7-0.1-1.3-0.1-2c0-0.4,0-0.7-0.1-1.1c0-1.2-0.1-2.6-0.1-3.9
				c0-6.2,0.7-12.4,1.9-18.4c0.3-1.3,0.5-2.5,0.8-3.7c0.3-1,0.5-2.1,0.8-3c0-0.1,0-0.1,0.1-0.2c0.1-0.2,0.1-0.4,0.2-0.6
				c1.5,1.7,3,3.5,4.5,5.2c1,1.1,2,2.3,2.9,3.4c0.3,0.3,0.6,0.7,0.8,1l0.4,0.5C25.9,64.2,26.1,64.5,26.4,64.8z"/>
			<path id="Trazado_188175" class="st15" d="M20.7,90.9c0,0.1,0,0.2-0.1,0.3c-0.1,0.5-0.2,1-0.4,1.6l-0.4,1.7c-0.2,2-0.3,3.7-0.5,5
				c-0.4,3.7-0.8,5.8-1,6.4c-0.1,0.7-0.3,1.3-0.3,1.6c-1.3,6.1-2.2,12.3-2.7,18.5c-1.4,0-2.8,0-4.1,0c-0.1-1.5-0.3-3.8-0.5-6.7
				c-0.6-9.1-0.9-13.7-0.1-18.7c0.5-3.1,1.3-6,2.5-8.9c0.2-0.7,0.3-1.4,0.5-2.1c0-0.1,0.1-0.2,0.1-0.3s0.1-0.2,0.1-0.3
				c0.6,0.2,1.2,0.3,1.8,0.5L20.7,90.9z"/>
			<path id="Rectángulo_82599" class="st16" d="M12.8,126l4,3.1c0.5,0.4,0.6,1.1,0.2,1.6l0,0l-7.4,9.5c-0.9,1.1-2.5,1.3-3.6,0.5
				l-2.9-2.2c-0.5-0.4-0.6-1.1-0.2-1.6l8.3-10.6C11.6,125.7,12.3,125.7,12.8,126C12.8,126,12.8,126,12.8,126z"/>
			<g id="Grupo_129706" transform="translate(4.065 126.089)">
				<path id="Trazado_188176" class="st15" d="M11.3,0c0.3,0.7,0.5,1.5,0.6,2.3c0.1,0.5,0.1,1,0.2,1.6c-0.2,0.5-0.4,1-0.7,1.4
					c-0.7,1.1-1.4,1.2-2.3,1.9c-1.6,1.3-1.3,2.5-3.1,4.3C5.6,12,5,12.4,4.4,12.8c-0.4,0.1-0.8,0.2-1.3,0.2c-0.6,0-1.1-0.1-1.6-0.4
					c-0.4-0.2-0.7-0.6-0.9-1c-0.4-0.9-0.4-1.9,0-2.8c0.3-0.6,0.7-1.2,1.4-1.5C3.7,4.8,5.4,2.4,7.2,0L11.3,0z"/>
				<g id="Grupo_129702" transform="translate(2.551 10.4)">
					<path id="Trazado_188177" class="st17" d="M0.7,2.8c-0.2,0-0.3,0-0.4-0.1C0.2,2.5,0.1,2.4,0,2.3C0,2.1,0,2,0,1.9
						c0-0.1,1-1.8,1-1.8C1.1,0,1.2,0,1.3,0c0,0,0,0,0,0c0.1,0.1,0.1,0.2,0.1,0.3L0.5,2c0,0,0,0.1,0,0.1c0,0.1,0.1,0.1,0.1,0.2
						C0.7,2.3,1,2.3,1.7,2C1.8,1.9,2,2,2,2.1c0.1,0.1,0,0.3-0.1,0.3c0,0,0,0,0,0C1.5,2.6,1.1,2.7,0.7,2.8z"/>
				</g>
				<g id="Grupo_129703" transform="translate(1.315 9.054)">
					<path id="Trazado_188178" class="st17" d="M0.4,3.8c0,0-0.1,0-0.1,0C0.1,3.7,0,3.6,0,3.4C0,3.2,0,3,0.1,2.9l1.8-2.7
						C2,0,2.1,0,2.2,0c0.1,0.1,0.1,0.2,0.1,0.3L0.5,3.1c0,0.1-0.1,0.1-0.1,0.2c0,0,0,0.1,0.1,0.1c0.1,0.1,0.1,0.2,0.1,0.3
						C0.5,3.8,0.5,3.8,0.4,3.8z"/>
				</g>
				<g id="Grupo_129704" transform="translate(0.433 8.443)">
					<path id="Trazado_188179" class="st17" d="M0.6,4C0.4,3.9,0.1,3.7,0,3.4C0,3.2,0,2.9,0.1,2.7L2,0.1C2,0,2.2,0,2.3,0
						c0.1,0.1,0.1,0.2,0.1,0.3c0,0,0,0,0,0L0.5,2.9c0,0.1,0,0.2,0,0.4c0,0.1,0.1,0.2,0.2,0.3c0.1,0,0.2,0.2,0.1,0.3c0,0,0,0,0,0
						C0.8,4,0.7,4,0.6,4z"/>
				</g>
				<g id="Grupo_129705" transform="translate(0 7.793)">
					<path id="Trazado_188180" class="st17" d="M0.5,3.8c-0.1,0-0.1,0-0.2-0.1C0.1,3.4,0,3.1,0,2.8c0-0.3,0.2-0.6,0.4-0.9
						c0.4-0.4,0.8-1,1.3-1.6l0.2-0.2C1.9,0,2.1,0,2.2,0c0.1,0.1,0.1,0.2,0,0.3L2,0.6C1.5,1.2,1.1,1.7,0.8,2.2
						C0.6,2.3,0.5,2.6,0.5,2.8c0,0.2,0.1,0.4,0.2,0.6c0.1,0.1,0.1,0.2,0,0.3c0,0,0,0,0,0C0.6,3.8,0.5,3.8,0.5,3.8z"/>
				</g>
			</g>
			<path id="Trazado_188181" class="st10" d="M10.2,139.7c-1.6,1.5-5.1,2-6.7,0.2c-1.2-1.4-0.6-3.6-0.5-4c0.5-1.4,1.3-2.6,2.4-3.6
				c0.5-0.4,1-0.8,1.6-1c1-2.7,2.7-4.1,3.8-3.9c0.5,0.2,0.9,0.6,1.2,1.1c0.6,1.2-0.1,2.2,0.4,2.6c0.8,0.6,3.6-2.4,4.4-1.8
				c0.3,0.2,0.2,0.9,0,1.7c-1.1,1.5-2.2,2.9-3.3,4.4c-0.6,0.8-0.9,1.2-1.3,1.8C10.5,139.3,10.6,139.3,10.2,139.7z"/>
			<path id="Trazado_188182" class="st15" d="M23.2,28.5l3.2,0.2v3.2l-0.2-0.1c-1-0.3-2-0.6-3-1c-0.5-0.2-0.9-0.4-1.2-0.5
				c-0.3-0.3-0.7-0.6-1-0.9c-0.1,0-0.1-0.1-0.2-0.1c-0.2-0.2-0.4-0.3-0.6-0.5c0.1,0,0.1,0,0.2,0c0.5-0.1,0.9-0.2,1.4-0.2
				C22.3,28.4,22.8,28.4,23.2,28.5z"/>
			<path id="Trazado_188183" class="st15" d="M22.3,29c0,0.2-1.2,0.4-2.7,0.4s-2.7-0.2-2.7-0.4s1.2-0.4,2.7-0.4S22.3,28.8,22.3,29z"
				/>
			<path id="Trazado_188184" class="st15" d="M23.5,30.7l-3.3,1.2c-0.6-0.1-1-0.4-1.4-0.9c-0.4-0.5-0.6-1.2-0.6-1.9h3.4L23.5,30.7z"
				/>
			<path id="Trazado_188185" class="st15" d="M26.4,11.2v1.5c0,0.5,0,0.9,0,1.4v6.3c-1.3-0.1-2.5-0.8-3.3-1.8c0-0.1,0-0.2,0.1-0.3
				c0.2-1.6,0.5-3.3,0.7-5c0.1-0.7,0.2-1.4,0.3-2L26.4,11.2z"/>
			<path id="Trazado_188186" class="st7" d="M26.4,12.3v0.3c0,0.5,0,0.9,0,1.4v1.1c-1-0.1-1.8-0.8-2.1-1.7c0.4-0.4,0.9-0.8,1.3-1.2
				L26.4,12.3z"/>
			<path id="Trazado_188187" class="st15" d="M26.4,3.8c0-0.1,0-0.2,0.1-0.2l-0.1,7.6v1.5c0,0.5,0,0.9,0,1.4c-0.7,0-1.5-0.2-2.1-0.5
				c-0.2-0.1-0.3-0.2-0.5-0.3c-1-0.8-1.7-2-1.7-3.4V3.7c0-0.5,0.2-0.9,0.5-1.2C23,2.1,23.5,2,23.9,2h2.5L26.4,3.8z"/>
			<path id="Trazado_188188" class="st7" d="M26.4,61v7.5c-0.4-1.6-0.7-3.1-1.1-4.6c0-0.2-0.1-0.3-0.1-0.4c-0.1-0.4-0.2-0.7-0.2-1.1
				c0,0,0-0.1,0-0.1C25.4,61.8,25.9,61.4,26.4,61z"/>
			<path id="Trazado_188189" class="st10" d="M20.9,90.3c-0.1,0.2-0.1,0.5-0.2,0.7c0,0.1,0,0.2-0.1,0.3c-0.1,0.5-0.2,1-0.4,1.6
				c-1.7-0.9-3.4-1.7-5-2.6c-0.5-0.3-1-0.5-1.6-0.8c0.6,0.1,1.3,0.2,1.9,0.2C17.4,89.8,19.2,90,20.9,90.3z"/>
			<path id="Trazado_188190" class="st14" d="M26.4,63.7v6c-1.6,6.9-3.2,13.8-4.8,20.6c-0.2,0-0.5-0.1-0.7-0.1
				c-1.4-0.2-2.8-0.4-4.2-0.5c-0.3-0.1-0.7-0.1-1-0.1c-0.7-0.1-1.3-0.2-1.9-0.2c-1-0.1-1.8-0.2-2.7-0.3c0-9.5,1.2-19,3.7-28.2
				c0.3-1.2,0.6-2.3,1-3.4c0.3-1,0.6-1.9,0.9-2.9c0.1,0.1,0.2,0.2,0.3,0.3c1.5,1.4,2.9,2.8,4.4,4.2c1.1,1.1,2.3,2.2,3.4,3.2
				c0,0,0.1,0.1,0.1,0.1C25.4,62.8,25.9,63.3,26.4,63.7z"/>
			<path id="Trazado_188191" class="st1" d="M26.4,20.5V64c-0.2,0-0.5-0.1-0.8-0.1c-0.1,0-0.2,0-0.3-0.1c-2.5-0.4-4.8-1.5-6.7-3.1
				c-1.1-0.9-2-2-2.7-3.2c0-0.1-0.1-0.1-0.1-0.2c-0.2-0.3-0.4-0.7-0.6-1c0-4.9-0.1-10.1-0.5-15.6c-0.1-0.8-0.1-1.7-0.2-2.5
				c-0.1-1.3-0.2-2.6-0.4-3.9c-0.4-3.5-0.8-7-1.3-10.3c0.2-0.1,0.4-0.3,0.7-0.4c0.5-0.3,1-0.6,1.4-0.9c2.7-1.6,5.3-3.2,7.9-4.8
				c0,0.1,0.1,0.2,0.1,0.3c0.2,0.6,0.6,1.2,1.2,1.6C24.7,20.4,25.6,20.6,26.4,20.5z"/>
			<path id="Trazado_188192" class="st15" d="M16.6,34.7l-4.2,7c-0.5,0.8-1,1.7-1.5,2.5c-0.5,0.9-1,1.7-1.5,2.6c-1.7,2-4,2.4-5,1.5
				c-0.5-0.6-0.8-1.5-0.6-2.3c0.3-1.3,0.6-2.7,0.9-4c1-3.9,2-7.2,2.9-9.8c1.6-4.9,2.8-7.1,4.9-8.1c0.7-0.3,1.4-0.5,2.2-0.6
				C15.3,27.2,16,30.9,16.6,34.7z"/>
			<path id="Trazado_188193" class="st7" d="M12.4,41.7c-0.5,0.8-1,1.7-1.5,2.5c-0.7-1-1.5-1.9-2.2-2.9c1-0.3,2.1-0.6,3.1-1
				C12,40.8,12.2,41.3,12.4,41.7z"/>
			<path id="Trazado_188194" class="st1" d="M12.7,43.6l-7.8-4.5c0.1-2,1.1-12.4,8-15.6c0.6-0.3,1.3-0.5,2-0.7l3.9,12.1L12.7,43.6z"
				/>
			<path id="Trazado_188195" class="st15" d="M7.1,20l-3.8-0.4C2.7,24.4,1.8,31.2,1,39.1c-0.2,2.1,0.1,4.2,0.8,6.2
				c0.4,1.3,1.2,2.5,2.3,3.2c0.7,0.4,2,0.6,4.2-0.7c-0.3,0-0.6,0-0.7-0.2c-0.2-0.3,0.3-0.9,0.6-1.5c0.3-0.9,0.5-1.9,0.7-2.9
				C8.3,35.5,7.7,27.7,7.1,20z"/>
			<path id="Trazado_188196" class="st6" d="M26.4,11.5c0,0,0,1.1,0,1.1c-0.3,0-0.6-0.1-0.8-0.3c-0.3-0.3-0.5-0.7-0.5-1.1
				C25.5,11.4,25.9,11.5,26.4,11.5L26.4,11.5z"/>
			<path id="Trazado_188197" class="st6" d="M27.6,11.4c0.1,0.1,0,0.3-0.2,0.6v-0.6C27.5,11.3,27.6,11.3,27.6,11.4z"/>
			<path id="Trazado_188198" class="st7" d="M26.4,0.1v3.7c-0.2,0.4-0.4,0.9-0.5,0.8c-0.1,0-0.1-0.3-0.1-0.3c0,0.4,0,0.8,0.1,1.2
				c-0.5-0.4-1.2-0.6-1.8-0.5c-0.9,0.3-1.6,1-1.8,2c-0.1,0.3-0.1,0.5-0.1,0.8c0,0.2,0,0.5,0,0.7C22,8,21.8,7.4,21.7,6.8
				c-0.1-0.3-0.1-0.6-0.1-0.9c0-0.5,0-1.1,0-1.6c0.1-0.8,0.3-1.5,0.7-2.2c0.2-0.3,0.4-0.5,0.6-0.8c0.5-0.5,1.1-0.9,1.7-1.2
				C25.2,0,25.8,0,26.4,0.1z"/>
			<path id="Trazado_188199" class="st7" d="M22.2,5.3c-0.4-0.5-0.7-1.2-0.7-1.9c0-1.3,0.7-2.6,1.7-3.4L22.2,5.3z"/>
			<path id="Trazado_188200" class="st15" d="M22.7,8.3c0,0.8-0.4,1.5-0.9,1.5s-0.9-0.7-0.9-1.5s0.4-1.5,0.9-1.5S22.7,7.4,22.7,8.3z
				"/>
			<g id="Grupo_129707" transform="translate(0 6.267)">
				<path id="Trazado_188201" class="st15" d="M7.2,10.3L7.3,16L4,16.2c-1.6-5.3-2.1-7-2.3-7.4c0,0-0.3-0.7-0.3-0.7
					C1.3,7.9,1.3,7.7,1.2,7.5C1.1,7.2,1,7,1,7c-0.4-1-0.7-2-0.9-3C0,3.6,0,3.2,0.1,2.8c0,0,0.2-0.2,0.3-0.2c0.1,0,0.2,0.2,0.2,0.3
					C0.8,3.5,1,4.1,1.2,4.7c0.1,0.6,0.5,1.2,1,1.6c0.8,0.4,2.2-0.6,3.4-2.2c0.1,0.2,0.1,0.4,0.2,0.7C6,5.8,6,6.2,6.2,6.3
					c0.2,0.1,0.5,0.1,0.8,0c0.6-0.2,0.6-0.6,1.2-1.1c0.6-0.4,1.4-0.6,1.6-0.4c0,0.1,0,0.2,0,0.3C9.7,5.6,9.3,5.7,9.1,5.9
					C8.8,6.2,8.6,6.7,8.5,7.3C8.3,8.4,7.8,9.4,7.2,10.3z"/>
				<path id="Trazado_188202" class="st15" d="M2.8,5.5L1.5,6.1c-0.1-1.3-0.3-2.6-0.4-4c0-0.2-0.1-0.7,0.1-0.8c0.1,0,0.1,0,0.2,0
					C1.8,1.5,2,2.2,2,2.3L2.8,5.5z"/>
				<path id="Trazado_188203" class="st15" d="M4.2,4.7L2.9,5.4C2.7,4.6,2.5,3.8,2.4,2.9C2.1,1,2.3,0.6,2.6,0.3
					C2.6,0.2,2.9,0,3.1,0.1c0.4,0.1,0.2,1.3,0.5,2.8C3.7,3.5,3.9,4.1,4.2,4.7z"/>
				<path id="Trazado_188204" class="st15" d="M5.6,4.1C5.1,4.3,4.7,4.5,4.2,4.6c0-0.7-0.1-1.4-0.1-2.1c0-0.4,0-0.8,0-1.1
					C4.1,0.6,4.2,0,4.4,0s0.5,0.4,0.8,1.1c0.1,0.4,0.1,0.8,0.2,1.2C5.4,2.9,5.5,3.5,5.6,4.1z"/>
				<path id="Trazado_188205" class="st15" d="M2.8,6.7L1.6,6.9L1.4,5.9l1.3-0.6L5.4,4l0.1,0.1L5.5,4.8C4.6,5.4,3.7,6.1,2.8,6.7z"/>
			</g>
			<path id="Trazado_188206" class="st6" d="M26.5,3.6l-0.1,7.6v1.5c0,0.5,0,0.9,0,1.4V3.8C26.4,3.7,26.4,3.6,26.5,3.6z"/>
			<path id="Trazado_188207" class="st6" d="M27.1,12.3c0.1-0.1,0.2-0.2,0.3-0.3v0.3H27.1z"/>
			<g id="Grupo_129720" transform="translate(26.158 1.004)">
				<g id="Grupo_129718" transform="translate(0.197)">
					<g id="Grupo_129717">
						<path id="Trazado_188208" class="st15" d="M13.2,78.7c0,1.3,0,2.7-0.1,3.9c0,0.4,0,0.7-0.1,1.1c0,0.7-0.1,1.3-0.1,2
							c-0.1,1-0.1,2-0.2,2.9c0,0.1,0,0.2,0,0.2c-2.3,0.4-4.7,0.9-7,1.3c0-0.1-0.1-0.2-0.1-0.3c-0.2-0.8-0.4-1.6-0.6-2.3
							c-0.2-0.8-0.4-1.5-0.6-2.2l-0.7-2.9c-1.2-5-2.5-10-3.8-15.1v-3.6c0.5-0.6,1-1.2,1.5-1.8c0.3-0.4,0.7-0.8,1-1.1
							c2.3-2.6,4.5-5.2,6.7-7.8c0.1-0.1,0.2-0.2,0.2-0.3c0.4,1.3,0.7,2.6,1,3.9c0.3,1.1,0.6,2.3,0.8,3.6
							C12.6,66.4,13.2,72.5,13.2,78.7z"/>
						<path id="Trazado_188209" class="st15" d="M11,125.1c1.4,0,2.8,0,4.1,0c0.1-1.5,0.3-3.8,0.5-6.7c0.6-9.1,0.9-13.7,0.1-18.7
							c-0.5-3.1-1.3-6-2.5-8.9c-0.2-0.9-0.5-1.8-0.7-2.7l-7,1.8l0.8,3.6c0.1,2,0.3,3.7,0.5,5c0.4,3.8,0.8,5.8,1,6.4
							c0.2,0.7,0.3,1.3,0.4,1.6C9.5,112.7,10.5,118.9,11,125.1z"/>
						<path id="Trazado_188210" class="st15" d="M12.2,23.1c-0.8,2.4-1.5,5-2.2,7.8c0,0,0,0.1,0,0.1c-0.2,0.9-0.4,1.8-0.6,2.7
							c-0.4,2.1-0.7,4.2-1,6.2c0.2,3.3,0.4,6.6,0.5,9.8c0,0.4,0.1,1,0.1,1.5c0,0.6,0.1,1.2,0.1,1.7v0.2c-0.9,1.4-1.8,2.7-2.5,3.6
							c-1,1.3-2,2.6-3.1,3.8c-0.1,0.1-0.2,0.2-0.3,0.3c-0.3,0-0.6,0-0.8-0.1c-0.8-0.1-1.5-0.2-2.2-0.4c-0.1,0-0.2,0-0.2-0.1
							C0,60.4,0,17.5,0,17.5c0-1.9,0.6-3.2,1.3-3.3c0.5-0.1,1.1,0.6,1.3,1.1c0.3,0.6,0.3,1.2,0,1.8l0.3,0.2c1.3,0.8,2.6,1.6,3.9,2.4
							c1.6,1,3.1,2,4.6,3C11.7,22.8,12,22.9,12.2,23.1z"/>
						<path id="Trazado_188211" class="st15" d="M7.9,29.1c-0.2,0.8-0.6,1.5-1.2,2c-1.3,1.1-3.2,0.9-5.4,0.4
							c-0.4-0.1-0.9-0.2-1.4-0.4v-3.4c0.4,0,0.7,0,1.1,0.1c1.7,0.1,3.4,0.2,5.1,0.2c0.5,0,0.9,0.1,1.2,0.4
							C7.7,28.6,7.8,28.8,7.9,29.1z"/>
						<g id="Grupo_129715" transform="translate(9.675 119.165)">
							<g id="Grupo_129714">
								<g id="Grupo_129712" transform="translate(0.303 4.932)">
									<path id="Trazado_188212" class="st15" d="M0.4,2.7C0,4.9-0.1,5.5,0.1,6.2C0.4,6.8,1,7.3,1.8,7.4c0.3,1.1,0.8,2.2,1.4,3.2
										c0.5,0.9,1.2,1.7,1.9,2.3c0.1,0.4,0.4,0.7,0.7,1c0.2,0.1,0.7,0.4,0.8,0.2c0.1-0.2-0.1-0.7-0.1-0.7s0.3,0.4,0.7,0.8
										c0.2,0.1,0.5,0.3,0.6,0.2C8.1,14.2,8,13.8,8,13.7c0.1,0.1,0.6,0.9,1.1,0.8c0.2,0,0.3-0.1,0.4-0.3c0-0.2,0-0.3-0.1-0.4
										c0.1,0.2,0.4,0.4,0.6,0.5c0.3,0.1,0.8,0.1,0.9-0.3c0-0.4-0.1-0.8-0.4-1c0.1,0,0.1,0.1,0.2,0.1c0.2,0.1,0.3,0.2,0.5,0.2
										c0.1,0,0.1,0,0.2,0c0.2,0,0.5,0,0.7-0.2c0,0,0.1,0,0.1-0.1c0.2-0.1,0.3-0.3,0.4-0.4c0.1-0.2,0.1-0.3,0.1-0.5
										c0-0.1,0-0.3,0-0.4c0-0.2-0.1-0.4-0.1-0.6c-0.1-0.1-0.2-0.2-0.2-0.2c-0.7-0.7-1.5-1.4-2.2-2.1C8.3,5.9,6.6,3,4.9,0
										C3.5,0.1,0.5,1.7,0.4,2.7z"/>
									<g id="Grupo_129708" transform="translate(9.117 10.721)">
										<path id="Trazado_188213" class="st17" d="M2.4,2.9c-0.1,0-0.1,0-0.2,0c-0.1,0-0.2,0-0.2,0c-0.2,0-0.4-0.1-0.5-0.2
											C1.3,2.5,1.3,2.5,1.3,2.5c-0.1,0-0.1-0.1-0.2-0.1C0.6,1.9,0.2,1.4,0,0.7c0-0.1,0-0.3,0.1-0.3c0,0,0,0,0,0
											c0.1,0,0.3,0,0.3,0.1c0,0,0,0,0,0C0.6,1.1,1,1.6,1.4,2c0.1,0.1,0.1,0.1,0.1,0.1c0,0,0.1,0,0.1,0.1C1.8,2.3,2,2.3,2.1,2.4
											c0,0,0.1,0,0.1,0c0.2,0,0.4,0,0.5-0.1C3,2.1,3.2,1.8,3.3,1.4c0-0.1,0-0.2,0-0.3c0-0.3-0.1-0.5-0.3-0.7
											C2.9,0.3,2.9,0.1,3,0.1c0,0,0,0,0,0C3.1,0,3.2,0,3.3,0.1c0,0,0,0,0,0C3.5,0.3,3.7,0.6,3.7,1c0,0.2,0,0.4,0,0.6
											c-0.1,0.4-0.3,0.8-0.6,1c0,0-0.1,0.1-0.1,0.1C2.8,2.8,2.6,2.9,2.4,2.9z"/>
									</g>
									<g id="Grupo_129709" transform="translate(7.802 11.01)">
										<path id="Trazado_188214" class="st17" d="M1.6,3.1c-0.1,0-0.1,0-0.2-0.1C1.2,2.7,1,2.4,0.8,2.1C0.5,1.5,0.2,0.9,0,0.3
											C0,0.2,0,0.1,0.2,0c0,0,0,0,0,0c0.1,0,0.3,0,0.3,0.1c0.2,0.6,0.4,1.2,0.7,1.7c0.2,0.3,0.4,0.6,0.6,0.9
											C1.8,2.8,1.8,3,1.7,3c0,0,0,0,0,0C1.7,3.1,1.6,3.1,1.6,3.1z"/>
									</g>
									<g id="Grupo_129710" transform="translate(6.986 11.581)">
										<path id="Trazado_188215" class="st17" d="M1,2.4c-0.1,0-0.2,0-0.2-0.1C0.6,1.8,0.4,1.3,0.2,0.8C0.1,0.6,0.1,0.5,0,0.3
											C0,0.2,0,0,0.2,0c0.1,0,0.2,0,0.3,0.2c0,0.2,0.1,0.3,0.2,0.5C0.8,1.1,1,1.6,1.2,2c0.1,0.1,0,0.3-0.1,0.3c0,0,0,0,0,0
											C1.1,2.4,1.1,2.4,1,2.4z"/>
									</g>
									<g id="Grupo_129711" transform="translate(5.517 11.102)">
										<path id="Trazado_188216" class="st17" d="M1,2.5c-0.1,0-0.2-0.1-0.2-0.1L0,0.3C0,0.2,0,0.1,0.1,0c0,0,0,0,0,0
											c0.1,0,0.2,0,0.3,0.1c0,0,0,0,0,0l0.8,2C1.3,2.3,1.2,2.4,1,2.5C1.1,2.5,1.1,2.5,1,2.5C1.1,2.5,1,2.5,1,2.5z"/>
									</g>
								</g>
								<g id="Grupo_129713">
									<path id="Trazado_188217" class="st10" d="M13.1,16c0,0.1,0.1,0.1,0.1,0.2c0.2,1.1-0.2,2.3-0.9,3.2
										c-0.7,0.8-1.8,1.3-2.9,1.3c-0.3,0-0.7,0-1-0.1l-0.3-0.1c-0.6-0.2-1.4-0.7-3.5-2.8c-3-3-4.4-4.6-4.6-6.4
										c0.2-1.2,0.4-2.4,0.7-3.6C0.8,7.1,0.9,6.6,1,6L0.3,0.4L6,0L5.6,5c0.9,1.5,1.9,3.1,3,4.8C10.1,12.1,11.6,14.1,13.1,16z"/>
									<path id="Trazado_188218" class="st10" d="M9.4,20.6c-0.3,0-0.7,0-1-0.1l-0.3-0.1c-0.6-0.2-1.4-0.7-3.5-2.8
										c-3-3-4.4-4.6-4.6-6.4c0.9,0.8,1.7,1.7,2.6,2.6c1.4,1.4,2.7,2.7,4.1,4.1c0.5,0.5,0.9,0.9,1.4,1.4C8.6,19.8,9,20.2,9.4,20.6
										z"/>
									<path id="Trazado_188219" class="st10" d="M13.2,16.1c0.2,1.1-0.2,2.3-0.9,3.2c-0.7,0.8-1.8,1.3-2.9,1.3
										c-0.3,0-0.7,0-1-0.1l-0.3-0.1c0-0.4,0-0.7,0.1-1.1c0-0.2,0.1-0.4,0.2-0.6c0.2-0.4,0.4-0.8,0.6-1.1c0.3-0.3,0.6-0.6,0.9-0.9
										c0.2-0.1,0.4-0.2,0.5-0.3c0.7-0.4,1.4-0.5,2.2-0.5c0.2,0,0.3,0,0.5,0C13.1,16,13.1,16.1,13.2,16.1z"/>
								</g>
							</g>
							
								<rect id="Rectángulo_82600" x="6.8" y="13.1" transform="matrix(0.8527 -0.5223 0.5223 0.8527 -5.6977 6.5325)" class="st6" width="3.9" height="0.6"/>
							
								<rect id="Rectángulo_82601" x="6.2" y="12.1" transform="matrix(0.8527 -0.5223 0.5223 0.8527 -5.2793 6.0808)" class="st6" width="3.9" height="0.6"/>
							
								<rect id="Rectángulo_82602" x="5.6" y="11.4" transform="matrix(0.8527 -0.5223 0.5223 0.8527 -5.0071 5.6623)" class="st6" width="3.9" height="0.6"/>
							
								<rect id="Rectángulo_82603" x="5.1" y="10.3" transform="matrix(0.8527 -0.5223 0.5223 0.8527 -4.501 5.2394)" class="st6" width="3.9" height="0.6"/>
							
								<rect id="Rectángulo_82604" x="4.6" y="9.5" transform="matrix(0.8527 -0.5223 0.5223 0.8527 -4.1459 4.8552)" class="st6" width="3.9" height="0.6"/>
							
								<rect id="Rectángulo_82605" x="4.2" y="8.7" transform="matrix(0.8527 -0.5223 0.5223 0.8527 -3.7986 4.5311)" class="st6" width="3.9" height="0.6"/>
						</g>
						<path id="Trazado_188220" class="st15" d="M3.2,2.7v6.1c0,1.1-0.4,2.1-1.1,2.8c-0.2,0.2-0.3,0.3-0.5,0.5
							c-0.5,0.4-1,0.6-1.5,0.8V1h1.5C2.4,1,3.2,1.7,3.2,2.7z"/>
						<path id="Trazado_188221" class="st10" d="M18.6,116.8c-0.9,0.2-1.9,0.4-2.8,0.6c-1.8,0.4-3.6,0.8-5.5,1.2
							c-0.6,0.1-1.1,0.3-1.7,0.4c-1.4-9.6-2.8-19.2-4.1-28.8C3,84.1,1.5,77.9,0,71.7V59.1c0.2-0.1,0.3-0.3,0.5-0.4
							c2.9-2.4,5.8-4.9,8.6-7.3c0.6,1.6,1.1,3.2,1.7,5c0.9,2.9,1.6,5.8,2.2,8.7c1.5,7.6,2,15.5,1.6,23.2c0.4,2.8,0.8,5.5,1.2,8.3
							C16.7,103.3,17.6,110.1,18.6,116.8z"/>
						<path id="Trazado_188222" class="st10" d="M9.6,33.7l4.2,7c0.5,0.8,1,1.7,1.5,2.5c0.5,0.9,1,1.7,1.5,2.6c1.7,2,4,2.4,5,1.5
							c0.5-0.6,0.8-1.5,0.6-2.3c-0.3-1.3-0.6-2.7-0.9-4c-1-3.9-2-7.2-2.9-9.8c-1.6-4.9-2.8-7.1-4.9-8.1c-0.7-0.3-1.4-0.5-2.2-0.6
							C10.9,26.2,10.2,29.9,9.6,33.7z"/>
						<path id="Trazado_188223" class="st10" d="M13.8,40.7c0.5,0.8,1,1.7,1.5,2.5c0.7-1,1.5-1.9,2.2-2.9c-1-0.3-2.1-0.6-3.1-1
							C14.2,39.8,14,40.3,13.8,40.7z"/>
						<path id="Trazado_188224" class="st15" d="M19.1,19l3.8-0.4c0.6,4.8,1.5,11.6,2.3,19.4c0.2,2.1-0.1,4.2-0.8,6.2
							c-0.4,1.3-1.2,2.5-2.3,3.2c-0.7,0.4-2,0.6-4.2-0.7c0.3,0,0.6,0,0.7-0.2c0.2-0.3-0.3-0.9-0.6-1.5c-0.3-0.9-0.5-1.9-0.7-2.9
							C17.9,34.5,18.5,26.7,19.1,19z"/>
						<path id="Trazado_188225" class="st10" d="M3.4,13.2c0.9-2.2,1.4-4.6,1.3-7c-0.1-1.7-0.4-3.4-1-5.1C2.8,0.5,1.8,0.1,0.7,0
							C0.5,0,0.2,0,0,0v6.6c0-0.5,0.2-0.9,0.7-1.1c0.9-0.2,1.8,0.2,2.2,0.9c0.5,0.8,0.4,1.7-0.4,2C1.7,8.8,0.8,8.4,0.3,7.6
							C0.1,7.3,0,7,0,6.6v10.2c1.1-0.3,2.2-0.6,3.3-0.9c0.5-0.1,0.9-0.3,1.4-0.4C4.3,14.7,3.8,13.9,3.4,13.2z"/>
						<g id="Grupo_129716" transform="translate(16.62 6.573)">
							<path id="Trazado_188226" class="st10" d="M2.6,10.3L2.5,16l3.3,0.2c1.6-5.3,2.1-7,2.3-7.4l0.3-0.7c0.1-0.3,0.1-0.4,0.2-0.7
								C8.7,7.2,8.8,7,8.9,7c0.4-1,0.7-2,0.9-3c0.1-0.4,0.1-0.8-0.1-1.1c0,0-0.2-0.2-0.3-0.2c-0.1,0-0.2,0.2-0.2,0.3
								C9,3.5,8.8,4.1,8.7,4.7C8.5,5.4,8.2,6,7.7,6.4C6.9,6.7,5.5,5.8,4.3,4.1C4.2,4.3,4.1,4.5,4.1,4.8c-0.2,1-0.2,1.3-0.5,1.5
								C3.3,6.5,3,6.5,2.8,6.4C2.2,6.2,2.2,5.7,1.6,5.3C1,4.9,0.2,4.7,0,4.9C0,5,0,5.1,0,5.2c0.1,0.3,0.5,0.5,0.7,0.6
								c0.4,0.4,0.6,0.9,0.6,1.4C1.5,8.4,2,9.4,2.6,10.3z"/>
							<path id="Trazado_188227" class="st10" d="M7,5.5l1.3,0.5l0.4-4c0-0.2,0.1-0.7-0.1-0.8c-0.1,0-0.1,0-0.2,0
								C8,1.5,7.8,2.2,7.8,2.3L7,5.5z"/>
							<path id="Trazado_188228" class="st10" d="M5.6,4.7l1.3,0.6c0.2-0.8,0.4-1.6,0.6-2.4C7.7,1,7.5,0.6,7.3,0.3
								C7.2,0.2,6.9,0,6.7,0.1C6.3,0.2,6.5,1.4,6.2,2.9C6.1,3.5,5.9,4.1,5.6,4.7z"/>
							<path id="Trazado_188229" class="st10" d="M4.3,4.1l1.4,0.5c0-0.7,0.1-1.4,0.1-2.1c0-0.4,0-0.8,0-1.1C5.8,0.6,5.6,0,5.4,0
								S4.9,0.4,4.7,1.1C4.6,1.5,4.6,1.9,4.5,2.3C4.4,2.9,4.3,3.5,4.3,4.1z"/>
							<path id="Trazado_188230" class="st10" d="M7,6.7l1.3,0.2l0.2-0.9C8,5.7,7.5,5.5,7.1,5.3L4.4,4L4.3,4.1l0.1,0.7
								C5.2,5.4,6.1,6.1,7,6.7z"/>
						</g>
						<path id="Trazado_188231" class="st10" d="M24.4,26.2c-2.1,0-4.2,0-6.3,0.1c0.2-2.1,0.3-4.3,0.5-6.5c0.1-1.2,0.1-2.4,0.2-3.6
							c1.8,0.5,3.5,0.9,5.3,1.4L24.4,26.2z"/>
						<path id="Trazado_188232" class="st10" d="M12.9,23.3c-0.2,5-0.4,10-0.6,15c-0.2,5.5-0.5,11-0.7,16.4
							c-0.2,0.6-0.5,1.1-0.8,1.6c-0.1,0.1-0.2,0.3-0.3,0.4c-0.9,1.4-2.2,2.7-3.6,3.6c-1.6,1-3.5,1.6-5.4,1.7c-0.5,0-1,0.1-1.5,0
							c0,0,0-38.9,0-38.9c0-1.3,0.1-2.6,0.1-3.9c0,0,0.1,0,0.1,0c0.7-0.1,1.3-0.3,1.8-0.8c0,0,0.1-0.1,0.1-0.1
							c0.3-0.3,0.6-0.7,0.7-1.1c0,0,0-0.1,0-0.1c2,0.8,3.9,1.9,5.7,3.1c1.2,0.8,2.4,1.6,3.4,2.4C12.4,22.8,12.6,23,12.9,23.3z"/>
					</g>
				</g>
				<g id="Grupo_129719" transform="translate(0 56.513)">
					<path id="Trazado_188233" class="st6" d="M0.6,5.8c-0.1,0-0.3,0-0.4,0C0.1,5.8,0,5.7,0,5.5c0-0.1,0.1-0.2,0.2-0.2c0,0,0,0,0,0
						c2.6,0.1,5.2-0.7,7.3-2.1c1.2-0.8,2.2-1.9,3-3.1C10.6,0,10.7,0,10.9,0C11,0.1,11,0.2,10.9,0.3c0,0,0,0,0,0
						C10.1,1.6,9,2.7,7.8,3.6C5.7,5,3.2,5.8,0.6,5.8z"/>
				</g>
			</g>
		</g>
		<g id="Grupo_129723" transform="translate(33.715 31.645)">
			<circle id="Elipse_4749" class="st4" cx="19.3" cy="19.3" r="13.6"/>
			<g id="Grupo_129722" transform="translate(14.61 9.91)">
				<path id="Trazado_188234" class="st6" d="M7.6,13.3c-0.3,2.3-0.6,4.7-0.9,7L2.6,20c-1-6.8-1.4-9-1.5-9.5c0,0-0.2-0.9-0.2-0.9
					C0.8,9.3,0.8,9.1,0.7,8.8C0.7,8.5,0.6,8.2,0.6,8.2C0.3,6.9,0.1,5.6,0,4.3c-0.1-0.5,0-1,0.3-1.3c0,0,0.3-0.3,0.4-0.2
					C0.9,2.8,0.9,3,0.9,3.1C1,3.9,1.1,4.7,1.2,5.4c0,0.8,0.4,1.6,0.9,2.2C3,8.2,4.9,7.3,6.7,5.5c0,0.2,0.1,0.5,0.1,0.9
					C7,7.6,6.9,8,7.2,8.3c0.3,0.2,0.6,0.2,1,0.2C8.9,8.3,9,7.8,9.8,7.3c0.8-0.4,1.8-0.5,2-0.2c0,0.1,0,0.2,0,0.3
					c-0.2,0.4-0.6,0.5-0.9,0.7c-0.6,0.3-0.8,1.1-1,1.6C9.3,11.1,8.6,12.3,7.6,13.3z"/>
				<path id="Trazado_188235" class="st6" d="M3.1,6.7L1.4,7.1l0.2-4.9c0-0.3,0-0.8,0.3-0.9c0.1,0,0.2,0,0.2,0
					c0.5,0.2,0.6,1.2,0.6,1.3C2.8,4,3,5.3,3.1,6.7z"/>
				<path id="Trazado_188236" class="st6" d="M4.9,5.9C4.4,6.1,3.8,6.3,3.3,6.5C3.1,5.5,3,4.5,3,3.4c0-2.4,0.3-2.9,0.7-3.2
					C3.8,0.2,4.1-0.1,4.4,0c0.5,0.2,0,1.6,0.1,3.6C4.6,4.4,4.7,5.2,4.9,5.9z"/>
				<path id="Trazado_188237" class="st6" d="M6.7,5.5C6.1,5.6,5.6,5.7,5,5.8l0.3-2.6c0.1-0.5,0.1-0.9,0.2-1.4c0-1,0.3-1.7,0.6-1.7
					s0.6,0.6,0.7,1.5c0,0.5,0,1,0,1.5C6.7,3.9,6.7,4.7,6.7,5.5z"/>
				<path id="Trazado_188238" class="st6" d="M2.9,8.1l-1.6,0l0-1.2c0.6-0.2,1.2-0.4,1.8-0.6l3.5-1.1l0.1,0.2L6.5,6.3L2.9,8.1z"/>
			</g>
		</g>
		<g id="Grupo_129725" transform="translate(21.189 69.663)">
			<path id="Trazado_188297" class="st2" d="M18.5,0c10.2,0,18.5,8.3,18.5,18.5s-8.3,18.5-18.5,18.5S0,28.7,0,18.5
				C0,8.3,8.3,0,18.5,0C18.5,0,18.5,0,18.5,0z"/>
			<g id="Grupo_129724" transform="translate(9.479 7.27)">
				<path id="Trazado_188239" class="st6" d="M9.5,18.2l-2.2,4.2l-2.2-4.2L0,8.3l3.4-1.8L7.3,14L9.5,18.2z"/>
				<path id="Trazado_188240" class="st6" d="M18,1.8L9.5,18.2l-2.2,4.2l-2.2-4.2L7.3,14l7.3-14L18,1.8z"/>
			</g>
		</g>
		<path id="Trazado_188298" class="st4" d="M15.3,28.6c8.5,0,15.3,6.9,15.3,15.3s-6.9,15.3-15.3,15.3S0,52.4,0,43.9c0,0,0,0,0,0
			C0,35.5,6.9,28.6,15.3,28.6z"/>
		<g id="Grupo_129726" transform="translate(8.071 38.27)">
			<path id="Trazado_188241" class="st6" d="M7.3,4C5.4,4,3.6,4.5,2,5.6C2,5.6,1.9,5.7,1.8,5.7l0.9,1.4C2.8,7.1,2.9,7,2.9,7
				c1.3-0.9,2.8-1.3,4.3-1.3c1.5,0,3.1,0.5,4.3,1.3c0.1,0,0.1,0.1,0.2,0.1l0.9-1.4c-0.1,0-0.1-0.1-0.2-0.1C10.9,4.5,9.1,4,7.3,4z"/>
			<path id="Trazado_188242" class="st6" d="M8.4,8.2c-0.1,0-0.1-0.1-0.2-0.1c-0.3-0.2-0.6-0.3-1-0.3c-0.3,0-0.7,0.1-1,0.3
				c-0.1,0-0.1,0.1-0.2,0.1C5.6,8.6,5.3,9.1,5.3,9.8c0,1.1,0.9,1.9,1.9,1.9c0,0,0,0,0,0c1.1,0,1.9-0.9,1.9-1.9c0,0,0,0,0,0
				C9.2,9.1,8.9,8.6,8.4,8.2z"/>
			<path id="Trazado_188243" class="st6" d="M14.4,2.7C12.4,1,9.9,0,7.3,0C4.6,0,2.1,1,0.2,2.7C0.1,2.7,0,2.8,0,2.8l0.9,1.4
				C1,4.2,1,4.2,1.1,4.1C2.8,2.5,5,1.7,7.3,1.7c2.3,0,4.5,0.9,6.2,2.4l0.2,0.1l0.9-1.4C14.5,2.8,14.4,2.7,14.4,2.7z"/>
		</g>
	</g>
	<g id="Grupo_132021" transform="translate(994.583 3042)">
		<ellipse id="Elipse_1195" class="st18" cx="28.2" cy="29" rx="28.2" ry="29"/>
		<ellipse id="Elipse_4814" class="st2" cx="28.2" cy="29" rx="21.3" ry="22.2"/>
	</g>
	<g id="Grupo_132022" transform="translate(459.126 2861)">
		<ellipse id="Elipse_1195-2" class="st18" cx="28.2" cy="29" rx="28.2" ry="29"/>
		<ellipse id="Elipse_4814-2" class="st2" cx="28.2" cy="29" rx="21.3" ry="22.2"/>
	</g>
	<g id="Grupo_132023" transform="translate(994.692 2852.66)">
		<ellipse id="Elipse_1195-3" class="st18" cx="28.2" cy="29" rx="28.2" ry="29"/>
		<ellipse id="Elipse_4814-3" class="st2" cx="28.2" cy="29" rx="21.3" ry="22.2"/>
	</g>
	<g id="_7" transform="translate(800 2852.66)">
		<g id="Grupo_129750">
			<g id="Grupo_129727" transform="translate(7.061 101.754)">
				<path id="Trazado_188244" class="st12" d="M5.3,66.6l-5.3-1l0.1-0.3L12.8,0l5.3,1l-0.1,0.3L5.3,66.6z M0.7,65l4.1,0.8L17.4,1.5
					l-4.1-0.8L0.7,65z"/>
			</g>
			<g id="Grupo_129728" transform="translate(39.003 101.754)">
				<path id="Trazado_188245" class="st12" d="M12.8,66.6l-0.1-0.3L0,1l5.4-1l0.1,0.3l12.7,65.2L12.8,66.6z M0.7,1.5l12.6,64.3
					l4.1-0.8L4.9,0.7L0.7,1.5z"/>
			</g>
			<g id="Grupo_129730" transform="translate(14.26 15.975)">
				<path id="Trazado_188246" class="st7" d="M55.9,45.9h-9.1V24.4c2.3-7,4.6-13.9,6.9-20.9c1.2,0.2,2.4,0.7,3.5,1.4
					c7.9,5.2,4.8,21.8,4.2,25.6C60.4,35.9,58.5,41.1,55.9,45.9z"/>
				<path id="Trazado_188247" class="st15" d="M30.4,44.1l17.2,4.8c0.6-1.9,1.3-3.9,1.9-5.8c0.3-1.3,0.5-2.6,0.8-4
					c0.6-3.5,1.3-7,1.9-10.5c-4.6-1.3-9.3-2.8-13.9-4.1c-0.2-0.1-0.3-0.1-0.5-0.2L30.4,44.1z"/>
				<path id="Trazado_188248" class="st7" d="M44,33.4c0.3,1.7,1.3,3.3,2.8,4.2c1.1,0.6,2.4,0.8,3.6,0.6c0.3-1.4,0.5-2.8,0.8-4.2
					c0.3-1.8,0.7-3.5,1-5.3c-4.6-1.3-9.3-2.8-13.9-4.1C40.2,27.5,42.1,30.4,44,33.4z"/>
				<g id="Grupo_129729" transform="translate(32.89 1.43)">
					<path id="Trazado_188249" class="st15" d="M16.9,33.5C22.5,33,26.5,28,26,22.5c0,0,0,0,0,0L24.5,7.9c-0.2-2.3-2.3-4-4.5-3.7
						c0,0,0,0,0,0L8.1,5.3c-2.3,0.2-4,2.3-3.7,4.5l1.4,14.6C6.4,30,11.3,34.1,16.9,33.5C16.9,33.5,16.9,33.5,16.9,33.5z"/>
					<path id="Trazado_188250" class="st15" d="M5.8,24.5l7.2-0.7L24.5,7.9c-0.4-1.9-1.3-3.7-2.7-5C16.6-2.2,4.3-0.3,0.9,6.5
						c-2.4,4.8,0.4,10.8,1.3,12.7C3.1,21.1,4.3,22.9,5.8,24.5z"/>
				</g>
				<path id="Trazado_188251" class="st15" d="M41.8,20.2c0.1,2.6-1.3,4.7-3,4.7s-3.2-2-3.3-4.6s1.3-4.7,3-4.7S41.7,17.7,41.8,20.2z
					"/>
				<path id="Trazado_188252" class="st10" d="M59.4,67.5H12.5c-3.8-1.2-8.7-0.8-12.5-2c1.9-4.4,4.6-8.4,7.9-11.9
					c8.5-8.5,19.4-9.3,22.5-9.4L49,44.8c6.2-1.6,12.8-0.8,18.5,2.3c7.6,4.4,13.5,14.8,13,18C74.1,67.4,65.7,65.1,59.4,67.5z"/>
				<path id="Rectángulo_82606" class="st10" d="M44,18.1h8.8c0.2,0,0.4,0.2,0.4,0.4v6.6c0,0.2-0.2,0.4-0.4,0.4H44
					c-0.2,0-0.4-0.2-0.4-0.4v-6.6C43.5,18.3,43.7,18.1,44,18.1z"/>
				<path id="Rectángulo_82607" class="st10" d="M55.1,18.1h8.8c0.2,0,0.4,0.2,0.4,0.4v6.6c0,0.2-0.2,0.4-0.4,0.4h-8.8
					c-0.2,0-0.4-0.2-0.4-0.4v-6.6C54.7,18.3,54.9,18.1,55.1,18.1z"/>
				<rect id="Rectángulo_82608" x="40.5" y="20.3" class="st12" width="4.7" height="1.7"/>
				<rect id="Rectángulo_82609" x="52.7" y="21.8" class="st12" width="3" height="0.7"/>
				<path id="Trazado_188253" class="st10" d="M42.5,46.2l-17-0.3c-0.9,0-1.7-0.1-2.6-0.1C22.8,25.4,27.8,9.1,36.2,3.4
					c2.7-1.8,5.7-2.9,8.9-3.3c4.3-0.4,11.7,0.5,14.5,5.8c0.9,1.8,1.2,3.8,1,5.8c-2.4-0.9-5.1-1.1-7.6-0.6
					c-7.3,1.8-10.2,10.5-11.4,13.9C38.5,34.3,41.2,42.7,42.5,46.2z"/>
			</g>
			<path id="Trazado_188254" class="st0" d="M104.9,12.7H6.5c-1.8,0-3.3,1.5-3.3,3.3v64.5c0,1.8,1.5,3.3,3.3,3.3h43.7v17.8h15.5
				V83.9h39.1c1.8,0,3.3-1.5,3.3-3.3c0,0,0,0,0,0V16C108.2,14.2,106.7,12.7,104.9,12.7C104.9,12.7,104.9,12.7,104.9,12.7z
				 M105.6,81.5H5.9V19c0-2.1,1.8-3.9,3.9-3.9c0,0,0,0,0,0h91.7c2.1,0,3.9,1.7,3.9,3.9L105.6,81.5z"/>
			<g id="Grupo_129731" transform="translate(0.677 12.4)">
				<path id="Trazado_188255" class="st12" d="M63.1,89.6H47V71.8H3.6c-2,0-3.6-1.6-3.6-3.6V3.6C0,1.6,1.6,0,3.6,0H102
					c2,0,3.6,1.6,3.6,3.6v64.5c0,2-1.6,3.6-3.6,3.6H63.1L63.1,89.6z M47.6,88.9h14.9V71.2H102c1.7,0,3-1.3,3-3V3.6c0-1.7-1.3-3-3-3
					H3.6c-1.7,0-3,1.3-3,3v64.5c0,1.7,1.3,3,3,3h44L47.6,88.9z M102.8,69.2L2.7,69.1V6.6c0-2.3,1.9-4.2,4.2-4.2h91.7
					c2.3,0,4.2,1.9,4.2,4.2L102.8,69.2z M3.3,68.6h98.9V6.6c0-2-1.6-3.6-3.6-3.6H6.9C5,3,3.4,4.6,3.3,6.6L3.3,68.6z"/>
			</g>
			<path id="Trazado_188256" class="st7" d="M153.6,103.5H1.9c-1,0-1.9-0.8-1.9-1.9c0-1,0.8-1.9,1.9-1.9h151.8c1,0,1.9,0.8,1.9,1.9
				C155.5,102.7,154.7,103.5,153.6,103.5z"/>
			<rect id="Rectángulo_82610" x="67.4" y="96.5" class="st12" width="36.9" height="3.3"/>
			<g id="Grupo_129741" transform="translate(77.99 51.159)">
				<path id="Trazado_188257" class="st15" d="M64,62.4c-4.1,3-24.7,4.5-23.9,1c0.1-0.5,0.2-0.9,0.3-1.4c0.9-2.7,2.8-4.9,5.2-6.4
					c-0.3-0.4-0.5-0.8-0.8-1.2c-1-1.5-1.9-3.1-2.5-4.8c-0.6-1.6-1.1-3.2-1.3-4.9c-0.2-1.1-0.3-2.1-0.3-3.2c-0.7-0.3-1.3-0.7-1.8-1.2
					c-0.5-0.7-0.8-1.5-1-2.4c0-0.2-0.1-0.4-0.1-0.7c0-1.3,0.2-2.6,0.8-3.8c0.1-0.1,0.2-0.2,0.3-0.3c0-0.1-0.1-0.1-0.1-0.2
					c-0.6-1.1,1.4-8.4,2.2-8.6c0.4-0.3,0.9-0.6,1.5-0.9c0.9-0.5,1.9-1,2.9-1.4c0.7,0.3,1.5,0.5,2.3,0.6c1.5,0.2,3-0.1,4.3-0.8
					c0.1,0.2,0.3,0.3,0.4,0.4c0.1,0.1,0.2,0.2,0.4,0.3c0.4,0.3,0.9,0.5,1.4,0.6c0,0,0.1,0,0.1,0.1c3.5,6.7,4,10.6,3.7,12.9
					c-0.3,2.4-0.4,4.7-0.4,7.1c0,0.3,0.1,1.3,0,2.7c0,0.9-0.1,1.8-0.1,2.6c0,0.1,0,0.1-0.1,0.2c-0.1,0.3-0.1,0.7-0.1,1.1
					c0,0.9,2.3,4.7,3,5.4c0.9,1.3,1.7,2.6,2.4,4c0,0.1,0.1,0.2,0.1,0.3c0.5,1,0.8,1.8,1.1,2.5C63.9,62.3,63.9,62.4,64,62.4z"/>
				<path id="Trazado_188258" class="st15" d="M44.4,15.3c0,0.1,0,0.1,0,0.2c0.2,0.9,0.3,2,0.5,3c0.1,0.8,0.2,1.6,0.3,2.4
					c0.1,0.9,0.2,1.9,0.2,2.7c1.2,0.3,2.4,0.2,3.6-0.1c1.1-0.3,2.1-0.8,2.9-1.6c-0.3-1.2-0.6-2.5-0.9-3.8c-0.1-0.5-0.2-0.9-0.4-1.3
					c-0.2-0.8-0.4-1.5-0.6-2.3c0-0.2-0.1-0.5-0.2-0.7c-0.1,0-0.2,0.1-0.4,0.1c-1.7,0.4-3.3,0.8-5,1.3C44.5,15.3,44.5,15.3,44.4,15.3
					z"/>
				<path id="Trazado_188259" class="st15" d="M43.6,1.7l2.1,17.4c-1.4,0-2.7-0.6-3.7-1.5c-1-0.9-1.7-2-2.1-3.3c0-0.1,0-0.1,0-0.2
					l-0.6-3.9c-0.2-1.3-0.4-2.6-0.6-3.9C39.1,4,41.1,2.1,43.6,1.7L43.6,1.7z"/>
				<path id="Trazado_188260" class="st15" d="M43.6,1.7l2.1,17.4c1.3-0.4,2.5-1.2,3.2-2.4c0.8-1.1,1.2-2.4,1.3-3.7
					c0-0.1,0-0.1,0-0.2c-0.1-1.3-0.2-2.6-0.3-3.9c-0.1-1.3-0.2-2.6-0.3-3.9C48.6,2.8,46.2,1.5,43.6,1.7L43.6,1.7z"/>
				<path id="Trazado_188261" class="st15" d="M57.4,49.5c-1.3,0.8-2.7,1.6-4.1,2.2c-2.7,1.3-5.6,2.2-8.5,2.7
					c-1-1.5-1.9-3.1-2.5-4.8c0.9-1.6,3.6-2.2,4.9-2.4C51.7,46.4,55.6,48.4,57.4,49.5z"/>
				<path id="Trazado_188262" class="st1" d="M25.5,65.5c-1.7-0.8-7-3.4-6.8-5.4c0.2-1.7,4.9-3.8,26.9-4.5l6.6-1.7l6.3-0.9
					c0.9,0.4,1.7,0.9,2.4,1.6c2.2,2,3.3,4.9,3.1,7.8c-0.4,3.3-2.5,6.1-5.5,7.3c-3.1,0.7-6.3,1-9.4,1c-3.3,0-7-1-14.4-2.5
					C30.3,67.4,28.1,66.8,25.5,65.5z"/>
				<path id="Trazado_188263" class="st15" d="M40.6,35.4V36c-0.1,0.1-0.2,0.2-0.2,0.3c-0.9,1.1-1.8,2.2-2.7,3.2
					c-1.4-1.5-2.8-3.1-4.2-4.6L40.6,35.4z"/>
				<path id="Trazado_188264" class="st7" d="M51.6,5.3c1.7,3.9,0.3,9.1-2.5,10.3c-4.4,2-13.5-5.3-12.2-10.6c0.7-2.8,4.4-5.4,8.2-5
					C49.6,0.6,51.4,4.9,51.6,5.3z"/>
				<g id="Grupo_129732" transform="translate(40.338 10.314)">
					<path id="Trazado_188265" class="st15" d="M2.4,1.8c0.1,1.1-0.3,2-1,2.1C0.8,4,0.1,3.2,0,2.1s0.3-2,1-2.1S2.3,0.7,2.4,1.8z"/>
				</g>
				<g id="Grupo_129734" transform="translate(0 58.017)">
					<path id="Trazado_188266" class="st1" d="M25.8,15.8c-0.5,5.2-2.1,8.4-5,15.6c-0.3,0.7-0.6,1.3-0.9,2.1c-0.9,2.2-2,5.1-3.2,8.6
						c-0.4,1.2-0.9,2.5-1.3,3.8c-0.1,0.3-0.2,0.7-0.4,1.1c-1.5-0.9-3-1.7-4.5-2.6c0-0.1,0.1-0.3,0.1-0.4c0.3-0.9,0.5-1.8,0.8-2.7
						c0.4-1.6,0.8-3.1,1.2-4.7c0.5-2.3,1-4.5,1.5-6.7c1.6-7.7,2.7-15.5,3.3-23.4c-0.3-1.6,0.2-3.2,1.2-4.4c1-1.2,2.6-2,4.2-2
						c0.8,1.9,1.6,3.8,2.4,5.7C25.9,9,26.1,12.4,25.8,15.8z"/>
					<g id="Grupo_129733" transform="translate(0 43.374)">
						<path id="Trazado_188267" class="st15" d="M15.5,6.6c-0.6,1.6-3.2,1.8-4.1,1.8c-0.6,0.3-9.3,0.2-9.2,0C1.8,8.2,1.5,8,1.2,7.7
							c0-0.1-1.1-1.1-1.2-1.5c0-0.3,0.2-0.6,0.4-0.8C0.7,5.1,1,5.2,1.7,5.3c0.3,0,0.7,0,1,0c1.2-0.5,2.3-1.1,3.5-1.6
							c1.4-1,2.9-2.1,4.4-3.1c0.3-0.2,0.5-0.3,0.7-0.5c1.3,0.3,2.5,0.5,3.8,0.8c0.1,0.4,0.2,1,0.2,1.6c0.1,0.5,0.1,1.1,0.2,1.8
							C15.7,5,15.7,5.8,15.5,6.6z"/>
					</g>
					<path id="Trazado_188268" class="st15" d="M20.8,31.4c-0.3,0.7-0.6,1.3-0.9,2.1c-0.4,1-0.9,2.2-1.4,3.5
						c-0.3,0.9-0.7,1.9-1.1,2.9c-0.2,0.7-0.5,1.4-0.8,2.1c-0.4,1.2-0.9,2.5-1.3,3.8c-0.1,0.3-0.2,0.7-0.4,1.1
						c-1.5-0.9-3-1.7-4.5-2.6c0-0.1,0.1-0.3,0.1-0.4c0.3-0.9,0.5-1.8,0.8-2.7c0.4-1.4,0.8-2.9,1.1-4.4c0-0.1,0.1-0.2,0.1-0.3
						c0.5-2.3,1-4.5,1.5-6.7C16.3,30.3,18.5,30.9,20.8,31.4z"/>
					<path id="Trazado_188269" class="st1" d="M15.6,47.6c0.2,0.8,0.1,1.7-0.1,2.5c-0.6,1.6-3.2,1.8-4.1,1.8c-0.6,0.3-9.3,0.2-9.2,0
						c-0.4-0.2-0.7-0.5-1.1-0.7C1.1,51,0.1,50,0,49.6c0-0.3,0.2-0.6,0.4-0.8c0.3-0.3,0.6-0.2,1.3-0.1c0.3,0,0.7,0,1,0
						c1.2-0.5,2.3-1.1,3.5-1.6c1.4-1,2.9-2.1,4.4-3.1c0.3-0.9,0.5-1.8,0.8-2.7c1.8,0.3,3.6,0.5,5.3,0.8c-0.4,1.2-0.9,2.5-1.3,3.8
						C15.5,46.3,15.5,46.9,15.6,47.6z"/>
					<path id="Trazado_188270" class="st7" d="M18.6,36.4V37c-0.3,0.9-0.7,1.9-1.1,2.9c-1.7-1-3.3-2.1-5-3.1
						C14.5,36.7,16.6,36.6,18.6,36.4z"/>
					<path id="Trazado_188271" class="st1" d="M22.2,38.3l-9.7-1.5l3.9-20.7l8.3,5.5L22.2,38.3z"/>
				</g>
				<g id="Grupo_129736" transform="translate(16.933 56.978)">
					<path id="Trazado_188272" class="st1" d="M31.7,16.2c-1.4,5-3.7,7.9-7.9,14.3c-0.4,0.6-0.8,1.2-1.2,1.9c-1.2,2-2.9,4.6-4.8,7.8
						c-0.7,1.1-1.3,2.3-2,3.5c-0.2,0.3-0.4,0.6-0.6,1c-1.3-1.1-2.6-2.2-4-3.4c0.1-0.1,0.1-0.3,0.2-0.4c0.4-0.8,0.9-1.7,1.3-2.5
						c0.7-1.4,1.4-2.9,2.1-4.4c1-2.1,1.9-4.2,2.7-6.3c3-7.3,5.6-14.7,7.7-22.3c0.1-1.6,0.8-3.1,2-4.1c1.3-1,2.9-1.4,4.5-1.2
						c0.4,2,0.8,4,1.3,6C33.1,9.5,32.7,12.9,31.7,16.2z"/>
					<g id="Grupo_129735" transform="translate(0 40.512)">
						<path id="Trazado_188273" class="st15" d="M15.2,7.3c-0.9,1.5-3.4,1.1-4.4,1c-0.7,0.2-9.1-1.6-9-1.7C1.4,6.3,1.1,6,0.9,5.6
							C0.9,5.6,0,4.4,0,4c0.1-0.3,0.3-0.6,0.5-0.7C0.9,3,1.1,3.2,1.9,3.3c0.3,0.1,0.7,0.1,1,0.2c1.2-0.3,2.5-0.6,3.7-0.9
							c1.6-0.7,3.3-1.5,4.9-2.2C11.8,0.2,12,0.1,12.3,0c1.2,0.5,2.4,1,3.6,1.5c0,0.4,0,1-0.1,1.7c0,0.5-0.1,1.1-0.2,1.8
							C15.7,5.7,15.5,6.6,15.2,7.3z"/>
					</g>
					<path id="Trazado_188274" class="st15" d="M23.9,30.5c-0.4,0.6-0.8,1.2-1.2,1.9c-0.6,0.9-1.3,2-2,3.2c-0.5,0.8-1,1.7-1.6,2.7
						c-0.4,0.6-0.8,1.3-1.1,1.9c-0.7,1.1-1.3,2.3-2,3.5c-0.2,0.3-0.4,0.6-0.6,1c-1.3-1.1-2.6-2.2-4-3.4c0.1-0.1,0.1-0.3,0.2-0.4
						c0.4-0.8,0.9-1.7,1.3-2.5c0.6-1.3,1.3-2.7,1.9-4.1c0.1-0.1,0.1-0.2,0.2-0.3c1-2.1,1.9-4.2,2.7-6.3
						C19.7,28.6,21.8,29.6,23.9,30.5z"/>
					<path id="Trazado_188275" class="st1" d="M15.7,45.4c0,0.8-0.2,1.7-0.5,2.4c-0.9,1.5-3.4,1.1-4.4,1c-0.7,0.2-9.1-1.6-9-1.7
						c-0.3-0.3-0.6-0.6-0.9-0.9c0-0.1-0.9-1.3-0.9-1.7c0.1-0.3,0.3-0.6,0.5-0.7c0.3-0.2,0.6-0.1,1.3,0.1c0.3,0.1,0.7,0.1,1,0.2
						c1.2-0.3,2.5-0.6,3.7-0.9c1.6-0.7,3.3-1.5,4.9-2.2c0.4-0.8,0.9-1.7,1.3-2.5c1.7,0.6,3.4,1.2,5.1,1.8c-0.7,1.1-1.3,2.3-2,3.5
						C15.8,44.2,15.8,44.8,15.7,45.4z"/>
					<path id="Trazado_188276" class="st7" d="M20.7,35.1l-0.1,0.5c-0.5,0.8-1,1.7-1.6,2.7c-1.4-1.3-2.9-2.7-4.3-4
						C16.7,34.5,18.7,34.8,20.7,35.1z"/>
					<path id="Trazado_188277" class="st1" d="M23.9,37.6l-9.2-3.3c2.6-6.5,5.1-13.1,7.7-19.6l7.1,7C27.6,27,25.8,32.3,23.9,37.6z"
						/>
				</g>
				<path id="Trazado_188278" class="st7" d="M61.2,72.5H35.3c-1.9,0-3.5-1.6-3.5-3.5l0,0c0-1.9,1.6-3.5,3.5-3.5h25.9
					c1.9,0,3.5,1.6,3.5,3.5C64.7,70.9,63.1,72.5,61.2,72.5C61.2,72.5,61.2,72.5,61.2,72.5z"/>
				<rect id="Rectángulo_82611" x="46.8" y="69.7" class="st7" width="2.8" height="38.9"/>
				<g id="Grupo_129738" transform="translate(31.213 95.442)">
					<g id="Grupo_129737" transform="translate(3.383)">
						<path id="Trazado_188279" class="st7" d="M2.5,16.2L0,16.1C0,15.1,0.5,6,7.6,1.8c1.8-1.1,3.9-1.7,6-1.8l0.2,2.5
							C12,2.6,10.3,3.1,8.8,4C2.9,7.4,2.5,15.3,2.5,16.2z"/>
					</g>
					<circle id="Elipse_4752" class="st7" cx="3.9" cy="15.7" r="3.9"/>
				</g>
				<g id="Grupo_129740" transform="translate(49.062 95.442)">
					<g id="Grupo_129739">
						<path id="Trazado_188280" class="st7" d="M11.2,16.2c0-0.9-0.4-8.8-6.3-12.2C3.4,3.1,1.7,2.6,0,2.5L0.2,0
							c2.1,0.1,4.1,0.8,6,1.8c7.1,4.1,7.5,13.3,7.6,14.3L11.2,16.2z"/>
					</g>
					<circle id="Elipse_4753" class="st7" cx="13.2" cy="15.7" r="3.9"/>
				</g>
				<path id="Trazado_188281" class="st14" d="M58.8,51.1c-3.9,0.9-7.8,1.8-11.8,2.6c-2,0.4-3.9,0.9-5.9,1.3C39.6,48,38,41,36.4,34
					c0-0.1,0-0.3,0.1-0.4c0.3-2.1,1.1-4.2,2.2-5.9c1.6-2.4,3.9-4.3,6.6-5.5c2.2-0.2,4.3-0.4,6.5-0.6c0.8,0.5,1.6,1.1,2.4,1.8
					c2.5,2.4,3.6,5.6,4.4,10.5C59.5,39.6,59.5,45.3,58.8,51.1z"/>
				<path id="Trazado_188282" class="st15" d="M8.9,40c2.1,1.5,4.1,2.9,5.9,4.1c6.3,4.4,9,5.9,12.5,6.2c0.8,0,1.3,0,1.6,0
					c0.6,0,2.5-0.7,2.8-2.3c0,0,0-0.1,0-0.2c0-0.1,0-0.2,0-0.3c0-0.8-0.4-1.5-0.9-2c-0.1,0-0.2-0.1-0.2-0.1c-2.6-1-5.2-2.1-7.8-3.1
					c-0.1,0-0.1,0-0.2,0c-4.1-1.7-8.3-3.3-12.5-5C9.7,38.1,9.3,39,8.9,40z"/>
				<path id="Trazado_188283" class="st15" d="M12.6,39.9l-7.3,5.8c-0.4,0.6-1.2,0.8-1.8,0.4c0,0,0,0,0,0c-0.4-0.5-0.3-1.3,0.3-1.7
					c0.8-1.3,1.7-2.5,2.6-3.6c1.1-1.3,2.4-2.5,3.7-3.5L12.6,39.9z"/>
				<path id="Trazado_188284" class="st5" d="M47.1,53.7c-2,0.4-3.9,0.9-5.9,1.3C39.6,48,38,41,36.4,34c0-0.1,0-0.3,0.1-0.4
					c2.7-1.6,5.5-3.1,8.2-4.7C45.5,37.1,46.3,45.4,47.1,53.7z"/>
				<path id="Trazado_188285" class="st15" d="M45.6,30.6c-0.4,0.7-1,1.3-1.8,1.5c-1,1.1-1.9,2.3-2.8,3.4c-0.1,0.1-0.2,0.3-0.4,0.4
					c-0.1,0.1-0.2,0.2-0.3,0.3c-0.1,0.1-0.2,0.3-0.3,0.4c-0.5,0.6-1,1.2-1.6,1.9c-0.3,0.3-0.6,0.7-0.8,1c-1.7,2.1-3.5,4.2-5.3,6.4
					c-0.1,0.1-0.2,0.2-0.3,0.3c-0.4,0.5-0.8,0.9-1.1,1.4c-0.1,0-0.2,0.1-0.3,0.1c-0.1,0-0.1,0-0.2,0c-1.6,0.4-3-1-3.3-1.5
					c-0.1-0.3-0.4-0.7-0.7-1.3c1.1-1.7,3-4.4,4.9-7.3c0.1-0.1,0.2-0.3,0.3-0.4c0.6-0.9,1.1-1.6,1.6-2.4c6.5-9.3,5.9-7.9,6.2-8.6
					c0.3-0.7,0.8-1.3,1.4-1.7c0.5-0.4,1.1-0.7,1.7-0.8c0.7,0.7,1.3,1.6,1.8,2.5C45.3,27.7,46.2,29.2,45.6,30.6z"/>
				<path id="Trazado_188286" class="st7" d="M40,36.7c-0.5,0.6-1,1.2-1.6,1.9c-1.1-1.9-2.2-3.7-3.4-5.6
					C36.8,34.2,38.4,35.5,40,36.7z"/>
				<path id="Trazado_188287" class="st5" d="M40.9,38.7l-6.3-6.2l6.1-8.8c1.6-1.5,3.8-1.9,5.3-1.1c2,1.1,2.9,4.7,0.8,7.5
					C44.8,32.9,42.9,35.8,40.9,38.7z"/>
				<path id="Trazado_188288" class="st7" d="M61.4,35c1.4,1.3,2.2,3.1,2.4,5c0.3,4.3-3.6,8.5-8.3,9.1c-4.7,0.4-9-2.4-10.4-6.9
					L42.9,6.9l8.7-1.7C54.9,15.2,58.2,25.1,61.4,35z"/>
				<path id="Trazado_188289" class="st7" d="M53,13.1c1.5,5.2,4.3,10,8.1,13.9c1.6,1.6,3.4,3.1,5.3,4.3c-2.9-0.5-5.7-1.6-8-3.4
					c-6.3-4.7-7.2-12-7.4-13.5L53,13.1z"/>
			</g>
			<g id="Grupo_129747" transform="translate(126.179 7.773)">
				<circle id="Elipse_4754" class="st2" cx="29.4" cy="29.4" r="24.4"/>
				<g id="Grupo_129746" transform="translate(16.034 9.978)">
					<g id="Grupo_129743" transform="translate(1.356)">
						<g id="Grupo_129742">
							<path id="Trazado_188290" class="st5" d="M12,0C5.4,0,0,6.3,0,14c0,0.5,0,1,0.1,1.4C0.6,21.9,4.9,27,10.3,27.9v-1.6
								c-0.4-0.6-0.7-1.3-0.7-2.1c-0.5-0.2-1-0.4-1.4-0.7c-2.8-1.9-4.6-4.9-4.8-8.3c0-0.4-0.1-0.8-0.1-1.3C3.4,8.2,7.2,3.4,12,3.4
								s8.6,4.8,8.6,10.6c0,0.4,0,0.8-0.1,1.3c-0.4,4.3-2.9,7.8-6.2,9c0,0.8-0.3,1.5-0.7,2.1v1.5c0.7-0.1,1.4-0.3,2-0.5
								c4.4-1.7,7.7-6.3,8.2-11.9c0-0.5,0.1-0.9,0.1-1.4C23.9,6.3,18.6,0,12,0z"/>
						</g>
					</g>
					<g id="Grupo_129745" transform="translate(1.356)">
						<g id="Grupo_129744">
							<path id="Trazado_188291" class="st5" d="M12,0C5.4,0,0,6.3,0,14c0,0.5,0,1,0.1,1.4C0.6,21.9,4.9,27,10.3,27.9v-1.6
								c-0.4-0.6-0.7-1.3-0.7-2.1c-0.5-0.2-1-0.4-1.4-0.7c-2.8-1.9-4.6-4.9-4.8-8.3c0-0.4-0.1-0.8-0.1-1.3C3.4,8.2,7.2,3.4,12,3.4
								s8.6,4.8,8.6,10.6c0,0.4,0,0.8-0.1,1.3c-0.4,4.3-2.9,7.8-6.2,9c0,0.8-0.3,1.5-0.7,2.1v1.5c0.7-0.1,1.4-0.3,2-0.5
								c4.4-1.7,7.7-6.3,8.2-11.9c0-0.5,0.1-0.9,0.1-1.4C23.9,6.3,18.6,0,12,0z"/>
						</g>
					</g>
					<path id="Trazado_188292" class="st5" d="M25.2,15.4c-0.3-0.1-0.6-0.2-0.8-0.2H2.3c-0.3,0-0.6,0.1-0.8,0.2
						C0.6,15.8,0,16.6,0,17.5v7.9c0,3.5,1.4,6.9,3.9,9.4c2.5,2.5,5.9,3.9,9.4,3.9c7.4,0,13.3-6,13.3-13.3v-7.9
						C26.6,16.6,26.1,15.8,25.2,15.4z M15,32h-3.3v-5.6C11.2,25.7,11,25,11,24.3c0-0.1,0-0.1,0-0.2c0-1.8,1-3.2,2.3-3.2
						s2.3,1.4,2.3,3.2c0,0.1,0,0.1,0,0.2c0,0.8-0.3,1.5-0.7,2.1L15,32z"/>
				</g>
			</g>
			<g id="Grupo_129748" transform="translate(15.091 103.235)">
				<path id="Trazado_188293" class="st6" d="M58.4,0.6H0.3C0.1,0.6,0,0.5,0,0.3c0,0,0,0,0,0C0,0.1,0.1,0,0.3,0c0,0,0,0,0,0h58.1
					c0.2,0,0.3,0.1,0.3,0.3c0,0,0,0,0,0C58.7,0.5,58.5,0.6,58.4,0.6L58.4,0.6z"/>
			</g>
			<g id="Grupo_129749" transform="translate(84.657)">
				<path id="Trazado_188294" class="st14" d="M40.5,0H4.8C3.3,0,2.1,1.2,2.1,2.7c0,0,0,0,0,0v24.7L0,34.3c0.1,0.2,0.2,0.3,0.3,0.5
					c0.5,0.2,1,0,1.3-0.4l11.8-7h27c1.5,0,2.7-1.2,2.7-2.7c0,0,0,0,0,0v-22C43.2,1.2,42,0,40.5,0z"/>
				<path id="Trazado_188295" class="st6" d="M36.9,7H8.5C8.2,7,7.9,6.7,7.9,6.4c0-0.3,0.3-0.6,0.6-0.6h28.4c0.3,0,0.6,0.3,0.6,0.6
					C37.5,6.7,37.2,7,36.9,7z"/>
				<path id="Trazado_188296" class="st6" d="M36.9,9.7H8.5c-0.3,0-0.6-0.3-0.6-0.6c0-0.3,0.3-0.6,0.6-0.6h28.4
					c0.3,0,0.6,0.3,0.6,0.6C37.5,9.5,37.2,9.7,36.9,9.7z"/>
				<path id="Rectángulo_82612" class="st6" d="M8.1,15.5h9.4c0.1,0,0.1,0.1,0.1,0.1v0.9c0,0.1-0.1,0.1-0.1,0.1H8.1
					c-0.1,0-0.1-0.1-0.1-0.1v-0.9C7.9,15.6,8,15.5,8.1,15.5z"/>
				<path id="Rectángulo_82613" class="st6" d="M18.3,15.5h5.6c0.1,0,0.1,0,0.1,0.1v0.9c0,0.1,0,0.1-0.1,0.1h-5.6
					c-0.1,0-0.1,0-0.1-0.1v-0.9C18.2,15.6,18.2,15.5,18.3,15.5z"/>
				<path id="Rectángulo_82614" class="st6" d="M24.6,15.5h12.8c0.1,0,0.2,0.1,0.2,0.2v0.8c0,0.1-0.1,0.2-0.2,0.2H24.6
					c-0.1,0-0.2-0.1-0.2-0.2v-0.8C24.4,15.6,24.5,15.5,24.6,15.5z"/>
				<path id="Rectángulo_82615" class="st6" d="M8.1,11.4h15c0.1,0,0.2,0.1,0.2,0.2v0.8c0,0.1-0.1,0.2-0.2,0.2h-15
					c-0.1,0-0.2-0.1-0.2-0.2v-0.8C7.9,11.4,8,11.4,8.1,11.4z"/>
				<path id="Rectángulo_82616" class="st6" d="M24.6,11.4h12.8c0.1,0,0.2,0.1,0.2,0.2v0.8c0,0.1-0.1,0.2-0.2,0.2H24.6
					c-0.1,0-0.2-0.1-0.2-0.2v-0.8C24.4,11.4,24.5,11.4,24.6,11.4z"/>
				<path id="Rectángulo_82617" class="st6" d="M8.1,18h15c0.1,0,0.2,0.1,0.2,0.2V19c0,0.1-0.1,0.2-0.2,0.2h-15
					c-0.1,0-0.2-0.1-0.2-0.2v-0.8C7.9,18.1,8,18,8.1,18z"/>
				<path id="Rectángulo_82618" class="st6" d="M24.6,18h12.8c0.1,0,0.2,0.1,0.2,0.2V19c0,0.1-0.1,0.2-0.2,0.2H24.6
					c-0.1,0-0.2-0.1-0.2-0.2v-0.8C24.4,18.1,24.5,18,24.6,18z"/>
			</g>
		</g>
	</g>
	<g id="Grupo_134800" transform="translate(460.934 2645)">
		<ellipse id="Elipse_1195-4" class="st18" cx="28.2" cy="29" rx="28.2" ry="29"/>
		<ellipse id="Elipse_4814-4" class="st2" cx="28.2" cy="29" rx="21.3" ry="22.2"/>
	</g>
	<g id="Grupo_134801" transform="translate(461.096 3041.738)">
		<ellipse id="Elipse_1195-5" class="st18" cx="28.2" cy="29" rx="28.2" ry="29"/>
		<ellipse id="Elipse_4814-5" class="st2" cx="28.2" cy="29" rx="21.3" ry="22.2"/>
	</g>
	<g id="Grupo_134802" transform="translate(535.808 2645)">
		<g id="_1-2">
			<g id="Grupo_129696">
				<g id="Grupo_129694" transform="translate(7.675)">
					<path id="Rectángulo_82593" class="st0" d="M2.6,5.9h87.1c1.4,0,2.6,1.2,2.6,2.6v150.3c0,1.4-1.2,2.6-2.6,2.6H2.6
						c-1.4,0-2.6-1.2-2.6-2.6V8.5C0,7.1,1.2,5.9,2.6,5.9z"/>
					<g id="Grupo_129678" transform="translate(83.816 32.822)">
						<g id="Grupo_129677">
							<path id="Trazado_188136" class="st10" d="M43.6,82.1l-8,4l-1.3-0.9c-0.5-0.4-1.1-0.8-1.6-1.2c-0.8-0.6-1.6-1.2-2.5-1.8
								l-3.2-2.4c-3.1-2.3-6.2-4.6-9.2-6.8c-0.8-0.6-1.7-1.3-2.5-1.9V49.9c0.3,0.2,0.6,0.4,0.8,0.7c0.6,0.5,1.1,0.9,1.7,1.4
								c0.9,0.7,1.8,1.5,2.6,2.3c0.2,0.1,0.3,0.3,0.5,0.4c1.1,1,2.1,1.9,3.1,3c3.4,3.2,6.6,6.7,9.5,10.3c1.1,1.4,2.2,2.8,3.2,4.1
								c0.3,0.4,0.6,0.8,0.9,1.2c0.5,0.7,1.1,1.4,1.6,2.2c0.9,1.2,1.6,2.3,2.4,3.5c0.5,0.6,1,1.3,1.3,2
								C43.3,81.2,43.5,81.6,43.6,82.1z"/>
							<path id="Trazado_188137" class="st10" d="M1.6,38.9v10.8c-0.8-2.2-1.3-4.4-1.6-6.6c0.2-0.5,0.4-1,0.6-1.5
								C0.9,40.7,1.3,39.8,1.6,38.9z"/>
							<path id="Trazado_188138" class="st10" d="M41.6,14.5c-2.9,4-5.5,8.1-7.9,12.3c-1.4,2.6-2.7,5-3.8,7.4
								c-1.1,4.2-2.3,8.5-3.4,12.7c-0.4,1.5-0.8,3-1.2,4.4c-1,0.8-2.1,1.7-3.3,2.5c-0.3,0.2-0.7,0.5-1,0.7c-1,0.7-2.1,1.4-3.1,2.1
								c-0.8,0.5-1.6,1-2.3,1.4c-0.1,0-0.1,0.1-0.2,0.1V1.9c0.6-0.1,1.1-0.2,1.7-0.4c0.3-0.1,0.5-0.1,0.8-0.2c1.4-0.3,2.7-0.6,4-0.9
								c0.6-0.1,1.1-0.3,1.6-0.4c1.2,1.3,6.9,3.1,8.6,2.8c1.4,1.6,2.8,3.3,4.2,5C38.1,10.1,39.9,12.3,41.6,14.5z"/>
							<g id="Grupo_129676" transform="translate(34.155 82.059)">
								<path id="Trazado_188139" class="st10" d="M3.1,48.9l5.5,0.5c0.3-1.9,0.9-5,1.5-8.8c1.9-12,2.8-18.1,2.3-24.8
									c-0.3-4.1-1.1-8.2-2.3-12.1C9.9,2.4,9.7,1.2,9.5,0L0,1.6c0.2,1.6,0.5,3.2,0.7,4.9c0,2.7,0,5,0,6.7c0.1,5,0.4,7.8,0.5,8.6
									c0.1,1,0.2,1.7,0.3,2.2C2.2,28.3,2.9,35.6,3.1,48.9z"/>
								<g id="Grupo_129675" transform="translate(1.439 41.169)">
									<g id="Grupo_129674">
										<g id="Grupo_129673">
											<path id="Trazado_188140" class="st10" d="M0,8.5c0,0.2,0.1,0.4,0.1,0.7c0.3,0.8,0.7,1.6,1.3,2.2
												C7.2,11.7,13,12,18.7,12.3c1.5,0,2.7-1,3.2-2.3c0-0.1,0.1-0.2,0.1-0.3c0.1-0.9-0.2-1.8-0.8-2.4c-0.5-0.2-1-0.5-1.5-0.7
												C19.3,6.3,19,6.2,18.7,6c-2.4-1.2-4.9-2.3-7.4-3.4c-0.1-0.2-0.2-0.4-0.2-0.6c-0.1-0.5,0-1,0.2-1.4
												c-0.4,0.2-0.8,0.4-1.2,0.3C9.1,0.8,8.7-0.1,8.3,0C8,0.1,7.8,0.8,7.9,3.3C6.7,2.9,5.5,2.9,4.3,3.1c-1.5,0.2-2.8,1-3.7,2.2
												C0.3,6,0.1,6.8,0,7.5C0,7.9,0,8.2,0,8.5z"/>
											<path id="Trazado_188141" class="st10" d="M0,8.5c0,0.2,0.1,0.4,0.1,0.7c0.2,0.8,0.7,1.6,1.3,2.2
												C7.2,11.7,13,12,18.7,12.3c1.5,0,2.7-1,3.2-2.3c0.2-0.5,0.3-1.1,0.1-1.2c-0.4-0.3-1.4,0.8-2.5,1.4
												c-2.2,1.2-4.5,0.2-6.9-0.3C9.6,9.1,6.4,9.1,3.4,9.6C2.3,8.9,1.1,8.2,0,7.5C0,7.9,0,8.2,0,8.5z"/>
										</g>
									</g>
								</g>
							</g>
						</g>
						<path id="Trazado_188142" class="st10" d="M44.2,122.6c-2.4,0.7-4.7,1.5-7.1,2.2c-1.2-12.8-2.3-25.6-3.5-38.4
							c-5.3-4.1-10.5-8.3-15.8-12.5l-2.5-2V59.3l0.4-0.4l2.1-2c0.9-0.9,1.8-1.8,2.7-2.6c0.3-0.3,0.6-0.6,0.9-0.9
							c0.2,0.2,0.4,0.4,0.6,0.6c0.9,1,1.9,2.1,2.8,3.1C31,64,37.2,71,43.3,77.9c1.5,4.5,2.6,9.2,3.2,13.9
							C47.9,102.1,47.1,112.6,44.2,122.6z"/>
					</g>
					<path id="Trazado_188143" class="st10" d="M125.4,47.3c-5.6,14.2-11.2,28.4-16.8,42.6c-0.2,0.1-0.4,0.3-0.6,0.6
						c-1.4,1.1-3,1.7-4.7,1.9c-0.5,0.1-1,0.1-1.6,0c-0.7,0-1.4-0.2-2-0.4c0-0.1-0.1-0.2-0.1-0.4c-0.1-0.2-0.1-0.4-0.2-0.6
						c-0.1-0.2-0.1-0.4-0.2-0.5v-56c0.8-0.2,1.7-0.4,2.5-0.6c1.3-0.3,2.5-0.6,3.8-0.9l0.2,0.1c1.6,1.2,3.5,2,5.4,2.4
						c1.6,0.3,3.2,0.3,4.8,0C119,39.5,122.2,43.4,125.4,47.3z"/>
					<g id="Grupo_129687" transform="translate(3.922)">
						<g id="Grupo_129680">
							<g id="Grupo_129679">
								<path id="Trazado_188144" class="st1" d="M89.9,0h-82C3.5,0,0,3.5,0,7.9v150.7c0,4.3,3.5,7.9,7.9,7.9h82
									c4.3,0,7.9-3.5,7.9-7.9V7.9C97.7,3.5,94.2,0,89.9,0z M95.2,158.6c0,3-2.4,5.4-5.4,5.4h-82c-3,0-5.4-2.4-5.4-5.4V7.9
									c0-3,2.4-5.4,5.4-5.4h82c3,0,5.4,2.4,5.4,5.4V158.6z"/>
							</g>
						</g>
						<g id="Grupo_129685" transform="translate(16.215 26.423)">
							<g id="Grupo_129682" transform="translate(3.326)">
								<g id="Grupo_129681">
									<path id="Trazado_188145" class="st2" d="M29.3,0C13.2,0,0,15.4,0,34.4c0,1.2,0.1,2.3,0.1,3.5c1.5,16.8,13.2,30,27.8,30.9
										c0.5,0,0.9,0,1.4,0c0.5,0,1,0,1.5,0c0.3,0,0.6-0.1,0.8-0.1c2.3-0.2,4.5-0.7,6.6-1.5c10.9-4.1,19-15.5,20.2-29.2
										c0.1-1.1,0.1-2.3,0.1-3.5C58.7,15.4,45.5,0,29.3,0z M30.9,60.4c-0.5,0.1-1,0.1-1.5,0.1c-0.5,0-1,0-1.4-0.1
										c-0.4,0-0.9-0.1-1.3-0.2c-2.3-0.4-4.5-1.2-6.5-2.4C13.9,54,9.3,46.4,8.5,37.5c-0.1-1-0.2-2.1-0.2-3.1
										c0-14.4,9.4-26.1,21-26.1c11.6,0,21,11.7,21,26.1c0,1-0.1,2.1-0.2,3.1C49,49.8,40.9,59.5,30.9,60.4L30.9,60.4z"/>
								</g>
							</g>
							<g id="Grupo_129684" transform="translate(3.326)">
								<g id="Grupo_129683">
									<path id="Trazado_188146" class="st2" d="M29.3,0C13.2,0,0,15.4,0,34.4c0,1.2,0.1,2.3,0.1,3.5c1.5,16.8,13.2,30,27.8,30.9
										c0.5,0,0.9,0,1.4,0c0.5,0,1,0,1.5,0c0.3,0,0.6-0.1,0.8-0.1c2.3-0.2,4.5-0.7,6.6-1.5c10.9-4.1,19-15.5,20.2-29.2
										c0.1-1.1,0.1-2.3,0.1-3.5C58.7,15.4,45.5,0,29.3,0z M30.9,60.4c-0.5,0.1-1,0.1-1.5,0.1c-0.5,0-1,0-1.4-0.1
										c-0.4,0-0.9-0.1-1.3-0.2c-2.3-0.4-4.5-1.2-6.5-2.4C13.9,54,9.3,46.4,8.5,37.5c-0.1-1-0.2-2.1-0.2-3.1
										c0-14.4,9.4-26.1,21-26.1c11.6,0,21,11.7,21,26.1c0,1-0.1,2.1-0.2,3.1C49,49.8,40.9,59.5,30.9,60.4L30.9,60.4z"/>
								</g>
							</g>
							<path id="Trazado_188147" class="st2" d="M65.3,43v46.5c0,3-2.5,5.5-5.5,5.5c0,0,0,0,0,0H5.5c-3,0-5.5-2.5-5.5-5.5
								c0,0,0,0,0,0V43c0-2.3,1.4-4.3,3.5-5.1c0.7-0.3,1.4-0.4,2.1-0.4h54.3c0.7,0,1.4,0.1,2.1,0.4C63.9,38.7,65.3,40.7,65.3,43z"/>
						</g>
						<g id="Grupo_129686" transform="translate(18.289 139.443)">
							<path id="Trazado_188148" class="st1" d="M4.3,2.2c0,1.2-1,2.1-2.1,2.1c0,0,0,0,0,0C1,4.3,0,3.4,0,2.2c0,0,0,0,0,0
								C0,1,1,0,2.1,0C3.3,0,4.3,1,4.3,2.2C4.3,2.2,4.3,2.2,4.3,2.2z"/>
							<path id="Trazado_188149" class="st1" d="M15.3,2.2c0,1.2-1,2.1-2.1,2.1c0,0,0,0,0,0c-1.2,0-2.1-1-2.1-2.1c0,0,0,0,0,0
								C11,1,12,0,13.2,0c0,0,0,0,0,0C14.4,0,15.3,1,15.3,2.2C15.3,2.2,15.3,2.2,15.3,2.2z"/>
							<path id="Trazado_188150" class="st1" d="M27.5,2.2c0,1.2-1,2.1-2.1,2.1c0,0,0,0,0,0c-1.2,0-2.1-1-2.1-2.1c0,0,0,0,0,0
								c0-1.2,1-2.2,2.1-2.2C26.5,0,27.5,1,27.5,2.2C27.5,2.2,27.5,2.2,27.5,2.2z"/>
							<path id="Trazado_188151" class="st1" d="M38.5,2.2c0,1.2-1,2.1-2.1,2.1c0,0,0,0,0,0c-1.2,0-2.1-1-2.1-2.1c0,0,0,0,0,0
								c0-1.2,1-2.2,2.1-2.2C37.6,0,38.5,1,38.5,2.2C38.5,2.2,38.5,2.2,38.5,2.2z"/>
							<path id="Trazado_188152" class="st1" d="M50.1,2.2c0,1.2-1,2.1-2.1,2.1c0,0,0,0,0,0c-1.2,0-2.2-0.9-2.2-2.1c0,0,0,0,0,0
								C45.8,1,46.8,0,48,0c0,0,0,0,0,0C49.2,0,50.1,1,50.1,2.2z"/>
							<path id="Trazado_188153" class="st1" d="M61.2,2.2c0,1.2-1,2.1-2.1,2.1c0,0,0,0,0,0c-1.2,0-2.1-0.9-2.1-2.1c0,0,0,0,0,0
								C56.9,1,57.8,0,59,0c0,0,0,0,0,0C60.2,0,61.2,1,61.2,2.2C61.2,2.2,61.2,2.2,61.2,2.2z"/>
						</g>
					</g>
					<path id="Trazado_188154" class="st8" d="M105.5,36c-0.9,0.4-1.8,0.9-2.7,1.3c-2.7-2.5-5-5.4-6.8-8.7c-2.1-4-3.4-8.4-3.7-13
						c0.9-2.5,3.2-4.3,5.8-4.6c3.4-0.2,7,2.7,7.4,7L105.5,36z"/>
					<g id="Grupo_129689" transform="translate(94.198 9.73)">
						<path id="Trazado_188155" class="st15" d="M20,22.7l-8.8,3.2C10.6,25,9.9,24,9.3,23.1c-0.3-0.7-0.6-1.3-1-2
							c-0.9-1.8-1.7-3.5-2.6-5.3c2.3-1.4,4.5-2.9,6.8-4.3c0.1-0.1,0.2-0.1,0.3-0.2C15.2,15.1,17.6,18.9,20,22.7z"/>
						<path id="Trazado_188156" class="st19" d="M11.7,16c-0.5,0.7-1.1,0.8-1.8,1.8c-0.8,1-1.3,2.1-1.6,3.3
							c-0.9-1.8-1.7-3.5-2.6-5.3c1.2-0.6,2.4-1.3,3.4-2.1c1.1-0.9,2.1-2,2.9-3.2C12.9,13.5,12.4,15.1,11.7,16z"/>
						<g id="Grupo_129688">
							<path id="Trazado_188157" class="st15" d="M7.9,18.8c-3.1,0.5-6-1.5-6.5-4.6L0,6.2C-0.2,5,0.7,3.8,1.9,3.6l6.5-1.1
								c1.3-0.2,2.4,0.6,2.7,1.9l1.4,8C13,15.3,11,18.2,7.9,18.8z"/>
							<path id="Trazado_188158" class="st15" d="M12.5,12.3l-4,0.7C5.7,10.7,2.9,8.5,0,6.2C0,5.1,0.2,4.1,0.7,3.1
								c2.1-3.5,8.9-4.3,11.7-1.2c2,2.2,1.4,5.8,1.2,6.9C13.4,10.1,13.1,11.2,12.5,12.3z"/>
						</g>
						<path id="Trazado_188159" class="st15" d="M10,9.7c0.3,1.4,1.4,2.3,2.3,2.1s1.4-1.5,1.1-2.9S12,6.6,11.1,6.8S9.7,8.3,10,9.7z"
							/>
					</g>
					<path id="Trazado_188160" class="st10" d="M117.1,37.2c-1.8-0.3-3.5-0.6-5.3-0.7c-2.2-0.2-4.3-0.2-6.5-0.1
						c-0.1-3.6-1.2-7.1-3-10.2c-3.8-6.3-7-8.9-7-8.9c-1.1-0.9-1.8-1.4-2-2.4c-0.5-2.3,2.3-5.2,4.8-6.2c3.7-1.5,8.5,0.3,12.4,4.3
						C112.7,21.1,114.9,29.2,117.1,37.2z"/>
					<path id="Trazado_188161" class="st15" d="M123.5,78c1.7,3.1,4.6,4.1,6.1,3.2c1.1-0.7,1.4-2.3,1.4-2.8c0-1.8-0.1-3.6-0.1-5.4
						c-0.2-5.3-0.7-9.9-1.1-13.6c-0.9-6.8-1.7-10-4.3-11.9c-0.8-0.6-1.7-1.1-2.7-1.3l-5.4,14.1C119.4,66.2,121.5,72.1,123.5,78z"/>
					<path id="Trazado_188162" class="st15" d="M98.4,87.7c-0.7-1.4-1.3-2.9-2-4.3c4.6-1.9,11.3-4.5,19-7.3c2.2-0.7,4.4-0.9,6.7-0.6
						c1.6,0.1,3.2,0.8,4.4,2c0.8,0.9,1.4,2,1.6,3.2c-0.7,0.7-1.5,1.4-2.4,1.9c-0.8,0.6-1.7,1.1-2.7,1.5L98.4,87.7z"/>
					<path id="Trazado_188163" class="st10" d="M131.6,76.9c0.2,1.4,0,2.8-0.6,4c-1.7,3.3-6.2,4-10.9,4.7c-7.8,1.1-14.4,2-19.7,2.6
						L98,82.3l21.9-8.5L116.9,62l0.2-24.8c5.1,3.9,9.1,8.9,11.8,14.7C132.5,59.8,133.4,68.5,131.6,76.9z"/>
					<path id="Trazado_188164" class="st10" d="M99.1,87.6c-0.1,1-0.6,2-1.4,2.6c-0.5,0.3-1.1,0.5-1.6,0.7c-1,0.6-1.7,1.6-2,2.8
						c-1,0.1-2.1,0.1-3.1-0.2c-1.9-0.6-3.6-1.9-4.6-3.7c1.7-2,3.8-3.7,6.2-4.9c1.3-0.6,2.6-1.2,3.9-1.5L99.1,87.6z"/>
					<g id="Grupo_129692" transform="translate(101.349 75.801)">
						<path id="Trazado_188165" class="st6" d="M0.3,5.4C0.2,5.4,0.1,5.3,0,5.2C0,5.1,0,4.9,0.2,4.8L12.6,0C12.8,0,12.9,0,13,0.2
							c0.1,0.2,0,0.3-0.2,0.4L0.4,5.4C0.4,5.4,0.3,5.4,0.3,5.4z"/>
					</g>
					<g id="Grupo_129693" transform="translate(101.599 86.781)">
						<path id="Trazado_188166" class="st6" d="M0.3,1.6C0.2,1.6,0,1.4,0,1.3C0,1.1,0.1,1,0.3,1c0,0,0,0,0,0l7.5-1
							C8,0,8.1,0.1,8.2,0.3c0,0,0,0,0,0c0,0.2-0.1,0.3-0.3,0.3L0.3,1.6L0.3,1.6z"/>
					</g>
				</g>
				<circle id="Elipse_4747" class="st5" cx="18.4" cy="23.8" r="18.4"/>
				<g id="Grupo_129695" transform="translate(8.739 14.898)">
					<path id="Trazado_188167" class="st1" d="M9.7,5.3c-2.5,0-4.9,0.7-7,2.1C2.6,7.5,2.5,7.5,2.5,7.6l1.2,1.9
						c0.1-0.1,0.2-0.1,0.2-0.2c1.7-1.2,3.7-1.8,5.8-1.8c2.1,0,4.1,0.6,5.8,1.8c0.1,0,0.2,0.1,0.2,0.2l1.2-1.9
						c-0.1-0.1-0.2-0.1-0.2-0.2C14.6,6.1,12.2,5.3,9.7,5.3z"/>
					<path id="Trazado_188168" class="st1" d="M11.2,10.9c-0.1-0.1-0.1-0.1-0.2-0.2c-0.4-0.2-0.8-0.3-1.3-0.3
						c-0.4,0-0.9,0.1-1.3,0.3c-0.1,0-0.2,0.1-0.2,0.1c-0.7,0.5-1.1,1.3-1.1,2.1c0,1.4,1.1,2.6,2.6,2.6c0,0,0,0,0,0
						c1.4,0,2.6-1.2,2.6-2.6c0,0,0,0,0,0C12.3,12.2,11.9,11.4,11.2,10.9z"/>
					<path id="Trazado_188169" class="st1" d="M19.1,3.6C16.5,1.3,13.2,0,9.7,0C6.2,0,2.8,1.3,0.2,3.6C0.1,3.6,0.1,3.7,0,3.8
						l1.2,1.9c0.1-0.1,0.1-0.1,0.2-0.2c2.2-2.1,5.2-3.3,8.2-3.3c3.1,0,6,1.2,8.2,3.3l0.2,0.2l1.2-1.9C19.3,3.7,19.2,3.6,19.1,3.6z"
						/>
				</g>
			</g>
		</g>
		<g id="Grupo_129697" transform="translate(51.713 78.132)">
			<circle id="Elipse_4748" class="st0" cx="8.8" cy="8.8" r="8.8"/>
			<rect id="Rectángulo_82598" x="6" y="7.7" class="st0" width="5.5" height="17.4"/>
		</g>
	</g>
	<rect id="Rectángulo_85121" x="810" y="2675" class="st5" width="400" height="56"/>
	<g class="st20">
		<path class="st10" d="M881.2,2706v5h-2.9v-14.2h5.5c1.1,0,2,0.2,2.8,0.6s1.4,0.9,1.9,1.7s0.7,1.5,0.7,2.5c0,1.4-0.5,2.5-1.4,3.3
			s-2.3,1.2-4,1.2H881.2z M881.2,2703.6h2.6c0.8,0,1.4-0.2,1.8-0.5s0.6-0.9,0.6-1.6c0-0.7-0.2-1.3-0.6-1.7s-1-0.7-1.7-0.7h-2.7
			V2703.6z"/>
		<path class="st10" d="M896.9,2703.1c-0.4-0.1-0.7-0.1-1-0.1c-1.1,0-1.8,0.4-2.1,1.1v6.9H891v-10.6h2.7l0.1,1.3
			c0.6-1,1.4-1.5,2.4-1.5c0.3,0,0.6,0,0.9,0.1L896.9,2703.1z"/>
		<path class="st10" d="M897.5,2705.6c0-1,0.2-2,0.6-2.8s1-1.5,1.7-1.9s1.6-0.7,2.6-0.7c1.4,0,2.6,0.4,3.5,1.3s1.4,2.1,1.5,3.6
			l0,0.7c0,1.6-0.5,2.9-1.4,3.9s-2.1,1.5-3.6,1.5s-2.7-0.5-3.6-1.5s-1.4-2.3-1.4-4V2705.6z M900.3,2705.8c0,1,0.2,1.8,0.6,2.3
			s0.9,0.8,1.6,0.8c0.7,0,1.2-0.3,1.6-0.8c0.4-0.5,0.6-1.4,0.6-2.5c0-1-0.2-1.7-0.6-2.3s-0.9-0.8-1.6-0.8c-0.7,0-1.2,0.3-1.6,0.8
			S900.3,2704.7,900.3,2705.8z"/>
		<path class="st10" d="M918.7,2705.8c0,1.6-0.4,2.9-1.1,3.9s-1.7,1.5-3,1.5c-1.1,0-1.9-0.4-2.6-1.1v5h-2.8v-14.6h2.6l0.1,1
			c0.7-0.8,1.6-1.2,2.7-1.2c1.3,0,2.3,0.5,3,1.4s1.1,2.3,1.1,4V2705.8z M915.9,2705.6c0-1-0.2-1.7-0.5-2.3c-0.3-0.5-0.9-0.8-1.5-0.8
			c-0.9,0-1.5,0.3-1.8,1v4.3c0.3,0.7,1,1,1.8,1C915.3,2708.9,915.9,2707.8,915.9,2705.6z"/>
		<path class="st10" d="M920.1,2705.6c0-1,0.2-2,0.6-2.8s1-1.5,1.7-1.9s1.6-0.7,2.6-0.7c1.4,0,2.6,0.4,3.5,1.3s1.4,2.1,1.5,3.6
			l0,0.7c0,1.6-0.5,2.9-1.4,3.9s-2.1,1.5-3.6,1.5s-2.7-0.5-3.6-1.5s-1.4-2.3-1.4-4V2705.6z M922.9,2705.8c0,1,0.2,1.8,0.6,2.3
			s0.9,0.8,1.6,0.8c0.7,0,1.2-0.3,1.6-0.8c0.4-0.5,0.6-1.4,0.6-2.5c0-1-0.2-1.7-0.6-2.3s-0.9-0.8-1.6-0.8c-0.7,0-1.2,0.3-1.6,0.8
			S922.9,2704.7,922.9,2705.8z M925.6,2696h3.1l-2.7,3h-2.3L925.6,2696z"/>
		<path class="st10" d="M937.5,2708.1c0-0.3-0.2-0.6-0.5-0.8s-0.9-0.4-1.6-0.5c-2.5-0.5-3.8-1.6-3.8-3.2c0-0.9,0.4-1.7,1.2-2.3
			s1.8-0.9,3.1-0.9c1.3,0,2.4,0.3,3.2,0.9s1.2,1.5,1.2,2.5h-2.8c0-0.4-0.1-0.7-0.4-1s-0.7-0.4-1.2-0.4c-0.5,0-0.8,0.1-1.1,0.3
			s-0.4,0.5-0.4,0.8c0,0.3,0.1,0.6,0.4,0.8s0.8,0.4,1.5,0.5s1.3,0.3,1.8,0.5c1.5,0.5,2.2,1.5,2.2,2.8c0,1-0.4,1.7-1.2,2.3
			s-1.9,0.9-3.2,0.9c-0.9,0-1.7-0.2-2.4-0.5s-1.2-0.7-1.6-1.3s-0.6-1.1-0.6-1.8h2.7c0,0.5,0.2,0.9,0.6,1.2s0.8,0.4,1.4,0.4
			c0.5,0,0.9-0.1,1.2-0.3S937.5,2708.4,937.5,2708.1z"/>
		<path class="st10" d="M942.1,2697.7c0-0.4,0.1-0.8,0.4-1s0.7-0.4,1.2-0.4c0.5,0,0.9,0.1,1.2,0.4s0.4,0.6,0.4,1
			c0,0.4-0.1,0.8-0.4,1.1s-0.7,0.4-1.1,0.4s-0.9-0.1-1.1-0.4S942.1,2698.1,942.1,2697.7z M945.1,2711h-2.8v-10.6h2.8V2711z"/>
		<path class="st10" d="M950.8,2697.8v2.6h1.8v2.1h-1.8v5.3c0,0.4,0.1,0.7,0.2,0.8s0.4,0.3,0.9,0.3c0.3,0,0.6,0,0.8-0.1v2.1
			c-0.6,0.2-1.1,0.3-1.7,0.3c-2,0-3-1-3-3v-5.7h-1.5v-2.1h1.5v-2.6H950.8z"/>
		<path class="st10" d="M953.4,2705.6c0-1,0.2-2,0.6-2.8s1-1.5,1.7-1.9s1.6-0.7,2.6-0.7c1.4,0,2.6,0.4,3.5,1.3s1.4,2.1,1.5,3.6
			l0,0.7c0,1.6-0.5,2.9-1.4,3.9s-2.1,1.5-3.6,1.5s-2.7-0.5-3.6-1.5s-1.4-2.3-1.4-4V2705.6z M956.2,2705.8c0,1,0.2,1.8,0.6,2.3
			s0.9,0.8,1.6,0.8c0.7,0,1.2-0.3,1.6-0.8c0.4-0.5,0.6-1.4,0.6-2.5c0-1-0.2-1.7-0.6-2.3s-0.9-0.8-1.6-0.8c-0.7,0-1.2,0.3-1.6,0.8
			S956.2,2704.7,956.2,2705.8z"/>
		<path class="st10" d="M970.9,2708.1c0-0.3-0.2-0.6-0.5-0.8s-0.9-0.4-1.6-0.5c-2.5-0.5-3.8-1.6-3.8-3.2c0-0.9,0.4-1.7,1.2-2.3
			s1.8-0.9,3.1-0.9c1.3,0,2.4,0.3,3.2,0.9s1.2,1.5,1.2,2.5h-2.8c0-0.4-0.1-0.7-0.4-1s-0.7-0.4-1.2-0.4c-0.5,0-0.8,0.1-1.1,0.3
			s-0.4,0.5-0.4,0.8c0,0.3,0.1,0.6,0.4,0.8s0.8,0.4,1.5,0.5s1.3,0.3,1.8,0.5c1.5,0.5,2.2,1.5,2.2,2.8c0,1-0.4,1.7-1.2,2.3
			s-1.9,0.9-3.2,0.9c-0.9,0-1.7-0.2-2.4-0.5s-1.2-0.7-1.6-1.3s-0.6-1.1-0.6-1.8h2.7c0,0.5,0.2,0.9,0.6,1.2s0.8,0.4,1.4,0.4
			c0.5,0,0.9-0.1,1.2-0.3S970.9,2708.4,970.9,2708.1z"/>
		<path class="st10" d="M980,2705.6c0-1.6,0.4-3,1.1-3.9s1.7-1.5,3-1.5c1,0,1.9,0.4,2.5,1.2v-5.4h2.8v15H987l-0.1-1.1
			c-0.7,0.9-1.6,1.3-2.7,1.3c-1.2,0-2.2-0.5-3-1.5S980,2707.4,980,2705.6z M982.8,2705.8c0,1,0.2,1.8,0.5,2.3
			c0.3,0.5,0.8,0.8,1.5,0.8c0.9,0,1.5-0.4,1.8-1.1v-4.2c-0.4-0.7-1-1.1-1.8-1.1C983.5,2702.5,982.8,2703.6,982.8,2705.8z"/>
		<path class="st10" d="M996.6,2711.2c-1.5,0-2.8-0.5-3.8-1.4s-1.5-2.2-1.5-3.8v-0.3c0-1.1,0.2-2,0.6-2.8s1-1.5,1.7-1.9
			s1.6-0.7,2.6-0.7c1.4,0,2.6,0.5,3.4,1.4s1.2,2.2,1.2,3.9v1.2h-6.7c0.1,0.7,0.4,1.2,0.8,1.7s1,0.6,1.7,0.6c1.1,0,1.9-0.4,2.5-1.2
			l1.4,1.6c-0.4,0.6-1,1.1-1.7,1.4S997.4,2711.2,996.6,2711.2z M996.2,2702.5c-0.6,0-1,0.2-1.4,0.6c-0.3,0.4-0.6,0.9-0.7,1.6h3.9
			v-0.2c0-0.6-0.2-1.1-0.5-1.5C997.3,2702.7,996.8,2702.5,996.2,2702.5z"/>
		<path class="st10" d="M1011.9,2708.9c0.5,0,0.9-0.1,1.3-0.4s0.5-0.7,0.5-1.1h2.6c0,0.7-0.2,1.4-0.6,2s-0.9,1.1-1.6,1.4
			s-1.4,0.5-2.2,0.5c-1.5,0-2.7-0.5-3.6-1.4s-1.3-2.3-1.3-4v-0.2c0-1.6,0.4-2.9,1.3-3.9s2.1-1.5,3.6-1.5c1.3,0,2.4,0.4,3.2,1.1
			s1.2,1.8,1.2,3h-2.6c0-0.5-0.2-1-0.5-1.3s-0.8-0.5-1.3-0.5c-0.7,0-1.2,0.2-1.5,0.7s-0.5,1.3-0.5,2.3v0.3c0,1.1,0.2,1.9,0.5,2.3
			S1011.2,2708.9,1011.9,2708.9z"/>
		<path class="st10" d="M1017.9,2697.7c0-0.4,0.1-0.8,0.4-1s0.7-0.4,1.2-0.4c0.5,0,0.9,0.1,1.2,0.4s0.4,0.6,0.4,1
			c0,0.4-0.1,0.8-0.4,1.1s-0.7,0.4-1.1,0.4s-0.9-0.1-1.1-0.4S1017.9,2698.1,1017.9,2697.7z M1020.9,2711h-2.8v-10.6h2.8V2711z"/>
		<path class="st10" d="M1032.7,2705.8c0,1.7-0.4,3-1.1,4s-1.7,1.4-3,1.4c-1.1,0-2.1-0.4-2.7-1.3l-0.1,1.1h-2.5v-15h2.8v5.4
			c0.7-0.8,1.5-1.1,2.6-1.1c1.3,0,2.3,0.5,3,1.4s1.1,2.3,1.1,4V2705.8z M1029.9,2705.6c0-1.1-0.2-1.9-0.5-2.3s-0.8-0.7-1.5-0.7
			c-0.9,0-1.5,0.4-1.9,1.1v4.2c0.3,0.7,1,1.1,1.9,1.1c0.9,0,1.5-0.5,1.8-1.4C1029.9,2707.1,1029.9,2706.5,1029.9,2705.6z"/>
		<path class="st10" d="M1039.3,2711.2c-1.5,0-2.8-0.5-3.8-1.4s-1.5-2.2-1.5-3.8v-0.3c0-1.1,0.2-2,0.6-2.8s1-1.5,1.7-1.9
			s1.6-0.7,2.6-0.7c1.4,0,2.6,0.5,3.4,1.4s1.2,2.2,1.2,3.9v1.2h-6.7c0.1,0.7,0.4,1.2,0.8,1.7s1,0.6,1.7,0.6c1.1,0,1.9-0.4,2.5-1.2
			l1.4,1.6c-0.4,0.6-1,1.1-1.7,1.4S1040.2,2711.2,1039.3,2711.2z M1039,2702.5c-0.6,0-1,0.2-1.4,0.6c-0.3,0.4-0.6,0.9-0.7,1.6h3.9
			v-0.2c0-0.6-0.2-1.1-0.5-1.5C1040.1,2702.7,1039.6,2702.5,1039,2702.5z"/>
		<path class="st10" d="M1051.2,2703.1c-0.4-0.1-0.7-0.1-1-0.1c-1.1,0-1.8,0.4-2.1,1.1v6.9h-2.8v-10.6h2.7l0.1,1.3
			c0.6-1,1.4-1.5,2.4-1.5c0.3,0,0.6,0,0.9,0.1L1051.2,2703.1z"/>
		<path class="st10" d="M1058.3,2708.1c0-0.3-0.2-0.6-0.5-0.8s-0.9-0.4-1.6-0.5c-2.5-0.5-3.8-1.6-3.8-3.2c0-0.9,0.4-1.7,1.2-2.3
			s1.8-0.9,3.1-0.9c1.3,0,2.4,0.3,3.2,0.9s1.2,1.5,1.2,2.5h-2.8c0-0.4-0.1-0.7-0.4-1s-0.7-0.4-1.2-0.4c-0.5,0-0.8,0.1-1.1,0.3
			s-0.4,0.5-0.4,0.8c0,0.3,0.1,0.6,0.4,0.8s0.8,0.4,1.5,0.5s1.3,0.3,1.8,0.5c1.5,0.5,2.2,1.5,2.2,2.8c0,1-0.4,1.7-1.2,2.3
			s-1.9,0.9-3.2,0.9c-0.9,0-1.7-0.2-2.4-0.5s-1.2-0.7-1.6-1.3s-0.6-1.1-0.6-1.8h2.7c0,0.5,0.2,0.9,0.6,1.2s0.8,0.4,1.4,0.4
			c0.5,0,0.9-0.1,1.2-0.3S1058.3,2708.4,1058.3,2708.1z"/>
		<path class="st10" d="M1067.7,2711.2c-1.5,0-2.8-0.5-3.8-1.4s-1.5-2.2-1.5-3.8v-0.3c0-1.1,0.2-2,0.6-2.8s1-1.5,1.7-1.9
			s1.6-0.7,2.6-0.7c1.4,0,2.6,0.5,3.4,1.4s1.2,2.2,1.2,3.9v1.2h-6.7c0.1,0.7,0.4,1.2,0.8,1.7s1,0.6,1.7,0.6c1.1,0,1.9-0.4,2.5-1.2
			l1.4,1.6c-0.4,0.6-1,1.1-1.7,1.4S1068.6,2711.2,1067.7,2711.2z M1067.4,2702.5c-0.6,0-1,0.2-1.4,0.6c-0.3,0.4-0.6,0.9-0.7,1.6h3.9
			v-0.2c0-0.6-0.2-1.1-0.5-1.5C1068.5,2702.7,1068,2702.5,1067.4,2702.5z"/>
		<path class="st10" d="M1073.3,2705.6c0-1.6,0.4-2.9,1.2-3.9s1.8-1.5,3.1-1.5c1.2,0,2.1,0.4,2.7,1.2l0.1-1h2.6v10.2
			c0,0.9-0.2,1.7-0.6,2.4s-1,1.2-1.8,1.6s-1.7,0.5-2.7,0.5c-0.8,0-1.5-0.2-2.3-0.5s-1.3-0.7-1.7-1.2l1.2-1.7
			c0.7,0.8,1.6,1.2,2.6,1.2c0.7,0,1.3-0.2,1.7-0.6s0.6-1,0.6-1.7v-0.6c-0.7,0.7-1.5,1.1-2.6,1.1c-1.3,0-2.3-0.5-3.1-1.5
			s-1.2-2.3-1.2-4V2705.6z M1076.1,2705.8c0,1,0.2,1.7,0.6,2.3s0.9,0.8,1.6,0.8c0.9,0,1.5-0.3,1.8-1v-4.5c-0.4-0.6-1-1-1.8-1
			c-0.7,0-1.2,0.3-1.6,0.8S1076.1,2704.7,1076.1,2705.8z"/>
		<path class="st10" d="M1091.4,2709.9c-0.7,0.8-1.7,1.3-2.9,1.3c-1.1,0-2-0.3-2.6-1s-0.9-1.6-0.9-2.9v-6.9h2.8v6.8
			c0,1.1,0.5,1.7,1.5,1.7c1,0,1.6-0.3,2-1v-7.5h2.8v10.6h-2.7L1091.4,2709.9z"/>
		<path class="st10" d="M1102.2,2703.1c-0.4-0.1-0.7-0.1-1-0.1c-1.1,0-1.8,0.4-2.1,1.1v6.9h-2.8v-10.6h2.7l0.1,1.3
			c0.6-1,1.4-1.5,2.4-1.5c0.3,0,0.6,0,0.9,0.1L1102.2,2703.1z"/>
		<path class="st10" d="M1103.6,2697.7c0-0.4,0.1-0.8,0.4-1s0.7-0.4,1.2-0.4c0.5,0,0.9,0.1,1.2,0.4s0.4,0.6,0.4,1
			c0,0.4-0.1,0.8-0.4,1.1s-0.7,0.4-1.1,0.4s-0.9-0.1-1.1-0.4S1103.6,2698.1,1103.6,2697.7z M1106.6,2711h-2.8v-10.6h2.8V2711z"/>
		<path class="st10" d="M1108.4,2705.6c0-1.6,0.4-3,1.1-3.9s1.7-1.5,3-1.5c1,0,1.9,0.4,2.5,1.2v-5.4h2.8v15h-2.5l-0.1-1.1
			c-0.7,0.9-1.6,1.3-2.7,1.3c-1.2,0-2.2-0.5-3-1.5S1108.4,2707.4,1108.4,2705.6z M1111.3,2705.8c0,1,0.2,1.8,0.5,2.3
			c0.3,0.5,0.8,0.8,1.5,0.8c0.9,0,1.5-0.4,1.8-1.1v-4.2c-0.4-0.7-1-1.1-1.8-1.1C1111.9,2702.5,1111.3,2703.6,1111.3,2705.8z"/>
		<path class="st10" d="M1126.3,2711c-0.1-0.3-0.2-0.6-0.3-0.9c-0.7,0.8-1.6,1.1-2.7,1.1c-1,0-1.9-0.3-2.6-0.9s-1-1.4-1-2.3
			c0-1.1,0.4-2,1.2-2.6s2-0.9,3.6-0.9h1.3v-0.6c0-0.5-0.1-0.9-0.4-1.2s-0.6-0.4-1.2-0.4c-0.5,0-0.8,0.1-1.1,0.3s-0.4,0.5-0.4,0.9
			h-2.8c0-0.6,0.2-1.2,0.6-1.7s0.9-0.9,1.6-1.2s1.5-0.4,2.3-0.4c1.3,0,2.3,0.3,3.1,1s1.1,1.6,1.1,2.8v4.6c0,1,0.1,1.8,0.4,2.3v0.2
			H1126.3z M1123.9,2709c0.4,0,0.8-0.1,1.2-0.3s0.6-0.4,0.8-0.7v-1.8h-1.1c-1.4,0-2.2,0.5-2.3,1.5l0,0.2c0,0.4,0.1,0.6,0.4,0.9
			S1123.5,2709,1123.9,2709z"/>
		<path class="st10" d="M1130.4,2705.6c0-1.6,0.4-3,1.1-3.9s1.7-1.5,3-1.5c1,0,1.9,0.4,2.5,1.2v-5.4h2.8v15h-2.5l-0.1-1.1
			c-0.7,0.9-1.6,1.3-2.7,1.3c-1.2,0-2.2-0.5-3-1.5S1130.4,2707.4,1130.4,2705.6z M1133.3,2705.8c0,1,0.2,1.8,0.5,2.3
			c0.3,0.5,0.8,0.8,1.5,0.8c0.9,0,1.5-0.4,1.8-1.1v-4.2c-0.4-0.7-1-1.1-1.8-1.1C1133.9,2702.5,1133.3,2703.6,1133.3,2705.8z"/>
	</g>
	<path id="Trazado_192305" class="st21" d="M390,2828.1h350.7v410.6H1105"/>
</g>
</svg>
