<?xml version="1.0" encoding="utf-8"?>
<!-- Generator: Adobe Illustrator 26.1.0, SVG Export Plug-In . SVG Version: 6.00 Build 0)  -->
<svg version="1.1" id="Capa_1" xmlns="http://www.w3.org/2000/svg" xmlns:xlink="http://www.w3.org/1999/xlink" x="0px" y="0px"
	 viewBox="0 0 1242.1 467.1" style="enable-background:new 0 0 1242.1 467.1;" xml:space="preserve">
<style type="text/css">
	.st0{opacity:0.466;fill:#DADEEC;enable-background:new    ;}
	.st1{opacity:0.4;}
	.st2{fill:#8C9DF4;}
	.st3{fill:#505ABA;}
	.st4{fill:#FFFFFF;}
	.st5{fill:#AEC3FF;}
	.st6{fill:#F99746;}
	.st7{fill:#BDD1F9;}
	.st8{fill:#233862;}
	.st9{fill:#35488B;}
	.st10{fill:#2C3A64;}
	.st11{fill:#DDE7FE;}
	.st12{fill:#6C7AFF;}
	.st13{fill:#8FADEF;}
	.st14{fill:#C94024;}
	.st15{fill:#FC502D;}
	.st16{fill:#798EE8;}
	.st17{fill:#AAB2D3;}
	.st18{fill:#849DEF;}
	.st19{opacity:0.5;}
	.st20{fill:#DADEEC;}
	.st21{fill:#0D2380;}
	.st22{fill:#FFB27D;}
	.st23{fill:#999172;}
	.st24{fill:#2F539B;}
	.st25{fill:#CCC198;}
	.st26{fill:#FFF2BF;}
	.st27{fill:#ED985F;}
	.st28{fill:#ED975D;}
	.st29{fill:#07154D;}
	.st30{fill:#EBF3FA;}
	.st31{fill:#FEC2B5;}
	.st32{fill:#113C68;}
	.st33{fill:#2A4E96;}
	.st34{fill:#15447C;}
	.st35{fill:#FCA56B;}
	.st36{fill:#163560;}
	.st37{fill:#F7A491;}
	.st38{fill:#E25A44;}
	.st39{fill:#F47458;}
	.st40{fill:#F7CC7F;}
	.st41{fill:#F38B80;}
	.st42{fill:#0E2E35;}
	.st43{opacity:0.5;fill:#F47458;enable-background:new    ;}
	.st44{fill:#184655;}
	.st45{fill:#13375B;}
	.st46{fill:#355389;}
	.st47{enable-background:new    ;}
</style>
<g id="Grupo_134873" transform="translate(-177.902 -2724.311)">
	<g id="Grupo_133741" transform="translate(2583.232 1989.672)">
		<path id="Trazado_190560" class="st0" d="M-2372.3,1200.5c0,0-82.7-219.8,13.6-323.7s180.7,56.4,372.1-73.3s360.5-44.5,416.6,0
			s130.6,183,292.6,195.9s104.2,201.1,104.2,201.1L-2372.3,1200.5z"/>
		<g id="Grupo_133740" transform="translate(-2403.748 781.598)">
			<g id="Grupo_133620" transform="translate(1.007 38.167)" class="st1">
				<g id="Grupo_133550" transform="translate(15.057 18.467)">
					<g id="Grupo_133538">
						<path id="Rectángulo_82753" class="st2" d="M25.1,133.3H13.8c-7.6,0-13.8-6.2-13.8-13.8V13.8C0,6.2,6.2,0,13.8,0h11.3
							c7.6,0,13.8,6.2,13.8,13.8c0,0,0,0,0,0v105.8C38.8,127.2,32.7,133.3,25.1,133.3C25.1,133.3,25.1,133.3,25.1,133.3z"/>
					</g>
					<g id="Grupo_133539" transform="translate(10.316 95.472)">
						<path id="Trazado_190429" class="st3" d="M18.2,9.1c0-5-4.1-9.1-9.1-9.1l0,0C4.1,0,0,4.1,0,9.1v0c0,5,4.1,9.1,9.1,9.1l0,0
							C14.1,18.2,18.2,14.1,18.2,9.1L18.2,9.1z"/>
					</g>
					<g id="Grupo_133540" transform="translate(9.352 94.56)">
						<path id="Trazado_190430" class="st4" d="M10.1,20.1C4.5,20.1,0,15.6,0,10.1C0,4.5,4.5,0,10.1,0c5.6,0,10.1,4.5,10.1,10.1
							C20.1,15.6,15.6,20.1,10.1,20.1z M10.1,1.9c-4.5,0-8.1,3.6-8.1,8.1c0,4.5,3.6,8.1,8.1,8.1c4.5,0,8.1-3.6,8.1-8.1
							C18.2,5.6,14.6,1.9,10.1,1.9L10.1,1.9z"/>
					</g>
					<g id="Grupo_133541" transform="translate(8.041 6.101)">
						<path id="Rectángulo_82754" class="st5" d="M17.7,74.9H5.1c-2.8,0-5.1-2.3-5.1-5.1V5.1C0,2.3,2.3,0,5.1,0l0,0h12.6
							c2.8,0,5.1,2.3,5.1,5.1c0,0,0,0,0,0v64.8C22.7,72.7,20.5,74.9,17.7,74.9C17.7,74.9,17.7,74.9,17.7,74.9z"/>
					</g>
					<g id="Grupo_133542" transform="translate(10.706 8.814)">
						<path id="Rectángulo_82755" class="st6" d="M15.5,3H1.5C0.7,3,0,2.3,0,1.5l0,0C0,0.7,0.7,0,1.5,0h13.9C16.3,0,17,0.7,17,1.5
							l0,0C17,2.3,16.3,3,15.5,3z"/>
					</g>
					<g id="Grupo_133549" transform="translate(13.7 24.88)">
						<g id="Grupo_133543" transform="translate(8.617 31.078)">
							<path id="Trazado_190431" class="st3" d="M0,0.8v15.4C0,16.6,0.3,17,0.8,17l0,0c0.4,0,0.8-0.3,0.8-0.8V0.8
								C1.5,0.3,1.2,0,0.8,0l0,0C0.3,0,0,0.3,0,0.8z"/>
						</g>
						<g id="Grupo_133544" transform="translate(8.617 9.826)">
							<path id="Trazado_190432" class="st3" d="M0,0.8v15.4c0,0.4,0.3,0.8,0.8,0.8l0,0c0.4,0,0.8-0.3,0.8-0.8V0.8
								C1.5,0.3,1.2,0,0.8,0l0,0C0.3,0,0,0.3,0,0.8C0,0.8,0,0.8,0,0.8z"/>
						</g>
						<g id="Grupo_133545" transform="translate(0 31.078)">
							<path id="Trazado_190433" class="st3" d="M0,0.8v15.4C0,16.6,0.3,17,0.7,17l0,0l0,0c0.4,0,0.8-0.3,0.8-0.8V0.8
								C1.5,0.3,1.2,0,0.7,0l0,0C0.3,0,0,0.3,0,0.8L0,0.8z"/>
						</g>
						<g id="Grupo_133546" transform="translate(0 9.826)">
							<path id="Trazado_190434" class="st3" d="M0,0.8v15.4c0,0.4,0.3,0.8,0.8,0.8l0,0l0,0c0.4,0,0.8-0.3,0.8-0.8V0.8
								C1.5,0.3,1.2,0,0.8,0c0,0,0,0,0,0l0,0C0.3,0,0,0.3,0,0.8C0,0.8,0,0.8,0,0.8z"/>
						</g>
						<g id="Grupo_133547" transform="translate(4.484 26.719)">
							<path id="Trazado_190435" class="st3" d="M0,0.8v19.8c0,0.4,0.3,0.8,0.8,0.8c0,0,0,0,0,0l0,0c0.4,0,0.8-0.3,0.8-0.8
								c0,0,0,0,0,0V0.8C1.5,0.3,1.2,0,0.8,0l0,0C0.3,0,0,0.3,0,0.8z"/>
						</g>
						<g id="Grupo_133548" transform="translate(4.484)">
							<path id="Trazado_190436" class="st3" d="M0,0.8v19.8c0,0.4,0.3,0.8,0.8,0.8l0,0c0.4,0,0.8-0.3,0.8-0.8V0.8
								C1.5,0.3,1.2,0,0.8,0l0,0C0.3,0,0,0.3,0,0.8z"/>
						</g>
					</g>
				</g>
				<g id="Grupo_133563" transform="translate(63.488 18.467)">
					<g id="Grupo_133551">
						<path id="Rectángulo_82756" class="st2" d="M25.1,133.3H13.8c-7.6,0-13.8-6.2-13.8-13.8V13.8C0,6.2,6.2,0,13.8,0h11.3
							c7.6,0,13.8,6.2,13.8,13.8v105.8C38.8,127.2,32.7,133.3,25.1,133.3z"/>
					</g>
					<g id="Grupo_133552" transform="translate(10.315 95.472)">
						<path id="Trazado_190437" class="st3" d="M18.2,9.1c0-5-4.1-9.1-9.1-9.1l0,0C4.1,0,0,4.1,0,9.1v0c0,5,4.1,9.1,9.1,9.1l0,0
							C14.1,18.2,18.2,14.1,18.2,9.1L18.2,9.1z"/>
					</g>
					<g id="Grupo_133553" transform="translate(9.352 94.56)">
						<path id="Trazado_190438" class="st4" d="M10.1,20.1C4.5,20.1,0,15.6,0,10.1C0,4.5,4.5,0,10.1,0c5.6,0,10.1,4.5,10.1,10.1
							C20.1,15.6,15.6,20.1,10.1,20.1z M10.1,1.9c-4.5,0-8.1,3.6-8.1,8.1c0,4.5,3.6,8.1,8.1,8.1c4.5,0,8.1-3.6,8.1-8.1
							C18.2,5.6,14.6,1.9,10.1,1.9L10.1,1.9z"/>
					</g>
					<g id="Grupo_133554" transform="translate(8.041 6.101)">
						<path id="Rectángulo_82757" class="st5" d="M17.7,74.9H5.1c-2.8,0-5.1-2.3-5.1-5.1V5.1C0,2.3,2.3,0,5.1,0h12.6
							c2.8,0,5.1,2.3,5.1,5.1v64.8C22.7,72.7,20.5,74.9,17.7,74.9z"/>
					</g>
					<g id="Grupo_133555" transform="translate(10.706 8.814)">
						<path id="Rectángulo_82758" class="st6" d="M15.4,3H1.5C0.7,3,0,2.3,0,1.5l0,0C0,0.7,0.7,0,1.5,0h13.9C16.3,0,17,0.7,17,1.5
							l0,0C17,2.3,16.3,3,15.4,3z"/>
					</g>
					<g id="Grupo_133562" transform="translate(13.699 24.88)">
						<g id="Grupo_133556" transform="translate(8.619 31.078)">
							<path id="Trazado_190439" class="st3" d="M0,0.8v15.4C0,16.6,0.3,17,0.8,17c0,0,0,0,0,0l0,0c0.4,0,0.8-0.3,0.8-0.8
								c0,0,0,0,0,0V0.8C1.5,0.3,1.2,0,0.8,0c0,0,0,0,0,0l0,0C0.3,0,0,0.3,0,0.8C0,0.8,0,0.8,0,0.8z"/>
						</g>
						<g id="Grupo_133557" transform="translate(8.619 9.826)">
							<path id="Trazado_190440" class="st3" d="M0,0.8v15.4c0,0.4,0.3,0.8,0.8,0.8c0,0,0,0,0,0l0,0c0.4,0,0.8-0.3,0.8-0.8
								c0,0,0,0,0,0V0.8C1.5,0.3,1.2,0,0.8,0l0,0C0.3,0,0,0.3,0,0.8z"/>
						</g>
						<g id="Grupo_133558" transform="translate(0 31.078)">
							<path id="Trazado_190441" class="st3" d="M0,0.8v15.4C0,16.6,0.3,17,0.8,17l0,0c0.4,0,0.8-0.3,0.8-0.8V0.8
								C1.5,0.3,1.2,0,0.8,0l0,0C0.3,0,0,0.3,0,0.8z"/>
						</g>
						<g id="Grupo_133559" transform="translate(0 9.826)">
							<path id="Trazado_190442" class="st3" d="M0,0.8v15.4c0,0.4,0.3,0.8,0.8,0.8l0,0c0.4,0,0.8-0.3,0.8-0.8V0.8
								C1.5,0.3,1.2,0,0.8,0l0,0C0.3,0,0,0.3,0,0.8C0,0.8,0,0.8,0,0.8z"/>
						</g>
						<g id="Grupo_133560" transform="translate(4.485 26.719)">
							<path id="Trazado_190443" class="st3" d="M0,0.8v19.8c0,0.4,0.3,0.8,0.8,0.8l0,0c0.4,0,0.8-0.3,0.8-0.8c0,0,0,0,0,0V0.8
								C1.5,0.3,1.2,0,0.8,0c0,0,0,0,0,0l0,0C0.3,0,0,0.3,0,0.8z"/>
						</g>
						<g id="Grupo_133561" transform="translate(4.485)">
							<path id="Trazado_190444" class="st3" d="M0,0.8v19.8c0,0.4,0.3,0.8,0.8,0.8l0,0c0.4,0,0.8-0.3,0.8-0.8V0.8
								C1.5,0.3,1.2,0,0.8,0c0,0,0,0,0,0l0,0C0.3,0,0,0.3,0,0.8z"/>
						</g>
					</g>
				</g>
				<g id="Grupo_133576" transform="translate(112.845 18.467)">
					<g id="Grupo_133564">
						<path id="Rectángulo_82759" class="st2" d="M25.1,133.3H13.8c-7.6,0-13.8-6.2-13.8-13.8V13.8C0,6.2,6.2,0,13.8,0h11.3
							c7.6,0,13.8,6.2,13.8,13.8v105.8C38.8,127.2,32.7,133.3,25.1,133.3z"/>
					</g>
					<g id="Grupo_133565" transform="translate(10.316 95.472)">
						<path id="Trazado_190445" class="st3" d="M18.2,9.1c0-5-4.1-9.1-9.1-9.1l0,0C4.1,0,0,4.1,0,9.1v0c0,5,4.1,9.1,9.1,9.1l0,0
							C14.1,18.2,18.2,14.1,18.2,9.1L18.2,9.1z"/>
					</g>
					<g id="Grupo_133566" transform="translate(9.352 94.56)">
						<path id="Trazado_190446" class="st4" d="M10.1,20.1C4.5,20.1,0,15.6,0,10.1C0,4.5,4.5,0,10.1,0c5.6,0,10.1,4.5,10.1,10.1
							C20.1,15.6,15.6,20.1,10.1,20.1z M10.1,1.9c-4.5,0-8.1,3.6-8.1,8.1c0,4.5,3.6,8.1,8.1,8.1c4.5,0,8.1-3.6,8.1-8.1
							C18.2,5.6,14.6,1.9,10.1,1.9L10.1,1.9z"/>
					</g>
					<g id="Grupo_133567" transform="translate(8.041 6.101)">
						<path id="Rectángulo_82760" class="st5" d="M17.7,74.9H5.1c-2.8,0-5.1-2.3-5.1-5.1V5.1C0,2.3,2.3,0,5.1,0h12.6
							c2.8,0,5.1,2.3,5.1,5.1v64.8C22.7,72.7,20.5,74.9,17.7,74.9z"/>
					</g>
					<g id="Grupo_133568" transform="translate(10.707 8.814)">
						<path id="Rectángulo_82761" class="st6" d="M15.5,3H1.5C0.7,3,0,2.3,0,1.5l0,0C0,0.7,0.7,0,1.5,0h13.9C16.3,0,17,0.7,17,1.5
							l0,0C17,2.3,16.3,3,15.5,3z"/>
					</g>
					<g id="Grupo_133575" transform="translate(13.7 24.88)">
						<g id="Grupo_133569" transform="translate(8.619 31.078)">
							<path id="Trazado_190447" class="st3" d="M0,0.8v15.4C0,16.6,0.3,17,0.8,17c0,0,0,0,0,0l0,0c0.4,0,0.8-0.3,0.8-0.8
								c0,0,0,0,0,0V0.8C1.5,0.3,1.2,0,0.8,0c0,0,0,0,0,0l0,0C0.3,0,0,0.3,0,0.8C0,0.8,0,0.8,0,0.8z"/>
						</g>
						<g id="Grupo_133570" transform="translate(8.619 9.826)">
							<path id="Trazado_190448" class="st3" d="M0,0.8v15.4c0,0.4,0.3,0.8,0.8,0.8c0,0,0,0,0,0l0,0c0.4,0,0.8-0.3,0.8-0.8
								c0,0,0,0,0,0V0.8C1.5,0.3,1.2,0,0.8,0l0,0C0.3,0,0,0.3,0,0.8C0,0.7,0,0.8,0,0.8z"/>
						</g>
						<g id="Grupo_133571" transform="translate(0 31.078)">
							<path id="Trazado_190449" class="st3" d="M0,0.8v15.4C0,16.6,0.3,17,0.8,17l0,0c0.4,0,0.8-0.3,0.8-0.8c0,0,0,0,0,0V0.8
								C1.5,0.3,1.2,0,0.8,0c0,0,0,0,0,0l0,0C0.3,0,0,0.3,0,0.8z"/>
						</g>
						<g id="Grupo_133572" transform="translate(0 9.826)">
							<path id="Trazado_190450" class="st3" d="M0,0.8v15.4c0,0.4,0.3,0.8,0.8,0.8l0,0c0.4,0,0.8-0.3,0.8-0.8c0,0,0,0,0,0V0.8
								C1.5,0.3,1.2,0,0.8,0l0,0C0.3,0,0,0.3,0,0.8C0,0.8,0,0.8,0,0.8z"/>
						</g>
						<g id="Grupo_133573" transform="translate(4.485 26.719)">
							<path id="Trazado_190451" class="st3" d="M0,0.8v19.8c0,0.4,0.3,0.8,0.8,0.8l0,0c0.4,0,0.8-0.3,0.8-0.8V0.8
								C1.5,0.3,1.2,0,0.7,0c0,0,0,0,0,0l0,0C0.3,0,0,0.3,0,0.8z"/>
						</g>
						<g id="Grupo_133574" transform="translate(4.485)">
							<path id="Trazado_190452" class="st3" d="M0,0.8v19.8c0,0.4,0.3,0.8,0.8,0.8l0,0c0.4,0,0.8-0.3,0.8-0.8V0.8
								C1.5,0.3,1.2,0,0.7,0c0,0,0,0,0,0l0,0C0.3,0,0,0.3,0,0.8z"/>
						</g>
					</g>
				</g>
				<g id="Grupo_133580" transform="translate(163.673 18.467)">
					<g id="Grupo_133577">
						<path id="Rectángulo_82762" class="st2" d="M25.1,133.3H13.8c-7.6,0-13.8-6.2-13.8-13.8V13.8C0,6.2,6.2,0,13.8,0h11.3
							c7.6,0,13.8,6.2,13.8,13.8c0,0,0,0,0,0v105.8C38.8,127.2,32.7,133.3,25.1,133.3C25.1,133.3,25.1,133.3,25.1,133.3z"/>
					</g>
					<g id="Grupo_133578" transform="translate(8.041 6.101)">
						<path id="Rectángulo_82763" class="st5" d="M17.7,74.9H5.1c-2.8,0-5.1-2.3-5.1-5.1V5.1C0,2.3,2.3,0,5.1,0h0h12.6
							c2.8,0,5.1,2.3,5.1,5.1c0,0,0,0,0,0v64.8C22.7,72.7,20.5,74.9,17.7,74.9C17.7,74.9,17.7,74.9,17.7,74.9z"/>
					</g>
					<g id="Grupo_133579" transform="translate(10.706 8.814)">
						<path id="Rectángulo_82764" class="st6" d="M15.5,3H1.5C0.7,3,0,2.3,0,1.5l0,0C0,0.7,0.7,0,1.5,0h13.9C16.3,0,17,0.7,17,1.5
							l0,0C17,2.3,16.3,3,15.5,3z"/>
					</g>
				</g>
				<g id="Grupo_133584" transform="translate(212.726 18.467)">
					<g id="Grupo_133581">
						<path id="Rectángulo_82765" class="st2" d="M25.1,133.3H13.8c-7.6,0-13.8-6.2-13.8-13.8V13.8C0,6.2,6.2,0,13.8,0h11.3
							c7.6,0,13.8,6.2,13.8,13.8c0,0,0,0,0,0v105.8C38.8,127.2,32.7,133.3,25.1,133.3C25.1,133.3,25.1,133.3,25.1,133.3z"/>
					</g>
					<g id="Grupo_133582" transform="translate(8.041 6.101)">
						<path id="Rectángulo_82766" class="st5" d="M17.7,74.9H5.1c-2.8,0-5.1-2.3-5.1-5.1c0,0,0,0,0,0V5.1C0,2.3,2.3,0,5.1,0h0h12.6
							c2.8,0,5.1,2.3,5.1,5.1c0,0,0,0,0,0v64.8C22.7,72.7,20.5,74.9,17.7,74.9C17.7,74.9,17.7,74.9,17.7,74.9z"/>
					</g>
					<g id="Grupo_133583" transform="translate(10.706 8.814)">
						<path id="Rectángulo_82767" class="st6" d="M15.5,3H1.5C0.7,3,0,2.3,0,1.5l0,0C0,0.7,0.7,0,1.5,0h13.9C16.3,0,17,0.7,17,1.5
							l0,0C17,2.3,16.3,3,15.5,3z"/>
					</g>
				</g>
				<g id="Grupo_133597" transform="translate(15.057 169.275)">
					<g id="Grupo_133585">
						<path id="Rectángulo_82768" class="st2" d="M25.1,133.3H13.8c-7.6,0-13.8-6.2-13.8-13.8V13.8C0,6.2,6.2,0,13.8,0h11.3
							c7.6,0,13.8,6.2,13.8,13.8c0,0,0,0,0,0v105.8C38.8,127.2,32.7,133.3,25.1,133.3C25.1,133.3,25.1,133.3,25.1,133.3z"/>
					</g>
					<g id="Grupo_133586" transform="translate(10.315 95.471)">
						<circle id="Elipse_4833" class="st3" cx="9.1" cy="9.1" r="9.1"/>
					</g>
					<g id="Grupo_133587" transform="translate(9.352 94.561)">
						<path id="Trazado_190453" class="st4" d="M10.1,20.1C4.5,20.1,0,15.6,0,10.1C0,4.5,4.5,0,10.1,0c5.6,0,10.1,4.5,10.1,10.1
							C20.1,15.6,15.6,20.1,10.1,20.1z M10.1,1.9c-4.5,0-8.1,3.6-8.1,8.1c0,4.5,3.6,8.1,8.1,8.1c4.5,0,8.1-3.6,8.1-8.1
							C18.2,5.6,14.6,1.9,10.1,1.9L10.1,1.9z"/>
					</g>
					<g id="Grupo_133588" transform="translate(8.041 6.101)">
						<path id="Rectángulo_82769" class="st5" d="M17.7,74.9H5.1c-2.8,0-5.1-2.3-5.1-5.1V5.1C0,2.3,2.3,0,5.1,0l0,0h12.6
							c2.8,0,5.1,2.3,5.1,5.1c0,0,0,0,0,0v64.8C22.7,72.7,20.5,74.9,17.7,74.9C17.7,74.9,17.7,74.9,17.7,74.9z"/>
					</g>
					<g id="Grupo_133589" transform="translate(10.706 8.813)">
						<path id="Rectángulo_82770" class="st6" d="M15.5,3H1.5C0.7,3,0,2.3,0,1.5l0,0C0,0.7,0.7,0,1.5,0h13.9C16.3,0,17,0.7,17,1.5
							l0,0C17,2.3,16.3,3,15.5,3z"/>
					</g>
					<g id="Grupo_133596" transform="translate(13.7 24.88)">
						<g id="Grupo_133590" transform="translate(8.617 31.079)">
							<path id="Trazado_190454" class="st3" d="M0,0.8v15.4c0,0.4,0.3,0.8,0.8,0.8l0,0c0.4,0,0.8-0.3,0.8-0.8V0.8
								C1.5,0.3,1.2,0,0.8,0l0,0C0.3,0,0,0.3,0,0.8C0,0.8,0,0.8,0,0.8z"/>
						</g>
						<g id="Grupo_133591" transform="translate(8.617 9.826)">
							<path id="Trazado_190455" class="st3" d="M0,0.8v15.4C0,16.6,0.3,17,0.8,17c0,0,0,0,0,0l0,0c0.4,0,0.8-0.3,0.8-0.8V0.8
								C1.5,0.3,1.2,0,0.8,0l0,0C0.3,0,0,0.3,0,0.8z"/>
						</g>
						<g id="Grupo_133592" transform="translate(0 31.079)">
							<path id="Trazado_190456" class="st3" d="M0,0.8v15.4c0,0.4,0.3,0.8,0.8,0.8l0,0c0.4,0,0.8-0.3,0.8-0.8V0.8
								C1.5,0.3,1.2,0,0.8,0c0,0,0,0,0,0l0,0C0.3,0,0,0.3,0,0.8C0,0.8,0,0.8,0,0.8z"/>
						</g>
						<g id="Grupo_133593" transform="translate(0 9.826)">
							<path id="Trazado_190457" class="st3" d="M0,0.8v15.4C0,16.6,0.3,17,0.7,17c0,0,0,0,0,0l0,0c0.4,0,0.8-0.3,0.8-0.8
								c0,0,0,0,0,0V0.8C1.5,0.3,1.2,0,0.7,0l0,0C0.3,0,0,0.3,0,0.8z"/>
						</g>
						<g id="Grupo_133594" transform="translate(4.484 26.719)">
							<path id="Trazado_190458" class="st3" d="M0,0.8v19.8c0,0.4,0.3,0.8,0.8,0.8l0,0c0.4,0,0.8-0.3,0.8-0.8V0.8
								C1.5,0.3,1.2,0,0.8,0c0,0,0,0,0,0l0,0C0.3,0,0,0.3,0,0.8C0,0.8,0,0.8,0,0.8z"/>
						</g>
						<g id="Grupo_133595" transform="translate(4.484)">
							<path id="Trazado_190459" class="st3" d="M0,0.8v19.8c0,0.4,0.3,0.8,0.8,0.8l0,0c0.4,0,0.8-0.3,0.8-0.8V0.8
								C1.5,0.3,1.2,0,0.8,0l0,0C0.3,0,0,0.3,0,0.8z"/>
						</g>
					</g>
				</g>
				<g id="Grupo_133610" transform="translate(63.488 169.275)">
					<g id="Grupo_133598">
						<path id="Rectángulo_82771" class="st2" d="M25.1,133.3H13.8c-7.6,0-13.8-6.2-13.8-13.8V13.8C0,6.2,6.2,0,13.8,0h11.3
							c7.6,0,13.8,6.2,13.8,13.8v105.8C38.8,127.2,32.7,133.3,25.1,133.3z"/>
					</g>
					<g id="Grupo_133599" transform="translate(10.315 95.471)">
						<path id="Trazado_190460" class="st3" d="M18.2,9.1c0-5-4.1-9.1-9.1-9.1l0,0C4.1,0,0,4.1,0,9.1c0,0,0,0,0,0
							c0,5,4.1,9.1,9.1,9.1l0,0C14.1,18.2,18.2,14.1,18.2,9.1C18.2,9.1,18.2,9.1,18.2,9.1z"/>
					</g>
					<g id="Grupo_133600" transform="translate(9.352 94.561)">
						<path id="Trazado_190461" class="st4" d="M10.1,20.1C4.5,20.1,0,15.6,0,10.1C0,4.5,4.5,0,10.1,0c5.6,0,10.1,4.5,10.1,10.1
							C20.1,15.6,15.6,20.1,10.1,20.1z M10.1,1.9c-4.5,0-8.1,3.6-8.1,8.1c0,4.5,3.6,8.1,8.1,8.1c4.5,0,8.1-3.6,8.1-8.1
							C18.2,5.6,14.6,1.9,10.1,1.9L10.1,1.9z"/>
					</g>
					<g id="Grupo_133601" transform="translate(8.041 6.101)">
						<path id="Rectángulo_82772" class="st5" d="M17.7,74.9H5.1c-2.8,0-5.1-2.3-5.1-5.1V5.1C0,2.3,2.3,0,5.1,0h12.6
							c2.8,0,5.1,2.3,5.1,5.1v64.8C22.7,72.7,20.5,74.9,17.7,74.9z"/>
					</g>
					<g id="Grupo_133602" transform="translate(10.706 8.813)">
						<path id="Rectángulo_82773" class="st6" d="M15.4,3H1.5C0.7,3,0,2.3,0,1.5l0,0C0,0.7,0.7,0,1.5,0h13.9C16.3,0,17,0.7,17,1.5
							l0,0C17,2.3,16.3,3,15.4,3z"/>
					</g>
					<g id="Grupo_133609" transform="translate(13.699 24.88)">
						<g id="Grupo_133603" transform="translate(8.619 31.079)">
							<path id="Trazado_190462" class="st3" d="M0,0.8v15.4c0,0.4,0.3,0.8,0.8,0.8l0,0c0.4,0,0.8-0.3,0.8-0.8V0.8
								C1.5,0.3,1.2,0,0.8,0l0,0C0.3,0,0,0.3,0,0.8z"/>
						</g>
						<g id="Grupo_133604" transform="translate(8.619 9.826)">
							<path id="Trazado_190463" class="st3" d="M0,0.8v15.4C0,16.6,0.3,17,0.8,17l0,0c0.4,0,0.8-0.3,0.8-0.8V0.8
								C1.5,0.3,1.2,0,0.8,0l0,0C0.3,0,0,0.3,0,0.8z"/>
						</g>
						<g id="Grupo_133605" transform="translate(0 31.079)">
							<path id="Trazado_190464" class="st3" d="M0,0.8v15.4c0,0.4,0.3,0.8,0.8,0.8l0,0c0.4,0,0.8-0.3,0.8-0.8V0.8
								C1.5,0.3,1.2,0,0.8,0l0,0C0.3,0,0,0.3,0,0.8C0,0.8,0,0.8,0,0.8z"/>
						</g>
						<g id="Grupo_133606" transform="translate(0 9.826)">
							<path id="Trazado_190465" class="st3" d="M0,0.8v15.4C0,16.6,0.3,17,0.8,17c0,0,0,0,0,0l0,0c0.4,0,0.8-0.3,0.8-0.8V0.8
								C1.5,0.3,1.2,0,0.8,0l0,0C0.3,0,0,0.3,0,0.8z"/>
						</g>
						<g id="Grupo_133607" transform="translate(4.485 26.719)">
							<path id="Trazado_190466" class="st3" d="M0,0.8v19.8c0,0.4,0.3,0.8,0.8,0.8l0,0c0.4,0,0.8-0.3,0.8-0.8V0.8
								C1.5,0.3,1.2,0,0.8,0c0,0,0,0,0,0l0,0C0.3,0,0,0.3,0,0.8z"/>
						</g>
						<g id="Grupo_133608" transform="translate(4.485)">
							<path id="Trazado_190467" class="st3" d="M0,0.8v19.8c0,0.4,0.3,0.8,0.8,0.8l0,0c0.4,0,0.8-0.3,0.8-0.7c0,0,0,0,0,0V0.8
								C1.5,0.3,1.2,0,0.8,0l0,0C0.3,0,0,0.3,0,0.8z"/>
						</g>
					</g>
				</g>
				<g id="Grupo_133612" transform="translate(112.845 169.275)">
					<g id="Grupo_133611">
						<path id="Rectángulo_82774" class="st2" d="M25.1,133.3H13.8c-7.6,0-13.8-6.2-13.8-13.8V13.8C0,6.2,6.2,0,13.8,0h11.3
							c7.6,0,13.8,6.2,13.8,13.8c0,0,0,0,0,0v105.8C38.8,127.2,32.7,133.3,25.1,133.3C25.1,133.3,25.1,133.3,25.1,133.3z"/>
					</g>
				</g>
				<g id="Grupo_133614" transform="translate(163.673 169.275)">
					<g id="Grupo_133613">
						<path id="Rectángulo_82775" class="st2" d="M25.1,133.3H13.8c-7.6,0-13.8-6.2-13.8-13.8V13.8C0,6.2,6.2,0,13.8,0h11.3
							c7.6,0,13.8,6.2,13.8,13.8c0,0,0,0,0,0v105.8C38.8,127.2,32.7,133.3,25.1,133.3C25.1,133.3,25.1,133.3,25.1,133.3z"/>
					</g>
				</g>
				<g id="Grupo_133616" transform="translate(212.726 169.275)">
					<g id="Grupo_133615">
						<path id="Rectángulo_82776" class="st2" d="M25.1,133.3H13.8c-7.6,0-13.8-6.2-13.8-13.8V13.8C0,6.2,6.2,0,13.8,0h11.3
							c7.6,0,13.8,6.2,13.8,13.8c0,0,0,0,0,0v105.8C38.8,127.2,32.7,133.3,25.1,133.3C25.1,133.3,25.1,133.3,25.1,133.3z"/>
					</g>
				</g>
				<g id="Grupo_133617" transform="translate(0)">
					<path id="Trazado_190468" class="st7" d="M4.7,380.7L4.7,380.7c-2.6,0-4.7-2.1-4.7-4.7c0,0,0,0,0,0V4.7C0,2.1,2.1,0,4.7,0
						c0,0,0,0,0,0l0,0c2.6,0,4.7,2.1,4.7,4.7c0,0,0,0,0,0V376C9.3,378.6,7.2,380.7,4.7,380.7L4.7,380.7z"/>
				</g>
				<g id="Grupo_133618" transform="translate(0 151.814)">
					<rect id="Rectángulo_82777" x="0" y="0" class="st7" width="269.8" height="3.8"/>
				</g>
				<g id="Grupo_133619" transform="translate(0 302.546)">
					<rect id="Rectángulo_82778" x="0" y="0" class="st7" width="286.5" height="3.8"/>
				</g>
			</g>
			<g id="Grupo_133676" transform="translate(0 417.639)">
				<path id="Rectángulo_82792" class="st8" d="M1.2,0h1228.5c0.7,0,1.2,0.6,1.2,1.2l0,0c0,0.7-0.6,1.2-1.2,1.2H1.2
					C0.6,2.5,0,1.9,0,1.2l0,0C0,0.6,0.6,0,1.2,0z"/>
			</g>
			<g id="Grupo_133743" transform="translate(264.073)">
				<g id="Grupo_133626" transform="translate(445.583 281.431)">
					<g id="Grupo_133621" transform="translate(52.344 0)">
						<rect id="Rectángulo_82779" x="0" y="0" class="st9" width="21.7" height="70"/>
					</g>
					<g id="Grupo_133622" transform="translate(0 0)">
						<rect id="Rectángulo_82780" x="0" y="0" class="st10" width="52.3" height="70"/>
					</g>
					<g id="Grupo_133623" transform="translate(59.573 5.123)">
						<path id="Trazado_190469" class="st11" d="M7.2,3.6c0-2-1.6-3.6-3.6-3.6h0C1.6,0,0,1.6,0,3.6c0,2,1.6,3.6,3.6,3.6
							C5.6,7.2,7.2,5.6,7.2,3.6z"/>
					</g>
					<g id="Grupo_133624" transform="translate(60.634 6.184)">
						<path id="Trazado_190470" class="st12" d="M5.1,2.6C5.1,1.2,4,0,2.6,0c0,0,0,0,0,0C1.1,0,0,1.2,0,2.6c0,0,0,0,0,0
							C0,4,1.1,5.1,2.6,5.1c0,0,0,0,0,0C4,5.1,5.1,4,5.1,2.6C5.1,2.6,5.1,2.6,5.1,2.6z"/>
					</g>
					<g id="Grupo_133625" transform="translate(58.012 17.473)">
						<rect id="Rectángulo_82781" x="0" y="0" class="st13" width="10.2" height="18.4"/>
					</g>
				</g>
				<g id="Grupo_133632" transform="translate(405.092 281.431)">
					<g id="Grupo_133627" transform="translate(52.344 0)">
						<rect id="Rectángulo_82782" x="0" y="0" class="st9" width="21.7" height="70"/>
					</g>
					<g id="Grupo_133628" transform="translate(0 0)">
						<rect id="Rectángulo_82783" x="0" y="0" class="st10" width="52.3" height="70"/>
					</g>
					<g id="Grupo_133629" transform="translate(59.573 5.123)">
						<path id="Trazado_190471" class="st11" d="M7.2,3.6c0-2-1.6-3.6-3.6-3.6h0C1.6,0,0,1.6,0,3.6c0,2,1.6,3.6,3.6,3.6
							C5.6,7.2,7.2,5.6,7.2,3.6z"/>
					</g>
					<g id="Grupo_133630" transform="translate(60.635 6.184)">
						<path id="Trazado_190472" class="st12" d="M5.1,2.6C5.1,1.2,4,0,2.6,0c0,0,0,0,0,0C1.1,0,0,1.2,0,2.6c0,0,0,0,0,0
							C0,4,1.1,5.1,2.6,5.1c0,0,0,0,0,0C4,5.1,5.1,4,5.1,2.6C5.1,2.6,5.1,2.6,5.1,2.6z"/>
					</g>
					<g id="Grupo_133631" transform="translate(58.012 17.473)">
						<rect id="Rectángulo_82784" x="0" y="0" class="st13" width="10.2" height="18.4"/>
					</g>
				</g>
				<g id="Grupo_133638" transform="translate(368.068 281.431)">
					<g id="Grupo_133633" transform="translate(52.344 0)">
						<rect id="Rectángulo_82785" x="0" y="0" class="st9" width="21.7" height="70"/>
					</g>
					<g id="Grupo_133634" transform="translate(0 0)">
						<rect id="Rectángulo_82786" x="0" y="0" class="st10" width="52.3" height="70"/>
					</g>
					<g id="Grupo_133635" transform="translate(59.573 5.123)">
						<path id="Trazado_190473" class="st11" d="M7.2,3.6c0-2-1.6-3.6-3.6-3.6c0,0,0,0,0,0C1.6,0,0,1.6,0,3.6v0c0,2,1.6,3.6,3.6,3.6
							C5.6,7.2,7.2,5.6,7.2,3.6z"/>
					</g>
					<g id="Grupo_133636" transform="translate(60.634 6.184)">
						<path id="Trazado_190474" class="st12" d="M5.1,2.6C5.1,1.2,4,0,2.6,0l0,0C1.1,0,0,1.2,0,2.6c0,0,0,0,0,0C0,4,1.1,5.1,2.6,5.1
							c0,0,0,0,0,0C4,5.1,5.1,4,5.1,2.6z"/>
					</g>
					<g id="Grupo_133637" transform="translate(58.012 17.473)">
						<rect id="Rectángulo_82787" x="0" y="0" class="st13" width="10.2" height="18.4"/>
					</g>
				</g>
				<g id="Grupo_133642" transform="translate(364.807 327.031)">
					<g id="Grupo_133639" transform="translate(0 0)">
						<rect id="Rectángulo_82788" x="0" y="0" class="st14" width="122.6" height="90.6"/>
					</g>
					<g id="Grupo_133640" transform="translate(65.718 0)">
						<rect id="Rectángulo_82789" x="0" y="0" class="st15" width="97.2" height="90.6"/>
					</g>
					<g id="Grupo_133641" transform="translate(104.448 8.754)">
						<path id="Rectángulo_82790" class="st10" d="M27.8,6H3C1.4,6,0,4.7,0,3l0,0c0-1.7,1.4-3,3-3h24.8c1.7,0,3,1.4,3,3l0,0
							C30.9,4.7,29.5,6,27.8,6z"/>
					</g>
				</g>
				<g id="Grupo_133653" transform="translate(0 101.224)">
					<g id="Grupo_133643" transform="translate(163.361 105.523)">
						<path id="Trazado_190475" class="st16" d="M16.7,1.9L0.1,199.1c0,0-1.7,12,7.2,12c14.6,0,72.8,0,72.8,0s-11-2.5-10.9-8.1
							C69.3,196.3,88.6,0,88.6,0L16.7,1.9z"/>
					</g>
					<g id="Grupo_133644" transform="translate(168.14 101.859)">
						<path id="Trazado_190476" class="st5" d="M80.7,211.1c-2.9,0-59.2,0.1-73.4-0.1c-6.2-0.1-7.3-5.5-7.3-9c0-1,0-2,0.2-2.9
							l0.4-5.1l1.1-13.1l1-11.5l1.2-14.8L5,142L16.8,1.9L88.6,0c0,0-8.1,82.2-13.8,142c-0.6,6.7-1.2,13.1-1.8,19
							c-0.2,1.9-0.4,3.8-0.5,5.6c-0.5,5.7-1,10.9-1.4,15.4c-0.2,2.4-0.4,4.7-0.6,6.7c-0.7,8.1-1.2,13.2-1.2,14.2
							c0,0.5,0,1.1,0.1,1.6C70.6,210.8,79.7,211.1,80.7,211.1z"/>
					</g>
					<g id="Grupo_133645" transform="translate(5.599 0)">
						<path id="Trazado_190477" class="st5" d="M0,0l40.4,162.3l5.5,22.2l18.8,75.6h349.5L344.9,0L0,0z"/>
					</g>
					<g id="Grupo_133646" transform="translate(0)">
						<path id="Trazado_190478" class="st17" d="M5.6,0L0,1.9l62.9,263.8l7.4-5.6L5.6,0z"/>
					</g>
					<g id="Grupo_133647" transform="translate(62.898 260.063)">
						<path id="Trazado_190479" class="st18" d="M0,5.6h347.4L357,0H7.4L0,5.6z"/>
					</g>
					<g id="Grupo_133648" transform="translate(184.891 312.968)">
						<rect id="Rectángulo_82791" x="0" y="0" class="st5" width="75.2" height="3.6"/>
					</g>
					<g id="Grupo_133649" transform="translate(169.861 265.706)">
						<path id="Trazado_190480" class="st2" d="M71.1,0l-0.4,2.7L0,17L1,5.5L1.4,0H71.1z"/>
					</g>
					<g id="Grupo_133650" transform="translate(168.142 290.606)" class="st19">
						<path id="Trazado_190481" class="st2" d="M80.7,22.4c-2.9,0-59.2,0.1-73.4-0.1c-6.2-0.1-7.3-5.5-7.3-9L70.4,0
							c-0.7,8.1-1.2,13.2-1.2,14.2c0,0.5,0,1.1,0.1,1.6C70.6,22.1,79.7,22.4,80.7,22.4z"/>
					</g>
					<g id="Grupo_133651" transform="translate(5.598)">
						<path id="Trazado_190482" class="st20" d="M0,0h344.9l56,209H52L0,0z"/>
					</g>
					<g id="Grupo_133652" transform="translate(19.885 11.197)">
						<path id="Trazado_190483" class="st21" d="M370.3,188.8h-323l-11.5-46L31.4,125l-1.8-7.3L17.7,70.5L17.1,68l-6.3-25L8,31.9
							l-2.4-9.5l-2-7.8L0,0h318.3l4,14.6l2.1,7.8l2.6,9.5l3.1,11.2l20.3,73.6l0,0l1.7,6.2l0.8,2.9l14,50.8L370.3,188.8z"/>
					</g>
				</g>
				<g id="Grupo_133675" transform="translate(651.326 214.169)">
					<g id="Grupo_133674">
						<g id="Grupo_133654" transform="translate(136.258)">
							<path id="Trazado_190484" class="st10" d="M0,8.7C0,8.7-0.8,0,9,0C7.3,0.5,5.8,1.3,4.5,2.4c0,0,6.2-3.7,13,2S20,24,22.1,26.7
								s10.1,3.2,9.1,11.8S5.7,58,7.3,65.1c0,0-9.6-14.1-2.7-20.5c0,0-3.3,3.1-3.7,6.9c0,0-0.9-7.3,3.7-9.6c4.1-2.1,7.5-9.6,7.1-11
								S0,8.7,0,8.7z"/>
						</g>
						<g id="Grupo_133655" transform="translate(111.899 50.605)">
							<path id="Trazado_190485" class="st22" d="M31.5,0c0,0-7.3,30.1-14.4,36.1C12.8,39.8,0,48.1,0,48.1L5.3,50
								c0,0,17.7-6,21.7-10.6s14.8-28,14.8-28L31.5,0z"/>
						</g>
						<g id="Grupo_133656" transform="translate(0 97.929)">
							<path id="Trazado_190486" class="st23" d="M86.2,11.8l1.7-4.2C89.7,3,94.1,0,99,0h31.6v105.5H0V20h73.9
								C79.3,20,84.1,16.8,86.2,11.8z"/>
						</g>
						<g id="Grupo_133657" transform="translate(176.239 75.05)">
							<path id="Trazado_190487" class="st24" d="M50.6,28.5c-0.1,0.1-0.1,0.2-0.2,0.4c-1.6,2.8-5.2,9.6-9.3,17
								c-1.9,3.5-3.9,7.2-5.8,10.6c-3.3,6-6.2,11.3-8,14.1c-1.8,2.8-3.1,4.9-3.6,5.7l0,0c-0.1,0.2-0.2,0.5-0.2,0.8
								c0.2,2.5,0.1,5-0.1,7.5c-1.4,14.3-8.1,27.5-18.7,37.1L0,122.3c0,0,6.9-25.4,8.9-39.8c0.3-1.9,0.4-3.8,0.4-5.7
								c-0.4-3.7,0.3-9.2,1.6-15.5c2.2-11.2,6.3-25,9.9-36c0.2-0.7,7-25.3,7-25.3c5.7,5,26.6,7.1,26.6,7.1S57.9,15.7,50.6,28.5z"/>
						</g>
						<g id="Grupo_133658" transform="translate(155.02 192.219)">
							<path id="Trazado_190488" class="st8" d="M0,11.3h20.2c0.3-1.8,0.1-3.7-0.6-5.4c-1-2.2-2.5-2.3-0.2-5.8
								c-1.3,1.3-5.4,1.9-8.3,1.5C10.8,2.1,8.8,6,7.6,6.8C6.3,7.8,0.4,7.4,0,11.3z"/>
						</g>
						<g id="Grupo_133659" transform="translate(207.268 91.605)">
							<path id="Trazado_190489" class="st8" d="M14.4,11.9c-0.1,0.1-0.1,0.2-0.2,0.4C12.6,15,4,31,0,38.4C4.7,19.2,1.4,0,1.4,0
								L14.4,11.9z"/>
						</g>
						<g id="Grupo_133660" transform="translate(126.35 7.354)">
							<path id="Trazado_190490" class="st10" d="M11.1,0.1C11-0.4,22.6,5.4,23.2,6.1c5.5,6.1,3.9,14,0.8,14.1c-2,0-1.6,3.4-1.6,3.4
								L0,14.1C0,14.1,2.7-1.6,11.1,0.1z"/>
						</g>
						<g id="Grupo_133661" transform="translate(143.216 46.081)">
							<path id="Trazado_190491" class="st25" d="M3,0c0,0-3.4,6.8-3,12.3c0,0,4.1,6.5,14.8,8.1C14.8,20.5,5.6,0,3,0z"/>
						</g>
						<g id="Grupo_133662" transform="translate(211.059 70.832)">
							<path id="Trazado_190492" class="st24" d="M0.1,12.8L0,9C7.5,10,26,0,26,0s7.9,5.2,9,20.2c0.5,7.3,3.9,38.2,4.2,47.4
								c0.1,3.3,0.2,5.7,0.2,6.7c0,0,0,0,0,0c0,0.3,0.1,0.6,0.3,0.8c1.5,2,2.9,4.1,4.1,6.3c11.5,21.4,5.5,50.4,5.5,50.4l-2.7-0.7
								c0,0-9.7-30.1-16.1-43.2c-0.8-1.7-1.7-3.4-2.9-4.9c-2.4-2.9-4.9-7.8-7.4-13.8C15.5,58.1,0.1,12.8,0.1,12.8z"/>
						</g>
						<g id="Grupo_133663" transform="translate(244.225 192.073)">
							<path id="Trazado_190493" class="st8" d="M0,11.4h20.2c0.3-1.8,0.1-3.7-0.6-5.4c-1-2.2-2.6-3.3-2.2-6
								c-1.6,1.8-3.9,2.7-6.3,2.4C10.8,3,8.8,6.1,7.6,7C6.3,7.9,0.4,7.6,0,11.4z"/>
						</g>
						<g id="Grupo_133664" transform="translate(159.142 34.623)">
							<path id="Trazado_190494" class="st26" d="M13.1,36.3c2.7,0.5-0.4,2.6,3.3,3c5.3,0.6,10.8,1,13.7,2.1c0.9,0.2,1.6,0.8,2,1.6
								c1.2,3.7,9.1,10.2,9.1,10.2c35.2-1.6,37.5-17.3,37.5-17.3C55.9,13.7,36.4,1.6,20.4,0.1c-3.9-0.4-9.2,0.1-11.7,1.2
								C3.1,3.8,0,11.5,0,11.5S2.8,34.5,13.1,36.3z"/>
						</g>
						<g id="Grupo_133665" transform="translate(165.265 45.271)">
							<path id="Trazado_190495" class="st25" d="M0,28.6c5.3,0.6,10.8,1,13.7,2.1C14.3,20,11.8,9.4,6.6,0C6.6,0,1.2,22,0,28.6z"/>
						</g>
						<g id="Grupo_133666" transform="translate(148.998 42.283)">
							<path id="Trazado_190496" class="st22" d="M10.7,0c0,0,13.4-0.7,15.7,7.7c2.4,8.4-4.5,41.9-5.9,45.4
								c-2.7,6.3-16.2,25-16.2,25L0,75.8c0,0,8.7-27.4,10.6-30.2C13.7,41.4,6.7,3.7,10.7,0z"/>
						</g>
						<g id="Grupo_133667" transform="translate(142.193 117.528)">
							<path id="Trazado_190497" class="st22" d="M4.7,0.6C4,1.2,3.3,1.9,2.7,2.7C1.8,3.8,2.6,4.2,0,9.1c0,0,0.1,0.7,0.7,0.6
								s2.5-2.1,3.5-1.9c0,0,0.7,0.6,0.8,2.5c0.1,1.8,0.1,5.9,0.4,6.6s2.6-3.2,3.8-6c1-2.5,0-10.9,0-10.9L4.7,0.6z"/>
						</g>
						<g id="Grupo_133668" transform="translate(155.836 39.804)">
							<path id="Trazado_190498" class="st25" d="M22.8,21.4c0,0.2-12.7,2.3-20.5-1.7C2.2,19.7-4.4-1,5.1,0s15,4,15.2,8.5
								S22.8,21.4,22.8,21.4z"/>
						</g>
						<g id="Grupo_133669" transform="translate(140.701 29.355)">
							<path id="Trazado_190499" class="st22" d="M14.2,8.1c0,2.2-0.9,4.3-2.5,5.9C10,15.7,7.5,17,5.8,15.3c-1-1-1.9-2-2.6-3.2
								C1.7,9.6,0,7,0,7l7.6-6.6L8,0c1.4,2.5,3.3,4.7,5.6,6.4C14.1,6.8,14.3,7.4,14.2,8.1z"/>
						</g>
						<g id="Grupo_133670" transform="translate(140.214 29.751)">
							<path id="Trazado_190500" class="st27" d="M0,6.6c0,0,1.7,2.6,3.2,5.1C7.9,8.8,7.9,3,7.6,0L0,6.6z"/>
						</g>
						<g id="Grupo_133671" transform="translate(126.89 16.231)">
							<path id="Trazado_190501" class="st22" d="M12.3,23.5c0,0,11.4-6.4,7.4-13.4S14.4-2.5,6.9,1.2s-7.3,7.3-6.5,9.9
								S9.3,24.9,12.3,23.5z"/>
						</g>
						<g id="Grupo_133672" transform="translate(125.223 15.276)">
							<path id="Trazado_190502" class="st10" d="M0.1,8c0.5-3.1,2.1-3.4,3.2-3.2c2.1-4,6.9-5.8,11.1-4.3c2.3,2.8,5.5,4.7,9,5.4
								c0,0-1.3,2.5-6.8,4c-1.8,0.4-3.7,0.2-5.4-0.4c2.4,1.3,5,2.3,7.7,2.9c-7.2,0.7-14-5.9-14.8-6.6c-0.6,1.5-0.7,3.1-0.6,4.7
								c0.5,2.1,2.4,6,1.2,6.5C4.9,17-0.7,12.7,0.1,8z"/>
						</g>
						<g id="Grupo_133673" transform="translate(100.522 98.473)">
							<path id="Trazado_190503" class="st22" d="M5.9,0.2c0,0,3.2,2.4,0.8,4S0,6.2,0,5.1C-0.1,1.7,1.7-0.8,5.9,0.2z"/>
						</g>
					</g>
				</g>
				<g id="Grupo_133677" transform="translate(42.449 155.786)">
					<path id="Trazado_190504" class="st23" d="M49.4,12.2l-3-4.4C43.3,3.1,37.9,0,32.8,0H0l5.7,20.8l22.6,82.5
						c1,3.7,4.4,6.3,8.2,6.3h117.9c4.7,0,8.5-3.8,8.5-8.5c0-0.8-0.1-1.5-0.3-2.3l-21.3-78H64.5C58.9,20.8,53,17.4,49.4,12.2z"/>
				</g>
				<g id="Grupo_133702" transform="translate(48.121)">
					<g id="Grupo_133698">
						<g id="Grupo_133678" transform="translate(46.702 126.892)">
							<path id="Trazado_190505" class="st22" d="M0.5,16.3c-0.5,0.5-0.6,1.3-0.3,1.9v0c0.5,1.3,2,2.8,3.8,4.2
								c0.2,0.2,0.4,0.4,0.6,0.5c0,0,0.1,0.1,0.1,0.1l0.1,0.1c1.7,1.6,1,1.9,4.1,5.1c3.4,3.6,5.8,3.7,6.5,3.3
								c0.6-0.3-0.6-2.2-1.9-4.3c-0.1-0.1-0.1-0.2-0.2-0.3c-0.2-0.3-0.3-0.6-0.5-0.9c-1.5-2.6-1.1-3.8-0.8-7.6
								c0.3-3.1,4.8-17.4,4.8-17.4L10.3,0c0,0-2,11.4-4.2,13.1C5,14,3.6,14.1,2.5,14.8c-0.1,0-0.2,0.1-0.2,0.1
								C1.6,15.3,1,15.8,0.5,16.3z"/>
						</g>
						<g id="Grupo_133679" transform="translate(46.702 141.788)">
							<path id="Trazado_190506" class="st8" d="M0.5,1.5C0,2-0.1,2.7,0.1,3.4v0c1,1.6,2.3,3.1,3.8,4.2C4.2,7.8,4.4,8,4.6,8.1
								c0,0,0.1,0.1,0.1,0.1l0.1,0.1c1.7,1.6,1,1.9,4.1,5.1c3.4,3.6,5.8,3.7,6.5,3.3c0.6-0.3-0.6-2.2-1.9-4.3
								C11.1,11.5,9,9.9,7.4,7.9C5.4,5.3,4,2.1,2.7,0.1L2.3,0C1.6,0.4,1,0.9,0.5,1.5z"/>
						</g>
						<g id="Grupo_133680" transform="translate(95.158 124.897)">
							<path id="Trazado_190507" class="st22" d="M5.3,14.2c0.4,2,3.3,1.7,6.6,0.9s2.5,0.2,7.1-0.4s6-2.2,6.2-2.9
								c0.1-0.6-2.2-0.8-4.6-1.1c-0.3,0-0.6-0.1-0.9-0.1c-2.8-0.3-4.8-2.1-7.3-3.6C9.9,5.7,6.3,0,6.3,0L0,0.5c0,0,3.3,5.1,4.6,7.2
								c0.6,1.3,0.8,2.9,0.6,4.3C5.2,12.8,5.2,13.5,5.3,14.2z"/>
						</g>
						<g id="Grupo_133681" transform="translate(100.34 135.653)">
							<path id="Trazado_190508" class="st8" d="M6.7,4.4C9.9,3.6,9.1,4.5,13.8,4s6-2.2,6.2-2.9C20,0.5,17.8,0.3,15.3,0l0,0
								c-2,1.3-4.3,2-6.6,2.1C5.5,2.2,2.2,1.3,0,1.3C0,2,0,2.8,0.1,3.5C0.5,5.5,3.4,5.2,6.7,4.4z"/>
						</g>
						<g id="Grupo_133682" transform="translate(54.408 88.438)">
							<path id="Trazado_190509" class="st23" d="M21.8,10.2l-5.9,15.9L8.1,46.9c-1.4,0.1-2.8,0-4.1-0.4c-1.4-0.5-2.7-1.1-4-1.9
								c0,0,2.2-22.4,6.2-35.2c1-3.3,2.2-6,3.4-7.5C15.8-5.4,21.8,10.2,21.8,10.2z"/>
						</g>
						<g id="Grupo_133683" transform="translate(12.835 70.078)">
							<path id="Trazado_190510" class="st25" d="M57.3,3.2c-3.4-1.1-12.2,0-21.7,1.7c-2.6,0.5-5.3-0.7-6.7-3l0,0L4.9,0
								c0,0-7.9,17.6-3.6,28.8c0.7,1.7,2.4,2.8,4.2,2.7l0,0c0,0,14.5,0,19.2,0c11.9,0,25.3-8.2,27-8.5c2.8-0.6,4,5.1,6.8,11
								S85,60.2,85,60.2c1.7,0,3.5-0.1,5.2-0.5c0.8-0.3,1.6-0.7,2.2-1.4C92.3,58.3,66.1,6,57.3,3.2z"/>
						</g>
						<g id="Grupo_133684" transform="translate(0.097)">
							<path id="Trazado_190511" class="st8" d="M39.1,1.4c-1.4-0.8-3-1.2-4.6-1.2c-0.7,0-1.5,0-2.2-0.1c-9.2-1.3-14.7,12-15,16
								c-0.6,7.4-4.5,8.5-10,13.1c-11,9.3-7.8,20.1-1.8,24.1c3.6,2.4,10,0,10,0c0.1,0.1,17.4-9.7,26-14.4
								C54.3,37.1,44.3,4.5,39.1,1.4z"/>
						</g>
						<g id="Grupo_133685" transform="translate(22.748 21.419)">
							<path id="Trazado_190512" class="st22" d="M11.7,13.5c0,0-4.2,1.5-7,0.2C2,12.5,0,8.1,0,8.1C1.2,8,2.5,7,3.6,0l0.5,0.2
								l8.7,3.1c0,0-0.6,2.8-1,5.4C11.4,11,11.2,13.1,11.7,13.5z"/>
						</g>
						<g id="Grupo_133686" transform="translate(26.845 21.605)">
							<path id="Trazado_190513" class="st28" d="M8.7,3.1c0,0-0.3,1.5-0.9,4.3C4,6.8,0.9,3.8,0,0L8.7,3.1z"/>
						</g>
						<g id="Grupo_133687" transform="translate(25.975 6.571)">
							<path id="Trazado_190514" class="st22" d="M10.9,20.9c0,0-11.9-1.6-10.8-9S0.4-0.6,8,0.1s8.7,3.8,8.9,6.3S14,21.2,10.9,20.9z
								"/>
						</g>
						<g id="Grupo_133688" transform="translate(22.562 5.918)">
							<path id="Trazado_190515" class="st8" d="M19.9,3c0,0-7.6,6.6-12.8,7.1S0,8.9,0,8.9c2.1-1.9,3.7-4.1,4.9-6.6
								c0.5-1.2,1.7-2,3-2.1C11.6-0.2,18.6-0.3,19.9,3z"/>
						</g>
						<g id="Grupo_133689" transform="translate(37.747 6.882)">
							<path id="Trazado_190516" class="st8" d="M0,1.4c1.3,1.3,2.4,2.7,3.3,4.3c0.8,2.5,1,5.1,0.4,7.7c0,0,4-7.7,1.7-11.5
								C3.1-2.1,0,1.4,0,1.4z"/>
						</g>
						<g id="Grupo_133690" transform="translate(12.527 29.226)">
							<path id="Trazado_190517" class="st24" d="M31.9,23.2c-0.4,24.1-0.1,19.1-2.7,21.3c-0.6,0.5-2.4,0.9-4.8,1
								C17,46,4.1,44.8,3.6,43.5C1.9,38.7,3.1,37.3,1.6,30c-0.1-0.8-0.3-1.6-0.5-2.5c-1.2-5-2.3-6.7,1.9-14.6
								C6.8,5.7,10.7-0.2,11.1,0C21.2,6,22,1,22,1S32.1,11.4,31.9,23.2z"/>
						</g>
						<g id="Grupo_133691" transform="translate(54.408 97.863)">
							<path id="Trazado_190518" class="st25" d="M15.8,16.7L8.1,37.5c-1.4,0.1-2.8,0-4.1-0.4c-1.4-0.5-2.7-1.1-4-1.9
								c0,0,2.2-22.4,6.2-35.2L15.8,16.7z"/>
						</g>
						<g id="Grupo_133692" transform="translate(34.504 30.187)">
							<path id="Trazado_190519" class="st24" d="M0,0c0,0,10.4,1.8,11.6,6.2s5.2,31.5,5.2,31.5s-2.9,2.8-5.4,0.4S3.8,12.8,3.8,12.8
								L0,0z"/>
						</g>
						<g id="Grupo_133693" transform="translate(14.168 49.227)">
							<path id="Trazado_190520" class="st8" d="M22.8,25.6C15.4,26,2.4,24.8,1.9,23.5C0.2,18.7,1.4,17.3,0,10L3.6,0
								c0,0-0.6,11.2,2.7,14.1s13.5,5.7,15.1,8.1C22.1,23.2,22.5,24.4,22.8,25.6z"/>
						</g>
						<g id="Grupo_133694" transform="translate(28.491 68.956)">
							<path id="Trazado_190521" class="st22" d="M0,1.1c0,0,7.3-1.6,8.5-1s4,3,4.4,3.8s-2.6-0.6-3.6-0.9c-1.1,0-2.1,0.3-3.1,0.7
								C4.4,4.5,2.5,4.7,0.6,4.3L0,1.1z"/>
						</g>
						<g id="Grupo_133695" transform="translate(0 29.226)">
							<path id="Trazado_190522" class="st24" d="M23.6,0c0,0-9.8,0.6-13.2,5.3C5.7,12-3.8,40.3,1.6,44.1c6.1,4.3,27.8,1.1,27.8,1.1
								s0.7-3.4-0.3-5s-17.3-4.3-18.1-5s9.4-14.7,9.4-16.9S23.6,0,23.6,0z"/>
						</g>
						<g id="Grupo_133696" transform="translate(37.307 71.137)">
							<path id="Trazado_190523" class="st22" d="M0,0c0.6,0.8,1.3,1.5,2,2.2c0.3,0.1,0.5,0.2,0.8,0.2l-1-1.9L0,0z"/>
						</g>
						<g id="Grupo_133697" transform="translate(36.956 69.108)">
							<path id="Trazado_190524" class="st22" d="M0,0l4.4,2.2C4.3,2.4,4,2.5,3.7,2.4C3,2.3,2.4,2.1,1.8,1.9L0,0z"/>
						</g>
					</g>
					<g id="Grupo_133699" transform="translate(28.489 74.174)">
						<path id="Trazado_190525" class="st8" d="M46.4,0L0,0v1l46,0L46.4,0z"/>
					</g>
					<g id="Grupo_133700" transform="translate(39.335 48.932)">
						<path id="Trazado_190526" class="st8" d="M0,26.3l35.1,0L45.7,0L10.6,0L0,26.3z"/>
					</g>
					<g id="Grupo_133701" transform="translate(62.182 60.401)">
						<path id="Trazado_190527" class="st4" d="M3.4,1.7c0.3-0.6,0-1.3-0.7-1.6C2.6,0,2.4,0,2.2,0c-1,0.1-1.9,0.7-2.2,1.7
							c-0.3,0.6,0,1.3,0.7,1.6c0.2,0.1,0.3,0.1,0.5,0.1C2.3,3.3,3.1,2.6,3.4,1.7z"/>
					</g>
				</g>
				<g id="Grupo_133703" transform="translate(216.314 140.716)" class="st19">
					<path id="Trazado_190528" class="st20" d="M70.6,21.3L60.9,8.9l-0.5-0.6l-0.5-0.1L15.1,0L0,82l58.1,10.7L71,22.5l0.1-0.6
						L70.6,21.3z"/>
				</g>
				<g id="Grupo_133705" transform="translate(198.294 125.658)">
					<g id="Grupo_133704">
						<path id="Trazado_190529" class="st17" d="M59.5,11l0,0.6l2.8,71.3L3.2,85.1L0,1.8L45.6,0l0.6,0l0.6,0.5l12.2,10L59.5,11z"/>
					</g>
				</g>
				<g id="Grupo_133720" transform="translate(170.404 149.381)">
					<g id="Grupo_133706" transform="translate(0 5.633)">
						<path id="Trazado_190530" class="st29" d="M98.9,0L0.3,5.5C0.1,5.5,0,5.7,0,5.9c0,0,0,0,0,0l7.2,129.1c0,0.2,0.2,0.4,0.4,0.3
							l0,0l98.4-5.5c0.2,0,0.4-0.2,0.3-0.4c0,0,0,0,0,0L99.1,0.2C99.1,0.1,99,0,98.9,0z"/>
					</g>
					<g id="Grupo_133707" transform="translate(3.288 8.832)">
						<path id="Trazado_190531" class="st30" d="M95.4,122.5l-83.5,5.2c-2.5,0.2-4.7-1.7-4.8-4.2L0,10.1c-0.2-2.5,1.7-4.7,4.2-4.8
							L87.7,0c2.5-0.2,4.7,1.7,4.8,4.2l7.1,113.4C99.8,120.2,97.9,122.4,95.4,122.5z"/>
					</g>
					<g id="Grupo_133718" transform="translate(13.12 26.142)">
						<g id="Grupo_133708">
							<path id="Trazado_190532" class="st7" d="M52.6,1.4L0.1,4.7c0,0,0,0-0.1,0c0,0,0,0,0,0L0,3.4c0,0,0,0,0-0.1c0,0,0,0,0,0
								L52.6,0c0,0,0,0,0.1,0c0,0,0,0,0,0L52.6,1.4C52.7,1.4,52.7,1.4,52.6,1.4C52.6,1.4,52.6,1.4,52.6,1.4z"/>
						</g>
						<g id="Grupo_133709" transform="translate(0.708 11.275)">
							<path id="Trazado_190533" class="st7" d="M52.6,1.4L0.1,4.7c0,0,0,0-0.1,0L0,3.4c0,0,0,0,0-0.1c0,0,0,0,0,0L52.6,0
								c0,0,0,0,0.1,0L52.6,1.4C52.7,1.4,52.7,1.4,52.6,1.4L52.6,1.4z"/>
						</g>
						<g id="Grupo_133710" transform="translate(0.354 4.379)">
							<path id="Trazado_190534" class="st7" d="M72.7,1.4L0.1,6c0,0,0,0-0.1,0c0,0,0,0,0,0L0,4.6c0,0,0,0,0-0.1L72.6,0
								c0,0,0,0,0.1,0L72.7,1.4C72.8,1.4,72.7,1.4,72.7,1.4z"/>
						</g>
						<g id="Grupo_133711" transform="translate(4.813 47.122)">
							<path id="Trazado_190535" class="st7" d="M35.8,1.4L0.2,3.6L0.1,3.5L0,2.4l0.1-0.1L35.7,0l0.1,0.1l0.1,1.2L35.8,1.4z"/>
						</g>
						<g id="Grupo_133712" transform="translate(4.46 40.628)">
							<path id="Trazado_190536" class="st7" d="M49.4,1.4L0.2,4.5L0.1,4.4L0,3.2l0.1-0.1L49.3,0l0.1,0.1l0.1,1.2L49.4,1.4z"/>
						</g>
						<g id="Grupo_133713" transform="translate(4.959 52.355)">
							<path id="Trazado_190537" class="st7" d="M52.6,1.4L0.1,4.7c0,0,0,0-0.1,0c0,0,0,0,0,0L0,3.3c0,0,0,0,0-0.1c0,0,0,0,0,0
								L52.6,0c0,0,0,0,0.1,0L52.6,1.4C52.7,1.4,52.7,1.4,52.6,1.4C52.6,1.4,52.6,1.4,52.6,1.4z"/>
						</g>
						<g id="Grupo_133714" transform="translate(5.317 57.629)">
							<path id="Trazado_190538" class="st7" d="M58.4,1.4L0.2,5.1L0.1,5L0,3.8l0.1-0.1L58.4,0l0.1,0.1l0.1,1.2L58.4,1.4z"/>
						</g>
						<g id="Grupo_133715" transform="translate(6.258 68.813)">
							<path id="Trazado_190539" class="st7" d="M37.6,1.4L0.2,3.8L0.1,3.7L0,2.5l0.1-0.1L37.5,0l0.1,0.1l0.1,1.2L37.6,1.4z"/>
						</g>
						<g id="Grupo_133716" transform="translate(6.967 80.088)">
							<path id="Trazado_190540" class="st7" d="M37.6,1.4L0.2,3.8L0.1,3.7L0,2.5l0.1-0.1L37.5,0l0.1,0.1l0.1,1.2L37.6,1.4z"/>
						</g>
						<g id="Grupo_133717" transform="translate(6.613 73.55)">
							<path id="Trazado_190541" class="st7" d="M52,1.4L0.2,4.7L0.1,4.6L0,3.4l0.1-0.1L51.9,0L52,0.1l0.1,1.2L52,1.4z"/>
						</g>
					</g>
					<g id="Grupo_133719" transform="translate(20.875)">
						<path id="Trazado_190542" class="st31" d="M51.2,0l-46,2.6C2.3,2.6,0,5,0,8l0.4,6.9c0.1,0.7,0.7,1.2,1.3,1.1l54.4-3
							c0.7,0,1.2-0.6,1.2-1.2l-0.4-6.9C56.7,1.9,54.1-0.3,51.2,0z"/>
					</g>
				</g>
				<g id="Grupo_133739" transform="translate(268.279 142.192)">
					<g id="Grupo_133721" transform="translate(0 58.407)">
						<path id="Trazado_190543" class="st22" d="M6.9,6.6c0,0-1-2.1-1.6-3.2S2-0.6,1.6,0.1s-2.2,5.2-1.3,6.5S0.2,10.1,5,11.4
							L6.9,6.6z"/>
					</g>
					<g id="Grupo_133722" transform="translate(4.333 51.429)">
						<path id="Trazado_190544" class="st25" d="M55.4,0c0,0-24.3,20.3-33.8,18.4C14.1,17,2.4,13.2,2.4,13.2s-3.1,2.9-2.2,6.5
							c0,0,14.9,14.1,25.6,14.2c16.6,0.1,24.5-8.2,24.5-8.2L55.4,0z"/>
					</g>
					<g id="Grupo_133723" transform="translate(74.379 262.06)">
						<path id="Trazado_190545" class="st32" d="M28,3.7c0,0-0.7,11.4-2.9,11.6c-0.3,0-11.2,0-11.2,0L0,15.2c0,0,0.1-3.3,4.2-4.1
							S15,7.5,17.5,2.2C20.1-3.5,28,3.7,28,3.7z"/>
					</g>
					<g id="Grupo_133724" transform="translate(56.013 125.805)">
						<path id="Trazado_190546" class="st33" d="M47.2,140.7c-2.4,0.8-5,1.3-7.5,1.4c-2.4,0-4.7-0.4-7-1c0,0-0.8-7.7-5.2-24.6
							c-2.3-8.9-5.6-20.3-10.2-34.5C4.3,42.7,0.4,19.8,0,17.6c0-0.1,0-0.2,0-0.2l0,0L39.7,0c0,0-4.9,54.1,1.4,74.8
							c0.9,3.3,1.7,6.6,2.3,9.9C47.3,107.3,47.2,140.7,47.2,140.7z"/>
					</g>
					<g id="Grupo_133725" transform="translate(56.04 125.805)">
						<path id="Trazado_190547" class="st8" d="M27.4,116.5c-2.3-8.9-5.6-20.3-10.2-34.5C4.3,42.7,0.4,19.8,0,17.6
							c0-0.1,0-0.1,0-0.2L39.7,0c0,0-4.9,54.1,1.4,74.8C41.9,77.7,27.4,116.5,27.4,116.5z"/>
					</g>
					<g id="Grupo_133726" transform="translate(43.414 262.06)">
						<path id="Trazado_190548" class="st34" d="M28,3.7c0,0-0.7,11.4-2.9,11.6c-0.3,0-11.2,0-11.2,0L0,15.2c0,0,0.1-3.3,4.2-4.1
							S15,7.5,17.5,2.2C20.1-3.5,28,3.7,28,3.7z"/>
					</g>
					<g id="Grupo_133727" transform="translate(48.923 127.079)">
						<path id="Trazado_190549" class="st33" d="M0,0c0,26.1,1.9,52.2,5.5,78.1c6.1,43,4,61.3,4,61.3c1.9,0.6,3.9,1.1,5.8,1.5
							c2.9,0.1,5.9-0.2,8.7-1c0,0,8.7-43,6.2-64.6S42.2,1.4,42.2,1.4L0,0z"/>
					</g>
					<g id="Grupo_133728" transform="translate(60.608 27.748)">
						<path id="Trazado_190550" class="st22" d="M16.4,17.3l-7.7,5.1l-7-2C0.4,18.6,0,15,0,12c0-1.9,0.1-3.8,0.3-5.6l10.4-4.6
							L14.6,0c0,0.1-0.3,3.2-0.3,3.7C13.8,8.3,14.5,13,16.4,17.3z"/>
					</g>
					<g id="Grupo_133729" transform="translate(48.597 42.131)">
						<path id="Trazado_190551" class="st26" d="M0.2,94.7c9.6,9.3,46.1,7.7,48.3-2.5S46,5,29.6,0.1C26.2-0.9,7.9,5,7.9,5
							c-2,5.5-3.6,11.2-4.7,17C2.8,23.9,1.8,43.6,1,62c-0.4,8.6-0.7,16.9-0.8,23C0,90.7,0,94.5,0.2,94.7z"/>
					</g>
					<g id="Grupo_133730" transform="translate(60.608 29.463)">
						<path id="Trazado_190552" class="st35" d="M13.5,2.1C11.4,5.7,3.9,8.8,0,10.2c0-1.9,0.1-3.8,0.3-5.6L10.7,0
							C13,0,14.4,0.5,13.5,2.1z"/>
					</g>
					<g id="Grupo_133731" transform="translate(54.845 5.748)">
						<path id="Trazado_190553" class="st22" d="M2.1,27.7c0,0,16.8,5.2,19.9-5.3s7.4-16.9-3.2-20.7S4.9,1.3,3,4.5
							S-2.2,26.1,2.1,27.7z"/>
					</g>
					<g id="Grupo_133732" transform="translate(56.934)">
						<path id="Trazado_190554" class="st36" d="M1.6,9.3c0,0,1.1,12.3,3.6,11.7s5.3-1.7,5,2s2.5,10,6.1,10
							c7.8,0,16.3-20.1,14.2-23.9C24.3-1.9-7.4-4.1,1.6,9.3z"/>
					</g>
					<g id="Grupo_133733" transform="translate(56.517 37.346)">
						<path id="Trazado_190555" class="st25" d="M4.5,5.2C4.7,5.1,17-0.4,18.4,0s3.2,4.9,3.2,4.9L0,9.8C0,9.8,1.7,6.3,4.5,5.2z"/>
					</g>
					<g id="Grupo_133734" transform="translate(48.703 63.918)">
						<path id="Trazado_190556" class="st25" d="M0,63.2C38,36.1,34.9,0,34.9,0C21,7.8,7.2,25.2,0.8,40.2C0.5,48.8,0.2,57.1,0,63.2z
							"/>
					</g>
					<g id="Grupo_133737" transform="translate(0.266 47.145)">
						<g id="Grupo_133735" transform="translate(0 64.671)">
							<path id="Trazado_190557" class="st22" d="M10.9,3C9.1,2.5,7.4,1.4,6.1,0c0,0-1.1,0.1,0.2,2.5c0.1,0.2,0.4,0.7,0.5,1.1
								c0.1,0.1,0,0.3-0.1,0.3c0,0-0.1,0-0.1,0C5.1,4.1,3.5,3.5,0.5,4.1C0.1,4.2,0,5.2,0,5.6c-0.1,0.9,0.2,1.9,0.8,2.6
								c0.5,0.6,1.8,1.3,4.8,2.5c1.1,0.5,4.4,0.1,7.4-0.9l2.4-1.1l-0.8-4.5l-0.6,0.1C13.1,4.4,11.9,3.2,10.9,3z"/>
						</g>
						<g id="Grupo_133736" transform="translate(13.707)">
							<path id="Trazado_190558" class="st26" d="M57.8,0c0,0,34.2,6.5-10,56C40.7,63.9,2.5,74.2,2.5,74.2s-3.9-3.3-1.9-6
								c0,0,26.3-19.1,32.1-22.1C35.2,44.7,42.7,15.6,47,8.6C49.4,4.5,53.2,1.4,57.8,0z"/>
						</g>
					</g>
					<g id="Grupo_133738" transform="translate(1.298 57.269)">
						<path id="Trazado_190559" class="st22" d="M4.6,8.3c-0.6-1-1-2.1-1.3-3.3c-0.5-1.8-1.2-3.4-2.2-5C0.9-0.2,0.1,0.1,0,1.1
							c0,0.7,0.2,1.5,0.5,2.2c0.6,1.5,0.5,3.6,0.7,4.3C1.8,9.3,4.6,8.3,4.6,8.3z"/>
					</g>
				</g>
			</g>
		</g>
		<g id="Grupo_133744" transform="translate(-2214.939 931.109)">
			<path id="Trazado_188386" class="st37" d="M15.7,242.8c0,0-1.3,9.2-3.6,12.2c-1.2,1.2-2.2,2.6-3.1,4.1c-1.4,2.8-0.6,7,0.4,9.3
				c0.5,1.2,0,1.2,1.2,1.6c3.7,1.1,7.6-0.8,9.1-4.3c1.1-2.5,1.7-5.1,1.8-7.9c0.4-8.4,3-12.6,3-12.6L15.7,242.8z"/>
			<path id="Trazado_188387" class="st37" d="M55.5,247c0,0,0.8,10.4,0.2,13.8c-0.4,1.8-2.3,5.5-1.4,7.2c0.4,0.9,1.1,1.6,1.9,2.1
				l23.5,0.4c1.3,0,0.4-0.8-0.6-1.6c-1.7-1.2-3.1-2.1-8.4-4.7c-0.4-0.2-1.6-1-2.1-1.3c-1.3-0.8-2.4-1.8-3.4-3
				c-1.7-1.9-1.8-11-1.8-11L55.5,247z"/>
			<path id="Trazado_188388" class="st38" d="M73.9,108.8c0,0,3,16.9,1,27.9S63.6,250.4,63.6,250.4L53.3,251c0,0-2.2-42.8-1.8-48.8
				s3.5-15.9,3.5-15.9l-1-34.6L67,106.2L73.9,108.8z"/>
			<path id="Trazado_188389" class="st39" d="M43.4,105.3c0,0-8.2,12.3-10.1,22.6s1.4,41.6-2.3,55c-2,7.2-9.7,18.4-10.8,27.8
				s-5.7,33.9-5.7,33.9l10.4,2.1l24.1-61.3L67.7,130l4.8-28.5L43.4,105.3z"/>
			<path id="Trazado_188390" class="st40" d="M20.4,263.8c-5.6,1-9.4-2.3-11.3-4.8c-1.4,2.8-2.1,7-1.1,9.3c0.9,2,3.6,2,5.8,2.1
				c2.2,0,4.2-1.2,5.1-3.2C19.5,266.2,20,265,20.4,263.8z"/>
			<path id="Trazado_188391" class="st40" d="M68.5,263c-4.4,1.3-9.1,1.1-13.4-0.5c-0.7,1.9-1.5,4.3-1.1,5.6
				c0.6,1.7,1.4,2.1,2.1,2.1c5.7,0.2,20.8,0.4,25.1,0.4c0.4,0,0.7-0.3,0.7-0.7c0-0.2-0.1-0.3-0.2-0.5C80.8,268.1,69,263.3,68.5,263z
				"/>
			<path id="Trazado_188392" class="st41" d="M111,79.7c0.4-0.9-4.1-2.2-4.3-3.2s6-0.4,6.3-1.3c0.6-1.5-6.7-1-6.4-1.7s7.6-1.6,7-2.9
				s-7.6,1.7-7.7,0.8s6.7-2.3,6.8-4.1c0-1-11.4,3.8-12.6,3.2s1.9-5.1,1-5.9s-4.9,8.4-5.7,8.7s-16.4,5-21.7,5.8
				c-0.4-1.8-4.5-11.7-4.8-13.4c-3.1,1.8-7.1-0.4-10.3,1.2c1.6,5.7,5.2,24.4,6.7,25.2c4.4,2.6,27.6-9.7,31.4-11.8s5.8-1.1,8.3-1.7
				S110.6,80.6,111,79.7z"/>
			<path id="Trazado_188393" class="st42" d="M69.8,24.6C71,19.3,72.1,14,69.1,8.1c-2.3-4.5-6.7-7.5-11.8-8
				C43.2-1.5,46.2,11.6,26.6,14.5c-6.1,0.9-11.8,1.7-16.9,4.8C0.4,24.7-3,33.6,3.1,47.9c15,35.2,50.8,4.6,56.3-1.6
				C64.8,40.1,69.1,28,69.8,24.6z"/>
			<path id="Trazado_188394" class="st40" d="M47.7,41.3c0,0-7.1,0.8-11.4,5.4s6.9,41.8,7.6,47.7s-7.4,22.2-7.4,22.2
				s27.8,5.5,35,0.8c0,0,0.6-45.5-0.1-49.7s-7.2-21.3-8.8-23S47.7,41.3,47.7,41.3z"/>
			<path id="Trazado_188395" class="st37" d="M51.2,27c0,0-0.1,0.3-0.2,0.9c-0.5,2.6-2.3,11.1-3.6,13.5c-1.5,2.8,5.2,11.9,11.6,10.8
				c1.9-0.3-1.6-8.3-1.4-9.2c0.3-1.6,0.8-3.8,1.2-6.1c0.3-1.3,0.5-2.6,0.8-3.8c0.7-3.5,1.2-6.3,1.2-6.3L51.2,27z"/>
			<path id="Trazado_188396" class="st43" d="M51.1,27.8c0.1-0.5,0.2-0.9,0.2-0.9l9.6-0.2c0,0-0.6,2.8-1.2,6.3l-0.7,3.8
				c-1.7-0.3-3.3-1.1-4.6-2.3c-1.6-1.4-2.8-3.2-3.5-5.2C50.9,28.7,51,28.2,51.1,27.8z"/>
			<path id="Trazado_188397" class="st37" d="M57,4.1c-2.7,0.5-5.1,2-6.8,4.2c-2.8,3.7-5.9,15,1.2,21.2s14-0.8,15.1-8.2
				S67.3,3.8,57,4.1z"/>
			<path id="Trazado_188398" class="st37" d="M68.5,19.4c-0.4,1.8-1.6,3-2.6,2.7s-1.4-2-1-3.8s1.6-3,2.6-2.7S69,17.7,68.5,19.4z"/>
			<path id="Trazado_188399" class="st42" d="M61.4,4.1c0,0-9.2,10.6-13.5,11.1s-4.9,6.2-4.9,6.2s1.6-13.2,5.8-15.8
				S61.4,4.1,61.4,4.1z"/>
			<path id="Trazado_188400" class="st37" d="M49.2,17.8c0.4,1.9-0.4,3.7-1.6,3.9s-2.5-1.1-2.9-3s0.4-3.7,1.6-3.9
				S48.9,15.9,49.2,17.8z"/>
			<path id="Trazado_188401" class="st44" d="M49.1,71.5l29.8,4.4c0.9,0.1,1.5,1,1.4,1.9c0,0,0,0,0,0l-5.8,39.7
				c-0.1,0.9-1,1.5-1.9,1.4l-29.8-4.4c-0.9-0.1-1.5-1-1.4-1.9l5.8-39.7C47.4,72,48.2,71.3,49.1,71.5C49.1,71.5,49.1,71.5,49.1,71.5z
				"/>
			<path id="Trazado_188402" class="st45" d="M71.3,73.4c0-0.2-0.1-0.4-0.3-0.4l-12.4-1.8c-0.2,0-0.3,0.1-0.4,0.3l-0.2,1.3l13.1,1.9
				L71.3,73.4z"/>
			<path id="Trazado_188403" class="st45" d="M65.1,70.6c-1.1-0.2-2.1,0.6-2.2,1.7s0.6,2.1,1.7,2.2c1.1,0.2,2.1-0.6,2.2-1.7
				c0,0,0,0,0,0C66.9,71.7,66.1,70.7,65.1,70.6z M64.6,73.8c-0.7-0.1-1.2-0.7-1.1-1.4s0.7-1.2,1.4-1.1c0.7,0.1,1.2,0.7,1.1,1.4
				C65.9,73.4,65.3,73.9,64.6,73.8L64.6,73.8z"/>
			<path id="Trazado_188404" class="st46" d="M71.2,73.1c0.1,0.1,0.2,0.2,0.2,0.3l-0.2,1.3l-13.1-1.9c-0.1,0.9,0.5,1.7,1.4,1.9
				l9.8,1.4c0.9,0.1,1.7-0.5,1.9-1.4l0.2-1.3C71.3,73.3,71.3,73.2,71.2,73.1z"/>
			<path id="Trazado_188405" class="st4" d="M62.1,24.9l-6.7,0c0.1,1.6,1.5,2.7,3.1,2.6C62,27.7,62.1,24.9,62.1,24.9z"/>
			<path id="Trazado_188406" class="st37" d="M28.2,81.6L39,82.7c0,0-0.2,9.2,0,10.2c0,0,18.5,5.1,26.2,6.5c0,0,3.5-2,4.9-2.6
				c2-0.7,4-1.1,6.1-1.4c0.8-0.1,0.6,0.8-0.2,1.1s-2.6,1.2-3.1,2.3c0.8,0.1,1.6,0,2.3-0.2c0.8-0.4,1.9-1.1,1.9-1.5s0.2-1.3,0.5-1.3
				c0.1,0,0.2,0.3,0.2,0.7s0.2,0.6,0.3,0.9c0.1,0.6,0.3,1.4,0.4,1.8c0,1.3-0.2,2.7-0.4,4c-0.1,1.5-0.6,2.2-1.4,2.6
				c-1.5,0.5-3.1,0.8-4.6,0.9c-3.7,0.4-7-0.7-8.5-0.8s-25-2.5-25-2.5s-9.3-1.3-10-3S28.2,81.6,28.2,81.6z"/>
			<path id="Trazado_188407" class="st40" d="M37.6,45.4c0,0-3.4,1.6-6.4,8.6c-2.8,6.6-3.7,39.7-3.7,39.7l11.3-1.9l5.7-15.4
				c4.1-9.2,3-19.9-2.9-28.1C40,46.1,38.6,44.8,37.6,45.4z"/>
		</g>
	</g>
	<path id="Rectángulo_82793" class="st21" d="M918,2826h405c27.6,0,50,22.4,50,50v13.5c0,27.6-22.4,50-50,50H918
		c-27.6,0-50-22.4-50-50V2876C868,2848.4,890.4,2826,918,2826z"/>
	<g class="st47">
		<path class="st4" d="M924.9,2870.1h-4.5v3.1h5.3v1.9H918v-11.4h7.6v1.9h-5.3v2.7h4.5V2870.1z"/>
		<path class="st4" d="M928.9,2866.5l0.1,1c0.6-0.8,1.4-1.1,2.4-1.1c0.9,0,1.6,0.3,2,0.8s0.7,1.3,0.7,2.4v5.5h-2.3v-5.4
			c0-0.5-0.1-0.8-0.3-1s-0.6-0.3-1-0.3c-0.6,0-1.1,0.3-1.4,0.8v6h-2.3v-8.5H928.9z"/>
		<path class="st4" d="M938.5,2864.5v2.1h1.4v1.7h-1.4v4.2c0,0.3,0.1,0.5,0.2,0.7s0.3,0.2,0.7,0.2c0.2,0,0.5,0,0.7-0.1v1.7
			c-0.4,0.1-0.9,0.2-1.4,0.2c-1.6,0-2.4-0.8-2.4-2.4v-4.6H935v-1.7h1.2v-2.1H938.5z"/>
		<path class="st4" d="M946,2868.7c-0.3,0-0.6-0.1-0.8-0.1c-0.9,0-1.4,0.3-1.7,0.9v5.5h-2.3v-8.5h2.1l0.1,1c0.5-0.8,1.1-1.2,1.9-1.2
			c0.2,0,0.5,0,0.7,0.1L946,2868.7z"/>
		<path class="st4" d="M951.7,2875c-0.1-0.2-0.2-0.5-0.2-0.8c-0.5,0.6-1.3,0.9-2.1,0.9c-0.8,0-1.5-0.2-2.1-0.7s-0.8-1.1-0.8-1.8
			c0-0.9,0.3-1.6,1-2.1s1.6-0.7,2.9-0.7h1v-0.5c0-0.4-0.1-0.7-0.3-0.9s-0.5-0.4-0.9-0.4c-0.4,0-0.7,0.1-0.9,0.3s-0.3,0.4-0.3,0.8
			h-2.3c0-0.5,0.2-0.9,0.5-1.4s0.7-0.7,1.3-1s1.2-0.4,1.9-0.4c1,0,1.9,0.3,2.5,0.8s0.9,1.3,0.9,2.2v3.7c0,0.8,0.1,1.4,0.3,1.8v0.1
			H951.7z M949.9,2873.4c0.3,0,0.6-0.1,0.9-0.2s0.5-0.3,0.6-0.6v-1.5h-0.8c-1.1,0-1.7,0.4-1.8,1.2l0,0.1c0,0.3,0.1,0.5,0.3,0.7
			S949.5,2873.4,949.9,2873.4z"/>
		<path class="st4" d="M955.1,2870.7c0-1.3,0.3-2.4,0.9-3.1s1.4-1.2,2.4-1.2c0.8,0,1.5,0.3,2,0.9v-4.3h2.3v12h-2l-0.1-0.9
			c-0.6,0.7-1.3,1.1-2.2,1.1c-1,0-1.8-0.4-2.4-1.2S955.1,2872.1,955.1,2870.7z M957.3,2870.9c0,0.8,0.1,1.4,0.4,1.8s0.7,0.6,1.2,0.6
			c0.7,0,1.2-0.3,1.5-0.9v-3.4c-0.3-0.6-0.8-0.9-1.5-0.9C957.9,2868.2,957.3,2869.1,957.3,2870.9z"/>
		<path class="st4" d="M969.3,2875c-0.1-0.2-0.2-0.5-0.2-0.8c-0.5,0.6-1.3,0.9-2.1,0.9c-0.8,0-1.5-0.2-2.1-0.7s-0.8-1.1-0.8-1.8
			c0-0.9,0.3-1.6,1-2.1s1.6-0.7,2.9-0.7h1v-0.5c0-0.4-0.1-0.7-0.3-0.9s-0.5-0.4-0.9-0.4c-0.4,0-0.7,0.1-0.9,0.3s-0.3,0.4-0.3,0.8
			h-2.3c0-0.5,0.2-0.9,0.5-1.4s0.7-0.7,1.3-1s1.2-0.4,1.9-0.4c1,0,1.9,0.3,2.5,0.8s0.9,1.3,0.9,2.2v3.7c0,0.8,0.1,1.4,0.3,1.8v0.1
			H969.3z M967.5,2873.4c0.3,0,0.6-0.1,0.9-0.2s0.5-0.3,0.6-0.6v-1.5h-0.8c-1.1,0-1.7,0.4-1.8,1.2l0,0.1c0,0.3,0.1,0.5,0.3,0.7
			S967.1,2873.4,967.5,2873.4z"/>
		<path class="st4" d="M980.1,2871.8l1.6-5.3h2.4l-3.4,9.8l-0.2,0.4c-0.5,1.1-1.3,1.7-2.5,1.7c-0.3,0-0.7,0-1-0.1v-1.7l0.3,0
			c0.4,0,0.7-0.1,1-0.2s0.4-0.3,0.5-0.6l0.3-0.7l-3-8.5h2.4L980.1,2871.8z"/>
		<path class="st4" d="M993.6,2872.7c0-0.3-0.1-0.5-0.4-0.7s-0.7-0.3-1.3-0.4c-2-0.4-3-1.3-3-2.6c0-0.8,0.3-1.4,0.9-1.9
			s1.4-0.8,2.4-0.8c1.1,0,1.9,0.3,2.6,0.8s1,1.2,1,2h-2.3c0-0.3-0.1-0.6-0.3-0.8s-0.5-0.3-1-0.3c-0.4,0-0.7,0.1-0.9,0.3
			s-0.3,0.4-0.3,0.7c0,0.2,0.1,0.5,0.4,0.6s0.6,0.3,1.2,0.4s1,0.2,1.4,0.4c1.2,0.4,1.8,1.2,1.8,2.3c0,0.8-0.3,1.4-1,1.9
			s-1.5,0.7-2.6,0.7c-0.7,0-1.3-0.1-1.9-0.4s-1-0.6-1.3-1s-0.5-0.9-0.5-1.4h2.1c0,0.4,0.2,0.7,0.4,0.9s0.6,0.3,1.1,0.3
			c0.4,0,0.8-0.1,1-0.2S993.6,2872.9,993.6,2872.7z"/>
		<path class="st4" d="M1002.1,2875c-0.1-0.2-0.2-0.5-0.2-0.8c-0.5,0.6-1.3,0.9-2.1,0.9c-0.8,0-1.5-0.2-2.1-0.7s-0.8-1.1-0.8-1.8
			c0-0.9,0.3-1.6,1-2.1s1.6-0.7,2.9-0.7h1v-0.5c0-0.4-0.1-0.7-0.3-0.9s-0.5-0.4-0.9-0.4c-0.4,0-0.7,0.1-0.9,0.3s-0.3,0.4-0.3,0.8
			h-2.3c0-0.5,0.2-0.9,0.5-1.4s0.7-0.7,1.3-1s1.2-0.4,1.9-0.4c1,0,1.9,0.3,2.5,0.8s0.9,1.3,0.9,2.2v3.7c0,0.8,0.1,1.4,0.3,1.8v0.1
			H1002.1z M1000.3,2873.4c0.3,0,0.6-0.1,0.9-0.2s0.5-0.3,0.6-0.6v-1.5h-0.8c-1.1,0-1.7,0.4-1.8,1.2l0,0.1c0,0.3,0.1,0.5,0.3,0.7
			S999.9,2873.4,1000.3,2873.4z"/>
		<path class="st4" d="M1008.2,2875h-2.3v-12h2.3V2875z"/>
		<path class="st4" d="M1010,2864.4c0-0.3,0.1-0.6,0.3-0.8s0.5-0.3,0.9-0.3c0.4,0,0.7,0.1,0.9,0.3s0.3,0.5,0.3,0.8
			c0,0.3-0.1,0.6-0.3,0.8s-0.5,0.3-0.9,0.3s-0.7-0.1-0.9-0.3S1010,2864.7,1010,2864.4z M1012.4,2875h-2.3v-8.5h2.3V2875z"/>
		<path class="st4" d="M1013.9,2870.7c0-1.3,0.3-2.4,0.9-3.1s1.4-1.2,2.4-1.2c0.8,0,1.5,0.3,2,0.9v-4.3h2.3v12h-2l-0.1-0.9
			c-0.6,0.7-1.3,1.1-2.2,1.1c-1,0-1.8-0.4-2.4-1.2S1013.9,2872.1,1013.9,2870.7z M1016.2,2870.9c0,0.8,0.1,1.4,0.4,1.8
			s0.7,0.6,1.2,0.6c0.7,0,1.2-0.3,1.5-0.9v-3.4c-0.3-0.6-0.8-0.9-1.5-0.9C1016.7,2868.2,1016.2,2869.1,1016.2,2870.9z"/>
		<path class="st4" d="M1028.2,2875c-0.1-0.2-0.2-0.5-0.2-0.8c-0.5,0.6-1.3,0.9-2.1,0.9c-0.8,0-1.5-0.2-2.1-0.7s-0.8-1.1-0.8-1.8
			c0-0.9,0.3-1.6,1-2.1s1.6-0.7,2.9-0.7h1v-0.5c0-0.4-0.1-0.7-0.3-0.9s-0.5-0.4-0.9-0.4c-0.4,0-0.7,0.1-0.9,0.3s-0.3,0.4-0.3,0.8
			h-2.3c0-0.5,0.2-0.9,0.5-1.4s0.7-0.7,1.3-1s1.2-0.4,1.9-0.4c1,0,1.9,0.3,2.5,0.8s0.9,1.3,0.9,2.2v3.7c0,0.8,0.1,1.4,0.3,1.8v0.1
			H1028.2z M1026.3,2873.4c0.3,0,0.6-0.1,0.9-0.2s0.5-0.3,0.6-0.6v-1.5h-0.8c-1.1,0-1.7,0.4-1.8,1.2l0,0.1c0,0.3,0.1,0.5,0.3,0.7
			S1026,2873.4,1026.3,2873.4z"/>
		<path class="st4" d="M1035.5,2870.7c0-1.3,0.3-2.4,0.9-3.1s1.4-1.2,2.4-1.2c0.8,0,1.5,0.3,2,0.9v-4.3h2.3v12h-2l-0.1-0.9
			c-0.6,0.7-1.3,1.1-2.2,1.1c-1,0-1.8-0.4-2.4-1.2S1035.5,2872.1,1035.5,2870.7z M1037.8,2870.9c0,0.8,0.1,1.4,0.4,1.8
			s0.7,0.6,1.2,0.6c0.7,0,1.2-0.3,1.5-0.9v-3.4c-0.3-0.6-0.8-0.9-1.5-0.9C1038.3,2868.2,1037.8,2869.1,1037.8,2870.9z"/>
		<path class="st4" d="M1048.8,2875.2c-1.2,0-2.2-0.4-3-1.1s-1.2-1.8-1.2-3v-0.2c0-0.8,0.2-1.6,0.5-2.3s0.8-1.2,1.4-1.5
			s1.3-0.5,2.1-0.5c1.2,0,2.1,0.4,2.7,1.1s1,1.8,1,3.1v0.9h-5.4c0.1,0.6,0.3,1,0.7,1.3s0.8,0.5,1.4,0.5c0.9,0,1.5-0.3,2-0.9l1.1,1.2
			c-0.3,0.5-0.8,0.9-1.4,1.1S1049.5,2875.2,1048.8,2875.2z M1048.5,2868.2c-0.4,0-0.8,0.2-1.1,0.5s-0.5,0.7-0.5,1.3h3.1v-0.2
			c0-0.5-0.1-0.9-0.4-1.2S1049,2868.2,1048.5,2868.2z"/>
		<path class="st4" d="M1061.4,2875.2c-1.2,0-2.2-0.4-3-1.1s-1.2-1.8-1.2-3v-0.2c0-0.8,0.2-1.6,0.5-2.3s0.8-1.2,1.4-1.5
			s1.3-0.5,2.1-0.5c1.2,0,2.1,0.4,2.7,1.1s1,1.8,1,3.1v0.9h-5.4c0.1,0.6,0.3,1,0.7,1.3s0.8,0.5,1.4,0.5c0.9,0,1.5-0.3,2-0.9l1.1,1.2
			c-0.3,0.5-0.8,0.9-1.4,1.1S1062.1,2875.2,1061.4,2875.2z M1061.2,2868.2c-0.4,0-0.8,0.2-1.1,0.5s-0.5,0.7-0.5,1.3h3.1v-0.2
			c0-0.5-0.1-0.9-0.4-1.2S1061.6,2868.2,1061.2,2868.2z"/>
		<path class="st4" d="M1065.8,2870.7c0-1.3,0.3-2.4,0.9-3.1s1.4-1.2,2.4-1.2c0.9,0,1.6,0.3,2.2,1l0.1-0.9h2v11.7h-2.3v-4
			c-0.5,0.6-1.2,0.9-2,0.9c-1,0-1.8-0.4-2.4-1.2S1065.8,2872.1,1065.8,2870.7z M1068.1,2870.9c0,0.8,0.1,1.4,0.4,1.8
			s0.7,0.6,1.2,0.6c0.7,0,1.2-0.3,1.5-0.8v-3.5c-0.3-0.5-0.8-0.8-1.5-0.8c-0.5,0-0.9,0.2-1.2,0.6S1068.1,2869.9,1068.1,2870.9z"/>
		<path class="st4" d="M1080.3,2874.1c-0.6,0.7-1.3,1-2.3,1c-0.9,0-1.6-0.3-2.1-0.8s-0.7-1.3-0.7-2.3v-5.5h2.3v5.5
			c0,0.9,0.4,1.3,1.2,1.3c0.8,0,1.3-0.3,1.6-0.8v-6h2.3v8.5h-2.1L1080.3,2874.1z"/>
		<path class="st4" d="M1084.1,2864.4c0-0.3,0.1-0.6,0.3-0.8s0.5-0.3,0.9-0.3c0.4,0,0.7,0.1,0.9,0.3s0.3,0.5,0.3,0.8
			c0,0.3-0.1,0.6-0.3,0.8s-0.5,0.3-0.9,0.3s-0.7-0.1-0.9-0.3S1084.1,2864.7,1084.1,2864.4z M1086.5,2875h-2.3v-8.5h2.3V2875z"/>
		<path class="st4" d="M1096,2870.9c0,1.3-0.3,2.3-0.9,3.1s-1.4,1.2-2.4,1.2c-0.9,0-1.5-0.3-2.1-0.9v4h-2.3v-11.7h2.1l0.1,0.8
			c0.5-0.7,1.3-1,2.1-1c1,0,1.9,0.4,2.4,1.2s0.9,1.8,0.9,3.2V2870.9z M1093.8,2870.7c0-0.8-0.1-1.4-0.4-1.8s-0.7-0.6-1.2-0.6
			c-0.7,0-1.2,0.3-1.5,0.8v3.5c0.3,0.6,0.8,0.8,1.5,0.8C1093.2,2873.3,1093.8,2872.5,1093.8,2870.7z"/>
		<path class="st4" d="M1097.1,2870.7c0-0.8,0.2-1.6,0.5-2.2s0.8-1.2,1.4-1.5s1.3-0.5,2.1-0.5c1.1,0,2.1,0.3,2.8,1s1.1,1.6,1.2,2.8
			l0,0.6c0,1.3-0.4,2.3-1.1,3.1s-1.7,1.2-2.9,1.2s-2.2-0.4-2.9-1.2s-1.1-1.8-1.1-3.2V2870.7z M1099.3,2870.9c0,0.8,0.2,1.4,0.5,1.8
			s0.7,0.6,1.3,0.6c0.5,0,1-0.2,1.3-0.6s0.5-1.1,0.5-2c0-0.8-0.2-1.4-0.5-1.8s-0.7-0.6-1.3-0.6c-0.6,0-1,0.2-1.3,0.6
			S1099.3,2870,1099.3,2870.9z"/>
		<path class="st4" d="M1111,2872.7c0-0.3-0.1-0.5-0.4-0.7s-0.7-0.3-1.3-0.4c-2-0.4-3-1.3-3-2.6c0-0.8,0.3-1.4,0.9-1.9
			s1.4-0.8,2.4-0.8c1.1,0,1.9,0.3,2.6,0.8s1,1.2,1,2h-2.3c0-0.3-0.1-0.6-0.3-0.8s-0.5-0.3-1-0.3c-0.4,0-0.7,0.1-0.9,0.3
			s-0.3,0.4-0.3,0.7c0,0.2,0.1,0.5,0.4,0.6s0.6,0.3,1.2,0.4s1,0.2,1.4,0.4c1.2,0.4,1.8,1.2,1.8,2.3c0,0.8-0.3,1.4-1,1.9
			s-1.5,0.7-2.6,0.7c-0.7,0-1.3-0.1-1.9-0.4s-1-0.6-1.3-1s-0.5-0.9-0.5-1.4h2.1c0,0.4,0.2,0.7,0.4,0.9s0.6,0.3,1.1,0.3
			c0.4,0,0.8-0.1,1-0.2S1111,2872.9,1111,2872.7z"/>
		<path class="st4" d="M1118.7,2864.4c0-0.3,0.1-0.6,0.3-0.8s0.5-0.3,0.9-0.3c0.4,0,0.7,0.1,0.9,0.3s0.3,0.5,0.3,0.8
			c0,0.3-0.1,0.6-0.3,0.8s-0.5,0.3-0.9,0.3s-0.7-0.1-0.9-0.3S1118.7,2864.7,1118.7,2864.4z M1121.1,2875h-2.3v-8.5h2.3V2875z"/>
		<path class="st4" d="M1125,2866.5l0.1,1c0.6-0.8,1.4-1.1,2.4-1.1c0.9,0,1.6,0.3,2,0.8s0.7,1.3,0.7,2.4v5.5h-2.3v-5.4
			c0-0.5-0.1-0.8-0.3-1s-0.6-0.3-1-0.3c-0.6,0-1.1,0.3-1.4,0.8v6h-2.3v-8.5H1125z"/>
		<path class="st4" d="M1132.5,2875v-6.8h-1.3v-1.7h1.3v-0.7c0-0.9,0.3-1.7,0.8-2.2s1.3-0.8,2.3-0.8c0.3,0,0.7,0.1,1.1,0.2l0,1.7
			c-0.2,0-0.4-0.1-0.7-0.1c-0.8,0-1.3,0.4-1.3,1.2v0.7h1.7v1.7h-1.7v6.8H1132.5z"/>
		<path class="st4" d="M1137.3,2870.7c0-0.8,0.2-1.6,0.5-2.2s0.8-1.2,1.4-1.5s1.3-0.5,2.1-0.5c1.1,0,2.1,0.3,2.8,1s1.1,1.6,1.2,2.8
			l0,0.6c0,1.3-0.4,2.3-1.1,3.1s-1.7,1.2-2.9,1.2s-2.2-0.4-2.9-1.2s-1.1-1.8-1.1-3.2V2870.7z M1139.5,2870.9c0,0.8,0.2,1.4,0.5,1.8
			s0.7,0.6,1.3,0.6c0.5,0,1-0.2,1.3-0.6s0.5-1.1,0.5-2c0-0.8-0.2-1.4-0.5-1.8s-0.7-0.6-1.3-0.6c-0.6,0-1,0.2-1.3,0.6
			S1139.5,2870,1139.5,2870.9z"/>
		<path class="st4" d="M1151.4,2868.7c-0.3,0-0.6-0.1-0.8-0.1c-0.9,0-1.4,0.3-1.7,0.9v5.5h-2.3v-8.5h2.1l0.1,1
			c0.5-0.8,1.1-1.2,1.9-1.2c0.2,0,0.5,0,0.7,0.1L1151.4,2868.7z"/>
		<path class="st4" d="M1154.6,2866.5l0.1,0.9c0.6-0.7,1.4-1.1,2.4-1.1c1.1,0,1.8,0.4,2.2,1.3c0.6-0.9,1.4-1.3,2.5-1.3
			c0.9,0,1.6,0.3,2,0.8s0.7,1.3,0.7,2.4v5.4h-2.3v-5.4c0-0.5-0.1-0.8-0.3-1.1s-0.5-0.3-1-0.3c-0.7,0-1.1,0.3-1.4,1l0,5.8h-2.3v-5.4
			c0-0.5-0.1-0.8-0.3-1.1c-0.2-0.2-0.5-0.3-1-0.3c-0.6,0-1.1,0.3-1.4,0.8v6h-2.3v-8.5H1154.6z"/>
		<path class="st4" d="M1171.2,2875c-0.1-0.2-0.2-0.5-0.2-0.8c-0.5,0.6-1.3,0.9-2.1,0.9c-0.8,0-1.5-0.2-2.1-0.7s-0.8-1.1-0.8-1.8
			c0-0.9,0.3-1.6,1-2.1s1.6-0.7,2.9-0.7h1v-0.5c0-0.4-0.1-0.7-0.3-0.9s-0.5-0.4-0.9-0.4c-0.4,0-0.7,0.1-0.9,0.3s-0.3,0.4-0.3,0.8
			h-2.3c0-0.5,0.2-0.9,0.5-1.4s0.7-0.7,1.3-1s1.2-0.4,1.9-0.4c1,0,1.9,0.3,2.5,0.8s0.9,1.3,0.9,2.2v3.7c0,0.8,0.1,1.4,0.3,1.8v0.1
			H1171.2z M1169.4,2873.4c0.3,0,0.6-0.1,0.9-0.2s0.5-0.3,0.6-0.6v-1.5h-0.8c-1.1,0-1.7,0.4-1.8,1.2l0,0.1c0,0.3,0.1,0.5,0.3,0.7
			S1169,2873.4,1169.4,2873.4z M1170.2,2863h2.5l-2.2,2.4h-1.8L1170.2,2863z"/>
		<path class="st4" d="M1177.6,2864.5v2.1h1.4v1.7h-1.4v4.2c0,0.3,0.1,0.5,0.2,0.7s0.3,0.2,0.7,0.2c0.2,0,0.5,0,0.7-0.1v1.7
			c-0.4,0.1-0.9,0.2-1.4,0.2c-1.6,0-2.4-0.8-2.4-2.4v-4.6h-1.2v-1.7h1.2v-2.1H1177.6z"/>
		<path class="st4" d="M1180.3,2864.4c0-0.3,0.1-0.6,0.3-0.8s0.5-0.3,0.9-0.3c0.4,0,0.7,0.1,0.9,0.3s0.3,0.5,0.3,0.8
			c0,0.3-0.1,0.6-0.3,0.8s-0.5,0.3-0.9,0.3s-0.7-0.1-0.9-0.3S1180.3,2864.7,1180.3,2864.4z M1182.7,2875h-2.3v-8.5h2.3V2875z"/>
		<path class="st4" d="M1188.1,2873.3c0.4,0,0.8-0.1,1-0.3s0.4-0.5,0.4-0.9h2.1c0,0.6-0.2,1.1-0.5,1.6s-0.7,0.8-1.3,1.1
			s-1.1,0.4-1.8,0.4c-1.2,0-2.2-0.4-2.9-1.2s-1-1.8-1-3.2v-0.1c0-1.3,0.3-2.3,1-3.1s1.6-1.2,2.9-1.2c1.1,0,1.9,0.3,2.5,0.9
			s1,1.4,1,2.4h-2.1c0-0.4-0.1-0.8-0.4-1.1c-0.3-0.3-0.6-0.4-1-0.4c-0.5,0-0.9,0.2-1.2,0.6s-0.4,1-0.4,1.9v0.2
			c0,0.9,0.1,1.5,0.4,1.9S1187.5,2873.3,1188.1,2873.3z"/>
		<path class="st4" d="M1192.6,2870.7c0-0.8,0.2-1.6,0.5-2.2s0.8-1.2,1.4-1.5s1.3-0.5,2.1-0.5c1.1,0,2.1,0.3,2.8,1s1.1,1.6,1.2,2.8
			l0,0.6c0,1.3-0.4,2.3-1.1,3.1s-1.7,1.2-2.9,1.2s-2.2-0.4-2.9-1.2s-1.1-1.8-1.1-3.2V2870.7z M1194.8,2870.9c0,0.8,0.2,1.4,0.5,1.8
			s0.7,0.6,1.3,0.6c0.5,0,1-0.2,1.3-0.6s0.5-1.1,0.5-2c0-0.8-0.2-1.4-0.5-1.8s-0.7-0.6-1.3-0.6c-0.6,0-1,0.2-1.3,0.6
			S1194.8,2870,1194.8,2870.9z"/>
		<path class="st4" d="M1206.5,2872.7c0-0.3-0.1-0.5-0.4-0.7s-0.7-0.3-1.3-0.4c-2-0.4-3-1.3-3-2.6c0-0.8,0.3-1.4,0.9-1.9
			s1.4-0.8,2.4-0.8c1.1,0,1.9,0.3,2.6,0.8s1,1.2,1,2h-2.3c0-0.3-0.1-0.6-0.3-0.8s-0.5-0.3-1-0.3c-0.4,0-0.7,0.1-0.9,0.3
			s-0.3,0.4-0.3,0.7c0,0.2,0.1,0.5,0.4,0.6s0.6,0.3,1.2,0.4s1,0.2,1.4,0.4c1.2,0.4,1.8,1.2,1.8,2.3c0,0.8-0.3,1.4-1,1.9
			s-1.5,0.7-2.6,0.7c-0.7,0-1.3-0.1-1.9-0.4s-1-0.6-1.3-1s-0.5-0.9-0.5-1.4h2.1c0,0.4,0.2,0.7,0.4,0.9s0.6,0.3,1.1,0.3
			c0.4,0,0.8-0.1,1-0.2S1206.5,2872.9,1206.5,2872.7z"/>
		<path class="st4" d="M1217.3,2871.8l1.6-5.3h2.4l-3.4,9.8l-0.2,0.4c-0.5,1.1-1.3,1.7-2.5,1.7c-0.3,0-0.7,0-1-0.1v-1.7l0.3,0
			c0.4,0,0.7-0.1,1-0.2s0.4-0.3,0.5-0.6l0.3-0.7l-3-8.5h2.4L1217.3,2871.8z"/>
		<path class="st4" d="M1233.8,2870.9c0,1.3-0.3,2.3-0.9,3.1s-1.4,1.2-2.4,1.2c-0.9,0-1.5-0.3-2.1-0.9v4h-2.3v-11.7h2.1l0.1,0.8
			c0.5-0.7,1.3-1,2.1-1c1,0,1.9,0.4,2.4,1.2s0.9,1.8,0.9,3.2V2870.9z M1231.5,2870.7c0-0.8-0.1-1.4-0.4-1.8s-0.7-0.6-1.2-0.6
			c-0.7,0-1.2,0.3-1.5,0.8v3.5c0.3,0.6,0.8,0.8,1.5,0.8C1231,2873.3,1231.5,2872.5,1231.5,2870.7z"/>
		<path class="st4" d="M1237.6,2875h-2.3v-12h2.3V2875z"/>
		<path class="st4" d="M1244.3,2875c-0.1-0.2-0.2-0.5-0.2-0.8c-0.5,0.6-1.3,0.9-2.1,0.9c-0.8,0-1.5-0.2-2.1-0.7s-0.8-1.1-0.8-1.8
			c0-0.9,0.3-1.6,1-2.1s1.6-0.7,2.9-0.7h1v-0.5c0-0.4-0.1-0.7-0.3-0.9s-0.5-0.4-0.9-0.4c-0.4,0-0.7,0.1-0.9,0.3s-0.3,0.4-0.3,0.8
			h-2.3c0-0.5,0.2-0.9,0.5-1.4s0.7-0.7,1.3-1s1.2-0.4,1.9-0.4c1,0,1.9,0.3,2.5,0.8s0.9,1.3,0.9,2.2v3.7c0,0.8,0.1,1.4,0.3,1.8v0.1
			H1244.3z M1242.5,2873.4c0.3,0,0.6-0.1,0.9-0.2s0.5-0.3,0.6-0.6v-1.5h-0.8c-1.1,0-1.7,0.4-1.8,1.2l0,0.1c0,0.3,0.1,0.5,0.3,0.7
			S1242.1,2873.4,1242.5,2873.4z"/>
		<path class="st4" d="M1250.1,2866.5l0.1,1c0.6-0.8,1.4-1.1,2.4-1.1c0.9,0,1.6,0.3,2,0.8s0.7,1.3,0.7,2.4v5.5h-2.3v-5.4
			c0-0.5-0.1-0.8-0.3-1s-0.6-0.3-1-0.3c-0.6,0-1.1,0.3-1.4,0.8v6h-2.3v-8.5H1250.1z"/>
		<path class="st4" d="M1259.7,2864.5v2.1h1.4v1.7h-1.4v4.2c0,0.3,0.1,0.5,0.2,0.7s0.3,0.2,0.7,0.2c0.2,0,0.5,0,0.7-0.1v1.7
			c-0.4,0.1-0.9,0.2-1.4,0.2c-1.6,0-2.4-0.8-2.4-2.4v-4.6h-1.2v-1.7h1.2v-2.1H1259.7z"/>
		<path class="st4" d="M1267.3,2875c-0.1-0.2-0.2-0.5-0.2-0.8c-0.5,0.6-1.3,0.9-2.1,0.9c-0.8,0-1.5-0.2-2.1-0.7s-0.8-1.1-0.8-1.8
			c0-0.9,0.3-1.6,1-2.1s1.6-0.7,2.9-0.7h1v-0.5c0-0.4-0.1-0.7-0.3-0.9s-0.5-0.4-0.9-0.4c-0.4,0-0.7,0.1-0.9,0.3s-0.3,0.4-0.3,0.8
			h-2.3c0-0.5,0.2-0.9,0.5-1.4s0.7-0.7,1.3-1s1.2-0.4,1.9-0.4c1,0,1.9,0.3,2.5,0.8s0.9,1.3,0.9,2.2v3.7c0,0.8,0.1,1.4,0.3,1.8v0.1
			H1267.3z M1265.4,2873.4c0.3,0,0.6-0.1,0.9-0.2s0.5-0.3,0.6-0.6v-1.5h-0.8c-1.1,0-1.7,0.4-1.8,1.2l0,0.1c0,0.3,0.1,0.5,0.3,0.7
			S1265.1,2873.4,1265.4,2873.4z"/>
		<path class="st4" d="M1275.6,2875v-6.8h-1.3v-1.7h1.3v-0.7c0-0.9,0.3-1.7,0.8-2.2s1.3-0.8,2.3-0.8c0.3,0,0.7,0.1,1.1,0.2l0,1.7
			c-0.2,0-0.4-0.1-0.7-0.1c-0.8,0-1.3,0.4-1.3,1.2v0.7h1.7v1.7h-1.7v6.8H1275.6z"/>
		<path class="st4" d="M1283.1,2875h-2.3v-8.5h2.3V2875z M1282.5,2863.1h2.5l-2.2,2.4h-1.8L1282.5,2863.1z"/>
		<path class="st4" d="M1289.6,2872.7c0-0.3-0.1-0.5-0.4-0.7s-0.7-0.3-1.3-0.4c-2-0.4-3-1.3-3-2.6c0-0.8,0.3-1.4,0.9-1.9
			s1.4-0.8,2.4-0.8c1.1,0,1.9,0.3,2.6,0.8s1,1.2,1,2h-2.3c0-0.3-0.1-0.6-0.3-0.8s-0.5-0.3-1-0.3c-0.4,0-0.7,0.1-0.9,0.3
			s-0.3,0.4-0.3,0.7c0,0.2,0.1,0.5,0.4,0.6s0.6,0.3,1.2,0.4s1,0.2,1.4,0.4c1.2,0.4,1.8,1.2,1.8,2.3c0,0.8-0.3,1.4-1,1.9
			s-1.5,0.7-2.6,0.7c-0.7,0-1.3-0.1-1.9-0.4s-1-0.6-1.3-1s-0.5-0.9-0.5-1.4h2.1c0,0.4,0.2,0.7,0.4,0.9s0.6,0.3,1.1,0.3
			c0.4,0,0.8-0.1,1-0.2S1289.6,2872.9,1289.6,2872.7z"/>
		<path class="st4" d="M1293.3,2864.4c0-0.3,0.1-0.6,0.3-0.8s0.5-0.3,0.9-0.3c0.4,0,0.7,0.1,0.9,0.3s0.3,0.5,0.3,0.8
			c0,0.3-0.1,0.6-0.3,0.8s-0.5,0.3-0.9,0.3s-0.7-0.1-0.9-0.3S1293.3,2864.7,1293.3,2864.4z M1295.7,2875h-2.3v-8.5h2.3V2875z"/>
		<path class="st4" d="M1301,2873.3c0.4,0,0.8-0.1,1-0.3s0.4-0.5,0.4-0.9h2.1c0,0.6-0.2,1.1-0.5,1.6s-0.7,0.8-1.3,1.1
			s-1.1,0.4-1.8,0.4c-1.2,0-2.2-0.4-2.9-1.2s-1-1.8-1-3.2v-0.1c0-1.3,0.3-2.3,1-3.1s1.6-1.2,2.9-1.2c1.1,0,1.9,0.3,2.5,0.9
			s1,1.4,1,2.4h-2.1c0-0.4-0.1-0.8-0.4-1.1c-0.3-0.3-0.6-0.4-1-0.4c-0.5,0-0.9,0.2-1.2,0.6s-0.4,1-0.4,1.9v0.2
			c0,0.9,0.1,1.5,0.4,1.9S1300.5,2873.3,1301,2873.3z"/>
		<path class="st4" d="M1310.8,2875c-0.1-0.2-0.2-0.5-0.2-0.8c-0.5,0.6-1.3,0.9-2.1,0.9c-0.8,0-1.5-0.2-2.1-0.7s-0.8-1.1-0.8-1.8
			c0-0.9,0.3-1.6,1-2.1s1.6-0.7,2.9-0.7h1v-0.5c0-0.4-0.1-0.7-0.3-0.9s-0.5-0.4-0.9-0.4c-0.4,0-0.7,0.1-0.9,0.3s-0.3,0.4-0.3,0.8
			h-2.3c0-0.5,0.2-0.9,0.5-1.4s0.7-0.7,1.3-1s1.2-0.4,1.9-0.4c1,0,1.9,0.3,2.5,0.8s0.9,1.3,0.9,2.2v3.7c0,0.8,0.1,1.4,0.3,1.8v0.1
			H1310.8z M1308.9,2873.4c0.3,0,0.6-0.1,0.9-0.2s0.5-0.3,0.6-0.6v-1.5h-0.8c-1.1,0-1.7,0.4-1.8,1.2l0,0.1c0,0.3,0.1,0.5,0.3,0.7
			S1308.6,2873.4,1308.9,2873.4z"/>
	</g>
	<g class="st47">
		<path class="st4" d="M925.5,2894.9c0,1.3-0.3,2.3-0.9,3.1s-1.4,1.2-2.4,1.2c-0.9,0-1.5-0.3-2.1-0.9v4h-2.3v-11.7h2.1l0.1,0.8
			c0.5-0.7,1.3-1,2.1-1c1,0,1.9,0.4,2.4,1.2s0.9,1.8,0.9,3.2V2894.9z M923.2,2894.7c0-0.8-0.1-1.4-0.4-1.8s-0.7-0.6-1.2-0.6
			c-0.7,0-1.2,0.3-1.5,0.8v3.5c0.3,0.6,0.8,0.8,1.5,0.8C922.7,2897.3,923.2,2896.5,923.2,2894.7z"/>
		<path class="st4" d="M930.8,2899.2c-1.2,0-2.2-0.4-3-1.1s-1.2-1.8-1.2-3v-0.2c0-0.8,0.2-1.6,0.5-2.3s0.8-1.2,1.4-1.5
			s1.3-0.5,2.1-0.5c1.2,0,2.1,0.4,2.7,1.1s1,1.8,1,3.1v0.9h-5.4c0.1,0.6,0.3,1,0.7,1.3s0.8,0.5,1.4,0.5c0.9,0,1.5-0.3,2-0.9l1.1,1.2
			c-0.3,0.5-0.8,0.9-1.4,1.1S931.5,2899.2,930.8,2899.2z M930.5,2892.2c-0.4,0-0.8,0.2-1.1,0.5s-0.5,0.7-0.5,1.3h3.1v-0.2
			c0-0.5-0.1-0.9-0.4-1.2S931,2892.2,930.5,2892.2z"/>
		<path class="st4" d="M940.3,2892.7c-0.3,0-0.6-0.1-0.8-0.1c-0.9,0-1.4,0.3-1.7,0.9v5.5h-2.3v-8.5h2.1l0.1,1
			c0.5-0.8,1.1-1.2,1.9-1.2c0.2,0,0.5,0,0.7,0.1L940.3,2892.7z"/>
		<path class="st4" d="M944.5,2888.5v2.1h1.4v1.7h-1.4v4.2c0,0.3,0.1,0.5,0.2,0.7s0.3,0.2,0.7,0.2c0.2,0,0.5,0,0.7-0.1v1.7
			c-0.4,0.1-0.9,0.2-1.4,0.2c-1.6,0-2.4-0.8-2.4-2.4v-4.6H941v-1.7h1.2v-2.1H944.5z"/>
		<path class="st4" d="M951,2899.2c-1.2,0-2.2-0.4-3-1.1s-1.2-1.8-1.2-3v-0.2c0-0.8,0.2-1.6,0.5-2.3s0.8-1.2,1.4-1.5
			s1.3-0.5,2.1-0.5c1.2,0,2.1,0.4,2.7,1.1s1,1.8,1,3.1v0.9h-5.4c0.1,0.6,0.3,1,0.7,1.3s0.8,0.5,1.4,0.5c0.9,0,1.5-0.3,2-0.9l1.1,1.2
			c-0.3,0.5-0.8,0.9-1.4,1.1S951.7,2899.2,951,2899.2z M950.8,2892.2c-0.4,0-0.8,0.2-1.1,0.5s-0.5,0.7-0.5,1.3h3.1v-0.2
			c0-0.5-0.1-0.9-0.4-1.2S951.3,2892.2,950.8,2892.2z"/>
		<path class="st4" d="M957.9,2890.5l0.1,1c0.6-0.8,1.4-1.1,2.4-1.1c0.9,0,1.6,0.3,2,0.8s0.7,1.3,0.7,2.4v5.5h-2.3v-5.4
			c0-0.5-0.1-0.8-0.3-1s-0.6-0.3-1-0.3c-0.6,0-1.1,0.3-1.4,0.8v6h-2.3v-8.5H957.9z"/>
		<path class="st4" d="M968.7,2899.2c-1.2,0-2.2-0.4-3-1.1s-1.2-1.8-1.2-3v-0.2c0-0.8,0.2-1.6,0.5-2.3s0.8-1.2,1.4-1.5
			s1.3-0.5,2.1-0.5c1.2,0,2.1,0.4,2.7,1.1s1,1.8,1,3.1v0.9h-5.4c0.1,0.6,0.3,1,0.7,1.3s0.8,0.5,1.4,0.5c0.9,0,1.5-0.3,2-0.9l1.1,1.2
			c-0.3,0.5-0.8,0.9-1.4,1.1S969.4,2899.2,968.7,2899.2z M968.4,2892.2c-0.4,0-0.8,0.2-1.1,0.5s-0.5,0.7-0.5,1.3h3.1v-0.2
			c0-0.5-0.1-0.9-0.4-1.2S968.9,2892.2,968.4,2892.2z"/>
		<path class="st4" d="M976.9,2897.3c0.4,0,0.8-0.1,1-0.3s0.4-0.5,0.4-0.9h2.1c0,0.6-0.2,1.1-0.5,1.6s-0.7,0.8-1.3,1.1
			s-1.1,0.4-1.8,0.4c-1.2,0-2.2-0.4-2.9-1.2s-1-1.8-1-3.2v-0.1c0-1.3,0.3-2.3,1-3.1s1.6-1.2,2.9-1.2c1.1,0,1.9,0.3,2.5,0.9
			s1,1.4,1,2.4h-2.1c0-0.4-0.1-0.8-0.4-1.1c-0.3-0.3-0.6-0.4-1-0.4c-0.5,0-0.9,0.2-1.2,0.6s-0.4,1-0.4,1.9v0.2
			c0,0.9,0.1,1.5,0.4,1.9S976.4,2897.3,976.9,2897.3z"/>
		<path class="st4" d="M981.7,2888.4c0-0.3,0.1-0.6,0.3-0.8s0.5-0.3,0.9-0.3c0.4,0,0.7,0.1,0.9,0.3s0.3,0.5,0.3,0.8
			c0,0.3-0.1,0.6-0.3,0.8s-0.5,0.3-0.9,0.3s-0.7-0.1-0.9-0.3S981.7,2888.7,981.7,2888.4z M984.1,2899h-2.3v-8.5h2.3V2899z"/>
		<path class="st4" d="M989.9,2899.2c-1.2,0-2.2-0.4-3-1.1s-1.2-1.8-1.2-3v-0.2c0-0.8,0.2-1.6,0.5-2.3s0.8-1.2,1.4-1.5
			s1.3-0.5,2.1-0.5c1.2,0,2.1,0.4,2.7,1.1s1,1.8,1,3.1v0.9H988c0.1,0.6,0.3,1,0.7,1.3s0.8,0.5,1.4,0.5c0.9,0,1.5-0.3,2-0.9l1.1,1.2
			c-0.3,0.5-0.8,0.9-1.4,1.1S990.6,2899.2,989.9,2899.2z M989.6,2892.2c-0.4,0-0.8,0.2-1.1,0.5s-0.5,0.7-0.5,1.3h3.1v-0.2
			c0-0.5-0.1-0.9-0.4-1.2S990.1,2892.2,989.6,2892.2z"/>
		<path class="st4" d="M996.7,2890.5l0.1,1c0.6-0.8,1.4-1.1,2.4-1.1c0.9,0,1.6,0.3,2,0.8s0.7,1.3,0.7,2.4v5.5h-2.3v-5.4
			c0-0.5-0.1-0.8-0.3-1s-0.6-0.3-1-0.3c-0.6,0-1.1,0.3-1.4,0.8v6h-2.3v-8.5H996.7z"/>
		<path class="st4" d="M1006.3,2888.5v2.1h1.4v1.7h-1.4v4.2c0,0.3,0.1,0.5,0.2,0.7s0.3,0.2,0.7,0.2c0.2,0,0.5,0,0.7-0.1v1.7
			c-0.4,0.1-0.9,0.2-1.4,0.2c-1.6,0-2.4-0.8-2.4-2.4v-4.6h-1.2v-1.7h1.2v-2.1H1006.3z"/>
		<path class="st4" d="M1012.9,2899.2c-1.2,0-2.2-0.4-3-1.1s-1.2-1.8-1.2-3v-0.2c0-0.8,0.2-1.6,0.5-2.3s0.8-1.2,1.4-1.5
			s1.3-0.5,2.1-0.5c1.2,0,2.1,0.4,2.7,1.1s1,1.8,1,3.1v0.9h-5.4c0.1,0.6,0.3,1,0.7,1.3s0.8,0.5,1.4,0.5c0.9,0,1.5-0.3,2-0.9l1.1,1.2
			c-0.3,0.5-0.8,0.9-1.4,1.1S1013.6,2899.2,1012.9,2899.2z M1012.6,2892.2c-0.4,0-0.8,0.2-1.1,0.5s-0.5,0.7-0.5,1.3h3.1v-0.2
			c0-0.5-0.1-0.9-0.4-1.2S1013.1,2892.2,1012.6,2892.2z"/>
		<path class="st4" d="M1026.5,2899c-0.1-0.2-0.2-0.5-0.2-0.8c-0.5,0.6-1.3,0.9-2.1,0.9c-0.8,0-1.5-0.2-2.1-0.7s-0.8-1.1-0.8-1.8
			c0-0.9,0.3-1.6,1-2.1s1.6-0.7,2.9-0.7h1v-0.5c0-0.4-0.1-0.7-0.3-0.9s-0.5-0.4-0.9-0.4c-0.4,0-0.7,0.1-0.9,0.3s-0.3,0.4-0.3,0.8
			h-2.3c0-0.5,0.2-0.9,0.5-1.4s0.7-0.7,1.3-1s1.2-0.4,1.9-0.4c1,0,1.9,0.3,2.5,0.8s0.9,1.3,0.9,2.2v3.7c0,0.8,0.1,1.4,0.3,1.8v0.1
			H1026.5z M1024.7,2897.4c0.3,0,0.6-0.1,0.9-0.2s0.5-0.3,0.6-0.6v-1.5h-0.8c-1.1,0-1.7,0.4-1.8,1.2l0,0.1c0,0.3,0.1,0.5,0.3,0.7
			S1024.3,2897.4,1024.7,2897.4z"/>
		<path class="st4" d="M1036.6,2899h-2.3v-12h2.3V2899z"/>
		<path class="st4" d="M1043.4,2899c-0.1-0.2-0.2-0.5-0.2-0.8c-0.5,0.6-1.3,0.9-2.1,0.9c-0.8,0-1.5-0.2-2.1-0.7s-0.8-1.1-0.8-1.8
			c0-0.9,0.3-1.6,1-2.1s1.6-0.7,2.9-0.7h1v-0.5c0-0.4-0.1-0.7-0.3-0.9s-0.5-0.4-0.9-0.4c-0.4,0-0.7,0.1-0.9,0.3s-0.3,0.4-0.3,0.8
			h-2.3c0-0.5,0.2-0.9,0.5-1.4s0.7-0.7,1.3-1s1.2-0.4,1.9-0.4c1,0,1.9,0.3,2.5,0.8s0.9,1.3,0.9,2.2v3.7c0,0.8,0.1,1.4,0.3,1.8v0.1
			H1043.4z M1041.5,2897.4c0.3,0,0.6-0.1,0.9-0.2s0.5-0.3,0.6-0.6v-1.5h-0.8c-1.1,0-1.7,0.4-1.8,1.2l0,0.1c0,0.3,0.1,0.5,0.3,0.7
			S1041.1,2897.4,1041.5,2897.4z"/>
		<path class="st4" d="M1054.9,2899.2c-1.2,0-2.2-0.4-3-1.1s-1.2-1.8-1.2-3v-0.2c0-0.8,0.2-1.6,0.5-2.3s0.8-1.2,1.4-1.5
			s1.3-0.5,2.1-0.5c1.2,0,2.1,0.4,2.7,1.1s1,1.8,1,3.1v0.9h-5.4c0.1,0.6,0.3,1,0.7,1.3s0.8,0.5,1.4,0.5c0.9,0,1.5-0.3,2-0.9l1.1,1.2
			c-0.3,0.5-0.8,0.9-1.4,1.1S1055.6,2899.2,1054.9,2899.2z M1054.6,2892.2c-0.4,0-0.8,0.2-1.1,0.5s-0.5,0.7-0.5,1.3h3.1v-0.2
			c0-0.5-0.1-0.9-0.4-1.2S1055.1,2892.2,1054.6,2892.2z"/>
		<path class="st4" d="M1061.8,2890.5l0.1,0.9c0.6-0.7,1.4-1.1,2.4-1.1c1.1,0,1.8,0.4,2.2,1.3c0.6-0.9,1.4-1.3,2.5-1.3
			c0.9,0,1.6,0.3,2,0.8s0.7,1.3,0.7,2.4v5.4h-2.3v-5.4c0-0.5-0.1-0.8-0.3-1.1s-0.5-0.3-1-0.3c-0.7,0-1.1,0.3-1.4,1l0,5.8h-2.3v-5.4
			c0-0.5-0.1-0.8-0.3-1.1c-0.2-0.2-0.5-0.3-1-0.3c-0.6,0-1.1,0.3-1.4,0.8v6h-2.3v-8.5H1061.8z"/>
		<path class="st4" d="M1081.1,2894.9c0,1.3-0.3,2.3-0.9,3.1s-1.4,1.2-2.4,1.2c-0.9,0-1.5-0.3-2.1-0.9v4h-2.3v-11.7h2.1l0.1,0.8
			c0.5-0.7,1.3-1,2.1-1c1,0,1.9,0.4,2.4,1.2s0.9,1.8,0.9,3.2V2894.9z M1078.9,2894.7c0-0.8-0.1-1.4-0.4-1.8s-0.7-0.6-1.2-0.6
			c-0.7,0-1.2,0.3-1.5,0.8v3.5c0.3,0.6,0.8,0.8,1.5,0.8C1078.3,2897.3,1078.9,2896.5,1078.9,2894.7z"/>
		<path class="st4" d="M1087.3,2892.7c-0.3,0-0.6-0.1-0.8-0.1c-0.9,0-1.4,0.3-1.7,0.9v5.5h-2.3v-8.5h2.1l0.1,1
			c0.5-0.8,1.1-1.2,1.9-1.2c0.2,0,0.5,0,0.7,0.1L1087.3,2892.7z"/>
		<path class="st4" d="M1092.1,2899.2c-1.2,0-2.2-0.4-3-1.1s-1.2-1.8-1.2-3v-0.2c0-0.8,0.2-1.6,0.5-2.3s0.8-1.2,1.4-1.5
			s1.3-0.5,2.1-0.5c1.2,0,2.1,0.4,2.7,1.1s1,1.8,1,3.1v0.9h-5.4c0.1,0.6,0.3,1,0.7,1.3s0.8,0.5,1.4,0.5c0.9,0,1.5-0.3,2-0.9l1.1,1.2
			c-0.3,0.5-0.8,0.9-1.4,1.1S1092.8,2899.2,1092.1,2899.2z M1091.8,2892.2c-0.4,0-0.8,0.2-1.1,0.5s-0.5,0.7-0.5,1.3h3.1v-0.2
			c0-0.5-0.1-0.9-0.4-1.2S1092.3,2892.2,1091.8,2892.2z"/>
		<path class="st4" d="M1101.4,2896.7c0-0.3-0.1-0.5-0.4-0.7s-0.7-0.3-1.3-0.4c-2-0.4-3-1.3-3-2.6c0-0.8,0.3-1.4,0.9-1.9
			s1.4-0.8,2.4-0.8c1.1,0,1.9,0.3,2.6,0.8s1,1.2,1,2h-2.3c0-0.3-0.1-0.6-0.3-0.8s-0.5-0.3-1-0.3c-0.4,0-0.7,0.1-0.9,0.3
			s-0.3,0.4-0.3,0.7c0,0.2,0.1,0.5,0.4,0.6s0.6,0.3,1.2,0.4s1,0.2,1.4,0.4c1.2,0.4,1.8,1.2,1.8,2.3c0,0.8-0.3,1.4-1,1.9
			s-1.5,0.7-2.6,0.7c-0.7,0-1.3-0.1-1.9-0.4s-1-0.6-1.3-1s-0.5-0.9-0.5-1.4h2.1c0,0.4,0.2,0.7,0.4,0.9s0.6,0.3,1.1,0.3
			c0.4,0,0.8-0.1,1-0.2S1101.4,2896.9,1101.4,2896.7z"/>
		<path class="st4" d="M1110,2899c-0.1-0.2-0.2-0.5-0.2-0.8c-0.5,0.6-1.3,0.9-2.1,0.9c-0.8,0-1.5-0.2-2.1-0.7s-0.8-1.1-0.8-1.8
			c0-0.9,0.3-1.6,1-2.1s1.6-0.7,2.9-0.7h1v-0.5c0-0.4-0.1-0.7-0.3-0.9s-0.5-0.4-0.9-0.4c-0.4,0-0.7,0.1-0.9,0.3s-0.3,0.4-0.3,0.8
			h-2.3c0-0.5,0.2-0.9,0.5-1.4s0.7-0.7,1.3-1s1.2-0.4,1.9-0.4c1,0,1.9,0.3,2.5,0.8s0.9,1.3,0.9,2.2v3.7c0,0.8,0.1,1.4,0.3,1.8v0.1
			H1110z M1108.1,2897.4c0.3,0,0.6-0.1,0.9-0.2s0.5-0.3,0.6-0.6v-1.5h-0.8c-1.1,0-1.7,0.4-1.8,1.2l0,0.1c0,0.3,0.1,0.5,0.3,0.7
			S1107.8,2897.4,1108.1,2897.4z"/>
		<path class="st4" d="M1113.8,2897.9c0-0.4,0.1-0.7,0.4-0.9s0.5-0.3,0.9-0.3c0.4,0,0.7,0.1,0.9,0.3s0.4,0.5,0.4,0.9
			c0,0.4-0.1,0.6-0.4,0.9s-0.5,0.3-0.9,0.3c-0.4,0-0.7-0.1-0.9-0.3S1113.8,2898.2,1113.8,2897.9z"/>
	</g>
</g>
</svg>
