<?xml version="1.0" encoding="utf-8"?>
<!-- Generator: Adobe Illustrator 26.1.0, SVG Export Plug-In . SVG Version: 6.00 Build 0)  -->
<svg version="1.1" id="Capa_1" xmlns="http://www.w3.org/2000/svg" xmlns:xlink="http://www.w3.org/1999/xlink" x="0px" y="0px"
	 viewBox="0 0 1238.7 454.7" style="enable-background:new 0 0 1238.7 454.7;" xml:space="preserve">
<style type="text/css">
	.st0{opacity:0.466;fill:#DADEEC;enable-background:new    ;}
	.st1{fill:#A5A9AD;}
	.st2{opacity:0.6;fill:#FFFFFF;enable-background:new    ;}
	.st3{opacity:0.5;fill:#A5A9AD;enable-background:new    ;}
	.st4{opacity:0.4;enable-background:new    ;}
	.st5{opacity:0.2;enable-background:new    ;}
	.st6{opacity:0.4;fill:#FFFFFF;enable-background:new    ;}
	.st7{opacity:0.7;fill:#A5A9AD;enable-background:new    ;}
	.st8{opacity:0.3;fill:#A5A9AD;enable-background:new    ;}
	.st9{fill:none;stroke:#C370FF;stroke-width:1.335;stroke-miterlimit:10;stroke-dasharray:2.67,2.67;}
	.st10{fill:#C1C9D9;}
	.st11{fill:#DCE6F2;}
	.st12{fill:#A5ACBA;}
	.st13{fill:#0A1D45;}
	.st14{fill:#DADEEC;}
	.st15{fill:#F15A24;}
	.st16{fill:#0CBA83;}
	.st17{fill:#ED1E79;}
	.st18{fill:#29ABE2;}
	.st19{fill:#0D2380;}
	.st20{fill:#E4EBFD;}
	.st21{fill:#BECBEB;}
	.st22{fill:none;stroke:#0068FA;stroke-width:0.667;stroke-miterlimit:10;stroke-dasharray:2.67,2.67;}
	.st23{fill:#FFFFFF;}
	.st24{fill:#FFF2BF;}
	.st25{fill:#FBB03B;}
	.st26{fill:#133785;}
	.st27{fill:#103173;}
	.st28{fill:#E43438;}
	.st29{fill:#FBBF62;}
	.st30{fill:#FC502D;}
	.st31{fill:#0059D6;}
	.st32{fill:#C94024;}
	.st33{fill:#FF9129;}
	.st34{fill:#233862;}
	.st35{fill:#FFB27D;}
	.st36{fill:#999172;}
	.st37{fill:#CCC198;}
	.st38{fill:#ED975D;}
	.st39{fill:#2F539B;}
	.st40{fill:#113C68;}
	.st41{fill:#2A4E96;}
	.st42{fill:#15447C;}
	.st43{fill:#FCA56B;}
	.st44{fill:#163560;}
	.st45{enable-background:new    ;}
</style>
<g id="Grupo_134874" transform="translate(-16096.441 8362)">
	<g id="Grupo_134515" transform="translate(18500.396 -9086.172)">
		<path id="Trazado_191502" class="st0" d="M-1166.5,1176.4c0,0-254.3-2.2-218.1-164.3c32.7-146.3-21.8-283.2-258.3-287.9
			s-270.8,180.5-250.5,273.9s-116.7,182.1-510.4,179L-1166.5,1176.4z"/>
		<g id="Grupo_134534">
			<g id="Grupo_134520">
				<g id="Grupo_134515-2">
					<path id="Trazado_191503" class="st1" d="M-1968.9,837.7v125.3l-20.9,20.9h-82.5c-1.8,0-3.2-1.4-3.2-3.2V837.7
						c0-1.8,1.4-3.2,3.2-3.2h100.1C-1970.3,834.4-1968.9,835.9-1968.9,837.7z"/>
					<path id="Trazado_191504" class="st2" d="M-1968.9,843.1v119.8l-20.9,20.9h-82.5c-1.8,0-3.2-1.4-3.2-3.2V843.1H-1968.9z"/>
					<path id="Trazado_191505" class="st2" d="M-1971.7,838.4c0,0.9-0.7,1.6-1.6,1.6s-1.6-0.7-1.6-1.6s0.7-1.6,1.6-1.6
						S-1971.7,837.6-1971.7,838.4z"/>
					<path id="Trazado_191506" class="st2" d="M-1977.6,838.4c0,0.9-0.7,1.6-1.6,1.6s-1.6-0.7-1.6-1.6s0.7-1.6,1.6-1.6
						S-1977.6,837.6-1977.6,838.4z"/>
					<path id="Trazado_191507" class="st2" d="M-1983.5,838.4c0,0.9-0.7,1.6-1.6,1.6s-1.6-0.7-1.6-1.6s0.7-1.6,1.6-1.6
						S-1983.5,837.6-1983.5,838.4z"/>
				</g>
				<g id="Grupo_134516">
					<path id="Trazado_191508" class="st1" d="M-2010.6,852.8h-57.1c-0.6,0-1-0.4-1-1s0.4-1,1-1h57.1c0.6,0,1,0.4,1,1
						C-2009.6,852.3-2010.1,852.8-2010.6,852.8z"/>
					<path id="Trazado_191509" class="st1" d="M-2026.8,858.2h-41c-0.6,0-1-0.4-1-1s0.4-1,1-1h41c0.6,0,1,0.4,1,1
						C-2025.8,857.8-2026.2,858.2-2026.8,858.2z"/>
				</g>
				<g id="Grupo_134517">
					<path id="Trazado_191510" class="st1" d="M-1982.5,942.7h-73c-0.6,0-1-0.4-1-1s0.4-1,1-1h73c0.6,0,1,0.4,1,1
						S-1982,942.7-1982.5,942.7z"/>
					<path id="Trazado_191511" class="st1" d="M-1994.7,964.6h-73c-0.6,0-1-0.4-1-1s0.4-1,1-1h73c0.6,0,1,0.4,1,1
						S-1994.2,964.6-1994.7,964.6z"/>
					<path id="Trazado_191512" class="st1" d="M-1982.5,948.2h-85.2c-0.6,0-1-0.4-1-1s0.4-1,1-1h85.2c0.6,0,1,0.4,1,1
						C-1981.5,947.7-1982,948.2-1982.5,948.2z"/>
					<path id="Trazado_191513" class="st1" d="M-1982.5,953.6h-85.2c-0.6,0-1-0.4-1-1s0.4-1,1-1h85.2c0.6,0,1,0.4,1,1
						C-1981.5,953.2-1982,953.6-1982.5,953.6z"/>
					<path id="Trazado_191514" class="st1" d="M-1982.5,959.1h-85.2c-0.6,0-1-0.4-1-1s0.4-1,1-1h85.2c0.6,0,1,0.4,1,1
						C-1981.5,958.7-1982,959.1-1982.5,959.1z"/>
				</g>
				<path id="Trazado_191515" class="st3" d="M-1968.9,962.9l-20.9,20.9v-20.9H-1968.9z"/>
				<rect id="Rectángulo_83106" x="-1974.8" y="843.1" class="st4" width="5.9" height="119.8"/>
				<path id="Trazado_191516" class="st1" d="M-1971.8,905.7L-1971.8,905.7c-1.2,0-2.2-1-2.2-2.2l0,0v-12.2c0-1.2,1-2.2,2.2-2.2l0,0
					c1.2,0,2.2,1,2.2,2.2v12.2C-1969.6,904.7-1970.6,905.7-1971.8,905.7C-1971.8,905.7-1971.8,905.7-1971.8,905.7z"/>
				<g id="Grupo_134518">
					<path id="Trazado_191517" class="st1" d="M-1982.5,912.7h-73c-0.6,0-1-0.4-1-1s0.4-1,1-1h73c0.6,0,1,0.4,1,1
						S-1982,912.7-1982.5,912.7z"/>
					<path id="Trazado_191518" class="st1" d="M-1994.7,934.6h-73c-0.6,0-1-0.4-1-1s0.4-1,1-1h73c0.6,0,1,0.4,1,1
						S-1994.2,934.6-1994.7,934.6z"/>
					<path id="Trazado_191519" class="st1" d="M-1982.5,918.2h-85.2c-0.6,0-1-0.4-1-1s0.4-1,1-1h85.2c0.6,0,1,0.4,1,1
						C-1981.5,917.7-1982,918.2-1982.5,918.2z"/>
					<path id="Trazado_191520" class="st1" d="M-1982.5,923.6h-85.2c-0.6,0-1-0.4-1-1s0.4-1,1-1h85.2c0.6,0,1,0.4,1,1
						C-1981.5,923.2-1982,923.6-1982.5,923.6z"/>
					<path id="Trazado_191521" class="st1" d="M-1982.5,929.1h-85.2c-0.6,0-1-0.4-1-1s0.4-1,1-1h85.2c0.6,0,1,0.4,1,1
						C-1981.5,928.7-1982,929.1-1982.5,929.1z"/>
				</g>
				<rect id="Rectángulo_83107" x="-2068" y="864.8" class="st1" width="85.5" height="31.9"/>
				<path id="Trazado_191522" class="st5" d="M-2068,891.5h2.3v-5.8h2.7v-11.4h3.7v7h5.1v9.4h6.1v-6.5h5.1l3.4-3.4v-7.8h2v11.1h5.2
					v4h5.3v-20.2l1.5-1.5v5.5h3.4v2.5l3.3,3.3v5.9h4.7V879h12.3v-3.5h2.8v-6.1h1v9.6h1.6l3.5-3.5h3.3v-3.2h1.7v3.2h2.2v13.2h2.4
					v-6.6l1,0.1v-17.4h-85.5L-2068,891.5z"/>
				<g id="Grupo_134519">
					<path id="Trazado_191523" class="st1" d="M-1982.5,901.7h-23c-0.6,0-1-0.4-1-1s0.4-1,1-1h23c0.6,0,1,0.4,1,1
						S-1982,901.7-1982.5,901.7z"/>
				</g>
				<path id="Trazado_191524" class="st5" d="M-2034.1,834.4V938l-15.7,15.7h-25.5v-116c0-1.8,1.4-3.2,3.2-3.2H-2034.1z"/>
				<path id="Trazado_191525" class="st6" d="M-1971.8,905.7L-1971.8,905.7c-1.2,0-2.2-1-2.2-2.2l0,0v-12.2c0-1.2,1-2.2,2.2-2.2l0,0
					c1.2,0,2.2,1,2.2,2.2v12.2C-1969.6,904.7-1970.6,905.7-1971.8,905.7C-1971.8,905.7-1971.8,905.7-1971.8,905.7z"/>
			</g>
			<g id="Grupo_134527">
				<g id="Grupo_134521">
					<path id="Trazado_191526" class="st1" d="M-2095.1,853.3v125.3l-20.9,20.9h-82.5c-1.8,0-3.2-1.4-3.2-3.2V853.3
						c0-1.8,1.4-3.2,3.2-3.2h100.1C-2096.5,850.1-2095.1,851.5-2095.1,853.3z"/>
					<path id="Trazado_191527" class="st2" d="M-2095.1,858.7v119.8l-20.9,20.9h-82.5c-1.8,0-3.2-1.4-3.2-3.2V858.7H-2095.1z"/>
					<path id="Trazado_191528" class="st2" d="M-2097.9,854c0,0.9-0.7,1.6-1.6,1.6c0,0,0,0,0,0c-0.9,0-1.6-0.7-1.6-1.6c0,0,0,0,0,0
						c0-0.9,0.7-1.6,1.6-1.6S-2097.9,853.2-2097.9,854z"/>
					<path id="Trazado_191529" class="st2" d="M-2103.8,854c0,0.9-0.7,1.6-1.6,1.6c-0.9,0-1.6-0.7-1.6-1.6c0,0,0,0,0,0
						c0-0.9,0.7-1.6,1.6-1.6S-2103.8,853.2-2103.8,854z"/>
					<path id="Trazado_191530" class="st2" d="M-2109.8,854c0,0.9-0.7,1.6-1.6,1.6c0,0,0,0,0,0c-0.9,0-1.6-0.7-1.6-1.6c0,0,0,0,0,0
						c0-0.9,0.7-1.6,1.6-1.6S-2109.8,853.2-2109.8,854z"/>
				</g>
				<g id="Grupo_134522">
					<path id="Trazado_191531" class="st1" d="M-2176.3,868.9h-17.7c-0.6,0-1-0.4-1-1s0.4-1,1-1h17.7c0.6,0,1,0.4,1,1
						S-2175.7,868.9-2176.3,868.9z"/>
					<path id="Trazado_191532" class="st1" d="M-2167.9,874.4h-26.1c-0.6,0-1-0.4-1-1s0.4-1,1-1h26.1c0.6,0,1,0.4,1,1
						S-2167.3,874.4-2167.9,874.4z"/>
					<path id="Trazado_191533" class="st1" d="M-2176,879.9h-18c-0.6,0-1-0.4-1-1s0.4-1,1-1h18c0.6,0,1,0.4,1,1
						S-2175.4,879.9-2176,879.9z"/>
				</g>
				<g id="Grupo_134523">
					<path id="Trazado_191534" class="st1" d="M-2108.8,969.3h-73c-0.6,0-1-0.4-1-1s0.4-1,1-1h73c0.6,0,1,0.4,1,1
						S-2108.2,969.3-2108.8,969.3z"/>
					<path id="Trazado_191535" class="st1" d="M-2148.8,974.8h-45.2c-0.6,0-1-0.4-1-1s0.4-1,1-1h45.2c0.6,0,1,0.4,1,1
						S-2148.2,974.8-2148.8,974.8L-2148.8,974.8z"/>
				</g>
				<path id="Trazado_191536" class="st3" d="M-2095.1,978.5l-20.9,20.9v-20.9H-2095.1z"/>
				<rect id="Rectángulo_83108" x="-2101" y="858.7" class="st4" width="5.9" height="119.8"/>
				<path id="Trazado_191537" class="st1" d="M-2098.1,970.3L-2098.1,970.3c-1.2,0-2.2-1-2.2-2.2v-12.2c0-1.2,1-2.2,2.2-2.2l0,0
					c1.2,0,2.2,1,2.2,2.2v12.2C-2095.9,969.4-2096.9,970.3-2098.1,970.3z"/>
				<g id="Grupo_134524">
					<path id="Trazado_191538" class="st1" d="M-2108.8,868.9h-13.7c-0.6,0-1-0.4-1-1s0.4-1,1-1h13.7c0.6,0,1,0.4,1,1
						S-2108.2,868.9-2108.8,868.9C-2108.8,868.9-2108.8,868.9-2108.8,868.9z"/>
					<path id="Trazado_191539" class="st1" d="M-2108.8,874.4h-7.1c-0.6,0-1-0.4-1-1s0.4-1,1-1h7.1c0.6,0,1,0.4,1,1
						S-2108.2,874.4-2108.8,874.4z"/>
				</g>
				<g id="Grupo_134525">
					<path id="Trazado_191540" class="st1" d="M-2108.8,894.3h-73c-0.6,0-1-0.4-1-1s0.4-1,1-1h73c0.6,0,1,0.4,1,1
						S-2108.2,894.3-2108.8,894.3z"/>
					<path id="Trazado_191541" class="st1" d="M-2108.8,899.8h-85.2c-0.6,0-1-0.4-1-1s0.4-1,1-1h85.2c0.6,0,1,0.4,1,1
						S-2108.2,899.8-2108.8,899.8L-2108.8,899.8z"/>
					<path id="Trazado_191542" class="st1" d="M-2158.8,905.3h-35.2c-0.6,0-1-0.4-1-1s0.4-1,1-1h35.2c0.6,0,1,0.4,1,1
						S-2158.2,905.3-2158.8,905.3L-2158.8,905.3z"/>
				</g>
				<g id="Grupo_134526">
					<rect id="Rectángulo_83109" x="-2179.9" y="912.5" class="st7" width="33.6" height="9"/>
					<rect id="Rectángulo_83110" x="-2179.9" y="923.5" class="st8" width="15.2" height="33.2"/>
					<rect id="Rectángulo_83111" x="-2144.3" y="923.5" class="st8" width="17.5" height="33.2"/>
					<rect id="Rectángulo_83112" x="-2144.3" y="912.5" class="st7" width="35.5" height="9"/>
					<rect id="Rectángulo_83113" x="-2124.8" y="923.5" class="st8" width="16" height="33.2"/>
					<rect id="Rectángulo_83114" x="-2194" y="923.5" class="st3" width="12.1" height="33.2"/>
					<rect id="Rectángulo_83115" x="-2194" y="912.5" class="st1" width="12.1" height="9"/>
					<rect id="Rectángulo_83116" x="-2162.6" y="923.5" class="st8" width="16.4" height="33.2"/>
				</g>
				<path id="Trazado_191543" class="st6" d="M-2098.1,970.3L-2098.1,970.3c-1.2,0-2.2-1-2.2-2.2v-12.2c0-1.2,1-2.2,2.2-2.2l0,0
					c1.2,0,2.2,1,2.2,2.2v12.2C-2095.9,969.4-2096.9,970.3-2098.1,970.3z"/>
				<path id="Trazado_191544" class="st5" d="M-2095.1,853.3v104.2h-60.3c-1.8,0-3.2-1.4-3.2-3.2V850.1h60.3
					C-2096.5,850.1-2095.1,851.5-2095.1,853.3z"/>
			</g>
			<g id="Grupo_134533">
				<g id="Grupo_134528">
					<path id="Trazado_191545" class="st1" d="M-2042.1,796.5v125.3l-20.9,20.9h-82.5c-1.8,0-3.2-1.4-3.2-3.2V796.5
						c0-1.8,1.4-3.2,3.2-3.2h100.1C-2043.6,793.3-2042.1,794.7-2042.1,796.5z"/>
					<path id="Trazado_191546" class="st2" d="M-2042.1,802v119.8l-20.9,20.9h-82.5c-1.8,0-3.2-1.4-3.2-3.2V802H-2042.1z"/>
					<circle id="Elipse_4845" class="st2" cx="-2046.5" cy="797.3" r="1.6"/>
					<circle id="Elipse_4846" class="st2" cx="-2052.4" cy="797.3" r="1.6"/>
					<path id="Trazado_191547" class="st2" d="M-2056.8,797.3c0,0.9-0.7,1.6-1.6,1.6c0,0,0,0,0,0c-0.9,0-1.6-0.7-1.6-1.6
						s0.7-1.6,1.6-1.6C-2057.5,795.7-2056.8,796.4-2056.8,797.3C-2056.8,797.3-2056.8,797.3-2056.8,797.3z"/>
				</g>
				<g id="Grupo_134529">
					<path id="Trazado_191548" class="st1" d="M-2088.2,812.2h-20.4c-0.6,0-1-0.4-1-1s0.4-1,1-1h20.4c0.6,0,1,0.4,1,1
						S-2087.7,812.2-2088.2,812.2z"/>
					<path id="Trazado_191549" class="st1" d="M-2079.9,817.6h-37.1c-0.6,0-1-0.4-1-1s0.4-1,1-1h37.1c0.6,0,1,0.4,1,1
						S-2079.3,817.6-2079.9,817.6z"/>
					<path id="Trazado_191550" class="st1" d="M-2087.9,823.1h-21c-0.6,0-1-0.4-1-1s0.4-1,1-1h21c0.6,0,1,0.4,1,1
						S-2087.4,823.1-2087.9,823.1z"/>
				</g>
				<g id="Grupo_134530">
					<path id="Trazado_191551" class="st1" d="M-2055.8,837.5h-73c-0.6,0-1-0.4-1-1s0.4-1,1-1h73c0.6,0,1,0.4,1,1
						S-2055.2,837.5-2055.8,837.5z"/>
					<path id="Trazado_191552" class="st1" d="M-2068,859.4h-73c-0.6,0-1-0.4-1-1s0.4-1,1-1h73c0.6,0,1,0.4,1,1
						S-2067.4,859.4-2068,859.4z"/>
					<path id="Trazado_191553" class="st1" d="M-2055.8,843h-85.2c-0.6,0-1-0.4-1-1s0.4-1,1-1h85.2c0.6,0,1,0.4,1,1
						S-2055.2,843-2055.8,843L-2055.8,843z"/>
					<path id="Trazado_191554" class="st1" d="M-2055.8,848.5h-85.2c-0.6,0-1-0.4-1-1s0.4-1,1-1h85.2c0.6,0,1,0.4,1,1
						S-2055.2,848.5-2055.8,848.5L-2055.8,848.5z"/>
					<path id="Trazado_191555" class="st1" d="M-2055.8,853.9h-85.2c-0.6,0-1-0.4-1-1s0.4-1,1-1h85.2c0.6,0,1,0.4,1,1
						S-2055.2,853.9-2055.8,853.9L-2055.8,853.9z"/>
				</g>
				<g id="Grupo_134531">
					<path id="Trazado_191556" class="st1" d="M-2055.8,892.5h-73c-0.6,0-1-0.4-1-1s0.4-1,1-1h73c0.6,0,1,0.4,1,1
						S-2055.2,892.5-2055.8,892.5z"/>
					<path id="Trazado_191557" class="st1" d="M-2068,914.4h-73c-0.6,0-1-0.4-1-1s0.4-1,1-1h73c0.6,0,1,0.4,1,1
						S-2067.4,914.4-2068,914.4z"/>
					<path id="Trazado_191558" class="st1" d="M-2055.8,898h-85.2c-0.6,0-1-0.4-1-1s0.4-1,1-1h85.2c0.6,0,1,0.4,1,1
						S-2055.2,898-2055.8,898L-2055.8,898z"/>
					<path id="Trazado_191559" class="st1" d="M-2055.8,903.5h-85.2c-0.6,0-1-0.4-1-1s0.4-1,1-1h85.2c0.6,0,1,0.4,1,1
						S-2055.2,903.5-2055.8,903.5L-2055.8,903.5z"/>
					<path id="Trazado_191560" class="st1" d="M-2055.8,908.9h-85.2c-0.6,0-1-0.4-1-1s0.4-1,1-1h85.2c0.6,0,1,0.4,1,1
						S-2055.2,908.9-2055.8,908.9L-2055.8,908.9z"/>
				</g>
				<rect id="Rectángulo_83117" x="-2066" y="810" class="st1" width="10.2" height="13.6"/>
				<circle id="Elipse_4847" class="st1" cx="-2135.4" cy="815.6" r="5.7"/>
				<g id="Grupo_134532">
					<path id="Trazado_191561" class="st1" d="M-2141.4,866.5c0,0.7,0.5,1.2,1.2,1.2s1.2-0.5,1.2-1.2s-0.5-1.2-1.2-1.2
						S-2141.4,865.9-2141.4,866.5z"/>
					<path id="Trazado_191562" class="st1" d="M-2141.4,872c0,0.7,0.5,1.2,1.2,1.2s1.2-0.5,1.2-1.2s-0.5-1.2-1.2-1.2
						S-2141.4,871.3-2141.4,872z"/>
					<path id="Trazado_191563" class="st1" d="M-2141.4,877.5c0,0.7,0.5,1.2,1.2,1.2s1.2-0.5,1.2-1.2c0-0.7-0.5-1.2-1.2-1.2
						S-2141.4,876.8-2141.4,877.5z"/>
					<path id="Trazado_191564" class="st1" d="M-2141.4,882.9c0,0.7,0.5,1.2,1.2,1.2s1.2-0.5,1.2-1.2s-0.5-1.2-1.2-1.2
						S-2141.4,882.3-2141.4,882.9z"/>
					<path id="Trazado_191565" class="st1" d="M-2123,867.5h-13c-0.6,0-1-0.4-1-1s0.4-1,1-1h13c0.6,0,1,0.4,1,1
						S-2122.4,867.5-2123,867.5z"/>
					<path id="Trazado_191566" class="st1" d="M-2110.8,873h-25.2c-0.6,0-1-0.4-1-1s0.4-1,1-1h25.2c0.6,0,1,0.4,1,1
						S-2110.2,873-2110.8,873z"/>
					<path id="Trazado_191567" class="st1" d="M-2125.8,878.5h-10.2c-0.6,0-1-0.4-1-1s0.4-1,1-1h10.2c0.6,0,1,0.4,1,1
						S-2125.2,878.5-2125.8,878.5z"/>
					<path id="Trazado_191568" class="st1" d="M-2114.8,883.9h-21.2c-0.6,0-1-0.4-1-1s0.4-1,1-1h21.2c0.6,0,1,0.4,1,1
						S-2114.2,883.9-2114.8,883.9z"/>
				</g>
				<path id="Trazado_191569" class="st3" d="M-2042.1,921.7l-20.9,20.9v-20.9H-2042.1z"/>
				<path id="Trazado_191570" class="st5" d="M-2055.8,810l-10.2,13.6h10.2V810z"/>
				<rect id="Rectángulo_83118" x="-2138.7" y="812.3" class="st5" width="6.6" height="6.6"/>
				<rect id="Rectángulo_83119" x="-2048" y="802" class="st4" width="5.9" height="119.8"/>
				<path id="Trazado_191571" class="st1" d="M-2045.1,824.6L-2045.1,824.6c-1.2,0-2.2-1-2.2-2.2c0,0,0,0,0,0v-12.2
					c0-1.2,1-2.2,2.2-2.2c0,0,0,0,0,0l0,0c1.2,0,2.2,1,2.2,2.2v12.2C-2042.9,823.6-2043.9,824.6-2045.1,824.6
					C-2045.1,824.6-2045.1,824.6-2045.1,824.6z"/>
				<path id="Trazado_191572" class="st6" d="M-2045.1,824.6L-2045.1,824.6c-1.2,0-2.2-1-2.2-2.2c0,0,0,0,0,0v-12.2
					c0-1.2,1-2.2,2.2-2.2c0,0,0,0,0,0l0,0c1.2,0,2.2,1,2.2,2.2v12.2C-2042.9,823.6-2043.9,824.6-2045.1,824.6
					C-2045.1,824.6-2045.1,824.6-2045.1,824.6z"/>
			</g>
		</g>
		<g id="Grupo_134601">
			<g id="Grupo_134600">
				<circle id="Elipse_4848" class="st0" cx="-1629.7" cy="971.4" r="192.1"/>
				<g id="Grupo_134599">
					<g id="Grupo_134535">
						<path id="Trazado_191573" class="st9" d="M-1453.8,869.7v231.6c0,8.7-7,15.7-15.7,15.7h-113"/>
						<path id="Trazado_191574" class="st9" d="M-1805.5,1082.7v-213c0-8.7,7-15.7,15.7-15.7h113.3"/>
					</g>
					<g id="Grupo_134538">
						<g id="Grupo_134536">
							<path id="Trazado_191575" class="st10" d="M-1605.6,1081.9h-48.3l-31,81.8h110.3L-1605.6,1081.9z"/>
							<path id="Trazado_191576" class="st11" d="M-1568.3,1174.9h-122.8l-5.3-11.4h133.4L-1568.3,1174.9z"/>
							<path id="Trazado_191577" class="st12" d="M-1664.2,1109.3l80.4,30.1l-14.8-38.9h-62.3L-1664.2,1109.3z"/>
						</g>
						<g id="Grupo_134537">
							<path id="Rectángulo_83120" class="st10" d="M-1791,861.9h322.7c3.7,0,6.7,3,6.7,6.7v233.9c0,3.7-3,6.7-6.7,6.7H-1791
								c-3.7,0-6.7-3-6.7-6.7V868.5C-1797.7,864.9-1794.7,861.9-1791,861.9z"/>
							<path id="Trazado_191578" class="st13" d="M-1624.5,871.6c0,2.9-2.3,5.2-5.2,5.2l0,0c-2.9,0-5.2-2.3-5.2-5.2c0,0,0,0,0,0
								c0-2.9,2.3-5.2,5.2-5.2l0,0C-1626.8,866.3-1624.5,868.7-1624.5,871.6C-1624.5,871.6-1624.5,871.6-1624.5,871.6z"/>
							<rect id="Rectángulo_83121" x="-1778.8" y="880.7" class="st14" width="298.3" height="201.2"/>
						</g>
					</g>
					<g id="Grupo_134543">
						<g id="Grupo_134541">
							<g id="Grupo_134539">
								<path id="Trazado_191579" class="st15" d="M-1852.8,1123.5c0,1.4-1.2,2.6-2.6,2.6s-2.6-1.2-2.6-2.6s1.2-2.6,2.6-2.6
									S-1852.8,1122.1-1852.8,1123.5z"/>
								<circle id="Elipse_4849" class="st15" cx="-1844.3" cy="1123.5" r="2.6"/>
								<circle id="Elipse_4850" class="st15" cx="-1833.2" cy="1123.5" r="2.6"/>
								<circle id="Elipse_4851" class="st15" cx="-1822.1" cy="1123.5" r="2.6"/>
								<circle id="Elipse_4852" class="st15" cx="-1811" cy="1123.5" r="2.6"/>
								<circle id="Elipse_4853" class="st15" cx="-1799.9" cy="1123.5" r="2.6"/>
								<circle id="Elipse_4854" class="st15" cx="-1788.8" cy="1123.5" r="2.6"/>
								<circle id="Elipse_4855" class="st15" cx="-1777.6" cy="1123.5" r="2.6"/>
							</g>
							<g id="Grupo_134540">
								<path id="Trazado_191580" class="st15" d="M-1637.3,814.7c0,1.4-1.2,2.6-2.6,2.6c-1.4,0-2.6-1.2-2.6-2.6
									c0-1.4,1.2-2.6,2.6-2.6C-1638.4,812.1-1637.3,813.3-1637.3,814.7z"/>
								<path id="Trazado_191581" class="st15" d="M-1626.1,814.7c0,1.4-1.2,2.6-2.6,2.6c0,0,0,0,0,0c-1.4,0-2.6-1.2-2.6-2.6
									c0-1.4,1.2-2.6,2.6-2.6C-1627.3,812.1-1626.1,813.3-1626.1,814.7z"/>
								<path id="Trazado_191582" class="st15" d="M-1615,814.7c0,1.4-1.2,2.6-2.6,2.6s-2.6-1.2-2.6-2.6c0-1.4,1.2-2.6,2.6-2.6
									C-1616.2,812.1-1615,813.3-1615,814.7z"/>
								<path id="Trazado_191583" class="st15" d="M-1603.9,814.7c0,1.4-1.2,2.6-2.6,2.6s-2.6-1.2-2.6-2.6c0-1.4,1.2-2.6,2.6-2.6
									C-1605.1,812.1-1603.9,813.3-1603.9,814.7z"/>
								<path id="Trazado_191584" class="st15" d="M-1592.8,814.7c0,1.4-1.2,2.6-2.6,2.6s-2.6-1.2-2.6-2.6c0-1.4,1.2-2.6,2.6-2.6
									C-1594,812.1-1592.8,813.3-1592.8,814.7z"/>
								<path id="Trazado_191585" class="st15" d="M-1581.7,814.7c0,1.4-1.2,2.6-2.6,2.6c-1.4,0-2.6-1.2-2.6-2.6
									c0-1.4,1.2-2.6,2.6-2.6C-1582.9,812.1-1581.7,813.3-1581.7,814.7z"/>
								<path id="Trazado_191586" class="st15" d="M-1570.6,814.7c0,1.4-1.2,2.6-2.6,2.6s-2.6-1.2-2.6-2.6c0-1.4,1.2-2.6,2.6-2.6
									C-1571.8,812.1-1570.6,813.3-1570.6,814.7z"/>
								<path id="Trazado_191587" class="st15" d="M-1559.5,814.7c0,1.4-1.2,2.6-2.6,2.6c-1.4,0-2.6-1.2-2.6-2.6c0,0,0,0,0,0
									c0-1.4,1.2-2.6,2.6-2.6C-1560.7,812.1-1559.5,813.3-1559.5,814.7C-1559.5,814.7-1559.5,814.7-1559.5,814.7z"/>
							</g>
						</g>
						<g id="Grupo_134542">
							<path id="Trazado_191588" class="st16" d="M-1426,1075.9c0,3.7-3,6.8-6.8,6.8c-3.7,0-6.8-3-6.8-6.8c0-3.7,3-6.8,6.8-6.8
								C-1429.1,1069.1-1426,1072.2-1426,1075.9z"/>
							<path id="Trazado_191589" class="st17" d="M-1817.9,856.6c0,3.7-3,6.8-6.8,6.8s-6.8-3-6.8-6.8c0-3.7,3-6.8,6.8-6.8
								S-1817.9,852.8-1817.9,856.6z"/>
							<path id="Trazado_191590" class="st18" d="M-1715.5,1112.3c0,3.7-3,6.8-6.8,6.8s-6.8-3-6.8-6.8s3-6.8,6.8-6.8
								S-1715.5,1108.5-1715.5,1112.3z"/>
						</g>
					</g>
					<g id="Grupo_134560">
						<g id="Grupo_134545">
							<path id="Trazado_191591" class="st12" d="M-1577.3,905h-177.9c-4.3,0-7.8,3.5-7.8,7.9c0,0,0,0,0,0v176.4h193.6V912.8
								C-1569.5,908.5-1573,905-1577.3,905z"/>
							<g id="Grupo_134544">
								<path id="Trazado_191592" class="st19" d="M-1577.4,896.7c0-4.3-3.5-7.8-7.8-7.8c0,0,0,0,0,0h-177.9c-4.3,0-7.8,3.5-7.8,7.8
									v4.7h193.6L-1577.4,896.7z"/>
								<rect id="Rectángulo_83122" x="-1771" y="901.4" class="st20" width="193.6" height="171.7"/>
							</g>
						</g>
						<g id="Grupo_134559">
							<g id="Grupo_134546">
								<rect id="Rectángulo_83123" x="-1642.6" y="914.5" class="st21" width="51.4" height="8"/>
								<rect id="Rectángulo_83124" x="-1642.6" y="928.8" class="st21" width="51.4" height="8"/>
								<rect id="Rectángulo_83125" x="-1642.6" y="943.1" class="st21" width="51.4" height="8"/>
								<rect id="Rectángulo_83126" x="-1642.6" y="957.4" class="st21" width="51.4" height="8"/>
								<rect id="Rectángulo_83127" x="-1642.6" y="971.8" class="st21" width="51.4" height="8"/>
							</g>
							<g id="Grupo_134549">
								<rect id="Rectángulo_83128" x="-1644.5" y="989.8" class="st22" width="56.5" height="77.7"/>
								<g id="Grupo_134548">
									<rect id="Rectángulo_83129" x="-1640.5" y="993.8" class="st23" width="48.5" height="69.8"/>
									<rect id="Rectángulo_83130" x="-1635.5" y="997.9" class="st24" width="38.6" height="61.5"/>
									<g id="Grupo_134547">
										<path id="Trazado_191593" d="M-1618.5,1006.1h3.9l8,45.1h-3.7l-1.5-9.2h-9l-1.4,9.2h-3.6L-1618.5,1006.1z M-1612.3,1038.9
											l-4.2-25.5h-0.1l-3.8,25.5H-1612.3z"/>
									</g>
								</g>
							</g>
							<g id="Grupo_134558">
								<g id="Grupo_134550">
									<rect id="Rectángulo_83131" x="-1761.1" y="989" class="st21" width="106.8" height="8"/>
									<rect id="Rectángulo_83132" x="-1761.1" y="1004.8" class="st21" width="106.8" height="8"/>
									<rect id="Rectángulo_83133" x="-1761.1" y="1020.6" class="st21" width="63.9" height="8"/>
									<rect id="Rectángulo_83134" x="-1761.1" y="1036.3" class="st21" width="50.5" height="8"/>
									<rect id="Rectángulo_83135" x="-1695.3" y="1052.1" class="st17" width="13.2" height="8"/>
									<rect id="Rectángulo_83136" x="-1761.1" y="1052.1" class="st21" width="60" height="8"/>
									<rect id="Rectángulo_83137" x="-1692.2" y="1020.6" class="st25" width="25.9" height="8"/>
									<rect id="Rectángulo_83138" x="-1703" y="1036.3" class="st21" width="48.7" height="8"/>
									<rect id="Rectángulo_83139" x="-1674.8" y="1052.1" class="st21" width="20.5" height="8"/>
								</g>
								<g id="Grupo_134557">
									<g id="Grupo_134552">
										<rect id="Rectángulo_83140" x="-1753.7" y="921" class="st13" width="92.1" height="53.8"/>
										<g id="Grupo_134551">
											<path id="Trazado_191594" class="st26" d="M-1698.4,941.2l-10.5,22.1l-16.3-34.6l-21.7,46h43.4l-0.1-0.1h20.9
												L-1698.4,941.2z"/>
											<path id="Trazado_191595" class="st25" d="M-1676.6,926.9c-4.5,0-8.1,3.6-8.1,8.1c0,4.5,3.6,8.1,8.1,8.1
												c4.5,0,8.1-3.6,8.1-8.1c0,0,0,0,0,0C-1668.5,930.5-1672.1,926.9-1676.6,926.9z"/>
										</g>
									</g>
									<g id="Grupo_134556">
										<rect id="Rectángulo_83141" x="-1761.1" y="914.5" class="st22" width="106.8" height="66.9"/>
										<g id="Grupo_134555">
											<g id="Grupo_134553">
												<rect id="Rectángulo_83142" x="-1656.1" y="912.6" class="st13" width="3.7" height="3.7"/>
												<rect id="Rectángulo_83143" x="-1762.9" y="912.6" class="st13" width="3.7" height="3.7"/>
											</g>
											<g id="Grupo_134554">
												<rect id="Rectángulo_83144" x="-1656.1" y="979.5" class="st13" width="3.7" height="3.7"/>
												<rect id="Rectángulo_83145" x="-1762.9" y="979.5" class="st13" width="3.7" height="3.7"/>
											</g>
										</g>
									</g>
								</g>
							</g>
						</g>
					</g>
					<g id="Grupo_134563">
						<rect id="Rectángulo_83146" x="-1564.1" y="895.1" class="st22" width="70.4" height="70.4"/>
						<g id="Grupo_134562">
							<rect id="Rectángulo_83147" x="-1557.9" y="901.4" class="st27" width="57.8" height="57.8"/>
							<g id="Grupo_134561">
								<circle id="Elipse_4856" class="st13" cx="-1528.9" cy="930.3" r="17.7"/>
								<path id="Trazado_191596" class="st17" d="M-1532.8,919.4v21.8l13.9-10.9L-1532.8,919.4z"/>
							</g>
						</g>
					</g>
					<g id="Grupo_134566">
						<path id="Trazado_191597" class="st12" d="M-1592.8,861.9c0.9,8.5,8.1,14.9,16.7,14.9h86.7c8.5,0,15.7-6.4,16.7-14.9H-1592.8z
							"/>
						<g id="Grupo_134565">
							<path id="Rectángulo_83148" class="st11" d="M-1584.1,838h91.8c7.9,0,14.3,6.4,14.3,14.3v5c0,7.9-6.4,14.3-14.3,14.3h-91.8
								c-7.9,0-14.3-6.4-14.3-14.3v-5C-1598.4,844.4-1592,838-1584.1,838z"/>
							<g id="Grupo_134564">
								<path id="Rectángulo_83149" class="st21" d="M-1582.1,844.1h87.5c5,0,9.1,4.1,9.1,9.1v3.2c0,5-4.1,9.1-9.1,9.1h-87.5
									c-5,0-9.1-4.1-9.1-9.1v-3.2C-1591.2,848.1-1587.2,844.1-1582.1,844.1z"/>
								<path id="Trazado_191598" class="st20" d="M-1571.2,858.9l-3.6-3.4c0.4-0.7,0.6-1.5,0.6-2.3c0-2.6-2.1-4.8-4.8-4.8
									c-2.6,0-4.8,2.1-4.8,4.8c0,2.6,2.1,4.8,4.8,4.8c0.9,0,1.8-0.3,2.6-0.8l3.7,3.4c0.2,0.2,0.5,0.3,0.8,0.3
									c0.3,0,0.7-0.1,0.9-0.4c0.2-0.2,0.3-0.5,0.3-0.9C-1570.8,859.4-1571,859.1-1571.2,858.9z M-1576.3,853.3
									c0,1.6-1.3,2.8-2.8,2.8c-1.6,0-2.8-1.3-2.8-2.8c0-1.6,1.3-2.8,2.8-2.8C-1577.5,850.5-1576.3,851.8-1576.3,853.3
									L-1576.3,853.3z"/>
							</g>
						</g>
					</g>
					<g id="Grupo_134578">
						<path id="Trazado_191599" class="st12" d="M-1461.7,1004.8h-82.7c-1.7,0-3.1,1.4-3.1,3.1c0,0,0,0,0,0v49
							c0,1.7,1.4,3.1,3.1,3.1l0,0h82.7V1004.8z"/>
						<g id="Grupo_134577">
							<g id="Grupo_134570">
								<rect id="Rectángulo_83150" x="-1563.4" y="985.9" class="st22" width="124" height="66.3"/>
								<g id="Grupo_134569">
									<g id="Grupo_134567">
										<rect id="Rectángulo_83151" x="-1441.2" y="984.1" class="st11" width="3.7" height="3.7"/>
										<rect id="Rectángulo_83152" x="-1565.2" y="984.1" class="st11" width="3.7" height="3.7"/>
									</g>
									<g id="Grupo_134568">
										<rect id="Rectángulo_83153" x="-1441.2" y="1050.4" class="st11" width="3.7" height="3.7"/>
										<rect id="Rectángulo_83154" x="-1565.2" y="1050.4" class="st11" width="3.7" height="3.7"/>
									</g>
								</g>
							</g>
							<g id="Grupo_134576">
								<path id="Rectángulo_83155" class="st11" d="M-1555.2,991.4h107.7c1.5,0,2.7,1.2,2.7,2.7v50c0,1.5-1.2,2.7-2.7,2.7h-107.7
									c-1.5,0-2.7-1.2-2.7-2.7v-50C-1557.9,992.6-1556.7,991.4-1555.2,991.4z"/>
								<g id="Grupo_134575">
									<g id="Grupo_134573">
										<g id="Grupo_134571">
											<rect id="Rectángulo_83156" x="-1515.9" y="999.8" class="st21" width="34.9" height="6.8"/>
											<rect id="Rectángulo_83157" x="-1515.9" y="1011" class="st21" width="44.5" height="6.8"/>
											<rect id="Rectángulo_83158" x="-1467.5" y="1011" class="st28" width="18.9" height="6.8"/>
											<rect id="Rectángulo_83159" x="-1478.3" y="999.8" class="st21" width="9.7" height="6.8"/>
											<rect id="Rectángulo_83160" x="-1466.2" y="999.8" class="st21" width="15.2" height="6.8"/>
										</g>
										<g id="Grupo_134572">
											<rect id="Rectángulo_83161" x="-1515.9" y="1022.3" class="st21" width="34.9" height="6.8"/>
											<rect id="Rectángulo_83162" x="-1515.9" y="1033.5" class="st21" width="67.3" height="6.8"/>
											<rect id="Rectángulo_83163" x="-1478.3" y="1022.3" class="st17" width="9.7" height="6.8"/>
											<rect id="Rectángulo_83164" x="-1466.2" y="1022.3" class="st21" width="15.2" height="6.8"/>
										</g>
									</g>
									<g id="Grupo_134574">
										<path id="Trazado_191600" class="st13" d="M-1536.8,1001.1L-1536.8,1001.1c-6.2,0-11.2,5-11.2,11.2v3.5h3.6v-3.9
											c0-4.2,3.4-7.6,7.6-7.6l0,0c4.2,0,7.6,3.4,7.6,7.6v3.9h3.6v-3.5C-1525.6,1006.1-1530.6,1001.1-1536.8,1001.1z"/>
										<path id="Trazado_191601" class="st29" d="M-1525.6,1015.8h-22.2c-0.8,0-1.5,0.7-1.5,1.5v18.3c0,0.8,0.7,1.5,1.5,1.5
											c0,0,0,0,0,0h22.2c0.8,0,1.5-0.7,1.5-1.5c0,0,0,0,0,0v-18.3C-1524.2,1016.5-1524.8,1015.8-1525.6,1015.8L-1525.6,1015.8z
											 M-1535.1,1030.4h-3.4l0.4-3.7c-0.7-0.4-1-1.2-1-1.9c0-1.3,1-2.3,2.3-2.3h0c1.3,0,2.3,1,2.3,2.3v0c0,0.8-0.4,1.5-1,1.9
											L-1535.1,1030.4z"/>
									</g>
								</g>
							</g>
						</g>
					</g>
					<g id="Grupo_134598">
						<path id="Trazado_191602" class="st30" d="M-1535.5,1075.1c-19.6,0-35.5,10.4-35.5,23.3c0,10.1,9.8,18.7,23.6,21.9v15.5
							l14.2-14.2c18.6-0.8,33.3-10.9,33.3-23.2C-1500,1085.6-1515.9,1075.1-1535.5,1075.1z M-1551.1,1103.3c-2.7,0-4.9-2.2-4.9-4.9
							v0c0-2.7,2.2-4.9,4.9-4.9h0c2.7,0,4.9,2.2,4.9,4.9C-1546.2,1101.1-1548.4,1103.3-1551.1,1103.3L-1551.1,1103.3z
							 M-1535.5,1103.3c-2.7,0-4.9-2.2-4.9-4.9c0,0,0,0,0,0c0-2.7,2.2-4.9,4.9-4.9c0,0,0,0,0,0c2.7,0,4.9,2.2,4.9,4.9v0
							C-1530.6,1101.1-1532.8,1103.3-1535.5,1103.3L-1535.5,1103.3z M-1520,1103.3c-2.7,0-4.9-2.2-4.9-4.9v0c0-2.7,2.2-4.9,4.9-4.9
							h0c2.7,0,4.9,2.2,4.9,4.9v0C-1515.1,1101.1-1517.3,1103.3-1520,1103.3L-1520,1103.3z"/>
						<g id="Grupo_134586">
							<g id="Grupo_134580">
								<g id="Grupo_134579">
									<path id="Trazado_191603" class="st31" d="M-1670,832.5v-6.2l-4-0.8l0,0c-0.1-0.3-0.2-0.6-0.4-0.9l0,0l2.3-3.4l-4.4-4.4
										l-3.4,2.3l0,0c-0.3-0.1-0.6-0.3-0.9-0.4l0,0l-0.8-4h-6.2l-0.8,4l0,0c-0.3,0.1-0.6,0.2-0.9,0.4l0,0l-3.4-2.3l-4.4,4.4
										l2.3,3.4l0,0c-0.1,0.3-0.3,0.6-0.4,0.9l0,0l-4,0.8v6.2l4,0.8l0,0c0.1,0.3,0.2,0.6,0.4,0.9l0,0l-2.3,3.4l4.4,4.4l3.4-2.3
										l0,0c0.3,0.1,0.6,0.3,0.9,0.4l0,0l0.8,4h6.2l0.8-4l0,0c0.3-0.1,0.6-0.2,0.9-0.4l0,0l3.4,2.3l4.4-4.4l-2.3-3.4l0,0
										c0.1-0.3,0.3-0.6,0.4-0.9l0,0L-1670,832.5z M-1684.7,835.2c-3.2,0-5.8-2.6-5.8-5.8c0-3.2,2.6-5.8,5.8-5.8
										c3.2,0,5.8,2.6,5.8,5.8C-1678.9,832.6-1681.5,835.2-1684.7,835.2C-1684.7,835.2-1684.7,835.2-1684.7,835.2L-1684.7,835.2z"
										/>
								</g>
							</g>
							<g id="Grupo_134585">
								<g id="Grupo_134582">
									<g id="Grupo_134581">
										<path id="Trazado_191604" class="st12" d="M-1754.2,861.9l8.4,8.4l6.6-4.4l0,0c0.5,0.3,1.1,0.5,1.7,0.7l0,0l1.6,7.8h12.1
											l1.6-7.8l0,0c0.6-0.2,1.1-0.4,1.7-0.7l0,0l6.6,4.4l8.4-8.4H-1754.2z"/>
									</g>
								</g>
								<g id="Grupo_134584">
									<g id="Grupo_134583">
										<path id="Trazado_191605" class="st32" d="M-1707.1,847.1V835l-7.8-1.6l0,0c-0.2-0.6-0.4-1.1-0.7-1.7l0,0l4.4-6.6
											l-8.6-8.6l-6.6,4.4l0,0c-0.5-0.3-1.1-0.5-1.7-0.7l0,0l-1.6-7.8h-12.1l-1.6,7.8l0,0c-0.6,0.2-1.1,0.4-1.7,0.7l0,0l-6.6-4.4
											l-8.6,8.6l4.4,6.6l0,0c-0.3,0.5-0.5,1.1-0.7,1.7l0,0l-7.8,1.6v12.1l7.8,1.6l0,0c0.2,0.6,0.4,1.1,0.7,1.7l0,0l-4.4,6.6
											l8.6,8.6l6.6-4.4l0,0c0.5,0.3,1.1,0.5,1.7,0.7l0,0l1.6,7.8h12.1l1.6-7.8l0,0c0.6-0.2,1.1-0.4,1.7-0.7l0,0l6.6,4.4l8.6-8.6
											l-4.4-6.6l0,0c0.3-0.5,0.5-1.1,0.7-1.7l0,0L-1707.1,847.1z M-1735.7,852.4c-6.3,0-11.3-5.1-11.3-11.3
											c0-6.3,5.1-11.3,11.3-11.3c6.3,0,11.3,5.1,11.3,11.3v0C-1724.4,847.3-1729.4,852.4-1735.7,852.4L-1735.7,852.4z"/>
									</g>
								</g>
							</g>
						</g>
						<g id="Grupo_134587">
							<circle id="Elipse_4857" class="st20" cx="-1437.5" cy="923.6" r="33.7"/>
							<path id="Trazado_191606" class="st19" d="M-1431.6,897.4v19.4l-5.9,3.1l-5.9-3.1v-19.4c-7.2,2.5-12,9.2-12,16.8
								c0,7.4,4.6,14,11.5,16.6V952c2.1,0.5,4.2,0.7,6.4,0.7c2.1,0,4.3-0.2,6.4-0.7v-21.1c6.9-2.6,11.5-9.3,11.5-16.6
								C-1419.7,906.7-1424.5,899.9-1431.6,897.4z"/>
						</g>
						<g id="Grupo_134597">
							<g id="Grupo_134594">
								<path id="Trazado_191607" class="st12" d="M-1748.8,1020.8h-48.6v55h48.6c1.7,0,3.1-0.9,3.1-2.1v-50.8
									C-1745.6,1021.7-1747.1,1020.8-1748.8,1020.8z"/>
								<g id="Grupo_134593">
									<path id="Rectángulo_83165" class="st11" d="M-1863.8,1013.9h109.3c1.2,0,2.2,1,2.2,2.2v49.3c0,1.2-1,2.2-2.2,2.2h-109.3
										c-1.2,0-2.2-1-2.2-2.2v-49.3C-1866,1014.9-1865,1013.9-1863.8,1013.9z"/>
									<g id="Grupo_134592">
										<g id="Grupo_134588">
											<rect id="Rectángulo_83166" x="-1810.9" y="1052.5" class="st21" width="49.3" height="6.9"/>
											<rect id="Rectángulo_83167" x="-1810.9" y="1042.1" class="st21" width="49.3" height="6.9"/>
											<rect id="Rectángulo_83168" x="-1810.9" y="1031.6" class="st21" width="30.1" height="6.9"/>
											<rect id="Rectángulo_83169" x="-1775.4" y="1031.6" class="st16" width="13.9" height="6.9"/>
											<rect id="Rectángulo_83170" x="-1810.9" y="1021.1" class="st21" width="49.3" height="6.9"/>
										</g>
										<g id="Grupo_134591">
											<g id="Grupo_134590">
												<rect id="Rectángulo_83171" x="-1856.8" y="1020.6" class="st19" width="39" height="39"/>
												<g id="Grupo_134589">
													<path id="Trazado_191608" class="st23" d="M-1850,1040.5v-1.9l7.7-3.4v1.9l-5.8,2.4l5.8,2.3v2L-1850,1040.5z"/>
													<path id="Trazado_191609" class="st23" d="M-1835.7,1032.8h2.5l-5.7,13.5h-2.5L-1835.7,1032.8z"/>
													<path id="Trazado_191610" class="st23" d="M-1832.3,1041.9l5.8-2.3l-5.8-2.4v-1.9l7.7,3.4v1.9l-7.7,3.4V1041.9z"/>
												</g>
											</g>
										</g>
									</g>
								</g>
							</g>
							<g id="Grupo_134596">
								<rect id="Rectángulo_83172" x="-1797.7" y="936" class="st12" width="16.4" height="44.9"/>
								<g id="Grupo_134595">
									<rect id="Rectángulo_83173" x="-1869.3" y="926.8" class="st25" width="81.6" height="44.9"/>
									<path id="Trazado_191611" class="st29" d="M-1828.5,971.7h40.8l-40.8-28.1l-40.8,28.1H-1828.5z"/>
									<path id="Trazado_191612" class="st33" d="M-1828.5,926.8h-40.8l40.8,28.1l40.8-28.1H-1828.5z"/>
								</g>
							</g>
						</g>
					</g>
				</g>
			</g>
		</g>
		<g id="Grupo_133676">
			<path id="Rectángulo_82792" class="st34" d="M-2395,1176.4h1228.5c0.7,0,1.2,0.6,1.2,1.2l0,0c0,0.7-0.6,1.2-1.2,1.2H-2395
				c-0.7,0-1.2-0.6-1.2-1.2l0,0C-2396.2,1177-2395.7,1176.4-2395,1176.4z"/>
		</g>
		<g id="Grupo_133702">
			<g id="Grupo_133698">
				<g id="Grupo_133678">
					<path id="Trazado_190505" class="st35" d="M-1635.7,904.4c-0.5,0.5-0.6,1.3-0.3,1.9v0c0.5,1.3,2,2.8,3.8,4.2
						c0.2,0.2,0.4,0.4,0.6,0.5c0,0,0.1,0.1,0.1,0.1l0.1,0.1c1.7,1.6,1,1.9,4.1,5.1c3.4,3.6,5.8,3.7,6.5,3.3c0.6-0.3-0.6-2.2-1.9-4.3
						c-0.1-0.1-0.1-0.2-0.2-0.3c-0.2-0.3-0.3-0.6-0.5-0.9c-1.5-2.6-1.1-3.8-0.8-7.6c0.3-3.1,4.8-17.4,4.8-17.4l-6.6-1.1
						c0,0-2,11.4-4.2,13.1c-1.2,0.9-2.5,0.9-3.6,1.6c-0.1,0-0.2,0.1-0.2,0.1C-1634.5,903.3-1635.1,903.8-1635.7,904.4z"/>
				</g>
				<g id="Grupo_133679">
					<path id="Trazado_190506" class="st34" d="M-1635.7,904.4c-0.5,0.5-0.6,1.3-0.3,1.9v0c1,1.6,2.3,3.1,3.8,4.2
						c0.2,0.2,0.4,0.4,0.6,0.5c0,0,0.1,0.1,0.1,0.1l0.1,0.1c1.7,1.6,1,1.9,4.1,5.1c3.4,3.6,5.8,3.7,6.5,3.3c0.6-0.3-0.6-2.2-1.9-4.3
						c-2.4-0.9-4.5-2.5-6.1-4.5c-2-2.6-3.4-5.8-4.7-7.8l-0.4-0.1C-1634.5,903.3-1635.1,903.8-1635.7,904.4z"/>
				</g>
				<g id="Grupo_133680">
					<path id="Trazado_190507" class="st35" d="M-1582.4,900.3c0.4,2,3.3,1.7,6.6,0.9s2.5,0.2,7.1-0.4s6-2.2,6.2-2.9
						c0.1-0.6-2.2-0.8-4.6-1.1c-0.3,0-0.6-0.1-0.9-0.1c-2.8-0.3-4.8-2.1-7.3-3.6c-2.4-1.4-5.9-7-5.9-7l-6.3,0.5c0,0,3.3,5.1,4.6,7.2
						c0.6,1.3,0.8,2.9,0.6,4.3C-1582.5,898.8-1582.5,899.5-1582.4,900.3z"/>
				</g>
				<g id="Grupo_133681">
					<path id="Trazado_190508" class="st34" d="M-1575.8,901.2c3.2-0.8,2.5,0.2,7.1-0.4s6-2.2,6.2-2.9c0.1-0.6-2.2-0.8-4.6-1.1l0,0
						c-2,1.3-4.3,2-6.6,2.1c-3.1,0.1-6.5-0.8-8.6-0.8c-0.1,0.7-0.1,1.5,0,2.2C-1582,902.3-1579.1,902-1575.8,901.2z"/>
				</g>
				<g id="Grupo_133682">
					<path id="Trazado_190509" class="st36" d="M-1606.7,859.7l-5.9,15.9l-7.7,20.8c-1.4,0.1-2.8,0-4.1-0.4c-1.4-0.5-2.7-1.1-4-1.9
						c0,0,2.2-22.4,6.2-35.2c1-3.3,2.2-6,3.4-7.5C-1612.6,844.2-1606.7,859.7-1606.7,859.7z"/>
				</g>
				<g id="Grupo_133683">
					<path id="Trazado_190510" class="st37" d="M-1612.7,834.4c-3.4-1.1-12.2,0-21.7,1.7c-2.6,0.5-5.3-0.7-6.7-3l0,0l-24-1.9
						c0,0-7.9,17.6-3.6,28.8c0.7,1.7,2.4,2.8,4.2,2.7l0,0c0,0,14.5,0,19.2,0c11.9,0,25.3-8.2,27-8.5c2.8-0.6,4,5.1,6.8,11
						s26.5,26.3,26.5,26.3c1.7,0,3.5-0.1,5.2-0.5c0.8-0.3,1.6-0.7,2.2-1.4C-1577.7,889.5-1603.9,837.2-1612.7,834.4z"/>
				</g>
				<g id="Grupo_133684">
					<path id="Trazado_190511" class="st34" d="M-1643.6,762.5c-1.4-0.8-3-1.2-4.6-1.2c-0.7,0-1.5,0-2.2-0.1c-9.2-1.3-14.7,12-15,16
						c-0.6,7.4-4.5,8.5-10,13.1c-11,9.3-7.8,20.1-1.8,24.1c3.6,2.4,10,0,10,0c0.1,0.1,17.4-9.7,26-14.4
						C-1628.4,798.2-1638.5,765.6-1643.6,762.5z"/>
				</g>
				<g id="Grupo_133685">
					<path id="Trazado_190512" class="st35" d="M-1648.4,796c0,0-4.2,1.5-7,0.2c-2.7-1.2-4.7-5.6-4.7-5.6c1.2-0.1,2.5-1.1,3.6-8.1
						l0.5,0.2l8.7,3.1c0,0-0.6,2.8-1,5.4C-1648.7,793.5-1648.9,795.7-1648.4,796z"/>
				</g>
				<g id="Grupo_133686">
					<path id="Trazado_190513" class="st38" d="M-1647.3,785.9c0,0-0.3,1.5-0.9,4.3c-3.9-0.7-7-3.6-7.8-7.5L-1647.3,785.9z"/>
				</g>
				<g id="Grupo_133687">
					<path id="Trazado_190514" class="st35" d="M-1646,788.6c0,0-11.9-1.6-10.8-9s0.3-12.6,8-11.9s8.7,3.8,8.9,6.3
						S-1642.9,788.9-1646,788.6z"/>
				</g>
				<g id="Grupo_133688">
					<path id="Trazado_190515" class="st34" d="M-1640.3,770c0,0-7.6,6.6-12.8,7.1s-7.1-1.1-7.1-1.1c2.1-1.8,3.7-4.1,4.9-6.6
						c0.5-1.2,1.7-2,3-2.1C-1648.7,766.9-1641.7,766.7-1640.3,770z"/>
				</g>
				<g id="Grupo_133689">
					<path id="Trazado_190516" class="st34" d="M-1645.1,769.4c1.3,1.3,2.4,2.7,3.3,4.3c0.8,2.5,1,5.1,0.4,7.7c0,0,4-7.7,1.7-11.5
						C-1642,765.9-1645.1,769.4-1645.1,769.4z"/>
				</g>
				<g id="Grupo_133690">
					<path id="Trazado_190517" class="st39" d="M-1638.4,813.5c-0.4,24.1-0.1,19.1-2.7,21.3c-0.6,0.5-2.4,0.9-4.8,1
						c-7.4,0.5-20.4-0.7-20.9-2.1c-1.7-4.7-0.5-6.2-1.9-13.4c-0.1-0.8-0.3-1.6-0.5-2.5c-1.2-5-2.3-6.7,1.9-14.6
						c3.8-7.2,7.8-13.1,8.1-12.9c10.1,6,10.9,1,10.9,1S-1638.2,801.8-1638.4,813.5z"/>
				</g>
				<g id="Grupo_133691">
					<path id="Trazado_190518" class="st37" d="M-1612.6,875.7l-7.7,20.8c-1.4,0.1-2.8,0-4.1-0.4c-1.4-0.5-2.7-1.1-4-1.9
						c0,0,2.2-22.4,6.2-35.2L-1612.6,875.7z"/>
				</g>
				<g id="Grupo_133692">
					<path id="Trazado_190519" class="st39" d="M-1648.3,791.3c0,0,10.4,1.8,11.6,6.2s5.2,31.5,5.2,31.5s-2.9,2.8-5.4,0.4
						s-7.6-25.3-7.6-25.3L-1648.3,791.3z"/>
				</g>
				<g id="Grupo_133693">
					<path id="Trazado_190520" class="st34" d="M-1645.9,835.9c-7.4,0.5-20.4-0.7-20.9-2.1c-1.7-4.7-0.5-6.2-1.9-13.4l3.6-10
						c0,0-0.6,11.2,2.7,14.1s13.5,5.7,15.1,8.1C-1646.6,833.6-1646.1,834.7-1645.9,835.9z"/>
				</g>
				<g id="Grupo_133694">
					<path id="Trazado_190521" class="st35" d="M-1654.3,831.2c0,0,7.3-1.6,8.5-1s4,3,4.4,3.8s-2.6-0.6-3.6-0.9
						c-1.1,0-2.1,0.3-3.1,0.7c-1.8,0.7-3.7,0.9-5.5,0.6L-1654.3,831.2z"/>
				</g>
				<g id="Grupo_133695">
					<path id="Trazado_190522" class="st39" d="M-1659.2,790.3c0,0-9.8,0.6-13.2,5.3c-4.8,6.7-14.2,35-8.8,38.8
						c6.1,4.3,27.8,1.1,27.8,1.1s0.7-3.4-0.3-5s-17.3-4.3-18.1-5s9.4-14.7,9.4-16.9S-1659.2,790.3-1659.2,790.3z"/>
				</g>
				<g id="Grupo_133696">
					<path id="Trazado_190523" class="st35" d="M-1645.5,832.3c0.6,0.8,1.3,1.5,2,2.2c0.3,0.1,0.5,0.2,0.8,0.2l-1-1.9L-1645.5,832.3
						z"/>
				</g>
				<g id="Grupo_133697">
					<path id="Trazado_190524" class="st35" d="M-1645.9,830.2l4.4,2.2c-0.2,0.2-0.5,0.3-0.7,0.3c-0.7-0.1-1.3-0.3-1.9-0.5
						L-1645.9,830.2z"/>
				</g>
			</g>
			<g id="Grupo_133699">
				<path id="Trazado_190525" class="st34" d="M-1608,835.3l-46.4,0v1l46,0L-1608,835.3z"/>
			</g>
			<g id="Grupo_133700">
				<path id="Trazado_190526" class="st34" d="M-1643.5,836.3l35.1,0l10.6-26.3l-35.1,0L-1643.5,836.3z"/>
			</g>
			<g id="Grupo_133701">
				<path id="Trazado_190527" class="st23" d="M-1617.2,823.2c0.3-0.6,0-1.3-0.7-1.6c0,0,0,0,0,0c-0.2-0.1-0.3-0.1-0.5-0.1
					c-1,0.1-1.9,0.7-2.2,1.7c-0.3,0.6,0,1.3,0.7,1.6c0,0,0,0,0,0c0.2,0.1,0.3,0.1,0.5,0.1C-1618.4,824.8-1617.5,824.1-1617.2,823.2z
					"/>
			</g>
		</g>
		<g id="Grupo_133739">
			<g id="Grupo_133721">
				<path id="Trazado_190543" class="st35" d="M-1869.5,969.8c4.8-1.3,3.7-3.6,4.7-4.8s-0.8-5.8-1.3-6.5s-3.1,2.3-3.7,3.3
					s-1.6,3.2-1.6,3.2L-1869.5,969.8z"/>
			</g>
			<g id="Grupo_133722">
				<path id="Trazado_190544" class="st37" d="M-1919.1,977c0,0,7.9,8.4,24.5,8.2c10.7-0.1,25.6-14.2,25.6-14.2
					c0.9-3.5-2.2-6.5-2.2-6.5s-11.7,3.7-19.2,5.2c-9.5,1.9-33.8-18.4-33.8-18.4L-1919.1,977z"/>
			</g>
			<g id="Grupo_133723">
				<path id="Trazado_190545" class="st40" d="M-1956.3,1164.2c2.5,5.4,9.3,8.2,13.3,8.9s4.2,4.1,4.2,4.1l-13.9,0.1
					c0,0-10.9,0-11.2,0c-2.2-0.2-2.9-11.6-2.9-11.6S-1958.9,1158.5-1956.3,1164.2z"/>
			</g>
			<g id="Grupo_133724">
				<path id="Trazado_190546" class="st41" d="M-1963.8,1110.5c0.6-3.4,1.3-6.7,2.3-9.9c6.3-20.8,1.4-74.8,1.4-74.8l39.6,17.4l0,0
					c0,0,0,0.1,0,0.2c-0.4,2.2-4.3,25.1-17.2,64.4c-4.7,14.2-7.9,25.6-10.2,34.5c-4.4,17-5.2,24.6-5.2,24.6c-2.3,0.6-4.7,1-7,1
					c-2.6-0.1-5.1-0.6-7.5-1.4C-1967.7,1166.5-1967.8,1133.1-1963.8,1110.5z"/>
			</g>
			<g id="Grupo_133725">
				<path id="Trazado_190547" class="st34" d="M-1961.5,1100.6c6.2-20.8,1.3-74.8,1.3-74.8l39.6,17.4c0,0.1,0,0.1,0,0.2
					c-0.4,2.2-4.3,25.1-17.2,64.4c-4.7,14.2-7.9,25.6-10.2,34.5C-1947.9,1142.2-1962.4,1103.5-1961.5,1100.6z"/>
			</g>
			<g id="Grupo_133726">
				<path id="Trazado_190548" class="st42" d="M-1925.4,1164.2c2.5,5.4,9.3,8.2,13.3,8.9s4.2,4.1,4.2,4.1l-13.9,0.1
					c0,0-10.9,0-11.2,0c-2.2-0.2-2.9-11.6-2.9-11.6S-1928,1158.5-1925.4,1164.2z"/>
			</g>
			<g id="Grupo_133727">
				<path id="Trazado_190549" class="st41" d="M-1955.6,1028.4c0,0,14.4,52.4,11.9,73.9s6.2,64.6,6.2,64.6c2.8,0.8,5.7,1.1,8.7,1
					c2-0.4,3.9-0.8,5.8-1.5c0,0-2.1-18.3,4-61.3c3.7-25.9,5.5-52,5.5-78.1L-1955.6,1028.4z"/>
			</g>
			<g id="Grupo_133728">
				<path id="Trazado_190550" class="st35" d="M-1939.4,931.3c0-0.5-0.3-3.6-0.3-3.7l3.9,1.7l10.4,4.6c0.2,1.9,0.3,3.7,0.3,5.6
					c0,3.1-0.4,6.6-1.6,8.5l-7,2l-7.7-5.1C-1939.6,940.7-1938.9,936-1939.4,931.3z"/>
			</g>
			<g id="Grupo_133729">
				<path id="Trazado_190551" class="st24" d="M-1913.2,1027.1c-0.2-6.1-0.5-14.4-0.8-23c-0.8-18.4-1.9-38.1-2.2-39.9
					c-1.1-5.8-2.7-11.5-4.7-17c0,0-18.3-5.9-21.7-4.9c-16.5,4.8-21.2,81.8-18.9,92.1s38.7,11.8,48.3,2.5
					C-1913,1036.6-1913,1032.8-1913.2,1027.1z"/>
			</g>
			<g id="Grupo_133730">
				<path id="Trazado_190552" class="st43" d="M-1935.8,929.4l10.4,4.6c0.2,1.9,0.3,3.7,0.3,5.6c-3.9-1.4-11.4-4.6-13.5-8.2
					C-1939.5,929.9-1938.1,929.4-1935.8,929.4z"/>
			</g>
			<g id="Grupo_133731">
				<path id="Trazado_190553" class="st35" d="M-1922.3,910.2c-1.9-3.3-5.2-6.7-15.8-2.9s-6.3,10.2-3.2,20.7s19.9,5.3,19.9,5.3
					C-1917.1,931.7-1920.4,913.5-1922.3,910.2z"/>
			</g>
			<g id="Grupo_133732">
				<path id="Trazado_190554" class="st44" d="M-1951.9,909c-2.1,3.8,6.4,23.9,14.2,23.9c3.7,0,6.5-6.3,6.1-10s2.4-2.6,5-2
					s3.6-11.7,3.6-11.7C-1914.1,895.8-1945.7,898-1951.9,909z"/>
			</g>
			<g id="Grupo_133733">
				<path id="Trazado_190555" class="st37" d="M-1921,947.1l-21.7-4.9c0,0,1.8-4.4,3.2-4.9s13.7,5,14,5.1
					C-1922.7,943.6-1921,947.1-1921,947.1z"/>
			</g>
			<g id="Grupo_133734">
				<path id="Trazado_190556" class="st37" d="M-1914,1004.1c-6.3-15-20.1-32.4-34-40.2c0,0-3.2,36.1,34.9,63.2
					C-1913.3,1021-1913.7,1012.7-1914,1004.1z"/>
			</g>
			<g id="Grupo_133737">
				<g id="Grupo_133735">
					<path id="Trazado_190557" class="st35" d="M-1878.9,1016l-0.6-0.1l-0.8,4.5l2.4,1.1c3,1,6.3,1.4,7.4,0.9c3-1.2,4.3-1.9,4.8-2.5
						c0.6-0.7,0.9-1.7,0.8-2.6c0-0.4-0.1-1.4-0.5-1.5c-3-0.6-4.5,0-6.1-0.1c0,0-0.1,0-0.1,0c-0.1-0.1-0.2-0.2-0.1-0.3c0,0,0,0,0,0
						c0.2-0.4,0.4-0.9,0.5-1.1c1.3-2.4,0.2-2.5,0.2-2.5c-1.3,1.4-3,2.5-4.9,3C-1876.7,1015-1877.9,1016.2-1878.9,1016z"/>
				</g>
				<g id="Grupo_133736">
					<path id="Trazado_190558" class="st24" d="M-1925.4,955.7c4.2,7,11.7,36.1,14.3,37.5c5.8,3,32.1,22.1,32.1,22.1
						c2,2.7-1.9,6-1.9,6s-38.2-10.3-45.3-18.2c-44.2-49.5-10-56-10-56C-1931.7,948.5-1927.8,951.6-1925.4,955.7z"/>
				</g>
			</g>
			<g id="Grupo_133738">
				<path id="Trazado_190559" class="st35" d="M-1867.1,964.8c0.2-0.7,0.1-2.8,0.7-4.3c0.3-0.7,0.5-1.4,0.5-2.2
					c-0.1-1-0.9-1.3-1.1-1.1c-1,1.5-1.7,3.2-2.2,5c-0.3,1.1-0.8,2.2-1.3,3.3C-1870.4,965.5-1867.6,966.5-1867.1,964.8z"/>
			</g>
		</g>
	</g>
	<path id="Rectángulo_83105" class="st19" d="M16219.4-8055.5h237.3c24.4,0,44.2,19.8,44.2,44.2l0,0c0,24.4-19.8,44.2-44.2,44.2
		h-237.3c-24.4,0-44.2-19.8-44.2-44.2l0,0C16175.2-8035.7,16195-8055.5,16219.4-8055.5z"/>
	<g class="st45">
		<path class="st23" d="M16216.3-8017.8l2.9,8.2l2.9-8.2h3.1v11.4h-2.4v-3.1l0.2-5.4l-3.1,8.5h-1.6l-3.1-8.5l0.2,5.4v3.1h-2.3v-11.4
			H16216.3z"/>
		<path class="st23" d="M16232-8006.5c-0.1-0.2-0.2-0.5-0.2-0.8c-0.5,0.6-1.3,0.9-2.1,0.9c-0.8,0-1.5-0.2-2.1-0.7
			c-0.5-0.5-0.8-1.1-0.8-1.8c0-0.9,0.3-1.6,1-2.1s1.6-0.7,2.9-0.7h1v-0.5c0-0.4-0.1-0.7-0.3-0.9c-0.2-0.2-0.5-0.4-0.9-0.4
			c-0.4,0-0.7,0.1-0.9,0.3c-0.2,0.2-0.3,0.4-0.3,0.8h-2.3c0-0.5,0.2-0.9,0.5-1.4c0.3-0.4,0.7-0.7,1.3-1c0.6-0.2,1.2-0.4,1.9-0.4
			c1,0,1.9,0.3,2.5,0.8c0.6,0.5,0.9,1.3,0.9,2.2v3.7c0,0.8,0.1,1.4,0.3,1.8v0.1H16232z M16230.1-8008c0.3,0,0.6-0.1,0.9-0.2
			s0.5-0.3,0.6-0.6v-1.5h-0.8c-1.1,0-1.7,0.4-1.8,1.2l0,0.1c0,0.3,0.1,0.5,0.3,0.7C16229.5-8008.1,16229.8-8008,16230.1-8008z"/>
		<path class="st23" d="M16237.7-8014.9l0.1,1c0.6-0.8,1.4-1.1,2.4-1.1c0.9,0,1.6,0.3,2,0.8s0.7,1.3,0.7,2.4v5.5h-2.3v-5.4
			c0-0.5-0.1-0.8-0.3-1c-0.2-0.2-0.6-0.3-1-0.3c-0.6,0-1.1,0.3-1.4,0.8v6h-2.3v-8.5H16237.7z"/>
		<path class="st23" d="M16248.5-8006.3c-1.2,0-2.2-0.4-3-1.1c-0.8-0.8-1.2-1.8-1.2-3v-0.2c0-0.8,0.2-1.6,0.5-2.3s0.8-1.2,1.4-1.5
			s1.3-0.5,2.1-0.5c1.2,0,2.1,0.4,2.7,1.1s1,1.8,1,3.1v0.9h-5.4c0.1,0.6,0.3,1,0.7,1.3s0.8,0.5,1.4,0.5c0.9,0,1.5-0.3,2-0.9l1.1,1.2
			c-0.3,0.5-0.8,0.9-1.4,1.1S16249.2-8006.3,16248.5-8006.3z M16248.2-8013.3c-0.4,0-0.8,0.2-1.1,0.5c-0.3,0.3-0.5,0.7-0.5,1.3h3.1
			v-0.2c0-0.5-0.1-0.9-0.4-1.2C16249.1-8013.1,16248.7-8013.3,16248.2-8013.3z"/>
		<path class="st23" d="M16255.6-8014.9v8.9c0,0.9-0.2,1.7-0.7,2.2c-0.5,0.5-1.2,0.8-2.1,0.8c-0.4,0-0.8,0-1.1-0.1v-1.8
			c0.3,0,0.5,0.1,0.7,0.1c0.7,0,1-0.4,1-1.1v-8.9H16255.6z M16253.2-8017.1c0-0.3,0.1-0.6,0.3-0.8s0.5-0.3,0.9-0.3s0.7,0.1,0.9,0.3
			s0.3,0.5,0.3,0.8c0,0.3-0.1,0.6-0.3,0.8c-0.2,0.2-0.5,0.3-0.9,0.3c-0.4,0-0.7-0.1-0.9-0.3
			C16253.3-8016.5,16253.2-8016.8,16253.2-8017.1z"/>
		<path class="st23" d="M16257.1-8010.8c0-0.8,0.2-1.6,0.5-2.2c0.3-0.7,0.8-1.2,1.4-1.5c0.6-0.4,1.3-0.5,2.1-0.5
			c1.1,0,2.1,0.3,2.8,1c0.7,0.7,1.1,1.6,1.2,2.8l0,0.6c0,1.3-0.4,2.3-1.1,3.1c-0.7,0.8-1.7,1.2-2.9,1.2s-2.2-0.4-2.9-1.2
			s-1.1-1.8-1.1-3.2V-8010.8z M16259.3-8010.6c0,0.8,0.2,1.4,0.5,1.8c0.3,0.4,0.7,0.6,1.3,0.6c0.5,0,1-0.2,1.3-0.6
			c0.3-0.4,0.5-1.1,0.5-2c0-0.8-0.2-1.4-0.5-1.8c-0.3-0.4-0.7-0.6-1.3-0.6c-0.6,0-1,0.2-1.3,0.6
			C16259.5-8012.2,16259.3-8011.5,16259.3-8010.6z"/>
		<path class="st23" d="M16274.3-8006.3c-1.2,0-2.2-0.4-3-1.1c-0.8-0.8-1.2-1.8-1.2-3v-0.2c0-0.8,0.2-1.6,0.5-2.3s0.8-1.2,1.4-1.5
			s1.3-0.5,2.1-0.5c1.2,0,2.1,0.4,2.7,1.1s1,1.8,1,3.1v0.9h-5.4c0.1,0.6,0.3,1,0.7,1.3s0.8,0.5,1.4,0.5c0.9,0,1.5-0.3,2-0.9l1.1,1.2
			c-0.3,0.5-0.8,0.9-1.4,1.1S16275-8006.3,16274.3-8006.3z M16274.1-8013.3c-0.4,0-0.8,0.2-1.1,0.5c-0.3,0.3-0.5,0.7-0.5,1.3h3.1
			v-0.2c0-0.5-0.1-0.9-0.4-1.2C16274.9-8013.1,16274.6-8013.3,16274.1-8013.3z"/>
		<path class="st23" d="M16283.1-8017.1c0-0.3,0.1-0.6,0.3-0.8s0.5-0.3,0.9-0.3c0.4,0,0.7,0.1,0.9,0.3c0.2,0.2,0.3,0.5,0.3,0.8
			c0,0.3-0.1,0.6-0.3,0.8c-0.2,0.2-0.5,0.3-0.9,0.3c-0.4,0-0.7-0.1-0.9-0.3C16283.2-8016.5,16283.1-8016.8,16283.1-8017.1z
			 M16285.5-8006.5h-2.3v-8.5h2.3V-8006.5z"/>
		<path class="st23" d="M16289.4-8014.9l0.1,1c0.6-0.8,1.4-1.1,2.4-1.1c0.9,0,1.6,0.3,2,0.8s0.7,1.3,0.7,2.4v5.5h-2.3v-5.4
			c0-0.5-0.1-0.8-0.3-1c-0.2-0.2-0.6-0.3-1-0.3c-0.6,0-1.1,0.3-1.4,0.8v6h-2.3v-8.5H16289.4z"/>
		<path class="st23" d="M16300.9-8008.8c0-0.3-0.1-0.5-0.4-0.7s-0.7-0.3-1.3-0.4c-2-0.4-3-1.3-3-2.6c0-0.8,0.3-1.4,0.9-1.9
			c0.6-0.5,1.4-0.8,2.4-0.8c1.1,0,1.9,0.3,2.6,0.8c0.6,0.5,1,1.2,1,2h-2.3c0-0.3-0.1-0.6-0.3-0.8c-0.2-0.2-0.5-0.3-1-0.3
			c-0.4,0-0.7,0.1-0.9,0.3c-0.2,0.2-0.3,0.4-0.3,0.7c0,0.2,0.1,0.5,0.4,0.6c0.2,0.2,0.6,0.3,1.2,0.4s1,0.2,1.4,0.4
			c1.2,0.4,1.8,1.2,1.8,2.3c0,0.8-0.3,1.4-1,1.9c-0.7,0.5-1.5,0.7-2.6,0.7c-0.7,0-1.3-0.1-1.9-0.4c-0.5-0.3-1-0.6-1.3-1
			s-0.5-0.9-0.5-1.4h2.1c0,0.4,0.2,0.7,0.4,0.9c0.3,0.2,0.6,0.3,1.1,0.3c0.4,0,0.8-0.1,1-0.2
			C16300.7-8008.3,16300.9-8008.5,16300.9-8008.8z"/>
		<path class="st23" d="M16307.2-8017v2.1h1.4v1.7h-1.4v4.2c0,0.3,0.1,0.5,0.2,0.7c0.1,0.1,0.3,0.2,0.7,0.2c0.2,0,0.5,0,0.7-0.1v1.7
			c-0.4,0.1-0.9,0.2-1.4,0.2c-1.6,0-2.4-0.8-2.4-2.4v-4.6h-1.2v-1.7h1.2v-2.1H16307.2z"/>
		<path class="st23" d="M16314.8-8006.5c-0.1-0.2-0.2-0.5-0.2-0.8c-0.5,0.6-1.3,0.9-2.1,0.9c-0.8,0-1.5-0.2-2.1-0.7
			c-0.5-0.5-0.8-1.1-0.8-1.8c0-0.9,0.3-1.6,1-2.1s1.6-0.7,2.9-0.7h1v-0.5c0-0.4-0.1-0.7-0.3-0.9c-0.2-0.2-0.5-0.4-0.9-0.4
			c-0.4,0-0.7,0.1-0.9,0.3c-0.2,0.2-0.3,0.4-0.3,0.8h-2.3c0-0.5,0.2-0.9,0.5-1.4c0.3-0.4,0.7-0.7,1.3-1c0.6-0.2,1.2-0.4,1.9-0.4
			c1,0,1.9,0.3,2.5,0.8c0.6,0.5,0.9,1.3,0.9,2.2v3.7c0,0.8,0.1,1.4,0.3,1.8v0.1H16314.8z M16312.9-8008c0.3,0,0.6-0.1,0.9-0.2
			s0.5-0.3,0.6-0.6v-1.5h-0.8c-1.1,0-1.7,0.4-1.8,1.2l0,0.1c0,0.3,0.1,0.5,0.3,0.7C16312.3-8008.1,16312.6-8008,16312.9-8008z"/>
		<path class="st23" d="M16320.9-8006.5h-2.3v-12h2.3V-8006.5z"/>
		<path class="st23" d="M16327.6-8006.5c-0.1-0.2-0.2-0.5-0.2-0.8c-0.5,0.6-1.3,0.9-2.1,0.9c-0.8,0-1.5-0.2-2.1-0.7
			c-0.5-0.5-0.8-1.1-0.8-1.8c0-0.9,0.3-1.6,1-2.1s1.6-0.7,2.9-0.7h1v-0.5c0-0.4-0.1-0.7-0.3-0.9c-0.2-0.2-0.5-0.4-0.9-0.4
			c-0.4,0-0.7,0.1-0.9,0.3c-0.2,0.2-0.3,0.4-0.3,0.8h-2.3c0-0.5,0.2-0.9,0.5-1.4c0.3-0.4,0.7-0.7,1.3-1c0.6-0.2,1.2-0.4,1.9-0.4
			c1,0,1.9,0.3,2.5,0.8c0.6,0.5,0.9,1.3,0.9,2.2v3.7c0,0.8,0.1,1.4,0.3,1.8v0.1H16327.6z M16325.8-8008c0.3,0,0.6-0.1,0.9-0.2
			s0.5-0.3,0.6-0.6v-1.5h-0.8c-1.1,0-1.7,0.4-1.8,1.2l0,0.1c0,0.3,0.1,0.5,0.3,0.7C16325.1-8008.1,16325.4-8008,16325.8-8008z"/>
		<path class="st23" d="M16334.8-8008.1c0.4,0,0.8-0.1,1-0.3c0.3-0.2,0.4-0.5,0.4-0.9h2.1c0,0.6-0.2,1.1-0.5,1.6
			c-0.3,0.5-0.7,0.8-1.3,1.1c-0.5,0.3-1.1,0.4-1.8,0.4c-1.2,0-2.2-0.4-2.9-1.2c-0.7-0.8-1-1.8-1-3.2v-0.1c0-1.3,0.3-2.3,1-3.1
			c0.7-0.8,1.6-1.2,2.9-1.2c1.1,0,1.9,0.3,2.5,0.9c0.6,0.6,1,1.4,1,2.4h-2.1c0-0.4-0.1-0.8-0.4-1.1c-0.3-0.3-0.6-0.4-1-0.4
			c-0.5,0-0.9,0.2-1.2,0.6c-0.3,0.4-0.4,1-0.4,1.9v0.2c0,0.9,0.1,1.5,0.4,1.9S16334.3-8008.1,16334.8-8008.1z"/>
		<path class="st23" d="M16339.6-8017.1c0-0.3,0.1-0.6,0.3-0.8s0.5-0.3,0.9-0.3c0.4,0,0.7,0.1,0.9,0.3c0.2,0.2,0.3,0.5,0.3,0.8
			c0,0.3-0.1,0.6-0.3,0.8c-0.2,0.2-0.5,0.3-0.9,0.3c-0.4,0-0.7-0.1-0.9-0.3C16339.8-8016.5,16339.6-8016.8,16339.6-8017.1z
			 M16342-8006.5h-2.3v-8.5h2.3V-8006.5z"/>
		<path class="st23" d="M16343.5-8010.8c0-0.8,0.2-1.6,0.5-2.2c0.3-0.7,0.8-1.2,1.4-1.5c0.6-0.4,1.3-0.5,2.1-0.5
			c1.1,0,2.1,0.3,2.8,1c0.7,0.7,1.1,1.6,1.2,2.8l0,0.6c0,1.3-0.4,2.3-1.1,3.1c-0.7,0.8-1.7,1.2-2.9,1.2s-2.2-0.4-2.9-1.2
			s-1.1-1.8-1.1-3.2V-8010.8z M16345.8-8010.6c0,0.8,0.2,1.4,0.5,1.8c0.3,0.4,0.7,0.6,1.3,0.6c0.5,0,1-0.2,1.3-0.6
			c0.3-0.4,0.5-1.1,0.5-2c0-0.8-0.2-1.4-0.5-1.8c-0.3-0.4-0.7-0.6-1.3-0.6c-0.6,0-1,0.2-1.3,0.6
			C16346-8012.2,16345.8-8011.5,16345.8-8010.6z M16348-8018.5h2.5l-2.2,2.4h-1.8L16348-8018.5z"/>
		<path class="st23" d="M16355-8014.9l0.1,1c0.6-0.8,1.4-1.1,2.4-1.1c0.9,0,1.6,0.3,2,0.8s0.7,1.3,0.7,2.4v5.5h-2.3v-5.4
			c0-0.5-0.1-0.8-0.3-1c-0.2-0.2-0.6-0.3-1-0.3c-0.6,0-1.1,0.3-1.4,0.8v6h-2.3v-8.5H16355z"/>
		<path class="st23" d="M16365.5-8010.8c0-1.3,0.3-2.4,0.9-3.1c0.6-0.8,1.4-1.2,2.4-1.2c0.8,0,1.5,0.3,2,0.9v-4.3h2.3v12h-2
			l-0.1-0.9c-0.6,0.7-1.3,1.1-2.2,1.1c-1,0-1.8-0.4-2.4-1.2S16365.5-8009.4,16365.5-8010.8z M16367.8-8010.6c0,0.8,0.1,1.4,0.4,1.8
			c0.3,0.4,0.7,0.6,1.2,0.6c0.7,0,1.2-0.3,1.5-0.9v-3.4c-0.3-0.6-0.8-0.9-1.5-0.9C16368.3-8013.3,16367.8-8012.4,16367.8-8010.6z"/>
		<path class="st23" d="M16378.8-8006.3c-1.2,0-2.2-0.4-3-1.1c-0.8-0.8-1.2-1.8-1.2-3v-0.2c0-0.8,0.2-1.6,0.5-2.3s0.8-1.2,1.4-1.5
			s1.3-0.5,2.1-0.5c1.2,0,2.1,0.4,2.7,1.1s1,1.8,1,3.1v0.9h-5.4c0.1,0.6,0.3,1,0.7,1.3s0.8,0.5,1.4,0.5c0.9,0,1.5-0.3,2-0.9l1.1,1.2
			c-0.3,0.5-0.8,0.9-1.4,1.1S16379.5-8006.3,16378.8-8006.3z M16378.5-8013.3c-0.4,0-0.8,0.2-1.1,0.5c-0.3,0.3-0.5,0.7-0.5,1.3h3.1
			v-0.2c0-0.5-0.1-0.9-0.4-1.2C16379.4-8013.1,16379-8013.3,16378.5-8013.3z"/>
	</g>
	<g class="st45">
		<path class="st23" d="M16392.1-8008.8c0.1-0.6-0.2-1-1-1.2l-1.5-0.4c-1.2-0.4-1.8-1.1-1.8-2.1c0-0.7,0.4-1.4,1-1.8
			c0.6-0.5,1.4-0.7,2.3-0.7c0.9,0,1.5,0.3,2.1,0.7c0.5,0.5,0.8,1.1,0.8,1.9l-1.4,0c0-0.4-0.1-0.8-0.4-1c-0.3-0.3-0.6-0.4-1.1-0.4
			c-0.5,0-0.9,0.1-1.3,0.4c-0.3,0.2-0.5,0.5-0.6,0.9c-0.1,0.5,0.2,0.8,0.9,1.1l0.7,0.2c1,0.2,1.7,0.6,2.1,1s0.6,0.9,0.6,1.5
			c0,0.5-0.2,1-0.5,1.4s-0.7,0.7-1.2,0.9c-0.5,0.2-1.1,0.3-1.7,0.3c-0.9,0-1.6-0.3-2.2-0.8c-0.6-0.5-0.9-1.2-0.8-2l1.4,0
			c0,0.5,0.2,0.9,0.5,1.1c0.3,0.3,0.7,0.4,1.2,0.4c0.5,0,1-0.1,1.3-0.3S16392.1-8008.4,16392.1-8008.8z"/>
		<path class="st23" d="M16399.7-8015.1c0.7,0,1.3,0.2,1.8,0.6c0.5,0.4,0.9,0.9,1.1,1.6s0.3,1.4,0.2,2.2l0,0.2
			c-0.1,0.8-0.3,1.6-0.7,2.2s-0.9,1.2-1.5,1.6c-0.6,0.4-1.3,0.5-2,0.5c-0.7,0-1.3-0.2-1.8-0.6s-0.9-0.9-1.1-1.5s-0.3-1.4-0.2-2.1
			c0.1-0.9,0.3-1.7,0.7-2.4c0.4-0.7,0.9-1.2,1.5-1.6C16398.2-8014.9,16398.9-8015.1,16399.7-8015.1z M16396.8-8010.6
			c0,0.3,0,0.7,0,1c0.1,0.6,0.2,1.1,0.6,1.5c0.3,0.4,0.7,0.6,1.3,0.6c0.5,0,0.9-0.1,1.3-0.3c0.4-0.2,0.7-0.6,1-1.1
			c0.3-0.5,0.4-1.1,0.5-1.7c0-0.5,0-0.9,0-1.2c-0.1-0.6-0.3-1.1-0.6-1.5c-0.3-0.4-0.7-0.6-1.3-0.6c-0.7,0-1.3,0.3-1.9,0.9
			c-0.5,0.6-0.8,1.4-0.9,2.3L16396.8-8010.6z"/>
		<path class="st23" d="M16404.6-8006.5l1.3-7.3h-1.3l0.2-1.1h1.3l0.1-1c0.1-0.8,0.5-1.5,1-2c0.5-0.5,1.2-0.7,2.1-0.7
			c0.3,0,0.6,0,1,0.1l-0.2,1.2c-0.2-0.1-0.5-0.1-0.8-0.1c-0.5,0-0.9,0.2-1.2,0.5s-0.5,0.7-0.6,1.2l-0.1,0.8h1.8l-0.2,1.1h-1.8
			l-1.3,7.3H16404.6z"/>
		<path class="st23" d="M16413.1-8017l-0.4,2h1.5l-0.2,1.1h-1.5l-0.9,5.3c0,0.1,0,0.3,0,0.4c0,0.4,0.3,0.6,0.7,0.6
			c0.2,0,0.4,0,0.7-0.1l-0.1,1.2c-0.3,0.1-0.7,0.1-1,0.1c-0.6,0-1-0.2-1.3-0.6s-0.4-0.9-0.3-1.6l0.9-5.2h-1.5l0.2-1.1h1.5l0.4-2
			H16413.1z"/>
		<path class="st23" d="M16422.1-8008.5l2.7-6.5h1.5l-3.9,8.5h-1.1l-0.9-6.4l-3,6.4h-1.1l-0.9-8.5h1.4l0.5,6.3l3-6.3h1.1
			L16422.1-8008.5z"/>
		<path class="st23" d="M16431.4-8006.5c0-0.2-0.1-0.3-0.1-0.4l0-0.4c-0.8,0.7-1.6,1.1-2.5,1c-0.7,0-1.4-0.2-1.8-0.7
			c-0.5-0.5-0.7-1-0.6-1.7c0.1-0.9,0.4-1.6,1.2-2.1c0.7-0.5,1.7-0.8,2.9-0.8l1.5,0l0.1-0.7c0.1-0.5,0-0.9-0.3-1.2
			c-0.2-0.3-0.6-0.4-1.1-0.5c-0.5,0-0.9,0.1-1.3,0.4c-0.4,0.2-0.6,0.6-0.7,1l-1.4,0c0-0.5,0.2-0.9,0.6-1.3c0.3-0.4,0.8-0.7,1.3-0.9
			s1.1-0.3,1.6-0.3c0.9,0,1.6,0.3,2.1,0.8c0.5,0.5,0.7,1.2,0.6,2l-0.7,4.2l0,0.6c0,0.3,0,0.6,0.1,0.9l0,0.1H16431.4z
			 M16429.2-8007.6c0.5,0,0.9-0.1,1.3-0.3c0.4-0.2,0.8-0.5,1-0.9l0.3-1.7l-1.1,0c-0.9,0-1.6,0.1-2,0.4c-0.5,0.3-0.7,0.7-0.8,1.2
			c0,0.4,0,0.7,0.3,1C16428.4-8007.7,16428.8-8007.6,16429.2-8007.6z"/>
		<path class="st23" d="M16440.1-8013.6l-0.7-0.1c-0.9,0-1.6,0.4-2.1,1.2l-1,6h-1.4l1.5-8.5l1.4,0l-0.2,1c0.6-0.8,1.3-1.2,2.1-1.1
			c0.2,0,0.4,0,0.7,0.1L16440.1-8013.6z"/>
		<path class="st23" d="M16443.6-8006.3c-1.1,0-1.9-0.4-2.5-1.2s-0.8-1.7-0.8-2.9l0-0.3c0.1-0.8,0.3-1.6,0.7-2.3
			c0.4-0.7,0.9-1.2,1.5-1.6c0.6-0.4,1.2-0.5,1.9-0.5c0.9,0,1.6,0.3,2,0.9c0.5,0.6,0.8,1.3,0.8,2.3c0,0.3,0,0.7,0,1l-0.1,0.6h-5.5
			c-0.1,0.8,0,1.4,0.4,2c0.3,0.5,0.9,0.8,1.6,0.8c0.8,0,1.6-0.4,2.3-1.1l0.8,0.7c-0.4,0.5-0.8,0.9-1.4,1.2
			C16444.9-8006.4,16444.3-8006.3,16443.6-8006.3z M16444.5-8013.9c-0.6,0-1.1,0.2-1.5,0.6c-0.4,0.4-0.8,1-1,1.8l4.1,0l0-0.1
			c0.1-0.7,0-1.2-0.3-1.6C16445.5-8013.7,16445.1-8013.9,16444.5-8013.9z"/>
	</g>
	<g class="st45">
		<path class="st23" d="M16449-8007.6c0-0.4,0.1-0.7,0.4-0.9s0.5-0.3,0.9-0.3c0.4,0,0.7,0.1,0.9,0.3s0.4,0.5,0.4,0.9
			c0,0.4-0.1,0.6-0.4,0.9c-0.2,0.2-0.5,0.3-0.9,0.3c-0.4,0-0.7-0.1-0.9-0.3C16449.1-8006.9,16449-8007.2,16449-8007.6z"/>
	</g>
</g>
</svg>
