<svg xmlns="http://www.w3.org/2000/svg" xmlns:xlink="http://www.w3.org/1999/xlink" width="95.731" height="110.504" viewBox="0 0 95.731 110.504">
  <defs>
    <linearGradient id="linear-gradient" x1="-17.678" y1="0.762" x2="-16.788" y2="0.122" gradientUnits="objectBoundingBox">
      <stop offset="0" stop-color="#0d2380"/>
      <stop offset="0.17" stop-color="#112782"/>
      <stop offset="0.371" stop-color="#20348b"/>
      <stop offset="0.587" stop-color="#374a99"/>
      <stop offset="0.813" stop-color="#5868ad"/>
      <stop offset="1" stop-color="#7a87c1"/>
    </linearGradient>
    <linearGradient id="linear-gradient-2" x1="-61.976" y1="0.684" x2="-61.648" y2="0.255" gradientUnits="objectBoundingBox">
      <stop offset="0" stop-color="#727293"/>
      <stop offset="0.162" stop-color="#767697"/>
      <stop offset="0.353" stop-color="#8585a4"/>
      <stop offset="0.559" stop-color="#9c9cb9"/>
      <stop offset="0.775" stop-color="#bebed6"/>
      <stop offset="0.997" stop-color="#e8e8fc"/>
      <stop offset="1" stop-color="#e9e9fd"/>
    </linearGradient>
    <linearGradient id="linear-gradient-3" x1="-18.065" y1="-0.23" x2="-18.065" y2="-0.698" xlink:href="#linear-gradient-2"/>
  </defs>
  <g id="Grupo_134851" data-name="Grupo 134851" transform="translate(11417.676 11597.862)">
    <g id="Grupo_134826" data-name="Grupo 134826" transform="translate(-11417.676 -11597.862)">
      <path id="Trazado_192224" data-name="Trazado 192224" d="M1069.65,133.995l2.427-1.735h0a2.584,2.584,0,0,1,2.974.068l84.807,48.963c2.318,1.338,4.2,4.928,4.2,8.018v47.535a3.818,3.818,0,0,1-1.339,3.317l.008,0-2.521,1.8-.138-1.843c-.069-.036-.137-.064-.206-.1l-84.807-48.964c-2.317-1.338-4.2-4.928-4.2-8.018V135.5a6.248,6.248,0,0,1,.122-1.25Z" transform="translate(-1068.323 -131.826)" fill="url(#linear-gradient)"/>
      <path id="Trazado_192225" data-name="Trazado 192225" d="M1155.119,180.747l-22.385,12.925-5.638-3.255,25.422-14.678A10.8,10.8,0,0,1,1155.119,180.747Z" transform="translate(-1059.606 -125.162)" fill="url(#linear-gradient-2)"/>
      <path id="Trazado_192226" data-name="Trazado 192226" d="M1072.695,192.624l84.806,48.964c2.318,1.338,4.2-.083,4.2-3.173V190.881c0-3.09-1.879-6.68-4.2-8.018L1072.695,133.9c-2.318-1.338-4.2.082-4.2,3.172v47.535C1068.5,187.7,1070.377,191.286,1072.695,192.624Z" transform="translate(-1068.498 -131.588)" fill="url(#linear-gradient-3)"/>
      <path id="Trazado_192227" data-name="Trazado 192227" d="M1079.112,160.59l69.215,39.924c.534.309.989.475,1.3-.007.049-.075.023-.184.023-.287v-10.5a2.652,2.652,0,0,0-1.107-2.116l-69.753-40.272c-.054-.031-.1-.086-.161-.077-.523.085-.544.568-.544,1.311l-.168,10.071A2.428,2.428,0,0,0,1079.112,160.59Z" transform="translate(-1067.068 -129.484)" fill="#afafaf"/>
      <path id="Trazado_192228" data-name="Trazado 192228" d="M1078.968,180.406l69.331,39.96c.534.309,1.224.632,1.329.022a1.749,1.749,0,0,0,.023-.289V209.6a2.654,2.654,0,0,0-1.107-2.117l-69.753-40.271a1.121,1.121,0,0,0-.16-.078c-.535-.205-.676.487-.676,1.23l-.037,9.944A2.568,2.568,0,0,0,1078.968,180.406Z" transform="translate(-1067.068 -126.473)" fill="#afafaf"/>
      <path id="Trazado_192229" data-name="Trazado 192229" d="M1078.66,147.268a1.694,1.694,0,0,0-.023.286v10.5a2.651,2.651,0,0,0,1.108,2.116L1149.5,200.44a1.1,1.1,0,0,0,.164.073c-.1.613-.551.86-1.085.552l-69.753-40.272a2.652,2.652,0,0,1-1.107-2.116v-10.5C1077.716,147.436,1078.126,147.066,1078.66,147.268Z" transform="translate(-1067.099 -129.491)" fill="#fff"/>
      <path id="Trazado_192230" data-name="Trazado 192230" d="M1078.66,167.142a1.694,1.694,0,0,0-.023.286v10.5a2.655,2.655,0,0,0,1.108,2.117l69.752,40.271a1.1,1.1,0,0,0,.164.073c-.1.613-.551.86-1.085.552l-69.753-40.272a2.65,2.65,0,0,1-1.107-2.116v-10.5C1077.716,167.31,1078.126,166.94,1078.66,167.142Z" transform="translate(-1067.099 -126.475)" fill="#fff"/>
      <g id="Grupo_134750" data-name="Grupo 134750" transform="translate(27.489 31.344)">
        <g id="Grupo_134745" data-name="Grupo 134745" transform="translate(32.069 18.514)">
          <path id="Trazado_192231" data-name="Trazado 192231" d="M1123.3,180.639l-.852,1.615-1.622-2.037,1.231-1.27-1.845-1.88.6-1.557,1.664,2.043-.224-2.437,2.04,1.178-.214,2.173,1.666-.1.618,2.244-1.82-.237,1.221,2.705-1.6.17Z" transform="translate(-1120.209 -175.115)" fill="#fff"/>
        </g>
        <g id="Grupo_134746" data-name="Grupo 134746" transform="translate(24.052 13.887)">
          <path id="Trazado_192232" data-name="Trazado 192232" d="M1116.336,176.62l-.852,1.615-1.622-2.037,1.231-1.27-1.845-1.88.6-1.556,1.666,2.042-.225-2.436,2.04,1.177-.214,2.173,1.667-.1.617,2.244-1.82-.237,1.221,2.705-1.6.17Z" transform="translate(-1113.248 -171.097)" fill="#fff"/>
        </g>
        <g id="Grupo_134747" data-name="Grupo 134747" transform="translate(16.035 9.258)">
          <path id="Trazado_192233" data-name="Trazado 192233" d="M1109.375,172.6l-.852,1.615-1.622-2.037,1.233-1.27-1.846-1.88.6-1.556,1.665,2.042-.225-2.436,2.04,1.177-.214,2.173,1.667-.1.617,2.244-1.82-.237,1.221,2.705-1.6.17Z" transform="translate(-1106.287 -167.078)" fill="#fff"/>
        </g>
        <g id="Grupo_134748" data-name="Grupo 134748" transform="translate(8.017 4.629)">
          <path id="Trazado_192234" data-name="Trazado 192234" d="M1102.414,168.583l-.852,1.614-1.622-2.037,1.232-1.27-1.846-1.88.6-1.556,1.665,2.042-.224-2.436,2.04,1.177-.214,2.174,1.667-.1.617,2.244-1.82-.237,1.221,2.705-1.6.172Z" transform="translate(-1099.326 -163.059)" fill="#fff"/>
        </g>
        <g id="Grupo_134749" data-name="Grupo 134749">
          <path id="Trazado_192235" data-name="Trazado 192235" d="M1095.453,164.564l-.852,1.614-1.622-2.037,1.232-1.27-1.846-1.88.6-1.556,1.665,2.042-.224-2.436,2.04,1.177-.214,2.174,1.667-.1.617,2.244-1.82-.237L1097.92,167l-1.6.172Z" transform="translate(-1092.365 -159.04)" fill="#fff"/>
        </g>
      </g>
      <g id="Grupo_134756" data-name="Grupo 134756" transform="translate(27.489 54.234)">
        <g id="Grupo_134751" data-name="Grupo 134751" transform="translate(32.069 18.515)">
          <path id="Trazado_192236" data-name="Trazado 192236" d="M1123.3,200.514l-.852,1.614-1.622-2.037,1.231-1.27-1.845-1.88.6-1.556,1.664,2.042-.224-2.436,2.04,1.177-.214,2.174,1.666-.1.618,2.244-1.82-.237,1.221,2.705-1.6.172Z" transform="translate(-1120.209 -194.99)" fill="#fff"/>
        </g>
        <g id="Grupo_134752" data-name="Grupo 134752" transform="translate(24.052 13.887)">
          <path id="Trazado_192237" data-name="Trazado 192237" d="M1116.336,196.495l-.852,1.614-1.622-2.037,1.231-1.27-1.845-1.88.6-1.556,1.666,2.042-.225-2.436,2.04,1.177-.214,2.174,1.667-.1.617,2.244-1.82-.237,1.221,2.705-1.6.172Z" transform="translate(-1113.248 -190.971)" fill="#fff"/>
        </g>
        <g id="Grupo_134753" data-name="Grupo 134753" transform="translate(16.035 9.258)">
          <path id="Trazado_192238" data-name="Trazado 192238" d="M1109.375,192.476l-.852,1.614-1.622-2.037,1.233-1.27-1.846-1.88.6-1.556,1.665,2.043-.225-2.437,2.04,1.177-.214,2.174,1.667-.1.617,2.244-1.82-.237,1.221,2.705-1.6.172Z" transform="translate(-1106.287 -186.952)" fill="#fff"/>
        </g>
        <g id="Grupo_134754" data-name="Grupo 134754" transform="translate(8.017 4.629)">
          <path id="Trazado_192239" data-name="Trazado 192239" d="M1102.414,188.457l-.852,1.614-1.622-2.036,1.232-1.272-1.846-1.88.6-1.556,1.665,2.043-.224-2.437,2.04,1.178-.214,2.173,1.667-.1.617,2.244-1.82-.237,1.221,2.705-1.6.172Z" transform="translate(-1099.326 -182.933)" fill="#fff"/>
        </g>
        <g id="Grupo_134755" data-name="Grupo 134755">
          <path id="Trazado_192240" data-name="Trazado 192240" d="M1095.453,184.438l-.852,1.614-1.622-2.036,1.232-1.27-1.846-1.88.6-1.557,1.665,2.043-.224-2.437,2.04,1.178-.214,2.173,1.667-.1.617,2.242-1.82-.237,1.221,2.705-1.6.172Z" transform="translate(-1092.365 -178.914)" fill="#fff"/>
        </g>
      </g>
    </g>
  </g>
</svg>
