<svg xmlns="http://www.w3.org/2000/svg" xmlns:xlink="http://www.w3.org/1999/xlink" width="157" height="157" viewBox="0 0 157 157">
  <defs>
    <clipPath id="clip-path">
      <ellipse id="Elipse_4737" data-name="Elipse 4737" cx="72.5" cy="71" rx="72.5" ry="71" transform="translate(727 1737)" fill="#0d2380"/>
    </clipPath>
  </defs>
  <g id="Grupo_134847" data-name="Grupo 134847" transform="translate(-6034 9983)">
    <g id="Grupo_134844" data-name="Grupo 134844" transform="translate(5313 -11711)">
      <g id="Elipse_4739" data-name="Elipse 4739" transform="translate(721 1728)" fill="none" stroke="#dadeec" stroke-width="2">
        <circle cx="78.5" cy="78.5" r="78.5" stroke="none"/>
        <circle cx="78.5" cy="78.5" r="77.5" fill="none"/>
      </g>
      <g id="Grupo_129445" data-name="Grupo 129445">
        <ellipse id="Elipse_4734" data-name="Elipse 4734" cx="72.5" cy="71" rx="72.5" ry="71" transform="translate(727 1737)" fill="#aab2d3"/>
        <g id="Enmascarar_grupo_124" data-name="Enmascarar grupo 124" clip-path="url(#clip-path)">
          <g id="Grupo_129618" data-name="Grupo 129618" transform="translate(-64.521 1594.274)">
            <g id="Grupo_129598" data-name="Grupo 129598">
              <g id="Grupo_129543" data-name="Grupo 129543">
                <g id="Grupo_129540" data-name="Grupo 129540">
                  <path id="Trazado_187914" data-name="Trazado 187914" d="M929.657,234.792H797.823L770.64,259.256c-1.359,2.725.321,9.514,4.078,9.514H952.762c3.672,0,6.8-6.942,4.077-9.514Z" fill="#07154d"/>
                </g>
                <g id="Grupo_129541" data-name="Grupo 129541">
                  <path id="Rect치ngulo_82566" data-name="Rect치ngulo 82566" d="M5,0H126.942a4.892,4.892,0,0,1,4.892,4.892V76.11a0,0,0,0,1,0,0H0a0,0,0,0,1,0,0V5A5,5,0,0,1,5,0Z" transform="translate(797.993 158.682)" fill="#3370ff"/>
                </g>
                <g id="Grupo_129542" data-name="Grupo 129542">
                  <path id="Trazado_187915" data-name="Trazado 187915" d="M929.657,234.792H797.823L770.64,259.435c-1.359,2.6.321,3.9,4.078,3.9H952.762c3.672,0,6.8-1.3,4.077-3.752Z" fill="#aab2d3"/>
                </g>
              </g>
              <g id="Grupo_129597" data-name="Grupo 129597">
                <g id="Grupo_129595" data-name="Grupo 129595">
                  <g id="Grupo_129544" data-name="Grupo 129544">
                    <path id="Trazado_187916" data-name="Trazado 187916" d="M807.349,240.979l-5.22-.01c-.3,0-.38-.146-.17-.324l3.3-2.811a1.6,1.6,0,0,1,.9-.324h4.882c.285,0,.362.146.173.325l-2.967,2.821A1.48,1.48,0,0,1,807.349,240.979Z" fill="#07154d"/>
                  </g>
                  <g id="Grupo_129545" data-name="Grupo 129545">
                    <path id="Trazado_187917" data-name="Trazado 187917" d="M814.788,240.993l-5.22-.01c-.3,0-.4-.146-.215-.326l2.908-2.822a1.4,1.4,0,0,1,.85-.325h4.882c.284,0,.382.146.218.327l-2.576,2.831A1.287,1.287,0,0,1,814.788,240.993Z" fill="#07154d"/>
                  </g>
                  <g id="Grupo_129546" data-name="Grupo 129546">
                    <path id="Trazado_187918" data-name="Trazado 187918" d="M822.227,241.007l-5.22-.01c-.3,0-.421-.147-.261-.327l2.517-2.833a1.212,1.212,0,0,1,.8-.327h4.882c.284,0,.4.147.263.328l-2.184,2.843A1.121,1.121,0,0,1,822.227,241.007Z" fill="#07154d"/>
                  </g>
                  <g id="Grupo_129547" data-name="Grupo 129547">
                    <path id="Trazado_187919" data-name="Trazado 187919" d="M829.666,241.021l-5.22-.01c-.3,0-.441-.147-.306-.328l2.125-2.845a1.055,1.055,0,0,1,.76-.328h4.882c.284,0,.422.147.308.329l-1.792,2.855A.973.973,0,0,1,829.666,241.021Z" fill="#07154d"/>
                  </g>
                  <g id="Grupo_129548" data-name="Grupo 129548">
                    <path id="Trazado_187920" data-name="Trazado 187920" d="M837.1,241.035l-5.22-.009c-.3,0-.461-.149-.351-.331l1.733-2.856a.912.912,0,0,1,.715-.329h4.882c.284,0,.442.148.353.33l-1.4,2.866A.837.837,0,0,1,837.1,241.035Z" fill="#07154d"/>
                  </g>
                  <g id="Grupo_129549" data-name="Grupo 129549">
                    <path id="Trazado_187921" data-name="Trazado 187921" d="M844.544,241.049l-5.22-.009c-.3,0-.482-.149-.4-.332l1.341-2.867a.781.781,0,0,1,.67-.331h4.882c.284,0,.463.149.4.332l-1.008,2.877A.722.722,0,0,1,844.544,241.049Z" fill="#07154d"/>
                  </g>
                  <g id="Grupo_129550" data-name="Grupo 129550">
                    <path id="Trazado_187922" data-name="Trazado 187922" d="M851.983,241.063l-5.22-.009c-.3,0-.5-.15-.442-.333l.95-2.879a.669.669,0,0,1,.625-.332h4.882c.284,0,.483.149.443.333l-.617,2.889C852.565,240.915,852.287,241.064,851.983,241.063Z" fill="#07154d"/>
                  </g>
                  <g id="Grupo_129551" data-name="Grupo 129551">
                    <path id="Trazado_187923" data-name="Trazado 187923" d="M859.422,241.077l-5.22-.01c-.305,0-.522-.15-.487-.333l.559-2.891c.035-.184.294-.333.579-.333h4.882c.284,0,.5.15.488.334l-.225,2.9C859.984,240.929,859.726,241.078,859.422,241.077Z" fill="#07154d"/>
                  </g>
                  <g id="Grupo_129552" data-name="Grupo 129552">
                    <path id="Trazado_187924" data-name="Trazado 187924" d="M866.861,241.091l-5.221-.009c-.3,0-.541-.151-.531-.336l.166-2.9c.011-.185.25-.335.535-.335h4.881c.285,0,.524.15.534.336l.167,2.911C867.4,240.942,867.165,241.092,866.861,241.091Z" fill="#07154d"/>
                  </g>
                  <g id="Grupo_129553" data-name="Grupo 129553">
                    <path id="Trazado_187925" data-name="Trazado 187925" d="M874.3,241.1l-5.22-.009c-.3,0-.562-.152-.576-.337l-.225-2.913c-.015-.185.2-.336.488-.336h4.882c.285,0,.544.151.579.337l.559,2.923C874.821,240.956,874.6,241.106,874.3,241.1Z" fill="#07154d"/>
                  </g>
                  <g id="Grupo_129554" data-name="Grupo 129554">
                    <path id="Trazado_187926" data-name="Trazado 187926" d="M881.738,241.119l-5.22-.009c-.3,0-.582-.152-.621-.338l-.617-2.925c-.04-.186.159-.337.443-.337H880.6a.667.667,0,0,1,.625.338l.949,2.934C882.24,240.969,882.042,241.12,881.738,241.119Z" fill="#07154d"/>
                  </g>
                  <g id="Grupo_129555" data-name="Grupo 129555">
                    <path id="Trazado_187927" data-name="Trazado 187927" d="M889.177,241.133l-5.22-.009a.723.723,0,0,1-.667-.34l-1.008-2.935c-.065-.187.114-.339.4-.339h4.882a.774.774,0,0,1,.67.34l1.341,2.945C889.659,240.983,889.481,241.134,889.177,241.133Z" fill="#07154d"/>
                  </g>
                  <g id="Grupo_129556" data-name="Grupo 129556">
                    <path id="Trazado_187928" data-name="Trazado 187928" d="M896.616,241.147l-5.22-.009a.835.835,0,0,1-.712-.341l-1.4-2.947c-.089-.188.069-.34.353-.34h4.882a.9.9,0,0,1,.715.341l1.733,2.957C897.077,241,896.92,241.148,896.616,241.147Z" fill="#07154d"/>
                  </g>
                  <g id="Grupo_129557" data-name="Grupo 129557">
                    <path id="Trazado_187929" data-name="Trazado 187929" d="M904.055,241.161l-5.22-.009a.965.965,0,0,1-.757-.342l-1.792-2.959c-.114-.188.024-.341.308-.341h4.882a1.035,1.035,0,0,1,.76.342l2.125,2.969C904.5,241.009,904.359,241.162,904.055,241.161Z" fill="#07154d"/>
                  </g>
                  <g id="Grupo_129558" data-name="Grupo 129558">
                    <path id="Trazado_187930" data-name="Trazado 187930" d="M911.494,241.175l-5.22-.009a1.108,1.108,0,0,1-.8-.344l-2.184-2.97c-.139-.189-.021-.342.263-.342h4.882a1.188,1.188,0,0,1,.8.343l2.517,2.98C911.915,241.023,911.8,241.176,911.494,241.175Z" fill="#07154d"/>
                  </g>
                  <g id="Grupo_129559" data-name="Grupo 129559">
                    <path id="Trazado_187931" data-name="Trazado 187931" d="M918.933,241.19l-5.22-.01a1.262,1.262,0,0,1-.847-.345l-2.576-2.981c-.164-.19-.066-.344.218-.344h4.882a1.349,1.349,0,0,1,.85.345l2.908,2.991C919.333,241.036,919.237,241.19,918.933,241.19Z" fill="#07154d"/>
                  </g>
                  <g id="Grupo_129560" data-name="Grupo 129560">
                    <path id="Trazado_187932" data-name="Trazado 187932" d="M926.372,241.2l-5.22-.01a1.444,1.444,0,0,1-.893-.346l-2.967-2.993c-.189-.19-.112-.345.173-.345h4.882a1.537,1.537,0,0,1,.9.346l3.3,3C926.752,241.05,926.676,241.2,926.372,241.2Z" fill="#07154d"/>
                  </g>
                  <g id="Grupo_129561" data-name="Grupo 129561">
                    <path id="Trazado_187933" data-name="Trazado 187933" d="M803.111,244.967l-5.609-.021c-.326,0-.421-.147-.211-.326l3.3-2.811a1.655,1.655,0,0,1,.936-.322l5.271.011c.307,0,.4.147.214.326l-2.968,2.82A1.537,1.537,0,0,1,803.111,244.967Z" fill="#07154d"/>
                  </g>
                  <g id="Grupo_129562" data-name="Grupo 129562">
                    <path id="Trazado_187934" data-name="Trazado 187934" d="M811.1,245l-5.609-.021c-.326,0-.441-.148-.256-.327l2.908-2.822a1.452,1.452,0,0,1,.891-.324l5.271.011c.307,0,.423.147.259.327l-2.576,2.832A1.354,1.354,0,0,1,811.1,245Z" fill="#07154d"/>
                  </g>
                  <g id="Grupo_129563" data-name="Grupo 129563">
                    <path id="Trazado_187935" data-name="Trazado 187935" d="M819.1,245.027l-5.609-.021c-.327,0-.462-.148-.3-.328l2.516-2.834a1.275,1.275,0,0,1,.846-.325l5.271.011c.307,0,.443.148.3.329L819.94,244.7A1.177,1.177,0,0,1,819.1,245.027Z" fill="#07154d"/>
                  </g>
                  <g id="Grupo_129564" data-name="Grupo 129564">
                    <path id="Trazado_187936" data-name="Trazado 187936" d="M827.09,245.057l-5.609-.021c-.327,0-.482-.149-.347-.33l2.126-2.844a1.1,1.1,0,0,1,.8-.327l5.271.011c.307,0,.463.149.349.33l-1.792,2.855A1.027,1.027,0,0,1,827.09,245.057Z" fill="#07154d"/>
                  </g>
                  <g id="Grupo_129565" data-name="Grupo 129565">
                    <path id="Trazado_187937" data-name="Trazado 187937" d="M835.083,245.088l-5.609-.022c-.327,0-.5-.149-.392-.331l1.734-2.856a.958.958,0,0,1,.755-.328l5.271.011c.307,0,.484.149.394.332l-1.4,2.866A.891.891,0,0,1,835.083,245.088Z" fill="#07154d"/>
                  </g>
                  <g id="Grupo_129566" data-name="Grupo 129566">
                    <path id="Trazado_187938" data-name="Trazado 187938" d="M843.076,245.118l-5.609-.022c-.327,0-.522-.15-.437-.332l1.342-2.868a.828.828,0,0,1,.71-.329l5.271.012c.307,0,.5.149.44.332l-1.009,2.877A.769.769,0,0,1,843.076,245.118Z" fill="#07154d"/>
                  </g>
                  <g id="Grupo_129567" data-name="Grupo 129567">
                    <path id="Trazado_187939" data-name="Trazado 187939" d="M851.069,245.148l-5.609-.021c-.327,0-.542-.151-.482-.334l.95-2.879a.712.712,0,0,1,.665-.331l5.271.012c.307,0,.524.15.485.334l-.617,2.888C851.692,245,851.4,245.149,851.069,245.148Z" fill="#07154d"/>
                  </g>
                  <g id="Grupo_129568" data-name="Grupo 129568">
                    <path id="Trazado_187940" data-name="Trazado 187940" d="M859.062,245.178l-5.609-.021c-.327,0-.563-.152-.527-.335l.558-2.891c.035-.184.313-.332.62-.331l5.271.011c.307,0,.544.151.53.335l-.226,2.9C859.665,245.031,859.389,245.179,859.062,245.178Z" fill="#07154d"/>
                  </g>
                  <g id="Grupo_129569" data-name="Grupo 129569">
                    <path id="Trazado_187941" data-name="Trazado 187941" d="M867.055,245.208l-5.609-.021c-.327,0-.583-.152-.572-.337l.166-2.9c.011-.185.268-.334.575-.333l5.271.011c.307,0,.564.151.575.336l.166,2.912C867.638,245.06,867.382,245.209,867.055,245.208Z" fill="#07154d"/>
                  </g>
                  <g id="Grupo_129570" data-name="Grupo 129570">
                    <path id="Trazado_187942" data-name="Trazado 187942" d="M875.048,245.238l-5.609-.021c-.327,0-.6-.152-.618-.338l-.225-2.913c-.014-.185.223-.335.53-.334l5.271.011c.307,0,.585.152.62.338l.558,2.923C875.611,245.09,875.375,245.239,875.048,245.238Z" fill="#07154d"/>
                  </g>
                  <g id="Grupo_129571" data-name="Grupo 129571">
                    <path id="Trazado_187943" data-name="Trazado 187943" d="M883.041,245.268l-5.609-.021c-.327,0-.623-.153-.663-.339l-.617-2.925c-.039-.186.178-.336.485-.335l5.271.011a.712.712,0,0,1,.665.339l.95,2.935C883.583,245.119,883.368,245.27,883.041,245.268Z" fill="#07154d"/>
                  </g>
                  <g id="Grupo_129572" data-name="Grupo 129572">
                    <path id="Trazado_187944" data-name="Trazado 187944" d="M891.034,245.3l-5.609-.021a.769.769,0,0,1-.708-.34L883.708,242c-.064-.187.133-.338.44-.337l5.271.011a.822.822,0,0,1,.71.341l1.342,2.945C891.556,245.149,891.361,245.3,891.034,245.3Z" fill="#07154d"/>
                  </g>
                  <g id="Grupo_129573" data-name="Grupo 129573">
                    <path id="Trazado_187945" data-name="Trazado 187945" d="M899.027,245.329l-5.609-.022a.889.889,0,0,1-.753-.341l-1.4-2.948c-.09-.187.087-.339.394-.338l5.271.011a.95.95,0,0,1,.755.342l1.734,2.957C899.529,245.178,899.353,245.33,899.027,245.329Z" fill="#07154d"/>
                  </g>
                  <g id="Grupo_129574" data-name="Grupo 129574">
                    <path id="Trazado_187946" data-name="Trazado 187946" d="M907.02,245.359l-5.609-.022a1.018,1.018,0,0,1-.8-.343l-1.792-2.958c-.114-.188.042-.341.349-.34l5.271.011a1.091,1.091,0,0,1,.8.344l2.126,2.968C907.5,245.208,907.347,245.36,907.02,245.359Z" fill="#07154d"/>
                  </g>
                  <g id="Grupo_129575" data-name="Grupo 129575">
                    <path id="Trazado_187947" data-name="Trazado 187947" d="M915.013,245.389l-5.609-.021a1.171,1.171,0,0,1-.843-.345l-2.184-2.97c-.139-.189,0-.341.3-.341l5.271.012a1.239,1.239,0,0,1,.845.344l2.517,2.98C915.475,245.237,915.34,245.39,915.013,245.389Z" fill="#07154d"/>
                  </g>
                  <g id="Grupo_129576" data-name="Grupo 129576">
                    <path id="Trazado_187948" data-name="Trazado 187948" d="M923.006,245.419,917.4,245.4a1.331,1.331,0,0,1-.888-.346l-2.576-2.981c-.164-.19-.048-.343.259-.343l5.271.012a1.417,1.417,0,0,1,.891.345l2.908,2.992C923.447,245.267,923.332,245.42,923.006,245.419Z" fill="#07154d"/>
                  </g>
                  <g id="Grupo_129577" data-name="Grupo 129577">
                    <path id="Trazado_187949" data-name="Trazado 187949" d="M931,245.449l-5.609-.021a1.5,1.5,0,0,1-.933-.347l-2.968-2.993c-.189-.19-.093-.344.214-.344l5.271.012a1.6,1.6,0,0,1,.936.347l3.3,3C931.42,245.3,931.325,245.45,931,245.449Z" fill="#07154d"/>
                  </g>
                  <g id="Grupo_129578" data-name="Grupo 129578">
                    <path id="Trazado_187950" data-name="Trazado 187950" d="M798.873,248.955l-6-.033c-.349,0-.462-.148-.252-.327l3.3-2.81a1.731,1.731,0,0,1,.977-.322l5.66.023c.329,0,.444.148.255.327l-2.968,2.82A1.605,1.605,0,0,1,798.873,248.955Z" fill="#07154d"/>
                  </g>
                  <g id="Grupo_129579" data-name="Grupo 129579">
                    <path id="Trazado_187951" data-name="Trazado 187951" d="M807.42,249l-6-.032c-.349,0-.482-.149-.3-.329l2.908-2.822a1.529,1.529,0,0,1,.932-.323l5.66.023c.329,0,.464.148.3.329l-2.576,2.831A1.42,1.42,0,0,1,807.42,249Z" fill="#07154d"/>
                  </g>
                  <g id="Grupo_129580" data-name="Grupo 129580">
                    <path id="Trazado_187952" data-name="Trazado 187952" d="M815.967,249.047l-6-.032c-.349,0-.5-.15-.342-.33l2.517-2.833a1.327,1.327,0,0,1,.886-.324l5.66.022c.33,0,.484.149.345.33l-2.184,2.843A1.244,1.244,0,0,1,815.967,249.047Z" fill="#07154d"/>
                  </g>
                  <g id="Grupo_129581" data-name="Grupo 129581">
                    <path id="Trazado_187953" data-name="Trazado 187953" d="M824.514,249.093l-6-.032c-.349,0-.523-.15-.387-.331l2.125-2.845a1.162,1.162,0,0,1,.842-.325l5.659.022c.33,0,.5.15.39.332l-1.792,2.854A1.085,1.085,0,0,1,824.514,249.093Z" fill="#07154d"/>
                  </g>
                  <g id="Grupo_129582" data-name="Grupo 129582">
                    <path id="Trazado_187954" data-name="Trazado 187954" d="M833.061,249.14l-6-.033c-.35,0-.544-.15-.433-.332l1.733-2.856a1.014,1.014,0,0,1,.8-.327l5.659.023c.33,0,.525.15.436.332l-1.4,2.866A.944.944,0,0,1,833.061,249.14Z" fill="#07154d"/>
                  </g>
                  <g id="Grupo_129583" data-name="Grupo 129583">
                    <path id="Trazado_187955" data-name="Trazado 187955" d="M841.608,249.186l-6-.033c-.349,0-.563-.151-.477-.333l1.341-2.868a.881.881,0,0,1,.752-.328l5.659.023c.33,0,.545.151.481.334l-1.009,2.877C842.293,249.041,841.957,249.188,841.608,249.186Z" fill="#07154d"/>
                  </g>
                  <g id="Grupo_129584" data-name="Grupo 129584">
                    <path id="Trazado_187956" data-name="Trazado 187956" d="M850.155,249.232l-6-.032c-.35,0-.584-.152-.524-.335l.95-2.879c.061-.183.377-.331.707-.329l5.659.022c.33,0,.565.151.526.335l-.617,2.889C850.82,249.087,850.505,249.234,850.155,249.232Z" fill="#07154d"/>
                  </g>
                  <g id="Grupo_129585" data-name="Grupo 129585">
                    <path id="Trazado_187957" data-name="Trazado 187957" d="M858.7,249.278l-6-.032c-.35,0-.6-.153-.569-.336l.558-2.891c.036-.184.332-.332.662-.33l5.659.022c.33,0,.585.152.571.337l-.225,2.9C859.346,249.132,859.052,249.28,858.7,249.278Z" fill="#07154d"/>
                  </g>
                  <g id="Grupo_129586" data-name="Grupo 129586">
                    <path id="Trazado_187958" data-name="Trazado 187958" d="M867.249,249.325l-6-.033c-.35,0-.624-.153-.614-.337l.167-2.9c.01-.185.286-.333.616-.332l5.659.023c.33,0,.606.152.616.337l.167,2.912C867.873,249.178,867.6,249.326,867.249,249.325Z" fill="#07154d"/>
                  </g>
                  <g id="Grupo_129587" data-name="Grupo 129587">
                    <path id="Trazado_187959" data-name="Trazado 187959" d="M875.8,249.371l-6-.033c-.35,0-.644-.153-.659-.339l-.225-2.913c-.014-.185.241-.334.571-.333l5.659.023c.33,0,.626.153.661.339l.559,2.923C876.4,249.224,876.146,249.373,875.8,249.371Z" fill="#07154d"/>
                  </g>
                  <g id="Grupo_129588" data-name="Grupo 129588">
                    <path id="Trazado_187960" data-name="Trazado 187960" d="M884.343,249.417l-6-.032c-.35,0-.665-.155-.7-.341l-.617-2.924c-.039-.186.2-.336.526-.335l5.659.023c.33,0,.646.154.707.34l.95,2.935C884.927,249.269,884.693,249.419,884.343,249.417Z" fill="#07154d"/>
                  </g>
                  <g id="Grupo_129589" data-name="Grupo 129589">
                    <path id="Trazado_187961" data-name="Trazado 187961" d="M892.891,249.463l-6-.032c-.35,0-.685-.155-.749-.342l-1.009-2.936c-.064-.186.151-.337.481-.335l5.659.022a.879.879,0,0,1,.752.342l1.341,2.945C893.454,249.315,893.24,249.465,892.891,249.463Z" fill="#07154d"/>
                  </g>
                  <g id="Grupo_129590" data-name="Grupo 129590">
                    <path id="Trazado_187962" data-name="Trazado 187962" d="M901.437,249.51l-6-.033a.944.944,0,0,1-.794-.343l-1.4-2.947c-.089-.188.106-.339.436-.337l5.659.022a1.011,1.011,0,0,1,.8.343l1.733,2.957C901.981,249.361,901.787,249.511,901.437,249.51Z" fill="#07154d"/>
                  </g>
                  <g id="Grupo_129591" data-name="Grupo 129591">
                    <path id="Trazado_187963" data-name="Trazado 187963" d="M909.985,249.556l-6-.033a1.084,1.084,0,0,1-.839-.344l-1.792-2.959c-.114-.188.06-.339.39-.338l5.659.023a1.151,1.151,0,0,1,.842.344l2.125,2.968C910.508,249.406,910.334,249.558,909.985,249.556Z" fill="#07154d"/>
                  </g>
                  <g id="Grupo_129592" data-name="Grupo 129592">
                    <path id="Trazado_187964" data-name="Trazado 187964" d="M918.532,249.6l-6-.032a1.234,1.234,0,0,1-.884-.346l-2.184-2.97c-.139-.189.015-.341.345-.34l5.66.023a1.313,1.313,0,0,1,.886.345l2.517,2.98C919.034,249.452,918.881,249.6,918.532,249.6Z" fill="#07154d"/>
                  </g>
                  <g id="Grupo_129593" data-name="Grupo 129593">
                    <path id="Trazado_187965" data-name="Trazado 187965" d="M927.079,249.648l-6-.032a1.4,1.4,0,0,1-.929-.347l-2.576-2.982c-.164-.189-.029-.342.3-.341l5.66.023a1.489,1.489,0,0,1,.932.347l2.908,2.991C927.561,249.5,927.428,249.65,927.079,249.648Z" fill="#07154d"/>
                  </g>
                  <g id="Grupo_129594" data-name="Grupo 129594">
                    <path id="Trazado_187966" data-name="Trazado 187966" d="M935.626,249.694l-6-.032a1.58,1.58,0,0,1-.974-.348l-2.968-2.993c-.189-.19-.074-.344.255-.342l5.66.022a1.684,1.684,0,0,1,.977.348l3.3,3C936.088,249.543,935.975,249.7,935.626,249.694Z" fill="#07154d"/>
                  </g>
                </g>
                <g id="Grupo_129596" data-name="Grupo 129596">
                  <path id="Trazado_187967" data-name="Trazado 187967" d="M881.947,260.615H846.554a1.449,1.449,0,0,1-1.375-1.907l1.752-5.257a1.45,1.45,0,0,1,1.375-.99H880.2a1.45,1.45,0,0,1,1.375.99l1.752,5.257A1.449,1.449,0,0,1,881.947,260.615Z" fill="#07154d"/>
                </g>
              </g>
            </g>
            <g id="Grupo_129608" data-name="Grupo 129608">
              <g id="Grupo_129599" data-name="Grupo 129599">
                <path id="Trazado_187968" data-name="Trazado 187968" d="M922.356,234.666l-3.116.226L916,234.611l-3.244.415-3.242-.005-3.242-.151-3.243-.1-3.246.194h-3.244l-3.243-.017-3.244-.154-3.245-.054-3.244-.118-3.245.166-3.246.25-3.244-.48-3.238.2-3.239-.166-3.245-.089-3.244.353-3.241-.021-3.243-.191-3.247.389-3.243.034-3.247-.314-3.245-.106-3.248.084-3.247-.22-3.248.028-3.25.154-3.243.108-3.247.23-3.25-.366-3.251-.035-3.252,0-3.257.079-3.252.077-.011-3.225.2-3.235-.407-3.234.289-3.231-.168-3.233-.087-3.237-.013-3.234.02-3.237.429-3.235-.515-3.239.186-3.237.219-3.238-.054-3.24-.316-3.233.154-3.237.182-3.241.064-3.241-.141-3.242.072-3.247-.152-3.247,1.517-3.1,3.1-1.618,3.265.2,3.264.027,3.266-.063,3.268.093,3.266.156,3.265-.361,3.267.263,3.268.049,3.266.025,3.267-.364,3.268.186,3.267-.005,3.268-.133,3.261-.005,3.266-.094,3.266.108,3.263.029,3.265.037,3.269.2,3.265-.2,3.269.01,3.267.135,3.27-.36,3.268.071,3.27.022,3.271-.107,3.265.232,3.269-.174,3.273.078,3.273.187,3.274-.029,3.279-.217,3.279.183,3.061,1.345,1.465,3.061.092,3.236.063,3.242-.062,3.241.016,3.238.014,3.24.023,3.244-.354,3.24.1,3.244-.205,3.243-.057,3.246.206,3.243.309,3.245-.4,3.247.306,3.24.13,3.244-.218,3.248-.02,3.248-.277,3.249.413,3.258Z" fill="#ffd4dd"/>
              </g>
              <g id="Grupo_129606" data-name="Grupo 129606">
                <g id="Grupo_129602" data-name="Grupo 129602">
                  <g id="Grupo_129601" data-name="Grupo 129601">
                    <g id="Grupo_129600" data-name="Grupo 129600">
                      <path id="Trazado_187969" data-name="Trazado 187969" d="M886.881,184.907c-.065-1.43-.065-2.795-.065-4.161a1.915,1.915,0,0,0-1.951-1.95c-8.126,0-14.3-2.34-19.438-7.346a2.005,2.005,0,0,0-2.73,0c-5.136,5.006-11.312,7.346-19.438,7.346a1.915,1.915,0,0,0-1.95,1.95c0,1.366,0,2.731-.065,4.161-.26,13.652-.65,32.375,22.168,40.241l.65.13.65-.13C887.466,217.282,887.141,198.624,886.881,184.907Z" fill="#ff929c"/>
                    </g>
                  </g>
                </g>
                <g id="Grupo_129605" data-name="Grupo 129605">
                  <g id="Grupo_129604" data-name="Grupo 129604">
                    <g id="Grupo_129603" data-name="Grupo 129603">
                      <path id="Trazado_187970" data-name="Trazado 187970" d="M882.317,187.545c-.052-1.144-.052-2.237-.052-3.329a1.532,1.532,0,0,0-1.56-1.56c-6.5,0-11.442-1.872-15.551-5.877a1.6,1.6,0,0,0-2.184,0c-4.109,4-9.05,5.877-15.551,5.877a1.532,1.532,0,0,0-1.56,1.56c0,1.092,0,2.185-.052,3.329-.208,10.921-.52,25.9,17.735,32.193l.52.1.52-.1C882.785,213.445,882.525,198.518,882.317,187.545Z" fill="#fd4f23"/>
                    </g>
                  </g>
                </g>
                <path id="Trazado_187971" data-name="Trazado 187971" d="M867.725,196.463a6.541,6.541,0,1,0-7.328,0l-2.192,10.326a1.971,1.971,0,0,0,2.015,2.316H867.9a1.972,1.972,0,0,0,2.016-2.316Z" fill="#fff"/>
              </g>
              <g id="Grupo_129607" data-name="Grupo 129607" opacity="0.2">
                <path id="Trazado_187972" data-name="Trazado 187972" d="M850.243,165.477l-44.6,67.625v1.69h11.118l45.718-69.315Z" fill="#fff"/>
                <path id="Trazado_187973" data-name="Trazado 187973" d="M921.317,166.932a4.405,4.405,0,0,0-3.263-1.455h-8.01l-45.718,69.315h12.232Z" fill="#fff"/>
                <path id="Trazado_187974" data-name="Trazado 187974" d="M896.453,165.477H874.707l-45.718,69.315h21.746Z" fill="#fff"/>
              </g>
            </g>
          </g>
        </g>
      </g>
    </g>
    <g id="Grupo_134845" data-name="Grupo 134845" transform="translate(5248.479 -10116.726)">
      <g id="Grupo_129598-2" data-name="Grupo 129598">
        <g id="Grupo_129543-2" data-name="Grupo 129543">
          <g id="Grupo_129541-2" data-name="Grupo 129541">
            <path id="Rect치ngulo_82566-2" data-name="Rect치ngulo 82566" d="M5,0H126.942a4.892,4.892,0,0,1,4.892,4.892V76.11a0,0,0,0,1,0,0H0a0,0,0,0,1,0,0V5A5,5,0,0,1,5,0Z" transform="translate(797.993 158.682)" fill="#0d2380"/>
          </g>
        </g>
      </g>
      <g id="Grupo_129608-2" data-name="Grupo 129608">
        <g id="Grupo_129599-2" data-name="Grupo 129599">
          <path id="Trazado_187968-2" data-name="Trazado 187968" d="M922.356,234.666l-3.116.226L916,234.611l-3.244.415-3.242-.005-3.242-.151-3.243-.1-3.246.194h-3.244l-3.243-.017-3.244-.154-3.245-.054-3.244-.118-3.245.166-3.246.25-3.244-.48-3.238.2-3.239-.166-3.245-.089-3.244.353-3.241-.021-3.243-.191-3.247.389-3.243.034-3.247-.314-3.245-.106-3.248.084-3.247-.22-3.248.028-3.25.154-3.243.108-3.247.23-3.25-.366-3.251-.035-3.252,0-3.257.079-3.252.077-.011-3.225.2-3.235-.407-3.234.289-3.231-.168-3.233-.087-3.237-.013-3.234.02-3.237.429-3.235-.515-3.239.186-3.237.219-3.238-.054-3.24-.316-3.233.154-3.237.182-3.241.064-3.241-.141-3.242.072-3.247-.152-3.247,1.517-3.1,3.1-1.618,3.265.2,3.264.027,3.266-.063,3.268.093,3.266.156,3.265-.361,3.267.263,3.268.049,3.266.025,3.267-.364,3.268.186,3.267-.005,3.268-.133,3.261-.005,3.266-.094,3.266.108,3.263.029,3.265.037,3.269.2,3.265-.2,3.269.01,3.267.135,3.27-.36,3.268.071,3.27.022,3.271-.107,3.265.232,3.269-.174,3.273.078,3.273.187,3.274-.029,3.279-.217,3.279.183,3.061,1.345,1.465,3.061.092,3.236.063,3.242-.062,3.241.016,3.238.014,3.24.023,3.244-.354,3.24.1,3.244-.205,3.243-.057,3.246.206,3.243.309,3.245-.4,3.247.306,3.24.13,3.244-.218,3.248-.02,3.248-.277,3.249.413,3.258Z" fill="#fffbe9"/>
        </g>
        <g id="Grupo_129606-2" data-name="Grupo 129606">
          <g id="Grupo_129602-2" data-name="Grupo 129602">
            <g id="Grupo_129601-2" data-name="Grupo 129601">
              <g id="Grupo_129600-2" data-name="Grupo 129600">
                <path id="Trazado_187969-2" data-name="Trazado 187969" d="M886.881,184.907c-.065-1.43-.065-2.795-.065-4.161a1.915,1.915,0,0,0-1.951-1.95c-8.126,0-14.3-2.34-19.438-7.346a2.005,2.005,0,0,0-2.73,0c-5.136,5.006-11.312,7.346-19.438,7.346a1.915,1.915,0,0,0-1.95,1.95c0,1.366,0,2.731-.065,4.161-.26,13.652-.65,32.375,22.168,40.241l.65.13.65-.13C887.466,217.282,887.141,198.624,886.881,184.907Z" fill="#999172"/>
              </g>
            </g>
          </g>
          <g id="Grupo_129605-2" data-name="Grupo 129605">
            <g id="Grupo_129604-2" data-name="Grupo 129604">
              <g id="Grupo_129603-2" data-name="Grupo 129603">
                <path id="Trazado_187970-2" data-name="Trazado 187970" d="M882.317,187.545c-.052-1.144-.052-2.237-.052-3.329a1.532,1.532,0,0,0-1.56-1.56c-6.5,0-11.442-1.872-15.551-5.877a1.6,1.6,0,0,0-2.184,0c-4.109,4-9.05,5.877-15.551,5.877a1.532,1.532,0,0,0-1.56,1.56c0,1.092,0,2.185-.052,3.329-.208,10.921-.52,25.9,17.735,32.193l.52.1.52-.1C882.785,213.445,882.525,198.518,882.317,187.545Z" fill="#ccc198"/>
              </g>
            </g>
          </g>
          <path id="Trazado_187971-2" data-name="Trazado 187971" d="M867.725,196.463a6.541,6.541,0,1,0-7.328,0l-2.192,10.326a1.971,1.971,0,0,0,2.015,2.316H867.9a1.972,1.972,0,0,0,2.016-2.316Z" fill="#fffbe9"/>
        </g>
      </g>
    </g>
  </g>
</svg>
