<svg xmlns="http://www.w3.org/2000/svg" xmlns:xlink="http://www.w3.org/1999/xlink" width="161" height="157" viewBox="0 0 161 157">
  <defs>
    <clipPath id="clip-path">
      <ellipse id="Elipse_4737" data-name="Elipse 4737" cx="72.5" cy="71" rx="72.5" ry="71" transform="translate(727 1737)" fill="#0d2380"/>
    </clipPath>
  </defs>
  <g id="Grupo_134843" data-name="Grupo 134843" transform="translate(-1086 -1493)">
    <g id="Grupo_134840" data-name="Grupo 134840" transform="translate(365 -235)">
      <g id="Elipse_4739" data-name="Elipse 4739" transform="translate(721 1728)" fill="none" stroke="#dadeec" stroke-width="2">
        <circle cx="78.5" cy="78.5" r="78.5" stroke="none"/>
        <circle cx="78.5" cy="78.5" r="77.5" fill="none"/>
      </g>
      <g id="Grupo_129445" data-name="Grupo 129445" transform="translate(0 -1)">
        <ellipse id="Elipse_4734" data-name="Elipse 4734" cx="72.5" cy="71" rx="72.5" ry="71" transform="translate(727 1737)" fill="#aab2d3"/>
      </g>
    </g>
    <g id="Grupo_134841" data-name="Grupo 134841" transform="translate(365 -235)">
      <g id="Grupo_129445-2" data-name="Grupo 129445">
        <ellipse id="Elipse_4734-2" data-name="Elipse 4734" cx="72.5" cy="71" rx="72.5" ry="71" transform="translate(727 1737)" fill="#aab2d3"/>
        <g id="Enmascarar_grupo_124" data-name="Enmascarar grupo 124" clip-path="url(#clip-path)">
          <g id="Grupo_129539" data-name="Grupo 129539" transform="translate(774.176 1808)">
            <g id="Grupo_129504" data-name="Grupo 129504" transform="translate(0 9.048)">
              <g id="Grupo_129502" data-name="Grupo 129502" transform="translate(0.79 0.79)">
                <path id="Trazado_187901" data-name="Trazado 187901" d="M810.238,420.987a4.41,4.41,0,0,1-4.406-4.406V365.269h90.83v51.312a4.41,4.41,0,0,1-4.406,4.406Z" transform="translate(-805.832 -365.269)" fill="#fff"/>
              </g>
              <g id="Grupo_129503" data-name="Grupo 129503">
                <path id="Trazado_187902" data-name="Trazado 187902" d="M896.162,366.349v50.522a3.62,3.62,0,0,1-3.616,3.616H810.527a3.62,3.62,0,0,1-3.616-3.616V366.349h89.25m1.58-1.58h-92.41v52.1a5.2,5.2,0,0,0,5.2,5.2h82.019a5.2,5.2,0,0,0,5.2-5.2v-52.1Z" transform="translate(-805.332 -364.769)" fill="#ccc198"/>
              </g>
            </g>
            <g id="Grupo_129505" data-name="Grupo 129505">
              <path id="Trazado_187903" data-name="Trazado 187903" d="M897.742,364.238a5.2,5.2,0,0,0-5.2-5.2H810.527a5.2,5.2,0,0,0-5.2,5.2v3.851h92.41Z" transform="translate(-805.332 -359.041)" fill="#ccc198"/>
            </g>
            <g id="Grupo_129509" data-name="Grupo 129509" transform="translate(72.947 2.129)">
              <g id="Grupo_129506" data-name="Grupo 129506">
                <path id="Trazado_187904" data-name="Trazado 187904" d="M855.277,362.272a1.883,1.883,0,1,1-1.883-1.883A1.883,1.883,0,0,1,855.277,362.272Z" transform="translate(-851.511 -360.389)" fill="#fff"/>
              </g>
              <g id="Grupo_129507" data-name="Grupo 129507" transform="translate(5.614)">
                <path id="Trazado_187905" data-name="Trazado 187905" d="M858.831,362.272a1.883,1.883,0,1,1-1.883-1.883A1.884,1.884,0,0,1,858.831,362.272Z" transform="translate(-855.065 -360.389)" fill="#fff"/>
              </g>
              <g id="Grupo_129508" data-name="Grupo 129508" transform="translate(11.227)">
                <path id="Trazado_187906" data-name="Trazado 187906" d="M862.384,362.272a1.883,1.883,0,1,1-1.883-1.883A1.883,1.883,0,0,1,862.384,362.272Z" transform="translate(-858.618 -360.389)" fill="#fd4f23"/>
              </g>
            </g>
          </g>
        </g>
      </g>
    </g>
    <g id="Grupo_134842" data-name="Grupo 134842" transform="translate(317.597 1179.968)">
      <g id="Grupo_129501" data-name="Grupo 129501" transform="translate(770.403 321.977)">
        <g id="Grupo_129500" data-name="Grupo 129500">
          <g id="Grupo_129494" data-name="Grupo 129494">
            <g id="Grupo_129490" data-name="Grupo 129490" transform="translate(0 35.373)">
              <g id="Grupo_129487" data-name="Grupo 129487">
                <g id="Grupo_129484" data-name="Grupo 129484" transform="translate(0.79 0.79)">
                  <path id="Trazado_187892" data-name="Trazado 187892" d="M775.309,400.588a4.41,4.41,0,0,1-4.406-4.406V344.87h90.83v51.312a4.41,4.41,0,0,1-4.406,4.406Z" transform="translate(-770.903 -344.87)" fill="#fff"/>
                </g>
                <g id="Grupo_129486" data-name="Grupo 129486">
                  <g id="Grupo_129485" data-name="Grupo 129485">
                    <path id="Trazado_187893" data-name="Trazado 187893" d="M861.233,345.95v50.522a3.62,3.62,0,0,1-3.616,3.616H775.6a3.62,3.62,0,0,1-3.616-3.616V345.95h89.25m1.58-1.58H770.4v52.1a5.2,5.2,0,0,0,5.2,5.2h82.019a5.2,5.2,0,0,0,5.2-5.2v-52.1Z" transform="translate(-770.403 -344.37)" fill="#0d2380"/>
                  </g>
                </g>
              </g>
              <g id="Grupo_129488" data-name="Grupo 129488" transform="translate(0.56 19.12)">
                <path id="Trazado_187894" data-name="Trazado 187894" d="M860.982,391.858,838.5,374.482l-22.48-17.376-22.48,17.376-22.48,17.376" transform="translate(-770.58 -356.108)" fill="#fff"/>
                <path id="Trazado_187895" data-name="Trazado 187895" d="M860.677,392.849,816.2,358.47l-44.477,34.379-.966-1.25L816.2,356.474,861.643,391.6Z" transform="translate(-770.758 -356.474)" fill="#0d2380"/>
              </g>
              <g id="Grupo_129489" data-name="Grupo 129489" transform="translate(1.044 1.162)">
                <path id="Trazado_187896" data-name="Trazado 187896" d="M816.023,379.858l22.48-17.376,22.48-17.376H771.064l22.48,17.376Z" transform="translate(-771.064 -345.106)" fill="#0d2380"/>
              </g>
            </g>
            <g id="Grupo_129493" data-name="Grupo 129493" transform="translate(0.133)">
              <g id="Grupo_129491" data-name="Grupo 129491" transform="translate(2.313 0.998)">
                <path id="Trazado_187897" data-name="Trazado 187897" d="M771.951,356.435l43.76-33.826,43.76,33.826Z" transform="translate(-771.951 -322.609)" fill="#fff"/>
              </g>
              <g id="Grupo_129492" data-name="Grupo 129492">
                <path id="Trazado_187898" data-name="Trazado 187898" d="M816.559,323.974l22.071,17.06,19.376,14.977H775.112l19.376-14.977,22.071-17.06m0-2-23.036,17.807L770.487,357.59h92.146L839.6,339.784l-23.038-17.807Z" transform="translate(-770.487 -321.977)" fill="#0d2380"/>
              </g>
            </g>
          </g>
          <g id="Grupo_129499" data-name="Grupo 129499" transform="translate(15.989 11.261)">
            <g id="Grupo_129495" data-name="Grupo 129495">
              <path id="Trazado_187899" data-name="Trazado 187899" d="M780.525,329.106v33.668l7.534,5.823,22.479,17.376,22.48-17.376,7.534-5.823V329.106Z" transform="translate(-780.525 -329.106)" fill="#dadeec"/>
            </g>
            <g id="Grupo_129498" data-name="Grupo 129498" transform="translate(14.306 11.058)">
              <g id="Grupo_129497" data-name="Grupo 129497">
                <g id="Grupo_129496" data-name="Grupo 129496">
                  <path id="Trazado_187900" data-name="Trazado 187900" d="M821.37,355.46a16.062,16.062,0,1,0-31.44,0,6.487,6.487,0,0,0-.069,3.978c.725,2.431,2.831,4.29,6.148,4.516v4.216a3.185,3.185,0,0,0,1.948,2.954,22.392,22.392,0,0,0,2.322.806v-2.613a1.083,1.083,0,0,1,1.087-1.071,1.071,1.071,0,0,1,1.071,1.071v3.109a18.841,18.841,0,0,0,2.128.25v-3.358a1.082,1.082,0,0,1,1.085-1.071,1.07,1.07,0,0,1,1.071,1.071v3.358a18.821,18.821,0,0,0,2.129-.25v-3.109a1.082,1.082,0,0,1,1.085-1.071,1.07,1.07,0,0,1,1.071,1.071v2.613a22.648,22.648,0,0,0,2.338-.806,3.172,3.172,0,0,0,1.933-2.954v-4.221c3.379-.213,5.469-2.109,6.177-4.57A6.466,6.466,0,0,0,821.37,355.46Zm-22.148,4.229a5.371,5.371,0,1,1,5.371-5.371A5.387,5.387,0,0,1,799.221,359.689Zm8.571,4.271h-4.286a1.072,1.072,0,0,1-.757-1.829l2.142-2.142a1.071,1.071,0,0,1,1.515,0l2.142,2.142A1.073,1.073,0,0,1,807.792,363.96Zm4.286-4.271a5.371,5.371,0,1,1,5.371-5.371A5.387,5.387,0,0,1,812.078,359.689Z" transform="translate(-789.582 -336.106)" fill="#0a1c66"/>
                </g>
              </g>
            </g>
          </g>
        </g>
      </g>
      <g id="Grupo_129529" data-name="Grupo 129529" transform="translate(825.579 380.525)">
        <g id="Grupo_129524" data-name="Grupo 129524" transform="translate(19.615 17.377)">
          <g id="Grupo_129513" data-name="Grupo 129513">
            <g id="Grupo_129512" data-name="Grupo 129512">
              <g id="Grupo_129511" data-name="Grupo 129511">
                <path id="Trazado_187907" data-name="Trazado 187907" d="M870.862,386.3c-.076-1.662-.076-3.248-.076-4.835a2.227,2.227,0,0,0-2.267-2.267c-9.445,0-16.623-2.72-22.592-8.538a2.332,2.332,0,0,0-3.173,0c-5.969,5.818-13.147,8.538-22.592,8.538a2.227,2.227,0,0,0-2.267,2.267c0,1.588,0,3.174-.076,4.835-.3,15.868-.755,37.629,25.766,46.772l.757.15.755-.15C871.541,423.934,871.163,402.248,870.862,386.3Z" transform="translate(-817.749 -370.042)" fill="#999172"/>
              </g>
            </g>
          </g>
          <g id="Grupo_129516" data-name="Grupo 129516" transform="translate(5.318 6.318)">
            <g id="Grupo_129515" data-name="Grupo 129515">
              <g id="Grupo_129514" data-name="Grupo 129514">
                <path id="Trazado_187908" data-name="Trazado 187908" d="M863.606,387.052c-.06-1.33-.06-2.6-.06-3.869a1.782,1.782,0,0,0-1.813-1.813c-7.557,0-13.3-2.175-18.074-6.83a1.865,1.865,0,0,0-2.539,0c-4.775,4.655-10.517,6.83-18.074,6.83a1.782,1.782,0,0,0-1.813,1.813c0,1.27,0,2.539-.06,3.869-.242,12.694-.6,30.1,20.613,37.417l.6.12.605-.12C864.149,417.156,863.847,399.807,863.606,387.052Z" transform="translate(-821.116 -374.041)" fill="#fffbe9"/>
              </g>
            </g>
          </g>
          <g id="Grupo_129523" data-name="Grupo 129523" transform="translate(9.831 14.217)">
            <g id="Grupo_129519" data-name="Grupo 129519" transform="translate(9.345)">
              <g id="Grupo_129518" data-name="Grupo 129518">
                <g id="Grupo_129517" data-name="Grupo 129517">
                  <path id="Trazado_187909" data-name="Trazado 187909" d="M841.333,382.022l.719-1.621a.966.966,0,1,0-1.766-.785l-1.035,2.327h-3.9l-1.033-2.327a.967.967,0,0,0-1.768.785l.72,1.621a4.2,4.2,0,0,0-3.382,4.11v1.611h14.825v-1.611A4.2,4.2,0,0,0,841.333,382.022Z" transform="translate(-829.889 -379.041)" fill="#999172"/>
                </g>
              </g>
            </g>
            <g id="Grupo_129522" data-name="Grupo 129522" transform="translate(0 6.768)">
              <g id="Grupo_129521" data-name="Grupo 129521">
                <g id="Grupo_129520" data-name="Grupo 129520">
                  <path id="Trazado_187910" data-name="Trazado 187910" d="M856.523,393.638h-5.8v-2.009a6.133,6.133,0,0,0,5.158-6.047v-1.289a.967.967,0,0,0-1.934,0v1.289a4.2,4.2,0,0,1-3.224,4.076V388.8a1.613,1.613,0,0,0-1.611-1.611H841.7v11.28a.967.967,0,1,1-1.933,0v-11.28h-7.413a1.614,1.614,0,0,0-1.611,1.611v.853a4.2,4.2,0,0,1-3.223-4.076v-1.289a.967.967,0,0,0-1.934,0v1.289a6.133,6.133,0,0,0,5.156,6.047v2.009h-5.8a.968.968,0,0,0,0,1.935h5.8v2.009a6.133,6.133,0,0,0-5.156,6.047v1.289a.967.967,0,0,0,1.934,0v-1.289a4.2,4.2,0,0,1,3.223-4.076v.531a9.991,9.991,0,0,0,19.981,0v-.531a4.2,4.2,0,0,1,3.224,4.076v1.289a.967.967,0,0,0,1.934,0v-1.289a6.135,6.135,0,0,0-5.158-6.047v-2.009h5.8a.968.968,0,0,0,0-1.935Z" transform="translate(-823.973 -383.326)" fill="#999172"/>
                </g>
              </g>
            </g>
          </g>
        </g>
        <g id="Grupo_129528" data-name="Grupo 129528" transform="translate(81.492 18.017)">
          <g id="Grupo_129526" data-name="Grupo 129526">
            <g id="Grupo_129525" data-name="Grupo 129525">
              <rect id="Rectángulo_82565" data-name="Rectángulo 82565" width="22.333" height="22.333" rx="1.7" fill="#0d2380"/>
            </g>
          </g>
          <g id="Grupo_129527" data-name="Grupo 129527" transform="translate(3.213 5.17)">
            <path id="Trazado_187911" data-name="Trazado 187911" d="M865.647,384.852a1.754,1.754,0,0,1-1.139.433h-.054a1.522,1.522,0,0,1-1.137-.542l-3.943-4.366a1.626,1.626,0,0,1,.126-2.3l.008-.006a1.625,1.625,0,0,1,2.287.126l1.758,1.951a1.625,1.625,0,0,0,2.327.09l6.382-6.066a1.626,1.626,0,0,1,2.309.07h0a1.627,1.627,0,0,1-.076,2.292Z" transform="translate(-858.955 -373.72)" fill="#dadeec"/>
          </g>
        </g>
      </g>
      <g id="Grupo_129534" data-name="Grupo 129534" transform="translate(868.752 352.516)">
        <g id="Grupo_129530" data-name="Grupo 129530">
          <circle id="Elipse_4741" data-name="Elipse 4741" cx="15.797" cy="15.797" r="15.797" fill="#fc502d"/>
        </g>
        <g id="Grupo_129533" data-name="Grupo 129533" transform="translate(5.448 5.634)">
          <g id="Grupo_129532" data-name="Grupo 129532">
            <g id="Grupo_129531" data-name="Grupo 129531">
              <path id="Trazado_187912" data-name="Trazado 187912" d="M858.911,344.369l-8.135-13.087a1.955,1.955,0,0,0-3.584,0l-8.116,13.067a1.754,1.754,0,0,0,1.635,2.911l16.572.013h-.014v0a2.134,2.134,0,0,0,1.889-.867A1.994,1.994,0,0,0,858.911,344.369Zm-9.173,1.216a1.1,1.1,0,0,1-.736.272,1.13,1.13,0,0,1-.741-.273.892.892,0,0,1-.3-.664.838.838,0,0,1,.261-.659.885.885,0,0,1,.632-.276h.049a1.288,1.288,0,0,1,.8.276.921.921,0,0,1,.336.662A.875.875,0,0,1,849.738,345.585Zm-.731-3.335a1.22,1.22,0,0,1-.741-.235.715.715,0,0,1-.306-.57l-.111-7.251a.871.871,0,0,1,.933-.8h.122a1.419,1.419,0,0,1,.8.235.752.752,0,0,1,.336.569l.006,7.252A.946.946,0,0,1,849.006,342.251Z" transform="translate(-838.644 -330.108)" fill="#fec2b5"/>
            </g>
          </g>
        </g>
      </g>
      <g id="_Group_" data-name="&lt;Group&gt;" transform="translate(804.468 410.389)">
        <g id="Grupo_129536" data-name="Grupo 129536">
          <g id="Grupo_129535" data-name="Grupo 129535">
            <path id="Trazado_187913" data-name="Trazado 187913" d="M792.571,392.381l9.037-5.725-2.775-4.382a1.3,1.3,0,0,1,.965-1.984l23.077-2.338a1.3,1.3,0,0,1,1.242,1.96L812.14,399.777a1.3,1.3,0,0,1-2.205.025l-2.775-4.382-9.039,5.725a1.3,1.3,0,0,1-1.788-.4l-4.162-6.571A1.3,1.3,0,0,1,792.571,392.381Z" transform="translate(-791.968 -377.946)" fill="#fff2bf"/>
          </g>
        </g>
      </g>
    </g>
  </g>
</svg>
