<svg xmlns="http://www.w3.org/2000/svg" xmlns:xlink="http://www.w3.org/1999/xlink" width="160" height="158.305" viewBox="0 0 160 158.305">
  <defs>
    <clipPath id="clip-path">
      <ellipse id="Elipse_4737" data-name="Elipse 4737" cx="72.5" cy="71" rx="72.5" ry="71" transform="translate(727 1737)" fill="#0d2380"/>
    </clipPath>
    <clipPath id="clip-path-2">
      <rect id="Rectángulo_34841" data-name="Rectángulo 34841" width="113.936" height="156.609" fill="#0d2380"/>
    </clipPath>
    <clipPath id="clip-path-3">
      <rect id="Rectángulo_82561" data-name="Rectángulo 82561" width="113.936" height="156.609" fill="none"/>
    </clipPath>
  </defs>
  <g id="Grupo_129480" data-name="Grupo 129480" transform="translate(-720 -1728)">
    <g id="Elipse_4739" data-name="Elipse 4739" transform="translate(721 1728)" fill="none" stroke="#dadeec" stroke-width="2">
      <circle cx="78.5" cy="78.5" r="78.5" stroke="none"/>
      <circle cx="78.5" cy="78.5" r="77.5" fill="none"/>
    </g>
    <g id="Grupo_129445" data-name="Grupo 129445">
      <ellipse id="Elipse_4734" data-name="Elipse 4734" cx="72.5" cy="71" rx="72.5" ry="71" transform="translate(727 1737)" fill="#aab2d3"/>
      <g id="Enmascarar_grupo_124" data-name="Enmascarar grupo 124" clip-path="url(#clip-path)">
        <g id="Grupo_129412" data-name="Grupo 129412" transform="translate(720 1729.695)">
          <g id="Grupo_80940" data-name="Grupo 80940" clip-path="url(#clip-path-2)">
            <path id="Trazado_115935" data-name="Trazado 115935" d="M55.148,138.227c1.147-2.73.6-3.788-2-4.562-.477-.142-.934-.94-1.075-1.515-.4-1.641-.819-2.787-2.732-3.687-2.19-1.03-4.695-2.1-5.656-5.176-.526-1.685-2.912-2.8-4.486-4.138-.263-.224-.769-.192-.984-.436-.89-1.008-1.915-.709-3.072-.833-1.992-.212-3.891-1.531-5.765-2.507-1.062-.553-1.969-1.4-3.011-2a1.287,1.287,0,0,0-1.218.117c-2.163,2.461-4.51,1.083-6.838.422-.649-.184-1.331-.248-1.985-.415-.975-.25-2.03-.1-2.058-1.846-.013-.787-1.631-2.028-2.671-2.212-1.878-.332-3.419-.779-4.288-2.61-.137-.289-.436-.678-.693-.7-2.883-.3-4.215-2.587-6.62-4.956l4.706-1.242c-2.126-2.533-1.7-4.851,1.367-7.045l.743,1.7.108-.909a25.671,25.671,0,0,0,3.241-1.338,7.069,7.069,0,0,0,2.3-1.943c1.511-2.172,2.735-4.551,4.317-6.665.8-1.074,1.542-1.7.091-2.784-.273-.2.034-1.185.083-1.946l-.994,1.1c-1.437-1.245-2.218-2.5-.345-4.13a2.363,2.363,0,0,0,.536-1.732c-.165-2.465-.4-4.929-.726-7.376-.077-.573-.631-1.083-.967-1.624,2.828-2.208,2.8-2.191.863-5.376-.231-.38.012-1.07.087-1.61.2-1.474,1.393-2.828-.954-4.13-1.532-.85-2.323-3.122-3.286-4.847-.226-.406.114-1.2.336-1.765.322-.816.774-1.582,1.244-2.515L13.933,46.3c1.1-1.273,2.455-2.369,3.112-3.789.362-.782-.529-2.094-.709-3.192-.184-1.118-2.276-1.959-.366-3.59.969,2.578,4.626,3.257,4.228,7.032.5-.193,1.433-.439,1.417-.559-.262-1.954-.644-3.892-1.019-5.945a45.289,45.289,0,0,0,4.047-2.62,9.4,9.4,0,0,0,2.193-2.653c.872-1.484,1.482-3.007,3.784-2.446.46.112,1.93-1.538,1.8-1.775-1.235-2.322.5-4.35.457-6.534C32.8,15.975,36.588,14.839,39.328,13c.628-.42,1.932.17,2.473.681L43.144,16l.651-.033a21.969,21.969,0,0,1,1.284-4.042c.41-.773,1.8-1.878,2.168-1.691,4.133,2.08,7.256,0,10.452-2.163a17.431,17.431,0,0,1,3.586-1.837c2.375-.9,3.176-1.869,3.324-4.594,1.728.448,2.777-.543,4.133-1.456.889-.6,3.03.392,4.463,1.012.6.258.808,1.4,1.488,2.707-2.273.992-4.438,1.835-6.5,2.879C67.161,7.3,65.874,8,65.482,8.946c-.832,2-2.735,2.7-3.986,4.088a15.277,15.277,0,0,0-4.083,8.356c-.325,2.492-.782,5.136-2.787,7.1A11.078,11.078,0,0,0,53.3,30.957l2.712-.909a11.856,11.856,0,0,1,2.241,1.173,2.717,2.717,0,0,1,.783,1.539,9.116,9.116,0,0,0,2.679,5.248c1.128,1.1,1.042,2.416.421,3.993-.56,1.422-.328,3.161-.406,4.762-.009.18.251.542.364.534,2.16-.165,2.338,1.718,3.182,2.956a2.225,2.225,0,0,0,1.446.921c2.657.165,5.322.224,7.985.253.508.006,1.014-.393,1.531-.422a22.848,22.848,0,0,1,3.5.015,15.29,15.29,0,0,1,3.1.67,3.59,3.59,0,0,1,1.653,1c1.577,1.931,3.038,3.957,4.583,5.916.984,1.247,2.035,1.946,3.637.7A3.456,3.456,0,0,1,95.1,58.97a19.765,19.765,0,0,0,9.683-.921c1-.346,2.257.07,3.395.137l.455,2.312c-1.319,2.907-3.049,5.406-3.525,8.125a20.764,20.764,0,0,0,.478,8.961c.786,2.778,2.724,5.231,4.28,8.049l-5.136,4.64c3.9,1.072,5.819,3.781,7,7.185.73,2.111,1.432,4.234,2.072,6.374.155.518.237,1.361-.048,1.631-.354.335-1.125.229-1.716.314-.066-.542-.159-1.083-.194-1.627-.127-1.957.169-3.979-1.858-5.384-.576-.4-.586-1.615-.914-2.638l-5.42,3.816-2.219-1.707c-.1,1.007-.162,1.695-.253,2.651-3.261,0-6.816.146-10.355-.036-4.619-.238-4.713-.26-4.7,4.224,0,.467,0,.935,0,1.536.885.11,1.745.246,2.61.321,3.73.323,3.731.317,3.938,3.723l-8.415,1.016c0,2.349-.1,4.448.063,6.526a3.036,3.036,0,0,0,1.33,1.763c1.521,1.087,3.167,1.777,3,4.3-.1,1.51,1.337,3.073,1.453,4.658.12,1.642-.534,3.337-.826,5.012-1.295,7.411-2.581,14.823-3.948,22.683-1.2-1.322-2-2.675-3.179-3.342-1.006-.568-2.459-.346-4.151-.518l6.326-10.133c-2.591-1.527-4.994-3.062-7.524-4.35a2.871,2.871,0,0,0-2.506.281c-1.411,1.064-2.506.69-3.755-.157s-2.411-1.806-3.717.249a3.8,3.8,0,0,1-3.164,1.254c-2.837-.452-6.014.495-8.511-1.665" transform="translate(0 0)" fill="#0d2380"/>
          </g>
        </g>
      </g>
      <g id="Grupo_129413" data-name="Grupo 129413" transform="translate(720 1729.695)" clip-path="url(#clip-path-3)">
        <path id="Trazado_187846" data-name="Trazado 187846" d="M16.779,83.725c.8-1.074,1.542-1.7.091-2.784-.273-.2.034-1.185.083-1.946l-.994,1.1c-1.437-1.245-2.218-2.5-.345-4.13a2.363,2.363,0,0,0,.536-1.732c-.165-2.465-.4-4.929-.726-7.376-.077-.573-.631-1.083-.967-1.624,2.828-2.208,2.8-2.191.863-5.376-.231-.38.012-1.07.087-1.61.2-1.474,1.393-2.828-.954-4.13-1.532-.85-2.323-3.122-3.286-4.847-.226-.406.114-1.2.336-1.765.322-.816.774-1.582,1.244-2.515L13.933,46.3c1.1-1.273,2.455-2.369,3.112-3.789.362-.782-.529-2.094-.709-3.192-.184-1.118-2.276-1.959-.366-3.59.969,2.578,4.626,3.257,4.228,7.032.5-.193,1.433-.439,1.417-.559-.262-1.954-.644-3.892-1.019-5.945a45.289,45.289,0,0,0,4.047-2.62,9.4,9.4,0,0,0,2.193-2.653c.872-1.484,1.482-3.007,3.784-2.446.46.112,1.93-1.538,1.8-1.775-1.235-2.322.5-4.35.457-6.534C32.8,15.975,36.588,14.839,39.328,13c.628-.42,1.932.17,2.473.681L43.144,16l.651-.033a21.969,21.969,0,0,1,1.284-4.042c.41-.773,1.8-1.878,2.168-1.691,4.133,2.08,7.256,0,10.452-2.163a17.431,17.431,0,0,1,3.586-1.837c2.375-.9,3.176-1.869,3.324-4.594,1.728.448,2.777-.543,4.133-1.456.889-.6,3.03.392,4.463,1.012.6.258.808,1.4,1.488,2.707-2.273.992-4.438,1.835-6.5,2.879C67.161,7.3,65.874,8,65.482,8.946c-.832,2-2.735,2.7-3.986,4.088a15.277,15.277,0,0,0-4.083,8.356c-.325,2.492-.782,5.136-2.787,7.1A11.078,11.078,0,0,0,53.3,30.957l2.712-.909a11.856,11.856,0,0,1,2.241,1.173,2.717,2.717,0,0,1,.783,1.539,9.116,9.116,0,0,0,2.679,5.248c1.128,1.1,1.042,2.416.421,3.993-.56,1.422-.328,3.161-.406,4.762-.009.18.251.542.364.534,2.16-.165,2.338,1.718,3.182,2.956a2.225,2.225,0,0,0,1.446.921c2.657.165,5.322.224,7.985.253.508.006,1.014-.393,1.531-.422a22.848,22.848,0,0,1,3.5.015,15.29,15.29,0,0,1,3.1.67,3.59,3.59,0,0,1,1.653,1c1.577,1.931,3.038,3.957,4.583,5.916.984,1.247,2.035,1.946,3.637.7A3.456,3.456,0,0,1,95.1,58.97a19.765,19.765,0,0,0,9.683-.921c1-.346,2.257.07,3.395.137l.455,2.312c-1.319,2.907-3.049,5.406-3.525,8.125a20.764,20.764,0,0,0,.478,8.961c.786,2.778,2.724,5.231,4.28,8.049" transform="translate(0 0)" fill="#0d2380"/>
      </g>
      <g id="Grupo_129433" data-name="Grupo 129433" transform="translate(175.999 1746.891)">
        <g id="Grupo_129422" data-name="Grupo 129422" transform="translate(611.093 61.109)">
          <g id="Grupo_129416" data-name="Grupo 129416" transform="translate(0 6.933)">
            <g id="Grupo_129414" data-name="Grupo 129414" transform="translate(0.605 0.605)">
              <path id="Trazado_187847" data-name="Trazado 187847" d="M611.127,110.034a3.38,3.38,0,0,1-3.376-3.376V67.336h69.605v39.322a3.38,3.38,0,0,1-3.376,3.376Z" transform="translate(-607.751 -67.336)" fill="#fff"/>
            </g>
            <g id="Grupo_129415" data-name="Grupo 129415">
              <path id="Trazado_187848" data-name="Trazado 187848" d="M676.856,68.047v38.716a2.775,2.775,0,0,1-2.771,2.772H611.232a2.775,2.775,0,0,1-2.771-2.772V68.047h68.395m1.211-1.211H607.251v39.927a3.982,3.982,0,0,0,3.981,3.983h62.853a3.982,3.982,0,0,0,3.981-3.983V66.836Z" transform="translate(-607.251 -66.836)" fill="#ccc198"/>
            </g>
          </g>
          <g id="Grupo_129417" data-name="Grupo 129417">
            <path id="Trazado_187849" data-name="Trazado 187849" d="M678.067,65.09a3.981,3.981,0,0,0-3.981-3.981H611.232a3.981,3.981,0,0,0-3.981,3.981v2.951h70.816Z" transform="translate(-607.251 -61.109)" fill="#ccc198"/>
          </g>
          <g id="Grupo_129421" data-name="Grupo 129421" transform="translate(55.902 1.631)">
            <g id="Grupo_129418" data-name="Grupo 129418">
              <path id="Trazado_187850" data-name="Trazado 187850" d="M656.317,63.9a1.443,1.443,0,1,1-1.443-1.443A1.444,1.444,0,0,1,656.317,63.9Z" transform="translate(-653.431 -62.456)" fill="#fff"/>
            </g>
            <g id="Grupo_129419" data-name="Grupo 129419" transform="translate(4.301)">
              <path id="Trazado_187851" data-name="Trazado 187851" d="M659.87,63.9a1.443,1.443,0,1,1-1.443-1.443A1.443,1.443,0,0,1,659.87,63.9Z" transform="translate(-656.984 -62.456)" fill="#fff"/>
            </g>
            <g id="Grupo_129420" data-name="Grupo 129420" transform="translate(8.603)">
              <path id="Trazado_187852" data-name="Trazado 187852" d="M663.424,63.9a1.443,1.443,0,1,1-1.443-1.443A1.443,1.443,0,0,1,663.424,63.9Z" transform="translate(-660.538 -62.456)" fill="#fd4f23"/>
            </g>
          </g>
        </g>
        <g id="Grupo_129432" data-name="Grupo 129432" transform="translate(589.001 78.661)">
          <g id="Grupo_129423" data-name="Grupo 129423">
            <rect id="Rectángulo_82562" data-name="Rectángulo 82562" width="115" height="24.211" rx="10" fill="#aab2d3"/>
          </g>
          <g id="Grupo_129426" data-name="Grupo 129426" transform="translate(5.131 4.051)">
            <g id="Grupo_129424" data-name="Grupo 129424">
              <path id="Trazado_187853" data-name="Trazado 187853" d="M601.294,94.4a7.724,7.724,0,1,1,7.387-8.046A7.724,7.724,0,0,1,601.294,94.4Z" transform="translate(-593.24 -78.955)" fill="#0d2380"/>
            </g>
            <g id="Grupo_129425" data-name="Grupo 129425" transform="translate(3.335 3.001)">
              <path id="Trazado_187854" data-name="Trazado 187854" d="M600.464,92.929a6.737,6.737,0,0,0,4.464-1.689,1.741,1.741,0,0,0-.955-1.45l-1.861-.931a.512.512,0,0,1-.284-.461V87.74c.045-.054.091-.116.139-.185a4.444,4.444,0,0,0,.576-1.131.77.77,0,0,0,.453-.7V84.94a.777.777,0,0,0-.195-.511V83.393a1.744,1.744,0,0,0-.407-1.271,3.055,3.055,0,0,0-3.862,0,1.739,1.739,0,0,0-.407,1.271v1.036a.777.777,0,0,0-.195.511v.781a.77.77,0,0,0,.292.605,4.078,4.078,0,0,0,.681,1.409v.645a.517.517,0,0,1-.267.453l-1.738.948a1.75,1.75,0,0,0-.9,1.455A6.737,6.737,0,0,0,600.464,92.929Z" transform="translate(-595.995 -81.434)" fill="#dadeec"/>
            </g>
          </g>
          <g id="Grupo_129431" data-name="Grupo 129431" transform="translate(25.089 3.905)">
            <g id="Grupo_129429" data-name="Grupo 129429">
              <g id="Grupo_129427" data-name="Grupo 129427" transform="translate(0.332 0.333)">
                <path id="Trazado_187855" data-name="Trazado 187855" d="M685.659,94.846H617.869A7.892,7.892,0,0,1,610,86.977h0a7.892,7.892,0,0,1,7.868-7.868h67.789a7.892,7.892,0,0,1,7.868,7.868h0A7.892,7.892,0,0,1,685.659,94.846Z" transform="translate(-610.001 -79.109)" fill="#aab2d3"/>
              </g>
              <g id="Grupo_129428" data-name="Grupo 129428">
                <path id="Trazado_187856" data-name="Trazado 187856" d="M685.716,95.235H617.927a8.2,8.2,0,0,1,0-16.4h67.789a8.2,8.2,0,1,1,0,16.4ZM617.927,79.5a7.536,7.536,0,0,0,0,15.072h67.789a7.536,7.536,0,1,0,0-15.072Z" transform="translate(-609.727 -78.834)" fill="#0d2380"/>
              </g>
            </g>
            <g id="Grupo_129430" data-name="Grupo 129430" transform="translate(8.983 6.205)">
              <path id="Trazado_187857" data-name="Trazado 187857" d="M620.393,85.961l1,.539-.569.942-1.03-.617.03,1.127h-1.119l.029-1.127-1.029.617-.559-.942,1-.539-1-.55.559-.942,1.029.628-.029-1.138h1.119L619.8,85.1l1.03-.628.569.942Z" transform="translate(-617.148 -83.96)" fill="#0d2380"/>
              <path id="Trazado_187858" data-name="Trazado 187858" d="M626,85.961l1,.539-.57.942-1.029-.617.029,1.127h-1.119l.03-1.127-1.03.617-.559-.942,1-.539-1-.55.559-.942,1.03.628-.03-1.138h1.119l-.029,1.138,1.029-.628.57.942Z" transform="translate(-615.967 -83.96)" fill="#0d2380"/>
              <path id="Trazado_187859" data-name="Trazado 187859" d="M631.613,85.961l1,.539-.57.942-1.029-.617.029,1.127h-1.119l.03-1.127-1.03.617-.559-.942,1-.539-1-.55.559-.942,1.03.628-.03-1.138h1.119l-.029,1.138,1.029-.628.57.942Z" transform="translate(-614.786 -83.96)" fill="#0d2380"/>
              <path id="Trazado_187860" data-name="Trazado 187860" d="M637.222,85.961l1,.539-.57.942-1.03-.617.03,1.127h-1.119l.029-1.127-1.029.617-.559-.942,1-.539-1-.55.559-.942,1.029.628-.029-1.138h1.119l-.03,1.138,1.03-.628.57.942Z" transform="translate(-613.605 -83.96)" fill="#0d2380"/>
              <path id="Trazado_187861" data-name="Trazado 187861" d="M642.833,85.961l1,.539-.57.942-1.029-.617.029,1.127h-1.118l.03-1.127-1.03.617-.559-.942,1-.539-1-.55.559-.942,1.03.628-.03-1.138h1.118l-.029,1.138,1.029-.628.57.942Z" transform="translate(-612.424 -83.96)" fill="#0d2380"/>
              <path id="Trazado_187862" data-name="Trazado 187862" d="M648.442,85.961l1,.539-.569.942-1.03-.617.029,1.127h-1.117l.029-1.127-1.03.617-.559-.942,1-.539-1-.55.559-.942,1.03.628-.029-1.138h1.117l-.029,1.138,1.03-.628.569.942Z" transform="translate(-611.243 -83.96)" fill="#0d2380"/>
              <path id="Trazado_187863" data-name="Trazado 187863" d="M654.05,85.961l1,.539-.57.942-1.03-.617.03,1.127h-1.119l.029-1.127-1.029.617-.559-.942,1-.539-1-.55.559-.942,1.029.628-.029-1.138h1.119l-.03,1.138,1.03-.628.57.942Z" transform="translate(-610.062 -83.96)" fill="#0d2380"/>
              <path id="Trazado_187864" data-name="Trazado 187864" d="M659.662,85.961l1,.539-.57.942-1.029-.617.029,1.127h-1.119l.03-1.127-1.03.617-.559-.942,1-.539-1-.55.559-.942L658,85.1l-.03-1.138h1.119l-.029,1.138,1.029-.628.57.942Z" transform="translate(-608.881 -83.96)" fill="#0d2380"/>
              <path id="Trazado_187865" data-name="Trazado 187865" d="M665.27,85.961l1,.539-.569.942-1.03-.617.029,1.127h-1.117l.029-1.127-1.03.617-.558-.942,1-.539-1-.55.558-.942,1.03.628-.029-1.138H664.7l-.029,1.138,1.03-.628.569.942Z" transform="translate(-607.7 -83.96)" fill="#0d2380"/>
              <path id="Trazado_187866" data-name="Trazado 187866" d="M670.881,85.961l1,.539-.57.942-1.03-.617.03,1.127h-1.118l.029-1.127-1.029.617-.559-.942,1-.539-1-.55.559-.942,1.029.628-.029-1.138h1.118l-.03,1.138,1.03-.628.57.942Z" transform="translate(-606.519 -83.96)" fill="#0d2380"/>
            </g>
          </g>
        </g>
      </g>
      <g id="Grupo_129444" data-name="Grupo 129444" transform="translate(350.29 1471.086)">
        <g id="Grupo_129440" data-name="Grupo 129440" transform="translate(459.71 269.307)">
          <g id="Grupo_129434" data-name="Grupo 129434">
            <path id="Trazado_187867" data-name="Trazado 187867" d="M508.691,272.833a3.525,3.525,0,0,0-3.525-3.526H463.235a3.526,3.526,0,0,0-3.525,3.526v4.573h48.981Z" transform="translate(-459.71 -269.307)" fill="#ccc198"/>
          </g>
          <g id="Grupo_129435" data-name="Grupo 129435" transform="translate(0 8.099)">
            <path id="Trazado_187868" data-name="Trazado 187868" d="M459.71,274.925V305.1a3.525,3.525,0,0,0,3.525,3.525h41.932a3.525,3.525,0,0,0,3.525-3.525V274.925Z" transform="translate(-459.71 -274.925)" fill="#fffbe9"/>
          </g>
          <g id="Grupo_129439" data-name="Grupo 129439" transform="translate(31.338 2.291)">
            <g id="Grupo_129436" data-name="Grupo 129436">
              <path id="Trazado_187869" data-name="Trazado 187869" d="M485.119,272.73a1.835,1.835,0,1,1-1.835-1.834A1.835,1.835,0,0,1,485.119,272.73Z" transform="translate(-481.449 -270.896)" fill="#fff"/>
            </g>
            <g id="Grupo_129437" data-name="Grupo 129437" transform="translate(5.471)">
              <path id="Trazado_187870" data-name="Trazado 187870" d="M488.914,272.73a1.835,1.835,0,1,1-1.835-1.834A1.835,1.835,0,0,1,488.914,272.73Z" transform="translate(-485.244 -270.896)" fill="#fff"/>
            </g>
            <g id="Grupo_129438" data-name="Grupo 129438" transform="translate(10.941)">
              <path id="Trazado_187871" data-name="Trazado 187871" d="M492.708,272.73a1.834,1.834,0,1,1-1.835-1.834A1.835,1.835,0,0,1,492.708,272.73Z" transform="translate(-489.039 -270.896)" fill="#fc502d"/>
            </g>
          </g>
        </g>
        <g id="Grupo_129443" data-name="Grupo 129443" transform="translate(472.514 283.349)">
          <g id="Grupo_129442" data-name="Grupo 129442">
            <g id="Grupo_129441" data-name="Grupo 129441">
              <path id="Trazado_187872" data-name="Trazado 187872" d="M491.481,295.154l-9.188-14.78a2.206,2.206,0,0,0-4.046,0l-9.167,14.759a2.258,2.258,0,0,0-.283,2.3,2.284,2.284,0,0,0,2.128.985l18.717.013h-.016v0a2.411,2.411,0,0,0,2.133-.98A2.254,2.254,0,0,0,491.481,295.154Zm-10.359,1.374a1.258,1.258,0,0,1-.832.308,1.276,1.276,0,0,1-.838-.308,1.013,1.013,0,0,1-.345-.75.953.953,0,0,1,.3-.745,1,1,0,0,1,.712-.311h.056a1.447,1.447,0,0,1,.9.313,1.03,1.03,0,0,1,.379.745A.984.984,0,0,1,481.122,296.528Zm-.827-3.765a1.369,1.369,0,0,1-.836-.267.807.807,0,0,1-.346-.643l-.124-8.191a.982.982,0,0,1,1.054-.907h.137a1.6,1.6,0,0,1,.908.265.852.852,0,0,1,.379.643l.007,8.191A1.07,1.07,0,0,1,480.294,292.763Z" transform="translate(-468.592 -279.048)" fill="#fc502d"/>
            </g>
          </g>
        </g>
      </g>
    </g>
  </g>
</svg>
