<svg xmlns="http://www.w3.org/2000/svg" width="85" height="84.805" viewBox="0 0 85 84.805">
  <g id="Grupo_134829" data-name="Grupo 134829" transform="translate(504.922 -628.02)">
    <path id="Trazado_192278" data-name="Trazado 192278" d="M-451.462,680h-26.887c-3.025,0-4.645-1.618-4.647-4.637,0-1.538-.005-3.077,0-4.615.005-1.218.482-1.678,1.725-1.689h.343c2.275,0,2.264,0,2.054-2.323-.031-.346-.142-.426-.457-.417-.627.019-1.256.006-1.884.006h-21.835c-1.449,0-1.872-.427-1.872-1.886q0-7.692,0-15.383c0-1.458.42-1.877,1.879-1.877,7.763,0,15.527-.011,23.291.017.7,0,.9-.137.886-.865-.053-2.392-.028-4.786-.018-7.178a4.094,4.094,0,0,1,4.313-4.281c2.911-.009,5.823-.013,8.734.008a1.468,1.468,0,0,0,1.191-.48c1.083-1.133,2.2-2.231,3.324-3.329.76-.746,1.6-.841,2.2,0,.924,1.289,1.894,1.161,3.07.513.3-.167.5-.277.467-.67a11.076,11.076,0,0,1-.008-1.366,1.364,1.364,0,0,1,1.469-1.509q2.654-.03,5.309,0a1.358,1.358,0,0,1,1.44,1.454c0,.029,0,.057,0,.085.059,1.94.064,1.927,1.909,2.6a.458.458,0,0,0,.584-.121c.337-.349.677-.7,1.03-1.027a1.388,1.388,0,0,1,2.173,0q1.714,1.672,3.385,3.389a1.392,1.392,0,0,0,1.112.459c2.826-.02,5.651-.011,8.477-.01,3.01,0,4.625,1.627,4.625,4.658q0,14.315-.018,28.63c0,.734.144,1.015.915.919a10.977,10.977,0,0,1,1.8-.009,1.332,1.332,0,0,1,1.408,1.394c.024,1.908.059,3.819-.013,5.725A4.049,4.049,0,0,1-424.146,680c-5.823.014-11.645.005-17.468.005Z" transform="translate(0)"/>
    <path id="Trazado_192279" data-name="Trazado 192279" d="M-504.921,871.935q0-7.264,0-14.527c0-1.462.42-1.884,1.872-1.884q9.076,0,18.152,0c1.472,0,1.956.42,1.878,1.855-.044.8.24.9.943.9,4.538-.031,9.076,0,13.614-.029a2.272,2.272,0,0,1,1.921.867c2.28,2.7,4.6,5.365,6.9,8.05a3.473,3.473,0,0,1,.78,1.107c.255.846.775.952,1.567.95,9.989-.028,19.979.05,29.967-.053,3.719-.039,7.91,2.544,7.357,8.339a1.4,1.4,0,0,1-1.277,1.284c-4.089.89-8.173,1.8-12.262,2.692q-15.521,3.383-31.042,6.767a2.018,2.018,0,0,1-1.686-.321c-2.338-1.575-4.691-3.128-7.03-4.7a1.851,1.851,0,0,0-1.1-.357c-2.654.018-5.309.03-7.962-.007-.6-.009-.68.2-.675.723.016,1.685-.355,2.029-2.062,2.029-1.827,0-3.653.015-5.48-.01-.48-.006-.69.049-.687.625.011,1.823-.321,2.12-2.136,2.12q-4.88,0-9.761,0c-1.335,0-1.787-.457-1.788-1.8Q-504.924,879.241-504.921,871.935Z" transform="translate(0 -175.522)"/>
    <path id="Trazado_192280" data-name="Trazado 192280" d="M-335.938,719.767c-6.107,0-12.215-.012-18.322.017-.679,0-.913-.178-.819-.837a4.615,4.615,0,0,0,0-.939c-.036-.552-.032-.994.68-1.2.519-.149.694-.7.694-1.261q0-8.075,0-16.15a1.341,1.341,0,0,0-.976-1.434c-.356-.106-.408-.281-.4-.6.017-1.025.027-2.051,0-3.076-.012-.423.137-.5.533-.519,2.217-.082,2.217-.094,2.217,2.076,0,.655-.017,1.311.006,1.965a1.371,1.371,0,0,0,1.458,1.439c.028,0,.057,0,.085,0,1.946.06,1.928.066,2.61,1.9.125.337-.012.464-.19.643-.362.364-.741.713-1.081,1.1a1.306,1.306,0,0,0,.005,1.913q1.907,1.963,3.874,3.866a1.329,1.329,0,0,0,1.921.006.533.533,0,0,0,.125-.115c.8-1.327,1.836-1.245,3.037-.57.343.193.549.343.483.742a1.01,1.01,0,0,0,0,.171c.015,2.532.136,2.654,2.645,2.654,1.313,0,2.626.008,3.938,0,1.121-.008,1.615-.5,1.639-1.607.041-1.914.124-2,1.964-2.569.308-.095.414.045.57.2.305.3.6.608.909.9a1.425,1.425,0,0,0,2.3.032q1.8-1.767,3.571-3.565a1.411,1.411,0,0,0-.022-2.235c-1.324-1.4-1.327-1.514-.435-3.2.148-.279.319-.267.539-.268.485,0,.971.012,1.455,0a1.375,1.375,0,0,0,1.479-1.5c.019-1.11.023-2.222,0-3.332-.01-.441.05-.639.58-.647,2.17-.032,2.169-.054,2.169,2.128,0,7.691-.01,15.381.018,23.072,0,.694-.206.818-.847.816C-323.666,719.758-329.8,719.767-335.938,719.767Z" transform="translate(-115.592 -50.708)" fill="#e1e6f5"/>
    <path id="Trazado_192281" data-name="Trazado 192281" d="M-368.241,819.551q13.956,0,27.913-.017c.7,0,.939.152.889.877-.069.992-.008,1.993-.02,2.99-.013,1.114-.507,1.613-1.627,1.617-2.483.01-4.966,0-7.449,0h-46.407c-1.7,0-2.069-.359-2.069-2.034,0-.912.031-1.825-.012-2.734-.026-.547.123-.728.7-.717,1.911.037,3.824.014,5.736.014Z" transform="translate(-83.244 -147.756)" fill="#9ca0be"/>
    <path id="Trazado_192282" data-name="Trazado 192282" d="M-306.883,644.94c-.179.192-.328.357-.484.516-1.351,1.373-1.357,1.409-.471,3.061a11.727,11.727,0,0,1,.932,2.377c.315,1.115.656,1.368,1.824,1.376,1.277.008,1.277.008,1.277,1.229,0,1.46,0,1.477-1.514,1.5a1.42,1.42,0,0,0-1.518,1.113,12.568,12.568,0,0,1-1.371,3.3,1.47,1.47,0,0,0,.4,1.978c.97.954.955.969-.018,1.94-.946.944-.946.944-1.89.026a1.493,1.493,0,0,0-2.267-.282,11.954,11.954,0,0,1-2.752,1.146c-1.137.323-1.393.65-1.4,1.8a7.487,7.487,0,0,0,0,.769c.039.405-.113.584-.528.532-.141-.017-.285,0-.428,0-.564-.034-1.261.229-1.657-.107-.377-.32-.1-1.019-.13-1.549a1.376,1.376,0,0,0-1.091-1.361,13.534,13.534,0,0,1-3.381-1.4c-.78-.453-1.4-.121-1.97.467-.9.923-.915.908-1.824.01l-.061-.06c-.96-.949-.96-.949.008-1.946a1.443,1.443,0,0,0,.285-2.125,12.3,12.3,0,0,1-1.213-2.9c-.29-1.051-.666-1.323-1.773-1.331a5.739,5.739,0,0,0-.685,0c-.459.051-.715-.085-.634-.6a1.183,1.183,0,0,0,0-.171c.006-.6-.192-1.317.072-1.762.306-.515,1.088-.144,1.659-.21a1.463,1.463,0,0,0,1.34-1.235,10.724,10.724,0,0,1,1.272-3.06,1.44,1.44,0,0,0-.254-2c-.207-.2-.388-.422-.609-.6-.358-.289-.455-.558-.029-.862a1.83,1.83,0,0,0,.183-.179c.43-.414.811-1.068,1.307-1.172s.816.676,1.246,1.032a1.347,1.347,0,0,0,1.659.192,13.364,13.364,0,0,1,3.379-1.4,1.39,1.39,0,0,0,1.108-1.519,8.444,8.444,0,0,0-.007-.854c-.07-.533.139-.738.664-.655a2.159,2.159,0,0,0,.342,0c1.649,0,1.659,0,1.738,1.621a1.366,1.366,0,0,0,1.056,1.384,13.078,13.078,0,0,1,3.381,1.4,1.356,1.356,0,0,0,1.79-.25,5.851,5.851,0,0,0,.6-.606c.364-.487.671-.475,1.054-.005.323.4.719.731,1.079,1.1C-307.081,644.7-307,644.808-306.883,644.94Z" transform="translate(-133.971 -9.197)" fill="#5e86c9"/>
    <path id="Trazado_192283" data-name="Trazado 192283" d="M-492.932,734.739c-.009-3.443-.009-6.886-.038-10.329,0-.5.166-.615.637-.614q13.558.029,27.116.032a1.349,1.349,0,0,1,.277,1.041c.01,2.927.015,5.854,0,8.781-.006,1.145-.211,1.345-1.346,1.363a16.041,16.041,0,0,1-2.3-.044c-.7-.184-.41-.539-.121-.847.7-.747,1.445-1.451,2.164-2.18,1.029-1.042,1.037-1.553.024-2.574-.981-.99-1.982-1.96-2.953-2.959-.384-.4-.668-.38-1.067,0-1.187,1.12-1.2,1.106-.032,2.272.4.4.812.8,1.205,1.207.652.68.649.848-.028,1.543-.516.53-1.034,1.058-1.572,1.565-.4.379-.727.731-.255,1.286a.368.368,0,0,1-.112.587,5.779,5.779,0,0,1-2.017.141c-1.271.017-2.543.013-3.814,0a1.387,1.387,0,0,1-1.109-.292c-.218-.461.071-.824.255-1.2,1.126-2.267,2.27-4.526,3.4-6.792.415-.833.4-.847-.442-1.28l-.229-.115c-.988-.491-.993-.494-1.474.467q-2.024,4.045-4.051,8.088c-.2.4-.346.857-.836,1.031a7.334,7.334,0,0,1-2.833-.082c-.264-.225-.166-.472,0-.675.355-.423.142-.711-.174-1.018-.613-.6-1.2-1.217-1.82-1.807a.817.817,0,0,1-.015-1.372c.637-.611,1.242-1.257,1.882-1.866.4-.383.369-.678,0-1.074-1.109-1.183-1.1-1.2-2.216-.077-.847.846-1.7,1.683-2.539,2.539-.858.879-.85,1.438.02,2.333.755.776,1.549,1.515,2.285,2.308.235.253.608.589-.056.818-1.7.133-3.41.052-5.114.049A.926.926,0,0,1-492.932,734.739Z" transform="translate(-9.222 -73.893)" fill="#4c6cb4"/>
    <path id="Trazado_192284" data-name="Trazado 192284" d="M-204.919,686.106c0,4.844-.014,9.687.017,14.53,0,.645-.159.8-.795.788-1.962-.036-1.963-.007-1.963-2q0-12.393,0-24.787c0-1.561-.4-1.952-1.979-1.952-2.084,0-4.168-.017-6.251.013-.48.007-.723-.12-.846-.589a7.6,7.6,0,0,0-.448-1.1c-.3-.692-.086-1.046.709-1.051,2.141-.014,4.282,0,6.423,0,1.142,0,2.284-.005,3.426,0,1.226.007,1.705.482,1.707,1.709Q-204.914,678.883-204.919,686.106Z" transform="translate(-221.893 -32.348)" fill="#c7ccec"/>
    <path id="Trazado_192285" data-name="Trazado 192285" d="M-484.576,734.59a11.94,11.94,0,0,0,3.049.144,2.224,2.224,0,0,0,1.755,1.514c.361-.016.41-.342.576-.56.322-.425.271-1.126.952-1.285.034.3.241.34.49.339,2.077,0,4.154,0,6.23-.014.1,0,.2-.093.295-.142.071-.055.178-.087.227-.03a1.312,1.312,0,0,0,1.967.18c1,0,1.991-.028,2.985.017.616.028.846-.139.84-.8-.034-3.377-.02-6.753-.023-10.13,2.4-.105,2.4-.105,2.4,2.234,0,3.53-.011,7.061.011,10.591,0,.583-.07.847-.769.845q-14.334-.038-28.669-.007c-.542,0-.776-.124-.731-.705.053-.68.028-1.365.037-2.048h6.182a1.31,1.31,0,0,0,1.968-.182C-484.75,734.5-484.643,734.531-484.576,734.59Z" transform="translate(-9.204 -73.888)" fill="#3b5891"/>
    <path id="Trazado_192286" data-name="Trazado 192286" d="M-372.456,669.955c1.627,0,3.254,0,4.882,0,1.028,0,1.071.249.811,1.228-.352,1.325-1.091,1.624-2.371,1.537-1.819-.123-3.652-.039-5.479-.028-1.117.006-1.611.5-1.619,1.621-.01,1.538-.022,3.077.009,4.615.01.49-.143.605-.619.611-2.133.028-2.133.044-2.133-2.081,0-1.937,0-3.875,0-5.812,0-1.22.483-1.687,1.722-1.692C-375.653,669.95-374.055,669.955-372.456,669.955Z" transform="translate(-97.169 -32.352)" fill="#c7ccec"/>
    <path id="Trazado_192287" data-name="Trazado 192287" d="M-376.229,797.073c0,1.327,0,1.327-1.326,1.327-1.415,0-1.415,0-1.415-1.409,0-1.326,0-1.326,1.326-1.326C-376.229,795.665-376.229,795.665-376.229,797.073Z" transform="translate(-97.174 -129.341)" fill="#c7ccec"/>
    <path id="Trazado_192288" data-name="Trazado 192288" d="M-409.008,888.916c0-2.905.015-5.811-.012-8.716-.005-.583.062-.826.759-.82,4.366.04,8.733.027,13.1.01a1.175,1.175,0,0,1,1.007.471c2.158,2.542,4.338,5.065,6.51,7.6a4.348,4.348,0,0,1,.407,3.484,1.319,1.319,0,0,1-.584.6,3.785,3.785,0,0,1-3.5-.537c-1.737-1.73-3.491-3.446-5.193-5.21-.463-.48-.726-.455-1.12.025s-1.186.895-1.208,1.365c-.026.561.788.963,1.244,1.425q2.253,2.283,4.539,4.533a6.246,6.246,0,0,0,6.86.629,3.618,3.618,0,0,0,1.746-2.619c.085-.8.459-.823,1.083-.821q11.516.024,23.032.01c2.512,0,5.023-.016,7.535.007a4.134,4.134,0,0,1,4.061,3.474c.113.637-.024.943-.73,1.094-7.406,1.587-14.8,3.21-22.2,4.821-6.148,1.339-12.3,2.666-18.443,4.029a1.753,1.753,0,0,1-1.5-.3c-2.166-1.473-4.358-2.91-6.527-4.379a3.059,3.059,0,0,0-1.833-.557c-2.74.03-5.48-.015-8.219.032-.7.012-.825-.209-.818-.848C-408.99,894.784-409.008,891.85-409.008,888.916Z" transform="translate(-73.988 -193.928)" fill="#fae0c9"/>
    <path id="Trazado_192289" data-name="Trazado 192289" d="M-492.985,881.076c0-4.273.018-8.545-.018-12.818-.006-.695.206-.84.856-.829,2.225.039,4.452.032,6.678,0,.549-.007.719.131.718.7q-.027,12.989,0,25.978c0,.577-.181.7-.723.7-2.226-.028-4.453-.037-6.678,0-.658.012-.857-.147-.852-.834C-492.968,889.678-492.985,885.377-492.985,881.076Z" transform="translate(-9.196 -184.708)" fill="#d4873e"/>
    <path id="Trazado_192290" data-name="Trazado 192290" d="M-444.951,890.7q-.014-7.56-.028-15.119c0-2.506.011-5.012-.011-7.518,0-.475.117-.639.611-.621,1.168.043,2.338.029,3.507.039a1.461,1.461,0,0,1,.27,1.129c.005,6.348.018,12.7-.005,19.043a3.1,3.1,0,0,1-3.555,3.31A1.1,1.1,0,0,1-444.951,890.7Z" transform="translate(-46.239 -184.719)" fill="#f8d166"/>
    <path id="Trazado_192291" data-name="Trazado 192291" d="M-445.032,890.756c1.125-.021,2.288.19,3.22-.744a2.861,2.861,0,0,0,.865-2.142q-.01-10.167-.007-20.333c1.374-.071,1.374-.071,1.374,1.261,0,7.485-.01,14.97.016,22.455,0,.691-.134.935-.871.893a32.545,32.545,0,0,0-3.676,0c-.781.044-1.093-.188-.953-.965A3.852,3.852,0,0,0-445.032,890.756Z" transform="translate(-46.158 -184.773)" fill="#efad42"/>
    <path id="Trazado_192292" data-name="Trazado 192292" d="M-290.55,672.158a8.229,8.229,0,0,1-8.193,8.229,8.237,8.237,0,0,1-8.245-8.269,8.229,8.229,0,0,1,8.2-8.141A8.224,8.224,0,0,1-290.55,672.158Z" transform="translate(-152.71 -27.741)"/>
    <path id="Trazado_192293" data-name="Trazado 192293" d="M-440.434,737.617c-.3.568-.6,1.136-.908,1.7-.079.147-.173.409-.262.409a4.954,4.954,0,0,1-2.191-.924c-.483-.24.113-.558.078-.856,1.586-3.145,3.19-6.281,4.744-9.442.3-.609.544-.682,1.138-.369,1.674.881,1.687.852.848,2.536Q-438.714,734.143-440.434,737.617Z" transform="translate(-47.014 -77.103)"/>
    <path id="Trazado_192294" data-name="Trazado 192294" d="M-475.3,741.2a.757.757,0,0,0-.145.084c-1.007.927-1.006.928-2.047.061q-1.43-1.461-2.859-2.922a1.422,1.422,0,0,1,0-2.35c1.14-1.153,2.3-2.283,3.435-3.442.317-.324.514-.391.887-.036,1.558,1.48,1.572,1.466.045,2.99-.423.422-.828.863-1.273,1.259-.345.306-.309.521.011.821.643.6,1.254,1.239,1.878,1.862C-474.545,740.342-474.545,740.342-475.3,741.2Z" transform="translate(-18.479 -80.494)"/>
    <path id="Trazado_192295" data-name="Trazado 192295" d="M-397.613,741.9c-1.014.844-1.014.844-2.194-.15-.753-.85-.753-.85.069-1.67.624-.623,1.234-1.26,1.877-1.862.322-.3.339-.509.009-.822-.784-.743-1.521-1.535-2.306-2.276-.349-.329-.344-.532-.006-.883,1.477-1.536,1.465-1.548,2.992-.023.825.824,1.66,1.637,2.471,2.474a1.387,1.387,0,0,1,0,2.229C-395.661,739.92-396.641,740.908-397.613,741.9Z" transform="translate(-80.625 -81.054)"/>
    <path id="Trazado_192296" data-name="Trazado 192296" d="M-289.566,686.889A5.482,5.482,0,0,1-295,681.348a5.483,5.483,0,0,1,5.572-5.4,5.484,5.484,0,0,1,5.386,5.5A5.484,5.484,0,0,1-289.566,686.889Z" transform="translate(-161.962 -36.978)" fill="#e1e6f5"/>
  </g>
</svg>
