<svg xmlns="http://www.w3.org/2000/svg" width="72.547" height="68.079" viewBox="0 0 72.547 68.079">
  <g id="Grupo_132726" data-name="Grupo 132726" transform="translate(-4420.077 -1000.097)">
    <path id="Trazado_188514" data-name="Trazado 188514" d="M4420.077,1238.157a2.983,2.983,0,0,1,3.22-1.955c2.643.066,5.288.015,7.932.019a2.586,2.586,0,0,1,2.875,2.889c0,.661.023,1.323-.008,1.983-.018.38.12.457.476.481a16.127,16.127,0,0,1,6.979,2.079c.328.186.671.346.986.552a19.857,19.857,0,0,0,10.352,3.057c3.555.144,7.109.506,10.64.96a6.176,6.176,0,0,1,5.275,5.732c.046.582.238.773.8.764a15.805,15.805,0,0,1,1.908.094,1.3,1.3,0,0,0,.892-.354c4.409-2.947,8.808-5.909,13.225-8.843a4.425,4.425,0,0,1,6.682,1.912c.112.275.1.6.316.83v1.7c-.117,1.507-1.15,2.426-2.171,3.337-2.781,2.481-5.542,4.985-8.315,7.475-1.685,1.513-3.335,3.067-5.083,4.508a11.878,11.878,0,0,1-6.174,2.423c-6.149.843-12.291,1.744-18.432,2.653q-1.155.171-2.315.31a8.044,8.044,0,0,1-3.949-.587c-3.713-1.459-7.463-2.821-11.188-4.251-.637-.245-.638-.242-.713.427a2.659,2.659,0,0,1-2.715,2.455q-4.462.016-8.924,0a2.416,2.416,0,0,1-2.568-2.031Z" transform="translate(0 -202.638)"/>
    <path id="Trazado_188515" data-name="Trazado 188515" d="M4573.972,1012.5c-1.735,12.61-7.142,22.813-18.936,28.846a2.248,2.248,0,0,1-2.2,0c-9.345-4.561-14.98-12.14-17.888-21.939a36.287,36.287,0,0,1-1.319-6.576,2.486,2.486,0,0,1,1.521-2.817,9.343,9.343,0,0,0,5.609-7.905,2.06,2.06,0,0,1,2.255-1.878q9.208-.067,18.415-.122c1.016-.007,2.031-.019,3.046-.008a2.1,2.1,0,0,1,2.218,2.01,9.242,9.242,0,0,0,5.5,7.6A2.632,2.632,0,0,1,4573.972,1012.5Z" transform="translate(-97.432)"/>
    <path id="Trazado_188516" data-name="Trazado 188516" d="M4510.47,1292.525a1.132,1.132,0,0,0,1.008-1.3c-.015-.519.041-1.043-.014-1.557-.063-.6.122-.767.725-.689a15.247,15.247,0,0,1,5.312,1.6c1.018.544,2.04,1.082,3.037,1.661a17.086,17.086,0,0,0,7.78,2.259c3.955.225,7.9.646,11.848,1a4.342,4.342,0,0,1,3.909,3.929c.025.362,0,.551-.448.577q-9.506.558-19.009,1.156a2.658,2.658,0,0,1-2.231-.822,1.059,1.059,0,0,0-1.569-.076,1.07,1.07,0,0,0,.042,1.524,4.111,4.111,0,0,0,3.307,1.488c3.794-.189,7.587-.412,11.38-.641,3.2-.193,6.4-.453,9.609-.6a26.994,26.994,0,0,1,3.674.19,2.485,2.485,0,0,0,1.723-.436q6.743-4.546,13.513-9.052a2.233,2.233,0,0,1,2.972.023c.073.451-.293.614-.563.815-3.6,2.676-7.229,5.31-10.836,7.975-.38.28-.779.538-1.138.843a12.536,12.536,0,0,1-6.7,2.766c-6.2.825-12.393,1.692-18.568,2.678a10.2,10.2,0,0,1-6.278-.679c-.654-.316-1.357-.545-2.043-.8q-4.282-1.589-8.544-3.232c-.32-.123-.7-.182-.866-.556-.008-2-.029-4.007-.016-6.01,0-.74-.25-1.229-1.013-1.375A3.728,3.728,0,0,1,4510.47,1292.525Z" transform="translate(-77.371 -247.917)" fill="#f9dfc0"/>
    <path id="Trazado_188517" data-name="Trazado 188517" d="M4519,1325.55c4.394,1.679,8.783,3.37,13.185,5.029a6.556,6.556,0,0,0,3.468.173c2.146-.361,4.307-.64,6.461-.951q3.267-.473,6.534-.942c2.062-.3,4.116-.705,6.189-.869a13.938,13.938,0,0,0,7.558-3.108c3.8-2.919,7.7-5.7,11.563-8.54a1.728,1.728,0,0,0,.581-.6,2.218,2.218,0,0,1-.026,3.5c-1.948,1.787-3.925,3.543-5.89,5.311-2.439,2.195-4.91,4.355-7.307,6.594a10.278,10.278,0,0,1-5.89,2.625c-5.443.74-10.877,1.553-16.314,2.337-1.424.205-2.845.427-4.271.612a5.074,5.074,0,0,1-2.5-.278q-6.4-2.442-12.81-4.849a.711.711,0,0,1-.56-.806C4519,1329.043,4518.989,1327.3,4519,1325.55Z" transform="translate(-84.869 -270.904)" fill="#eecfae"/>
    <path id="Trazado_188518" data-name="Trazado 188518" d="M4447.561,1260.036v2.654c-.887.185-1.118.469-1.119,1.407q0,7.133,0,14.267c0,.942-.005.952-.938.948-1.624-.006-3.248-.02-4.871-.031a3.785,3.785,0,0,1-.2-1.9c.181-.3.461-.149.7-.14a3.661,3.661,0,0,0,3.7-2.852,3.533,3.533,0,0,0-3.289-4.269c-.376-.022-.827.123-1.059-.356a4.181,4.181,0,0,1-.081-1.195q0-7.77,0-15.54c0-.212,0-.424,0-.636-.016-.869-.065-.921-.923-.932-.565-.008-1.13.008-1.7-.007a1.074,1.074,0,0,1-.857-.233c.205-.173.451-.1.679-.1q3.959,0,7.917.01c.855,0,.917.066.917.93,0,2.215,0,4.43,0,6.645C4446.445,1259.569,4446.7,1259.864,4447.561,1260.036Z" transform="translate(-14.461 -215.428)" fill="#fc502d"/>
    <path id="Trazado_188519" data-name="Trazado 188519" d="M4438.752,1278.04a5.686,5.686,0,0,1,.146,1.952c-1.131.011-2.263.018-3.394.036-.43.007-.6-.2-.573-.612.007-.117,0-.236,0-.354q0-13.129.006-26.257c0-.3-.159-.681.256-.874.989.006,1.98.047,2.967.005.593-.025.751.168.749.753-.021,5.04-.012,10.081-.012,15.121v2.826c-.1.3-.383.319-.61.429a3.4,3.4,0,0,0-2.187,2.965,3.546,3.546,0,0,0,2.024,3.588C4438.347,1277.74,4438.632,1277.766,4438.752,1278.04Z" transform="translate(-12.728 -216.139)" fill="#c94024"/>
    <path id="Trazado_188520" data-name="Trazado 188520" d="M4564.242,1051.373a28.8,28.8,0,0,1-9.649-9.086,36.951,36.951,0,0,1-5.938-16.245.808.808,0,0,1,.558-.968,11.144,11.144,0,0,0,6.456-8.788c.079-.524.258-.673.787-.667,2.454.028,4.909.006,7.363,0,2.513-.1,5.027-.017,7.54-.049a.481.481,0,0,1,.505.4,2.7,2.7,0,0,1,.181,1.242c-.179.389-.545.3-.861.327-3.606.265-7.219.1-10.828.145-.472.006-.945.011-1.417,0a1.712,1.712,0,0,0-1.782,1.231c-.248.663-.483,1.328-.794,1.968a12.65,12.65,0,0,1-4.409,4.978,1.926,1.926,0,0,0-.905,2.354c.207.749.329,1.522.5,2.283a1.368,1.368,0,0,0,1.383,1.253,12.841,12.841,0,0,1,.851,2.516.988.988,0,0,1-.279.559,1.033,1.033,0,0,0-.11,1.133,30.188,30.188,0,0,0,5.425,8.478,28.513,28.513,0,0,0,6.51,5.284,1.125,1.125,0,0,1,.564.513A1.789,1.789,0,0,1,4564.242,1051.373Z" transform="translate(-110.341 -13.278)" fill="#07154d"/>
    <path id="Trazado_188521" data-name="Trazado 188521" d="M4663.843,1016.888c-.271-1.707-.271-1.7-1.983-1.7-2.045,0-4.09-.018-6.135-.028,2.26-.148,4.524-.069,6.786-.1,2.076-.028,4.153,0,6.229-.03.446-.006.655.072.731.568a11.161,11.161,0,0,0,6.672,8.855.694.694,0,0,1,.474.819c-1.527,11.719-6.62,21.119-17.41,26.831a.844.844,0,0,1-.912.014,23.646,23.646,0,0,1-2.148-1.205,3.389,3.389,0,0,0,1.6-1.136c.16-.12.317-.033.471.011a1.831,1.831,0,0,0,1.49-.23,28.32,28.32,0,0,0,11.088-11.7c.386-.756.767-1.514,1.116-2.289a1.189,1.189,0,0,0-.236-1.592.358.358,0,0,1-.107-.255,8.858,8.858,0,0,1,.881-2.438,1.859,1.859,0,0,0,1.416-1.727c.111-.72.249-1.441.427-2.148a1.8,1.8,0,0,0-.911-2.154,13.848,13.848,0,0,1-2.527-2.142,13.109,13.109,0,0,1-2.753-4.567,1.9,1.9,0,0,0-2.039-1.487A5.309,5.309,0,0,1,4663.843,1016.888Z" transform="translate(-202.246 -12.813)" fill="#0d2380"/>
    <path id="Trazado_188522" data-name="Trazado 188522" d="M4444.681,1391.177a3.761,3.761,0,0,1-2.857-3.363,3.7,3.7,0,0,1,2.089-3.68c.293-.143.608-.241.913-.36a3.942,3.942,0,0,1,3.615,1.333,3.736,3.736,0,0,1,.39,4.227A3.793,3.793,0,0,1,4444.681,1391.177Z" transform="translate(-18.657 -329.276)"/>
    <path id="Trazado_188523" data-name="Trazado 188523" d="M4579,1057.6a15.5,15.5,0,0,1-.77-2.52,2.4,2.4,0,0,0,.191-2.333c-.494-1.87-.463-1.863,1.026-3.142a14.339,14.339,0,0,0,4.368-6.079,1.177,1.177,0,0,1,1.294-.911c2.642.03,5.285.011,7.927.013a2.394,2.394,0,0,1,.7.065.971.971,0,0,1,.523.629,13.5,13.5,0,0,0,3.875,5.206c.245.2.544.406.439.811a5.214,5.214,0,0,0-1.447,1.615c-1.731,2.619-3.421,5.265-5.186,7.862-.535.787-.713.809-1.407.135-.9-.871-1.749-1.788-2.723-2.579-.529-.43-.956-.5-1.324-.168a.925.925,0,0,0,.091,1.388c1.479,1.353,2.828,2.845,4.386,4.113a.814.814,0,0,0,1.154-.063,3.966,3.966,0,0,0,.6-.788q3.188-4.769,6.342-9.56a4.537,4.537,0,0,0,.522-1.3c.321-.239.414.025.484.244a1.844,1.844,0,0,1,0,.909,32.876,32.876,0,0,1-6.834,15.234,21.38,21.38,0,0,1-3.164,3.215,1.041,1.041,0,0,1-.555.285,1.108,1.108,0,0,1-.745-.352,27.125,27.125,0,0,1-8.217-10.609A1.94,1.94,0,0,0,4579,1057.6Z" transform="translate(-135.659 -36.492)" fill="#e0dfdd"/>
    <path id="Trazado_188524" data-name="Trazado 188524" d="M4581.067,1030.4c-3.067,0-6.134.013-9.2.008a.447.447,0,0,0-.491.37,14.748,14.748,0,0,1-5.6,7.356.588.588,0,0,0-.262.716c.185.779.345,1.564.548,2.339a1.162,1.162,0,0,1-.6,1.486c-.835.093-1.256-.154-1.453-.957q-.405-1.644-.721-3.31a1.517,1.517,0,0,1,.734-1.638,13.106,13.106,0,0,0,5.577-7.313,1.617,1.617,0,0,1,1.8-1.167q5.977-.041,11.954-.079c.376,0,.752-.031,1.128-.048.847.008,1.694.01,2.542.024a1.69,1.69,0,0,1,1.8,1.29,12.808,12.808,0,0,0,5.492,7.032,1.674,1.674,0,0,1,.831,1.923c-.22,1.011-.4,2.032-.623,3.042-.189.846-.493,1.065-1.384,1.09-.694-.143-.951-.482-.9-1.246a11.6,11.6,0,0,1,.433-2.146,1.121,1.121,0,0,0-.536-1.368,14.137,14.137,0,0,1-5.131-6.6,1,1,0,0,0-1.109-.743,33.913,33.913,0,0,0-3.882.125A1.064,1.064,0,0,1,4581.067,1030.4Z" transform="translate(-122.876 -24.091)"/>
    <path id="Trazado_188525" data-name="Trazado 188525" d="M4580.508,1146.61c.946-.09,1.143.022,1.555.949a27.275,27.275,0,0,0,8.458,10.945c.129.1.272.177.41.264a7.939,7.939,0,0,1,1.945,1.131,1.223,1.223,0,0,0,1.486.011,25.63,25.63,0,0,0,7.205-6.684,26.682,26.682,0,0,0,3.156-5.5,4.083,4.083,0,0,1,.5-.931.942.942,0,0,1,1.315-.327c.724.513.857.863.545,1.6a28.967,28.967,0,0,1-12.293,14.269,2,2,0,0,1-2.129.122,29.075,29.075,0,0,1-8.006-6.634,31.954,31.954,0,0,1-4.61-7.572A1.188,1.188,0,0,1,4580.508,1146.61Z" transform="translate(-137.163 -125.502)"/>
    <path id="Trazado_188526" data-name="Trazado 188526" d="M4673.375,1058.03c-.894-.057-1.126.091-1.523,1.022a26.9,26.9,0,0,1-8.415,11.07c-.8.614-1.672,1.142-2.5,1.721a.7.7,0,0,1-.9.023,19.557,19.557,0,0,1-2.274-1.535,9.6,9.6,0,0,0,2.491-2.134,30.827,30.827,0,0,0,3.874-5.172,35.169,35.169,0,0,0,4.014-10.921,3.579,3.579,0,0,0,.131-1.253c-.023-.142-.031-.376-.291-.194a7.589,7.589,0,0,1-1.118-.765.756.756,0,0,0-.381-.564,13.906,13.906,0,0,1-4.3-5.95c1.81-.029,3.621-.051,5.43-.095.306-.007.408.147.494.382a14.691,14.691,0,0,0,5.724,7.314c.316.214.282.449.222.727-.158.735-.309,1.471-.492,2.2a1.241,1.241,0,0,0,.686,1.635A15.982,15.982,0,0,1,4673.375,1058.03Z" transform="translate(-203.998 -37.065)" fill="#d5d5d5"/>
    <path id="Trazado_188527" data-name="Trazado 188527" d="M4456.777,1400.461a1.59,1.59,0,0,1,1.6-1.618,1.626,1.626,0,0,1,1.652,1.582,1.67,1.67,0,0,1-1.652,1.671A1.628,1.628,0,0,1,4456.777,1400.461Z" transform="translate(-31.498 -342.227)" fill="#ececec"/>
    <path id="Trazado_188528" data-name="Trazado 188528" d="M4646.136,1089.908a1.274,1.274,0,0,1,1.118.765,1.6,1.6,0,0,1-.312,1.127q-3.4,5.12-6.795,10.245c-.556.836-1.2.9-1.936.205q-2.063-1.938-4.1-3.9c-.589-.563-.651-1.2-.189-1.668s1.041-.432,1.623.112c1,.934,2,1.868,2.972,2.83.338.335.493.317.757-.087,1.936-2.955,3.9-5.892,5.844-8.842A1.486,1.486,0,0,1,4646.136,1089.908Z" transform="translate(-183.269 -77.081)"/>
  </g>
</svg>
