<svg xmlns="http://www.w3.org/2000/svg" width="84.169" height="84.178" viewBox="0 0 84.169 84.178">
  <g id="Grupo_132648" data-name="Grupo 132648" transform="translate(-656.086 -227.359)">
    <path id="Trazado_188299" data-name="Trazado 188299" d="M656.086,374.551a1.838,1.838,0,0,1,1.809-.832c8.628.017,17.255,0,25.883.027.675,0,.857-.143.849-.837q-.044-4.107.044-8.214a6,6,0,0,1,5.87-5.728c5.093-.074,10.19-.107,15.281.013,3.51.082,5.861,2.784,5.906,6.475.03,2.465.032,4.931-.011,7.4-.012.687.117.9.869.9,8.573-.033,17.145-.021,25.718-.021,1.642,0,1.951.313,1.951,1.973q0,17.955,0,35.911c0,1.58-.329,1.9-1.939,1.9q-6.779,0-13.558,0c-1.379,0-1.764-.381-1.764-1.748q0-15.7,0-31.391c0-1.177.205-1.446,1.3-1.749a1.219,1.219,0,0,1,1.381,1.241,18.552,18.552,0,0,1,.042,2.215c.011,1.232.022,1.249,1.224,1.254,2.408.011,4.817-.02,7.224.015.845-.033,1.691-.023,2.535-.009.579.009.845-.2.84-.809-.014-1.745-.019-3.491,0-5.237.008-.648-.278-.863-.886-.852-.845.015-1.691.022-2.536-.007-2.992.05-5.983.017-8.975.018a1.381,1.381,0,0,1-.853-.223q-6.038-.019-12.075-.033c-.165,0-.447-.107-.458.18a17.669,17.669,0,0,0,.015,2.133c.023.269.369.14.564.142,1.451.012,2.9,0,4.355.008.984,0,1.485.352,1.572,1.074.09.744-.249,1.169-1.256,1.372-.509.1-.33.43-.331.679-.013,2.41-.007,4.821-.008,7.231,0,1.665-.306,1.973-1.951,1.974-.794,0-1.589.023-2.382-.009-.442-.018-.606.081-.612.572-.02,1.627-.325,1.9-1.925,1.9-.548,0-1.1.033-1.643-.01-.456-.036-.537.151-.535.558q.021,4.561,0,9.121c0,.45.149.551.561.533.684-.03,1.369-.013,2.054-.007a3.714,3.714,0,0,1,3.965,3.789,8.819,8.819,0,0,1,0,.9c-.016.33.094.4.433.359,2.211-.279,3.87.736,4.371,2.643.516,1.962-.489,3.657-2.669,4.51-.037.014-.053.082-.078.125H714.61a3.544,3.544,0,0,1-3.067-3.423,37.086,37.086,0,0,1-.127-4.667c-.03-1.219-.29-1.523-1.491-1.53-3.089-.018-6.178-.012-9.267,0-.846,0-.888.092-.942.956a1.926,1.926,0,0,0,.884,1.94,3.576,3.576,0,0,1,1.323,4.028,3.326,3.326,0,0,1-2.93,2.7h-1.644A3.336,3.336,0,0,1,694.4,413.2a3.737,3.737,0,0,1,1.589-4.166,2.294,2.294,0,0,0,.555-2.37c-.209-.416-.608-.3-.943-.306-2.569-.012-5.139-.006-7.709-.006-.547,0-1.094-.018-1.64.008-1.005.049-1.291.355-1.324,1.364a41.389,41.389,0,0,1-.131,4.831,3.543,3.543,0,0,1-3.066,3.424h-1.644a3.644,3.644,0,0,1-3.02-4.336,3.88,3.88,0,0,1,3.918-3.28c.6,0,.862-.185.886-.77a7.9,7.9,0,0,1,.116-.813,3.915,3.915,0,0,1,3.7-3.365c.629-.033,1.26-.016,1.89-.012.531,0,.817-.192.816-.766q0-4.109,0-8.218c0-.531-.258-.731-.762-.719-.438.01-.877.01-1.315,0-1.234-.042-1.721-.391-1.931-1.577-.122-.684-.423-.93-1.091-.892s-1.315.027-1.972,0a1.706,1.706,0,0,1-1.911-1.715,7.188,7.188,0,0,1-.056-1.148c0-1.973-.01-3.945.006-5.917a1.191,1.191,0,0,0-.719-1.318,1.256,1.256,0,0,1-.724-1.429A1.334,1.334,0,0,1,679,378.513a3.473,3.473,0,0,1,.978-.1c1.068,0,2.137,0,3.205,0,1-.008,1.088-.1,1.094-.979.007-.9-.08-.992-1.064-.993q-5.1-.008-10.19,0-.452,0-.9-.007c-1.616.036-3.232.033-4.847,0-2.433.04-4.866,0-7.3.019-1.12.006-1.158.043-1.162,1.145q-.007,2.3,0,4.593c0,1.1.038,1.13,1.167,1.137,2.405.016,4.811-.028,7.216.021.82-.022,1.642,0,2.462-.01.9-.013.957-.07.972-1,.012-.766-.035-1.534.024-2.3a1.52,1.52,0,0,1,1.624-1.577,1.57,1.57,0,0,1,1.318,1.638c.025.328.015.656.015.985q0,14.981,0,29.962c0,.109,0,.219,0,.328-.011,1.918-.474,2.394-2.366,2.4q-6.648.006-13.3,0c-.831,0-1.613-.084-1.862-1.085Z" transform="translate(0 -104.444)"/>
    <path id="Trazado_188300" data-name="Trazado 188300" d="M798.646,227.364q7.105,0,14.211,0c1.372,0,1.765.381,1.767,1.744q.007,7.517,0,15.034c0,1.335-.38,1.709-1.714,1.716-1.78.008-3.56.015-5.339-.006a.841.841,0,0,0-.959.626,8.571,8.571,0,0,1-16.041-.013.8.8,0,0,0-.882-.616c-1.779.03-3.56.016-5.339.01-1.4,0-1.778-.365-1.779-1.733q-.008-7.517,0-15.034c0-1.356.394-1.727,1.783-1.727Q791.5,227.362,798.646,227.364Z" transform="translate(-100.426 -0.003)"/>
    <path id="Trazado_188301" data-name="Trazado 188301" d="M959.505,227.361q3.822,0,7.644,0c1.26,0,1.667.412,1.667,1.68q0,7.563,0,15.125c0,1.266-.4,1.686-1.659,1.687q-7.685.012-15.37,0c-1.222,0-1.624-.408-1.626-1.638q-.013-7.6,0-15.207c0-1.254.421-1.645,1.7-1.646Q955.683,227.357,959.505,227.361Z" transform="translate(-233.495 -0.001)"/>
    <path id="Trazado_188302" data-name="Trazado 188302" d="M959.47,347.61q-3.781,0-7.562,0c-1.34,0-1.743-.378-1.745-1.684q-.011-7.563,0-15.125c0-1.282.4-1.682,1.664-1.684q7.685-.011,15.37,0c1.21,0,1.621.432,1.622,1.641q.006,7.6,0,15.207c0,1.215-.421,1.64-1.622,1.643C964.621,347.614,962.046,347.61,959.47,347.61Z" transform="translate(-233.496 -80.792)"/>
    <path id="Trazado_188303" data-name="Trazado 188303" d="M689.392,227.36q3.822,0,7.644,0c1.211,0,1.64.411,1.643,1.62q.014,7.645,0,15.289c0,1.168-.421,1.579-1.6,1.581q-7.726.015-15.452,0c-1.2,0-1.6-.435-1.6-1.661q0-7.6,0-15.207c0-1.2.427-1.621,1.641-1.623Q685.529,227.354,689.392,227.36Z" transform="translate(-19.005)"/>
    <path id="Trazado_188304" data-name="Trazado 188304" d="M689.282,347.61q-3.781,0-7.562,0c-1.276,0-1.695-.406-1.7-1.652q-.005-7.6,0-15.207c0-1.2.415-1.631,1.63-1.633q7.685-.013,15.37,0c1.265,0,1.654.4,1.655,1.693q.009,7.562,0,15.125c0,1.271-.414,1.672-1.672,1.674Q693.145,347.615,689.282,347.61Z" transform="translate(-19.006 -80.792)"/>
    <path id="Trazado_188305" data-name="Trazado 188305" d="M997.063,450.356c-2.727.011-5.454.012-8.181.042-.458.005-.541-.171-.531-.573.024-.9-.021-1.8.016-2.7a1.47,1.47,0,0,0-1.176-1.7q0-1.2,0-2.4l9.875-.005a1.158,1.158,0,0,1,.266.917q.018,2.749,0,5.5A1.158,1.158,0,0,1,997.063,450.356Z" transform="translate(-262.899 -171.24)" fill="#a0a0a0"/>
    <path id="Trazado_188306" data-name="Trazado 188306" d="M825.127,400.613q-8.909.012-17.817.034c-.521,0-.639-.192-.638-.672.013-8.431,0-16.862.024-25.292a3.549,3.549,0,0,1,3.574-3.625c4.406-.027,8.812,0,13.219.007a2.175,2.175,0,0,1,1.207,1.165,6.187,6.187,0,0,1,.7,2.84q0,12.188,0,24.376A1.518,1.518,0,0,1,825.127,400.613Z" transform="translate(-119.568 -114.089)" fill="#636363"/>
    <path id="Trazado_188307" data-name="Trazado 188307" d="M676.572,553.712c-2.683.008-5.366.009-8.048.033-.394,0-.506-.112-.505-.506q.019-7.065,0-14.13c0-.394.111-.509.505-.506,2.683.024,5.365.025,8.048.033a1.406,1.406,0,0,1,.266,1.086q.011,6.452,0,12.9A1.406,1.406,0,0,1,676.572,553.712Z" transform="translate(-9.474 -247.131)" fill="#d1d1d1"/>
    <path id="Trazado_188308" data-name="Trazado 188308" d="M1001.386,553.712c-2.683.008-5.366.009-8.048.033-.395,0-.507-.112-.506-.506q.019-7.065,0-14.13c0-.393.111-.509.506-.506,2.683.024,5.365.025,8.048.033a1.406,1.406,0,0,1,.266,1.086q.011,6.452,0,12.9A1.407,1.407,0,0,1,1001.386,553.712Z" transform="translate(-267.38 -247.131)" fill="#d1d1d1"/>
    <path id="Trazado_188309" data-name="Trazado 188309" d="M889.95,400.554c0-8.639.018-17.277,0-25.916a4.993,4.993,0,0,0-1.634-3.632,8.733,8.733,0,0,1,2.689.141,3.523,3.523,0,0,1,2.592,3.317c.267,5.855.056,11.714.114,17.571.026,2.6-.01,5.2.016,7.8.006.564-.146.779-.735.751C891.977,400.541,890.962,400.562,889.95,400.554Z" transform="translate(-184.39 -114.031)" fill="#4a4a4a"/>
    <path id="Trazado_188310" data-name="Trazado 188310" d="M676.731,498.091c-2.735.011-5.471.014-8.206.039-.391,0-.512-.11-.509-.506q.026-3.2,0-6.4c0-.4.117-.509.509-.505,2.735.025,5.47.029,8.205.039a1.163,1.163,0,0,1,.265.918q.018,2.749,0,5.5A1.163,1.163,0,0,1,676.731,498.091Z" transform="translate(-9.473 -209.109)" fill="#bfbfbf"/>
    <path id="Trazado_188311" data-name="Trazado 188311" d="M1001.546,498.091c-2.735.011-5.471.014-8.206.039-.392,0-.512-.11-.509-.506q.026-3.2,0-6.4c0-.4.117-.509.509-.505,2.735.025,5.47.029,8.206.039a1.164,1.164,0,0,1,.264.918q.018,2.749,0,5.5A1.163,1.163,0,0,1,1001.546,498.091Z" transform="translate(-267.38 -209.109)" fill="#bfbfbf"/>
    <path id="Trazado_188312" data-name="Trazado 188312" d="M676.732,450.2c-2.733.011-5.466.015-8.2.04-.389,0-.517-.112-.513-.507q.025-3.2,0-6.4c0-.4.125-.511.513-.508,2.733.024,5.466.029,8.2.04a1.158,1.158,0,0,1,.266.917q.019,2.749,0,5.5A1.157,1.157,0,0,1,676.732,450.2Z" transform="translate(-9.476 -171.087)" fill="#a0a0a0"/>
    <path id="Trazado_188313" data-name="Trazado 188313" d="M1034.357,553.711q0-7.538,0-15.076c1.095-.008,2.189,0,3.283-.033.394-.011.509.112.508.506q-.019,7.064,0,14.128c0,.394-.115.517-.508.506C1036.547,553.713,1035.452,553.719,1034.357,553.711Z" transform="translate(-300.352 -247.13)" fill="#bfbfbf"/>
    <path id="Trazado_188314" data-name="Trazado 188314" d="M709.543,553.711V538.635c1.095-.008,2.189,0,3.283-.033.394-.011.509.112.508.507q-.018,7.064,0,14.128c0,.394-.115.517-.508.506C711.732,553.713,710.638,553.719,709.543,553.711Z" transform="translate(-42.446 -247.13)" fill="#bfbfbf"/>
    <path id="Trazado_188315" data-name="Trazado 188315" d="M877.912,531.32c0-1.476.017-2.952-.01-4.427-.008-.46.116-.622.591-.6.871.047,2.022-.3,2.542.139.538.45.151,1.643.159,2.51.02,2.3-.009,4.591.019,6.887.006.528-.122.719-.675.68-.843-.059-1.957.283-2.463-.139-.525-.437-.134-1.591-.158-2.431C877.893,533.07,877.912,532.195,877.912,531.32Z" transform="translate(-176.044 -237.294)" fill="#fff"/>
    <path id="Trazado_188316" data-name="Trazado 188316" d="M829.294,531.514c0,1.476-.017,2.952.01,4.427.009.462-.119.62-.592.595-.871-.047-2.023.3-2.542-.139-.538-.451-.15-1.644-.158-2.511-.02-2.3.009-4.591-.019-6.887-.006-.53.126-.717.676-.679.843.058,1.958-.283,2.463.139.523.437.133,1.592.157,2.432C829.313,529.764,829.294,530.639,829.294,531.514Z" transform="translate(-134.822 -237.318)" fill="#fff"/>
    <path id="Trazado_188317" data-name="Trazado 188317" d="M710.315,450.272v-7.333l4.949-.022a10.008,10.008,0,0,0-.008,2.454c-1.008.194-1.3.53-1.314,1.542-.011.958-.017,1.918,0,2.876.008.386-.112.533-.511.522C712.4,450.28,711.355,450.283,710.315,450.272Z" transform="translate(-43.058 -171.156)" fill="#828282"/>
    <path id="Trazado_188318" data-name="Trazado 188318" d="M856.789,531.7c0,1.506-.015,3.012.009,4.518.008.464-.139.6-.6.6-1.893.036-1.893.054-1.893-1.853,0-2.546.017-5.093-.013-7.639-.007-.576.158-.735.732-.73,1.769.017,1.77-.008,1.77,1.732Q856.79,530.013,856.789,531.7Z" transform="translate(-157.375 -237.599)" fill="#fff"/>
    <path id="Trazado_188319" data-name="Trazado 188319" d="M710.322,498.091q0-3.667,0-7.335c1.039-.01,2.077-.008,3.115-.039.387-.012.519.108.516.506q-.025,3.2,0,6.4c0,.4-.128.517-.516.506C712.4,498.1,711.361,498.1,710.322,498.091Z" transform="translate(-43.064 -209.11)" fill="#a0a0a0"/>
    <path id="Trazado_188320" data-name="Trazado 188320" d="M1035.129,450.205v-7.333c1.037-.011,2.074-.009,3.111-.039.385-.011.523.113.521.509q-.023,3.2,0,6.391c0,.4-.135.52-.521.509C1037.2,450.215,1036.166,450.216,1035.129,450.205Z" transform="translate(-300.965 -171.089)" fill="#818181"/>
    <path id="Trazado_188321" data-name="Trazado 188321" d="M1035.137,498.091v-7.335c1.038-.01,2.077-.008,3.115-.039.387-.012.519.108.516.506q-.025,3.2,0,6.4c0,.4-.128.517-.516.506C1037.214,498.1,1036.175,498.1,1035.137,498.091Z" transform="translate(-300.971 -209.11)" fill="#a0a0a0"/>
    <path id="Trazado_188322" data-name="Trazado 188322" d="M928.658,470.506c0,1.038-.015,2.076.007,3.113.008.382-.091.506-.5.524-1.979.087-1.979.1-1.979-1.9,0-1.638.014-3.277-.009-4.915-.006-.448.1-.6.582-.607,1.9-.025,1.9-.045,1.9,1.823Z" transform="translate(-214.458 -190.049)" fill="#fff"/>
    <path id="Trazado_188323" data-name="Trazado 188323" d="M782.541,470.354c0-1.065.015-2.13-.008-3.195-.008-.387.1-.5.5-.52,1.975-.085,1.975-.1,1.975,1.825,0,1.666-.015,3.332.01,5,.007.454-.109.6-.586.6-1.893.025-1.893.044-1.893-1.826Z" transform="translate(-100.4 -189.969)" fill="#fff"/>
    <path id="Trazado_188324" data-name="Trazado 188324" d="M773.226,613.351a1.2,1.2,0,0,1-1.16,1.223,1.174,1.174,0,0,1-1.2-1.259,1.182,1.182,0,1,1,2.363.037Z" transform="translate(-91.134 -305.514)" fill="#626262"/>
    <path id="Trazado_188325" data-name="Trazado 188325" d="M857.024,613.359a1.2,1.2,0,0,1-1.17,1.213,1.172,1.172,0,0,1-1.192-1.269,1.181,1.181,0,1,1,2.362.057Z" transform="translate(-157.671 -305.513)" fill="#626262"/>
    <path id="Trazado_188326" data-name="Trazado 188326" d="M940.849,613.358a1.171,1.171,0,1,1-1.143-1.229A1.18,1.18,0,0,1,940.849,613.358Z" transform="translate(-224.246 -305.512)" fill="#494949"/>
    <path id="Trazado_188327" data-name="Trazado 188327" d="M817.96,252.8c-1.208.128-1.208.128-1.319-1.025-.551-5.724-7.293-9.342-12.349-6.632a8.448,8.448,0,0,0-4.779,7.149c-.038.488-.245.577-.671.57-1.232-.02-2.465-.032-3.7,0-.533.016-.628-.2-.626-.672q.022-6.161,0-12.322c0-.366.007-.594.509-.592q11.457.04,22.914.039a1.39,1.39,0,0,1,.268,1.081q.012,5.653,0,11.307A1.617,1.617,0,0,1,817.96,252.8Z" transform="translate(-109.919 -9.463)" fill="#dadeec"/>
    <path id="Trazado_188328" data-name="Trazado 188328" d="M838.228,287.553a6.113,6.113,0,0,1-6.6-2.541,6.247,6.247,0,0,1,0-6.811,6.113,6.113,0,0,1,6.6-2.541,2.981,2.981,0,0,1,.815,1.92,19.392,19.392,0,0,1-.165,8.774A2.141,2.141,0,0,1,838.228,287.553Z" transform="translate(-138.581 -38.216)" fill="#fee5df"/>
    <path id="Trazado_188329" data-name="Trazado 188329" d="M908.263,252.813q-.006-6.74-.012-13.48c1.067-.009,2.135,0,3.2-.034.411-.012.5.152.5.527q-.015,6.243,0,12.486c0,.355-.067.569-.491.555C910.395,252.834,909.329,252.829,908.263,252.813Z" transform="translate(-200.222 -9.479)" fill="#aab2d3"/>
    <path id="Trazado_188330" data-name="Trazado 188330" d="M867.556,288.208a17.892,17.892,0,0,0,0-11.894,6.125,6.125,0,0,1,0,11.894Z" transform="translate(-167.91 -38.871)" fill="#fec2b5"/>
    <path id="Trazado_188331" data-name="Trazado 188331" d="M962.2,252.749a1.2,1.2,0,0,1-.088-.72c0-4,.009-8-.016-11.992,0-.585.1-.794.749-.784,3.12.049,6.24.039,9.36.05a1.357,1.357,0,0,1,.273,1.077q.012,5.647,0,11.294a1.568,1.568,0,0,1-.257,1.09l0,0a9.183,9.183,0,0,1-2.032.064c-2.4.014-4.8.008-7.195,0A1.461,1.461,0,0,1,962.2,252.749Z" transform="translate(-242.979 -9.444)" fill="#dadeec"/>
    <path id="Trazado_188332" data-name="Trazado 188332" d="M1011.195,252.8l-.018-13.46c1.037-.011,2.074-.01,3.111-.039.378-.011.524.092.523.5q-.019,6.269,0,12.538c0,.381-.109.539-.508.525C1013.266,252.83,1012.23,252.823,1011.195,252.8Z" transform="translate(-281.947 -9.485)" fill="#aab2d3"/>
    <path id="Trazado_188333" data-name="Trazado 188333" d="M962.6,304.772l10.026.013A86.407,86.407,0,0,1,962.6,304.772Z" transform="translate(-243.378 -61.467)" fill="#31c1b1"/>
    <path id="Trazado_188334" data-name="Trazado 188334" d="M972.239,354.609q-4.8.017-9.607.038c-.326,0-.5-.058-.495-.442.015-4.3.016-8.6.024-12.9,0-.048.047-.1.072-.145a1.044,1.044,0,0,1,.636-.08q4.374-.006,8.748,0a1.263,1.263,0,0,1,.642.068h0a1.569,1.569,0,0,1,.257,1.09q.007,5.647,0,11.293A1.358,1.358,0,0,1,972.239,354.609Z" transform="translate(-243.008 -90.29)" fill="#dadeec"/>
    <path id="Trazado_188335" data-name="Trazado 188335" d="M1011.178,354.643l.018-13.46c1.008-.019,2.017-.019,3.024-.066.476-.022.6.158.593.61-.021,1.912-.008,3.824-.008,5.737,0,2.158-.027,4.316.017,6.474.013.636-.182.787-.779.751C1013.09,354.631,1012.133,354.654,1011.178,354.643Z" transform="translate(-281.947 -90.324)" fill="#aab2d3"/>
    <path id="Trazado_188336" data-name="Trazado 188336" d="M972.629,341.011l-10.026.013c.115-.165.291-.122.448-.122q4.557,0,9.114,0A2.133,2.133,0,0,1,972.629,341.011Z" transform="translate(-243.378 -90.151)" fill="#31c1b1"/>
    <path id="Trazado_188337" data-name="Trazado 188337" d="M692.042,252.773c-.021-.679-.058-1.359-.059-2.038-.006-3.606,0-7.211-.007-10.817,0-.383-.027-.653.527-.647,3.167.037,6.335.032,9.5.041a1.4,1.4,0,0,1,.266,1.085q.012,5.628,0,11.256c0,1.142-.07,1.193-1.207,1.193q-4.108,0-8.215,0A1.678,1.678,0,0,1,692.042,252.773Z" transform="translate(-28.496 -9.459)" fill="#dadeec"/>
    <path id="Trazado_188338" data-name="Trazado 188338" d="M692.3,252.793c3.04-.007,6.081-.036,9.12-.005.7.007.865-.212.86-.882-.03-4.191-.016-8.383-.017-12.575,1.068-.009,2.136,0,3.2-.035.4-.012.51.134.51.519q-.016,6.246,0,12.492c0,.339-.029.572-.472.571-4.355-.009-8.71,0-13.065-.005C692.388,252.872,692.343,252.82,692.3,252.793Z" transform="translate(-28.753 -9.478)" fill="#aab2d3"/>
    <path id="Trazado_188339" data-name="Trazado 188339" d="M701.994,354.616q-4.766.013-9.531.03c-.3,0-.5-.007-.5-.418.016-4.329.014-8.657.021-12.986,0-.045.059-.09.09-.135,3.141-.06,6.283,0,9.424-.034a.629.629,0,0,1,.74.656c.015.163.025.327.025.491q.007,5.656,0,11.312A1.4,1.4,0,0,1,701.994,354.616Z" transform="translate(-28.484 -90.291)" fill="#dadeec"/>
    <path id="Trazado_188340" data-name="Trazado 188340" d="M702.418,354.58c0-4.217-.014-8.434.018-12.651,0-.666-.2-.821-.834-.813-2.738.032-5.476.015-8.214.011-.3,0-.6-.035-.894-.055q4.958-.022,9.913-.043c1.039,0,2.078.027,3.116,0,.464-.011.611.139.609.606q-.023,6.193,0,12.385c0,.465-.133.613-.6.6C704.495,354.577,703.456,354.589,702.418,354.58Z" transform="translate(-28.908 -90.255)" fill="#aab2d3"/>
    <path id="Trazado_188341" data-name="Trazado 188341" d="M1018.046,457.335a1.223,1.223,0,1,1,1.253-1.17A1.267,1.267,0,0,1,1018.046,457.335Z" transform="translate(-286.454 -180.662)" fill="#020202"/>
    <path id="Trazado_188342" data-name="Trazado 188342" d="M694.5,456.106a1.272,1.272,0,0,1-1.206,1.223,1.224,1.224,0,1,1,1.206-1.223Z" transform="translate(-28.554 -180.655)" fill="#020202"/>
  </g>
</svg>
