<svg xmlns="http://www.w3.org/2000/svg" width="69.973" height="70.081" viewBox="0 0 69.973 70.081">
  <g id="Grupo_132729" data-name="Grupo 132729" transform="translate(-3959.642 -677.87)">
    <path id="Trazado_188529" data-name="Trazado 188529" d="M3995.985,789c1.268-2.694,2.171-3.436,4.947-4.154-.954-3.459-.31-6.992-.475-10.484-.038-.8.467-1.217,1.306-1.227,1.087-.014,2.175,0,3.347,0,0-.439-.022-.823,0-1.2a1.055,1.055,0,0,1,1.044-1.108c1.963-.007,3.932-.009,5.888.128a4.469,4.469,0,0,1,3.059,1.678,1.5,1.5,0,0,0,1.332.51,4.643,4.643,0,0,1,4.745,3.237,5.2,5.2,0,0,1,.23,1.431c.029,1.533.062,3.069-.01,4.6a17.778,17.778,0,0,1-.455,2.455,5.945,5.945,0,0,1,4.905,4.15,14.719,14.719,0,0,0,1.25-4.359,16.153,16.153,0,0,0-.989-8.164c-.327-.842-.081-1.513.6-1.755s1.245.076,1.563.9a18.28,18.28,0,0,1-.042,13.807,18.613,18.613,0,0,1-31.418,5.208,1.3,1.3,0,0,0-1.112-.5q-7.9.021-15.81.008c-1.242,0-1.605-.363-1.606-1.6,0-1.772,0-3.544,0-5.361h-6.959v4.63c1.13,0,2.261-.015,3.392.005a1.155,1.155,0,0,1,1.229,1.166,1.178,1.178,0,0,1-1.239,1.161c-.169.009-.34,0-.51,0h-8.524c-1.53,0-3.06,0-4.59,0-1.042,0-1.449-.414-1.449-1.466q0-14.895,0-29.79c0-1.046.41-1.451,1.462-1.452q6.7-.006,13.406,0c.919,0,1.45.442,1.445,1.174s-.539,1.159-1.46,1.16q-5.829.005-11.657,0h-.825v27.981h6.954v-2.149c0-1.12-.005-2.239,0-3.359.006-1.04.414-1.441,1.47-1.444q3.5-.007,6.994,0h.821v-2.336c-1,0-2.008,0-3.016,0-1.243,0-1.605-.363-1.607-1.6,0-1.339-.008-2.677,0-4.016.007-.959.426-1.38,1.377-1.389,1.064-.01,2.129,0,3.238,0v-2.337c-1.061,0-2.1,0-3.136,0-1.084-.006-1.477-.406-1.481-1.509,0-1.363-.007-2.726,0-4.089.006-.995.423-1.4,1.431-1.409,1.042-.007,2.083,0,3.23,0v-.806q0-6.9,0-13.8a4.114,4.114,0,0,1,.019-.729,1.155,1.155,0,0,1,2.292.005,4.66,4.66,0,0,1,.02.8q0,19.641,0,39.282v.9h6.995v-.742q0-5.659,0-11.317c0-1.677.243-1.917,1.948-1.917.923,0,1.846-.016,2.768.008.4.01.615-.077.713-.511.134-.588.361-1.155.549-1.731-1.176-.387-1.315-.583-1.316-1.832,0-1.29-.007-2.58,0-3.87.007-.994.424-1.405,1.431-1.408,1.506,0,3.011.011,4.517,0a.982.982,0,0,0,.59-.172,18.811,18.811,0,0,1,12.111-4.523V762.9q0-8.616,0-17.231a6.13,6.13,0,0,1,.01-.657,1.157,1.157,0,0,1,1.161-1.083,1.131,1.131,0,0,1,1.143,1.1c.038.772.009,1.547.009,2.4h3.174c1.554,0,3.108,0,4.663,0,1.1,0,1.495.4,1.5,1.494q0,9.127-.01,18.253a1.453,1.453,0,0,0,.518,1.183c.847.8,1.646,1.651,2.417,2.523a1.148,1.148,0,0,1-.027,1.794c-.561.461-1.212.352-1.765-.332a16.3,16.3,0,0,0-28.83,7.153A16.56,16.56,0,0,0,3995.985,789Zm6.83-1.846c-.57,0-.958-.013-1.345,0a3.5,3.5,0,0,0-3.353,3.39,7.755,7.755,0,0,0,.01,1.385,2.283,2.283,0,0,0,.4,1.1,16.06,16.06,0,0,0,9.134,5.47c.426.094.864.131,1.3.195l.128-.219c-.3-.245-.592-.494-.894-.733a1.832,1.832,0,0,1-.652-2c.366-1.835.614-3.692.936-5.536a.759.759,0,0,0-.377-.879,2.3,2.3,0,0,1-.638-1.121,3.355,3.355,0,0,1-.02-1,3.409,3.409,0,0,0-3.49,3.324c-.03.924.012,1.85-.019,2.774a1.125,1.125,0,0,1-1.157,1.154,1.092,1.092,0,0,1-1.146-1.082C4001.622,791.279,4001.287,789.116,4002.815,787.155Zm4.622-9.317c0,1.126,0,2.169,0,3.211,0,.17,0,.34.009.51a3.534,3.534,0,0,0,3.111,3.24,3.334,3.334,0,0,0,3.687-2.506,34.537,34.537,0,0,0,.247-4.454Zm5.413,20.867a14.943,14.943,0,0,0,4.775-1.35.659.659,0,0,0,.291-.5c.016-2.162.062-4.326-.014-6.485a3.341,3.341,0,0,0-3.441-3.16,3.189,3.189,0,0,0-.027.422c.051.794-.026,1.508-.9,1.878-.108.046-.168.369-.141.547.216,1.415.482,2.823.688,4.239.443,3.03.785,2.213-1.157,4.217A1.161,1.161,0,0,0,4012.85,798.7ZM3990,780.173v11.589h4.762a18.474,18.474,0,0,1-2.337-11.589Zm29.144,7.056a6.69,6.69,0,0,1,1.125,4.141c-.044,1.458-.01,2.918-.01,4.377l.2.062c.737-.664,1.46-1.343,2.213-1.987a3.159,3.159,0,0,0,1.117-2.742C4023.695,788.33,4021.991,786.828,4019.145,787.229ZM4013.3,749.8v2.263h6.906V749.8Zm6.9,6.949V754.5h-6.9v2.247Zm.008,4.691v-2.273h-6.891v2.273Zm-12.744,13.989h6.747a3.356,3.356,0,0,0-2.805-2.235c-1.293-.119-2.6-.026-3.942-.026Zm9.364,4.752a17.569,17.569,0,0,1-.248,2.414,16.756,16.756,0,0,1-.859,2.219c.393,0,.781.02,1.165,0a2.279,2.279,0,0,0,2.164-2c.079-.859.016-1.731.016-2.632Zm-14.06,0c0,.7,0,1.355,0,2.006a2.489,2.489,0,0,0,3.436,2.5,6.534,6.534,0,0,1-1.095-4.5Zm8.315,10.472-.28.01c-.053.2-.121.4-.155.6-.211,1.267-.413,2.536-.622,3.8-.192,1.169-.087,1.394.928,2a1.711,1.711,0,0,0,.873-2.188,23.585,23.585,0,0,1-.462-2.648C4011.282,791.7,4011.184,791.175,4011.089,790.648Zm9.149-26.835h-6.561l6.561,2.233Zm-44.247,6.949h2.262v-2.254h-2.262Zm29.072,7.008v-2.251h-2.233v2.251Zm-26.814,2.36v-2.272h-2.229v2.272Zm38.49-2.364h2.322c-.091-1.446-1.229-2.466-2.322-2.185Zm-22.076-4.484,1.638-2.436h-1.638Zm15.152,13.829a1.307,1.307,0,0,0,1.137,1.034c.493-.012,1.1-.6,1.073-1.034Z" transform="translate(0 -53.204)" fill="#0d2380"/>
    <path id="Trazado_188530" data-name="Trazado 188530" d="M4088.058,684.908H4057.8v.8c0,2.36,0,4.721,0,7.082,0,.906-.462,1.448-1.187,1.433-.7-.015-1.138-.539-1.14-1.406q-.008-4.417,0-8.834c0-1.035.416-1.435,1.478-1.435q6.994,0,13.987,0h.853c0-1.108,0-2.147,0-3.187.005-1.09.4-1.484,1.5-1.485q7.831,0,15.662,0c1.089,0,1.483.4,1.485,1.5q.006,3.76,0,7.52c0,.932-.417,1.466-1.137,1.483-.748.019-1.186-.531-1.192-1.5,0-.584,0-1.168-.007-1.752A1.586,1.586,0,0,0,4088.058,684.908Zm-13.9-2.414h13.9v-2.248h-13.9Z" transform="translate(-77.175)" fill="#0d2380"/>
    <path id="Trazado_188531" data-name="Trazado 188531" d="M4086.4,729.37c0,.754.017,1.509,0,2.263a1.148,1.148,0,0,1-1.235,1.233q-2.258.03-4.516,0a1.139,1.139,0,0,1-1.229-1.237q-.029-2.263,0-4.526a1.137,1.137,0,0,1,1.233-1.232q2.258-.029,4.516,0a1.146,1.146,0,0,1,1.231,1.236C4086.416,727.861,4086.4,728.616,4086.4,729.37Zm-4.618-1.133v2.251h2.233v-2.251Z" transform="translate(-96.449 -38.647)" fill="#0d2380"/>
    <path id="Trazado_188532" data-name="Trazado 188532" d="M4134.318,729.4c0,.73.014,1.46,0,2.19a1.164,1.164,0,0,1-1.266,1.278q-2.221.027-4.443,0a1.156,1.156,0,0,1-1.274-1.268q-.026-2.226,0-4.453a1.155,1.155,0,0,1,1.264-1.276q2.222-.026,4.443,0a1.162,1.162,0,0,1,1.276,1.267C4134.333,727.893,4134.317,728.647,4134.318,729.4Zm-2.383,1.106v-2.246H4129.7v2.246Z" transform="translate(-135.042 -38.649)" fill="#0d2380"/>
    <path id="Trazado_188533" data-name="Trazado 188533" d="M4178.782,725.878c.729,0,1.458-.014,2.185,0a1.162,1.162,0,0,1,1.263,1.28q.025,2.226,0,4.453a1.158,1.158,0,0,1-1.278,1.266q-2.221.024-4.443,0a1.156,1.156,0,0,1-1.261-1.281q-.024-2.226,0-4.453a1.159,1.159,0,0,1,1.276-1.265C4177.276,725.865,4178.029,725.878,4178.782,725.878Zm-1.167,2.372V730.5h2.233V728.25Z" transform="translate(-173.633 -38.66)" fill="#0d2380"/>
    <path id="Trazado_188534" data-name="Trazado 188534" d="M4086.4,777.439c0,.706.01,1.412,0,2.117a1.18,1.18,0,0,1-1.284,1.336q-2.221.025-4.443,0a1.156,1.156,0,0,1-1.259-1.283q-.023-2.226,0-4.453a1.154,1.154,0,0,1,1.279-1.261q2.222-.024,4.444,0a1.162,1.162,0,0,1,1.261,1.282C4086.415,775.93,4086.4,776.685,4086.4,777.439Zm-2.346-1.154h-2.267v2.22h2.267Z" transform="translate(-96.451 -77.324)" fill="#0d2380"/>
    <path id="Trazado_188535" data-name="Trazado 188535" d="M4178.666,780.894c-.729,0-1.458.017-2.185,0a1.146,1.146,0,0,1-1.233-1.234q-.03-2.263,0-4.526a1.137,1.137,0,0,1,1.229-1.236q2.258-.03,4.516,0a1.139,1.139,0,0,1,1.234,1.232q.031,2.263,0,4.526a1.148,1.148,0,0,1-1.23,1.238C4180.22,780.911,4179.442,780.894,4178.666,780.894Zm-1.038-4.644v2.272h2.232V776.25Z" transform="translate(-173.631 -77.322)" fill="#0d2380"/>
    <path id="Trazado_188536" data-name="Trazado 188536" d="M4086.4,825.35c0,.755.012,1.509,0,2.263a1.179,1.179,0,0,1-1.317,1.3q-2.185.021-4.371,0a1.173,1.173,0,0,1-1.3-1.319q-.021-2.19,0-4.38a1.17,1.17,0,0,1,1.314-1.3q2.185-.021,4.371,0a1.177,1.177,0,0,1,1.3,1.317C4086.416,823.938,4086.4,824.644,4086.4,825.35Zm-4.626-1.072v2.263h2.245v-2.263Z" transform="translate(-96.453 -116.002)" fill="#0d2380"/>
    <path id="Trazado_188537" data-name="Trazado 188537" d="M4134.325,825.441c0,.706.008,1.412,0,2.117-.015.915-.435,1.353-1.333,1.362q-2.149.02-4.3,0a1.188,1.188,0,0,1-1.357-1.335q-.019-2.153,0-4.307c.007-.917.431-1.352,1.331-1.36q2.149-.02,4.3,0c.939.007,1.35.439,1.361,1.407C4134.332,824.03,4134.325,824.735,4134.325,825.441Zm-4.637,1.088h2.267V824.3h-2.267Z" transform="translate(-135.048 -116.005)" fill="#0d2380"/>
    <path id="Trazado_188538" data-name="Trazado 188538" d="M3990.57,909.463c0,.73.013,1.46,0,2.19a1.18,1.18,0,0,1-1.321,1.3q-2.185.021-4.371,0a1.174,1.174,0,0,1-1.3-1.323q-.02-2.19,0-4.38a1.171,1.171,0,0,1,1.318-1.3q2.185-.02,4.371,0a1.184,1.184,0,0,1,1.3,1.321c0,.024,0,.049,0,.073Q3990.57,908.4,3990.57,909.463Zm-4.628,1.116h2.25v-2.242h-2.25Z" transform="translate(-19.271 -183.683)" fill="#0d2380"/>
    <path id="Trazado_188539" data-name="Trazado 188539" d="M4129.675,776.22v2.338h.7c.945,0,1.892-.021,2.836.015a1.132,1.132,0,0,1,1.108,1.13,1.118,1.118,0,0,1-1.063,1.171c-1.624.035-3.249.047-4.872-.006a1.068,1.068,0,0,1-1.046-1.18c-.016-1.531-.02-3.061,0-4.592a1.121,1.121,0,0,1,1.184-1.2q2.29-.035,4.582,0a1.149,1.149,0,0,1,1.214,1.176,1.164,1.164,0,0,1-1.247,1.146C4131.96,776.234,4130.851,776.22,4129.675,776.22Z" transform="translate(-135.046 -77.321)" fill="#0d2380"/>
    <path id="Trazado_188540" data-name="Trazado 188540" d="M3988.274,862.588v-2.337c-.916,0-1.825,0-2.734,0a5.647,5.647,0,0,1-.872-.017,1.12,1.12,0,0,1-1.032-1.128,1.1,1.1,0,0,1,1.057-1.171c1.623-.035,3.249-.046,4.872.006a1.068,1.068,0,0,1,1.048,1.179c.017,1.531.021,3.062,0,4.592a1.141,1.141,0,0,1-1.257,1.207q-2.218.026-4.437,0a1.171,1.171,0,1,1,.034-2.328C3986.037,862.578,3987.123,862.588,3988.274,862.588Z" transform="translate(-19.321 -144.996)" fill="#0d2380"/>
    <path id="Trazado_188541" data-name="Trazado 188541" d="M4084.09,874.623v-2.337c-1.065,0-2.1,0-3.135,0-.96,0-1.51-.451-1.49-1.2.02-.723.547-1.133,1.478-1.136q2-.006,4,0c1.1,0,1.5.4,1.508,1.476.006,1.385.01,2.77,0,4.155-.008.946-.436,1.368-1.39,1.375q-2.109.014-4.219,0c-.856-.005-1.376-.457-1.377-1.165s.517-1.159,1.373-1.167C4081.9,874.616,4082.965,874.623,4084.09,874.623Z" transform="translate(-96.502 -154.694)" fill="#0d2380"/>
    <path id="Trazado_188542" data-name="Trazado 188542" d="M4177.532,824.24c0,.477.028.864-.006,1.246a1.149,1.149,0,0,1-1.155,1.086,1.129,1.129,0,0,1-1.146-1.091,23.821,23.821,0,0,1,0-2.477,1.075,1.075,0,0,1,1.143-1.087q2.327-.039,4.655,0a1.139,1.139,0,0,1,1.172,1.144,1.155,1.155,0,0,1-1.218,1.175C4179.866,824.256,4178.753,824.24,4177.532,824.24Z" transform="translate(-173.6 -115.996)" fill="#0d2380"/>
  </g>
</svg>
