<svg xmlns="http://www.w3.org/2000/svg" width="72.208" height="60.964" viewBox="0 0 72.208 60.964">
  <g id="Grupo_134844" data-name="Grupo 134844" transform="translate(-9921.792 7315)">
    <g id="Grupo_132737" data-name="Grupo 132737" transform="translate(4223.688 -8352.879)">
      <path id="Trazado_188626" data-name="Trazado 188626" d="M5770.313,1085.969c-.157.755-.261,1.527-.479,2.264-1.608,5.4-5.117,8.956-10.611,10.205-5.461,1.242-10.152-.4-13.94-4.548-.142-.155-.278-.315-.471-.536-.235.154-.465.3-.69.452a29.529,29.529,0,1,1-22.25-53.459c.953-.2,1.434.108,1.629,1.05q.322,1.551.628,3.1a1.168,1.168,0,0,1-1.079,1.553,21.667,21.667,0,0,0-7.21,2.712c-8.185,5.047-12.3,12.389-11.792,22.016a23.68,23.68,0,0,0,37.649,17.617.892.892,0,0,0,.4-1.05,14.193,14.193,0,0,1,8.644-15.985c.323-.133.533-.242.562-.669a23.753,23.753,0,0,0-15.7-23.717c-.086-.03-.177-.047-.348-.091-.13.486-.248.954-.382,1.416-.326,1.119-1.254,1.4-2.072.592q-3.285-3.245-6.53-6.529a1.134,1.134,0,0,1,.559-2.037q4.448-1.211,8.905-2.384c1.111-.293,1.776.408,1.492,1.541-.137.545-.282,1.088-.417,1.6,13.234,5.259,20.064,14.953,20.475,29.245.607.112,1.3.211,1.976.37a14.189,14.189,0,0,1,10.923,12.051,2.279,2.279,0,0,0,.125.392Zm-14.229,10.608a12,12,0,1,0-12.019-11.976A11.976,11.976,0,0,0,5756.084,1096.577Zm-13.121-6.341a25.836,25.836,0,0,1-14.139,4.964,25.913,25.913,0,0,1-24.506-14.594,25.006,25.006,0,0,1-1.058-20.045c3.2-8.718,9.534-14.119,18.484-16.571l-.256-1.239a27.261,27.261,0,0,0-6.284,50.84c10.014,5.147,21.525,3.128,28.327-2.194Zm-9.778-44.3c.023-.089.045-.179.071-.269.385-1.322.8-1.58,2.1-1.118a29.19,29.19,0,0,1,3.9,1.587c8.221,4.355,12.99,11.141,14.146,20.4.162,1.3.147,2.613.217,3.981l1.277-.16c.017-.171.033-.264.035-.357a27.379,27.379,0,0,0-19.518-26.876c-1.027-.315-1.258-.742-.988-1.79.059-.23.112-.463.186-.773l-5.367,1.445Z" fill="#0d2380"/>
      <path id="Trazado_188627" data-name="Trazado 188627" d="M5790.417,1144.332l-3.583,1.485c0,.618.011,1.3,0,1.975a1.118,1.118,0,0,1-1.21,1.247q-2.254.037-4.51,0a1.111,1.111,0,0,1-1.226-1.228c-.023-.678.2-1.509-.122-1.991-.29-.442-1.16-.49-1.761-.743-.518-.218-1.016-.482-1.747-.834-.367.43-.765.951-1.22,1.417a1.178,1.178,0,0,1-1.941,0q-1.505-1.484-2.989-2.989a1.157,1.157,0,0,1,.01-1.936c.447-.446.926-.861,1.311-1.216-.459-1.184-.85-2.234-1.286-3.266a.706.706,0,0,0-.518-.318c-.561-.043-1.127.005-1.689-.024a1.1,1.1,0,0,1-1.175-1.207q-.026-2.29,0-4.58a1.1,1.1,0,0,1,1.187-1.2c.679-.033,1.524.207,1.992-.115s.527-1.195.792-1.816c.21-.495.458-.974.771-1.629-.45-.409-.967-.844-1.442-1.321a1.122,1.122,0,0,1,0-1.834q1.531-1.559,3.089-3.089c.629-.617,1.308-.684,1.818.016.923,1.263,1.792,1.219,3.2.644,1.389-.566,1.929-1.169,1.739-2.631-.124-.955.368-1.345,1.356-1.349q2.114-.01,4.228,0c.931.006,1.324.4,1.339,1.33.01.632,0,1.265,0,1.882l3.634,1.515c.366-.411.782-.92,1.242-1.385a1.134,1.134,0,0,1,1.834-.036q1.587,1.552,3.138,3.14a1.121,1.121,0,0,1-.011,1.787c-.449.478-1.188.893-1.289,1.431s.456,1.172.712,1.77c.235.55.313,1.309.725,1.6.395.28,1.131.076,1.718.084,1.032.013,1.417.38,1.423,1.391q.012,2.114,0,4.228c-.006.977-.4,1.472-1.365,1.35-1.431-.181-2.317.205-2.516,1.73a2.438,2.438,0,0,1-.279.643c-.528,1.138-.528,1.138.338,2,.183.183.371.36.546.55a1.1,1.1,0,0,1,.029,1.734q-1.6,1.642-3.24,3.237a1.112,1.112,0,0,1-1.687-.013C5791.3,1145.3,5790.849,1144.791,5790.417,1144.332Zm2.041-.927,1.906-1.821c-.408-.386-.84-.782-1.259-1.193a1.148,1.148,0,0,1-.16-1.593,11.829,11.829,0,0,0,1.713-4.135,1.124,1.124,0,0,1,1.25-.986c.58.011,1.161,0,1.779,0v-2.423c-.08-.039-.121-.076-.162-.077-.493-.008-.986-.011-1.479-.017-.892-.011-1.148-.3-1.447-1.127-.483-1.336-1.037-2.65-1.633-3.939-.335-.725-.372-1.142.193-1.707.408-.408.859-.773,1.207-1.082l-1.838-1.948c-.351.391-.681.788-1.043,1.154-.707.714-1.013.665-1.923.225a36.674,36.674,0,0,0-3.816-1.571c-.83-.292-1.134-.547-1.149-1.43-.009-.552,0-1.1,0-1.662H5782.1c0,.638.007,1.242,0,1.845a1.13,1.13,0,0,1-.979,1.2,11.47,11.47,0,0,0-4.137,1.705,1.151,1.151,0,0,1-1.64-.191c-.4-.429-.772-.879-1.026-1.171l-1.936,1.822c.4.374.831.768,1.246,1.183a1.117,1.117,0,0,1,.158,1.534,11.781,11.781,0,0,0-1.724,4.131,1.161,1.161,0,0,1-1.287,1.033c-.58-.008-1.159,0-1.765,0v2.516c.6,0,1.16-.006,1.717,0,.833.011,1.153.242,1.336,1.05a12.084,12.084,0,0,0,1.7,4.066,1.163,1.163,0,0,1-.2,1.642l-1.26,1.206,1.863,1.859c.379-.423.736-.86,1.133-1.256.616-.615.976-.576,1.758-.209,1.286.6,2.6,1.155,3.939,1.64.812.294,1.084.512,1.1,1.388.013.555,0,1.111,0,1.681h2.492c0-.638-.011-1.224,0-1.81a1.143,1.143,0,0,1,.966-1.212,11.721,11.721,0,0,0,4.2-1.736,1.123,1.123,0,0,1,1.581.193C5791.75,1142.6,5792.134,1143.047,5792.457,1143.4Z" transform="translate(-55.709 -63.238)" fill="#0d2380"/>
      <path id="Trazado_188628" data-name="Trazado 188628" d="M5961.187,1251.475l6.791-6.8c.448-.449.894-.9,1.345-1.345.736-.725,1.267-.733,1.991-.021.67.658,1.332,1.325,1.993,1.993.757.767.764,1.287.014,2.042q-1.961,1.974-3.936,3.936-3.536,3.537-7.074,7.074c-.838.837-1.35.835-2.194-.009q-2.468-2.464-4.932-4.932c-.784-.786-.786-1.314-.012-2.1.677-.685,1.353-1.371,2.044-2.04a1.154,1.154,0,0,1,1.841.008C5959.77,1249.985,5960.457,1250.719,5961.187,1251.475Zm-.019,4.652,9.912-9.907-.874-.88a3.823,3.823,0,0,1-.437.7q-3.75,3.775-7.52,7.53c-.762.759-1.288.763-2.042.006-.677-.68-1.33-1.385-1.968-2.052l-.842.829Z" transform="translate(-208.173 -166.298)" fill="#0d2380"/>
      <path id="Trazado_188629" data-name="Trazado 188629" d="M5825.095,1165.207a9.009,9.009,0,1,1-8.976-9.027A9.021,9.021,0,0,1,5825.095,1165.207Zm-2.236-.027a6.774,6.774,0,1,0-6.734,6.791A6.752,6.752,0,0,0,5822.858,1165.18Z" transform="translate(-88.444 -96.015)" fill="#0d2380"/>
    </g>
  </g>
</svg>
