<svg xmlns="http://www.w3.org/2000/svg" width="72.102" height="72.208" viewBox="0 0 72.102 72.208">
  <g id="Grupo_132730" data-name="Grupo 132730" transform="translate(-4565.578 -649.869)">
    <path id="Trazado_188543" data-name="Trazado 188543" d="M4620.051,722.077c-1.456-.794-2.937-1.546-4.359-2.4a22.173,22.173,0,0,1-2.619-1.9,2.031,2.031,0,0,0-1.4-.48q-22.525.017-45.049.009h-1c-.012-.273-.032-.519-.032-.766q0-26.86-.01-53.72a1.425,1.425,0,0,1,.454-1.109c3.815-3.794,7.613-7.608,11.435-11.4a1.517,1.517,0,0,1,.955-.428q18.894-.032,37.788-.018c.14,0,.279.012.523.023v30.2h11.643a8.417,8.417,0,0,0,3.318,7.717,8.289,8.289,0,0,0,5.986,1.552V698.1c-.087.578-.178,1.154-.26,1.733a27.753,27.753,0,0,1-10,17.961,30.565,30.565,0,0,1-7.086,4.281Zm-9.974-7.088-.66-.786a26.683,26.683,0,0,1-6.4-14.984c-.276-3.151-.151-6.338-.2-9.508a1.336,1.336,0,0,1,.095-.318,8.367,8.367,0,0,0,6.819-2.4,8.644,8.644,0,0,0,2.376-6.9h2.276V652.23h-34.79v2.306h32.47v16.222h-41.842v-6.892h-2.266v51.123ZM4605,691.724c.124,2.656.028,5.31.408,7.894,1.331,9.04,6.208,15.586,14.367,19.68a1.225,1.225,0,0,0,.952-.013,25.429,25.429,0,0,0,13.586-15.906c1.154-3.7,1.074-7.51,1.017-11.316,0-.158-.316-.413-.519-.452a10.283,10.283,0,0,1-7.522-5.483,29.6,29.6,0,0,1-1.347-3.64H4614.4A10.751,10.751,0,0,1,4605,691.724Zm-25.454-27.881h-6.952v4.579h37.126V656.884h-30.175Zm-9.752-2.4h7.355v-7.364Z" fill="#0d2380"/>
    <path id="Trazado_188544" data-name="Trazado 188544" d="M4573.309,718.69h30.115v20.848h-30.115Zm2.3,2.326v16.2h25.521v-16.2Z" transform="translate(-3.024 -26.919)" fill="#0d2380"/>
    <path id="Trazado_188545" data-name="Trazado 188545" d="M4573.292,698v-2.22h30.139V698Z" transform="translate(-3.017 -17.958)" fill="#0d2380"/>
    <path id="Trazado_188546" data-name="Trazado 188546" d="M4603.437,703.434v2.228H4573.3v-2.228Z" transform="translate(-3.02 -20.951)" fill="#0d2380"/>
    <path id="Trazado_188547" data-name="Trazado 188547" d="M4603.453,711.071v2.211h-30.158v-2.211Z" transform="translate(-3.018 -23.939)" fill="#0d2380"/>
    <path id="Trazado_188548" data-name="Trazado 188548" d="M4606.442,688.146v2.213h-25.506v-2.213Z" transform="translate(-6.007 -14.972)" fill="#0d2380"/>
    <path id="Trazado_188549" data-name="Trazado 188549" d="M4575.506,690.394h-2.2v-2.23h2.2Z" transform="translate(-3.025 -14.979)" fill="#0d2380"/>
    <path id="Trazado_188550" data-name="Trazado 188550" d="M4653.1,720.863l2.924-6.8,2.128.915c-.888,2.079-1.718,4.118-2.634,6.118a1.193,1.193,0,0,0,.307,1.64,7.98,7.98,0,0,1,1.514,9.466,8.134,8.134,0,1,1-5.085-11.563C4652.524,720.713,4652.793,720.781,4653.1,720.863Zm-.964,2.261c-2.445-1.206-5.765.033-7.147,2.61a5.81,5.81,0,0,0,10.063,5.8c1.624-2.577.714-5.981-.942-7.1l-3.484,8.108-4.646-3.1,1.288-1.93,2.328,1.534Z" transform="translate(-29.88 -25.109)" fill="#0d2380"/>
  </g>
</svg>
