<svg xmlns="http://www.w3.org/2000/svg" width="71.681" height="74.837" viewBox="0 0 71.681 74.837">
  <g id="Grupo_133462" data-name="Grupo 133462" transform="translate(-2171.795 -72.183)">
    <path id="Trazado_189893" data-name="Trazado 189893" d="M2235.361,147.019h-47.007a8.572,8.572,0,0,1-6.7-4.451,8.769,8.769,0,0,1-1.034-2.793c-.188-.868-.189-.879-1.108-.878a8.112,8.112,0,0,1-2.812-.3,6.853,6.853,0,0,1-4.815-5.711,6.72,6.72,0,0,1,2.764-6.594,6.417,6.417,0,0,1,4.142-1.371c.243,0,.487.009.729,0,.394-.018.9.115.882-.55s-.539-.479-.917-.51c-.242-.02-.486,0-.729,0a6.99,6.99,0,0,1-4.813-12.02,6.609,6.609,0,0,1,4.873-1.953c.365.007.729.007,1.094-.005a.452.452,0,0,0,.5-.5.469.469,0,0,0-.513-.557c-.365-.011-.729,0-1.094-.007a7.039,7.039,0,0,1-6.48-4.417A6.9,6.9,0,0,1,2173.9,96.8a6.594,6.594,0,0,1,4.217-1.954c.557-.035,1.106-.162,1.669-.146.3.009.609-.034.61-.447s-.292-.466-.6-.459a9.226,9.226,0,0,1-2.889-.311,6.813,6.813,0,0,1-4.443-3.82,1.335,1.335,0,0,1,.562-1.926,1.238,1.238,0,0,1,1.663.743,4.472,4.472,0,0,0,2.87,2.484,5.828,5.828,0,0,0,1.8.235c1.532-.013,3.064.023,4.6-.012a4.514,4.514,0,0,0,4.563-3.91,1.4,1.4,0,0,0-.02-.72.833.833,0,0,0-.821-.606.778.778,0,0,0-.811.6c-.056.187-.075.382-.123.57a2.8,2.8,0,0,1-2.826,2.284q-2.479.049-4.959,0a2.674,2.674,0,0,1-2.754-2.483,2.732,2.732,0,0,1,2.4-2.837,5.082,5.082,0,0,1,.8-.045c.936-.012,1.308-.58.977-1.463-.112-.3-.35-.3-.591-.312a7,7,0,0,0-2.238.236,4.293,4.293,0,0,0-2.786,2.438,1.315,1.315,0,0,1-1.763.809,1.427,1.427,0,0,1-.492-2.087,7.058,7.058,0,0,1,6.471-4.01c1.489-.068,1.458-.066,1.979-1.457a9.155,9.155,0,0,1,6-5.742,6.922,6.922,0,0,1,2.165-.243c15.206-.008,30.412.029,45.617-.027a9.121,9.121,0,0,1,8.731,8.608c.033.948.006,1.9.006,2.846q0,27.152,0,54.3a9.2,9.2,0,0,1-5.969,8.705A14.919,14.919,0,0,1,2235.361,147.019Z" transform="translate(0 0)"/>
    <path id="Trazado_189894" data-name="Trazado 189894" d="M2245.991,83.9c.169-.009.339-.025.509-.025q22,0,44.009,0a6.762,6.762,0,0,1,6.94,5.81,7.73,7.73,0,0,1,.078,1.308q.005,28.062,0,56.124a6.789,6.789,0,0,1-7.094,7.119q-21.931.007-43.862,0c-.194,0-.388-.017-.582-.025a3.238,3.238,0,0,1-1.657-1.109,7.662,7.662,0,0,1-2.232-4.3c-.049-.284-.142-.573.1-.822a6.855,6.855,0,0,0,5.034-5.137,4.435,4.435,0,0,0,0-2.585c-.682-1.966-2.666-2.69-4.845-1.761-.345.008-.385-.269-.394-.493q-.093-2.31,0-4.622a.691.691,0,0,1,.2-.452,6.888,6.888,0,0,0,5.036-5.152,4.422,4.422,0,0,0,0-2.588c-.692-1.968-2.693-2.686-4.861-1.74-.344-.012-.371-.293-.378-.518-.052-1.53-.059-3.06,0-4.59a.748.748,0,0,1,.2-.459,6.981,6.981,0,0,0,4.875-4.577,5.741,5.741,0,0,0,.326-2.431,3.316,3.316,0,0,0-5.043-2.471c-.341-.025-.357-.306-.365-.531-.052-1.5-.043-3.009-.008-4.514a.947.947,0,0,1,.2-.537,6.918,6.918,0,0,0,5.04-5.136,4.541,4.541,0,0,0,.018-2.587,3.32,3.32,0,0,0-4.9-1.741c-.333,0-.317-.275-.318-.466a13.929,13.929,0,0,1,.427-4.974,8.5,8.5,0,0,1,2.686-3.646A2.32,2.32,0,0,1,2245.991,83.9Z" transform="translate(-56.469 -9.41)" fill="#f8f5f8"/>
    <path id="Trazado_189895" data-name="Trazado 189895" d="M2191.932,122.924a4.6,4.6,0,0,1,2.932-.2c.67.176.15,1.136.28,1.731.073.336-.134.4-.425.391-.413-.016-.826-.011-1.24,0a2.457,2.457,0,1,0-.011,4.909q2.516.029,5.032,0a2.481,2.481,0,0,0,2.6-2.335c.115-.875.523-1.267,1.231-1.185.672.078,1.032.642.938,1.469a4.555,4.555,0,0,1-4.234,4.2c-2.034.121-4.082.035-6.123.011a1.682,1.682,0,0,1-.976-.246A5.612,5.612,0,0,1,2191.932,122.924Z" transform="translate(-14.526 -40.561)" fill="#fedf7c"/>
    <path id="Trazado_189896" data-name="Trazado 189896" d="M2192.124,200.1a4.507,4.507,0,0,1,2.791-.161c.667.191.15,1.139.278,1.735.073.343-.147.391-.431.388a13.976,13.976,0,0,0-1.6.032,2.4,2.4,0,0,0-2.2,2.53,2.437,2.437,0,0,0,2.426,2.331c.486.015.972,0,1.459,0,1.24,0,2.48.008,3.72,0a2.464,2.464,0,0,0,2.58-2.263c.132-.936.534-1.34,1.247-1.251.689.086,1.036.674.916,1.553a4.635,4.635,0,0,1-4.74,4.151c-1.7.011-3.4,0-5.106,0a3.074,3.074,0,0,1-1.481-.278,5.327,5.327,0,0,1-2.041-5.123,5.572,5.572,0,0,1,.8-2.313A3.111,3.111,0,0,1,2192.124,200.1Z" transform="translate(-14.573 -102.716)" fill="#fedf7c"/>
    <path id="Trazado_189897" data-name="Trazado 189897" d="M2192.086,277.355a4.767,4.767,0,0,1,2.8-.141c.642.166.143,1.09.267,1.661.056.256.008.479-.362.464-.485-.02-.973-.016-1.458.005a2.433,2.433,0,1,0,.092,4.864c1.7.012,3.4.009,5.106,0a2.441,2.441,0,0,0,2.573-2.26c.128-.919.559-1.349,1.254-1.249s1.027.694.906,1.566a4.607,4.607,0,0,1-4.67,4.133c-1.727.012-3.453,0-5.179,0a3.041,3.041,0,0,1-1.484-.263C2189.081,284.176,2189.193,279.009,2192.086,277.355Z" transform="translate(-14.536 -164.918)" fill="#fedf7c"/>
    <path id="Trazado_189898" data-name="Trazado 189898" d="M2192.117,354.56a4.854,4.854,0,0,1,2.8-.124c.638.161.142,1.088.265,1.658.053.246.029.488-.352.467-.436-.023-.875-.009-1.312,0a2.434,2.434,0,1,0-.078,4.863q2.588.037,5.176,0a2.425,2.425,0,0,0,2.515-2.239c.133-.929.562-1.373,1.234-1.279.7.1,1.053.716.919,1.626a4.572,4.572,0,0,1-4.562,4.076c-1.8.037-3.6.011-5.394,0a2.67,2.67,0,0,1-1.213-.2C2188.981,361.56,2189.327,356.06,2192.117,354.56Z" transform="translate(-14.568 -227.074)" fill="#fedf7c"/>
    <path id="Trazado_189899" data-name="Trazado 189899" d="M2234.853,84.01a7.732,7.732,0,0,0-3.706,5.523,11.641,11.641,0,0,0,.051,3.938,3.6,3.6,0,0,0-1.491,2.631c-.063.746-.723.324-1.112.418-.256.062-.468.009-.456-.359a56.11,56.11,0,0,1,.147-6.626A6.709,6.709,0,0,1,2234.853,84.01Z" transform="translate(-45.33 -9.52)" fill="#dcd9eb"/>
    <path id="Trazado_189900" data-name="Trazado 189900" d="M2231.155,335.378c0,1.614-.005,3.228,0,4.842,0,.252-.089.542.192.725a3.738,3.738,0,0,0-1.553,2.675c-.078.746-.78.3-1.2.388-.439.09-.357-.269-.358-.52,0-2.481.008-4.961-.01-7.442,0-.415.111-.554.529-.527A10.709,10.709,0,0,0,2231.155,335.378Z" transform="translate(-45.428 -211.853)" fill="#dcd9eb"/>
    <path id="Trazado_189901" data-name="Trazado 189901" d="M2231.16,258.238c0,1.611,0,3.223,0,4.834,0,.252-.094.539.172.733a3.709,3.709,0,0,0-1.534,2.681c-.07.721-.744.266-1.133.37-.366.1-.428-.132-.427-.455q.015-3.789,0-7.578c0-.358.112-.463.455-.442A12.6,12.6,0,0,0,2231.16,258.238Z" transform="translate(-45.434 -149.761)" fill="#dcd9eb"/>
    <path id="Trazado_189902" data-name="Trazado 189902" d="M2231.144,181.028c0,1.613,0,3.227.015,4.84,0,.252-.1.537.155.742a3.578,3.578,0,0,0-1.5,2.612c-.069.815-.753.337-1.155.437-.459.114-.415-.234-.415-.53,0-2.473.01-4.946-.007-7.42,0-.406.1-.56.521-.525A12.426,12.426,0,0,0,2231.144,181.028Z" transform="translate(-45.429 -87.613)" fill="#dcd9eb"/>
    <path id="Trazado_189903" data-name="Trazado 189903" d="M2231.636,412.527a7.7,7.7,0,0,0,3.2,5.813c.19.146.391.278.588.416a6.807,6.807,0,0,1-6.569-5.407c-.085-.473-.033-.713.541-.672A8.77,8.77,0,0,0,2231.636,412.527Z" transform="translate(-45.907 -273.953)" fill="#dcd9eb"/>
    <path id="Trazado_189904" data-name="Trazado 189904" d="M2182.566,124.371a6.313,6.313,0,0,0-1.907,4.552,6.146,6.146,0,0,0,1.485,3.695c.136.169.281.33.422.495a4.2,4.2,0,0,1-2.8-2.448,1.209,1.209,0,0,0-1.43-.827,4.256,4.256,0,0,1,.005-2.154,1.282,1.282,0,0,0,1.429-.859A4.215,4.215,0,0,1,2182.566,124.371Z" transform="translate(-5.159 -42.008)" fill="#fecf64"/>
    <path id="Trazado_189905" data-name="Trazado 189905" d="M2187.431,355.688a6.033,6.033,0,0,0-1.889,3.106,5.488,5.488,0,0,0,1.454,5.263c.151.155.29.322.434.484a4.6,4.6,0,0,1,0-8.853Z" transform="translate(-9.882 -228.201)" fill="#fdcf63"/>
    <path id="Trazado_189906" data-name="Trazado 189906" d="M2187.434,201.388a5.762,5.762,0,0,0-.56,8.269c.142.162.275.333.412.5a4.569,4.569,0,0,1,.148-8.769Z" transform="translate(-9.884 -104.001)" fill="#fdcf63"/>
    <path id="Trazado_189907" data-name="Trazado 189907" d="M2187.432,278.539a6.3,6.3,0,0,0-1.934,3.313,5.635,5.635,0,0,0,1.441,5.009c.129.141.3.253.337.461a4.58,4.58,0,0,1,.156-8.783Z" transform="translate(-9.881 -166.102)" fill="#fdcf63"/>
    <path id="Trazado_189908" data-name="Trazado 189908" d="M2207.831,222.911c-.347-.151-.993.2-.992-.271,0-.561.659-.274,1.007-.272.321,0,.947-.308.944.233C2208.787,223.181,2208.136,222.708,2207.831,222.911Z" transform="translate(-28.208 -120.819)" fill="#e8e8e8"/>
    <path id="Trazado_189909" data-name="Trazado 189909" d="M2207.709,145.831c-.268-.125-.9.258-.893-.288.009-.494.631-.2.977-.259a4.255,4.255,0,0,1,.651-.008c.212-.005.381.013.378.3,0,.314-.222.251-.4.256C2208.2,145.835,2207.983,145.831,2207.709,145.831Z" transform="translate(-28.189 -58.815)" fill="#e6e6e6"/>
    <path id="Trazado_189910" data-name="Trazado 189910" d="M2207.81,299.818c.2.161.791-.317.779.27-.009.429-.539.165-.83.21a4.99,4.99,0,0,1-.866.006c-.155,0-.293-.057-.306-.235-.013-.194.145-.239.288-.246C2207.164,299.808,2207.453,299.818,2207.81,299.818Z" transform="translate(-28.004 -183.204)" fill="#fcfcfc"/>
    <path id="Trazado_189911" data-name="Trazado 189911" d="M2207.831,377.506c-.283-.109-.937.208-.936-.213,0-.545.645-.193,1-.271a3.674,3.674,0,0,1,.72-.01c.172,0,.267.054.265.247s-.094.25-.266.248C2208.372,377.5,2208.131,377.506,2207.831,377.506Z" transform="translate(-28.253 -245.341)" fill="#fcfcfc"/>
    <path id="Trazado_189912" data-name="Trazado 189912" d="M2305.177,258.374h-17.511c-.243,0-.488.009-.729-.013a1.076,1.076,0,0,1-.146-2.13,3.29,3.29,0,0,1,.724-.046q17.766,0,35.533,0a2.184,2.184,0,0,1,.864.093,1.018,1.018,0,0,1,.685,1.153.982.982,0,0,1-.889.916,5.259,5.259,0,0,1-.8.027Q2314.042,258.375,2305.177,258.374Z" transform="translate(-91.865 -148.106)"/>
    <path id="Trazado_189913" data-name="Trazado 189913" d="M2305.251,342.728h-17.732a3.135,3.135,0,0,1-.727-.027,1.087,1.087,0,0,1,.044-2.142,3.831,3.831,0,0,1,.728-.019h35.391a4.424,4.424,0,0,1,.656.012,1.088,1.088,0,0,1,.028,2.162,3.706,3.706,0,0,1-.656.015Z" transform="translate(-91.855 -216.001)"/>
    <path id="Trazado_189914" data-name="Trazado 189914" d="M2305.294,284.374q8.866,0,17.732,0a2.554,2.554,0,0,1,.795.055,1.018,1.018,0,0,1,.751,1.044,1.029,1.029,0,0,1-.844,1.046,3.206,3.206,0,0,1-.8.042q-17.7,0-35.39,0c-.122,0-.243,0-.365,0-.8-.02-1.282-.422-1.3-1.075-.017-.679.483-1.112,1.321-1.112Q2296.246,284.371,2305.294,284.374Z" transform="translate(-91.827 -170.797)"/>
    <path id="Trazado_189915" data-name="Trazado 189915" d="M2305.2,370.87h-17.656c-1.146,0-1.647-.323-1.666-1.07-.02-.767.51-1.12,1.686-1.12h35.313a6.225,6.225,0,0,1,.656.016,1.04,1.04,0,0,1,1.039,1.087,1.058,1.058,0,0,1-1.059,1.076,6.33,6.33,0,0,1-.656.011Z" transform="translate(-91.83 -238.658)" fill="#010101"/>
    <path id="Trazado_189916" data-name="Trazado 189916" d="M2277.522,170.443c-.235.826-.468,1.653-.705,2.479-.263.918-.656,1.3-1.348,1.276-.8-.025-1.108-.553-1.291-1.249-.22-.842-.5-1.67-.779-2.613a11.713,11.713,0,0,0-.492,2.3c-.212,1.144-.636,1.641-1.372,1.516s-1.011-.722-.8-1.865c.375-2.077.766-4.151,1.134-6.229a1.3,1.3,0,0,1,1.174-1.2c.618-.081,1.109.325,1.342,1.083.355,1.157.7,2.319,1.092,3.637.335-1.152.629-2.163.922-3.174a6.752,6.752,0,0,1,.2-.7,1.225,1.225,0,0,1,1.234-.847,1.154,1.154,0,0,1,1.161.937q.713,3.53,1.349,7.076a1.06,1.06,0,0,1-.9,1.279,1.109,1.109,0,0,1-1.253-.955c-.189-.9-.344-1.81-.513-2.716Z" transform="translate(-79.583 -74.587)"/>
    <path id="Trazado_189917" data-name="Trazado 189917" d="M2300,314.642q-6.167,0-12.333,0a6.015,6.015,0,0,1-.8-.032,1,1,0,0,1-.942-1.024,1.014,1.014,0,0,1,.937-1.107,3.811,3.811,0,0,1,.655-.026q12.479,0,24.958,0a3.91,3.91,0,0,1,.655.025,1.015,1.015,0,0,1,.943,1.1,1,1,0,0,1-.938,1.028,5.854,5.854,0,0,1-.8.032Q2306.172,314.644,2300,314.642Z" transform="translate(-91.869 -193.399)" fill="#010101"/>
    <path id="Trazado_189918" data-name="Trazado 189918" d="M2373.218,169.618c0-1.253,0-2.312,0-3.37,0-.882.438-1.42,1.126-1.4.665.018,1.05.515,1.062,1.38q.042,3.1.079,6.2c0,.146.01.293,0,.438a1.224,1.224,0,0,1-.866,1.217,1.161,1.161,0,0,1-1.371-.565c-.766-1.094-1.515-2.2-2.28-3.294-.13-.187-.206-.432-.524-.556,0,1.1.005,2.156,0,3.214-.005.861-.4,1.33-1.1,1.321-.681-.009-1.082-.5-1.084-1.355-.006-2.213,0-4.425,0-6.638a1.153,1.153,0,0,1,.828-1.291c.621-.177,1.006.158,1.331.634C2371.3,166.852,2372.2,168.148,2373.218,169.618Z" transform="translate(-158.133 -74.587)"/>
    <path id="Trazado_189919" data-name="Trazado 189919" d="M2412.126,168.548c0-.827-.012-1.654,0-2.481a1.095,1.095,0,1,1,2.177-.029c.024,1.508,0,3.016.01,4.524,0,.933.483,1.441,1.341,1.442a1.32,1.32,0,0,0,1.452-1.434c.006-1.484,0-2.967,0-4.451,0-.785.441-1.283,1.087-1.278a1.144,1.144,0,0,1,1.1,1.288c.012,1.556.024,3.114,0,4.67a3.479,3.479,0,0,1-3.628,3.4,3.427,3.427,0,0,1-3.538-3.387C2412.113,170.057,2412.126,169.3,2412.126,168.548Z" transform="translate(-193.445 -74.583)"/>
    <path id="Trazado_189920" data-name="Trazado 189920" d="M2452.164,174.226a1.049,1.049,0,0,1-1.012-1.416c.883-2.411,1.815-4.8,2.742-7.2a1.238,1.238,0,0,1,2.254-.011q1.386,3.593,2.713,7.208a1.042,1.042,0,0,1-.639,1.364,1.009,1.009,0,0,1-1.366-.624c-.239-1.006-.84-1.223-1.735-1.079a1.331,1.331,0,0,1-.436,0,1.083,1.083,0,0,0-1.448.945A1,1,0,0,1,2452.164,174.226Z" transform="translate(-224.806 -74.614)"/>
    <path id="Trazado_189921" data-name="Trazado 189921" d="M2331.979,173.159a1.09,1.09,0,0,1-.812,1.026c-.523.128-1.109.006-1.214-.519-.268-1.342-1.19-1.276-2.177-1.2a3,3,0,0,1-.656,0c-.39-.055-.575.129-.673.479a3.5,3.5,0,0,1-.235.609,1.084,1.084,0,1,1-2.006-.82c.718-1.931,1.46-3.853,2.192-5.779.164-.43.317-.865.492-1.291a1.2,1.2,0,0,1,1.129-.786,1.14,1.14,0,0,1,1.164.728c.932,2.42,1.836,4.851,2.748,7.279A1.432,1.432,0,0,1,2331.979,173.159Z" transform="translate(-122.616 -74.614)"/>
    <path id="Trazado_189922" data-name="Trazado 189922" d="M2496.339,168.829c0,.85.027,1.7-.01,2.548-.022.5.111.711.639.653a3.349,3.349,0,0,1,1.012.037,1,1,0,0,1,.865,1.092.984.984,0,0,1-1.013,1.027c-.849.027-1.7.018-2.548.011a1.02,1.02,0,0,1-1.119-1.083c-.03-2.378-.026-4.757,0-7.135a1.085,1.085,0,1,1,2.167.012c.024.946.006,1.893.006,2.839Z" transform="translate(-259.467 -74.59)" fill="#010101"/>
    <path id="Trazado_189923" data-name="Trazado 189923" d="M2445.739,314.621c-.971,0-1.942.015-2.913,0-.808-.015-1.274-.433-1.273-1.091s.467-1.085,1.273-1.09q2.913-.02,5.827,0c.774.006,1.208.406,1.227,1.053.02.683-.417,1.106-1.227,1.125C2447.681,314.637,2446.71,314.62,2445.739,314.621Z" transform="translate(-217.135 -193.378)" fill="#010101"/>
    <path id="Trazado_189924" data-name="Trazado 189924" d="M2468.446,186.763l.5-1.34a5.1,5.1,0,0,1,.6,1.327A2.125,2.125,0,0,1,2468.446,186.763Z" transform="translate(-238.783 -91.15)" fill="#eeebee"/>
    <path id="Trazado_189925" data-name="Trazado 189925" d="M2342.388,185.731l.473,1.264c-.36.118-.914.179-.971.016C2341.736,186.563,2342.144,186.174,2342.388,185.731Z" transform="translate(-136.888 -91.398)" fill="#edeaed"/>
  </g>
</svg>
