<svg xmlns="http://www.w3.org/2000/svg" width="199" height="199" viewBox="0 0 199 199">
  <g id="Grupo_134848" data-name="Grupo 134848" transform="translate(-15075 11739)">
    <g id="Elipse_4826" data-name="Elipse 4826" transform="translate(15075 -11739)" fill="none" stroke="#fff2bf" stroke-width="10">
      <circle cx="99.5" cy="99.5" r="99.5" stroke="none"/>
      <circle cx="99.5" cy="99.5" r="94.5" fill="none"/>
    </g>
    <g id="Grupo_133472" data-name="Grupo 133472" transform="translate(15084.349 -11738.168)">
      <path id="Trazado_190225" data-name="Trazado 190225" d="M-315.476,685.792c-1.406-.674-2.983-.414-4.44-.813-.841-.467-.861-1.283-.861-2.09q-.023-22.886.005-45.773c0-2,.4-2.458,2.358-2.468,8.29-.043,16.581-.116,24.87.049.588.012,1.4-.081,1.547.654.116.595-.625.825-1.083,1.078a12.734,12.734,0,0,0-6.052,6.684c-1.6,2.7-1.218,5.547-.623,8.413-.118,2.273.017,4.549-.11,6.821a16.956,16.956,0,0,0,.106,7.452q-.147,3.42,0,6.84a17.279,17.279,0,0,0-.493,4.849c.072,2.45.416,2.867,2.908,3.253.935,1.684,3,2.209,3.965,3.863a37.715,37.715,0,0,1-5.51.817c-.5.055-1.1-.234-1.469.371Z" transform="translate(398.032 -496.683)" fill="#feb232"/>
      <path id="Trazado_190226" data-name="Trazado 190226" d="M-361.044,334.842c.007-1.006.982-1.233,1.481-1.842h1.844a3.754,3.754,0,0,1,1.89,3.838c-.155,2.079-.049,4.179-.028,6.269.005.591-.2,1.248.371,1.726a1.708,1.708,0,0,1-.666,2.15,3.088,3.088,0,0,1-.891.218c-3.9.4-4.214.148-4.159-3.726A69.8,69.8,0,0,1-361.044,334.842Z" transform="translate(419.997 -333)" fill="#d9e1fd"/>
      <path id="Trazado_190227" data-name="Trazado 190227" d="M-194.589,577a83.98,83.98,0,0,1-17.633,12.453,2.184,2.184,0,0,1-.615-1.859c.01-12.42-.141-24.84.066-37.255a1.739,1.739,0,0,1,1.232-1.434c2.759-1.1,3.952-2.606,3.8-4.692-.169-2.342-1.517-3.681-4.435-4.4-.238-.059-.477-.111-.713-.186-3.834-1.359-4.944-5.924-3.327-10.449a5.577,5.577,0,0,1,2.705-.346q10.573-.016,21.145-.008a7.8,7.8,0,0,0,3.083-.366,2.2,2.2,0,0,0,1.624-2.022,2.294,2.294,0,0,0-1.611-2.049,6.582,6.582,0,0,0-2.718-.323c-7.171-.008-14.342,0-21.513-.011a4.977,4.977,0,0,1-2.863-.432c-.791-1.087-.522-2.349-.506-3.54.018-1.386-.483-2.018-1.917-1.949a20.557,20.557,0,0,1-3.645-.062c-.548-.071-1.294-.018-1.262-.936a4.239,4.239,0,0,1,2.837-.493q14.535-.023,29.07-.01a12.767,12.767,0,0,0,2.385-.122,1.988,1.988,0,0,0,1.719-1.693,1.983,1.983,0,0,0-1.192-2.1,6,6,0,0,0-3.056-.468c-7.176-.009-14.352,0-21.527-.011a5.2,5.2,0,0,1-2.871-.414,3.68,3.68,0,0,1-.556-2.62c-.059-2.872-.049-2.871-2.981-2.881a12.53,12.53,0,0,1-2.193-.071c-.55-.1-1.3-.017-1.268-.939a4.229,4.229,0,0,1,2.836-.493q14.255-.024,28.51-.011a10.441,10.441,0,0,0,2.563-.161,1.992,1.992,0,0,0,1.766-2.041,2.084,2.084,0,0,0-1.808-2.035,10.708,10.708,0,0,0-2.382-.144q-10.944-.005-21.888-.009a5.191,5.191,0,0,1-2.871-.409,1.468,1.468,0,0,1-.321-1.2c.082-5.586-.032-11.173.056-16.758.048-3.012,1.218-4.321,4.154-4.908a3.181,3.181,0,0,1,2.106.487q10.9,5.183,21.791,10.4c3.327,1.587,6.68,3.122,9.986,4.754.787.388,1.58.734,1.707,1.757a19.733,19.733,0,0,1,.107,2.952q0,27.317.011,54.634a12.885,12.885,0,0,1-.554,4.183,88.205,88.205,0,0,1-11.147,14.9,5.376,5.376,0,0,1-2.679.477q-4.775-.01-9.55,0a10.434,10.434,0,0,0-1.832.087,2.354,2.354,0,0,0-2.189,2.492c.148,1.4,1.149,1.778,2.344,1.829,2.019.086,4.041-.022,6.059.06C-195.82,576.181-194.895,575.93-194.589,577Z" transform="translate(345.335 -411.203)" fill="#3c589f"/>
      <path id="Trazado_190228" data-name="Trazado 190228" d="M-271.3,622.914q.01,18.678.022,37.357c0,.8.032,1.594.048,2.391a53.7,53.7,0,0,1-8.913,4.169c-.553-.535-.44-1.241-.47-1.9a15.274,15.274,0,0,0-.108-2.2c-.24-1.25-.8-2.226-2.242-2.246a2.245,2.245,0,0,0-2.164,2.477c-.022,1.865-.44,3.831.993,5.44a79.044,79.044,0,0,1-15.558,3.936c-.981-.67-1.993-1.3-2.928-2.027-.464-.36-1.234-.7-.726-1.564a7.892,7.892,0,0,0,1.378-5.17c-.248-2.593-1.055-3.312-3.631-2.9a1.007,1.007,0,0,1-.707-.082,14.414,14.414,0,0,1-.015-7.013,7.271,7.271,0,0,1,1.638.177c2.073.073,2.8-1.178,2.694-4.645-.069-2.294-1-3.3-2.883-3.146-.6.049-1.155.462-1.792.253.209-2.351-.469-4.75.383-7.065a1.9,1.9,0,0,1,1.259-.018,2.6,2.6,0,0,0,1.272-.094c1.537-.559,2.151-2.483,1.709-5.363-.272-1.771-1-2.414-2.82-2.479a1.863,1.863,0,0,1-1.071-.15c.93-4.034,3.843-6.219,7.738-8.13h-1.671c-8.295,0-16.59.035-24.885-.033-1.474-.012-1.863.435-1.858,1.881.048,15.326.03,30.653.028,45.98a3.261,3.261,0,0,0,.355,1.961.69.69,0,0,1-.741-.274c-.723-.906-.549-1.987-.55-3.018-.011-14.213-.035-28.426.024-42.639.008-2-.278-3.448-2.306-4.478a5.075,5.075,0,0,1-2.4-6.03,5.442,5.442,0,0,1,5.555-4.24c7.247-.052,14.494-.074,21.741.008,1.586.074,3.212-.34,4.746.376.413,1.207-.778,1.352-1.312,1.858-1.926,1.826-2.212,4.278-.624,6.24a3.816,3.816,0,0,0,2.841,1.474c3.358.23,6.712.448,10.085.4,5.083-.065,10.166-.029,15.249-.006C-273.025,622.387-272.062,622.189-271.3,622.914Z" transform="translate(404.345 -484.41)" fill="#fec739"/>
      <path id="Trazado_190229" data-name="Trazado 190229" d="M-169,515.095q0-31.162-.007-62.325a2.648,2.648,0,0,1,1.024-.751c2.14-1.25,2.205-3.091.079-4.4a54.13,54.13,0,0,0-5.572-2.839q-11.247-5.26-22.4-10.708c-.993-.487-2.059-.812-3.013-1.367-.408-.238-1.136-.433-.645-1.209a4.464,4.464,0,0,1,2.343-.317c4.6-.011,9.21.005,13.815-.01a7.361,7.361,0,0,0,7.244-5.177,7.266,7.266,0,0,0-3.241-8.312,7.349,7.349,0,0,0-6.722-.524c-2.553.885-3.463.766-5.114-1.371a9.871,9.871,0,0,0-8.806-4.052,3.31,3.31,0,0,1-3.485-2.191,20.2,20.2,0,0,0-3.888-6.218c-.416-.443-.79-.984-.329-1.65a3.786,3.786,0,0,1,2.464-.5c5.735-.015,11.47-.026,17.2.009,1,.006,2.132-.208,2.766.945a88.869,88.869,0,0,1,22.827,33.27,88.7,88.7,0,0,1,6.232,37.137A89.248,89.248,0,0,1-169,515.095Z" transform="translate(336.783 -369.991)" fill="#4faaf6"/>
      <path id="Trazado_190230" data-name="Trazado 190230" d="M-349.282,356.267a2.908,2.908,0,0,1,.282-1.8,93.039,93.039,0,0,1,27.413-3.7,89.63,89.63,0,0,1,29.67,5.6c-.081.888-.866.738-1.389.881-2.571.7-4.362,2.1-4.839,4.9a2.69,2.69,0,0,1-2.262,2.345c-4.261.891-5.465,3.056-4.024,7.141a2.018,2.018,0,0,1,.2,1.07c-1.661,1.786-3.647,3.222-5.327,5a2.9,2.9,0,0,1-2.765.615c-4.793-.938-8.214.941-10.475,5.148a2.33,2.33,0,0,1-2.182,1.39c-3.364.026-6.728.031-10.092-.005-.672-.007-1.368-.046-1.734-.783a3.762,3.762,0,0,1-.245-1.439q-.048-9.531,0-19.062a4.013,4.013,0,0,1,.244-1.436c.235-.547.766-.756,1.222-1.049a2.119,2.119,0,0,0,1.027-2.349,2.243,2.243,0,0,0-1.887-1.76,8.222,8.222,0,0,0-2-.137c-3.107,0-6.214.008-9.32-.014C-348.283,356.809-349.092,357.292-349.282,356.267Z" transform="translate(413.509 -342.631)" fill="#4faaf6"/>
      <path id="Trazado_190231" data-name="Trazado 190231" d="M-252.493,374.213c-2.625-3.561-.543-8.642,3.864-8.505a1.887,1.887,0,0,0,1.944-1.842c.481-3.591,2.8-5.04,6.05-5.544a2.511,2.511,0,0,0,.634-.3c1.448.79,2.432.388,3.6-.827a10.861,10.861,0,0,1,17.874,3.248,2.888,2.888,0,0,0,2.977,2.075,6.365,6.365,0,0,1,5.448,2.935,1.916,1.916,0,0,0,2.707.726,4.857,4.857,0,0,1,5.772.994,4.781,4.781,0,0,1,1.225,5.261c-.835,2.374-2.68,3.351-5.081,3.585-1.538.15-3.151-.511-4.617.41a3.41,3.41,0,0,0-1.759-.384c-6.406.011-12.812,0-19.218.012-.53,0-1.117-.149-1.523.381-.917.169-1.45-.539-2.09-.957a16.076,16.076,0,0,0-15.539-1.729C-250.941,374.04-251.645,374.53-252.493,374.213Z" transform="translate(361.593 -344.297)" fill="#73c2f8"/>
      <path id="Trazado_190232" data-name="Trazado 190232" d="M-173.169,688.639c-2.477-.6-4.99-.16-7.485-.251s-3.569-.841-3.57-2.718,1.26-2.883,3.681-2.88c4.421.006,8.843.034,13.264.053A42.216,42.216,0,0,1-173.169,688.639Z" transform="translate(323.915 -522.84)" fill="#72c2f8"/>
      <path id="Trazado_190233" data-name="Trazado 190233" d="M-228.844,725.209c-2.936-1.285-1.082-3.854-1.5-5.8-.291-1.359.763-2.118,1.9-2.568a2.526,2.526,0,0,1,3.313,1.716c.587,1.666.179,3.394.282,5.09A15.878,15.878,0,0,1-228.844,725.209Z" transform="translate(349.053 -541.223)" fill="#fe9100"/>
      <path id="Trazado_190234" data-name="Trazado 190234" d="M-363.153,566.371q-10.762.029-21.524.061c-3.079.01-4.992,1.532-5.465,4.334-.438,2.591.923,4.7,3.773,5.674A1.389,1.389,0,0,1-385.236,578q-.058,24.145-.058,48.29a44.056,44.056,0,0,1-8.474-1.478c.177-2.025.159-4.055.159-6.085q0-39.129,0-78.258a13.955,13.955,0,0,0-.134-2.944,2.047,2.047,0,0,0-2.165-1.858,1.985,1.985,0,0,0-1.934,1.886,17.573,17.573,0,0,0-.109,2.947q0,39.867-.014,79.734c0,1.142.27,2.355-.523,3.387l-5.27-1.837c-.785-1.033-.531-2.245-.532-3.391q-.021-38.684-.012-77.369a21.834,21.834,0,0,0-.081-2.951c-.215-1.584-1.061-2.521-2.26-2.439-1.51.1-1.843,1.215-1.955,2.46-.077.859-.045,1.723-.045,2.584q0,37.761-.013,75.522c0,1.143.267,2.358-.543,3.383l-5.6-2.831a8.594,8.594,0,0,1-.193-2.379q.01-36.979,0-73.957c0-.246,0-.492,0-.738-.036-3.092-.4-3.577-3.288-4.426-.882-.75-.374-1.557-.057-2.328a14.125,14.125,0,0,1,1.277-2.226c.424-.658,1.121-1.113,1.416-1.905a3.185,3.185,0,0,0-1.969-.219c-6.418-.018-12.836-.005-19.254-.016a5.8,5.8,0,0,1-2.707-.312c-.283-.254-.506-.512-.061-.82a5.476,5.476,0,0,1,2.7-.369c6.991-.01,13.99-.236,20.97.042,16.674.665,33.349.112,50.022.328a4.745,4.745,0,0,1,2.851.489,4.027,4.027,0,0,1,.528,2.655q.02,16.592,0,33.185A3.424,3.424,0,0,1-363.153,566.371Z" transform="translate(462.669 -438.264)" fill="#d9e1fd"/>
      <path id="Trazado_190235" data-name="Trazado 190235" d="M-439.678,529.265H-414.3c-1.893,2.281-4.018,4.141-4.389,7.029-1.167,2.683-.873,5.523-.874,8.328q-.008,33.51-.016,67.02c0,1.136.29,2.362-.6,3.353a37.437,37.437,0,0,1-5.537-3.7,12.91,12.91,0,0,1-.2-2.75q.01-33.293,0-66.585a13.4,13.4,0,0,0-.136-2.942c-.28-1.254-.966-2.2-2.376-2.1-1.292.089-1.65,1.11-1.773,2.222a23.342,23.342,0,0,0-.062,2.58q0,31.079-.015,62.159c0,1.135.293,2.358-.591,3.352a69.273,69.273,0,0,1-9.175-8.917,20.927,20.927,0,0,1-.261-4.217q0-26.751,0-53.5c0-.676-.015-1.353.051-2.027-.09-2.424-.042-4.849-.026-7.273A2.549,2.549,0,0,1-439.678,529.265Z" transform="translate(462.894 -439.518)" fill="#bdc7f6"/>
      <path id="Trazado_190236" data-name="Trazado 190236" d="M-466.494,548.759q.025,25.179.049,50.358c0,2.582.016,5.165-.012,7.748-.006.576.261,1.249-.377,1.7a89.846,89.846,0,0,1-21.189-42.758,77.12,77.12,0,0,1-1.625-17.029,3.044,3.044,0,0,1,2.411-.61q9.158-.029,18.316,0A3.339,3.339,0,0,1-466.494,548.759Z" transform="translate(489.688 -449.768)" fill="#4faaf6"/>
      <path id="Trazado_190237" data-name="Trazado 190237" d="M-481.828,430.088A82.642,82.642,0,0,1-471.761,407.3a90.933,90.933,0,0,1,32-30.822.49.49,0,0,1,.606.232,3.519,3.519,0,0,1,.343,1.786q.034,8.924,0,17.849a4.576,4.576,0,0,1-.225,1.632,1.294,1.294,0,0,1-.428.545,7.578,7.578,0,0,1-3.266.3c-3.375.077-6.753-.108-10.122.107a12.7,12.7,0,0,0-1.237.295,2.195,2.195,0,0,0-.748,3.906c.477.451,1.177.672,1.414,1.378.347,5.471.091,10.945.141,16.417.016,1.68-1.06,1.692-2.264,1.459a16.509,16.509,0,0,0-11.188,2.039,15.019,15.019,0,0,0-4.1,3.394,4.516,4.516,0,0,1-5.089,1.6,6.717,6.717,0,0,0-3.98.352C-480.523,429.963-481.114,430.41-481.828,430.088Z" transform="translate(485.431 -356.582)" fill="#4faaf6"/>
      <path id="Trazado_190238" data-name="Trazado 190238" d="M-486.1,463.011c2.089-1.132,4.275-1.9,6.638-1.081,1.629.562,2.686-.105,3.664-1.249a17.531,17.531,0,0,1,10.831-6,12.077,12.077,0,0,1,5.084.121c1.171.306,1.95.316,1.906-1.433-.136-5.4-.055-10.8-.058-16.194a.425.425,0,0,1,.611.187,5.593,5.593,0,0,1,.355,2.714q.015,15.226,0,30.452a5.48,5.48,0,0,1-.368,2.711c-.589.717-1.422.6-2.2.618-2.2.055-4.4-.066-6.587.077-2.652.946-2.994,2.295-1.1,4.386a1.673,1.673,0,0,1,.4.6l.439.337q-.01,4.622-.021,9.243l-23.155.018A73.493,73.493,0,0,1-486.1,463.011Z" transform="translate(489.708 -389.505)" fill="#73c2f8"/>
      <path id="Trazado_190239" data-name="Trazado 190239" d="M-349.442,632.96c-.023-.491-.066-.982-.066-1.473q0-41.9,0-83.8c0-2.775,1.7-4.185,3.855-3.211a2.627,2.627,0,0,1,1.677,2.427c.023.676.008,1.354.008,2.03q0,41.529-.027,83.058c0,.733.575,1.8-.723,2.158Z" transform="translate(413.62 -447.608)" fill="#a7b6ee"/>
      <path id="Trazado_190240" data-name="Trazado 190240" d="M-372.848,628.9c-.017-7.385-.046-14.771-.048-22.156q-.01-29.544,0-59.088c0-2.845,1.6-4.159,3.84-3.222a2.98,2.98,0,0,1,1.652,2.29,5.193,5.193,0,0,1,.047,1.287q0,40.808,0,81.616c0,.492-.031.984-.048,1.475Z" transform="translate(426.314 -447.59)" fill="#a7b6ee"/>
      <path id="Trazado_190241" data-name="Trazado 190241" d="M-396.3,623.189q.008-37.6,0-75.2c0-1.442.2-2.675,1.5-3.5,2.579-.54,4.049.688,4.051,3.451q.016,17.7,0,35.407,0,20.377-.011,40.755c0,.706.256,1.492-.385,2.093A38.4,38.4,0,0,1-396.3,623.189Z" transform="translate(439.014 -447.713)" fill="#a7b6ee"/>
      <path id="Trazado_190242" data-name="Trazado 190242" d="M-419.665,615.278q.005-33.571.011-67.143c0-2.754.882-4.182,2.633-4.03,1.688.147,2.952,1.565,2.943,4.16-.074,23-.04,45.991-.055,68.988,0,.7.28,1.492-.381,2.087A32.03,32.03,0,0,1-419.665,615.278Z" transform="translate(451.694 -447.566)" fill="#a7b6ee"/>
      <path id="Trazado_190243" data-name="Trazado 190243" d="M-392.444,355.141l-.375-.056c-.032-.429-.325-.558-.676-.747-1.2-.646-2.182-1.594-1.741-3.067a3.147,3.147,0,0,1,3.132-2.407c3.254-.028,6.507-.009,9.761-.01,2.435,0,2.435,0,2.436-2.527s-.011-5.043.009-7.564c0-.591-.2-1.247.357-1.733,0,3.251.11,6.507-.038,9.751-.081,1.777.564,2.27,2.192,2.092,1.029-.112,2.079-.039,3.12-.049,4.144.021,8.289.013,12.432.078a2.709,2.709,0,0,1,2.986,2.581c.069,1.712-.648,2.82-2.483,2.955-.883,1.007-2.08.872-3.238.909-8.278.267-16.534-.731-24.812-.434a10.577,10.577,0,0,0-2.38.137A4.791,4.791,0,0,1-392.444,355.141Z" transform="translate(438.495 -335.187)" fill="#e8eefe"/>
      <path id="Trazado_190244" data-name="Trazado 190244" d="M-295.215,657.484c.042,1.225.129,2.455-.835,3.444a2.613,2.613,0,0,1-2.6.914,2.79,2.79,0,0,1-2.125-2.007,9.008,9.008,0,0,1,.213-5.212,2.336,2.336,0,0,1,2.5-1.763,2.613,2.613,0,0,1,2.535,1.736A7.4,7.4,0,0,1-295.215,657.484Z" transform="translate(387.339 -506.592)" fill="#fe9100"/>
      <path id="Trazado_190245" data-name="Trazado 190245" d="M-295.07,689.272a6.359,6.359,0,0,1-.354,3.143,2.634,2.634,0,0,1-3.032,1.542,2.243,2.243,0,0,1-2.1-2.2,14.084,14.084,0,0,1-.1-4.175c.324-1.587.917-2.408,2.574-2.484a2.72,2.72,0,0,1,2.979,2.4A6.681,6.681,0,0,1-295.07,689.272Z" transform="translate(387.174 -524.088)" fill="#fe9100"/>
      <path id="Trazado_190246" data-name="Trazado 190246" d="M-295.046,721.506a3.842,3.842,0,0,1-1.02,3.431,2.3,2.3,0,0,1-2.645.686,2.543,2.543,0,0,1-1.877-2.226,11.549,11.549,0,0,1-.044-3.807c.419-1.823,1.383-2.96,2.92-2.9,1.477.06,2.488,1.182,2.659,3C-295,720.245-295.046,720.8-295.046,721.506Z" transform="translate(387.174 -541.238)" fill="#fe9100"/>
      <path id="Trazado_190247" data-name="Trazado 190247" d="M-275.927,653.318c2.666-.889,4.283.2,4.41,2.97.031.668.011,1.339,0,2.008-.028,3.164-1.838,4.352-4.763,3.126C-277.55,659.45-277.366,655.165-275.927,653.318Z" transform="translate(374.336 -506.679)" fill="#fe9100"/>
      <path id="Trazado_190248" data-name="Trazado 190248" d="M-276.679,685.81a3.122,3.122,0,0,1,3.573-.543,3.1,3.1,0,0,1,1.582,3.261c-.048.73-.02,1.467-.007,2.2a2.831,2.831,0,0,1-1.6,2.856,2.643,2.643,0,0,1-3.209-.414C-277.646,690.773-277.124,688.29-276.679,685.81Z" transform="translate(374.357 -524.001)" fill="#fe9100"/>
      <path id="Trazado_190249" data-name="Trazado 190249" d="M-276.293,717.535c2.929-1.461,4.734-.356,4.784,2.947.03,1.952.351,4.019-1.824,5.2-2.489.471-3.766-.508-3.682-3.014C-276.958,720.945-277.581,719.094-276.293,717.535Z" transform="translate(374.33 -541.353)" fill="#fe9100"/>
      <path id="Trazado_190250" data-name="Trazado 190250" d="M-226.137,464.691c-3.957,1.571-4.043,1.7-4.044,6.175q0,7.074,0,14.147a3.289,3.289,0,0,1-.376,2.125c-.912.912-2.072.471-3.129.552-.911.07-1.83-.014-2.745.043a2.367,2.367,0,0,0-2.2,1.4,2.156,2.156,0,0,0,.553,2.515,2.961,2.961,0,0,1,.885,1.146c1.761.684,3.593.265,5.386.283,1.288.013,1.725.428,1.644,1.692-.09,1.4-.025,2.8-.027,4.2-.915.893-2.07.471-3.125.546-.969.069-1.949-.043-2.918.051-2.488.24-3.307,2.055-1.861,4.1a2.116,2.116,0,0,1,.533.937c1.883.752,3.843.262,5.762.3,1.3.024,1.714.453,1.636,1.707-.087,1.4-.02,2.809-.019,4.214-.756.747-1.724.49-2.62.537a18.437,18.437,0,0,0-4.214.242,2.162,2.162,0,0,0-1.757,2.284,2.156,2.156,0,0,0,1.753,2.1,18.565,18.565,0,0,0,4.214.242c.9.046,1.862-.2,2.628.521,0,1.34.06,2.685-.018,4.021-.168,2.869,1.276,4.677,3.7,5.894-.658.745-1.559.641-2.4.644q-8.743.035-17.487,0a3.657,3.657,0,0,1-2.3-.489,3.438,3.438,0,0,1-.519-2.292q-.016-31.847.007-63.695a3.594,3.594,0,0,1,.039-.365,37.144,37.144,0,0,1,.17-6.034c.674-1.218,1.508-.4,2.179-.075,5.807,2.795,11.69,5.429,17.432,8.358C-228.254,463.294-226.859,463.451-226.137,464.691Z" transform="translate(359.188 -398.558)" fill="#2a428b"/>
      <path id="Trazado_190251" data-name="Trazado 190251" d="M-229.909,457.046l-22.45-10.729a3.385,3.385,0,0,1-3.435-1.916,3.074,3.074,0,0,1,.257-3.316c.9-1.358,2.271-1.728,4.058-1.033,2.112.822,4.118,1.891,6.16,2.865q8.788,4.188,17.57,8.387c.7.335,1.512.562,1.9,1.355L-208.3,461.1c4.805,2.313,9.616,4.614,14.41,6.95a2.82,2.82,0,0,1,1.905,2.875c-.229,1.771-1.509,2.563-3.2,2.766q-12.725-6.107-25.451-12.214Q-225.27,459.255-229.909,457.046Z" transform="translate(362.96 -390.913)" fill="#4f71b5"/>
      <path id="Trazado_190252" data-name="Trazado 190252" d="M-259.774,612.413l22.106,0c2.229.14,4.052.977,4.991,3.13a4.974,4.974,0,0,1-.684,5.193c-.985,1.359-2.516,1.614-3.956,2.071-6.853,0-13.707-.071-20.558.037-2.7.042-5.34-.472-8.031-.439-1.557.019-3.271-1.778-3.75-3.59a5.162,5.162,0,0,1,2.2-5.428c.448-.312.935-.567,1.4-.848A7.44,7.44,0,0,1-259.774,612.413Z" transform="translate(370.359 -484.301)" fill="#fedc40"/>
      <path id="Trazado_190253" data-name="Trazado 190253" d="M-218.572,584.439c-1.954-.027-3.91-.035-5.863-.088-2.262-.062-3.449-1.119-3.4-2.97.048-1.758,1.211-2.73,3.394-2.786,1.954-.05,3.909-.059,5.863-.086l24.465.067c.429,0,.858,0,1.288,0,2.117.029,3.622,1.167,3.7,2.794.08,1.68-1.455,2.979-3.694,2.992-5.458.032-10.916,0-16.374.014C-212.319,584.385-215.445,584.418-218.572,584.439Z" transform="translate(347.584 -466.244)" fill="#72c2f8"/>
      <path id="Trazado_190254" data-name="Trazado 190254" d="M-225.611,532.367c-1.679-.554-2.577-1.691-2.17-3.462.389-1.691,1.689-2.2,3.336-2.154,1.82.05,3.645-.02,5.467-.037q12.888.027,25.775.057a9.708,9.708,0,0,1,1.654.046,2.669,2.669,0,0,1,2.362,2.846,2.585,2.585,0,0,1-2.367,2.634,10.644,10.644,0,0,1-1.837.049Q-209.5,532.358-225.611,532.367Z" transform="translate(347.607 -438.133)" fill="#73c2f8"/>
      <path id="Trazado_190255" data-name="Trazado 190255" d="M-225.994,558.221a2.782,2.782,0,0,1-1.768-3.559c.451-1.577,1.754-2.026,3.3-2.013,1.946.017,3.894-.039,5.84-.064l25.206.071a12.569,12.569,0,0,1,1.471.025,3.039,3.039,0,0,1,2.781,2.924,2.8,2.8,0,0,1-2.971,2.621c-4.355.031-8.71.016-13.065.014Q-215.6,558.235-225.994,558.221Z" transform="translate(347.623 -452.174)" fill="#72c2f8"/>
      <path id="Trazado_190256" data-name="Trazado 190256" d="M-174.9,662.43c-2.142,0-4.286.032-6.427-.007a2.7,2.7,0,0,1-2.9-2.653,2.7,2.7,0,0,1,2.863-2.891q6.518-.078,13.038,0a2.765,2.765,0,0,1,2.864,2.759,2.777,2.777,0,0,1-2.829,2.774C-170.489,662.476-172.694,662.428-174.9,662.43Z" transform="translate(323.916 -508.756)" fill="#73c2f8"/>
      <path id="Trazado_190257" data-name="Trazado 190257" d="M-171.088,630.957c1.778,0,3.558-.037,5.335.012a2.807,2.807,0,0,1,2.94,2.673,2.809,2.809,0,0,1-2.954,2.873q-5.334.075-10.671,0a2.773,2.773,0,0,1-2.911-2.889,2.781,2.781,0,0,1,2.925-2.661C-174.646,630.929-172.867,630.956-171.088,630.957Z" transform="translate(321.27 -494.701)" fill="#73c2f8"/>
      <path id="Trazado_190258" data-name="Trazado 190258" d="M-170.983,605.035c1.717,0,3.434-.026,5.15.006a2.84,2.84,0,0,1,3.026,2.563,2.856,2.856,0,0,1-2.54,2.92c-3.855.116-7.722.128-11.575-.036-1.588-.068-2.478-1.263-2.414-2.936a2.587,2.587,0,0,1,2.836-2.507C-174.662,605-172.822,605.036-170.983,605.035Z" transform="translate(321.264 -480.633)" fill="#72c2f8"/>
      <path id="Trazado_190259" data-name="Trazado 190259" d="M-271.789,533.6l-6.276.122-4.794-.129q-.011-19.18-.021-38.36a1.116,1.116,0,0,1,.6-.66c1.052-.544,1.845-1.292,1.645-2.587a2.573,2.573,0,0,0-2.288-2.088c-2.268-.112-4.53-.028-6.791-.053-1.438-.015-2.163-.686-2.178-2.111q-.1-9.551,0-19.1a2.426,2.426,0,0,1,.472-1.555,2.968,2.968,0,0,1,1.921-.488c5.2-.035,10.4-.027,15.606,0a2.709,2.709,0,0,1,2.059.6q.022,24.076.043,48.152Q-271.784,524.47-271.789,533.6Z" transform="translate(382.375 -405.49)" fill="#4faaf6"/>
      <path id="Trazado_190260" data-name="Trazado 190260" d="M-230.245,657.3c0-.551-.017-1.1.005-1.654a2.828,2.828,0,0,1,2.617-2.767,2.782,2.782,0,0,1,2.884,2.525,24.225,24.225,0,0,1,.025,3.49c-.085,1.736-1.536,3.246-3.022,3.06a2.633,2.633,0,0,1-2.517-3.183A13.465,13.465,0,0,0-230.245,657.3Z" transform="translate(348.912 -506.604)" fill="#fe9100"/>
      <path id="Trazado_190261" data-name="Trazado 190261" d="M-253.6,721.295c0-.552.022-1.105,0-1.656a2.584,2.584,0,0,1,2.483-2.872,2.476,2.476,0,0,1,2.9,2.193,12.389,12.389,0,0,1,.075,4.385,3.068,3.068,0,0,1-2.982,2.494c-1.571-.211-2.442-1.291-2.471-3.073C-253.6,722.276-253.6,721.785-253.6,721.295Z" transform="translate(361.569 -541.261)" fill="#fe9100"/>
      <path id="Trazado_190262" data-name="Trazado 190262" d="M-248.1,657.487c.075,1.226.179,2.468-.8,3.45a2.592,2.592,0,0,1-2.959.806,2.384,2.384,0,0,1-1.745-2.49c.032-1.1-.008-2.2.006-3.306a2.871,2.871,0,0,1,2.488-3.072,2.8,2.8,0,0,1,2.989,2.6A12.806,12.806,0,0,1-248.1,657.487Z" transform="translate(361.566 -506.594)" fill="#fe9100"/>
      <path id="Trazado_190263" data-name="Trazado 190263" d="M-253.593,689.544c0-.553-.019-1.107,0-1.659.071-1.815.859-2.673,2.515-2.763a2.7,2.7,0,0,1,2.965,2.39,20.107,20.107,0,0,1,.006,4.05,2.763,2.763,0,0,1-2.966,2.445c-1.547-.06-2.456-1.063-2.52-2.8C-253.61,690.651-253.593,690.1-253.593,689.544Z" transform="translate(361.567 -524.102)" fill="#fe9100"/>
      <path id="Trazado_190264" data-name="Trazado 190264" d="M-224.691,689.6c.026,3.123-.817,4.4-2.877,4.4-1.971,0-2.644-1.1-2.644-4.343,0-.615-.021-1.231.007-1.844.08-1.78.905-2.634,2.579-2.7a2.759,2.759,0,0,1,2.919,2.455A14.667,14.667,0,0,1-224.691,689.6Z" transform="translate(348.878 -524.104)" fill="#fe9100"/>
      <path id="Trazado_190265" data-name="Trazado 190265" d="M-287.816,427.566l-19.45.039a1.372,1.372,0,0,1-.553-1.122c-.052-4.236-.366-8.476.168-12.7.258-.6.822-.888,1.3-1.261a2.182,2.182,0,0,0,.869-2.591,2.078,2.078,0,0,0-2.171-1.378c-3.369-.091-6.739,0-10.109-.049a7.471,7.471,0,0,1-3.437-.338.406.406,0,0,1-.132-.555c3.68.005,7.36-.027,11.038.036a2.067,2.067,0,0,0,2.327-1.47,8.976,8.976,0,0,1,9.737-5.212,4.479,4.479,0,0,0,5.041-1.934,14.205,14.205,0,0,1,3.931-3.242c7.118-3.607,13.741-2.788,19.9,2.228a19.94,19.94,0,0,1,4.777,7.341,2.639,2.639,0,0,0,3.049,1.786,9.537,9.537,0,0,1,8.806,3.853c1.9,2.456,2.192,2.448,5.244,1.413a7.593,7.593,0,0,1,8.286,1.876,7.569,7.569,0,0,1,1.79,8.314,7.619,7.619,0,0,1-6.887,4.973c-5.65.035-11.3.032-16.949.045q-8.712-4.111-17.425-8.223c-2.877-1.357-5.732-2.765-8.643-4.042a2.555,2.555,0,0,0-3.529,1.313,2.717,2.717,0,0,0,1.267,3.736c.586.327,1.211.585,1.818.874Q-287.785,424.42-287.816,427.566Z" transform="translate(398.356 -365.871)" fill="#9ad7f8"/>
      <path id="Trazado_190266" data-name="Trazado 190266" d="M-358.066,397.4a1.866,1.866,0,0,0,0,.368,3.121,3.121,0,0,1-2.434.587q-13.08.026-26.159,0a4.436,4.436,0,0,1-2.162-.341.458.458,0,0,1-.213-.612l0,0a3.351,3.351,0,0,1,2.444-.546c3.059-.015,6.119,0,9.178-.009a5.335,5.335,0,0,0,2.011-.189,12.311,12.311,0,0,1-1.3-6.058c-.008-3.085-.021-6.169,0-9.25a9.343,9.343,0,0,1,.916-4.279c.521-.985.155-1.307-.867-1.3-3.31.023-6.62.017-9.929,0a3.4,3.4,0,0,1-2.452-.536c.3-.407.743-.372,1.171-.372,4.482,0,8.989-.29,13.44.081,4.726.393,9.433.116,14.144.292a6.088,6.088,0,0,0,2.35-.327,71.594,71.594,0,0,0-.155,8.652C-358.128,388.18-358.078,392.793-358.066,397.4Z" transform="translate(435.093 -355.666)" fill="#d9e1fd"/>
      <path id="Trazado_190267" data-name="Trazado 190267" d="M-364.867,515.926a2.446,2.446,0,0,1,2,2.659c-.017,1.735-1.3,2.473-2.794,2.891-16.077,0-32.161.275-48.229-.1-9.5-.22-18.993-.1-28.489-.239a2.583,2.583,0,0,1-2.089-2.635,2.408,2.408,0,0,1,2.095-2.587,1.36,1.36,0,0,1,.525-.146c4.9.227,9.782-.244,14.672-.378,16.3-.448,32.6-.66,48.889-.28C-373.843,515.217-369.34,515.619-364.867,515.926Z" transform="translate(465.155 -431.731)" fill="#e8eefe"/>
      <path id="Trazado_190268" data-name="Trazado 190268" d="M-326.129,558.2c0-3.624-.013-7.249.005-10.874.009-1.941,1.2-3.318,2.74-3.246a2.994,2.994,0,0,1,2.791,3.258q.018,10.874,0,21.747c0,1.993-1.077,3.258-2.7,3.3-1.676.043-2.823-1.287-2.828-3.311C-326.135,565.449-326.129,561.824-326.129,558.2Z" transform="translate(400.933 -447.556)" fill="#a7b6ee"/>
      <path id="Trazado_190269" data-name="Trazado 190269" d="M-302.746,558.188c0-3.622-.012-7.243.005-10.865.01-1.938,1.2-3.317,2.738-3.246a3,3,0,0,1,2.793,3.254q.02,10.865,0,21.73c0,1.991-1.063,3.262-2.677,3.321-1.676.061-2.841-1.267-2.852-3.328C-302.759,565.431-302.746,561.81-302.746,558.188Z" transform="translate(388.242 -447.555)" fill="#a7b6ee"/>
      <path id="Trazado_190270" data-name="Trazado 190270" d="M-409.01,424.829l30.964,0q6.6-.009,13.2-.021c2.232-.008,3.176.594,3.4,2.217.246,1.767-.416,2.625-2.582,3.348a3.141,3.141,0,0,1-2.259.589c-12.633,0-25.267.046-37.9-.015-5.355.032-10.71.026-16.065.015a4.02,4.02,0,0,1-2.8-.576l-.177-.016-.177.022c-1.617-.506-2.711-1.528-2.445-3.3a2.53,2.53,0,0,1,2.781-2.317A129.187,129.187,0,0,1-409.01,424.829Z" transform="translate(455.072 -382.719)" fill="#e8eefe"/>
      <path id="Trazado_190271" data-name="Trazado 190271" d="M-376.106,391.32a10.267,10.267,0,0,0,1.9,6.657h-14.784q0-10.894-.01-21.788c0-.125,0-.251,0-.376h14.612c-.787,2.064-1.994,3.791-1.725,5.913-.662.116-.945-.472-1.388-.758-1.631-1.052-3.395-.393-3.55,1.508a61.462,61.462,0,0,0-.012,8.275,2.1,2.1,0,0,0,1.451,1.952,2.118,2.118,0,0,0,2.332-.648C-376.942,391.734-376.72,391.2-376.106,391.32Z" transform="translate(435.053 -356.236)" fill="#bdc7f6"/>
      <path id="Trazado_190272" data-name="Trazado 190272" d="M-405.662,424.63l-14.058-.054c1.54-.575,3.136-.221,4.7-.257,3.116-.071,6.234-.042,9.351-.054C-405.658,424.386-405.657,424.508-405.662,424.63Z" transform="translate(451.724 -382.52)" fill="#bdc7f6"/>
      <path id="Trazado_190273" data-name="Trazado 190273" d="M-411.843,437.216l40.218-.011q.024,7.042.048,14.083c-.024,6.952-.029,13.9-.093,20.856-.011,1.128.489,1.326,1.449,1.3,2.026-.047,4.054-.026,6.08-.007.6.005,1.24-.165,1.762.309-15.526-.479-31.062-.6-46.584-.257-10.311.226-20.614.148-30.922.249,1.884-.722,3.838-.174,5.756-.313,1.151-.083,2.31-.046,3.466-.063a3.653,3.653,0,0,1,2.464-.507c4.224-.011,8.448.008,12.672-.011,1.9-.009,1.966-.126,1.2-1.825a9.414,9.414,0,0,1-.863-2.609c.356-8.254.329-16.507.019-24.758C-414.936,441.062-414.342,438.644-411.843,437.216Z" transform="translate(462.668 -389.554)" fill="#d9e1fd"/>
      <path id="Trazado_190274" data-name="Trazado 190274" d="M-403.82,468.611a23.256,23.256,0,0,0,1.524,3.339c.831,1.273.487,1.488-.847,1.477-5.525-.049-11.05-.037-16.575-.047q.008-18.075.016-36.15l18.8,0a11.2,11.2,0,0,0-2.933,5.9c-.452.166-.827-.088-1.23-.215-2.192-.692-3.339.049-3.363,2.374q-.11,10.58,0,21.16c.027,2.587,1.3,3.315,3.729,2.311A1.193,1.193,0,0,1-403.82,468.611Z" transform="translate(451.723 -389.566)" fill="#bdc7f6"/>
      <path id="Trazado_190275" data-name="Trazado 190275" d="M-367.392,396.081a4.1,4.1,0,0,1-2.409,2.106,2.684,2.684,0,0,1-3.1-2.82c-.059-2.521.062-5.047-.044-7.565a2.824,2.824,0,0,1,1.871-3.046,2.682,2.682,0,0,1,3.312,1.325,3.1,3.1,0,0,0,.363.407Q-367.394,391.285-367.392,396.081Z" transform="translate(426.338 -360.997)" fill="#a7b6ee"/>
      <path id="Trazado_190276" data-name="Trazado 190276" d="M-344,391.574c0,1.29.05,2.584-.01,3.872a2.8,2.8,0,0,1-2.9,2.7,2.5,2.5,0,0,1-2.611-2.71c-.057-2.642-.038-5.286-.008-7.929a2.7,2.7,0,0,1,2.532-2.815,2.787,2.787,0,0,1,2.973,2.643C-343.924,388.742-344,390.16-344,391.574Z" transform="translate(413.642 -361.053)" fill="#a7b6ee"/>
      <path id="Trazado_190277" data-name="Trazado 190277" d="M-326.188,461.142c0-3.685.094-7.373-.039-11.053a2.814,2.814,0,0,1,2.755-3.031,2.85,2.85,0,0,1,2.821,2.99q.035,11.147,0,22.295a2.82,2.82,0,0,1-2.963,3.046,2.849,2.849,0,0,1-2.567-3.008C-326.2,468.635-326.188,464.888-326.188,461.142Z" transform="translate(400.985 -394.896)" fill="#a7b6ee"/>
      <path id="Trazado_190278" data-name="Trazado 190278" d="M-349.515,461.466c0-3.569-.012-7.138,0-10.706.01-2.2.819-3.093,2.733-3.1,1.7-.006,2.788,1.165,2.794,3.161q.036,10.8,0,21.6a2.99,2.99,0,0,1-2.847,3.212c-1.6.06-2.674-1.219-2.683-3.274C-349.528,468.726-349.515,465.1-349.515,461.466Z" transform="translate(413.625 -395.229)" fill="#a7b6ee"/>
      <path id="Trazado_190279" data-name="Trazado 190279" d="M-372.9,461.44c0-3.569-.014-7.138,0-10.706.011-2.186.835-3.079,2.757-3.075a2.738,2.738,0,0,1,2.766,3q.049,10.983,0,21.966a2.955,2.955,0,0,1-2.867,3,2.674,2.674,0,0,1-2.65-2.929C-372.93,468.947-372.9,465.194-372.9,461.44Z" transform="translate(426.32 -395.228)" fill="#a7b6ee"/>
      <path id="Trazado_190280" data-name="Trazado 190280" d="M-391.095,474.231c-.993.951-1.981,1.8-3.53,1.113-1.527-.677-1.649-1.943-1.646-3.35q.021-10.388.005-20.775c0-1.291-.136-2.637,1.344-3.318a3.2,3.2,0,0,1,3.816.846,9.206,9.206,0,0,1,.384,2.893c-.023,5.646-.01,11.291-.012,16.937A22.907,22.907,0,0,1-391.095,474.231Z" transform="translate(438.998 -395.186)" fill="#a7b6ee"/>
    </g>
  </g>
</svg>
