<svg xmlns="http://www.w3.org/2000/svg" width="105" height="104.945" viewBox="0 0 105 104.945">
  <g id="Grupo_134850" data-name="Grupo 134850" transform="translate(-600 -2265.999)">
    <path id="Trazado_190367" data-name="Trazado 190367" d="M1436.411,659.426h-2.461c-.3-.064-.593-.153-.894-.189a17.132,17.132,0,0,1-14.3-21.987,51.063,51.063,0,0,1,2.8-6.055l-6.688-6.689c-9.976,7.266-19.993,7.245-29.946-.065l-6.9,6.917c.111.158.263.381.424.6a17.1,17.1,0,0,1-6.35,25.64,40.7,40.7,0,0,1-6.241,1.829h-2.461c-.264-.06-.525-.14-.791-.177a16.692,16.692,0,0,1-13.432-9.61,38.088,38.088,0,0,1-1.776-5.593v-3.691a4.616,4.616,0,0,0,.2-.669,17.218,17.218,0,0,1,27.3-11.294c.234.176.485.33.561.381l6.915-6.909c-7.282-9.971-7.259-19.992.025-29.9l-6.917-6.92c-.12.087-.314.222-.5.365a17.109,17.109,0,0,1-25.765-6.188,41.782,41.782,0,0,1-1.811-5.711v-3.691a4.425,4.425,0,0,0,.2-.663,17.206,17.206,0,1,1,33.756,6.523,17.742,17.742,0,0,1-3.24,6.7l6.928,6.954c9.957-7.232,19.946-7.21,29.874.063l6.859-6.854a17.126,17.126,0,1,1,2.526,2.557l-6.825,6.853c7.3,10,7.3,20.012,0,29.964l6.875,6.865a.332.332,0,0,0,.1-.049c.114-.075.224-.157.333-.238a16.977,16.977,0,0,1,12.836-3.33,17.26,17.26,0,0,1,14.542,14.167,17.008,17.008,0,0,1-9.321,18.19A44.439,44.439,0,0,1,1436.411,659.426Zm-21.746-39.665c6.072-6.375,7.295-18.462-.762-26.659a19.713,19.713,0,0,0-28.261.324c-7.84,8.444-6.2,20.389-.482,26.236-.125-5.771,2.015-10.358,6.7-13.625a9.859,9.859,0,0,1,13.728-13.7,10.058,10.058,0,0,1,2.46,13.752,15.018,15.018,0,0,1,5.124,5.839A15.656,15.656,0,0,1,1414.665,619.761Zm-3.263.135h-.025c0-.717.045-1.438-.008-2.151a11.369,11.369,0,0,0-5.108-8.9,1.1,1.1,0,0,0-1.371-.034,9.427,9.427,0,0,1-9.921-.006,1.106,1.106,0,0,0-1.37.048,11.716,11.716,0,0,0-4.385,5.522c-.976,2.5-.716,5.106-.785,7.691a1.322,1.322,0,0,0,.727,1.309,19.375,19.375,0,0,0,19.878.973c2.4-1.182,2.367-1.247,2.367-3.937Zm35.026,30.256c3.455-4.222,4.14-12.291-1.4-17.836a13.876,13.876,0,0,0-19.5-.149,13.649,13.649,0,0,0-1.565,18.008,11.516,11.516,0,0,1,4.679-8.75c-1.788-4.264-1.141-7.6,1.894-10.045a7.677,7.677,0,0,1,8.986-.257,7.52,7.52,0,0,1,2.825,3.677,7.786,7.786,0,0,1-.644,6.609A11.529,11.529,0,0,1,1446.428,650.153Zm-70.6.076a13.781,13.781,0,0,0-2.179-18.642,14.022,14.022,0,0,0-19.187,1.041c-5.337,5.731-4.31,13.774-1.3,17.239a29.078,29.078,0,0,1,1.662-4.665,30.751,30.751,0,0,1,3.136-4.049c-1.741-3.689-1.095-7.213,1.863-9.666a7.648,7.648,0,0,1,9.145-.344c3.205,2.288,3.971,5.8,2.2,10.293A11.512,11.512,0,0,1,1375.833,650.229Zm48.128-70.491a11.5,11.5,0,0,1,4.667-8.783c-1.719-4.67-1-7.989,2.186-10.289a7.691,7.691,0,0,1,8.91.119c3.129,2.422,3.795,5.708,2.02,10.162a11.572,11.572,0,0,1,4.7,8.74,13.7,13.7,0,0,0-1.611-18.037,13.862,13.862,0,0,0-20.872,18.088Zm-48.114,0a13.875,13.875,0,0,0-22.006-16.889c-4.818,5.842-3.371,13.6-.45,16.719a11.441,11.441,0,0,1,4.668-8.633c-1.776-4.355-1.123-7.656,1.953-10.1a7.675,7.675,0,0,1,8.989-.166c3.175,2.3,3.869,5.522,2.184,10.289A11.5,11.5,0,0,1,1375.846,579.741Zm67.3,72.1c.15-3.161-.741-5.7-3.144-7.591a1.006,1.006,0,0,0-1.269-.157,7.21,7.21,0,0,1-7.056.01,1,1,0,0,0-1.271.131,6.806,6.806,0,0,0-2.673,3.773,30.336,30.336,0,0,0-.48,4.858,1.471,1.471,0,0,0,.63,1.089,13.728,13.728,0,0,0,13.485.708C1442.662,654.081,1443.694,653.335,1443.141,651.842Zm-86.5-.578a7.8,7.8,0,0,1-.007,1.092,1.652,1.652,0,0,0,1.085,1.9,13.986,13.986,0,0,0,13.158.359c1.259-.578,2.08-1.336,1.721-2.869a5.977,5.977,0,0,1-.026-1.124,8.139,8.139,0,0,0-3.076-6.322,1.13,1.13,0,0,0-1.444-.16,7.158,7.158,0,0,1-6.874,0,1.131,1.131,0,0,0-1.444.152A8.151,8.151,0,0,0,1356.642,651.264Zm0-70.14a6.459,6.459,0,0,0,.022,1.327,1.564,1.564,0,0,0,.533.952,13.775,13.775,0,0,0,13.673.73c1.277-.58,2.066-1.341,1.729-2.864a6.37,6.37,0,0,1-.025-1.124,8.143,8.143,0,0,0-3.065-6.329,1.123,1.123,0,0,0-1.438-.171,7.091,7.091,0,0,1-6.872.014,1.182,1.182,0,0,0-1.525.2A8.376,8.376,0,0,0,1356.641,581.124Zm86.494.224c0-.646.027-1.126,0-1.6a7.768,7.768,0,0,0-3.22-6.016,1.327,1.327,0,0,0-1.141-.095,7.7,7.7,0,0,1-7.187-.023,1.244,1.244,0,0,0-1.056.083,6.213,6.213,0,0,0-2.749,3.7,31.1,31.1,0,0,0-.53,4.952,1.462,1.462,0,0,0,.605,1.1,13.686,13.686,0,0,0,13.489.721C1442.632,583.585,1443.708,582.879,1443.134,581.348Zm-36.66,19.047a6.55,6.55,0,1,0-6.536,6.526A6.592,6.592,0,0,0,1406.474,600.4Zm-37.533,36.97a4.327,4.327,0,1,0-4.362,4.369A4.362,4.362,0,0,0,1368.942,637.365Zm70.574-.03a4.327,4.327,0,1,0-4.326,4.4A4.347,4.347,0,0,0,1439.516,637.336Zm-74.858-74.767a4.3,4.3,0,0,0-4.369,4.225,4.326,4.326,0,1,0,4.369-4.225Zm66.2,4.286a4.326,4.326,0,1,0,8.652.074,4.326,4.326,0,0,0-8.652-.074Z" transform="translate(-747.395 1711.518)" fill="#0d2380"/>
  </g>
</svg>
