<svg xmlns="http://www.w3.org/2000/svg" width="72.203" height="72.208" viewBox="0 0 72.203 72.208">
  <g id="Grupo_134839" data-name="Grupo 134839" transform="translate(-9921.791 8385)">
    <g id="Grupo_132733" data-name="Grupo 132733" transform="translate(5211.805 -9369.572)">
      <path id="Trazado_188572" data-name="Trazado 188572" d="M4709.986,1012.074c.134-.589.255-1.181.4-1.766a13.185,13.185,0,0,1,11.024-9.949c.182-.027.361-.079.6-.131,0-1.97.012-3.917-.02-5.864,0-.164-.271-.4-.465-.474a4.842,4.842,0,1,1,3.452-.043.7.7,0,0,0-.562.8c.021,1.692.015,3.384,0,5.076,0,.353.062.579.469.626a13.15,13.15,0,0,1,6.871,2.993l3.366-2.874c1.126-.962,2.263-1.911,3.366-2.9a1.342,1.342,0,0,0,.415-.812,13.319,13.319,0,0,1,12.154-12.135,13.18,13.18,0,0,1,13.806,9.789,2.669,2.669,0,0,0,1.677,2.05c2.406,1.054,4.752,2.246,7.111,3.406a1,1,0,0,0,1.139-.045,4.554,4.554,0,0,1,5.237.018,4.494,4.494,0,0,1,2.086,4.742,4.592,4.592,0,0,1-3.521,3.886,4.8,4.8,0,0,1-5.889-5.666c.047-.2.1-.4.161-.65l-7.529-3.632a13.433,13.433,0,0,1-4.344,9.117c.374.5.735.984,1.1,1.468,1.594,2.123,3.179,4.254,4.8,6.359a1.154,1.154,0,0,0,.792.4,13.256,13.256,0,0,1,13.033,10.5c1.627,7.084-3.4,14.633-10.529,15.75-5.906.925-10.458-1.237-13.741-6.18-.039-.058-.081-.114-.125-.168a.816.816,0,0,0-.129-.08c-1.507,1.131-3.046,2.274-4.563,3.444-.106.082-.1.369-.079.55.182,1.3.369,2.6.592,3.887a.945.945,0,0,0,.406.62q4.043,1.991,8.116,3.917a.811.811,0,0,0,.673-.031,4.676,4.676,0,0,1,5.431-.11,4.482,4.482,0,0,1,2.121,4.73,4.649,4.649,0,0,1-3.77,3.983,1.665,1.665,0,0,0-.254.11h-1.411a5.656,5.656,0,0,1-2.838-1.583,4.843,4.843,0,0,1-.975-4.906l-7.832-3.778c-.069.2-.114.306-.146.418a13.125,13.125,0,0,1-8.711,9.2c-.806.283-1.659.433-2.49.644h-3.1a1.455,1.455,0,0,0-.317-.129,13.2,13.2,0,0,1-11.253-11.324c-.066-.43-.219-.588-.669-.581q-2.534.038-5.069,0c-.446-.006-.625.136-.791.568a4.792,4.792,0,0,1-6.722,2.45,5.194,5.194,0,0,1-2.543-3.537v-1.41a3.214,3.214,0,0,0,.128-.324,4.809,4.809,0,0,1,9.226-.551.886.886,0,0,0,.678.386c1.668.033,3.338-.008,5.006.032.569.014.689-.214.774-.715a12.733,12.733,0,0,1,8.409-10.441,12.6,12.6,0,0,1,13.357,2.415,33.108,33.108,0,0,1,2.97,3.287c1.327-1,2.721-2.073,4.153-3.1a.844.844,0,0,0,.359-1.1,13.119,13.119,0,0,1,6.2-15.1,33.762,33.762,0,0,1,3.15-1.424l-5.319-7.084a13,13,0,0,1-12.3.812,13.2,13.2,0,0,1-7.7-9.664l-5.618,4.807a13.5,13.5,0,0,1,2.969,7.431,1.221,1.221,0,0,0,.481.711c1.878,1.489,3.784,2.943,5.656,4.44a.838.838,0,0,0,1.156.1,4.389,4.389,0,0,1,3.459-.529,4.8,4.8,0,1,1-5.671,3.321.73.73,0,0,0-.317-.938c-1.054-.787-2.081-1.611-3.12-2.419-.584-.453-1.172-.9-1.792-1.378-.1.407-.186.725-.269,1.041a13.2,13.2,0,0,1-25.141,1.31c-.4-1.094-.595-2.259-.885-3.392Zm36.11,39.424a10.608,10.608,0,0,0,2.977-11.556,10.77,10.77,0,0,0-11.383-7.154,10.935,10.935,0,0,0-9.484,8.824c-.765,4.236,1.348,8.453,3.427,9.778a1.958,1.958,0,0,0,.025-.282,3.763,3.763,0,0,1,4.048-3.96c2.113.066,4.231-.017,6.346.032a5.049,5.049,0,0,1,1.972.4A3.692,3.692,0,0,1,4746.1,1051.5Zm-15.54-30.168a10.694,10.694,0,0,0,2.726-11.892,10.828,10.828,0,0,0-20.831,2.939c-.411,3.206,1.532,8.122,3.543,8.916.007-.145.015-.283.021-.421a3.538,3.538,0,0,1,3.56-3.76c2.438-.116,4.887-.066,7.328-.008a3.407,3.407,0,0,1,3.233,2.219A10.7,10.7,0,0,1,4730.556,1021.33ZM4775.027,1037a10.554,10.554,0,0,0,3.059-11.167,10.832,10.832,0,0,0-20.843.7c-1.091,4.361.93,8.78,3.255,10.444.018-.247.029-.479.051-.711a3.5,3.5,0,0,1,3.462-3.493c2.529-.117,5.073-.109,7.6.014a3.522,3.522,0,0,1,3.375,3.51C4775.005,1036.516,4775.013,1036.741,4775.027,1037Zm-30.179-31.259c.02-.27.032-.455.046-.64a3.561,3.561,0,0,1,3.628-3.637c2.464-.092,4.938-.079,7.4.026a3.546,3.546,0,0,1,3.418,3.546c.013.218.03.436.049.7a10.634,10.634,0,0,0,3.033-11.23,10.821,10.821,0,0,0-20.61-.01A10.63,10.63,0,0,0,4744.848,1005.738Zm22.942,29.374c-1.1,0-2.206-.022-3.308.006-1.059.027-1.5.482-1.535,1.5-.016.539.025,1.081-.013,1.617-.031.433.167.618.536.771a10.887,10.887,0,0,0,7.613.356c1.5-.466,1.5-.474,1.5-2.055,0-.188,0-.375,0-.563-.016-1.144-.467-1.611-1.628-1.632C4769.9,1035.1,4768.846,1035.111,4767.791,1035.112Zm-44.529-15.641v.007c-1.149,0-2.3-.032-3.447.01a1.262,1.262,0,0,0-1.389,1.409c-.014.563.023,1.127-.012,1.688a.691.691,0,0,0,.515.778,10.961,10.961,0,0,0,7.614.363c1.5-.456,1.5-.472,1.5-2.053,0-.188,0-.375,0-.563-.008-1.154-.447-1.614-1.612-1.635C4725.374,1019.456,4724.317,1019.471,4723.262,1019.471Zm10.808,32.36a2.479,2.479,0,0,1,0,.422c-.131.747.189,1.111.9,1.366a11.379,11.379,0,0,0,7.7.046c.766-.258,1.192-.62,1.033-1.485a5.794,5.794,0,0,1-.01-.984c-.009-1.174-.443-1.618-1.617-1.623-1.924-.008-3.848,0-5.772,0C4734.26,1049.572,4734.07,1049.764,4734.07,1051.831Zm18.044-48v0c-1.126,0-2.252-.025-3.377.007-.975.028-1.4.478-1.429,1.445-.017.539.023,1.08-.012,1.617a.731.731,0,0,0,.558.824,10.9,10.9,0,0,0,7.812.264c1.278-.425,1.275-.435,1.275-1.794,0-.234,0-.469,0-.7-.01-1.208-.437-1.646-1.66-1.662C4754.225,1003.823,4753.169,1003.834,4752.114,1003.834Zm-34.932,39.731a2.391,2.391,0,0,0-2.395-2.427,2.433,2.433,0,0,0-2.393,2.381,2.406,2.406,0,0,0,2.417,2.413A2.356,2.356,0,0,0,4717.182,1043.564Zm6-51.8a2.392,2.392,0,0,0,2.446-2.376,2.436,2.436,0,0,0-2.362-2.41,2.407,2.407,0,0,0-2.432,2.4A2.358,2.358,0,0,0,4723.186,991.768Zm25.308,30.085a2.4,2.4,0,1,0-2.406,2.425A2.388,2.388,0,0,0,4748.494,1021.854Zm13.26,30.107a2.4,2.4,0,1,0,4.794.013,2.4,2.4,0,0,0-4.794-.013ZM4775,1003.808a2.393,2.393,0,0,0,2.4,2.419,2.394,2.394,0,1,0-.026-4.788A2.383,2.383,0,0,0,4775,1003.808Z" transform="translate(0 0)" fill="#0d2380"/>
      <path id="Trazado_188573" data-name="Trazado 188573" d="M4846.414,1275.531a4.8,4.8,0,0,1,9.6.139,4.8,4.8,0,1,1-9.6-.139Zm2.4.064a2.392,2.392,0,0,0,2.4,2.421,2.4,2.4,0,1,0-.025-4.791A2.378,2.378,0,0,0,4848.817,1275.6Z" transform="translate(-112.332 -235.686)" fill="#0d2380"/>
      <path id="Trazado_188574" data-name="Trazado 188574" d="M4762.59,1110.029a4.8,4.8,0,1,1,.043-9.6,4.8,4.8,0,0,1-.043,9.6Zm.032-2.405a2.4,2.4,0,0,0,2.379-2.38,2.446,2.446,0,0,0-2.433-2.416,2.412,2.412,0,0,0-2.363,2.469A2.368,2.368,0,0,0,4762.622,1107.624Z" transform="translate(-39.368 -95.391)" fill="#0d2380"/>
      <path id="Trazado_188575" data-name="Trazado 188575" d="M5014.744,1198.629a4.8,4.8,0,1,1,.025-9.6,4.8,4.8,0,0,1-.025,9.6Zm.011-2.407a2.4,2.4,0,0,0,2.388-2.371,2.436,2.436,0,0,0-2.419-2.425,2.4,2.4,0,0,0-2.372,2.386A2.367,2.367,0,0,0,5014.754,1196.222Z" transform="translate(-246.977 -168.342)" fill="#0d2380"/>
      <path id="Trazado_188576" data-name="Trazado 188576" d="M4926.157,1021.432a4.8,4.8,0,0,1-.041-9.609,4.8,4.8,0,1,1,.041,9.609Zm.006-2.406a2.41,2.41,0,0,0,2.4-2.363,2.454,2.454,0,0,0-2.417-2.436,2.407,2.407,0,0,0-2.378,2.455A2.361,2.361,0,0,0,4926.163,1019.026Z" transform="translate(-174.039 -22.437)" fill="#0d2380"/>
    </g>
  </g>
</svg>
