<svg xmlns="http://www.w3.org/2000/svg" width="72.208" height="72.208" viewBox="0 0 72.208 72.208">
  <g id="Grupo_134840" data-name="Grupo 134840" transform="translate(-9921.792 8171)">
    <g id="Grupo_132685" data-name="Grupo 132685" transform="translate(9187.252 -8335.532)">
      <path id="Trazado_187978" data-name="Trazado 187978" d="M734.54,188.366c.081-.163.167-.323.241-.489a3.031,3.031,0,0,1,2.7-1.95,2.937,2.937,0,0,1,2.94,1.557.95.95,0,0,0,1,.547c1.735-.02,3.47-.008,5.276-.008.016-.315.039-.564.039-.813,0-1.786-.008-3.572.006-5.358a1.62,1.62,0,0,1,1.441-1.862,43.7,43.7,0,0,0,11.568-4.868c7.205-4.114,14.459-4.116,21.705-.059,1.2.674,2.409,1.346,3.726,2.081.025-.351.053-.569.054-.787,0-1.692.016-3.384-.014-5.076a.978.978,0,0,0-.349-.724,3.136,3.136,0,0,1-1.712-3.15,3.04,3.04,0,0,1,2.272-2.753.624.624,0,0,0,.158-.122H787c.163.081.323.167.489.241a3.029,3.029,0,0,1,1.949,2.705,2.962,2.962,0,0,1-1.556,2.943.911.911,0,0,0-.538.932q.033,3.067,0,6.134c0,.435.1.692.547.831,1.656.517,3.291,1.1,4.955,1.584,1.338.391,1.7.776,1.7,2.178q.005,4.512,0,9.025a3.1,3.1,0,0,1-.053.7,1.031,1.031,0,0,1-2.012-.024,3.856,3.856,0,0,1-.047-.771c0-2.8-.01-5.594.006-8.39,0-.444-.111-.659-.579-.777a41.261,41.261,0,0,1-11.153-4.779,19.1,19.1,0,0,0-11.715-2.8,18.092,18.092,0,0,0-7.792,2.456,44.263,44.263,0,0,1-11.9,5.159c-.506.125-.439.463-.439.809,0,3.337-.008,6.675,0,10.012s-.043,6.677.074,10.01a20.372,20.372,0,0,0,3.4,10.525c.128.2.273.384.386.589a1.043,1.043,0,0,1-.3,1.433,1,1,0,0,1-1.431-.267,26.541,26.541,0,0,1-1.513-2.456,23.944,23.944,0,0,1-2.74-11.6c0-.84,0-1.68,0-2.608-.894,0-1.711-.037-2.52.027-.192.015-.39.345-.531.564a3.172,3.172,0,1,1-3.662-4.68,3.1,3.1,0,0,1,3.693,1.445.874.874,0,0,0,.934.531c.652-.036,1.309-.009,2.024-.009v-6.064H745.6c-1.457,0-2.915-.015-4.371.016a.9.9,0,0,0-.66.338,3.125,3.125,0,0,1-3.148,1.714,3.037,3.037,0,0,1-2.754-2.271.62.62,0,0,0-.122-.158Zm52.8-20.693a1.04,1.04,0,1,0-1.043,1.083A1.046,1.046,0,0,0,787.337,167.674ZM737.7,190.111a1.04,1.04,0,1,0-1.041-1.015A1.049,1.049,0,0,0,737.7,190.111Zm3.292,8.178a1.038,1.038,0,1,0-.007-2.077,1.039,1.039,0,1,0,.007,2.077Z" transform="translate(0)" fill="#0d2380"/>
      <path id="Trazado_187979" data-name="Trazado 187979" d="M921.93,384.832c-.081.162-.167.322-.241.488a3.033,3.033,0,0,1-2.7,1.95,2.955,2.955,0,0,1-2.943-1.554.909.909,0,0,0-.934-.532c-1.756.023-3.514.009-5.292.009-.115,2.047-.227,4.025-.342,6.062.886,0,1.8.031,2.711-.024.2-.012.42-.307.553-.521a3.179,3.179,0,0,1,3.311-1.514,3.169,3.169,0,0,1,.608,6.053,3.088,3.088,0,0,1-3.818-1.243,1.1,1.1,0,0,0-1.163-.642c-.75.037-1.506-.025-2.253.031a.841.841,0,0,0-.624.442,25.439,25.439,0,0,1-7.4,11.533,45.51,45.51,0,0,1-14.634,9.333,2.406,2.406,0,0,1-1.9-.015,47.334,47.334,0,0,1-8.532-4.458c-.15-.1-.309-.185-.586-.35v1.21c0,1.551-.016,3.1.016,4.651a.977.977,0,0,0,.351.722,3.127,3.127,0,0,1,1.708,3.15,3.031,3.031,0,0,1-2.272,2.751c-.059.02-.1.081-.156.123h-1.41c-.162-.081-.322-.167-.488-.241a3.037,3.037,0,0,1-1.951-2.705A2.958,2.958,0,0,1,873.1,416.6a.913.913,0,0,0,.538-.932q-.032-3.385,0-6.769a1.2,1.2,0,0,0-.484-1.009q-1.938-1.69-3.813-3.452c-.813-.764-.9-1.336-.382-1.861s1.13-.39,1.869.367a42.389,42.389,0,0,0,14.239,9.548,1.8,1.8,0,0,0,1.526,0,42.849,42.849,0,0,0,15.261-10.622,21.54,21.54,0,0,0,5.763-15.159c0-1.6-.012-3.2.012-4.795a1.063,1.063,0,0,1,1.079-1.141,1.091,1.091,0,0,1,1.02,1.136c.013.187,0,.376.008.564.005.161.019.322.036.6h1.47c1.34,0,2.68.016,4.019-.017a.892.892,0,0,0,.647-.357,3.12,3.12,0,0,1,3.148-1.712,3.037,3.037,0,0,1,2.753,2.273c.02.059.081.1.123.157Zm-3.173-1.746a1.041,1.041,0,1,0,1.052,1.075A1.048,1.048,0,0,0,918.756,383.087Zm-43.034,36.26a1.039,1.039,0,1,0-1.037,1.02A1.046,1.046,0,0,0,875.723,419.347Zm39.723-28.077a1.039,1.039,0,1,0,.065,2.076,1.039,1.039,0,1,0-.065-2.076Z" transform="translate(-115.182 -185.748)" fill="#0d2380"/>
      <path id="Trazado_187980" data-name="Trazado 187980" d="M851.033,265.81q0-4.266,0-8.531c0-1.56.224-1.806,1.671-2.361,1.751-.672,3.464-1.441,5.207-2.135a1.528,1.528,0,0,1,1.056-.112,1.2,1.2,0,0,1,.638.878,1.417,1.417,0,0,1-.652,1.029c-1.723.8-3.488,1.5-5.243,2.226-.315.13-.571.214-.569.66.026,5.5-.042,11,.066,16.5a16.509,16.509,0,0,0,4.655,11.186,37.711,37.711,0,0,0,12.324,8.866,1.5,1.5,0,0,0,1.1-.013,36.952,36.952,0,0,0,12.953-9.64,16.887,16.887,0,0,0,4.022-11.3c.022-5.147,0-10.294.015-15.441a.715.715,0,0,0-.552-.819,52.075,52.075,0,0,1-9.4-4.439,14.573,14.573,0,0,0-14.1-.614c-.425.2-.823.451-1.238.671a1.076,1.076,0,0,1-1.584-.337,1.05,1.05,0,0,1,.511-1.483,16.825,16.825,0,0,1,9.122-2.461,16.494,16.494,0,0,1,8.241,2.327,50.007,50.007,0,0,0,9.868,4.6,1.628,1.628,0,0,1,1.236,1.679c-.019,6.039.1,12.084-.12,18.116a17.971,17.971,0,0,1-5.17,11.745,40.815,40.815,0,0,1-13.385,9.549,2.217,2.217,0,0,1-1.95.009,40.668,40.668,0,0,1-13.444-9.585,19.43,19.43,0,0,1-5.272-13.723Q851.031,269.335,851.033,265.81Z" transform="translate(-100.063 -71.813)" fill="#0d2380"/>
      <path id="Trazado_187981" data-name="Trazado 187981" d="M935.83,346.9c0-.727-.056-1.454.011-2.17a5.27,5.27,0,0,1,8.443-3.713,5.172,5.172,0,0,1,2.086,4.34c0,.512,0,1.023,0,1.543.191.037.3.065.417.079a2.444,2.444,0,0,1,2.4,2.67c.018,2.02.005,4.041.005,6.061,0,.7.017,1.41-.007,2.114a2.388,2.388,0,0,1-2.464,2.528q-5.637.067-11.275,0a2.365,2.365,0,0,1-2.462-2.524q-.044-4.158,0-8.316a2.406,2.406,0,0,1,2.319-2.527C935.439,346.966,935.575,346.939,935.83,346.9Zm5.31,2.195c-1.739,0-3.479.026-5.217-.013-.655-.014-.853.209-.846.85q.043,3.736,0,7.472c-.007.629.175.873.834.868q5.181-.036,10.363,0c.614,0,.816-.21.81-.82-.026-2.514-.031-5.029,0-7.543.009-.676-.252-.836-.872-.824C944.524,349.114,942.832,349.093,941.14,349.093Zm3.074-2.159c0-.731.054-1.432-.011-2.123a3.147,3.147,0,0,0-6.166-.426,17.509,17.509,0,0,0-.161,2.548Z" transform="translate(-170.438 -150.633)" fill="#0d2380"/>
      <path id="Trazado_187982" data-name="Trazado 187982" d="M974.331,410.772a3.02,3.02,0,0,1-1.6,2.708.8.8,0,0,0-.507.873,3.12,3.12,0,0,1-.029.77.968.968,0,0,1-1,.895c-.558.011-1.052-.306-1.012-.852a2.341,2.341,0,0,0-1.191-2.185,3,3,0,0,1-.58-3.787,3.165,3.165,0,0,1,5.924,1.577Zm-2.119-.021a1.041,1.041,0,1,0-1.082,1.047A1.053,1.053,0,0,0,972.212,410.751Z" transform="translate(-200.528 -208.77)" fill="#0d2380"/>
    </g>
  </g>
</svg>
