<svg xmlns="http://www.w3.org/2000/svg" width="101.773" height="103.469" viewBox="0 0 101.773 103.469">
  <g id="Grupo_134851" data-name="Grupo 134851" transform="translate(-14901.245 9168)">
    <g id="Grupo_133520" data-name="Grupo 133520" transform="translate(12980.078 -9244.12)">
      <path id="Trazado_190382" data-name="Trazado 190382" d="M1974.062,76.12a47.868,47.868,0,0,1,5.1,1.061c9.459,3.026,15.529,9.358,17.691,19.068a25.261,25.261,0,0,1-17.965,29.779,30.236,30.236,0,0,1-4.26.784c-.666.087-.935.261-.919.971.043,1.947.015,3.895.015,5.948.51.022.932.057,1.355.057q18.288,0,36.575,0c2.36,0,2.792.427,2.793,2.749,0,2.829.012,5.658-.01,8.487,0,.537.09.848.687,1a10.13,10.13,0,0,1,3.643,17.986,1.166,1.166,0,0,1-.189.126,26.019,26.019,0,0,1,2.9,3.664,12.014,12.014,0,0,1,1.285,4.178,42.449,42.449,0,0,1,.141,5.745,1.688,1.688,0,0,1-1.839,1.844q-8.336.033-16.671.005c-.959,0-1.768-.5-1.761-1.453a60.135,60.135,0,0,1,.4-8.03,8.655,8.655,0,0,1,3.531-5.364c.152-.122.293-.258.446-.394A10.3,10.3,0,0,1,2011,145.756v-8.516h-37.176v8.509a10.26,10.26,0,0,1,4.15,18.412,39.745,39.745,0,0,1,3.086,4.131,8.926,8.926,0,0,1,1.031,3.538,57.5,57.5,0,0,1,.1,5.854c-.011,1.282-.659,1.891-1.973,1.894q-8.184.02-16.368,0c-1.11,0-1.9-.51-1.887-1.414a63.123,63.123,0,0,1,.436-8.226c.359-2.369,2-4.133,3.968-5.6-3.538-2.71-5.163-6.221-4.221-10.606s3.905-6.9,8.147-7.955v-8.552h-37.179v8.559c4.224,1,7.187,3.514,8.134,7.893s-.705,7.9-4.207,10.663a9.78,9.78,0,0,1,4.152,6.153,35.167,35.167,0,0,1,.319,5.628c.045,3.327-.123,3.463-3.458,3.463q-7.274,0-14.549,0c-1.773,0-2.4-.579-2.332-2.376a58.907,58.907,0,0,1,.5-7.216,8.748,8.748,0,0,1,3.509-5.265c.151-.122.294-.255.449-.389a10.32,10.32,0,0,1,4.007-18.614c0-3.079,0-6.174,0-9.269,0-2.195.47-2.663,2.678-2.664h37.913a3.652,3.652,0,0,0,.128-.636c.009-1.819-.013-3.638.017-5.456.01-.6-.2-.8-.8-.866a24.672,24.672,0,0,1-16.506-8.4,24.178,24.178,0,0,1-6.309-18.879c.968-10.264,6.369-17.446,15.778-21.528a42,42,0,0,1,6.512-1.7c.321-.081.648-.139.972-.208Zm20.012,25.461a22.031,22.031,0,1,0-22.031,22.034A22.054,22.054,0,0,0,1994.074,101.581Zm-55.968,54.232a6.77,6.77,0,1,0-6.7,6.8A6.781,6.781,0,0,0,1938.106,155.813Zm74.654,6.8a6.771,6.771,0,1,0-6.78-6.724A6.838,6.838,0,0,0,2012.76,162.615ZM1965.3,156.1a6.754,6.754,0,1,0,6.464-7.012A6.747,6.747,0,0,0,1965.3,156.1Zm13.436,20.029c0-1.415.108-2.763-.023-4.086a6.155,6.155,0,0,0-4.463-5.547,6.557,6.557,0,0,0-7.208,1.784c-2.16,2.235-1.8,5.05-1.748,7.85Zm-40.645,0c0-1.256.047-2.46-.009-3.66a6.73,6.73,0,0,0-9.61-5.72c-3.647,1.749-4.344,5.043-3.76,9.38Zm81.5.055a38.519,38.519,0,0,0-.262-4.671,6.17,6.17,0,0,0-4.908-5.167,6.559,6.559,0,0,0-6.85,2.118c-2.016,2.243-1.609,4.975-1.566,7.72H2019.6Z" fill="#0d2380"/>
      <path id="Trazado_190383" data-name="Trazado 190383" d="M2079.7,120.648a10.19,10.19,0,1,1,11.426-.036c.538.5,1.1.957,1.591,1.481a10.037,10.037,0,0,1,2.819,6.935c.024,1.65.035,3.3.006,4.95-.021,1.251-.6,1.9-1.857,1.9-5.522.032-11.045.022-16.567.008-.924,0-1.807-.4-1.8-1.392a61.1,61.1,0,0,1,.394-8.129C2076.057,123.953,2077.719,122.176,2079.7,120.648Zm-1.065-8.491a6.765,6.765,0,1,0,6.709-6.754A6.79,6.79,0,0,0,2078.634,112.156Zm5.1,10.524c-4.591,1.2-5.644,5.2-4.968,9.795h13.27c.739-4.784-.718-8.99-4.962-9.681,0,1.285,0,2.56,0,3.835a6.073,6.073,0,0,1-.064,1.1,1.642,1.642,0,0,1-3.258-.236C2083.7,125.926,2083.734,124.351,2083.734,122.68Z" transform="translate(-113.347 -19.051)" fill="#0d2380"/>
    </g>
  </g>
</svg>
