<svg xmlns="http://www.w3.org/2000/svg" width="72.208" height="65.72" viewBox="0 0 72.208 65.72">
  <g id="Grupo_134841" data-name="Grupo 134841" transform="translate(-9922 7950.512)">
    <g id="Grupo_132734" data-name="Grupo 132734" transform="translate(5614.387 -8714.544)">
      <path id="Trazado_188577" data-name="Trazado 188577" d="M4379.821,819a25.649,25.649,0,0,1-1.116,3.6c-2.155,4.552-5.8,7.07-10.847,7.092q-24.136.107-48.273.007a11.982,11.982,0,0,1-10.441-17.8c4.491-8.054,9.19-15.991,13.8-23.979,3.4-5.894,6.787-11.8,10.214-17.677a11.647,11.647,0,0,1,11.062-6.207,11.276,11.276,0,0,1,9.775,5.726c3.241,5.416,6.34,10.917,9.5,16.383q7.237,12.527,14.479,25.05a16.116,16.116,0,0,1,1.851,5.124Zm-36.089,8.47c7.893,0,15.786-.011,23.679.007a9.835,9.835,0,0,0,8.686-14.989q-6.344-11.01-12.707-22.009-5.509-9.54-11.017-19.083a9.825,9.825,0,0,0-17.249-.052q-6.218,10.717-12.4,21.458-5.667,9.816-11.338,19.629a9.829,9.829,0,0,0,8.38,15.031C4327.758,827.488,4335.745,827.47,4343.732,827.471Z" fill="#0d2380"/>
      <path id="Trazado_188578" data-name="Trazado 188578" d="M4368.481,848.443q-11.84,0-23.681,0a6.352,6.352,0,0,1-6.548-5.076,6.431,6.431,0,0,1,.849-4.732q6.987-12.062,13.944-24.143,4.91-8.506,9.824-17.01a6.375,6.375,0,0,1,9.166-2.28,7.26,7.26,0,0,1,2.205,2.519q10.165,17.626,20.341,35.245c1.08,1.87,2.165,3.737,3.238,5.61,2.7,4.719-.276,9.861-5.729,9.867Q4380.287,848.453,4368.481,848.443Zm-.072-2.256q11.8,0,23.605,0a4.429,4.429,0,0,0,3.348-1.194,4.144,4.144,0,0,0,.5-5.3q-7.016-12.164-14.04-24.325-4.786-8.291-9.568-16.584a4.432,4.432,0,0,0-2.39-2.173,4.125,4.125,0,0,0-5.113,2.115q-8.506,14.719-17,29.442c-2.229,3.861-4.449,7.727-6.691,11.58a4.1,4.1,0,0,0-.327,3.967,4.143,4.143,0,0,0,4.143,2.471Q4356.642,846.173,4368.41,846.187Z" transform="translate(-24.752 -24.412)" fill="#0d2380"/>
      <path id="Trazado_188579" data-name="Trazado 188579" d="M4485.684,875.284c-.092,2.7-.17,5.4-.28,8.1a3.46,3.46,0,0,1-2.736,3.543,3.366,3.366,0,0,1-4.137-2.81c-.183-1.582-.186-3.186-.246-4.781-.148-3.9-.294-7.793-.413-11.69a4.891,4.891,0,0,1,.208-1.659c.577-1.743,2.179-2.51,4.631-2.293a3.449,3.449,0,0,1,3.235,3,5.417,5.417,0,0,1,.027.984Q4485.834,871.482,4485.684,875.284Zm-2.257,0c.1-2.579.219-5.157.277-7.736a1.789,1.789,0,0,0-.407-1.262,2.486,2.486,0,0,0-2.476-.207c-.713.227-.732.932-.707,1.6q.292,7.665.562,15.331a4.347,4.347,0,0,0,.09.836,1.188,1.188,0,0,0,2.3.008,3.578,3.578,0,0,0,.091-.765Q4483.3,879.191,4483.427,875.287Z" transform="translate(-138.19 -80.861)" fill="#0d2380"/>
      <path id="Trazado_188580" data-name="Trazado 188580" d="M4485.765,996.467a4.112,4.112,0,1,1-4.133-4.11A4.134,4.134,0,0,1,4485.765,996.467Zm-2.259.048a1.853,1.853,0,1,0-1.9,1.848A1.861,1.861,0,0,0,4483.506,996.515Z" transform="translate(-137.924 -185.322)" fill="#0d2380"/>
    </g>
  </g>
</svg>
