<svg xmlns="http://www.w3.org/2000/svg" width="83.123" height="91.329" viewBox="0 0 83.123 91.329">
  <g id="Grupo_134852" data-name="Grupo 134852" transform="translate(-391.291 -2771)">
    <g id="Grupo_133522" data-name="Grupo 133522" transform="translate(911.282 2039.17)">
      <path id="Trazado_190384" data-name="Trazado 190384" d="M-518.6,916.189c-1.092-.3-1.357-.631-1.361-1.746-.006-1.931-.01-3.863,0-5.794a3.665,3.665,0,0,1,3.923-3.886c2.168-.012,4.335,0,6.528,0,.067-.386-.2-.619-.351-.881q-3.734-6.62-7.494-13.225a4.268,4.268,0,0,1-.6-3.068,3.93,3.93,0,0,1,3.868-3.186c4.663-.023,9.327-.034,13.99,0a3.951,3.951,0,0,1,3.492,5.945c-1.4,2.609-2.9,5.166-4.363,7.745-1.235,2.183-2.471,4.364-3.777,6.671h6.25c2.972,0,4.352,1.382,4.352,4.357,0,8.527-.039,17.054.026,25.581.017,2.243-.685,3.849-2.856,4.654h-20.152c-2.172-.8-2.906-2.391-2.864-4.64.088-4.719.024-9.441.029-14.161,0-1.119.273-1.453,1.361-1.741a1.274,1.274,0,0,1,1.517,1.1,5.9,5.9,0,0,1,.063,1.243q0,6.59,0,13.18c0,.356,0,.712.025,1.068a.928.928,0,0,0,.951.966c.356.025.712.021,1.068.023,5.1.015,10.209-.029,15.313.021.474-.037.949-.024,1.424-.028a1.036,1.036,0,0,0,1.134-1.094c.027-.326.024-.653.024-.979q0-12.249,0-24.5c0-.238,0-.475-.007-.713-.052-1.077-.322-1.355-1.408-1.388-2.493-.076-4.987-.032-7.48-.037q-4.72-.01-9.44,0a1.86,1.86,0,0,0-1.122.177c-.493.331-.491.848-.495,1.353-.013,1.688,0,3.375-.008,5.063a2.166,2.166,0,0,1-.41,1.508C-517.75,916.12-518.087,916.414-518.6,916.189Z" transform="translate(0 -116.192)"/>
      <path id="Trazado_190385" data-name="Trazado 190385" d="M-368.765,1070.247a2.441,2.441,0,0,1-1.279-1.165c-.182-.475-.607-.286-.929-.286q-12.612-.014-25.225-.008c-.683,0-1.367.017-2.05,0a3.757,3.757,0,0,1-3.757-3.732,3.644,3.644,0,0,1,3.69-3.759c5.823-.045,11.647-.022,17.47-.024,3.3,0,6.6-.007,9.894.007a.971.971,0,0,0,1.055-.557,2.042,2.042,0,0,1,2.066-.94q7.265.01,14.529,0c.178,0,.357,0,.535,0,.2,0,.453.042.468-.263.014-.29-.085-.539-.419-.576a7.343,7.343,0,0,0-.8-.031q-7.354,0-14.707,0a4.577,4.577,0,0,1-.975-.062,1.188,1.188,0,0,1-1-1.2,1.2,1.2,0,0,1,.943-1.329,3.352,3.352,0,0,1,.882-.083q7.577-.007,15.153,0c2.245,0,3.3.935,3.6,3.179a.566.566,0,0,0,.428.555,3.2,3.2,0,0,1,2.173,3.322c-.009,1.01-.052,2.024.009,3.03a3.541,3.541,0,0,1-2.492,3.925Z" transform="translate(-89.867 -247.088)"/>
      <path id="Trazado_190386" data-name="Trazado 190386" d="M-438.206,778.355c1.092.265,1.4.622,1.4,1.71q.007,11.9,0,23.809c0,2.091-1.331,3.342-3.539,3.347-4.9.011-9.807,0-14.71,0-7.013,0-14.026-.01-21.04.013a2.742,2.742,0,0,1-2.128-.865q-6.3-6.367-12.673-12.671a2.823,2.823,0,0,1-.911-2.2c.025-8.947,0-17.894.034-26.841,0-.851-.133-1.138-1.082-1.133-7.756.047-15.512.027-23.268.026-2.573,0-3.751-1.18-3.751-3.758q0-8.427,0-16.853c0-2.522,1.18-3.7,3.71-3.7,7.816,0,15.631-.011,23.447.015.725,0,.99-.157.943-.921-.068-1.1-.041-2.2-.01-3.3a3.081,3.081,0,0,1,3.286-3.208q24.2-.008,48.409,0a3.1,3.1,0,0,1,3.281,3.226q.019,19.528,0,39.057c0,1.006-.326,1.355-1.4,1.624a1.264,1.264,0,0,1-1.449-1.084,6.418,6.418,0,0,1-.092-1.6q0-18.188,0-36.377c0-1.884,0-1.884-1.912-1.89-.268,0-.535,0-.8-.023-1.455.042-2.911.017-4.366.017q-20.1,0-40.194,0c-1.731,0-1.731,0-1.734,1.713,0,.416,0,.832,0,1.248.01,1.23.06,1.278,1.328,1.289.713.006,1.426-.018,2.139.01a3.177,3.177,0,0,1,3.108,2.969c.026.3.022.594.022.891q0,8.513,0,17.026c0,2.511-1.372,3.882-3.908,3.925-.624.011-1.248.005-1.871.008-.55,0-.827.241-.813.805.007.267,0,.535,0,.8q0,11.767,0,23.534c0,.148,0,.3,0,.446.02,1.033.094,1.124,1.121,1.129q4.322.021,8.645,0a3.7,3.7,0,0,1,2.556.852,3.194,3.194,0,0,1,1.212,2.477c-.031,3.091-.007,6.181-.011,9.272,0,1.068.1,1.166,1.178,1.167q14.931,0,29.861,0c1.129,0,2.257-.053,3.386-.043.7.006,1.05-.3,1.047-1.012,0-.356.01-.713.01-1.07q0-10.744,0-21.487a5.756,5.756,0,0,1,.074-1.332A1.268,1.268,0,0,1-438.206,778.355Z" transform="translate(-0.087 0)"/>
      <path id="Trazado_190387" data-name="Trazado 190387" d="M-514.155,990.082a1.471,1.471,0,0,0,1.321-1.689c-.03-1.9-.008-3.793-.009-5.69,0-.48-.012-.962.524-1.209a1.634,1.634,0,0,1,.872-.084q7.7-.008,15.4,0c1.041,0,1.235.183,1.3,1.214.012.178.011.356.011.534q0,12.821,0,25.642a2.056,2.056,0,0,1-.472,1.741q-8.232.015-16.464.025c-.884,0-1.165-.358-1.165-1.394,0-4.926-.012-9.852.007-14.778a1.469,1.469,0,0,0-1.321-1.688Q-514.155,991.393-514.155,990.082Z" transform="translate(-4.445 -190.085)" fill="#fff2bf"/>
      <path id="Trazado_190388" data-name="Trazado 190388" d="M-296.408,786.883c-1,.2-1.286.855-1.284,1.819q.031,11.587.011,23.173c0,1.187-.012,1.2-1.188,1.2q-16.975.009-33.95.031c-.685,0-.9-.15-.891-.872.052-3.267.039-6.534.05-9.8.572.26.426.793.429,1.233.022,2.527.008,5.054.011,7.58,0,1.413,0,1.417,1.451,1.418q14.622,0,29.244,0c.267,0,.535-.006.8-.017a.66.66,0,0,0,.718-.72c.015-.387.016-.773.016-1.159q0-33,.007-65.992c0-.579-.148-1.2.28-1.715.741-.01,1.483,0,2.223-.035.568-.026.837.2.8.776-.014.207,0,.415,0,.623q0,19.011-.011,38.023c0,.965.287,1.614,1.283,1.82Q-296.408,785.577-296.408,786.883Z" transform="translate(-141.885 -8.529)" fill="#c4d2dc"/>
      <path id="Trazado_190389" data-name="Trazado 190389" d="M-492.19,911.969c-1.415-2.489-2.792-4.908-4.165-7.329q-1.886-3.326-3.765-6.656c-.786-1.4-.254-2.339,1.325-2.341q6.685-.007,13.37,0c1.259,0,1.918.966,1.331,2.014C-486.761,902.416-489.461,907.153-492.19,911.969Z" transform="translate(-14.861 -124.769)" fill="#fefefe"/>
      <path id="Trazado_190390" data-name="Trazado 190390" d="M-489.344,1010.229a7.536,7.536,0,0,0,.185-2.116q-.006-12.792,0-25.585c0-1.34-.012-1.35-1.337-1.349l-15.953.007c.265-.278.611-.182.926-.182q8.768,0,17.537.017c1.213,0,1.484.286,1.484,1.547q0,13.045,0,26.089c0,1.375-.228,1.6-1.595,1.6C-488.515,1010.258-488.93,1010.24-489.344,1010.229Z" transform="translate(-10.312 -189.777)" fill="#ccc198"/>
      <path id="Trazado_190391" data-name="Trazado 190391" d="M-242.407,1087.5q-7.217.015-14.435.037c-.413,0-.575-.1-.563-.543.039-1.483.041-2.967.058-4.451a1.261,1.261,0,0,1,.779-.091q6.668-.007,13.336,0c.984,0,1.084.08,1.113,1.033.031,1.037.022,2.075,0,3.112A1.178,1.178,0,0,1-242.407,1087.5Z" transform="translate(-200.004 -267.048)" fill="#fff2bf"/>
      <path id="Trazado_190392" data-name="Trazado 190392" d="M-355.962,1090.7c-3.684,0-7.369-.036-11.052.024-.97.016-.854-.5-.853-1.106s-.122-1.113.849-1.108c7.309.043,14.618.032,21.926.009.679,0,1.007.149.885.874a1.7,1.7,0,0,0,0,.534c.1.638-.178.791-.792.786C-348.653,1090.683-352.307,1090.7-355.962,1090.7Z" transform="translate(-115.865 -271.672)" fill="#fc9638"/>
      <path id="Trazado_190393" data-name="Trazado 190393" d="M-242.221,1087.249c0-1.364-.036-2.729.028-4.09.035-.746-.257-.876-.922-.873-4.682.022-9.365.009-14.047.007.189-.3.486-.152.728-.152,5.318,0,10.635.022,15.953,0,.855,0,1.173.275,1.122,1.14-.063,1.066-.027,2.139-.011,3.208.008.567-.232.815-.8.791C-240.855,1087.254-241.538,1087.259-242.221,1087.249Z" transform="translate(-200.191 -266.795)" fill="#ccc198"/>
      <path id="Trazado_190394" data-name="Trazado 190394" d="M-387.949,1089.812c.17.684-.086,1.032-1,.975-1.259-.08-1.778-.332-1.784-1.105s.479-1.083,1.772-1.083C-387.949,1088.6-387.949,1088.6-387.949,1089.812Z" transform="translate(-98.451 -271.741)" fill="#fff2bf"/>
      <path id="Trazado_190395" data-name="Trazado 190395" d="M-344.25,743.045q0,34.49.021,68.979c0,.683-.161.912-.886.911q-15.548-.036-31.1,0c-.757,0-.869-.282-.863-.933.027-2.881.015-5.763.007-8.645,0-.316.1-.658-.141-.941a3.164,3.164,0,0,0-3.492-3.033c-3.149-.006-6.3-.017-9.448.012-.579.005-.735-.147-.734-.731q.029-12.928,0-25.855c0-.666.222-.783.81-.753.919.046,1.842.031,2.762.007a3.07,3.07,0,0,0,3.163-3.153q.038-9,0-18.009a3.02,3.02,0,0,0-3.077-3.132c-.979-.041-1.962-.04-2.941,0-.539.02-.737-.133-.714-.7.042-1.038.047-2.081,0-3.12-.034-.76.275-.95,1-.947,5.853.025,11.706.014,17.559.014q13.727,0,27.453,0C-344.664,743.018-344.457,743.036-344.25,743.045Z" transform="translate(-98.336 -8.51)" fill="#e7ecf1"/>
      <path id="Trazado_190396" data-name="Trazado 190396" d="M-508.453,801.032a.6.6,0,0,1-.193-.561c0-5.159,0-10.318,0-15.715l1.588,1.962c.559.692,1.088,1.411,1.685,2.068a3.915,3.915,0,0,0,2.773,1.228,7.812,7.812,0,0,0,4.358.946c6.025-.06,12.051.027,18.075-.057.754-.01,1.022.313,1.027.993q.03,4.141,0,8.283c0,.692-.261.968-1.021.966-9.2-.027-18.4-.017-27.6-.02A1.061,1.061,0,0,1-508.453,801.032Z" transform="translate(-8.641 -40.312)" fill="#fff2bf"/>
      <path id="Trazado_190397" data-name="Trazado 190397" d="M-502.476,774.319h29.237c-1.328,1.65-2.556,3.195-3.81,4.717a1.293,1.293,0,0,1-1.07.335q-9.755-.005-19.51,0a1.412,1.412,0,0,1-1.2-.471C-500.009,777.426-501.183,775.944-502.476,774.319Z" transform="translate(-13.341 -32.363)" fill="#fff2bf"/>
      <path id="Trazado_190398" data-name="Trazado 190398" d="M-507.836,801.3q14.118,0,28.237.02c.61,0,.826-.166.819-.8-.029-2.821-.024-5.643,0-8.464,0-.552-.12-.772-.7-.58a2.039,2.039,0,0,1-.62.019q-9.575,0-19.151,0a3.254,3.254,0,0,1-2.733-1.216c6.448-.006,12.9-.042,19.344,0a4.711,4.711,0,0,0,4.2-2.029c.735-1.027,1.568-1.984,2.493-3.142.024.465.048.715.049.964,0,4.756-.022,9.512.021,14.267.009.928-.306,1.143-1.181,1.142-9.925-.02-19.85,0-29.775,0C-507.168,801.483-507.553,801.639-507.836,801.3Z" transform="translate(-9.258 -40.585)" fill="#ccc198"/>
      <path id="Trazado_190399" data-name="Trazado 190399" d="M-373.173,999.7l-8.874-8.917h4.04c1.366,0,2.732.011,4.1-.006.528-.007.746.2.743.735C-373.181,994.209-373.173,996.91-373.173,999.7Z" transform="translate(-105.068 -197.23)" fill="#c4d2dc"/>
      <path id="Trazado_190400" data-name="Trazado 190400" d="M-478.888,1004.125a5.972,5.972,0,0,1-5.946,6.036,5.971,5.971,0,0,1-6.056-6.014,5.968,5.968,0,0,1,5.99-5.99A5.968,5.968,0,0,1-478.888,1004.125Z" transform="translate(-22.165 -202.853)"/>
      <path id="Trazado_190401" data-name="Trazado 190401" d="M-479.679,1065.6c-.918,0-1.837.014-2.755,0-.987-.019-1.556-.518-1.556-1.325a1.332,1.332,0,0,1,1.468-1.334q2.887-.047,5.776,0a1.356,1.356,0,0,1,1.472,1.335c0,.787-.595,1.306-1.562,1.323C-477.783,1065.615-478.731,1065.6-479.679,1065.6Z" transform="translate(-27.422 -252.179)" fill="#000101"/>
      <path id="Trazado_190402" data-name="Trazado 190402" d="M-328.517,763.889c.344-1.123.636-1.359,1.755-1.361q5.479-.007,10.959,0a2.278,2.278,0,0,1,2.546,2.522c.024,1.4.026,2.792,0,4.188a2.247,2.247,0,0,1-2.494,2.488q-9.577.031-19.155,0a2.26,2.26,0,0,1-2.52-2.542c-.008-1.426-.014-2.852,0-4.277a2.234,2.234,0,0,1,2.406-2.379c.742-.015,1.485-.01,2.227,0,1.036.013,1.395.308,1.662,1.346a1.253,1.253,0,0,1-1.094,1.508,5.589,5.589,0,0,1-1.419.092c-.545,0-.822.217-.82.792.008,3.015-.285,2.558,2.355,2.571,4.841.023,9.682.008,14.523.006,1.436,0,1.461-.028,1.47-1.421.013-1.949.013-1.949-1.942-1.949q-4.143,0-8.286,0a3.832,3.832,0,0,1-1.235-.127A1.216,1.216,0,0,1-328.517,763.889Z" transform="translate(-139.046 -23.375)"/>
      <path id="Trazado_190403" data-name="Trazado 190403" d="M-319.986,768.216a1.553,1.553,0,0,0,1.8,1.325c3.328-.033,6.657.01,9.985-.031.7-.009.866.209.826.854-.051.8-.03,1.6-.005,2.407.014.451-.128.628-.606.627q-8.826-.019-17.653,0c-.49,0-.6-.186-.588-.629.026-.891.036-1.785,0-2.675-.022-.505.194-.6.628-.573s.891.01,1.337.005c1.062-.012,1.4-.285,1.67-1.327Z" transform="translate(-147.578 -27.702)" fill="#fff2bf"/>
      <path id="Trazado_190404" data-name="Trazado 190404" d="M-328.6,866.408q5.524,0,11.047,0a5.682,5.682,0,0,1,.889.027,1.2,1.2,0,0,1,1.088,1.115,1.247,1.247,0,0,1-.826,1.414,2.379,2.379,0,0,1-.964.119H-339.99c-.059,0-.119,0-.178,0-1.011-.03-1.636-.57-1.611-1.39.024-.783.624-1.281,1.6-1.282Q-334.387,866.4-328.6,866.408Z" transform="translate(-135.739 -102.501)"/>
      <path id="Trazado_190405" data-name="Trazado 190405" d="M-328.8,839.278c-3.8,0-7.6-.005-11.4.005a1.446,1.446,0,0,1-1.423-.713,1.238,1.238,0,0,1,.058-1.35A1.632,1.632,0,0,1-340,836.6q7.173.012,14.345,0,4.188,0,8.376,0c1.117,0,1.716.485,1.709,1.354s-.594,1.319-1.735,1.319Q-323.049,839.281-328.8,839.278Z" transform="translate(-135.725 -79.799)"/>
      <path id="Trazado_190406" data-name="Trazado 190406" d="M-328.6,896.066q5.568,0,11.135,0a3.821,3.821,0,0,1,.97.082,1.2,1.2,0,0,1,.937,1.33,1.179,1.179,0,0,1-1,1.194,5.216,5.216,0,0,1-1.063.065q-11.046.005-22.092,0c-1.415,0-2.092-.45-2.068-1.369.023-.894.666-1.307,2.041-1.307Z" transform="translate(-135.737 -125.094)" fill="#010101"/>
      <path id="Trazado_190407" data-name="Trazado 190407" d="M-247.064,961.481a2.452,2.452,0,0,1-1.091,2.128q-1.888,1.254-3.839,2.411a2.5,2.5,0,0,1-2.7-.045c-1.216-.738-2.437-1.473-3.615-2.268a2.617,2.617,0,0,1,.009-4.471c1.157-.774,2.354-1.491,3.538-2.225a2.576,2.576,0,0,1,2.861-.04c1.243.752,2.475,1.522,3.687,2.322A2.492,2.492,0,0,1-247.064,961.481Z" transform="translate(-198.36 -171.168)"/>
      <path id="Trazado_190408" data-name="Trazado 190408" d="M-255.339,1002.672c1.753,0,3.506-.007,5.259,0,.964.005,1.561.526,1.556,1.323a1.385,1.385,0,0,1-1.567,1.344q-5.348.021-10.7,0c-1,0-1.639-.591-1.6-1.4.033-.786.631-1.265,1.616-1.268C-258.964,1002.667-257.152,1002.672-255.339,1002.672Z" transform="translate(-196.205 -206.291)"/>
      <path id="Trazado_190409" data-name="Trazado 190409" d="M-473.016,1012.691a3.3,3.3,0,0,1-3.312,3.344,3.294,3.294,0,0,1-3.343-3.313,3.29,3.29,0,0,1,3.312-3.343A3.29,3.29,0,0,1-473.016,1012.691Z" transform="translate(-30.711 -211.401)" fill="#d7ebfd"/>
      <path id="Trazado_190410" data-name="Trazado 190410" d="M-241.048,970.334c-1.154.728-2.2,1.38-3.239,2.049a.522.522,0,0,1-.646-.03c-1.019-.651-2.046-1.29-3.2-2.018l3.268-2.069a.5.5,0,0,1,.582.017C-243.248,968.943-242.207,969.6-241.048,970.334Z" transform="translate(-207.064 -180.022)" fill="#fc9638"/>
    </g>
  </g>
</svg>
