<svg xmlns="http://www.w3.org/2000/svg" width="72.208" height="72.201" viewBox="0 0 72.208 72.201">
  <g id="Grupo_134843" data-name="Grupo 134843" transform="translate(-9921.792 7529)">
    <g id="Grupo_132736" data-name="Grupo 132736" transform="translate(4331.859 -8167.724)">
      <path id="Trazado_188602" data-name="Trazado 188602" d="M5594.71,808.824a2.362,2.362,0,0,0-2.355,2.375c-.023,1.173,0,2.347,0,3.565h-2.368a38.081,38.081,0,0,1,.028-4.214,4.742,4.742,0,0,1,4.982-4.162q18.347-.005,36.7,0c2.081,0,4.161-.008,6.242,0a4.791,4.791,0,0,1,4.953,4.927q.017,14.325,0,28.65a4.785,4.785,0,0,1-4.957,4.924q-21.506.011-43.013,0a4.8,4.8,0,0,1-4.968-4.987q-.013-10.979,0-21.957v-.692h2.406v.869q0,10.866,0,21.732a2.373,2.373,0,0,0,2.359,2.6Zm40.923.02h-38.412v33.6h38.412Zm2.463,33.61a2.4,2.4,0,0,0,2.383-2.679q0-14.138,0-28.275c0-.175,0-.351-.011-.526a2.276,2.276,0,0,0-2.373-2.094Z" transform="translate(0 -133.969)" fill="#0d2380"/>
      <path id="Trazado_188603" data-name="Trazado 188603" d="M5731.491,701.3v-2.384h9.535V651.961h-.778q-4.21,0-8.421,0c-1.174,0-1.571-.4-1.572-1.584q0-4.173,0-8.346v-.855h-30.063v5.918H5697.8c-.013-.215-.038-.432-.038-.649q0-3.007,0-6.015c0-1.342.356-1.7,1.678-1.7q5.262,0,10.525,0h36.54c1.476,0,1.795.324,1.795,1.815q0,29.472,0,58.945c0,1.487-.323,1.812-1.8,1.812h-15.012Zm2.893-60.132c2.853,2.847,5.57,5.583,8.32,8.287a2.468,2.468,0,0,1,.8,1.918q-.028,23.27-.014,46.54v.945h2.366V641.164Zm-1.672,1.8v6.52h6.52Z" transform="translate(-86.163)" fill="#0d2380"/>
      <path id="Trazado_188604" data-name="Trazado 188604" d="M5782.811,673.542c.792.377,1.474.708,2.16,1.027a3.082,3.082,0,0,0,.922.369,3.293,3.293,0,0,1,2.985,2.979,1.812,1.812,0,0,0,.373.917,3.3,3.3,0,0,1,.015,4.285,1.822,1.822,0,0,0-.385.912,3.281,3.281,0,0,1-3.039,3.005,1.662,1.662,0,0,0-.846.358,3.294,3.294,0,0,1-4.341-.014,1.663,1.663,0,0,0-.853-.345,3.274,3.274,0,0,1-3.021-3.023,1.644,1.644,0,0,0-.349-.848,3.3,3.3,0,0,1-.015-4.34,1.64,1.64,0,0,0,.361-.843,3.266,3.266,0,0,1,3.076-3.046,2.476,2.476,0,0,0,.79-.319C5781.347,674.275,5782.043,673.923,5782.811,673.542Zm-2.69,3.821c-.7-.014-1.057.469-.846,1.187a1.268,1.268,0,0,1-.655,1.633c-.81.475-.82,1.127-.021,1.592a1.273,1.273,0,0,1,.683,1.621c-.25.9.238,1.39,1.131,1.141a1.276,1.276,0,0,1,1.625.675c.47.8,1.117.8,1.593-.01a1.275,1.275,0,0,1,1.63-.662c.854.241,1.375-.25,1.136-1.082a1.3,1.3,0,0,1,.679-1.689c.765-.444.775-1.12.021-1.555a1.3,1.3,0,0,1-.707-1.678c.242-.839-.267-1.352-1.1-1.112a1.3,1.3,0,0,1-1.68-.7c-.435-.757-1.114-.752-1.554.011a1.252,1.252,0,0,1-1.684.675A1.293,1.293,0,0,0,5780.121,677.363Z" transform="translate(-148.368 -27.822)" fill="#0d2380"/>
      <path id="Trazado_188605" data-name="Trazado 188605" d="M5733.86,784.957v-2.313h31.217v2.313Z" transform="translate(-115.006 -115.001)" fill="#0d2380"/>
      <path id="Trazado_188606" data-name="Trazado 188606" d="M5700.331,713.222h-2.322v-20.38h2.322Z" transform="translate(-86.359 -43.244)" fill="#0d2380"/>
      <path id="Trazado_188607" data-name="Trazado 188607" d="M5805.755,758.648h9.534v2.331h-9.534Z" transform="translate(-172.454 -95.826)" fill="#0d2380"/>
      <path id="Trazado_188608" data-name="Trazado 188608" d="M5774.645,758.753v2.315h-4.719v-2.315Z" transform="translate(-143.825 -95.91)" fill="#0d2380"/>
      <path id="Trazado_188609" data-name="Trazado 188609" d="M5865.6,808.913V806.6h4.719v2.312Z" transform="translate(-220.274 -134.144)" fill="#0d2380"/>
      <path id="Trazado_188610" data-name="Trazado 188610" d="M5865.637,830.511h4.721v2.329h-4.721Z" transform="translate(-220.304 -153.249)" fill="#0d2380"/>
      <path id="Trazado_188611" data-name="Trazado 188611" d="M5865.631,878.412h4.723v2.331h-4.723Z" transform="translate(-220.298 -191.525)" fill="#0d2380"/>
      <path id="Trazado_188612" data-name="Trazado 188612" d="M5870.455,854.539v2.3h-4.744v-2.3Z" transform="translate(-220.362 -172.449)" fill="#0d2380"/>
      <path id="Trazado_188613" data-name="Trazado 188613" d="M5665.1,867.148l-1.841-1.544c2.017-2.42,3.978-4.8,5.968-7.147a1.182,1.182,0,0,1,2.083.268c.5.922.948,1.868,1.471,2.905.373-.513.691-.945,1-1.381,1.223-1.712,2.439-3.429,3.67-5.136.793-1.1,1.753-1.025,2.372.176.469.91.922,1.827,1.424,2.823l5.06-6.506-1.382.268-.587-2.3c1.688-.415,3.345-.861,5.022-1.214a1.11,1.11,0,0,1,1.273,1.169c.031,1.575.009,3.15.009,4.773h-2.378c-.016-.346-.031-.681-.052-1.161-.221.258-.365.413-.494.579q-2.749,3.528-5.5,7.058c-.9,1.155-1.8,1.064-2.46-.241-.429-.844-.853-1.691-1.334-2.646-.342.476-.626.871-.909,1.267-1.253,1.753-2.5,3.511-3.76,5.257-.795,1.1-1.755,1.025-2.372-.176-.476-.926-.939-1.859-1.453-2.879Z" transform="translate(-58.591 -167.491)" fill="#0d2380"/>
      <path id="Trazado_188614" data-name="Trazado 188614" d="M5646.462,862.864h-2.305v-2.318h2.305Z" transform="translate(-43.329 -177.248)" fill="#0d2380"/>
      <path id="Trazado_188615" data-name="Trazado 188615" d="M5646.457,838.9h-2.309v-2.322h2.309Z" transform="translate(-43.321 -158.1)" fill="#0d2380"/>
      <path id="Trazado_188616" data-name="Trazado 188616" d="M5646.424,884.434v2.318h-2.331v-2.318Z" transform="translate(-43.278 -196.336)" fill="#0d2380"/>
      <path id="Trazado_188617" data-name="Trazado 188617" d="M5646.393,910.718h-2.309v-2.34h2.309Z" transform="translate(-43.27 -215.469)" fill="#0d2380"/>
      <path id="Trazado_188618" data-name="Trazado 188618" d="M5646.476,932.383v2.3h-2.341v-2.3Z" transform="translate(-43.311 -234.651)" fill="#0d2380"/>
      <path id="Trazado_188619" data-name="Trazado 188619" d="M5644.032,958.621v-2.312h2.313v2.312Z" transform="translate(-43.229 -253.769)" fill="#0d2380"/>
      <path id="Trazado_188620" data-name="Trazado 188620" d="M5670.422,958.709h-2.3v-2.34h2.3Z" transform="translate(-62.477 -253.817)" fill="#0d2380"/>
      <path id="Trazado_188621" data-name="Trazado 188621" d="M5694.282,958.7h-2.319v-2.314h2.319Z" transform="translate(-81.528 -253.833)" fill="#0d2380"/>
      <path id="Trazado_188622" data-name="Trazado 188622" d="M5718.283,956.294v2.318h-2.331v-2.318Z" transform="translate(-100.697 -253.757)" fill="#0d2380"/>
      <path id="Trazado_188623" data-name="Trazado 188623" d="M5739.83,958.671v-2.322h2.335v2.322Z" transform="translate(-119.776 -253.801)" fill="#0d2380"/>
      <path id="Trazado_188624" data-name="Trazado 188624" d="M5766.141,958.7h-2.319v-2.314h2.319Z" transform="translate(-138.948 -253.833)" fill="#0d2380"/>
      <path id="Trazado_188625" data-name="Trazado 188625" d="M5790.123,958.645h-2.3v-2.34h2.3Z" transform="translate(-158.126 -253.765)" fill="#0d2380"/>
    </g>
  </g>
</svg>
