<svg xmlns="http://www.w3.org/2000/svg" width="398.75" height="398.75" viewBox="0 0 398.75 398.75">
  <g id="Grupo_134845" data-name="Grupo 134845" transform="translate(-601 -3928)">
    <g id="Grupo_132739" data-name="Grupo 132739" transform="translate(550.375 3877.375)">
      <path id="Trazado_188630" data-name="Trazado 188630" d="M386.936,322.488A75.568,75.568,0,0,1,318.6,279.025a74.3,74.3,0,0,1-66.459,45.412v.059a62.431,62.431,0,0,0-.867,124.857c.29,0,.577.022.867.022,1.14,0,2.271-.035,3.4-.1A199.089,199.089,0,0,0,443.947,296.392,75.315,75.315,0,0,1,386.936,322.488Z" fill="#ccc198"/>
      <g id="Grupo_132738" data-name="Grupo 132738">
        <path id="Trazado_188631" data-name="Trazado 188631" d="M295.513,389.672a45.952,45.952,0,1,1-45.952-45.951A45.951,45.951,0,0,1,295.513,389.672Z" fill="#fefefe"/>
      </g>
    </g>
    <g id="Grupo_132740" data-name="Grupo 132740" transform="translate(550.375 3877.375)">
      <circle id="Elipse_4818" data-name="Elipse 4818" cx="64.987" cy="64.987" r="64.987" transform="translate(184.5 184.44)" fill="#fefefe"/>
    </g>
    <g id="Grupo_132742" data-name="Grupo 132742" transform="translate(550.375 3877.375)">
      <path id="Trazado_188632" data-name="Trazado 188632" d="M176.664,386.936a75.566,75.566,0,0,1,43.865-68.514A74.384,74.384,0,0,1,175.5,250h0a62.439,62.439,0,0,0-124.878,0h0A199.16,199.16,0,0,0,202.418,443.649,75.3,75.3,0,0,1,176.664,386.936Z" fill="#a8a8a8"/>
      <g id="Grupo_132741" data-name="Grupo 132741">
        <circle id="Elipse_4819" data-name="Elipse 4819" cx="45.952" cy="45.952" r="45.952" transform="translate(57.377 281.3) rotate(-76.849)" fill="#fefefe"/>
      </g>
    </g>
    <g id="Grupo_132745" data-name="Grupo 132745" transform="translate(550.375 3877.375)">
      <g id="Grupo_132743" data-name="Grupo 132743">
        <path id="Trazado_188633" data-name="Trazado 188633" d="M449.258,243.32A199.226,199.226,0,0,0,301.793,57.433a75.411,75.411,0,0,1-20.82,124.816c1.187.544,2.363,1.106,3.515,1.709a74.3,74.3,0,0,1,39.924,63.05h.084a62.43,62.43,0,0,0,124.848,1.227c.008-.41.031-.816.031-1.227C449.375,245.769,449.329,244.541,449.258,243.32Z" fill="#fc502d"/>
      </g>
      <g id="Grupo_132744" data-name="Grupo 132744">
        <circle id="Elipse_4820" data-name="Elipse 4820" cx="45.952" cy="45.952" r="45.952" transform="translate(341.942 204.048)" fill="#fefefe"/>
      </g>
    </g>
    <g id="Grupo_132747" data-name="Grupo 132747" transform="translate(550.375 3877.375)">
      <path id="Trazado_188634" data-name="Trazado 188634" d="M252.438,50.665l-.294-.007c-.435-.009-.867-.033-1.3-.033-.111,0-.221.008-.333.009-.169,0-.337-.009-.507-.009A199.109,199.109,0,0,0,57.111,199.4a75.411,75.411,0,0,1,124.944,20.043A74.432,74.432,0,0,1,250,175.5c.72,0,1.429.038,2.144.058v-.091a62.42,62.42,0,0,0,.294-124.806Z" fill="#0d2380"/>
      <g id="Grupo_132746" data-name="Grupo 132746">
        <circle id="Elipse_4821" data-name="Elipse 4821" cx="45.952" cy="45.952" r="45.952" transform="translate(198.63 146.338) rotate(-76.849)" fill="#fefefe"/>
      </g>
    </g>
    <g id="Grupo_132750" data-name="Grupo 132750" transform="translate(215.754 4134.965)">
      <path id="Trazado_188635" data-name="Trazado 188635" d="M595.256,165.851a3.1,3.1,0,0,1-2.411-3.215c.007-.253-.021-.509,0-.76.168-1.635-.521-3.09-.9-4.551-1.66.452-3.26,1.006-4.905,1.316-9.728,1.832-18.34-.52-25.665-7.192a27.248,27.248,0,0,1-8.99-17.128c-1.43-11.477,2.524-20.846,11.78-27.794a29.031,29.031,0,0,1,32.825-.865,1.8,1.8,0,0,1,.607.619,1.161,1.161,0,0,1-.253,1.447,1.238,1.238,0,0,1-1.572.144c-1.277-.694-2.515-1.477-3.839-2.064A26.59,26.59,0,1,0,574.6,155.89a26.272,26.272,0,0,0,16.218-.963c.116-.044.227-.1.393-.177l-.349-1.208-.336-1.164c-1.069.34-2.1.722-3.15.994a23.833,23.833,0,0,1-18.213-2.4,1.323,1.323,0,0,1-.826-1.423,1.263,1.263,0,0,1,2.007-.815,22,22,0,0,0,5.424,2.227,21.342,21.342,0,0,0,14.337-1.248,1.864,1.864,0,0,0,.569-.532,7.181,7.181,0,0,1,.915-1.109,1.166,1.166,0,0,0,.474-1.067q-.019-6.334,0-12.667a3.815,3.815,0,0,1,4.008-3.953,3.773,3.773,0,0,1,3.641,3.539c.065,1.538.024,3.082.03,4.623,0,.225,0,.45,0,.69a1.134,1.134,0,0,0,1.32-.761,21.537,21.537,0,1,0-40.972-12.585,21.186,21.186,0,0,0,2.32,14.748c.071.129.147.256.215.387a1.27,1.27,0,0,1-.422,1.816,1.255,1.255,0,0,1-1.772-.563,22.617,22.617,0,0,1-3.025-8.6,23.557,23.557,0,0,1,7.435-21.162,23.183,23.183,0,0,1,14.288-6.361,24.043,24.043,0,0,1,24.94,16.493,23.553,23.553,0,0,1-.548,16.41c-.217.548-.378,1,.225,1.4a2.467,2.467,0,0,1,.468.608,7.984,7.984,0,0,0,1.1-.282.882.882,0,0,0,.436-.454,26.341,26.341,0,0,0-1.934-24.221c-.14-.236-.3-.459-.424-.7a1.237,1.237,0,0,1,.476-1.651,1.183,1.183,0,0,1,1.67.377,36.577,36.577,0,0,1,2.12,3.809,28.726,28.726,0,0,1,.643,22.819c-.192.506-.282.88.238,1.231a2.813,2.813,0,0,1,.517.636,12.754,12.754,0,0,1,1.41-.251,3.629,3.629,0,0,1,3.918,3.581c.028,3.061,0,6.123,0,9.184a6.173,6.173,0,0,1-1.706,4.247,3.669,3.669,0,0,0-.96,2.8c.077,2.132-.442,2.836-2.393,3.651Zm6.993-2.534c2.069,0,4.138-.01,6.206.007.538,0,.825-.194.739-.741a5.639,5.639,0,0,1,1.744-5.087,3.544,3.544,0,0,0,.911-2.623c-.006-2.871,0-5.742,0-8.613,0-.807-.373-1.277-1.037-1.345-.713-.073-1.163.317-1.314,1.138s-.626,1.268-1.335,1.227c-.73-.042-1.167-.563-1.193-1.438a6,6,0,0,0-.058-1.509,1.487,1.487,0,0,0-.793-.916,1.643,1.643,0,0,0-1.177.32c-.2.135-.257.547-.318.847a1.292,1.292,0,0,1-1.377,1.125,1.249,1.249,0,0,1-1.148-1.283c-.016-.443,0-.887-.006-1.33-.007-.882-.458-1.423-1.179-1.421s-1.165.54-1.176,1.428c-.009.781.014,1.563-.014,2.343a1.236,1.236,0,0,1-1.224,1.272,1.268,1.268,0,0,1-1.282-1.225,6.067,6.067,0,0,1-.015-.633q0-5.067,0-10.133a4.4,4.4,0,0,0-.046-.82,1.3,1.3,0,0,0-2.528.008,4.659,4.659,0,0,0-.04.82q0,6.681,0,13.363a1.614,1.614,0,0,1-.893,1.6c-.856.456-1,.792-.761,1.753.3,1.2.688,2.389,1,3.592.634,2.454,1.727,4.815,1.457,7.454-.076.739.063.816.841.816Q599.241,163.32,602.249,163.317Z" fill="#ccc198"/>
      <path id="Trazado_188636" data-name="Trazado 188636" d="M659.933,224.713c.217-.206.385-.358.545-.518,2.24-2.238,4.469-4.486,6.721-6.711a4.26,4.26,0,0,1,4.482-1.137,4.172,4.172,0,0,1,3.015,3.28,4.319,4.319,0,0,1-1.273,4.165q-4.213,4.2-8.417,8.418c-.642.642-1.272,1.3-1.93,1.92a4.383,4.383,0,0,1-6.259-.032q-2.959-2.905-5.865-5.866a4.426,4.426,0,1,1,6.24-6.279C658.114,222.844,659,223.772,659.933,224.713Zm-7.891.488a7.578,7.578,0,0,0,.867,1.394c1.792,1.847,3.627,3.653,5.448,5.472a1.98,1.98,0,0,0,3.224-.012q4.9-4.9,9.8-9.8a4.958,4.958,0,0,0,.513-.558,1.887,1.887,0,0,0-1.073-2.964,1.967,1.967,0,0,0-1.94.647q-3.861,3.881-7.74,7.744c-.878.878-1.475.874-2.358-.007-1.12-1.117-2.23-2.245-3.362-3.351a1.837,1.837,0,0,0-2.1-.4A2.2,2.2,0,0,0,652.043,225.2Z" transform="translate(-81.029 -95.648)" fill="#ccc198"/>
      <path id="Trazado_188637" data-name="Trazado 188637" d="M622.585,363.451a1.227,1.227,0,0,1-1.227-1.258,1.26,1.26,0,0,1,1.241-1.258,1.3,1.3,0,0,1,1.274,1.3A1.261,1.261,0,0,1,622.585,363.451Z" transform="translate(-57.534 -215.95)" fill="#ccc198"/>
      <path id="Trazado_188638" data-name="Trazado 188638" d="M834.3,149.262a1.26,1.26,0,0,1,1.272,1.227,1.254,1.254,0,1,1-1.272-1.227Z" transform="translate(-233.417 -40.098)" fill="#ccc198"/>
    </g>
    <text id="Ciclo_PHVA" data-name="Ciclo 
PHVA" transform="translate(758 4097)" fill="#12263f" font-size="20" font-family="Roboto-Black, Roboto" font-weight="800"><tspan x="19.629" y="21">Ciclo </tspan><tspan x="15.913" y="49">PHVA</tspan></text>
    <g id="Grupo_132753" data-name="Grupo 132753" transform="translate(-611.377 3776.994)">
      <path id="Trazado_188647" data-name="Trazado 188647" d="M1295.2,319.813c.3.092.6.176.9.277a4.777,4.777,0,0,1,3.26,4.389c.026,5.228.034,10.456,0,15.684a4.854,4.854,0,0,1-5.108,4.7c-2.481.018-4.963.019-7.444-.009a.821.821,0,0,0-.893.553c-.286.639-.625,1.257-.951,1.878a2.6,2.6,0,0,1-4.636-.013c-.346-.655-.693-1.311-1-1.982a.677.677,0,0,0-.729-.43c-2.938.015-5.876.011-8.814,0-.3,0-.563.011-.638.355-.081.369-.546.618-.141,1.131a3.777,3.777,0,0,1-2.508,6.143c-.506.077-.641.261-.745.735a8.608,8.608,0,0,1-5.912,6.59c-.181.064-.367.117-.658.21a10.65,10.65,0,0,1,4.5,6.323l2.443-.38c-.365-1.426-.754-2.923-1.128-4.424a.973.973,0,0,1,.674-1.247.992.992,0,0,1,1.218.746c.03.092.057.186.081.28q.784,3.079,1.567,6.157c.038.149.09.295.133.437,3.192.5,3.981,2.486,2.242,5.8h11.76c-.085,1.366.221,2.674-.226,3.926a2.668,2.668,0,0,1-2.621,1.866c-4.665.036-9.33.028-14,.007a2.852,2.852,0,0,1-2.812-2.524c-.049-.4-.047-.813-.073-1.313h-.624c-2.322,0-4.645,0-6.968,0a6.805,6.805,0,0,1-7.119-6.876c-.024-1.846.007-3.693-.008-5.539a4.926,4.926,0,0,1,1.1-3.132c-4.539-1.752-6.174-3.513-6.962-7.5-.114-.023-.242-.057-.374-.075a3.885,3.885,0,0,1-3.51-3.019,1.324,1.324,0,0,0-.1-.211v-1.283c.348-.641.7-1.28,1.039-1.925a.467.467,0,0,0,.067-.306c-.362-1.241-.735-2.478-1.106-3.717v-2.333c.059-.26.125-.519.177-.78a11.669,11.669,0,0,1,11.8-9.521q7.408-.01,14.815,0h.747c0-1.549,0-3.021,0-4.495a4.852,4.852,0,0,1,4.008-5.057.556.556,0,0,0,.144-.09ZM1268.646,336.8c1.31,1.856,1.267,3.979,1.17,6.122h.747c3.077,0,6.154.006,9.23-.009a.685.685,0,0,1,.731.428c.465.965.945,1.925,1.468,2.86a1.044,1.044,0,0,0,.681.51c.2.013.5-.278.621-.5.519-.938,1-1.9,1.469-2.86a.68.68,0,0,1,.724-.435q4.377.024,8.754.007a2.907,2.907,0,0,0,3.155-3.041c.013-.738,0-1.477,0-2.216q0-6.384,0-12.768a2.877,2.877,0,0,0-2.988-3.14q-11.761-.025-23.523,0a2.847,2.847,0,0,0-2.983,2.961c-.013,1.418,0,2.837,0,4.256a3.815,3.815,0,0,0,.046.429c2.445.394,3.684,1.511,3.872,3.456C1271.988,334.618,1270.912,335.972,1268.646,336.8Zm-3.713-1.121c1.254-.306,2.328-.563,3.4-.831a1.763,1.763,0,0,0,1.495-1.994,1.786,1.786,0,0,0-1.909-1.486c-5.974,0-11.948-.036-17.923.013a9.657,9.657,0,0,0-9.643,9.515,8.722,8.722,0,0,0,.936,4.092l1.02-.165v-2.853c.6,0,1.12,0,1.634,0a3.3,3.3,0,0,0,3.364-2.356.69.69,0,0,1,.79-.557c4.009.02,8.019.011,12.028.011h.58c.069.172.123.3.168.424a3.36,3.36,0,0,0,3.578,2.478h1.468v2.822c1.222.273,1.226.274,1.616-.782a8.473,8.473,0,0,0,.3-3.8,5.338,5.338,0,0,0-1.637-3.345C1265.826,336.489,1265.429,336.14,1264.933,335.677Zm-10.78,5.333c-1.608,0-3.217-.013-4.824.015a.919.919,0,0,0-.647.343,5.269,5.269,0,0,1-3.974,2.473c-.339.037-.43.168-.428.476.018,2.585-.039,5.172.051,7.754a6.679,6.679,0,0,0,6.4,6.228c2.261.071,4.527.07,6.788,0a6.579,6.579,0,0,0,6.324-5.772c.205-2.765.1-5.553.1-8.331,0-.115-.254-.313-.409-.332a5.392,5.392,0,0,1-3.977-2.484.914.914,0,0,0-.641-.353C1257.33,341,1255.741,341.01,1254.153,341.01Zm-3.936,27c-.3,3.278,1.716,5.671,4.9,5.721,3.91.061,7.821.016,11.732.014a4.12,4.12,0,0,0,.534-.042,2.893,2.893,0,0,0,2.456-2.624c.036-.77-.332-1.251-1.112-1.164a1.8,1.8,0,0,1-2.11-1.227,1.352,1.352,0,0,0-2.408,0,5.659,5.659,0,0,0-.453.883c-.142.365-.368.424-.739.358-1.717-.3-3.436-.6-5.161-.85a1.116,1.116,0,0,0-.766.255c-.448.372-.839.81-1.232,1.2l-1.509-1.426,1.3-1.1Zm5.815-2c0-1.16.084-2.251-.022-3.323a2.923,2.923,0,0,0-5.666-.369,27.756,27.756,0,0,0-.223,3.692Zm8.966,9.7c-.216,1.544.081,1.887,1.612,1.887h11.911c.417,0,.834.007,1.25-.018a.865.865,0,0,0,.868-.745,6.736,6.736,0,0,0,.013-1.124Zm-7.054-8.575,3.889.629a7.975,7.975,0,0,0-3.889-6.139Zm8-16.561a1.87,1.87,0,0,0,1.945-1.807,1.9,1.9,0,0,0-1.945-1.939Zm-23.676.02V346.8a1.906,1.906,0,0,0-1.914,1.988A1.878,1.878,0,0,0,1242.272,350.592Z" fill="#7e7e7e"/>
      <path id="Trazado_188648" data-name="Trazado 188648" d="M1322.221,380.006h-13.716V366.571h13.716Zm-1.976-11.474H1310.5v9.522h9.746Z" transform="translate(-23.865 -15.912)" fill="#7e7e7e"/>
      <path id="Trazado_188649" data-name="Trazado 188649" d="M1322.224,389.957V403.35H1308.5V389.957Zm-2,11.487v-9.568h-9.73v9.568Z" transform="translate(-23.862 -23.87)" fill="#7e7e7e"/>
      <path id="Trazado_188650" data-name="Trazado 188650" d="M1304.041,341.732c-.192.441-.261,1.029-.555,1.172a3.793,3.793,0,0,1-1.514.09c-1.012.007-2.027-.04-3.036.018-.569.033-.84-.162-.955-.674a4.036,4.036,0,0,0-.2-.532c-.061-.014-.113-.042-.133-.028-.87.641-1.482.322-2.118-.418a25.879,25.879,0,0,0-2.309-2.271c-.384-.347-.5-.648-.194-1.085a3.158,3.158,0,0,0,.259-.559c-.05-.055-.072-.1-.1-.108-1.1-.136-1.263-.807-1.186-1.758a26.285,26.285,0,0,0,.005-3.263.678.678,0,0,1,.607-.813,5.808,5.808,0,0,0,.641-.222c.005-.086.022-.128.009-.157-.5-1.114-.5-1.114.37-1.965.814-.8,1.651-1.573,2.431-2.4a.69.69,0,0,1,1.007-.162,5.739,5.739,0,0,0,.675.3l.5-1.251c1.66,0,3.325-.008,4.99.013a.6.6,0,0,1,.41.3,7.927,7.927,0,0,1,.366.95l1.193-.51,3.77,3.7-.495,1.1a.792.792,0,0,0,.17.135c1.091.443,1.091.441,1.091,1.565v4l-1.247.491a1.45,1.45,0,0,0,.046.195c.442,1.069.442,1.069-.41,1.9-.786.769-1.6,1.517-2.346,2.319-.373.4-.7.511-1.158.191A3.672,3.672,0,0,0,1304.041,341.732Zm-8.947-3.444a10.745,10.745,0,0,1,1.194,1.083.966.966,0,0,0,1.447.251,1.11,1.11,0,0,1,1.484.493c.217.932.813,1.05,1.609.939a1.328,1.328,0,0,1,.416,0,.941.941,0,0,0,1.251-.831c.109-.485,1.042-.933,1.423-.666.79.555,1.28.2,1.761-.392a1.78,1.78,0,0,1,.379-.369.855.855,0,0,0,.26-1.354,1.078,1.078,0,0,1,.571-1.524c.838-.195.982-.688.883-1.4a1.864,1.864,0,0,1,0-.581c.121-.671-.148-1.023-.829-1.189-.551-.134-.975-1-.676-1.435.5-.723.233-1.187-.364-1.633a1.94,1.94,0,0,1-.42-.412.928.928,0,0,0-1.434-.253,1.124,1.124,0,0,1-1.49-.5c-.218-.931-.816-1.054-1.614-.941a2.229,2.229,0,0,1-.3,0c-.992,0-.992,0-1.375.9-.183.428-1.048.842-1.427.588-.75-.5-1.25-.257-1.71.369a1.463,1.463,0,0,1-.336.329.944.944,0,0,0-.311,1.5c.272.409-.034,1.328-.5,1.415-1.019.189-1.059.84-.981,1.616a2.684,2.684,0,0,1,0,.64c-.069.482.116.72.607.869a1.184,1.184,0,0,1,.765,1.844C1295.3,337.821,1295.221,338,1295.094,338.288Z" transform="translate(-18.244 -1.985)" fill="#7e7e7e"/>
      <path id="Trazado_188651" data-name="Trazado 188651" d="M1323.852,349.966a.993.993,0,0,1-.972.97.963.963,0,1,1-.016-1.926A1,1,0,0,1,1323.852,349.966Z" transform="translate(-28.422 -9.936)" fill="#7e7e7e"/>
      <path id="Trazado_188652" data-name="Trazado 188652" d="M1286.1,326.546a.984.984,0,0,1,1.963.139.985.985,0,0,1-1.963-.139Z" transform="translate(-16.238 -1.988)" fill="#7e7e7e"/>
      <path id="Trazado_188653" data-name="Trazado 188653" d="M1323.852,326.6a.969.969,0,0,1-.968.964.957.957,0,0,1-.986-.942.97.97,0,0,1,.963-.97A.989.989,0,0,1,1323.852,326.6Z" transform="translate(-28.423 -1.989)" fill="#7e7e7e"/>
      <path id="Trazado_188654" data-name="Trazado 188654" d="M1320.282,371.438l1.509,1.232-5.546,6.515-2.635-2.584,1.309-1.3,1.063,1.186Z" transform="translate(-25.603 -17.568)" fill="#7e7e7e"/>
      <path id="Trazado_188655" data-name="Trazado 188655" d="M1316.018,399.827l4.271-5.012,1.521,1.214-5.505,6.473-2.647-2.6,1.282-1.3Z" transform="translate(-25.619 -25.524)" fill="#7e7e7e"/>
      <path id="Trazado_188656" data-name="Trazado 188656" d="M1307.861,336.312a4.924,4.924,0,1,1-4.93-4.822A4.906,4.906,0,0,1,1307.861,336.312Zm-4.942,2.876a2.879,2.879,0,1,0-2.921-2.9A2.9,2.9,0,0,0,1302.919,339.189Z" transform="translate(-20.295 -3.974)" fill="#7e7e7e"/>
    </g>
    <g id="Grupo_132754" data-name="Grupo 132754" transform="translate(-787.158 3870.663)">
      <path id="Trazado_188657" data-name="Trazado 188657" d="M1584.236,150.984a1.6,1.6,0,0,1-.536-1.33c-.158-2.393.781-3.3,3.112-3.123.5.038,1.009.005,1.56.005v-1.8h-16.006c-1.783,0-2.561-.77-2.561-2.537q0-12.17,0-24.34c0-1.765.748-2.523,2.492-2.523h17.977v-4.227a3.7,3.7,0,0,1-2.677-3.025,1.3,1.3,0,0,1-.04-.564c.222-.732-.179-1.072-.732-1.439-1.723-1.145-3.418-2.334-5.105-3.532a.65.65,0,0,0-.922.005,9.1,9.1,0,1,1,2.023-2.078q-.123.183-.242.37c-.01.016-.005.041-.016.143l5.873,4.074c2.19-1.563,3.617-1.564,5.524.015l5.959-4.126c-.158-.233-.3-.436-.434-.64a9.233,9.233,0,1,1,2.192,2.283.724.724,0,0,0-1.026-.013c-1.806,1.286-3.637,2.536-5.461,3.8-.245.169-.429.3-.372.694a3.548,3.548,0,0,1-2.243,3.846.641.641,0,0,0-.486.728c.029,1.2.01,2.4.01,3.689h18.021c1.744,0,2.495.758,2.5,2.52q0,12.17,0,24.34c0,1.767-.779,2.539-2.559,2.539h-16.011v1.8c.795,0,1.59,0,2.385,0a2.09,2.09,0,0,1,2.275,2.29c0,.275-.02.551.005.824a1.39,1.39,0,0,1-.525,1.332Zm7.006-33.87h-18.821c-.838,0-.84,0-.84.842q0,12.072,0,24.144c0,.853.008.863.838.863H1610c.831,0,.84-.011.84-.861q0-12.072,0-24.144c0-.843,0-.844-.838-.844Zm-10-17.646c1.8-1.992,2.269-6.438-.691-9.422a7.377,7.377,0,0,0-10.612.093c-2.892,3.015-2.356,7.406-.6,9.326a6.387,6.387,0,0,1,3.141-4.008c-1.467-2.043-1.436-4.1.041-5.568a3.914,3.914,0,0,1,5.048-.4,3.752,3.752,0,0,1,1.534,2.326,4,4,0,0,1-1.041,3.645A6.349,6.349,0,0,1,1581.246,99.469Zm19.841-.09a15.623,15.623,0,0,1,1.245-2.2,17.233,17.233,0,0,1,1.908-1.816c-1.411-2.064-1.349-4.1.2-5.553a3.9,3.9,0,0,1,5.107-.215,3.729,3.729,0,0,1,1.4,2.268,3.992,3.992,0,0,1-1.057,3.593,6.43,6.43,0,0,1,3.2,4.053,7.311,7.311,0,0,0-1.121-9.848,7.387,7.387,0,0,0-10.329.611C1598.914,93.272,1599.426,97.517,1601.087,99.379Zm6.063,3.263a7.079,7.079,0,0,0,3.908-1.165,1.012,1.012,0,0,0,.384-.75,4.3,4.3,0,0,0-4.274-4.14,4.351,4.351,0,0,0-4.385,4.116.781.781,0,0,0,.43.82A7.808,7.808,0,0,0,1607.15,102.641Zm-31.834-6.055a4.3,4.3,0,0,0-4.34,4.138,1.018,1.018,0,0,0,.384.753,7.317,7.317,0,0,0,7.886-.01.958.958,0,0,0,.368-.7A4.3,4.3,0,0,0,1575.316,96.586Zm2.1-3.928A2.124,2.124,0,1,0,1575.3,94.8,2.123,2.123,0,0,0,1577.418,92.658Zm31.83-.03a2.124,2.124,0,1,0-2.091,2.175A2.127,2.127,0,0,0,1609.248,92.628ZM1591.2,109.415a1.863,1.863,0,1,0-1.879-1.9A1.871,1.871,0,0,0,1591.2,109.415Zm5.684,39.775c.068-.853.052-.877-.679-.877q-5,0-10,0c-.738,0-.8.1-.618.877Zm-6.657-4.416v1.718h1.947v-1.718Z" transform="translate(0)" fill="#0d2380"/>
      <path id="Trazado_188658" data-name="Trazado 188658" d="M1673.355,313.122a8.334,8.334,0,1,1,8.326-8.355A8.35,8.35,0,0,1,1673.355,313.122Zm5.368-4.744a6.381,6.381,0,0,0-.79-8.271,6.587,6.587,0,0,0-9.155-.049,6.385,6.385,0,0,0-.834,8.326,5.775,5.775,0,0,1,2.723-3.41c-1.292-1.9-1.214-3.8.168-5.107a3.6,3.6,0,0,1,4.647-.288,3.463,3.463,0,0,1,1.362,2.072,3.731,3.731,0,0,1-.873,3.321A5.77,5.77,0,0,1,1678.724,308.378Zm-5.459,2.974a6.288,6.288,0,0,0,3.481-.974.966.966,0,0,0,.373-.691,3.79,3.79,0,0,0-7.572-.013.957.957,0,0,0,.365.694A6.115,6.115,0,0,0,1673.264,311.352Zm1.889-8.876a1.823,1.823,0,1,0-1.857,1.834A1.82,1.82,0,0,0,1675.154,302.476Z" transform="translate(-82.123 -174.762)" fill="#0d2380"/>
    </g>
    <g id="Grupo_132755" data-name="Grupo 132755" transform="translate(-1128.767 3962.556)">
      <path id="Trazado_188659" data-name="Trazado 188659" d="M2081.112,194.594h-40.345V142.728h40.324v4.354c.257-.236.416-.371.563-.518q4.971-4.969,9.943-9.938a5.039,5.039,0,0,1,7.506,6.722c-.2.227-.411.438-.623.65q-8.431,8.434-16.871,16.857a1.6,1.6,0,0,0-.506,1.255q.02,15.861.01,31.723Zm-13.459-17.3h-7.661V161.929h.674c2.864,0,5.728-.012,8.591.012a.693.693,0,0,0,.791-.581q.676-2.145,1.422-4.268a2.361,2.361,0,0,1,.52-.847c1.814-1.84,3.569-3.749,5.5-5.458a4.336,4.336,0,0,0,1.715-4.2,12.6,12.6,0,0,1-.016-1.932H2042.7v47.992h36.45V163.5a13.5,13.5,0,0,1-1.379.552.6.6,0,0,0-.513.708c.018,3.966.011,7.932.011,11.9v.675h-7.691c0,1.181.016,2.318-.009,3.455a.732.732,0,0,0,.459.779,2.815,2.815,0,0,1,1.438,2.932,2.932,2.932,0,0,1-2.386,2.395,2.8,2.8,0,0,1-2.934-1.43.778.778,0,0,0-.837-.465c-3.485.012-6.969.007-10.454.007h-.676v3.808h-9.553v-9.6h3.76v-5.778h-3.772v-9.6h3.763v-5.778h-3.754V148.5h9.578v3.773h3.855v-3.763h9.552v9.544h-9.582v-3.766h-3.855V158.1H2050.4v5.778h3.753v9.6h-3.765v5.778h3.826v3.752a.585.585,0,0,0,.15.06c3.745,0,7.49.011,11.235,0,.148,0,.312-.167.439-.288.454-.435.9-.877,1.337-1.33a.815.815,0,0,0,.269-.45C2067.662,179.8,2067.653,178.6,2067.653,177.292Zm7.641-1.915V164.885l-1.988.674-.072.18.806.555-7.392,7.395-3.4-3.413,1.352-1.4,1.988,2.118,5.247-5.245a2.7,2.7,0,0,1-2.157-1.859h-7.744v11.485Zm19.239-30.32c1.083-1.042,2.221-2.028,3.227-3.134a2.958,2.958,0,0,0,.144-3.585,3.082,3.082,0,0,0-3.352-1.3,2.1,2.1,0,0,0-.873.372c-1.19,1.086-2.346,2.209-3.494,3.3Zm-19.243,13.464,11.969-11.968-1.341-1.351-11.941,11.943Zm13.594-10.474-11.989,11.995,1.293,1.306,11.969-11.973Zm-42.355,8.071h5.694v-5.694h-5.694Zm13.475-5.7v5.694h5.694v-5.694Zm-7.783,21.113v-5.716h-5.672v5.716Zm-5.676,9.655v5.694h5.694v-5.694Zm42.291-38.882-1.389,1.265,4.24,4.3,1.4-1.307Zm-16,16.735c-.424,1.273-.882,2.585-1.294,3.913a.675.675,0,0,0,.863.855c1.325-.411,2.637-.868,3.915-1.294Zm-3.265,25.028a.957.957,0,1,0-.981.933A.967.967,0,0,0,2069.57,184.067Z" transform="translate(0 0)" fill="#fc502d"/>
    </g>
  </g>
</svg>
